<?xml version='1.0' encoding='utf-8'?>
<svg xmlns="http://www.w3.org/2000/svg" width="13in" height="18in" version="1.1" style="shape-rendering:geometricPrecision; text-rendering:geometricPrecision; image-rendering:optimizeQuality; fill-rule:evenodd; clip-rule:evenodd" viewBox="0 0 13000 18000"> <defs> <style type="text/css">  .fil0 {fill:black} .fil1 {fill:white}  </style> </defs> <g id="Layer_x0020_1"> <metadata id="CorelCorpID_0Corel-Layer"/> <g id="_2441473632"> <path class="fil0" d="M7213 11710c33,-19 44,-19 75,0 -23,16 48,15 -37,12 -45,-1 -32,-9 -38,-12zm-1612 -14l37 -4c-10,23 -35,6 -37,4zm-817 -14c10,-5 443,-37 485,14 -26,14 34,20 -58,11 -57,-5 -46,-26 -193,-9 -41,5 -210,30 -233,-16zm166 -83c48,-29 468,-25 512,0 -78,46 -237,14 -391,26 -138,10 -111,-1 -120,-26zm-254 0c39,-20 55,-19 97,0 -15,12 32,17 -41,20 -53,2 -47,-14 -55,-20zm-344 0c52,-19 104,-25 149,0 -40,29 -113,20 -149,0zm-239 0c70,-46 65,-4 72,0 -22,14 8,15 -32,16 -71,1 -14,2 -40,-16zm3861 -107c15,31 14,43 0,75 -21,-33 -21,-44 0,-75zm-667 -71c17,34 15,87 0,119 0,0 -14,-20 -15,-51 0,0 2,-41 2,-41 5,-26 5,-15 13,-27zm-1329 95c40,-15 31,-13 63,12 -48,2 -32,10 -63,-12zm-839 0c51,-26 147,-22 207,-12l61 25c-51,33 -56,4 -199,8 -12,0 -30,2 -41,-1 -38,-11 -9,-2 -29,-21zm-817 0c87,-46 288,-22 401,-16 110,7 305,-54 379,16 -15,12 1,12 -31,19l-153 -1c-139,-2 -514,18 -596,-18zm-90 0c-13,6 -2,7 -36,9 -15,1 -35,-1 -50,-1 7,-47 62,-22 86,-8zm-255 0c38,-19 34,-16 65,0 -21,13 29,12 -28,13 -36,1 -22,-3 -37,-13zm3886 -81c8,12 17,-4 16,40 -1,70 -8,30 -16,44 -24,-41 -25,-48 0,-84zm-444 -51l14 145c-34,-17 -34,-20 -37,-68 -3,-49 -11,-63 23,-77zm188 -1l35 -2c26,62 6,156 11,226l86 -5c3,-66 -25,-107 0,-154 47,37 22,34 26,159 121,6 269,13 419,14 75,0 139,12 210,17 96,7 93,-34 181,18 -39,28 -107,24 -169,22l-1222 -48c-211,-10 -1343,7 -1434,-25 22,-17 -19,-11 45,-20 215,-29 186,-4 389,1 163,4 325,-1 487,1 279,4 428,21 708,14 45,-1 80,1 125,2 15,0 44,2 56,1 6,0 23,0 27,-1 65,-11 45,-37 30,-112 -7,-32 -10,-68 -9,-106zm-77 23c23,37 21,100 0,135 -17,-31 -41,-111 0,-135zm-1458 41c18,-10 30,-18 42,-27 18,14 10,6 26,17 33,23 11,4 33,28l-199 -1c18,-14 -36,-27 98,-16zm-1167 -28c-25,45 -37,23 -180,25 -69,1 -150,2 -218,-2 17,-57 106,-37 176,-35 69,2 172,-22 221,12zm-961 14c21,-17 -17,-23 115,-16l250 -5c59,-1 87,-9 123,21 -55,33 -160,12 -235,14l-195 3c-80,-4 -34,-2 -58,-17zm4670 -45c52,5 55,2 60,58 3,33 -4,99 -6,133 -5,0 -34,-3 -45,1l-51 21c-8,-85 -15,-43 38,-84 11,-104 -28,-95 5,-128zm-4123 -38c19,-37 2,-22 67,-23l196 -1c64,5 54,1 63,42 -92,-23 -241,26 -326,-17zm3313 -42c17,-47 111,-25 138,0 -29,15 -56,11 -103,7 -34,-3 -25,-3 -35,-7zm-3395 -42c34,-17 74,-10 122,-9 56,1 100,-17 104,29 -80,12 -169,7 -226,-20zm4557 -86c10,-53 -13,-12 12,-36l28 -12c19,-4 55,-1 75,1l3 55 -118 -8zm-1116 -67c9,-7 7,-9 25,-16 3,-1 27,-8 32,-9l222 -17c56,5 28,7 39,14 -22,13 15,11 -67,14 -106,4 -120,17 -251,13zm255 -105l31 -12 -31 12zm-4108 8c8,-21 -11,-26 38,-39 13,-3 193,-26 234,11 -11,23 29,28 -127,38 -48,3 -106,4 -145,-11zm4499 -56c42,-23 69,-13 99,14 -29,12 -70,1 -99,-14zm-771 -39l3 54 -120 9c27,-57 -25,-21 53,-50 3,-1 7,-2 9,-3l55 -10zm-2162 53c37,-25 69,-13 120,-10 -38,24 -19,19 -55,22 -35,3 -42,0 -65,-11zm2604 -42c2,-1 -6,-23 85,-10 26,4 58,8 87,25l-172 -16zm-39 -70l6 73 -64 -1c0,-1 -51,-41 19,-66 25,-9 18,-3 39,-5zm-2598 43l19 -11c14,-3 22,-6 39,-6 43,1 30,2 55,16 -35,22 -79,21 -112,0zm139 -7c56,-41 101,-47 98,49 68,0 157,-25 196,28 -53,30 -157,10 -225,0 4,-74 -5,-56 -69,-77zm-1811 1c-4,-64 68,-71 187,-76 88,-4 189,0 278,-1 174,-2 377,-45 542,-25 18,17 105,120 106,159 -76,3 -257,19 -311,-8 42,-23 111,-15 161,-8 5,1 17,4 21,4 44,1 78,-56 -30,-67 -47,-5 -95,2 -142,3 -199,5 -644,53 -812,20zm4887 -49c29,-16 39,-14 75,0 -26,14 -38,20 -75,0zm-3631 -96c-25,-6 -62,30 -40,-62 12,-53 17,-35 16,-106l0 -150c16,-55 -4,-8 24,-32 2,2 20,-15 24,73 5,106 -36,200 -24,277zm1681 -222c35,10 10,-25 36,22 14,26 6,17 9,50 -51,-10 -23,21 -50,-27 -19,-34 -5,-34 5,-46zm-2042 -250c5,45 58,131 78,184 9,22 6,20 16,40 13,26 30,59 43,82 78,146 77,121 137,215 44,68 28,-4 52,82 -73,18 -87,5 -119,-42 -106,-159 -153,-308 -216,-467 -1,-3 -15,-37 -15,-40 -8,-100 -2,-31 25,-55zm1854 34l-10 -63c4,-2 8,-9 10,-7 1,3 7,-5 9,-6l53 -30c1,69 9,120 -62,106zm-1368 -35c45,-38 41,-9 90,-21 51,-13 6,-23 93,-23 -25,41 -66,54 -128,59 -79,6 -39,-4 -55,-15zm1611 -506l361 562c67,129 20,5 73,166 51,154 -170,128 -242,153l-93 12c8,-68 -1,-70 -33,-115 -74,-106 -118,-272 -163,-286 -8,-83 -2,-75 8,-141 20,-140 -53,-53 27,-251 21,-51 26,-76 62,-100zm-181 153c-20,-38 -13,-38 14,-61 3,4 22,-17 8,32 -4,12 -13,23 -22,28zm358 -832l67 -6 2 61c-34,6 -81,4 -69,-54zm-467 -384l59 15c26,6 40,8 67,13 136,23 69,101 202,-5 20,-16 3,-11 30,-21l27 92 -65 18 -16 68c31,19 51,29 75,43l6 310c32,26 32,17 42,64 -46,-15 -37,-25 -60,-60 -39,-58 -28,-7 -76,-100 -21,-41 -5,-15 -28,-45 -36,-49 -24,-37 -52,-85l-135 -170c-78,-134 -37,-13 -75,-134zm-543 -72c23,12 28,4 38,27 19,46 -8,31 -10,33 -41,-20 -22,24 -28,-60zm-250 -13c92,54 72,47 70,97 -44,-1 -92,-9 -75,-88 0,-2 2,-7 5,-10zm831 -41c34,6 45,11 57,19 38,27 22,21 32,55l-81 -5 -7 -69zm-121 28c46,17 20,-20 37,40 -50,-12 -28,8 -37,-40zm-943 -100c24,69 18,46 -17,59 -2,-4 -15,-9 -11,-26 14,-62 0,-15 28,-34zm3038 -231c2,3 4,4 5,8l13 26c60,128 21,69 38,126l-56 6 17 -71c-15,-19 -25,-28 -29,-46 -12,-59 12,-49 12,-50zm-3197 -97l-6 107c-26,-4 -55,-1 -41,-46 3,-9 40,-54 46,-61zm-1190 13c53,22 27,3 35,36 -48,0 -20,28 -35,-36zm4122 -156c101,69 157,428 161,545 0,2 3,53 3,55 -2,43 0,19 -11,37 -2,-5 -9,-23 -10,-26 -26,-56 -25,-35 -38,-112 -28,-168 -103,-424 -105,-499zm278 17c37,22 11,-6 32,37 13,26 13,33 28,56l123 195c38,58 52,38 57,114 -107,1 -95,-33 -162,-176 -24,-52 -35,-51 -56,-112 -20,-62 -54,-56 -22,-115zm-4587 32c36,5 34,15 44,48 -57,-28 -30,-28 -44,-48zm74 -34c38,12 54,26 80,82 -19,-3 -35,12 -69,-51 -2,-4 -6,-31 -11,-32zm515 -42l34 -6c-46,52 31,19 -11,15 -27,-2 -12,-2 -24,-9zm-276 -38c76,10 49,104 121,111 24,2 39,-8 66,-13 -17,37 3,7 -32,28l-94 50c-62,12 -44,-7 -51,-12 20,-47 -12,-21 59,-14 -4,-124 -51,-54 -69,-149zm-129 -56c2,2 6,2 7,7l88 127c-40,-13 -128,-104 -95,-133zm1230 -29l96 -21 42 99c61,98 12,-24 162,252 43,79 55,38 103,118l134 208c-81,1 -115,15 -178,-22 -62,-36 -63,-41 -147,-51 -40,-90 -149,-143 -166,-238l-9 -85c-14,-65 -45,-210 -38,-261zm-1285 -53c1,24 1,10 12,46 -9,-3 -30,-15 -31,-17 -15,-49 -9,-18 19,-30zm627 95c37,-20 94,-42 119,-62 48,-37 47,-53 130,-66 -22,45 4,18 -114,80 -116,61 -84,67 -135,47zm764 -253l81 -38c50,30 70,65 102,118 28,47 73,84 99,134 14,28 17,50 32,83 35,78 75,115 115,174 29,42 12,14 34,39 57,64 120,197 186,283l100 136c39,58 45,94 118,123 18,104 81,89 124,166l331 447c96,119 88,164 225,304 42,43 63,100 102,145l130 180c57,66 142,167 170,244l100 216c67,115 193,121 267,13 38,11 45,1 77,-9 -11,-53 -5,-37 -33,-64 9,-84 -12,-92 46,-131 41,-28 52,-58 87,-110 29,-43 73,-129 101,-145 20,44 -46,124 -70,163 -34,55 -85,120 -100,186 66,-18 86,-91 120,-150 168,-290 155,-372 243,-552 55,-111 92,-295 111,-415l27 -360c0,-43 -9,-92 15,-125 55,80 35,518 19,592l-84 386c-23,123 -171,534 -235,638 -23,37 -13,6 -35,53 -17,36 8,0 -28,51 -55,77 -103,179 -168,235 -39,33 -47,36 -81,73 -172,193 -311,151 -431,207 -46,22 -68,31 -126,37 -241,27 -503,-8 -745,-41 -93,-13 -462,-135 -546,-175 -38,-18 -3,17 -36,-38l445 130 675 75c58,-3 5,-1 46,-6l83 -21c-21,-13 13,-16 -100,-16 -50,0 -77,3 -123,6 -187,11 -451,-44 -628,-80 -135,-27 -492,-145 -609,-214 -25,-15 -54,-23 -65,-54 49,-1 253,72 310,86 436,107 523,113 1004,105 62,-1 58,-1 111,-14l25 -59c2,3 7,3 8,9l22 30c89,3 64,10 114,-32 33,-28 60,-42 76,-79 35,-79 -35,-181 -61,-247 -19,-49 -28,-54 -56,-98l-113 -205c-2,-3 -3,-6 -5,-9 -107,-184 -219,-310 -326,-492l-151 -211c-14,-19 -20,-27 -35,-50l-383 -533c-8,-13 -8,-15 -16,-26l-399 -558c-35,-36 -42,-60 -72,-98 -24,-30 -41,-54 -62,-88l-130 -189c-40,-51 -39,-43 -32,-136zm2512 652c-27,-18 -36,28 -27,-78 8,-93 22,-96 37,-171 32,-158 80,-280 90,-441l64 28c6,69 0,85 -19,144l-50 142c-40,94 -9,63 -29,124 -8,23 -27,61 -32,80 -13,52 -45,138 -35,174zm-3707 -748l50 -37c-4,20 5,21 -11,37 -37,38 -32,4 -39,0zm390 14c53,-41 94,-99 163,-111 -18,51 -13,34 -115,106 -61,43 -39,9 -48,5zm612 -111c-1,-35 42,5 13,5 -20,0 -12,15 -13,-5zm-6 -109c-10,40 11,22 -37,25 21,-29 -24,-18 37,-25zm58 -57c31,-25 31,-32 70,-44 -7,22 -4,34 -26,49 -58,39 33,2 -16,6 -60,5 -3,2 -27,-11zm196 -69c18,-32 4,-20 39,-36 1,2 23,10 0,35 -34,39 -34,3 -39,1zm-1114 639l168 -123c25,-19 8,-4 33,-21l486 -378c62,-52 160,-160 246,-177 -18,63 -148,163 -211,200l-683 510c-56,13 -34,-7 -40,-11zm-13 -306c38,-59 245,-210 301,-267 60,-61 247,-231 322,-247 -32,65 -54,62 -143,146l-393 332c-69,52 -55,50 -86,36zm84 -389c26,-48 115,-120 164,-150 0,0 44,-2 -10,41l-130 117c-1,0 -6,-1 -7,-1l-17 -8zm456 181c21,-36 176,-127 214,-160 71,-61 284,-249 354,-270 -17,61 -54,70 -124,125l-398 311c-64,23 -43,-4 -47,-7zm484 -263c19,-49 20,-38 55,-72l223 -179c-20,46 6,4 -21,34l-105 102c-12,11 -17,16 -28,23 -90,59 -40,66 -86,86 -6,2 -32,5 -38,6zm-914 249l208 -182c84,-84 606,-491 672,-457l-560 404c-20,15 -31,28 -50,44 -67,56 -95,96 -183,155l-87 36zm555 -319c16,-45 50,-59 116,-106l156 -108c70,-51 157,-142 237,-155 -22,79 14,20 -77,80 -2,2 -6,4 -8,5 -2,2 -6,4 -8,6l-218 155c-34,23 -91,111 -197,122zm487 -139c25,-41 278,-247 305,-263 12,25 22,-30 8,26l-231 195c-24,16 -66,66 -73,46 -1,-3 -6,-3 -9,-4zm-1168 806l655 -554c57,-44 113,-71 173,-121l345 -264c49,-38 123,-118 177,-132 -5,49 1,30 -21,52 -1,1 -44,33 -47,35l-172 135c-35,30 -37,37 -81,70 -23,17 -18,16 -36,34 -31,32 13,-2 -48,37l-270 188c-35,37 6,2 -33,36 -20,17 -31,25 -47,38l-54 42c-2,2 -5,5 -7,7l-507 407c-31,4 -15,-4 -28,-10zm1570 -1155c67,20 40,-1 55,44 -36,24 -18,11 -96,13 15,-43 21,-36 41,-57zm-146 64c-63,-16 -24,9 -35,-34 39,14 18,-10 35,34zm-793 -178c5,17 11,22 11,47 0,76 -2,23 -16,45 -71,-23 -51,-67 5,-91zm662 143c54,-41 135,-116 194,-129 12,8 21,10 36,26 29,30 6,-11 18,34 -1,1 6,21 -38,17 -66,-7 -16,-1 -32,-29 -43,14 -68,37 -93,56 -107,80 -86,26 -86,26zm-694 1194l318 -207c19,-12 20,-9 37,-19 4,-2 14,-9 17,-11 3,-2 18,-16 22,-19 31,-26 47,-35 73,-67l357 -434c55,-72 172,-256 230,-297l-9 -85c79,6 96,-7 96,-94 55,-17 41,-3 41,-68l49 -5c4,-85 -9,-38 31,-56 5,8 60,-15 -34,109l-133 195c-72,71 -31,56 -70,98 -43,47 -25,11 -76,93l-165 209c-52,42 -18,20 -52,70l-235 270c-57,76 11,11 -80,84 -22,17 -20,21 -45,37 -23,15 -31,19 -52,33 -27,18 0,2 -25,16l-255 159c-73,11 -30,-5 -41,-12zm599 -1208c34,-55 10,-20 66,-56 60,-39 140,-117 179,-97 -30,41 -186,152 -245,153zm-878 431c12,-9 21,-15 31,-22 13,-10 14,-12 33,-26 23,-18 32,-25 57,-41 46,-29 65,-35 112,-82l217 -170c80,-59 400,-290 481,-299 -34,63 -320,228 -385,268 -71,43 -90,53 -115,108 54,2 128,-60 183,-93 53,-31 107,-94 174,-99 -22,51 -2,11 -72,63l-650 462c-57,47 -47,46 -90,55 28,-50 11,-14 54,-55 -9,-50 -3,-14 -16,-40 -5,-10 -8,-10 -14,-29zm501 -485c-59,49 -72,70 -114,83 0,-52 0,-100 2,-152 5,-96 -9,-63 -11,-124 139,-5 177,53 229,94 -22,85 -45,48 -106,99zm-307 -223c43,24 39,29 38,81l-63 -16c6,-40 8,-42 25,-66zm-162 135c-102,-101 -80,-22 -149,-88l117 -4c26,25 25,15 51,32 122,82 161,379 42,488 -77,70 -269,55 -332,34 -34,-11 -96,-56 -118,-75 -57,-47 -20,-64 -69,-106 -5,-57 -10,-52 9,-85 31,33 20,39 42,73 16,25 17,31 53,38 -22,-144 -45,-16 -8,-246 55,-28 23,-31 79,-44 -2,52 -6,99 27,143 17,24 51,61 74,79 37,30 117,63 184,-8 67,-72 50,-180 -1,-231zm1398 -133c3,18 8,26 16,55 -29,-7 -27,10 -39,-17 -26,-59 19,-35 23,-38zm208 -42c3,6 27,-16 7,50l-10 17c-19,36 -14,32 -37,58l-40 -71c12,-6 0,-4 28,-10 3,-1 19,0 23,0l28 -44zm-320 164c-53,-21 -121,-102 -135,-134 39,18 113,86 135,134zm-559 -106c-1,-73 -8,-75 -75,-106 -3,-1 -7,-3 -9,-4l-69 -40c-123,-59 -274,-39 -413,-37 -79,1 -72,16 -127,28 -69,14 -234,-6 -323,-1l-223 189c-66,49 -122,203 -135,288 -13,84 7,118 39,173 24,42 36,111 64,148 80,103 202,77 290,136 -20,55 -76,76 -109,116l-43 40c-28,28 -16,22 -32,36 -6,5 -36,28 -46,36l-242 244c-162,178 -554,431 -312,675l77 89c10,11 19,22 34,36 2,2 5,5 8,7l15 14c146,144 4,167 405,-7l306 -123c109,-48 181,-80 312,-121 86,-27 222,-106 304,-123l0 319c23,24 16,10 27,41 14,38 9,42 30,72 22,31 22,16 42,41l155 154c191,227 329,129 529,173 22,5 66,20 81,20 74,1 10,-11 82,-26 0,43 81,144 109,184 20,28 15,12 33,34 85,104 222,332 295,403l34 43c50,72 52,62 27,133 -28,77 -5,50 -63,108 -62,62 -72,140 -73,218 -2,175 -157,177 15,472 17,29 36,49 46,65 27,46 21,90 57,124 31,30 6,0 27,26 44,55 96,82 170,57 51,-17 -21,-14 36,-19 52,-5 10,-11 37,24 -3,2 -7,1 -9,5 -13,35 -165,21 -193,27 -168,37 -594,-97 -809,-143 -156,-34 -326,-79 -471,-144 -62,-28 -41,3 -77,-51 2,-3 6,-12 7,-9l35 -22c22,-9 32,-7 56,-24 69,-50 248,-117 258,-222l-115 -57c-68,-9 -50,8 -61,15 41,50 8,17 95,33 -1,50 -41,77 -77,106l-28 -62c-172,-36 -377,-42 -539,-120 -43,-21 -113,-46 -138,-80 63,0 75,20 128,36 118,35 337,95 459,94 -14,-53 -29,-65 -83,-84 -102,-37 -474,-115 -610,-181 -52,-25 -46,-23 -111,-41 -65,-18 -66,-29 -141,-15 -5,107 13,78 37,174l24 61c6,18 9,48 11,68 9,76 25,82 38,131 15,57 19,81 35,133l145 341c22,35 52,57 45,109 -270,16 -857,-40 -1096,44 -62,22 -64,35 -88,75 0,112 13,132 123,139 -1,70 -2,81 70,89 63,7 78,-9 129,-11l13 70c17,7 -24,10 35,11 73,1 67,-21 130,-58 15,-9 19,-10 34,-19 213,-121 573,-34 795,-38 12,-19 0,10 14,-31 9,-24 -3,-9 13,-37 73,26 -7,49 136,71 15,-73 36,-119 48,-199 6,-39 8,-50 17,-93 16,-70 19,-36 34,-89 -15,-60 -26,-40 -26,-136 68,21 68,63 151,96 -14,43 102,43 115,111 -59,-1 -127,-17 -186,-6 -71,13 -33,10 -47,32 81,54 233,-18 312,-13 38,55 108,38 107,105l-302 16c-52,6 -50,6 -74,47 56,0 118,-19 157,-2 -3,2 -7,1 -8,5 -6,18 -190,27 -223,64 57,36 145,-4 208,-13 79,-12 61,-1 82,15 -51,20 -116,13 -170,25 -63,14 -24,-2 -41,29 72,49 233,3 319,-2 116,-6 260,12 363,3 41,-3 98,-68 284,21 97,46 188,49 288,73 208,51 433,63 652,53 157,-7 569,-96 623,-94 2,4 4,5 5,11l22 38c229,1 589,-59 781,-24 -18,25 8,13 -22,28l-784 40c-74,-10 -75,-33 -173,-13 -67,14 -123,19 -192,31 -57,10 -147,13 -206,16l-201 6c-3,1 -7,4 -10,5l71 14c32,0 66,-2 98,-3l547 -20c-70,75 -569,62 -686,61 -267,-1 -179,-17 -473,9l-723 -31c-149,-40 -541,-9 -735,-15 -87,-3 -148,-19 -236,-22 -76,-3 -151,-32 -233,-21 -79,10 -137,-5 -225,-4 -102,2 -350,-21 -444,2 -42,10 -32,17 -43,30 97,68 323,-30 418,28 -23,15 13,13 -98,16 -77,2 -264,4 -309,26 33,20 45,17 101,18 67,1 267,1 302,24 -190,19 -277,18 -469,8 -16,-32 -6,-27 -42,-43 -11,14 -10,7 -21,32 -2,4 -10,28 -11,33 -8,41 -1,57 3,98 6,61 0,113 36,156 65,79 185,37 410,92 283,69 579,81 874,64 111,-6 165,-16 291,-13 220,7 338,-64 541,-70 170,-5 404,17 598,13 528,-12 370,34 570,54 51,5 101,-5 153,2 332,47 681,28 1014,-8 301,-32 504,2 801,-118 64,-26 128,-166 74,-222 -48,-30 -94,-7 -153,6l-4 104c-50,-8 -30,-35 -32,-97l-78 1c0,57 14,95 -15,138l-24 1c-21,-38 -6,-72 -23,-110 -15,-32 -3,-14 -32,-29 -48,43 -20,125 -42,181 -60,-27 -29,-158 -57,-213 -15,-30 6,27 -13,-27l112 -35c-13,-31 28,-20 -40,-29 -153,-21 -661,52 -778,-12 82,-42 361,-15 485,-17 14,0 60,2 69,1 40,-5 20,4 45,-26 -41,-34 -100,-17 -154,-15 -147,6 -375,27 -505,-10 58,-46 473,-34 559,-38 107,-5 126,-37 152,-45 66,1 86,7 108,52 -47,40 -60,13 -108,42 15,11 -6,23 111,17 46,-3 79,-5 125,-3 113,4 127,-34 218,-23 -6,36 -59,111 20,113 143,3 -7,-216 -28,-256 -318,-31 -103,67 -344,-61 -38,-20 -97,-40 -137,-58 62,0 164,11 233,21 40,6 78,6 117,11 32,4 98,15 120,-6l16 -56c-3,-50 -1,-26 -18,-58 -55,-100 -166,-83 -262,-102 -36,-7 -51,-9 -98,-12 -7,0 -49,-3 -58,-4 -48,-7 -20,11 -40,-22 65,-28 208,8 278,16 98,11 74,4 99,-16 -23,-38 -30,-30 -84,-44 -131,-33 -551,-66 -676,-28l-101 48c-4,17 -35,27 -59,67l-69 82c-30,43 -103,127 -164,97 21,-34 58,-58 94,-96l46 -50c27,-29 31,-37 52,-59l117 -178c15,-28 26,-33 46,-64 155,-237 248,-616 313,-899 32,-141 70,-183 79,-320 35,-526 -31,-429 -35,-769 87,11 83,38 173,45 78,7 160,5 235,-4 29,-26 15,-14 37,-18 6,-117 -43,-121 -93,-196l-263 -348c-25,-31 -4,-8 -30,-37l-379 -400c-193,-140 -178,12 -180,102l-183 743c-28,104 -80,187 -19,293 175,12 376,-247 405,-268l37 -15c65,115 62,394 57,566 -8,257 -101,519 -217,742 -17,32 -34,73 -51,99l-68 103c-43,79 -122,215 -193,275l-110 60 -92 -103c-12,-15 -9,-12 -17,-24 -21,-31 -1,-8 -23,-33l-84 -112c-98,-109 -205,-305 -286,-408 -49,-63 -142,-150 -184,-226 49,-45 87,-62 109,-134 75,-253 24,-330 -101,-545 -96,-166 -292,-198 -467,-259 -302,-105 -117,156 -390,-236 -21,-31 -14,-21 -35,-43 -19,-20 -32,-31 -45,-55 -48,-86 -114,-159 -174,-244l-223 -303c90,-57 47,-9 134,-128 44,-61 45,-108 104,-176 59,-68 101,-168 156,-246l104 -158c21,-36 31,-56 52,-88l84 -125c52,-63 84,-151 140,-205 80,-78 122,-180 53,-258l-89 -118c-52,-70 -109,-120 -214,-87 -135,42 -466,219 -591,301 -52,34 -72,40 -135,42z"/> <path class="fil1" d="M7261 10934c42,-43 71,-36 148,-52 73,-15 101,-41 160,-47 -15,45 -35,53 -123,72 -73,16 -96,29 -185,27zm363 -155c7,-52 28,-80 69,-95 -4,54 1,36 -19,62 -22,27 -12,19 -50,33zm109 31c18,-63 21,-40 65,-78 42,-36 27,-40 78,-63 -18,65 -79,131 -143,142zm-1788 -2659c-40,-59 -80,-96 -115,-174 -15,-33 -18,-55 -32,-83 -26,-50 -70,-86 -99,-134 -32,-53 -52,-88 -102,-118l-81 38c-7,93 -9,85 32,136l130 189c22,34 39,58 62,88 30,38 37,62 72,98l399 558c8,11 9,13 16,26l383 533c15,23 21,31 35,50l151 211c107,183 219,308 326,492 2,3 3,6 5,9l113 205c28,44 37,49 56,98 26,66 97,168 61,247 -16,36 -43,51 -76,79 -50,43 -25,36 -114,32l-22 -30c-1,-6 -6,-6 -8,-9l-25 59c-53,13 -48,13 -111,14 -482,8 -568,2 -1004,-105 -57,-14 -262,-86 -310,-86 11,31 40,39 65,54 117,68 474,187 609,214 177,35 441,91 628,80 46,-3 73,-6 123,-6 113,0 80,3 100,16l-83 21c-41,5 12,3 -46,6l-675 -75 -445 -130c34,55 -1,20 36,38 84,40 453,163 546,175 242,33 504,69 745,41 58,-7 80,-15 126,-37 119,-57 259,-15 431,-207 33,-37 41,-40 81,-73 66,-55 113,-158 168,-235 37,-51 11,-14 28,-51 22,-47 12,-16 35,-53 64,-104 212,-515 235,-638l84 -386c15,-74 35,-512 -19,-592 -24,33 -16,82 -15,125l-27 360c-19,121 -56,304 -111,415 -88,180 -76,261 -243,552 -34,59 -55,132 -120,150 14,-66 66,-130 100,-186 24,-39 91,-119 70,-163 -28,17 -72,102 -101,145 -35,52 -46,82 -87,110 -58,39 -37,47 -46,131 29,26 22,10 33,64 -32,10 -39,20 -77,9 -74,108 -200,102 -267,-13l-100 -216c-29,-78 -113,-178 -170,-244l-130 -180c-39,-45 -60,-101 -102,-145 -137,-140 -130,-185 -225,-304l-331 -447c-43,-77 -106,-62 -124,-166 -74,-29 -79,-65 -118,-123l-100 -136c-66,-86 -129,-219 -186,-283 -23,-25 -5,3 -34,-39z"/> <path class="fil1" d="M6848 9773c-35,24 -41,49 -62,100 -80,198 -6,111 -27,251 -10,66 -16,58 -8,141 45,14 88,180 163,286 32,45 41,48 33,115l93 -12c71,-26 293,1 242,-153 -54,-161 -6,-37 -73,-166l-361 -562z"/> <path class="fil1" d="M4634 6341c69,66 47,-13 149,88 52,51 69,159 1,231 -67,72 -148,38 -184,8 -22,-18 -56,-56 -74,-79 -33,-45 -28,-92 -27,-143 -57,13 -24,16 -79,44 -37,230 -14,102 8,246 -35,-7 -37,-12 -53,-38 -22,-34 -11,-40 -42,-73 -19,33 -14,29 -9,85 50,42 13,59 69,106 22,19 85,63 118,75 62,21 255,36 332,-34 119,-109 79,-406 -42,-488 -26,-18 -25,-8 -51,-32l-117 4z"/> <path class="fil1" d="M5711 8222c-150,-276 -101,-154 -162,-252l-42 -99 -96 21c-8,51 23,195 38,261l9 85c17,94 126,148 166,238 83,10 85,15 147,51 63,37 97,23 178,22l-134 -208c-48,-80 -61,-39 -103,-118z"/> <path class="fil1" d="M7736 11601l-86 5c-5,-70 15,-163 -11,-226l-35 2c-2,38 2,74 9,106 15,76 35,101 -30,112 -4,1 -21,1 -27,1 -13,0 -42,-1 -56,-1 -45,-1 -80,-3 -125,-2 -280,7 -430,-10 -708,-14 -161,-2 -323,3 -487,-1 -203,-5 -174,-29 -389,-1 -64,9 -23,3 -45,20 92,32 1223,16 1434,25l1222 48c62,2 129,6 169,-22 -87,-52 -85,-11 -181,-18 -70,-5 -135,-17 -210,-17 -149,-1 -298,-8 -419,-14 -5,-125 21,-122 -26,-159 -25,47 2,88 0,154z"/> <path class="fil1" d="M3855 10897c168,34 613,-14 812,-20 47,-1 95,-8 142,-3 108,11 74,68 30,67 -4,0 -16,-3 -21,-4 -51,-6 -119,-15 -161,8 54,27 235,11 311,8 -1,-40 -87,-142 -106,-159 -165,-20 -368,23 -542,25 -90,1 -191,-3 -278,1 -119,5 -191,13 -187,76z"/> <path class="fil1" d="M6616 8726l-59 -15c38,121 -2,0 75,134l135 170c28,48 16,36 52,85 22,30 6,4 28,45 48,93 38,42 76,100 23,35 14,45 60,60 -9,-47 -10,-38 -42,-64l-6 -310c-24,-13 -44,-24 -75,-43l16 -68 65 -18 -27 -92c-27,10 -11,5 -30,21 -132,106 -66,28 -202,5 -27,-5 -41,-6 -67,-13z"/> <path class="fil1" d="M4751 7002c6,19 9,19 14,29 13,26 7,-10 16,40 -43,42 -26,5 -54,55 43,-9 33,-8 90,-55l650 -462c71,-52 50,-12 72,-63 -67,5 -122,68 -174,99 -55,32 -129,95 -183,93 25,-54 44,-65 115,-108 65,-40 350,-205 385,-268 -82,9 -401,240 -481,299l-217 170c-46,47 -66,52 -112,82 -24,15 -33,23 -57,41 -18,14 -20,16 -33,26 -10,7 -19,13 -31,22z"/> <path class="fil1" d="M5029 7779c12,7 -32,23 41,12l255 -159c25,-15 -2,2 25,-16 21,-14 29,-18 52,-33 25,-16 23,-20 45,-37 91,-73 23,-8 80,-84l235 -270c34,-50 0,-28 52,-70l165 -209c51,-82 32,-47 76,-93 39,-42 -2,-27 70,-98l133 -195c94,-125 39,-101 34,-109 -41,17 -27,-29 -31,56l-49 5c0,65 14,51 -41,68 0,87 -17,100 -96,94l9 85c-58,40 -175,225 -230,297l-357 434c-26,32 -42,41 -73,67 -3,3 -18,17 -22,19 -3,2 -13,9 -17,11 -16,10 -18,7 -37,19l-318 207z"/> <path class="fil1" d="M4430 7710c12,6 -3,14 28,10l507 -407c2,-2 5,-5 7,-7l54 -42c16,-13 27,-20 47,-38 39,-34 -3,2 33,-36l270 -188c62,-39 17,-5 48,-37 17,-18 13,-16 36,-34 44,-33 46,-40 81,-70l172 -135c3,-3 46,-34 47,-35 21,-22 16,-4 21,-52 -54,14 -128,93 -177,132l-345 264c-60,50 -117,77 -173,121l-655 554z"/> <path class="fil1" d="M4459 7890c6,3 -16,23 40,11l683 -510c63,-36 193,-136 211,-200 -87,17 -184,125 -246,177l-486 378c-25,18 -8,2 -33,21l-168 123z"/> <path class="fil1" d="M4844 10505c-10,-21 -7,-18 -16,-40 -20,-53 -73,-138 -78,-184 -27,23 -33,-46 -25,55 0,3 14,36 15,40 63,159 110,308 216,467 32,47 46,60 119,42 -23,-86 -8,-14 -52,-82 -60,-94 -59,-69 -137,-215 -12,-23 -30,-56 -43,-82z"/> <path class="fil1" d="M5137 6600c43,-13 55,-34 114,-83 62,-51 84,-14 106,-99 -52,-41 -90,-99 -229,-94 2,61 16,28 11,124 -3,52 -2,100 -2,152z"/> <path class="fil1" d="M4644 7327c88,-59 116,-99 183,-155 19,-16 30,-29 50,-44l560 -404c-66,-34 -588,373 -672,457l-208 182 87 -36z"/> <path class="fil1" d="M8028 8333c-10,-36 22,-122 35,-174 5,-19 24,-57 32,-80 20,-61 -11,-30 29,-124l50 -142c19,-59 25,-75 19,-144l-64 -28c-10,161 -58,283 -90,441 -15,75 -29,79 -37,171 -10,107 0,60 27,78z"/> <path class="fil1" d="M8470 8642c0,-2 -3,-53 -3,-55 -4,-118 -61,-477 -161,-545 2,75 77,331 105,499 13,77 12,57 38,112 1,3 8,21 10,26 11,-18 9,6 11,-37z"/> <path class="fil1" d="M4321 11515c82,36 457,16 596,18l153 1c32,-7 16,-7 31,-19 -74,-69 -268,-9 -379,-16 -114,-7 -314,-30 -401,16z"/> <path class="fil1" d="M4446 7585c32,14 18,16 86,-36l393 -332c89,-84 111,-81 143,-146 -75,16 -262,185 -322,247 -56,57 -262,209 -301,267z"/> <path class="fil1" d="M8616 8096c-21,-43 4,-16 -32,-37 -31,59 2,54 22,115 20,61 31,59 56,112 67,143 55,177 162,176 -5,-76 -19,-57 -57,-114l-123 -195c-15,-23 -15,-30 -28,-56z"/> <path class="fil1" d="M4987 7377c4,3 -17,29 47,7l398 -311c70,-55 107,-64 124,-125 -71,20 -283,208 -354,270 -39,33 -193,124 -214,160z"/> <path class="fil1" d="M5112 7043c106,-12 163,-100 197,-122l218 -155c2,-2 6,-4 8,-6 2,-2 6,-4 8,-5 91,-60 55,-1 77,-80 -80,13 -167,104 -237,155l-156 108c-66,47 -99,61 -116,106z"/> <path class="fil1" d="M4949 11599c10,25 -17,36 120,26 154,-12 313,20 391,-26 -44,-25 -464,-29 -512,0z"/> <path class="fil1" d="M3941 11432c24,15 -21,12 58,17l195 -3c75,-2 180,19 235,-14 -36,-30 -64,-21 -123,-21l-250 5c-132,-7 -93,-1 -115,16z"/> <path class="fil1" d="M4723 11443c143,-2 155,20 180,-25 -49,-34 -153,-10 -221,-12 -70,-2 -158,-22 -176,35 68,5 149,3 218,2z"/> <path class="fil1" d="M5111 10753c-12,-77 29,-171 24,-277 -4,-88 -22,-71 -24,-73 -28,24 -8,-23 -24,32l0 150c0,71 -4,53 -16,106 -22,92 15,56 40,62z"/> <path class="fil1" d="M8671 11445c-4,-55 -8,-53 -60,-58 -33,34 6,25 -5,128 -53,42 -46,0 -38,84l51 -21c12,-3 41,-1 45,-1 3,-34 9,-100 6,-133z"/> <path class="fil1" d="M4783 11682c23,46 192,21 233,16 147,-17 136,4 193,9 92,9 33,2 58,-11 -41,-51 -474,-19 -485,-14z"/> <path class="fil1" d="M3994 11015c39,14 97,14 145,11 156,-11 115,-15 127,-38 -40,-37 -221,-15 -234,-11 -49,13 -30,18 -38,39z"/> <path class="fil1" d="M5764 10946c3,-96 -42,-90 -98,-49 64,22 73,3 69,77 67,10 172,30 225,0 -39,-53 -128,-28 -196,-28z"/> <path class="fil1" d="M4555 11326c-65,1 -48,-14 -67,23 85,44 233,-6 326,17 -8,-40 2,-36 -63,-42l-196 1z"/> <path class="fil1" d="M5598 6904c3,1 8,0 9,4 7,20 48,-30 73,-46l231 -195c14,-56 4,-1 -8,-26 -27,16 -280,222 -305,263z"/> <path class="fil1" d="M5723 6585c0,0 -21,54 86,-26 25,-19 50,-42 93,-56 16,28 -34,22 32,29 44,4 36,-16 38,-17 -13,-45 11,-4 -18,-34 -16,-16 -24,-17 -36,-26 -59,14 -140,88 -194,129z"/> <path class="fil0" d="M5221 10833c13,10 1,21 71,19 62,-2 218,-14 256,-50 -123,-1 -221,-1 -327,31z"/> <path class="fil0" d="M7261 10934c90,2 112,-11 185,-27 88,-20 107,-27 123,-72 -59,6 -86,32 -160,47 -77,16 -107,9 -148,52z"/> <path class="fil1" d="M5138 11515c20,20 -9,11 29,21 11,3 29,1 41,1 142,-4 148,25 199,-8l-61 -25c-60,-10 -156,-14 -207,12z"/> <path class="fil1" d="M4431 8088c-72,-7 -45,-101 -121,-111 18,95 66,25 69,149 -71,-7 -39,-33 -59,14 7,5 -11,24 51,12l94 -50c34,-20 15,9 32,-28 -28,5 -43,15 -66,13z"/> <path class="fil1" d="M5471 7114c6,-1 32,-3 38,-6 46,-20 -4,-27 86,-86 11,-7 16,-12 28,-23l105 -102c27,-30 1,12 21,-34l-223 179c-35,33 -36,22 -55,72z"/> <path class="fil1" d="M5628 6571c59,-1 215,-111 245,-153 -40,-20 -119,58 -179,97 -56,36 -32,1 -66,56z"/> <path class="fil1" d="M7847 11113c131,3 145,-9 251,-13 82,-3 45,-1 67,-14 -11,-7 17,-9 -39,-14l-222 17c-5,1 -29,7 -32,9 -18,7 -16,9 -25,16z"/> <path class="fil1" d="M4547 7204c1,0 6,1 7,1l130 -117c54,-43 10,-41 10,-41 -50,29 -139,102 -164,150l17 8z"/> <path class="fil1" d="M4406 11265c57,27 146,32 226,20 -4,-46 -48,-28 -104,-29 -48,-1 -88,-8 -122,9z"/> <path class="fil1" d="M4752 7934c51,20 19,14 135,-47 118,-62 91,-35 114,-80 -82,13 -82,28 -130,66 -25,20 -82,41 -119,62z"/> <path class="fil1" d="M8575 8289c-1,-4 -3,-5 -5,-8 0,1 -24,-9 -12,50 4,18 14,27 29,46l-17 71 56 -6c-17,-58 22,2 -38,-126l-13 -26z"/> <path class="fil0" d="M7734 10810c64,-10 125,-77 143,-142 -51,23 -36,27 -78,63 -44,38 -47,16 -65,78z"/> <path class="fil1" d="M4712 7599c9,4 -13,38 48,-5 102,-72 98,-54 115,-106 -69,12 -110,70 -163,111z"/> <path class="fil1" d="M9003 11132l-28 12c-25,24 -2,-17 -12,36l118 8 -3 -55c-20,-1 -56,-5 -75,-1z"/> <path class="fil1" d="M6605 10315c70,14 62,-37 62,-106l-53 30c-2,1 -7,9 -9,6 -1,-3 -6,4 -10,7l10 63z"/> <path class="fil1" d="M5237 10279c16,11 -25,20 55,15 62,-4 103,-18 128,-59 -86,0 -42,10 -93,23 -49,12 -45,-16 -90,21z"/> <path class="fil1" d="M5834 8723c2,-50 22,-44 -70,-97 -3,3 -4,8 -5,10 -17,79 31,87 75,88z"/> <path class="fil1" d="M7666 10931c-3,1 -7,2 -9,3 -78,29 -27,-6 -53,50l120 -9 -3 -54 -55 10z"/> <path class="fil1" d="M6361 6297c-5,0 -21,0 -23,0 -28,6 -16,4 -28,10l40 71c23,-26 18,-22 37,-58l10 -17c20,-66 -3,-44 -7,-50l-28 44z"/> <path class="fil1" d="M8086 10867c-71,25 -19,65 -19,66l64 1 -6 -73c-22,2 -14,-4 -39,5z"/> <path class="fil1" d="M6652 8603c-11,-8 -23,-13 -57,-19l7 69 81 5c-10,-34 6,-28 -32,-55z"/> <path class="fil1" d="M5972 11462l199 1c-21,-24 1,-5 -33,-28 -16,-11 -7,-3 -26,-17 -12,10 -24,18 -42,27 -134,-11 -80,1 -98,16z"/> <path class="fil1" d="M5056 6533c14,-22 15,31 16,-45 0,-24 -6,-30 -11,-47 -56,25 -76,69 -5,91z"/> <path class="fil1" d="M5959 6612c78,-2 59,11 96,-13 -15,-45 12,-24 -55,-44 -20,20 -26,13 -41,57z"/> <path class="fil1" d="M7094 9149l-2 -61 -67 6c-12,58 35,61 69,54z"/> <path class="fil1" d="M7939 11307c-26,-25 -121,-47 -138,0 10,4 1,4 35,7 47,4 74,7 103,-7z"/> <path class="fil1" d="M7417 11383c-34,14 -26,28 -23,77 3,48 4,51 37,68l-14 -145z"/> <path class="fil1" d="M7528 11540c21,-35 23,-98 0,-135 -41,24 -17,104 0,135z"/> <path class="fil1" d="M4920 6360l63 16c1,-52 4,-57 -38,-81 -17,24 -19,26 -25,66z"/> <path class="fil1" d="M4351 11599c36,20 109,29 149,0 -45,-25 -97,-19 -149,0z"/> <path class="fil1" d="M6069 6417c-22,-49 -96,-116 -135,-134 14,32 82,113 135,134z"/> <path class="fil1" d="M4188 7928c-1,-4 -5,-4 -7,-7 -33,29 55,121 95,133l-88 -127z"/> <path class="fil1" d="M5373 8184c-7,7 -43,52 -46,61 -15,45 14,42 41,46l6 -107z"/> <path class="fil0" d="M7625 10779c37,-14 28,-6 50,-33 21,-26 15,-8 19,-62 -41,15 -62,43 -69,95z"/> <path class="fil1" d="M6828 10553c-26,-47 -1,-12 -36,-22 -10,12 -24,12 -5,46 27,47 -1,16 50,27 -3,-33 5,-24 -9,-50z"/> <path class="fil0" d="M8917 11335c8,6 0,23 56,20 64,-4 31,-13 40,-20 -41,-24 -57,-23 -96,0z"/> <path class="fil1" d="M4071 8057c5,1 9,28 11,32 34,63 50,48 69,51 -26,-56 -42,-70 -80,-82z"/> <path class="fil1" d="M4695 11599c8,6 2,22 55,20 73,-3 27,-8 41,-20 -41,-19 -58,-20 -97,0z"/> <path class="fil1" d="M5527 10904c33,21 77,22 112,0 -25,-15 -11,-15 -55,-16 -16,0 -24,2 -39,6l-19 11z"/> <path class="fil1" d="M8164 10932l172 16c-29,-18 -61,-22 -87,-25 -91,-13 -83,9 -85,10z"/> <path class="fil1" d="M5559 10974c22,11 29,14 65,11 36,-3 18,2 55,-22 -51,-3 -83,-15 -120,10z"/> <path class="fil1" d="M7293 11447c0,0 -2,41 -2,41 2,31 15,51 15,51 15,-32 17,-85 0,-119 -8,12 -8,0 -13,27z"/> <path class="fil1" d="M7861 11519c9,-14 15,26 16,-44 1,-44 -8,-28 -16,-40 -25,36 -24,43 0,84z"/> <path class="fil1" d="M8492 10960c30,15 70,26 99,14 -30,-27 -58,-37 -99,-14z"/> <path class="fil1" d="M4112 11599c26,18 -31,17 40,16 40,-1 10,-2 32,-16 -7,-4 -2,-46 -72,0z"/> <path class="fil1" d="M6052 8666c-10,-22 -15,-15 -38,-27 6,84 -13,40 28,60 2,-3 29,13 10,-33z"/> <path class="fil1" d="M6197 6351c-8,-29 -13,-38 -16,-55 -4,3 -50,-21 -23,38 12,28 10,11 39,17z"/> <path class="fil1" d="M5514 8572c35,-14 41,9 17,-59 -28,18 -14,-28 -28,34 -4,17 9,22 11,26z"/> <path class="fil1" d="M5377 7321c25,12 -32,16 27,11 49,-4 -41,33 16,-6 22,-15 19,-26 26,-49 -39,12 -39,19 -70,44z"/> <path class="fil1" d="M4195 11524c34,-2 23,-3 36,-9 -23,-14 -79,-40 -86,8 15,0 35,2 50,1z"/> <path class="fil1" d="M5573 7252c5,2 5,38 39,-1 23,-25 1,-34 0,-35 -35,16 -21,5 -39,36z"/> <path class="fil1" d="M7213 11710c6,4 -6,11 38,12 84,3 13,4 37,-12 -31,-19 -42,-19 -75,0z"/> <path class="fil1" d="M6667 9927c8,-5 18,-17 22,-28 15,-49 -5,-28 -8,-32 -27,23 -34,23 -14,61z"/> <path class="fil1" d="M7973 11492c-21,30 -21,42 0,75 14,-32 15,-44 0,-75z"/> <path class="fil1" d="M4321 7585c7,3 2,37 39,0 16,-16 7,-16 11,-37l-50 37z"/> <path class="fil1" d="M3976 11515c15,10 1,14 37,13 57,-1 7,0 28,-13 -31,-16 -27,-19 -65,0z"/> <path class="fil1" d="M8742 10849c37,20 50,14 75,0 -36,-14 -46,-16 -75,0z"/> <path class="fil1" d="M6511 8653c-17,-60 9,-23 -37,-40 9,48 -13,29 37,40z"/> <path class="fil1" d="M3997 8091c14,20 -13,20 44,48 -10,-33 -8,-44 -44,-48z"/> <path class="fil1" d="M4137 7886c-10,-37 -11,-22 -12,-46 -28,12 -34,-19 -19,30 1,2 22,13 31,17z"/> <path class="fil1" d="M4219 8233c-9,-32 17,-14 -35,-36 15,64 -13,35 35,36z"/> <path class="fil1" d="M5977 11515c31,22 15,14 63,12 -32,-25 -23,-27 -63,-12z"/> <path class="fil1" d="M5854 6619c-17,-44 4,-21 -35,-34 11,43 -27,18 35,34z"/> <path class="fil1" d="M5318 7378c-61,7 -16,-4 -37,25 49,-4 27,15 37,-25z"/> <path class="fil1" d="M5324 7488c1,20 -7,5 13,5 29,0 -14,-40 -13,-5z"/> <path class="fil1" d="M5600 11696c2,1 27,19 37,-4l-37 4z"/> <path class="fil1" d="M4587 8015c11,6 -3,6 24,9 42,4 -35,37 11,-15l-34 6z"/> <polygon class="fil1" points="8102,11008 8133,10996 "/> </g> </g> </svg>