<?xml version="1.0" encoding="utf-8"?>
<!-- Generator: Adobe Illustrator 23.0.1, SVG Export Plug-In . SVG Version: 6.00 Build 0)  -->
<svg version="1.1" id="Layer_1" xmlns="http://www.w3.org/2000/svg" xmlns:xlink="http://www.w3.org/1999/xlink" x="0px" y="0px"
	 viewBox="0 0 297.5 297.5" style="enable-background:new 0 0 297.5 297.5;" xml:space="preserve">
<style type="text/css">
	.st0{fill:#222222;}
</style>
<g>
	<path class="st0" d="M147.2,257.2c46.3,0,84-37.7,84-84v-118h-168v118C63.2,219.6,100.9,257.2,147.2,257.2z M73.2,65.2h148v108
		c0,40.8-33.2,74-74,74s-74-33.2-74-74V65.2z"/>
	<path class="st0" d="M147.2,229.5c32,0,58-26,58-58V83h-116v88.5C89.2,203.5,115.2,229.5,147.2,229.5z M143,219.3v-90.6H99.2v-8.3
		H143V93h8.3v27.4h43.8v8.3h-43.8v90.6c-1.4,0.1-2.8,0.2-4.2,0.2S144.4,219.4,143,219.3z M160.4,217.7v-79.9h34.8v33.8
		C195.2,193.4,180.4,211.9,160.4,217.7z M195.2,111.4h-34.8V93h34.8V111.4z M134,93v18.4H99.2V93H134z M99.2,137.7H134v79.9
		c-20.1-5.7-34.8-24.2-34.8-46.1V137.7z"/>
	<circle class="st0" cx="147.2" cy="238.4" r="3.7"/>
	<path class="st0" d="M92.2,77.4h77.3c1.4,0,2.5-1.1,2.5-2.5s-1.1-2.5-2.5-2.5H92.2c-1.4,0-2.5,1.1-2.5,2.5S90.8,77.4,92.2,77.4z"/>
	<path class="st0" d="M182.2,77.4h20.3c1.4,0,2.5-1.1,2.5-2.5s-1.1-2.5-2.5-2.5h-20.3c-1.4,0-2.5,1.1-2.5,2.5S180.8,77.4,182.2,77.4
		z"/>
	<path class="st0" d="M194.7,213.6c-5.9,8.5-14.2,14.7-23.9,18.2c-2.9,1-1.6,5.7,1.3,4.6c11-3.9,20.1-10.8,26.8-20.4
		C200.7,213.5,196.5,211.1,194.7,213.6z"/>
	<path class="st0" d="M203.9,207.3c3.1,0,3.1-4.8,0-4.8C200.8,202.5,200.8,207.3,203.9,207.3z"/>
	<path class="st0" d="M123.6,231.7c-9.7-3.4-18-9.7-23.9-18.2c-1.8-2.5-5.9-0.1-4.1,2.4c6.7,9.6,15.8,16.5,26.8,20.4
		C125.2,237.4,126.5,232.8,123.6,231.7z"/>
	<path class="st0" d="M90.5,202.5c-3.1,0-3.1,4.8,0,4.8C93.6,207.3,93.6,202.5,90.5,202.5z"/>
</g>
</svg>
