<?xml version="1.0" encoding="utf-8"?>
<!-- Generator: Adobe Illustrator 23.0.1, SVG Export Plug-In . SVG Version: 6.00 Build 0)  -->
<svg version="1.1" id="Layer_1" xmlns="http://www.w3.org/2000/svg" xmlns:xlink="http://www.w3.org/1999/xlink" x="0px" y="0px"
	 viewBox="0 0 156 156" style="enable-background:new 0 0 156 156;" xml:space="preserve">
<style type="text/css">
	.st0{fill:#222222;stroke:#222222;stroke-miterlimit:10;}
</style>
<g>
	<path class="st0" d="M85.3,49.7v-5.5l8.1-10c0.6-0.8,0.6-1.8,0-2.5l-4.8-5.6c-0.4-0.5-1-0.7-1.5-0.7H68.3c-0.6,0-1.1,0.3-1.5,0.7
		L62,31.8c-0.6,0.8-0.7,1.8,0,2.5l8.1,10v5.5c-17.9,3.6-31.4,19.4-31.4,38.2c0,21.5,17.5,39,39,39s39-17.5,39-39
		C116.7,69,103.2,53.2,85.3,49.7z M69.1,29.3h17l3.1,3.7l-6.8,8.5h-9.5L66.1,33L69.1,29.3z M73.9,45.5h7.4v3.7
		c-1.2-0.1-2.5-0.2-3.7-0.2s-2.5,0.1-3.7,0.2V45.5z M77.7,122.9c-19.3,0-35.1-15.7-35.1-35.1s15.7-35.1,35.1-35.1
		c19.3,0,35.1,15.7,35.1,35.1S97,122.9,77.7,122.9z"/>
	<path class="st0" d="M77.7,60.9c-14.9,0-27,12.1-27,27s12.1,27,27,27s27-12.1,27-27C104.6,73,92.5,60.9,77.7,60.9z M77.7,111
		c-12.7,0-23.1-10.4-23.1-23.1c0-12.7,10.4-23.1,23.1-23.1c12.7,0,23.1,10.4,23.1,23.1C100.7,100.6,90.3,111,77.7,111z"/>
</g>
</svg>
