<?xml version="1.0" encoding="utf-8"?>
<!-- Generator: Adobe Illustrator 23.0.1, SVG Export Plug-In . SVG Version: 6.00 Build 0)  -->
<svg version="1.1" id="Layer_1" xmlns="http://www.w3.org/2000/svg" xmlns:xlink="http://www.w3.org/1999/xlink" x="0px" y="0px"
	 viewBox="0 0 245.1 245.1" style="enable-background:new 0 0 245.1 245.1;" xml:space="preserve">
<style type="text/css">
	.st0{fill:#222222;}
</style>
<g>
	<path class="st0" d="M182,47.2l-3.1-7.6l-55.3,65.1c1.1,0.8,2.2,1.9,3.1,3c1.1,1.5,2.3,3,3.5,4.5l45-52.9c0.5,2.9,1,6.1,1.2,9.6
		l-41.5,48.8c1.1,1.3,2.2,2.5,3.3,3.8L175.9,77c-0.8,6.1-2.8,12.4-7.5,17.8L141.9,126c2.2,2.7,4.3,5.5,6.1,8.5l28.1-33
		C194.7,79.6,182.5,48.6,182,47.2z"/>
	<path class="st0" d="M133.8,151.2c-0.7-0.7-1.3-1.6-1.9-2.6c-1.2-2.2-2.5-4.3-3.9-6.3l-22.9,26.9l-4.5-3.7l23.8-28
		c-1.1-1.3-2.1-2.6-3.2-3.9l-24.3,28.6l-5.5-4.7l25-29.4c-2.2-2.5-4.4-5-6.4-7.7l-22.3,26.2c-0.1,5.2-3.5,10.2-10.1,10.2
		c-3.3,0-5.8-1.3-7.5-3.1c0,0,0,0,0,0l-1.4,1.7c-3.8,4.3-3.3,11,1.2,14.9l1.6,1.4c-0.1,0.2-0.3,0.3-0.4,0.5l-19,22.3
		c-3.8,4.4-3.3,11.3,1.2,15.1l7.6,6.5c4.4,3.8,11.3,3.3,15.1-1.2l19-22.3c0.1-0.2,0.3-0.3,0.4-0.5l1.6,1.4
		c4.4,3.8,11.3,3.4,15.2-1.3l1.4-1.7c3.7-4.4,3.3-10.8-0.8-14.8L133.8,151.2z M68.4,208.4c-0.3,0.2-0.7,0.3-0.9,0.1l-7.6-6.5
		c-0.3-0.3-0.3-0.7-0.1-0.9l3.1-3.7l8.6,7.4L68.4,208.4z M74.7,201l-8.6-7.4l2-2.3l8.6,7.4L74.7,201z M79.9,194.8l-8.6-7.4l2-2.3
		l8.6,7.4L79.9,194.8z M87.3,186l-2.3,2.7l-8.6-7.3l2.3-2.7c0.3-0.3,0.7-0.3,0.9-0.1l7.6,6.5C87.6,185.4,87.6,185.8,87.3,186z
		 M105.9,183.9l-1.3,1.7c-0.3,0.3-0.7,0.4-1.1,0l-9.8-8.3L86,171l-9.8-8.3c-0.3-0.3-0.4-0.7,0-1.1l1.4-1.7c0.3-0.3,0.7-0.4,1.1,0
		l27.1,23C106.2,183.1,106.3,183.5,105.9,183.9z"/>
</g>
<g>
	<path class="st0" d="M67.6,154.7l-34.9-45.1c-2.3-2.9-3.2-6.5-2.7-10c1.2-8.7,10.5-15.9,11.9-16.9l19.9-15.4c-2.1-4.4-1-10,3-13.1
		l7.9-6.1c4-3.1,9.7-2.8,13.4,0.4l6-4.6c6.6-5.1,16.2-4,21.4,2.8l10.7,13.8c5.1,6.6,4,16.3-2.7,21.4l-5.8,4.5L198.1,193
		c3.6,4.7,2.8,11.4-1.9,15l-7.9,6.1c-4.7,3.6-11.4,2.7-15-1.9L93.9,109.4c-1.9,8.3-1.8,19.2-1.6,28.4c0.2,12.7,0.3,20.3-4.1,23.8
		C78.6,169,70.6,158.6,67.6,154.7z M95.9,77l-10.4,4.9l2.8,3.6l8.9-6.9L95.9,77z M82.3,78L92.7,73l-2.4-3.2l-8.9,6.9L82.3,78z
		 M100.3,82.7l-8.9,6.9l2.8,3.6l7.9-8.2L100.3,82.7z M78.3,72.8l9-7l-3.4-4.4l-6.5,10L78.3,72.8L78.3,72.8z M105.2,89l-7.9,8.2
		l58.2,75.3l8.9-6.9L105.2,89z M78.8,56l-7.9,6.1c-0.3,0.2-0.4,0.7-0.1,1l3.2,4.1l6.5-10l-0.9-1.1C79.5,55.8,79.1,55.8,78.8,56z
		 M115.4,73.8c2.3-1.8,2.7-5.1,0.9-7.4l-10.7-13.8c-1.8-2.3-5.1-2.7-7.4-1l-5.8,4.5l17.1,22.2L115.4,73.8L115.4,73.8z M182.2,206.1
		l7.9-6.1c0.3-0.2,0.4-0.7,0.1-1l-22.8-29.5l-8.9,6.9l22.9,29.6C181.5,206.3,181.9,206.3,182.2,206.1z M82.4,137.9
		c-0.2-12.3-0.5-27.4,4.3-38l-19-24.5L48.6,90.2l19,24.5c0.9,1.1,0.7,2.6-0.4,3.5c-1.1,0.9-2.6,0.7-3.5-0.5L44.8,93.5
		c-2.2,2.2-4.5,5.1-4.9,7.6c-0.1,1,0.1,1.7,0.7,2.6l34.9,45.1c2.3,2.9,4,4.7,5.3,5.4c0.3,0.1,0.5,0.3,0.9-0.1
		C82.6,151.6,82.5,143.7,82.4,137.9z"/>
	<path class="st0" d="M70.7,122.9c1.1-0.9,2.6-0.7,3.5,0.5l0.8,1c0.9,1.1,0.7,2.6-0.4,3.5c-1.1,0.9-2.6,0.7-3.5-0.5l-0.8-1
		C69.5,125.4,69.6,123.7,70.7,122.9z"/>
	<ellipse transform="matrix(0.7911 -0.6117 0.6117 0.7911 -18.826 82.36)" class="st0" cx="111.2" cy="68.7" rx="1.7" ry="1.7"/>
</g>
</svg>
