<?xml version="1.0" encoding="UTF-8"?>
<svg width="18in" height="13in" clip-rule="evenodd" fill-rule="evenodd" image-rendering="optimizeQuality" shape-rendering="geometricPrecision" text-rendering="geometricPrecision" version="1.1" viewBox="0 0 18000 13000" xmlns="http://www.w3.org/2000/svg">
 <defs>
  <style type="text/css">.fil0 {fill:#030303}</style>
 </defs>
 <path class="fil0" d="m8261 9071l60-13c35-1 30-1 62 7 32 58 5 76-19 103-47-8-125-38-103-97zm173-2919v9c0 14 1 28 3 41-97 192 1 93-98 132 8 64 27 16 46 73 23 66 6 38 47 95 50 7 122 0 181 2 86 3 97-19 152-48 66 13 90 51 139 57 42 4 157-1 208-1 9-73 91-41 139-2 47 4 118 4 167 4 82 0 83-17 138-41 67 18 55 41 139 41 39 0 82-6 121 6 60 20 8-1 34 23l-106 28 140 8c-6-32-6-21-22-52 67-49-9-89 25-126 22-23 95-16 114 3 22 46 3 26 15 67 5 18 19 36 28 54 39-12 135-5 193-3 150 5 171-106 236 45l41-40 153 1c47-16 98-106 161 3 56 3 117 5 173-2 76-9 55-40 138-48 51 11 83 120 289 29 6-20 22-51 35-78-31-107-10-90-15-195l-50-108c-50-23-33 1-47-45 66-45 96-53 95-132 0-49 10-1-22-54-110-182 208-344 289-152 40 93 2 149-39 199-13 158 44 100 33 209-22 58-203 140-72 378 48 87-8 120-47 165-14 39 6 356 5 415-3 153 2 306 1 459 17 32 19 26 29 57 5 17 1 14 8 35 10 31 11 14 15 38 8 40-1 44-17 69-17 29-20 38-32 65l-48-7c6-31 13-13-1-49l-52 23c-9 48-44 10-65 78 30 14 11 9 45 11 0 0 48 0 52-1 41-1 55-11 111-14-15-87-1-26 13-48 1 0 53 13 3 79-1 1-50 39-50 39 0 255-2 111 38 275 49 201-57 126-29 249l7 101c0 82 6 85 15 155 13 120 12 57 49 137-15 37-18 38-44 69 40 90 10 135-104 150-74 10-76-20-96-79l-58-5c-15 64-235-19-313-17l-667 27c-101 8-180 47-278 63-46-146-9-100-235-27-113-66-85-23-208-55-57-14-132-80-213-47-53 21-115 76-190 75-200-3-57-90-438 19-155 44-15-14-205 70-54 24-117 84-169 96-42 9-215 11-271 14-66-37-82-34-132-82-51-48-63-54-142-79-38-12-115-47-141-67-58-44-79-23-153-40 5 23 9 31 13 35h-26c-9-3-19-6-29-7l-17-4-1-49c-161-56-524-86-715-146-53-16-105-5-160-21-166-51-269-47-303-58-89-31-175-37-269-78-48-21-200-24-276-46l-429-96-96-87c28-35 76-47 113-70 7-59-11-89-14-138-59 0-47-12-124-8-82 4-143 8-129-82l-33 22c-26 14-44-12-64-24l13-75c45 11 108 58 159 80 79 35 121 19 203 14 15-81 41-165 74-231 21-43 32-60 52-102 26-56 33-76 92-86-12 122-151 289-158 449 38 41 47 55 96 80 73-45 64-161 86-257 22-93 66-187 73-289-81-17-63-35-177-33l-36-39c-99 7-193-8-244-65l-128 8c-26 88-1 294-63 365 0-32-1-73 1-104 6-80 41-189 0-263l-80-19c14 53 31 53 38 92 8 38-6 63-6 108 0 39 16 80 8 109-18 61-31 6-61 44 34 7 25 12 41 27-3 75 16 153-6 222-12 38-5 16-15 30l-41-127-12 188 165 47c73 37 100 14 117 105-150-16-131-24-257 28-105-20-193-95-308-90l-9-85c-67 28 13 7-52 37-43 20-43 1-77-7-60-13-86 23-169 17 12-29 2-24 23-37-23-5-13-4-29-9-25-8-8-7-38-9 2 51 20 77-5 121-22 38 19 4-30 23-21-32-13-62-8-108l-61 5-31 93 75 29c-11 36-9 51-56 48-29-2-45-22-84-31l-57 98c-16-15-7 3-23-24-19-32-21-64-10-95 15-41 35-64 46-121-23-33-51-86-50-141 0-96 112-55 75-287l17-517-48-42c1-87 24-65 8-142-31-151 39-221 20-323-6-29-24-134-22-159 2-27 24-117 32-151 12-53 10-111 9-169 0-62 8-121 6-181-2-93-14-81-40-153 49-148 30-289 27-458-2-79 4-157 7-235 4-114-69-69-49-196 36-32 39-34 63-69-6-58-16-119-48-145-51-41-61-57-59-133 2-140 110-172 248-150l67 77 53-25 14 181c-61 61-82 75-91 153-7 56 1 40-39 61-11-35-9-151-116-78 2 130 15 89 113 91 21 0 19-3 41 5 79 27 0-11 20 18-109 65-239-82-221 90 27 2 40 0 78 6-41 31-50 32-50 93l118 5c52 69 38 132 38 237-1 40-7 60-6 80l13 489c0 124-20 288-7 404 5 50 37 122 35 168-2 44-47 144-42 172 2 0 16-48 38-88 36-65 23-11 33-78 30-21 35-26 74-33l-81 177c-59 124 41 204-52 264-4 60 9 60 7 111-2 39-12 65-14 112-6 241 27 517-11 749-22 8-63 27-79 32-63 18 4-16-86 2-14 14-59 84-26 94 5 1 49-33 123-1 33-22 41-34 87-41l-7-76c64 20 81 20 156 33 53 8 18 11 66 29 26 10 51 9 80 17 49 14 87 37 131 50 62 18 114 20 187 22 7-60 4-124 10-186 7-67 26-108 26-183 2-97 45-270 27-346-43 32-14-14-30 39l-19 143c-13 64-28 98-65 134l-48 102c-10 17-10 15-18 26l-36-20c5-53 6-139 23-184 28-75 42-167 84-195l71-46-80-55c106-70 225 39 285 86l195-3 40 43c78-1 87-19 174 7 32 10 252 35 362 82 76 33 92 35 185 39 47 57 69 120 141 122-22-31-35-37-45-43 35-32 24-54 102 37 68 2 85 4 133-12 64-20 68-16 133-2 110 24 147 52 260 61 74 63 56 50 178 60 69 6 156 19 209 34-46-89-53-344-11-439 23 47 11 131 15 191 32-60 31-215 53-263 19-43 20-13 33-83 74-28 64-65 90-154 16-54 11-37 43-59 10 16 14-4 14 30-1 12-7 30-13 44-27 70-43 166-128 163l-79 593c145-11 101-15 193 58 66 8 130-9 192 6 64 17 63 39 154 40 108 1 236 5 317 84-124 73-140-155-188 87-12 66-44 327-24 367 25 22 48 27 75 46 40 29 22 43 68 72 0-125-56-317-11-441 36 26 23 114 25 230 1 95 16 155 17 254-67-24-69-38-154-41-2 29-2 50-2 80l-26 53-36-202c-109-45-82 126-68 204 53 31 181 12 228 57 40 38 27 51 89 45 17-120 107-396 52-534-55-139 33-148 39-390 2-61-33-43-33-141l48 57c42-6 132-5 161-25-20-43-137-26-179-23 4-120-72-26 4-185l-3-528c16-137 26-392 10-542-116-77-46-142-28-233 21-105 20-202-59-267-2-70 38-114 42-182 3-46-42-109-52-193 116-265 441-109 337 120-54-26 13-14-50-20 10 39 24 16 36 53-3 95 18 110-8 194l14 26zm-326 2855l-20 46-18-20c11-3 17-14 38-26zm3426-48c52 8 34 2 62 29-34 76-84 36-62-29zm-3144 10c23 40 8 28 0 42-35-15-42-7 0-42zm373-11c32-15 32-5 44 2l-16 12c-33-5-6 4-28-14zm-858-21c5 7 25-6 0 29-5-5-37 2 0-29zm2127-5l43-7c-22 17 0 13-23 15-36 3-1 8-20-8zm-409-43c153 0 111-15 183 50-50 8-57 14-103 0-83-25-68-42-80-50zm-1447 16c26-27 132-17 198-9-3 38-12 47-39 72-84 15-120-19-159-63zm3310 17c-35-52-8 25 40-99l105 15c14 131-52 62-117 46l-17 19c-24 34 1 4-11 19zm-2147 19c37-18 98-53 145-61-16 12-48 26-68 35-25 11-48 19-77 26zm-992-116c-11 49-9 35-67 34 38-15 38-6 67-34zm-909-205c50 42 42 65 129 95 91 30 121-13 176-37l3 151-230-2-22-54-82-14c-7-63 3-88 26-139zm-78 146l-64 5c1-72 13-29 36-93 20-58-6-59 44-77 5 61 9 118-16 165zm227-92c7-8 0-12 21-9 3 1 23 9 24 9h-45zm-811-36c29 34 16-51 14 18-1 36 7 2-10 26l-4-44zm1485-131c6 58 14 169-9 214-38-7-32 3-41-39-1-4-10-68-10-72-4-60 10-94 60-103zm-1414-2c6 55 21 64 3 98-1 0-57 5-3-98zm-70-29l10 129c-69-4-75 3-72-76 3-69 6-63 62-53zm1026 128c3-55 22-114 46-156 15 25 7-34 12 39 9 136-17 109-58 117zm-609-33c20 16-30 16 57 19 22 1 48-3 75-2l-48 163c-101 9-317-71-386-74l7-124c72 16 42 20 103 51 83-18 101-5 160-37 44-25 92-55 120-24l-88 28zm1956-111c50-37 113-56 178-58-18 110 4 439-34 504l-45 8c-26-64 6-112-18-255-8-47-59-174-81-199zm207-59l110-8c61 94 51 218 38 345-3 28-5 41-13 59-23 51-39 40-86 39-25-97-2-207-49-435zm-435 21c90-20 103-21 190-4-13 120 61 261 39 372-14 65-48 60 3 92 41-67 2-119 48-164 28 50 1 107 4 181l-258 5c11-126 59-299-26-482zm-390 339l-101 28 4 71c70 13 50 3 93-25l37 54 27-151c21 50 43 106 45 175l-107 24c-16-32-13-36-29-48-4 5-40-2-21 49 34 89 201-14 279-26-24 41 10 11-51 47-18 10-38 27-49 33-43 21-108 10-158 7-51-44-45-84-102-136l2-78c-40-9-53 5-107 6-70 1-83-17-116 24-46-74 166-48 188-44-10-105-28-230-3-337l152-11 21-41c2-2 5-7 7-10l42 39c25-12 25-11 41-29 115 93 40 56 209 64 10-23 18-59 27-76 36 44 53 366 42 467-4 27 1 54 2 82-54 6-42 14-86-14 4-45-29 24 25-45 22-27 18 23 18-54l-75-4-15 65c-164 80-111-146-126-393l-72-25-43 312zm2987-343c29-13 26-6 58 7-2 52-8 57-42 81-2 88 30 132 32 206l60 20c-76 2-67-36-108 20l38 15c4 1 9 1 14 2 44 9 9-5 45 11-49 62-112 10-138-14 46-89 13-50 7-139-3-42 4-129 6-175 37 6 25 7 70 15-16-46-11-32-42-49zm-1564-171c73 45 65 71 67 124l-46 4c-3 0-8-1-12-1-3-1-8-4-11-4-64-16 2-123 2-123zm-246 577c44-29 38-71 38-131l33 72c20 42 11 31 38 53-7-63-38-135-43-205-13-147-75-281 154-205 103 34 136-58 335-28 71 11 44 47 139 57 82-12 76-116 333-40 4-2 9-11 10-7l68-18c89-25 212 4 284 20 55 11 71-8 110-32l219-10c39 88-13 26 51 68l-55 17c-60 119 24 269 8 386l36 56-38-1 1 77-134-28c25-38 23-22 50-32 37-14 18-6 32-16-9-5 19-29-82 3-98 31-219 8-332-9l13-238c48 73-2 109 65 145 2-22-32-264-52-293-3-3-12-10-14-13l-31-71c-31 60-15 371-17 463-131 4-131-8-219 49-12-34 34 3-28-59l-19 47c-23 43-48 21-152 34 3-50 7-63-10-101-26 24-19 24-30 55l-300 6c14-78-1-16 45-60-20-56 6-4-43-42l4-49 29 31c3 2 7 7 10 10-11-73-1-121-24-182-46-117 4-89-52-139-65 113 87 394-55 425-27 5-33 3-59 13-52 20-42 37-100 24-16-54-6-29 19-78 16-32 12-56 17-96-3-2-6-10-8-8l-7-32c8-6 14-10 22-16 4-88-22-139-23-197-20 16-40-46-26 66 5 37 10 23 6 70-11-66-2-49-42-71-3 117 29 189-2 292-11 34 5-21-43 35l30 6c-61 38-16-35-270-31-25 33-1 1-14 32l-34-28c-2-2-6-5-8-7l-7-96c13 93-14 58 43 82 27-262-31-271-32-415 47-17 48 5 83-27 36-33-7-46 48-53-16 21-21-27-8 33 20 101 22-1 21 184 0 47 15 69 19 111 5 44 0 96 0 142zm-4226-531c147-21 134 4 143 32 38-24 35-27 85-11 3-3 8-12 9-9l31-37c158 7-32 36 239 83 75 13 52-7 96 48 39-23 15-17 66-6l5 122 33-89 7 75c-28 20-23 18-41 36l-122-1s-53-98-308-99c-91-1-276-8-243-144zm5130 35c16-15 4-11 28-14 13-2 22-4 49-5l-3 34-74-15zm800-20c-40 29-59 8-117 6 59-6 64-26 117-6zm-1042 76l-6-104c107 5 21 96 6 104zm-1628 18c41-17 27 2 46-35 11 86 7 25-10 47-34-24-31-40-75-44 42-61-2-55 66-60-36 35-26 31-27 92zm-470 9l-77 8c-81-151 60-148 125-129 30 9 14 4 32 17l-52 38c-12 14-20 43-28 66zm1235-42c7-100-1-49 33-119 1 1 36-8 6 60l-22 37c-2 4-6 8-8 11s-6 7-9 11zm-3644-69c3-8-22-27 42-23 62 4 39 14 54 30l-96-7zm2768 17l13-159 38-9c24 21 3 8 36 22l3 108c-64 19 14 54-90 38zm2934 15c-73 3-60-13-86 10l-9-90c40-25 49-35 109-23l-14 103zm-1926-188l25 126s32-8 35-8c51 8 4-5 25 20-44 9-14-10-31 29l-78-10c-31-46-52-139 24-157zm-3956 82l3 31c-32-35-11-24-3-31zm3276-104c37 25 14 11 41 90 13 41 25 75 36 114h-117c11-71 2-2 14-44 11-43-11-101 26-160zm-73 204c-39-5-29 3-58-13l-22-19-7-7c-1-2-4-5-7-8l18-125 65-25c35 80 19 101 11 197zm-2676 29c-16-32 36-169 33-208 3 58-8 171-33 208zm-726-164c44 10 31 2 46 48-42-11-41-6-46-48zm2253 447c-55 10-124-14-180-40-23 21-18 24-56 24-91-39 7-299 23-376 10-51 11-94 23-142 71-28 108 0 162 27l168-5c0 54-126 490-140 512zm500-608l42 16c15 57-2 125-1 165-60-4-67-6-65-70 1-42 6-82 24-111zm-1623 376c13-81 56-234 95-296 4 70-10 109-21 177-13 82 8 114-74 119zm3087-252c37-31 64-20 126-7l14 92c72-37-10-43 61-85l12 18c4 20 5 13 4 37 0 20-12 55-16 71-133 58-118 16-201-126zm-1298 180c-37-46-42-84-36-160 115-35 52 27 244-36-31 198 9 202-208 196zm1555-219l7 51c-14-27-24-26-7-51zm-410-61c3 14 7 23 6 48-1 77-1 30-12 52-25-54-21-57 6-100zm-229 213c83-85-9-154 145-131 26 4 33-8 41 32-16 8 7-4-14 3-1 1-5 2-7 3l-17 8c3 57-8 47 28 80-71 118-298 3-335 108l-31-48 30-80 22 54s31-4 26-87c-3-49-21-27-1-82 24-11-13-15 105-5 4 57-31 72 8 145zm-318-155l121 3-9 163c-23 82 0 14-30 46-43-57-52-155-82-212zm-1597 414c-6-11-32 33 7-74 32-89 38-182 47-204 8-19 18-15 19-39 2-53-27-39-31-42-37 81-67 240-95 324-99-3-54 4-128-30l-78 35c-2-162 115-333 108-476l258 82-107 424zm1161-413l-35 2c3-4-9-30 35-2zm-2869 46l5-83c15 25 10 51-5 83zm1407 345c-16 8 41 21-42 9-74-10-74-55-152-75 24 72 52 79 158 115-94 1-174-54-191-93-14-105 22-376 56-469 43-57 162-34 224-18l77 42c-5 47-59 166-72 213-22 82-31 211-58 276zm256-509c-15 18 14 20-23 17-12-1-20-7-39-14l62-3zm-594 418l-43 3 63-466c61-5 85 7 116 38l-70 319c1 79 46 52-11 98-43-100 19-301 28-380 10-89 0-35-13-54-104 105-33 352-70 442zm-610-71c-93-33-26-48 0-229 9-61 3-72 27-126 33-74-4-76 23-141 52-18 12 13 80 14 118 1 109 18 189-39 4 2 18 8 21 9l208 57c-22 187-93 335-111 524l-67-34c-54-4-19 10-86-3l-55 3c46 45 37 20 63 41 29 22 18 32 31 66 86-8 93-10 162-30l44 44c11 24 7 55 7 82-134 88-336-29-336-29-49-15-71 8-130 7-7-85 11-106 43-168 129 2 37 73 200 76-4-3-9-13-11-10l-136-108c-28-15-5-1-28-12-28-13-11-4-26-15 3-70 45-301 35-362-9-60-10-33-23-52-23 16-11-32-29 37-22 90 28-32-25 115-6 18-8 39-12 57l-42 193c-8 24-10 22-16 33zm-76-41l-163-59c-161-46-202 76-139-312 14-90-11-178 31-256 110 52 89 49 223 39 182 163 181-145 48 588zm2276-551c11 52 14 10 19 70-67-19-123 6-174-41 32-26 104-27 155-29zm3143-61c122-18 113 30 112 60-54 10-84-2-133-16l-11 12c-23-19-28 9-11-37 30-21-14-11 43-19zm-3185-7zm-74-28c15-8-1-6 23-7 1 0 6 5 7 3 1-3 4 3 7 4-35 31 47 3-20 9-1 0-7-1-8-4s-6-3-9-5zm-3973-512c11 183-26 136-18 221 11 123-22 416-35 559-6 68 14 62-30 90-18-31-14-679-13-705 22-14 17-12 35-23l-65-14c-7-43-2-68 19-98 15-21-5-52 107-30zm-13-57c-2 1-5 3-7 4-111 34-91 16-104-4 41-27 73-20 111 0zm-70-44c-56-3-45-6-55-40 45-32 134-16 186-4 3 47-4 6-20 58-34-6-66-11-111-14zm4055 573c-11-107-3-877 26-925 23 29 27 164 24 215 17 9-28 40 46 2l-2 54c-18-22 1-10-20-21-1-1-7-2-8-2l-23 328c4 40 18 25 12 58-17 81-22 136-2 234 50 30 34-16 48 57h-101zm-4073-812c55 2 3 31 115 19 3 79 17 38 11 125-52-25-94 10-149-28l23-116zm68-51c-1-15 9-16 12 1 6 28-12 7-12-1zm6869 1187c43-59 28 47 27 91-1 101 22 80-11 118-18 23-13 1-29 35 34 48 37 10 60 83-63 51-19 15-53 85l-42-14c16-36 27-36 34-89-76 23-201 70-274 10l-6-158c38-25 45-28 86-19 4 51-15 108 22 168 47-24 4-80 5-156 58 3 89 10 136-21-25-40-22-21-55-31-95-30 10-38-197-6 0 0-21-845 24-924 11 75-14 88 45 101 46-110-36-136-61-154l10-61 194-5c-31-70-31-27-195-46l-20-287c70-49 226-60 289 24-22 202-32 1084 11 1256zm28-504c69-30 25-39 33-224 7-186 21-363-12-545l223-31c23 18 59 46 75 55 13 121-19 714 4 799 11 41 5 13 25 37 1-154 12-295 2-441-2-35-8-64-5-92 19-191-5-187 0-293 41 7 10-5 34 13 41 33-28-26 14 16l-8 37c-5 92-11 68 25 100 1 1 6 8 7 6s5 3 7 5c-111 130 41 78 8 167-51 56-39-6-50 83 3 2 7 5 8 7 2 1 7 4 9 6 2 1 7 4 8 5l17 10c1 18 4 38 2 56-5 50-11 34-17 43-13-62 5-44-27-89-35 133-7 122 24 144l16 13c0 92 20 194 0 278 2 2 5 6 7 8l13 28-86 1 26-43-41-30c-6 5-27 13-37 41s-3 43 2 69c-59 46-51 79 6 120-2 3-5 7-6 8-1 2-4 6-6 8-33 43-43 29-27 105 50 22 105 34 163 33-10 62-24 26-18 100 3 38 4 96 2 116l-81-2-44 92c-314 17-245 29-257-236-3-63-3-146-1-210 2-67 5-141 3-208-2-116 7-123-40-165zm-58-836c-22-69 6-38 10-46 38 8 40-10 43 34 2 25-2 24-20 32-14 5-31-13-33-20zm-355 19c-22-59-22-54 18-81 14 10 40 3 25 59-8 28-14 24-43 22zm650-23l-68-6c22-16 50-3 68 6zm75-39c32-53 81-44 121-42l36 44c-12 43-5 12-12 30-1 3-3 6-4 9l-29 60c-53-33-22-20-56-67-45 17-10 19-60 41-5-24-13-48 4-75zm-1054 78c-56-14-59-36-37-89l75 2-38 87zm-862-106l57-10c13 16 23 29 36 43l-30 90c54-16 71-35 136-29s117-6 180 3c31 85 14 400 10 516-61 51-25 72-2 116 18 36 9 139 11 186 39 14 44 30 69 59 2 3 7 7 10 10l7-176-45-14 1-204c26 49-20 125 11 186 0 0 19 47 38-38 18-85 7-188 4-272-35 14-17 3-36 21-4 4-12 20-17 25-6-70-15-324 6-369l8 66c-4 77-7 179 9 248 69-34 32 34 38-78l258 22c-25-55 28-34-119-52-57-7-94-11-130-34-14-62-36-168-26-205 59-28 199-21 281-11l106 70-1 177c-32-53 15-100-18-181-42 46-18 114-19 175-1 68-3 110 0 179 19-12 21-14 38-28l-24 155c-2 1-7 3-9 4l-10 5c-3 73-9 165 13 225 25-22 13-3 29-40l3 65c-6 2-13 5-16 7-16 10-8 4-30 21 14 207-7 435-1 633 28-26 46-8 40-146 25 80-24 41 52 52-18-44 1-82 30-109l-40-102c37-126-27-536 4-621 14-38 2-9 26-34 11 37 22 81 49 105 8-13 18-4 10-64l-20-66-61-2-10-441c40-20 25-33 94-37 222-13 193 34 191 248 0 46-1 94 0 139 1 59 11 94-28 131-12-48 0-43-37-73-30 42-1 111 11 164 65 0 26 1 48 14 15 216-16 580 17 771 63 14 33 61 33 119-1 90 28 28-11 111 40 34 42 30 60 86l-62 11c-21-42-28-83-67-110 8-110-2-81-15-102-39 71 17 63-2 126-13 45-66 26-123 30-40 52 1 22-42 41-23-42-66-56-66-110 0-41 2-150-3-165-55 25-6-2-29 52-27 64 3 6-49 43-2 54 0 115-60 139l-153 6-17 34c-18 19 5 13-39 15l4-48c-64-36-112-69-73-161 106-51 68 39 83 78l14-60c37-6 59-6 85-30-10-111-106-48-186-41-26-132 7-389-4-557-14-27-49-37-78-48-8 119 42 568-37 605-41 19-80 12-113-2-83-34-76 1-168 4-28-91-13-197-5-300-50 5-54-12-56 40l-6-219c10-88 7-36-37-62 2 150 1 292-1 441-2 192-155 57-294 81l-2-790c2-1-22-26-24-28 65-135-23-497 38-625l237-28c2-3 10-16 12-20 27 42 37 66 104 69-11-33-4-32-30-63-23-27-48-9-20-57zm-362 4l-1 109c-7-13-29-49-38-68-25-54-16-45 39-41zm-192 27c41-1 53-3 95 2-27 27-144 33-188 11l93-13zm-598 1166c35-104 13-43-1-126-6-35 0-100 1-138 1-96-3-196-1-292 13-644-39-530 170-550 51-5 64-12 116-16-22-27 10-4-34-33 0 0-20-5-21-8l49-1c8 24 11 42 18 62l82 10c-13-54-25-45-25-102l70-4c-17 63-30 41-20 116 84 6 57-32 166-29 72 2 129-14 184 9 18 48 13 11 0 60l17 10c39 32 22 14 25 45l-27-1c0-1-3 0-5 0-18 34-13 35-14 84-1 28-2 56-1 84 0 56-4 112-2 167l4 1029c-159-70-162-8-312-22-17-103-4-397 5-523l-6-117c-10-32 1-3-20-24-39 56 2 33-20 109l-13-202c0-10 7-21 11-35 4 31-1 47 1 63 9 70 3 24 21 47 28-40 16-15 19-76 2-38-4-45 21-57l14-4c17-11 3 7 17-22-31-43-40-12-47-35-1-4-5-4-8-6-1-134 31-394 2-514l-10-5-65-25c-24 231 18 1341-22 1436-10 6 25 22-44 13-48-6-31-48-141-36-59 6-166 99-162-21 2-87 105-68 12-181 57-77 30-76-4-139zm1555-1097c6-83-32-100 29-161l76 110c-111 35-37 29-105 51zm1551-154l23-10c10-2 25-15 62 10-15 13 32 13-37 16-93 4-20 2-48-16zm-3174-55c2 3 5 7 6 9s4 7 5 9l20 35c43 50 109 74 143 92l-151 31c71-15 48-7 64-58-46 2-85 19-129 11-51-9-62-34-70-60 60-37 63 9 112-45v-24zm-76-107l57 2-9 63c-53-2-56-1-48-65zm16-60c81-44 90 33 109-19l-7 28c-42 3-75 11-102-9zm3236 181c22-113 24-96-12-197l77 2-7-39 57-15c-79 181 7 231-115 249zm-3250-253l28 9-28-9zm3242-67c43-61 176-55 204 18l-70 18-54-43-80 7zm-3316 25c18-45 53-53 106-52 84 2 90-6 125 41-31 10-31 6-55-13-13 24 24 10-35 31-39 14-108 5-141-7zm3347-103c5 0 54-67 93-1l-93 1zm-3140 9c-55 28-15 9-44 11-101 6-106 0-120-32 55-18 131-31 164 21zm3257-60l-131-5c38-75-26-50-20-94 30 38-5 26 69 30 55 3 53 1 88-24-2-3-6-6-8-8-1-1-5-5-8-7-97-81-19-51-90-95l-22 49-40-9 2-55 106-54c79 8 109 43 105 123-43 39-10 6-38 45l-35 43c12 57-3 22 22 61zm-3465-121c-6-106 34-130 107-168 59-7 80 52 88 71-18 31-28 51-47 97l28 33c-47-14-39-14-69-45-27 37-8 27-31 61-45-4-49-19-76-49zm-3941 83c-11-44-37-105-38-152v-482l63 6 10 770 37 39-36 87 41 24-7 62c-11-26-8-15-40-27l3 160 35 14c-16 38-30 39-46 55 18 11 39 37 51 59l-78 25c69 37 74-18 105 41-28 23 8 13-48 2l-34 64c-55 13-105 48-108-52-4-102 54-99 64-139-20-154-51-416 26-556zm-124-1139c-5-203 223-165 256-52 28 95-46 120-115 128-75 9-110-35-141-76z"/>
 <path class="fil0" d="m6611 5431c56-65 37 4 137-4l1-83c28 45 11 36 23 79 21 75 84 79 40 221l-81 3c-29-36-55-125-69-181-53-12-25-4-51-35zm-81 25l-61-34 1-229 175-3c102 17 60 163 58 166-20 45-51 3-112 54-25 21-20 26-61 46zm627-283c24 15 35 30 45 55-36-2-43-13-45-55zm84 36l35-11c-27 26-2 36-35 11zm-475-28c-23 11-10 24-46 0 54-34 20-38 60-47 20 35-14 47-14 47zm-1374-63c25 31 23 15 0 47-33-19-41-31 0-47zm-349 7c3-2 9-32 50-7 29 18 19 35 18 63-53 4-97-4-68-56zm1394 15c1-16 17-14 13-2-3 11-14 19-13 2zm-346 0c0-20 16-17 13-3-4 17-14 16-13 3zm-421-28l56-15c20 30 41 40 13 81-29-11-13-9-42-39-2-2-6-4-8-6l-19-21zm1632 7c-47 6-106 20-142-7 17-15-11-37 79-30 52 4 50 1 63 37zm-125-201l89 29-7 80-89-6 7-103zm-105 177l-207 8c-23 28-8 0-24 47-14-50-6-24-36-63-248 26-350-17-370-16-24 2-40 19-182 27-114 6-99-23-181-48-3 0-157 86-279 35-31-13-34-35-54-60-34 13-59 7-107 8l-18 69-180-3c-27-18-41-30-84-46-80 31-42 50-126 59l31 47-83 8 9-55c-74-21-74-78-158-36-109 54-63 29-172-2-23 19-36 21-34 58 42 21 112 14 159 7 31 58 55 58 102 98l2 189c37-35 28 56 25-134-1-53 8-76 25-106 272-20 134 43 178 245 6 24 6 17 15 31 33-18 25 19 29-41l-6-72c-5-152 3-109 23-131l-4 214c1 22-7 7 6 35 8 18 10 11 21 21 45-74-67-252 44-301 34-15 163-18 192 9 44 40-7 221 16 291 18 56-4 10 31 32 18-53 14-118 9-185-8-129-9-109 83-110 19-55 147-46 200-33 27 7 48 21 52 47 5 31 1-4 4 26l1 211c-65-16-138-23-148 67l56-30 162 150c37 28-9 2 42 22-22-67-85-89-109-146 50-5 80 2 125-1 62-5 70-11 68-60-49 13 2 4-33 15-3 0-7 3-9 3-43 9-34-2-41-5-32-79 17-200-41-269l-3 274c-69-21-33-203-28-269 77-55 184-43 308-42l-2 213c-23 21-19 16-39 30l-36 32c61 39 54-8 109-38 73 50 2 109 128 156-28-67-29-30-50-92 144-2 125 19 164 141-30 19-45 14-75 44-86-26-261-39-306 69 93 0 245-24 348-32 137-11 253 8 380 9-28-92-68-28-115-76l-6-58c4-31 8-49 11-81-3-3-7-10-8-8 0 1-15-46-69-75-4-76-26-177 10-227 38-9 271 0 298 17 25 51 9 142 10 209l-94-20-68 95c59-17 21-23 67-46 82-12 54 13 134 30l12-198 83-11-8 178-73-6c-1 66 13 47-22 89-21 26-29 38-50 63-39 47-54 93-110 113 18 96 10 32-7 106 53 45 125 121 169 202 139 248-34 317 188 308-15-126-89-197-107-279l204 21c-63-105-193-4-248-75 89-45 186 52 273 0-37-30-48-26-112-36 110 5 156 7 234 92-26 44-59 64-41 132 42-48 80-98 80-164-52-34-51-23-98-81-27-34-71-56-112-71-12 32-9 40-45 54-38 14-39 8-66 32-55-48-77-28-146-21-71-93-151-182-85-252 51-55 45 5 98-39 33-29 2-20 50-46-6-23-9-23-13-32-7-14-5-2-12-22 19-16 21-17 38-27 31 54 37 78 20 134 32 25 13 1 40 24l90 115c-44 30-20-1-44 41 27 32 6 36 57 27 103-19 62-75 5-126-43-40-54-56-100-79 0-44-9-60-9-81l6-296c61-100 61-56 48-198-25-16-36-21-54-37-1-88 3-141-15-226-68 20-82 50-127 70-41-60-8-74-93-62 11 98 163 160 10 283z"/>
 <path class="fil0" d="m6471 7180c9-29 9-59 15-78 6-16 25-38 35-55 87-154 58 28 76-101-42-16-26-13-51 1-50 29-88 93-97 156l-56 9c-14 108-57 227-76 340l-19 148c-15 70-32 112 57 155l30-80c11 71 1 35 34 47 38-75 67-302 111-417 108-286 160-295 175-331-55-36-31-7-110 106-39 56-206 469-194 538-9-70 20-246 36-323 20-101 36-43-11-107-18 46-25 53-31 111l28-141c3 2 20 13 21 14 2 1 7 3 9 4l18 4z"/>
 <path class="fil0" d="m9556 7283l-7-268c8-116-8-86-20-101-24 36-29 261-29 296 1 61 14 86 11 152-3 57-5 117-4 175 5-2 12-11 14-7s10-5 13-6c18-9 8-8 17-10 48-11-59-17 24 3 4 1 23 9 27 10-5-82 10-60-44-81l10-26c25-22 19-4 37-54 12 32 3 16 36 30 33-307-75-100-24-546 80-10 192 43 257-2-32-53-184-41-248-38-7-34-9-40-11-74-4-46 1-39-11-72-63 64-33 224-38 310-4 78 5 249-10 309z"/>
 <path class="fil0" d="m4721 6716c4-26 33-12 9-1-19 9-10 6-9 1zm54-44c-2-36 14-74 57-87-8 47-7 90-57 87zm-43-496c86 19 67 45 98 109 92 189 58 104-24 254-68 0 17 0-67-10 9 30 4 23 24 42-68 40-8 3-51 68-22 33-37 15-58 71 28 24 27 22 58 40 47 28 15 25 69 50 6-10 52 8-2-63 43-27 88-89 109-143l87-162c-66-63-32 5-69-97-41-115-60-20-107-222-24-102-10-76-54-107l-46-130c-44-49 16-12-47-43 17 141 72 204 80 343z"/>
 <path class="fil0" d="m4361 5109c16 52 18 19 6 61l-91 3c-22 74-14 44 35 80 21 16-2 8 26 18l54-81h205c-30-32-3-13-45-34 0 0-24-8-30-11h66c18 45 35 63 95 69l-9 77c-11-36 7-18-18-53l1 193-85 32c24 35 25 26 17 81l120-24c5-49 53-73 19-104-14-13-34 11-39 15 11-63-34-20 43-52l-6-156c31-33-5-7 27-26 30-18-1-8 39-8 35 1-14 18 32 5 43-12 10 8 36-35-90-30-117 24-179-19 13-33-22-19 30-33 3-1 45 1 52 1-18-38-35-47-92-56-76 15 45 70-309 57z"/>
 <path class="fil0" d="m7091 4680c3 5 6 11 9 17-15 0-25-2-33-4-4 23-10 44-20 64 17 2 35 4 56 6 69-62 32-49 160-47 37 66 3 85 91 87 0-63-23-96-49-133-48-1-96-16-138-44-21 22-47 41-76 54z"/>
 <path class="fil0" d="m4523 7906l29 57-29-57zm-18-291c-76 318-17 179-23 243-5 63-70 132-52 200 38-40 18-42 60-86 72 21 72 60 184 59-15-69-113-98-141-168-15-38 99-448 107-528-84-49-57-16-126-3-50 9-75-29-137 3 17 30 11 36 70 29 53-6 16-16 84-17 14 59-9 197-26 268z"/>
 <path class="fil0" d="m5041 5718c24 24-8 14 32 24h120c22 4 24 13 74 16 85 5 299-31 357 52l58 194c7 29 2 39 10 72 12 41 36 79 54 113 24 49 17 72 60 101 3-130-98-451-168-521-101-101-102-73-274-79-95-3-249 6-323 28z"/>
 <path class="fil0" d="m7653 6339c-13-31-28-26-65-33l22 68c-30 33-40 85-39 136-64-11-134-27-185 11l-62 52c-7 10-21 51-29 64-15 0-59-2-71 0-67 8-21 3-40 17 47 35 146 19 211 19-6-66 1-29-25-71l26-38c67-46 623 92 705 48-19-42 23-15-36-34l-420-53c-2-4-6-3-10-4l1-58c-2-109 49-50 17-124z"/>
 <path class="fil0" d="m5757 6646c-7-70-26-79-41-137-23-89 10-55 7-130-108-8-254 12-358 25-183 21-216 9-357 32 6 76-33 124-9 238l27-209c38-3 233 13 288 20-2 19-6 39-5 59 3 63 5 25 14 38 27-63-22-45 31-137l131 19 51 115c14 21 9 9 23 21 30-69-121-159 84-151 29 58 50 159 114 197z"/>
 <path class="fil0" d="m5950 5958l20-22c-4 32 18 14-20 22zm-189-318c55 48 21 16 105 40 51 14 69 19 101 57-45 70-79 5-93 93l-64-2c18 86 36 8 92 108 47 84-16 98 18 162 1-3 3-11 3-9 7 21 7-15 8-18l16-29c45 44 90 132 91 154-23 73-20 31 5 98 18 51 11 66 43 112 3-2 7-9 8-7s7-6 8-8c39-71-65-225-104-330-23-65 4-82 6-143-61-43-36-6-83-42 28-27 7-10 42-27l45-33-87 5c37-55 74-35 120-84-36-71-47-64-135-84-59-13-127-114-145-13z"/>
 <path class="fil0" d="m7804 7880c-2-115 29-207 38-323 10-134 93-122 78-266-87 30-4 53-98 112-5 105-26 196-39 293-19 140 10 130-41 291l34 24c45-69-42 52 11-17 9-12 15-12 26-28 22-29 24-109 82-224 80-160-9-186 132-285l-4-132-42 4c-4 32-3 61-6 92-9 88-41 46-66 191l-83 241c-12 22-9 13-22 27z"/>
 <path class="fil0" d="m4410 5587c48 60 237 137 316 172l34-27c-1 12-5 15-6 18-14 40-5-31-15 56 34 1 24 3 56 21 52-23 77-28 108-57 26 10 63 28 87 36 39-98-55-59-144-77-44-10-80-34-126-42-210-36-49-6-228-79 17-37 9-7 24-49-49-7-71 10-106 28z"/>
 <path class="fil0" d="m5617 6780c-208 20-134-35-225-43-7 47-15 24 14 54 21 23 3 0 27 16l17 14c-25 32-60 66-82 101l-71 111-75 291c42-20 32 0 41-60 34-226 35-107 72-208 71-195 74-114 140-234 28-1 132 5 160 9 111 18 106 11 121-33-46-44-16-30-139-18z"/>
 <path class="fil0" d="m4976 6764c-29-58-10-54-76-50 4 48 12 57 29 95l61-6 41 54c50-26 22-40 58-41l-5 71 58-41 75 32c45-122 95-22 130-99-46-33-20 2-87-6-33-5-60-19-89-20l-195 11z"/>
 <path class="fil0" d="m5703 5523c-31 3-89 11-115 5-51-10-14-28-81-36-10 24-18 54-15 92 6 82 30 78 41 86 47-120-38-91 108-108 50-5 48-11 102-9-55 168-114 105-87 175 3-2 9-9 10-6 13 24 4-6 41-45 44-45 103-122 97-187-27-5-40 0-54-12l-30-175c-16 97 11 136-17 220z"/>
 <path class="fil0" d="m6336 6237c-34 10-195 169-205 224-10 53-52 111-102 152 70 23 71-20 162-133l153-175c-1-2-3-8-4-10 0-2-2-6-2-8-2-10-2-16 0-35 25 34 2 12 28 27l-18-112c-8 6-67-22-12 70z"/>
 <path class="fil0" d="m6837 7737c18-7 34 34 37-82 8-328 163-581 167-623-107 21-118 202-123 218-31 117-101 362-81 487z"/>
 <path class="fil0" d="m10870 7765c3 2 7 1 8 4l45-10c4 46 9 83 37 120l-14-558c-9 10-25-10-32 96-15 254-15 136-44 348z"/>
 <path class="fil0" d="m10513 8807c115-35 61-177 39-301 0-2-10-57-11-58-23-54 6-19-41-29-50 82 28 204 13 388z"/>
 <path class="fil0" d="m6570 5891c214-36 103 25 243 50l34 87c-27 42 0 13-37 43l36 51c17-26 4-18 28-24 26-240 34-217-46-239 17 86 18 23 31 81-76-86-222-122-263-98-31 19-20 15-26 49z"/>
 <path class="fil0" d="m10681 8800c2-3 5-12 5-10l13-217c36 111 17 208 69 250 4-74-11-119-22-191-14-96-3-145-37-194-49 27-48 23-50 161l2 154c14 78 6 25 20 47z"/>
 <path class="fil0" d="m7044 6347l-26-32c-58 9-92 7-127 37-47-32-54-17-109 10 8 29-6 10 37 35 46 28 217-26 367-7-41-67 24-24-98-31 13-30-18-1 34-29 3-1 8-3 10-4s6-4 9-5c-56-33-59-15-97 26z"/>
 <path class="fil0" d="m8956 7557c16-110 74-240-10-337-21 24-25 11-4 88 55 197-45 109-23 277 9 69 31 330 53 375 18-134-30-303-16-403z"/>
 <path class="fil0" d="m6238 7116c8-85 81-135 99-214-77 24-169 168-111 248 2 2 5 6 7 9l27 27c43-68 136-157 149-240-103 26-92 125-171 170z"/>
 <path class="fil0" d="m9348 7850c9-13 10-2 14-29 1-6 1-33 1-41 4-104 10-534-56-566-23 37 13 230 23 291 16 96-17 276 18 345z"/>
 <path class="fil0" d="m5434 6040c229-14 45 178 176 153 7-131-23-258-176-227l-27-22c-29-16 1-7-39-12l66 108z"/>
 <path class="fil0" d="m6214 5973l-18 14c-32 18-76 31-105 90 51-35 27-1 97-57 3-2 6-5 8-7l33-20c11 59 17 38 8 105 22 14 60 33 87 49-9-77-49-139-85-201-70-119 12-179-93-177-18 76 30 76 68 204z"/>
 <path class="fil0" d="m5150 6176l101 99c188-11 159-197 52-295-50-47-67-47-148-38 53 116 161-11 206 175 50 208-200 63-211 59z"/>
 <path class="fil0" d="m9765 7930l26-101 29 56c34-22 18 7 26-50-22-29-3-16-44-24-5-132 58-204 45-323-54 36-33 101-67 225l-47 167c-4 80 8 43 32 50z"/>
 <path class="fil0" d="m10521 7982c25-66 31-40 34-133 2-71 20-101 24-154l-21-237c-19-58-14-39-44-52-15 36 39 194 28 275-9 71-25 225-21 301z"/>
 <path class="fil0" d="m8495 7492c-1-5-5-5-7-8-13 16-11-1-16 32-1 12 3 25 5 34 3 18 9 42 12 62l40 391c50-63 11-329-3-400l-31-111z"/>
 <path class="fil0" d="m6552 6410l39 213c0 3 6 32 6 32 9 25 10 20 17 28 14-38 10-104 5-149-4-26-11-34-10-73 1-51 43-128-156-94 15 43 37 31 99 43z"/>
 <path class="fil0" d="m7072 6070c23 173-162 27 0 0zm-48-41s-110 142 6 156c52 7 130-52 4-229-24-33-18-44-70-47 2 77 36 43 60 120z"/>
 <path class="fil0" d="m8595 8005c53-54 59-166 59-239-1-52 6-213-29-251-26 68-6 166-7 250-1 83-21 157-23 240z"/>
 <path class="fil0" d="m10167 7948c11-11 12-7 26-32 5-9 17-42 19-52 12-80-17-38 27-99-21-114 28-257-16-344-29 66-9 187-21 267l-35 260z"/>
 <path class="fil0" d="m4777 7057c4-7 17-42 18-45 8-32 3-10 2-43-38-2-64-2-112 22-46 24-33 43-35 102l43-28c24-19-1-11 33-20 45 36 22 23 38 97l53 6c4-58-13-50-40-91z"/>
 <path class="fil0" d="m6641 6749c43 3 128-54 414 22 60 16 30 4 48-6-56-97-441-61-487-28 15 11-6 10 25 12z"/>
 <path class="fil0" d="m7607 7855c30-12 75-266 86-328 2-13 9-53 10-59 8-62 6-20-7-48-38 38-99 357-89 435z"/>
 <path class="fil0" d="m10625 8071c-34-39-65-44-130-19-4 61 45 51 105 53 20 0 54-2 63-1 59 8 35 25 81-5-10-77 18-24-34-47-38-16-30 19-43-25l-20 19c-21 22 11-1-22 25z"/>
 <path class="fil0" d="m7502 7401c42-21 54-65 68-121 20-78 42-111 1-153-39 26-18-3-32 66-30 147-66 163-37 208z"/>
 <path class="fil0" d="m7223 7475c43-34 33-31 41-99 8-74 89-232 71-277-65 27-117 320-112 376z"/>
 <path class="fil0" d="m4424 6080c40-5 73-34 110-48 48-19 80-32 97-88-81 5-214 40-207 136z"/>
 <path class="fil0" d="m7302 7826c41-32 65-135 85-218 18-72 53-166 55-229-39 54-134 361-140 447z"/>
 <path class="fil0" d="m11430 7151c-2-95-70-112-111-163l-105-9c35 56-9 12 55 46 166 90 55 124 161 126z"/>
 <path class="fil0" d="m5902 7140c39-23 29-10 45-70 39-152 102-101 130-215l-61-5c-45 145-118 164-114 290z"/>
 <path class="fil0" d="m7507 6450c-23-32-58-59-102-73-132-45-58-41-148-51 15 43 3 39 43 61 21 11 41 12 59 22 76 42 22 38 148 41z"/>
 <path class="fil0" d="m5338 7988c12-38 43-306 34-355-41 17-42 94-45 160-3 57-25 150 11 195z"/>
 <path class="fil0" d="m10590 7926c45-84 63-313 60-435-47 65-26 108-39 204-9 63-23 164-21 231z"/>
 <path class="fil0" d="m9234 6774c33 61 3 25 119 40 61 8 92 21 141-7-42-30-207-58-260-33z"/>
 <path class="fil0" d="m8030 7910c34-33 18-26 24-89 7-72 51-136 58-281-74 40-83 370-82 370z"/>
 <path class="fil0" d="m5777 7118c50-25 169-210 195-266-71-4-17-13-63 55-24 35-24 19-51 61-36 55-64 80-81 150z"/>
 <path class="fil0" d="m11264 7771c23-32 11 51 21-75 4-55 36-247 7-298-7 10-54 322-28 373z"/>
 <path class="fil0" d="m8689 6696c-39-29-212-44-272-43 19 48-35 17 118 51l120 8c40-7 10-1 34-16z"/>
 <path class="fil0" d="m6909 7159c20-32 13-39 31-67l43-56c-76 26-82 24-115 94-22 48-51 92-32 134l73-105z"/>
 <path class="fil0" d="m11028 7916c28-48 63-198 14-268l-15 21c-18 58-5 129-6 190-2 47-10 29 7 57z"/>
 <path class="fil0" d="m6750 7239c49-33 38-72 78-120 61-74 76-19 77-109-80 20-149 127-155 229z"/>
 <path class="fil0" d="m10106 7788c26-28 15 12 25-35 1-4-3-51-3-55l-67-260c-14 109 30 238 45 350z"/>
 <path class="fil0" d="m5641 6723l139 44c136 46 153 55 180-2-28-15-86 5-159-20-32-11-54-13-88-22-13-4-28-10-44-11-33 0-14 3-28 11z"/>
 <path class="fil0" d="m4962 7287c6-17-6-159-10-206-14-173 36-143-14-185-38 64-4 321 24 391z"/>
 <path class="fil0" d="m7605 7437c44-16 21 29 75-92 23-49 32-67 2-107-41 28-70 143-77 199z"/>
 <path class="fil0" d="m6307 6626c51-25 134-176 112-225-55 19-39 37-66 103-25 60-39 50-46 122z"/>
 <path class="fil0" d="m4853 7446c-49-36-111-58-171-69 7 69 62 98 127 92 77-7 15 3 44-23z"/>
 <path class="fil0" d="m6669 7234c22-36 7-34 34-74l83-114c4-7 19-34 26-49-63 1-185 173-143 237z"/>
 <path class="fil0" d="m9704 7748c32-52 14-192 1-257-13-64-2-37-39-56l38 313z"/>
 <path class="fil0" d="m6798 6622c32-42-60-154-61-155l-7-94c-46-19 30 0-56-20 16 62 90 230 124 269z"/>
 <path class="fil0" d="m6053 6982c30-46 72-56 91-108-115 22-158 147-175 244l84-136z"/>
 <path class="fil0" d="m9576 7761c26-26 22 1 31-50 0-2-2-51-2-57-1-15 1-45 0-56l-21-65c-21 28-24-10-22 107 1 67-6 64 14 121z"/>
 <path class="fil0" d="m5726 7091c22-16 129-145 152-219-71 18-44 39-92 93-44 51-60 47-60 126z"/>
 <path class="fil0" d="m8834 6740l168 39c56 4 52-2 71-14-12-18 30-27-101-35l-109-7c-36 6-8-1-29 17z"/>
 <path class="fil0" d="m5188 7274c40-40 3-66 31-139 13-32 17-32 28-72 31-114 8-45-8-70-56 53-59 251-51 281z"/>
 <path class="fil0" d="m9251 7429c10-10 29 33 22-108-8-144-18-101-36-119-19 33-31-65-2 107 9 52-7 81 16 120z"/>
 <path class="fil0" d="m7127 7328c26-29 88-168 97-216-63 16-56 35-79 102-14 42-37 75-18 114z"/>
 <path class="fil0" d="m9412 7397c17-20 32 29 21-116-5-73 7-66-49-88-5 92 13 124 28 204z"/>
 <path class="fil0" d="m4496 6348c72 43-1-16 144-70 64-24 29-4 46-41-12-7-20-52-106 35-96 99-66 11-84 76z"/>
 <path class="fil0" d="m9535 6909c17-41 18-133 12-187-9-82-4-34-24-56l-16 183c10 83 10 40 28 60z"/>
 <path class="fil0" d="m6998 7312c51-28 104-173 116-230-38 12-23-5-51 37l-65 193z"/>
 <path class="fil0" d="m8571 7261c-14 17-11-4-18 32l5 84c5 136 11 84 27 96 21-50 23-160-14-212z"/>
 <path class="fil0" d="m7745 7423c44-19 23 0 48-35 30-43 34-94 36-143-56 19-20-20-48 36l-36 142z"/>
 <path class="fil0" d="m4427 5723c30 38-24 6 94 42 54 16 67 25 83-28-76-44-44-8-123-19-64-8-22-15-54 5z"/>
 <path class="fil0" d="m10598 7270c25-41 41-150-14-193-34 58-12 28-6 92 1 15-1 49 0 55 10 72 2 23 20 46z"/>
 <path class="fil0" d="m4152 4751c3 49-4 58 33 81 49 30-4 8 60 22l-53-73c10-49 22-53 35-91-49 13-46 16-75 61z"/>
 <path class="fil0" d="m5841 6376c14 45 33 37 76 59 46 24 45 34 99 39-19-45-128-122-175-98z"/>
 <path class="fil0" d="m8113 7515c37-45 50-109 31-169-75 34-47 141-31 169z"/>
 <path class="fil0" d="m6219 6659c-51-30-29-26-93-17l-24 106c65 4 68-6 58-66l59-23z"/>
 <path class="fil0" d="m5786 6898c-60 18-35 2-64 46-35 53-79 100-73 173l137-219z"/>
 <path class="fil0" d="m5392 7106c20-35 43-102 68-133 42-48 64-21 80-108-71 23-113 122-139 187-13 31-35 10-9 54z"/>
 <path class="fil0" d="m10477 6932c40 25 17 16 100 23 52 5 48 10 89-7-18-30-31-42-139-32-50 4-31 5-50 16z"/>
 <path class="fil0" d="m6111 7018c54-12 113-83 133-134-80 4-51-3-102 74l-31 60z"/>
 <path class="fil0" d="m4591 6613c-14-124-57-84-66-177-74 3-18 61-2 88 29 48 11 52 68 89z"/>
 <path class="fil0" d="m9737 7362c16-28 3-34 2-81-3-67 19-65-45-86-7 52-6 52 6 97 1 2 11 41 12 41 21 47-2 12 25 29z"/>
 <path class="fil0" d="m5098 5490c-2 12-32-11-1 40 36 60 104 9 112-37l-111-3z"/>
 <path class="fil0" d="m10945 7225c0-1 24 10 14-85-5-52-4-53-42-65-26 47 0 122 28 150z"/>
 <path class="fil0" d="m10104 7246c0-24 2-55-3-79-15-61-15-33-50-45-21 66-17 97 53 124z"/>
 <path class="fil0" d="m4796 5320c-11 25-1 15 8 62 18-2 51-4 63-4l54-61c-114 34-56-32-125 3z"/>
 <path class="fil0" d="m10389 8776l15-262c-34 42-49 185-29 239 7 20 8 15 14 23z"/>
 <path class="fil0" d="m9809 7325c6-151-19-120-50-133-9 152 34 126 50 133z"/>
 <path class="fil0" d="m10215 7133c-36 124 34 95 35 96 12-21 29-27 14-71-1-2-18-24-18-24-53-30-19-2-31-1z"/>
 <path class="fil0" d="m11331 8085c-26-48-57-46-119-37 21 58-19 42 52 50 45 6 43 2 67-13z"/>
 <path class="fil0" d="m5480 7049c30-22 15-11 33-37 74-104 73-37 93-128-59 19-64 29-88 75l-38 90z"/>
 <path class="fil0" d="m8501 7434c1-2 32 7 6-93-8-33-20-57-47-71-7 14-13-6-6 31l29 81c12 37 2 22 18 52z"/>
 <path class="fil0" d="m9043 7415c27-28 23-33 23-94-1-55-1-77-42-101l19 195z"/>
 <path class="fil0" d="m6413 8271c13 30 43 77 84 70 7-32 19 37 5-33-4-16-4-22-20-37-32-30-34-9-69 0z"/>
 <path class="fil0" d="m4398 5951c87 23 21 13 134-18 36-11 10 4 39-15-132-13-91-23-173 33z"/>
 <path class="fil0" d="m10167 7241c3-4 27-22 17-70-15-64-12-31-51-51 2 71-5 86 34 121z"/>
 <path class="fil0" d="m5974 6557c-19-53-108-84-157-105 18 50 106 94 157 105z"/>
 <path class="fil0" d="m10215 8121l109-20c27-51 9-3 1-35-22-6 28-11-29-5-83 8-75 47-81 60z"/>
 <path class="fil0" d="m7226 6410l17 5c60 23 98 51 149 61-21-62-13-26-75-53-32-14-17-18-46-27-60-17-36 6-45 14z"/>
 <path class="fil0" d="m6114 7125l-28-70c-40 48-42 68-40 117l68-47z"/>
 <path class="fil0" d="m9432 7920c24-35-5-99-18-125l-16-23c-5 82-17 100 34 148z"/>
 <path class="fil0" d="m4467 6352c-3-21-10-20-25-54-22-49 7-35-48-47 33 152 59 104 73 101z"/>
 <path class="fil0" d="m9871 7274c18-70 9-79-23-106-27 45-29 89 23 106z"/>
 <path class="fil0" d="m8629 7301l62 5c1-54-18-65-62-80v75z"/>
 <path class="fil0" d="m7166 5793c41 24 93 14 152 9-27-14-72-32-108-29-75 7-23 4-44 20z"/>
 <path class="fil0" d="m6219 6662c19 33 2 52 48 51 35-1 34-20 48-50l-96-1z"/>
 <path class="fil0" d="m11043 7628c11-25 21-49 14-84-5-25-8-20-15-32-9 11-26-24-23 59 3 62 16 46 24 57z"/>
 <path class="fil0" d="m6937 5465l-31-47c-25-28-13-17-42-35-1 0-46 10 5 58 26 24 32 20 68 24z"/>
 <path class="fil0" d="m8881 7424c11-58 24-112-31-146l11 112c10 29 7 18 20 34z"/>
 <path class="fil0" d="m11092 8118c16-18 20 32 29-47 7-65-24-58-24-58-24 54-24 53-5 105z"/>
 <path class="fil0" d="m6419 6676c-44 15-51 13-71 53l112-6-41-47z"/>
 <path class="fil0" d="m4838 8028c26-31 17 32 18-40 1-49-17-40-19-42-52 22-46 57 1 82z"/>
 <path class="fil0" d="m10227 7968c41-37 31-53 24-124-12 14-15-15-30 49-8 37 6 74 6 75z"/>
 <path class="fil0" d="m4895 5539c23 58 14 46 58 63l-6-98-52 35z"/>
 <path class="fil0" d="m5277 6968c62-22 17 14 54-42 33-48 6 7 28-57-56 22-66 34-82 99z"/>
 <path class="fil0" d="m7127 6723c16-16 5 1 16-27 22-59 4-55-2-66-41 18-64 60-14 93z"/>
 <path class="fil0" d="m5624 6967c67-16 83-22 86-90-40 21-69 48-86 90z"/>
 <path class="fil0" d="m11006 7188c23-22 28 35 31-48 2-66-21-42-23-45-15 22-15-29-18 45 0 18 6 35 10 48z"/>
 <path class="fil0" d="m7575 6307c-12-53-25-56-88-62 15 51-21 20 31 48 2 1 54 14 57 14z"/>
 <path class="fil0" d="m4700 6557c-8-53-8-45-74-47 10 46 21 75 74 47z"/>
 <path class="fil0" d="m8658 7486c4-13 21-19 25-68 3-49-2-45-14-70-34 47-14 74-11 138z"/>
 <path class="fil0" d="m5711 8410s34 21 18-44c-8-35-12-19-32-32 0 1-58 3 14 76z"/>
 <path class="fil0" d="m10486 8223c6-4 25-2 28-42 4-44-6-35-28-52-20 32-20 56 0 94z"/>
 <path class="fil0" d="m5309 5622c8-8 15-2 24-42 11-47 6-37-10-63-27 26-34 60-14 105z"/>
 <path class="fil0" d="m10736 8227c3-5 21 18 20-45-1-86-3-24-20-49-25 49-29 51 0 94z"/>
 <path class="fil0" d="m8418 7396c1-3 61-5-14-92 0 1-38 11 14 92z"/>
 <path class="fil0" d="m5045 5473c20-44 14-72 0-109-38 25-13 0-15 53-2 54-29 30 15 56z"/>
 <path class="fil0" d="m9429 7638l18-110c-5-66-2-23-15-41-15 32-17 119-3 151z"/>
 <path class="fil0" d="m4462 6180c20-35 15-34 0-62l-38-2c1 58-1 53 38 64z"/>
 <path class="fil0" d="m11472 8003c-17 45-23 88 0 127 24-41 17-88 0-127z"/>
 <path class="fil0" d="m5529 7112c57-28 5 15 30-28l56-98c-50 19-71 78-86 126z"/>
 <path class="fil0" d="m4767 5550c51 17 42 49 72-7 0-1-2-19-28-18-87 4-12-10-44 25z"/>
 <path class="fil0" d="m6058 8051c19-25 42-97 28-126-19 29-41 98-28 126z"/>
 <path class="fil0" d="m10306 7220c1-5 8-26 6-37-7-49-12-35-20-47-28 48-26 58 14 84z"/>
 <path class="fil0" d="m5384 5543c10 20-12 19 25 26 72 15 29-5 40-13-27-25-26-37-65-13z"/>
 <path class="fil0" d="m5797 6876c54-11 42 2 49-52-51 2-45-2-49 52z"/>
 <path class="fil0" d="m4761 5431c4 2-13 38 34 14 20-10 11-5 20-44-33 9-39-2-54 30z"/>
 <path class="fil0" d="m11292 7358c21-23 21-12 15-79-3 3-43 13-15 79z"/>
 <path class="fil0" d="m4504 6168c13 8-16 35 94-10-13 1-53-3-53-3l-33 7c-2 0-5 4-8 6z"/>
 <path class="fil0" d="m5241 6893c-20 30-16-10-17 39-1 59-3 5 16 29 15-40 23-31 1-68z"/>
 <path class="fil0" d="m7319 4885c43-21 30-11 44-51-35 11-34-32-44 51z"/>
 <path class="fil0" d="m5073 6041c13-20 4 23 18-36 10-41 9-16-4-40-23 31-13 27-14 76z"/>
 <path class="fil0" d="m10562 8898c68-13 34 11 52-37-41 10-38 3-52 37z"/>
 <path class="fil0" d="m6754 6168l53-9c-8-11 23-36-26-17-39 15 0-9-27 26z"/>
 <path class="fil0" d="m4726 7194c5-6 32-2 0-45-40 48-13 27 0 45z"/>
 <path class="fil0" d="m6649 6163l-15-53c-20 39-30 45 15 53z"/>
 <path class="fil0" d="m4904 5168c34 25 30 13 50 0-41-32 46-21-21-14-34 3-6-5-29 14z"/>
 <path class="fil0" d="m6134 6174l76-57c-46 16-55 12-76 57z"/>
 <path class="fil0" d="m6778 7755c5-58 9 10-12-16-36 36-10 28 0 43 12-17 9 1 12-27z"/>
 <path class="fil0" d="m4717 8011c41-19 18 23 37-37-32 13-21-14-37 37z"/>
 <path class="fil0" d="m8097 8596c3 3 8 23 10 26 11 16-1 3 28 12-20-42 6-26-38-38z"/>
 <path class="fil0" d="m9057 7804c20-35 17-20 2-49-10 15-9 6-12 26-6 52-2 5 10 23z"/>
 <path class="fil0" d="m5997 6690c7 12-25 7 34 33 23 11 2 5 27 7l-61-40z"/>
 <path class="fil0" d="m6532 6737c2 1-16 41 34 0-21-16 7-26-34 0z"/>
 <path class="fil0" d="m5142 6127c10-29 17-8-14-42-2 72-1 27 14 42z"/>
 <path class="fil0" d="m4566 6434c45-39 23 38 21-19-2-42 10-1-14-26l-7 45z"/>
 <path class="fil0" d="m7979 7765c0 30 11 23 16 1 6-27-16-8-16-1z"/>
 <path class="fil0" d="m4618 7164c-32 20-21-16-24 44l24-44z"/>
 <path class="fil0" d="m6654 6084l29 5c-10-24-25-7-29-5z"/>
</svg>
