<?xml version="1.0" encoding="utf-8"?>
<!-- Generator: Adobe Illustrator 23.0.1, SVG Export Plug-In . SVG Version: 6.00 Build 0)  -->
<svg version="1.1"
	 id="Layer_1" shape-rendering="geometricPrecision" image-rendering="optimizeQuality" text-rendering="geometricPrecision"
	 xmlns="http://www.w3.org/2000/svg" xmlns:xlink="http://www.w3.org/1999/xlink" x="0px" y="0px" viewBox="0 0 1296 936"
	 style="enable-background:new 0 0 1296 936;" xml:space="preserve">
<style type="text/css">
	.st0{fill-rule:evenodd;clip-rule:evenodd;fill:#030303;}
</style>
<path class="st0" d="M701.5,793l8.3-1.8c4.8-0.1,4.1-0.1,8.6,1c4.4,8,0.7,10.5-2.6,14.2C709.3,805.3,698.5,801.1,701.5,793z
	 M725.5,389.2v1.2c0,1.9,0.1,3.9,0.4,5.7c-13.4,26.6,0.1,12.9-13.6,18.3c1.1,8.9,3.7,2.2,6.4,10.1c3.2,9.1,0.8,5.3,6.5,13.1
	c6.9,1,16.9,0,25,0.3c11.9,0.4,13.4-2.6,21-6.6c9.1,1.8,12.4,7.1,19.2,7.9c5.8,0.6,21.7-0.1,28.8-0.1c1.2-10.1,12.6-5.7,19.2-0.3
	c6.5,0.6,16.3,0.6,23.1,0.6c11.3,0,11.5-2.4,19.1-5.7c9.3,2.5,7.6,5.7,19.2,5.7c5.4,0,11.3-0.8,16.7,0.8c8.3,2.8,1.1-0.1,4.7,3.2
	l-14.7,3.9l19.4,1.1c-0.8-4.4-0.8-2.9-3-7.2c9.3-6.8-1.2-12.3,3.5-17.4c3-3.2,13.1-2.2,15.8,0.4c3,6.4,0.4,3.6,2.1,9.3
	c0.7,2.5,2.6,5,3.9,7.5c5.4-1.7,18.7-0.7,26.7-0.4c20.7,0.7,23.7-14.7,32.6,6.2l5.7-5.5l21.2,0.1c6.5-2.2,13.6-14.7,22.3,0.4
	c7.7,0.4,16.2,0.7,23.9-0.3c10.5-1.2,7.6-5.5,19.1-6.6c7.1,1.5,11.5,16.6,40,4c0.8-2.8,3-7.1,4.8-10.8c-4.3-14.8-1.4-12.4-2.1-27
	l-6.9-14.9c-6.9-3.2-4.6,0.1-6.5-6.2c9.1-6.2,13.3-7.3,13.1-18.3c0-6.8,1.4-0.1-3-7.5c-15.2-25.2,28.8-47.6,40-21
	c5.5,12.9,0.3,20.6-5.4,27.5c-1.8,21.9,6.1,13.8,4.6,28.9c-3,8-28.1,19.4-10,52.3c6.6,12-1.1,16.6-6.5,22.8
	c-1.9,5.4,0.8,49.2,0.7,57.4c-0.4,21.2,0.3,42.3,0.1,63.5c2.4,4.4,2.6,3.6,4,7.9c0.7,2.4,0.1,1.9,1.1,4.8c1.4,4.3,1.5,1.9,2.1,5.3
	c1.1,5.5-0.1,6.1-2.4,9.5c-2.4,4-2.8,5.3-4.4,9l-6.6-1c0.8-4.3,1.8-1.8-0.1-6.8l-7.2,3.2c-1.2,6.6-6.1,1.4-9,10.8
	c4.1,1.9,1.5,1.2,6.2,1.5c0,0,6.6,0,7.2-0.1c5.7-0.1,7.6-1.5,15.4-1.9c-2.1-12-0.1-3.6,1.8-6.6c0.1,0,7.3,1.8,0.4,10.9
	c-0.1,0.1-6.9,5.4-6.9,5.4c0,35.3-0.3,15.4,5.3,38c6.8,27.8-7.9,17.4-4,34.4l1,14c0,11.3,0.8,11.8,2.1,21.4
	c1.8,16.6,1.7,7.9,6.8,18.9c-2.1,5.1-2.5,5.3-6.1,9.5c5.5,12.4,1.4,18.7-14.4,20.7c-10.2,1.4-10.5-2.8-13.3-10.9l-8-0.7
	c-2.1,8.9-32.5-2.6-43.3-2.4l-92.3,3.7c-14,1.1-24.9,6.5-38.5,8.7c-6.4-20.2-1.2-13.8-32.5-3.7c-15.6-9.1-11.8-3.2-28.8-7.6
	c-7.9-1.9-18.3-11.1-29.5-6.5c-7.3,2.9-15.9,10.5-26.3,10.4c-27.7-0.4-7.9-12.4-60.6,2.6c-21.4,6.1-2.1-1.9-28.4,9.7
	c-7.5,3.3-16.2,11.6-23.4,13.3c-5.8,1.2-29.7,1.5-37.5,1.9c-9.1-5.1-11.3-4.7-18.3-11.3c-7.1-6.6-8.7-7.5-19.6-10.9
	c-5.3-1.7-15.9-6.5-19.5-9.3c-8-6.1-10.9-3.2-21.2-5.5c0.7,3.2,1.2,4.3,1.8,4.8h-3.6c-1.2-0.4-2.6-0.8-4-1l-2.4-0.6l-0.1-6.8
	c-22.3-7.7-72.5-11.9-98.9-20.2c-7.3-2.2-14.5-0.7-22.1-2.9c-23-7.1-37.2-6.5-41.9-8c-12.3-4.3-24.2-5.1-37.2-10.8
	c-6.6-2.9-27.7-3.3-38.2-6.4L308,710.9l-13.3-12c3.9-4.8,10.5-6.5,15.6-9.7c1-8.2-1.5-12.3-1.9-19.1c-8.2,0-6.5-1.7-17.2-1.1
	c-11.3,0.6-19.8,1.1-17.8-11.3l-4.6,3c-3.6,1.9-6.1-1.7-8.9-3.3l1.8-10.4c6.2,1.5,14.9,8,22,11.1c10.9,4.8,16.7,2.6,28.1,1.9
	c2.1-11.2,5.7-22.8,10.2-31.9c2.9-5.9,4.4-8.3,7.2-14.1c3.6-7.7,4.6-10.5,12.7-11.9c-1.7,16.9-20.9,40-21.9,62.1
	c5.3,5.7,6.5,7.6,13.3,11.1c10.1-6.2,8.9-22.3,11.9-35.5c3-12.9,9.1-25.9,10.1-40c-11.2-2.4-8.7-4.8-24.5-4.6l-5-5.4
	c-13.7,1-26.7-1.1-33.7-9l-17.7,1.1c-3.6,12.2-0.1,40.7-8.7,50.5c0-4.4-0.1-10.1,0.1-14.4c0.8-11.1,5.7-26.1,0-36.4l-11.1-2.6
	c1.9,7.3,4.3,7.3,5.3,12.7c1.1,5.3-0.8,8.7-0.8,14.9c0,5.4,2.2,11.1,1.1,15.1c-2.5,8.4-4.3,0.8-8.4,6.1c4.7,1,3.5,1.7,5.7,3.7
	c-0.4,10.4,2.2,21.2-0.8,30.7c-1.7,5.3-0.7,2.2-2.1,4.1l-5.7-17.6l-1.7,26l22.8,6.5c10.1,5.1,13.8,1.9,16.2,14.5
	c-20.7-2.2-18.1-3.3-35.5,3.9c-14.5-2.8-26.7-13.1-42.6-12.4l-1.2-11.8c-9.3,3.9,1.8,1-7.2,5.1c-5.9,2.8-5.9,0.1-10.6-1
	c-8.3-1.8-11.9,3.2-23.4,2.4c1.7-4,0.3-3.3,3.2-5.1c-3.2-0.7-1.8-0.6-4-1.2c-3.5-1.1-1.1-1-5.3-1.2c0.3,7.1,2.8,10.6-0.7,16.7
	c-3,5.3,2.6,0.6-4.1,3.2c-2.9-4.4-1.8-8.6-1.1-14.9l-8.4,0.7l-4.3,12.9l10.4,4c-1.5,5-1.2,7.1-7.7,6.6c-4-0.3-6.2-3-11.6-4.3
	l-7.9,13.6c-2.2-2.1-1,0.4-3.2-3.3c-2.6-4.4-2.9-8.9-1.4-13.1c2.1-5.7,4.8-8.9,6.4-16.7c-3.2-4.6-7.1-11.9-6.9-19.5
	c0-13.3,15.5-7.6,10.4-39.7l2.4-71.5l-6.6-5.8c0.1-12,3.3-9,1.1-19.6c-4.3-20.9,5.4-30.6,2.8-44.7c-0.8-4-3.3-18.5-3-22
	c0.3-3.7,3.3-16.2,4.4-20.9c1.7-7.3,1.4-15.4,1.2-23.4c0-8.6,1.1-16.7,0.8-25c-0.3-12.9-1.9-11.2-5.5-21.2c6.8-20.5,4.1-40,3.7-63.3
	c-0.3-10.9,0.6-21.7,1-32.5c0.6-15.8-9.5-9.5-6.8-27.1c5-4.4,5.4-4.7,8.7-9.5c-0.8-8-2.2-16.5-6.6-20.1c-7.1-5.7-8.4-7.9-8.2-18.4
	c0.3-19.4,15.2-23.8,34.3-20.7l9.3,10.6l7.3-3.5l1.9,25c-8.4,8.4-11.3,10.4-12.6,21.2c-1,7.7,0.1,5.5-5.4,8.4
	c-1.5-4.8-1.2-20.9-16-10.8c0.3,18,2.1,12.3,15.6,12.6c2.9,0,2.6-0.4,5.7,0.7c10.9,3.7,0-1.5,2.8,2.5c-15.1,9-33.1-11.3-30.6,12.4
	c3.7,0.3,5.5,0,10.8,0.8c-5.7,4.3-6.9,4.4-6.9,12.9l16.3,0.7c7.2,9.5,5.3,18.3,5.3,32.8c-0.1,5.5-1,8.3-0.8,11.1l1.8,67.6
	c0,17.2-2.8,39.8-1,55.9c0.7,6.9,5.1,16.9,4.8,23.2c-0.3,6.1-6.5,19.9-5.8,23.8c0.3,0,2.2-6.6,5.3-12.2c5-9,3.2-1.5,4.6-10.8
	c4.1-2.9,4.8-3.6,10.2-4.6l-11.2,24.5c-8.2,17.2,5.7,28.2-7.2,36.5c-0.6,8.3,1.2,8.3,1,15.4c-0.3,5.4-1.7,9-1.9,15.5
	c-0.8,33.3,3.7,71.5-1.5,103.6c-3,1.1-8.7,3.7-10.9,4.4c-8.7,2.5,0.6-2.2-11.9,0.3c-1.9,1.9-8.2,11.6-3.6,13c0.7,0.1,6.8-4.6,17-0.1
	c4.6-3,5.7-4.7,12-5.7l-1-10.5c8.9,2.8,11.2,2.8,21.6,4.6c7.3,1.1,2.5,1.5,9.1,4c3.6,1.4,7.1,1.2,11.1,2.4c6.8,1.9,12,5.1,18.1,6.9
	c8.6,2.5,15.8,2.8,25.9,3c1-8.3,0.6-17.2,1.4-25.7c1-9.3,3.6-14.9,3.6-25.3c0.3-13.4,6.2-37.3,3.7-47.9c-5.9,4.4-1.9-1.9-4.1,5.4
	l-2.6,19.8c-1.8,8.9-3.9,13.6-9,18.5l-6.6,14.1c-1.4,2.4-1.4,2.1-2.5,3.6l-5-2.8c0.7-7.3,0.8-19.2,3.2-25.4
	c3.9-10.4,5.8-23.1,11.6-27l9.8-6.4l-11.1-7.6c14.7-9.7,31.1,5.4,39.4,11.9l27-0.4l5.5,5.9c10.8-0.1,12-2.6,24.1,1
	c4.4,1.4,34.9,4.8,50.1,11.3c10.5,4.6,12.7,4.8,25.6,5.4c6.5,7.9,9.5,16.6,19.5,16.9c-3-4.3-4.8-5.1-6.2-5.9
	c4.8-4.4,3.3-7.5,14.1,5.1c9.4,0.3,11.8,0.6,18.4-1.7c8.9-2.8,9.4-2.2,18.4-0.3c15.2,3.3,20.3,7.2,36,8.4c10.2,8.7,7.7,6.9,24.6,8.3
	c9.5,0.8,21.6,2.6,28.9,4.7c-6.4-12.3-7.3-47.6-1.5-60.7c3.2,6.5,1.5,18.1,2.1,26.4c4.4-8.3,4.3-29.7,7.3-36.4
	c2.6-5.9,2.8-1.8,4.6-11.5c10.2-3.9,8.9-9,12.4-21.3c2.2-7.5,1.5-5.1,5.9-8.2c1.4,2.2,1.9-0.6,1.9,4.1c-0.1,1.7-1,4.1-1.8,6.1
	c-3.7,9.7-5.9,23-17.7,22.5l-10.9,82c20.1-1.5,14-2.1,26.7,8c9.1,1.1,18-1.2,26.6,0.8c8.9,2.4,8.7,5.4,21.3,5.5
	c14.9,0.1,32.6,0.7,43.8,11.6c-17.2,10.1-19.4-21.4-26,12c-1.7,9.1-6.1,45.2-3.3,50.8c3.5,3,6.6,3.7,10.4,6.4c5.5,4,3,5.9,9.4,10
	c0-17.3-7.7-43.8-1.5-61c5,3.6,3.2,15.8,3.5,31.8c0.1,13.1,2.2,21.4,2.4,35.1c-9.3-3.3-9.5-5.3-21.3-5.7c-0.3,4-0.3,6.9-0.3,11.1
	l-3.6,7.3l-5-27.9c-15.1-6.2-11.3,17.4-9.4,28.2c7.3,4.3,25,1.7,31.5,7.9c5.5,5.3,3.7,7.1,12.3,6.2c2.4-16.6,14.8-54.8,7.2-73.9
	c-7.6-19.2,4.6-20.5,5.4-53.9c0.3-8.4-4.6-5.9-4.6-19.5l6.6,7.9c5.8-0.8,18.3-0.7,22.3-3.5c-2.8-5.9-18.9-3.6-24.8-3.2
	c0.6-16.6-10-3.6,0.6-25.6l-0.4-73c2.2-18.9,3.6-54.2,1.4-75c-16-10.6-6.4-19.6-3.9-32.2c2.9-14.5,2.8-27.9-8.2-36.9
	c-0.3-9.7,5.3-15.8,5.8-25.2c0.4-6.4-5.8-15.1-7.2-26.7c16-36.7,61-15.1,46.6,16.6c-7.5-3.6,1.8-1.9-6.9-2.8c1.4,5.4,3.3,2.2,5,7.3
	c-0.4,13.1,2.5,15.2-1.1,26.8L725.5,389.2z M680.4,784.1l-2.8,6.4l-2.5-2.8C676.6,787.3,677.5,785.8,680.4,784.1z M1154.2,777.5
	c7.2,1.1,4.7,0.3,8.6,4C1158.1,792,1151.2,786.5,1154.2,777.5z M719.4,778.9c3.2,5.5,1.1,3.9,0,5.8
	C714.5,782.6,713.6,783.7,719.4,778.9z M771,777.3c4.4-2.1,4.4-0.7,6.1,0.3l-2.2,1.7C770.3,778.6,774,779.8,771,777.3z M652.3,774.4
	c0.7,1,3.5-0.8,0,4C651.6,777.7,647.2,778.7,652.3,774.4z M946.5,773.7l5.9-1c-3,2.4,0,1.8-3.2,2.1
	C944.3,775.3,949.1,775.9,946.5,773.7z M889.9,767.8c21.2,0,15.4-2.1,25.3,6.9c-6.9,1.1-7.9,1.9-14.2,0
	C889.5,771.2,891.6,768.9,889.9,767.8z M689.8,770c3.6-3.7,18.3-2.4,27.4-1.2c-0.4,5.3-1.7,6.5-5.4,10
	C700.2,780.8,695.2,776.1,689.8,770z M1147.6,772.4c-4.8-7.2-1.1,3.5,5.5-13.7l14.5,2.1c1.9,18.1-7.2,8.6-16.2,6.4l-2.4,2.6
	C1145.8,774.4,1149.2,770.3,1147.6,772.4z M850.6,775c5.1-2.5,13.6-7.3,20.1-8.4c-2.2,1.7-6.6,3.6-9.4,4.8
	C857.8,772.9,854.6,774,850.6,775z M713.4,758.9c-1.5,6.8-1.2,4.8-9.3,4.7C709.4,761.6,709.4,762.8,713.4,758.9z M587.7,730.6
	c6.9,5.8,5.8,9,17.8,13.1c12.6,4.1,16.7-1.8,24.3-5.1l0.4,20.9l-31.8-0.3l-3-7.5l-11.3-1.9C583.1,741.1,584.5,737.6,587.7,730.6z
	 M576.9,750.8l-8.9,0.7c0.1-10,1.8-4,5-12.9c2.8-8-0.8-8.2,6.1-10.6C579.8,736.4,580.4,744.3,576.9,750.8z M608.3,738
	c1-1.1,0-1.7,2.9-1.2c0.4,0.1,3.2,1.2,3.3,1.2H608.3z M496.1,733.1c4,4.7,2.2-7.1,1.9,2.5c-0.1,5,1,0.3-1.4,3.6L496.1,733.1z
	 M701.5,715c0.8,8,1.9,23.4-1.2,29.6c-5.3-1-4.4,0.4-5.7-5.4c-0.1-0.6-1.4-9.4-1.4-10C692.7,720.9,694.6,716.2,701.5,715z
	 M506,714.7c0.8,7.6,2.9,8.9,0.4,13.6C506.2,728.2,498.5,728.9,506,714.7z M496.3,710.7l1.4,17.8c-9.5-0.6-10.4,0.4-10-10.5
	C488.1,708.5,488.5,709.3,496.3,710.7z M638.2,728.4c0.4-7.6,3-15.8,6.4-21.6c2.1,3.5,1-4.7,1.7,5.4
	C647.5,731,643.9,727.3,638.2,728.4z M554,723.8c2.8,2.2-4.1,2.2,7.9,2.6c3,0.1,6.6-0.4,10.4-0.3l-6.6,22.5
	c-14,1.2-43.8-9.8-53.4-10.2l1-17.2c10,2.2,5.8,2.8,14.2,7.1c11.5-2.5,14-0.7,22.1-5.1c6.1-3.5,12.7-7.6,16.6-3.3L554,723.8z
	 M824.5,708.5c6.9-5.1,15.6-7.7,24.6-8c-2.5,15.2,0.6,60.7-4.7,69.7l-6.2,1.1c-3.6-8.9,0.8-15.5-2.5-35.3
	C834.6,729.5,827.5,711.9,824.5,708.5z M853.1,700.3l15.2-1.1c8.4,13,7.1,30.2,5.3,47.7c-0.4,3.9-0.7,5.7-1.8,8.2
	c-3.2,7.1-5.4,5.5-11.9,5.4C856.4,747,859.6,731.8,853.1,700.3z M793,703.2c12.4-2.8,14.2-2.9,26.3-0.6c-1.8,16.6,8.4,36.1,5.4,51.5
	c-1.9,9-6.6,8.3,0.4,12.7c5.7-9.3,0.3-16.5,6.6-22.7c3.9,6.9,0.1,14.8,0.6,25l-35.7,0.7C798.1,752.4,804.7,728.5,793,703.2z
	 M739,750.1l-14,3.9l0.6,9.8c9.7,1.8,6.9,0.4,12.9-3.5l5.1,7.5l3.7-20.9c2.9,6.9,5.9,14.7,6.2,24.2l-14.8,3.3c-2.2-4.4-1.8-5-4-6.6
	c-0.6,0.7-5.5-0.3-2.9,6.8c4.7,12.3,27.8-1.9,38.6-3.6c-3.3,5.7,1.4,1.5-7.1,6.5c-2.5,1.4-5.3,3.7-6.8,4.6c-5.9,2.9-14.9,1.4-21.9,1
	c-7.1-6.1-6.2-11.6-14.1-18.8l0.3-10.8c-5.5-1.2-7.3,0.7-14.8,0.8c-9.7,0.1-11.5-2.4-16,3.3c-6.4-10.2,23-6.6,26-6.1
	c-1.4-14.5-3.9-31.8-0.4-46.6l21-1.5l2.9-5.7c0.3-0.3,0.7-1,1-1.4l5.8,5.4c3.5-1.7,3.5-1.5,5.7-4c15.9,12.9,5.5,7.7,28.9,8.9
	c1.4-3.2,2.5-8.2,3.7-10.5c5,6.1,7.3,50.6,5.8,64.6c-0.6,3.7,0.1,7.5,0.3,11.3c-7.5,0.8-5.8,1.9-11.9-1.9c0.6-6.2-4,3.3,3.5-6.2
	c3-3.7,2.5,3.2,2.5-7.5l-10.4-0.6l-2.1,9c-22.7,11.1-15.4-20.2-17.4-54.4l-10-3.5L739,750.1z M1152.2,702.6c4-1.8,3.6-0.8,8,1
	c-0.3,7.2-1.1,7.9-5.8,11.2c-0.3,12.2,4.1,18.3,4.4,28.5l8.3,2.8c-10.5,0.3-9.3-5-14.9,2.8l5.3,2.1c0.6,0.1,1.2,0.1,1.9,0.3
	c6.1,1.2,1.2-0.7,6.2,1.5c-6.8,8.6-15.5,1.4-19.1-1.9c6.4-12.3,1.8-6.9,1-19.2c-0.4-5.8,0.6-17.8,0.8-24.2c5.1,0.8,3.5,1,9.7,2.1
	C1155.7,703.1,1156.4,705,1152.2,702.6z M935.8,679c10.1,6.2,9,9.8,9.3,17.2l-6.4,0.6c-0.4,0-1.1-0.1-1.7-0.1
	c-0.4-0.1-1.1-0.6-1.5-0.6C926.7,693.8,935.8,679,935.8,679z M901.8,758.8c6.1-4,5.3-9.8,5.3-18.1l4.6,10c2.8,5.8,1.5,4.3,5.3,7.3
	c-1-8.7-5.3-18.7-5.9-28.4c-1.8-20.3-10.4-38.9,21.3-28.4c14.2,4.7,18.8-8,46.3-3.9c9.8,1.5,6.1,6.5,19.2,7.9
	c11.3-1.7,10.5-16,46.1-5.5c0.6-0.3,1.2-1.5,1.4-1l9.4-2.5c12.3-3.5,29.3,0.6,39.3,2.8c7.6,1.5,9.8-1.1,15.2-4.4l30.3-1.4
	c5.4,12.2-1.8,3.6,7.1,9.4l-7.6,2.4c-8.3,16.5,3.3,37.2,1.1,53.4l5,7.7l-5.3-0.1l0.1,10.6l-18.5-3.9c3.5-5.3,3.2-3,6.9-4.4
	c5.1-1.9,2.5-0.8,4.4-2.2c-1.2-0.7,2.6-4-11.3,0.4c-13.6,4.3-30.3,1.1-45.9-1.2l1.8-32.9c6.6,10.1-0.3,15.1,9,20.1
	c0.3-3-4.4-36.5-7.2-40.5c-0.4-0.4-1.7-1.4-1.9-1.8l-4.3-9.8c-4.3,8.3-2.1,51.3-2.4,64c-18.1,0.6-18.1-1.1-30.3,6.8
	c-1.7-4.7,4.7,0.4-3.9-8.2l-2.6,6.5c-3.2,5.9-6.6,2.9-21,4.7c0.4-6.9,1-8.7-1.4-14c-3.6,3.3-2.6,3.3-4.1,7.6l-41.5,0.8
	c1.9-10.8-0.1-2.2,6.2-8.3c-2.8-7.7,0.8-0.6-5.9-5.8l0.6-6.8l4,4.3c0.4,0.3,1,1,1.4,1.4c-1.5-10.1-0.1-16.7-3.3-25.2
	c-6.4-16.2,0.6-12.3-7.2-19.2c-9,15.6,12,54.5-7.6,58.8c-3.7,0.7-4.6,0.4-8.2,1.8c-7.2,2.8-5.8,5.1-13.8,3.3
	c-2.2-7.5-0.8-4,2.6-10.8c2.2-4.4,1.7-7.7,2.4-13.3c-0.4-0.3-0.8-1.4-1.1-1.1l-1-4.4c1.1-0.8,1.9-1.4,3-2.2
	c0.6-12.2-3-19.2-3.2-27.2c-2.8,2.2-5.5-6.4-3.6,9.1c0.7,5.1,1.4,3.2,0.8,9.7c-1.5-9.1-0.3-6.8-5.8-9.8c-0.4,16.2,4,26.1-0.3,40.4
	c-1.5,4.7,0.7-2.9-5.9,4.8l4.1,0.8c-8.4,5.3-2.2-4.8-37.3-4.3c-3.5,4.6-0.1,0.1-1.9,4.4l-4.7-3.9c-0.3-0.3-0.8-0.7-1.1-1l-1-13.3
	c1.8,12.9-1.9,8,5.9,11.3c3.7-36.2-4.3-37.5-4.4-57.4c6.5-2.4,6.6,0.7,11.5-3.7c5-4.6-1-6.4,6.6-7.3c-2.2,2.9-2.9-3.7-1.1,4.6
	c2.8,14,3-0.1,2.9,25.4c0,6.5,2.1,9.5,2.6,15.4C902.5,745.2,901.8,752.4,901.8,758.8z M317.3,685.4c20.3-2.9,18.5,0.6,19.8,4.4
	c5.3-3.3,4.8-3.7,11.8-1.5c0.4-0.4,1.1-1.7,1.2-1.2l4.3-5.1c21.9,1-4.4,5,33.1,11.5c10.4,1.8,7.2-1,13.3,6.6
	c5.4-3.2,2.1-2.4,9.1-0.8l0.7,16.9l4.6-12.3l1,10.4c-3.9,2.8-3.2,2.5-5.7,5l-16.9-0.1c0,0-7.3-13.6-42.6-13.7
	C338.3,705.1,312.7,704.2,317.3,685.4z M1026.8,690.2c2.2-2.1,0.6-1.5,3.9-1.9c1.8-0.3,3-0.6,6.8-0.7l-0.4,4.7L1026.8,690.2z
	 M1137.5,687.4c-5.5,4-8.2,1.1-16.2,0.8C1129.5,687.4,1130.2,684.7,1137.5,687.4z M993.4,697.9l-0.8-14.4
	C1007.3,684.2,995.4,696.8,993.4,697.9z M768.2,700.4c5.7-2.4,3.7,0.3,6.4-4.8c1.5,11.9,1,3.5-1.4,6.5c-4.7-3.3-4.3-5.5-10.4-6.1
	c5.8-8.4-0.3-7.6,9.1-8.3C767,692.5,768.3,692,768.2,700.4z M703.2,701.7l-10.6,1.1c-11.2-20.9,8.3-20.5,17.3-17.8
	c4.1,1.2,1.9,0.6,4.4,2.4l-7.2,5.3C705.4,694.5,704.3,698.5,703.2,701.7z M874,695.9c1-13.8-0.1-6.8,4.6-16.5c0.1,0.1,5-1.1,0.8,8.3
	l-3,5.1c-0.3,0.6-0.8,1.1-1.1,1.5C875,694.8,874.4,695.3,874,695.9z M370,686.3c0.4-1.1-3-3.7,5.8-3.2c8.6,0.6,5.4,1.9,7.5,4.1
	L370,686.3z M752.8,688.7l1.8-22l5.3-1.2c3.3,2.9,0.4,1.1,5,3l0.4,14.9C756.4,686,767.2,690.9,752.8,688.7z M1158.7,690.7
	c-10.1,0.4-8.3-1.8-11.9,1.4l-1.2-12.4c5.5-3.5,6.8-4.8,15.1-3.2L1158.7,690.7z M892.3,664.7l3.5,17.4c0,0,4.4-1.1,4.8-1.1
	c7.1,1.1,0.6-0.7,3.5,2.8c-6.1,1.2-1.9-1.4-4.3,4l-10.8-1.4C884.7,680.1,881.8,667.2,892.3,664.7z M345.1,676.1l0.4,4.3
	C341.1,675.5,344,677.1,345.1,676.1z M798.2,661.7c5.1,3.5,1.9,1.5,5.7,12.4c1.8,5.7,3.5,10.4,5,15.8h-16.2c1.5-9.8,0.3-0.3,1.9-6.1
	C796.1,677.9,793.1,669.9,798.2,661.7z M788.1,689.9c-5.4-0.7-4,0.4-8-1.8l-3-2.6l-1-1c-0.1-0.3-0.6-0.7-1-1.1l2.5-17.3l9-3.5
	C791.4,673.7,789.2,676.6,788.1,689.9z M418,693.9c-2.2-4.4,5-23.4,4.6-28.8C423,673.2,421.5,688.8,418,693.9z M317.6,671.2
	c6.1,1.4,4.3,0.3,6.4,6.6C318.1,676.4,318.3,677.1,317.6,671.2z M629.2,733.1c-7.6,1.4-17.2-1.9-24.9-5.5c-3.2,2.9-2.5,3.3-7.7,3.3
	c-12.6-5.4,1-41.4,3.2-52c1.4-7.1,1.5-13,3.2-19.6c9.8-3.9,14.9,0,22.4,3.7l23.2-0.7C648.6,669.7,631.1,730,629.2,733.1z M698.4,649
	l5.8,2.2c2.1,7.9-0.3,17.3-0.1,22.8c-8.3-0.6-9.3-0.8-9-9.7C695.2,658.5,695.9,653,698.4,649z M473.9,701
	c1.8-11.2,7.7-32.4,13.1-40.9c0.6,9.7-1.4,15.1-2.9,24.5C482.3,695.9,485.2,700.3,473.9,701z M900.8,666.1c5.1-4.3,8.9-2.8,17.4-1
	l1.9,12.7c10-5.1-1.4-5.9,8.4-11.8l1.7,2.5c0.6,2.8,0.7,1.8,0.6,5.1c0,2.8-1.7,7.6-2.2,9.8C910.2,691.6,912.3,685.8,900.8,666.1z
	 M721.3,691c-5.1-6.4-5.8-11.6-5-22.1c15.9-4.8,7.2,3.7,33.7-5C745.8,691.3,751.3,691.9,721.3,691z M936.4,660.7l1,7.1
	C935.4,664.1,934,664.2,936.4,660.7z M879.7,652.3c0.4,1.9,1,3.2,0.8,6.6c-0.1,10.6-0.1,4.1-1.7,7.2
	C875.4,658.7,875.9,658.2,879.7,652.3z M848,681.8c11.5-11.8-1.2-21.3,20.1-18.1c3.6,0.6,4.6-1.1,5.7,4.4c-2.2,1.1,1-0.6-1.9,0.4
	c-0.1,0.1-0.7,0.3-1,0.4l-2.4,1.1c0.4,7.9-1.1,6.5,3.9,11.1c-9.8,16.3-41.2,0.4-46.3,14.9l-4.3-6.6l4.1-11.1l3,7.5
	c0,0,4.3-0.6,3.6-12c-0.4-6.8-2.9-3.7-0.1-11.3c3.3-1.5-1.8-2.1,14.5-0.7C847.5,669.6,842.6,671.7,848,681.8z M804,660.3l16.7,0.4
	l-1.2,22.5c-3.2,11.3,0,1.9-4.1,6.4C809.4,681.8,808.2,668.2,804,660.3z M583.1,717.6c-0.8-1.5-4.4,4.6,1-10.2
	c4.4-12.3,5.3-25.2,6.5-28.2c1.1-2.6,2.5-2.1,2.6-5.4c0.3-7.3-3.7-5.4-4.3-5.8c-5.1,11.2-9.3,33.2-13.1,44.8
	c-13.7-0.4-7.5,0.6-17.7-4.1l-10.8,4.8c-0.3-22.4,15.9-46.1,14.9-65.8l35.7,11.3L583.1,717.6z M743.7,660.5l-4.8,0.3
	C739.3,660.2,737.6,656.6,743.7,660.5z M346.9,666.8l0.7-11.5C349.7,658.8,349,662.4,346.9,666.8z M541.5,714.5
	c-2.2,1.1,5.7,2.9-5.8,1.2c-10.2-1.4-10.2-7.6-21-10.4c3.3,10,7.2,10.9,21.9,15.9c-13,0.1-24.1-7.5-26.4-12.9
	c-1.9-14.5,3-52,7.7-64.9c5.9-7.9,22.4-4.7,31-2.5l10.6,5.8c-0.7,6.5-8.2,23-10,29.5C546.5,687.7,545.2,705.5,541.5,714.5z
	 M576.9,644.1c-2.1,2.5,1.9,2.8-3.2,2.4c-1.7-0.1-2.8-1-5.4-1.9L576.9,644.1z M494.8,702l-5.9,0.4l8.7-64.5c8.4-0.7,11.8,1,16,5.3
	l-9.7,44.1c0.1,10.9,6.4,7.2-1.5,13.6c-5.9-13.8,2.6-41.6,3.9-52.6c1.4-12.3,0-4.8-1.8-7.5C490.1,655.3,499.9,689.5,494.8,702z
	 M410.4,692.1c-12.9-4.6-3.6-6.6,0-31.7c1.2-8.4,0.4-10,3.7-17.4c4.6-10.2-0.6-10.5,3.2-19.5c7.2-2.5,1.7,1.8,11.1,1.9
	c16.3,0.1,15.1,2.5,26.1-5.4c0.6,0.3,2.5,1.1,2.9,1.2l28.8,7.9c-3,25.9-12.9,46.3-15.4,72.5l-9.3-4.7c-7.5-0.6-2.6,1.4-11.9-0.4
	l-7.6,0.4c6.4,6.2,5.1,2.8,8.7,5.7c4,3,2.5,4.4,4.3,9.1c11.9-1.1,12.9-1.4,22.4-4.1l6.1,6.1c1.5,3.3,1,7.6,1,11.3
	c-18.5,12.2-46.5-4-46.5-4c-6.8-2.1-9.8,1.1-18,1c-1-11.8,1.5-14.7,5.9-23.2c17.8,0.3,5.1,10.1,27.7,10.5c-0.6-0.4-1.2-1.8-1.5-1.4
	L433.4,693c-3.9-2.1-0.7-0.1-3.9-1.7c-3.9-1.8-1.5-0.6-3.6-2.1c0.4-9.7,6.2-41.6,4.8-50.1c-1.2-8.3-1.4-4.6-3.2-7.2
	c-3.2,2.2-1.5-4.4-4,5.1c-3,12.4,3.9-4.4-3.5,15.9c-0.8,2.5-1.1,5.4-1.7,7.9l-5.8,26.7C411.5,690.9,411.2,690.6,410.4,692.1z
	 M399.9,686.5l-22.5-8.2c-22.3-6.4-27.9,10.5-19.2-43.2c1.9-12.4-1.5-24.6,4.3-35.4c15.2,7.2,12.3,6.8,30.8,5.4
	C418.4,627.7,418.3,585.1,399.9,686.5z M714.7,610.3c1.5,7.2,1.9,1.4,2.6,9.7c-9.3-2.6-17,0.8-24.1-5.7
	C697.7,610.7,707.6,610.5,714.7,610.3z M1149.4,601.8c16.9-2.5,15.6,4.1,15.5,8.3c-7.5,1.4-11.6-0.3-18.4-2.2l-1.5,1.7
	c-3.2-2.6-3.9,1.2-1.5-5.1C1147.6,601.5,1141.5,602.9,1149.4,601.8z M698.6,597c2.1-1.1-0.1-0.8,3.2-1c0.1,0,0.8,0.7,1,0.4
	c0.1-0.4,0.6,0.4,1,0.6c-4.8,4.3,6.5,0.4-2.8,1.2c-0.1,0-1-0.1-1.1-0.6S699,597.3,698.6,597z M149.1,526.2
	c1.5,25.3-3.6,18.8-2.5,30.6c1.5,17-3,57.5-4.8,77.3c-0.8,9.4,1.9,8.6-4.1,12.4c-2.5-4.3-1.9-93.9-1.8-97.5c3-1.9,2.4-1.7,4.8-3.2
	l-9-1.9c-1-5.9-0.3-9.4,2.6-13.6C136.4,527.4,133.6,523.1,149.1,526.2z M147.3,518.3c-0.3,0.1-0.7,0.4-1,0.6
	c-15.4,4.7-12.6,2.2-14.4-0.6C137.6,514.5,142.1,515.5,147.3,518.3z M137.6,512.2c-7.7-0.4-6.2-0.8-7.6-5.5
	c6.2-4.4,18.5-2.2,25.7-0.6c0.4,6.5-0.6,0.8-2.8,8C148.3,513.3,143.9,512.6,137.6,512.2z M698.5,591.4
	c-1.5-14.8-0.4-121.3,3.6-127.9c3.2,4,3.7,22.7,3.3,29.7c2.4,1.2-3.9,5.5,6.4,0.3l-0.3,7.5c-2.5-3,0.1-1.4-2.8-2.9
	c-0.1-0.1-1-0.3-1.1-0.3l-3.2,45.4c0.6,5.5,2.5,3.5,1.7,8c-2.4,11.2-3,18.8-0.3,32.4c6.9,4.1,4.7-2.2,6.6,7.9H698.5z M135.2,479.1
	c7.6,0.3,0.4,4.3,15.9,2.6c0.4,10.9,2.4,5.3,1.5,17.3c-7.2-3.5-13,1.4-20.6-3.9L135.2,479.1z M144.6,472.1c-0.1-2.1,1.2-2.2,1.7,0.1
	C147,476.1,144.6,473.2,144.6,472.1z M1094.6,636.3c5.9-8.2,3.9,6.5,3.7,12.6c-0.1,14,3,11.1-1.5,16.3c-2.5,3.2-1.8,0.1-4,4.8
	c4.7,6.6,5.1,1.4,8.3,11.5c-8.7,7.1-2.6,2.1-7.3,11.8l-5.8-1.9c2.2-5,3.7-5,4.7-12.3c-10.5,3.2-27.8,9.7-37.9,1.4l-0.8-21.9
	c5.3-3.5,6.2-3.9,11.9-2.6c0.6,7.1-2.1,14.9,3,23.2c6.5-3.3,0.6-11.1,0.7-21.6c8,0.4,12.3,1.4,18.8-2.9c-3.5-5.5-3-2.9-7.6-4.3
	c-13.1-4.1,1.4-5.3-27.2-0.8c0,0-2.9-116.9,3.3-127.8c1.5,10.4-1.9,12.2,6.2,14c6.4-15.2-5-18.8-8.4-21.3l1.4-8.4l26.8-0.7
	c-4.3-9.7-4.3-3.7-27-6.4l-2.8-39.7c9.7-6.8,31.3-8.3,40,3.3C1090,490.5,1088.7,612.5,1094.6,636.3z M1098.5,566.5
	c9.5-4.1,3.5-5.4,4.6-31c1-25.7,2.9-50.2-1.7-75.4l30.8-4.3c3.2,2.5,8.2,6.4,10.4,7.6c1.8,16.7-2.6,98.8,0.6,110.5
	c1.5,5.7,0.7,1.8,3.5,5.1c0.1-21.3,1.7-40.8,0.3-61c-0.3-4.8-1.1-8.9-0.7-12.7c2.6-26.4-0.7-25.9,0-40.5c5.7,1,1.4-0.7,4.7,1.8
	c5.7,4.6-3.9-3.6,1.9,2.2l-1.1,5.1c-0.7,12.7-1.5,9.4,3.5,13.8c0.1,0.1,0.8,1.1,1,0.8c0.1-0.3,0.7,0.4,1,0.7
	c-15.4,18,5.7,10.8,1.1,23.1c-7.1,7.7-5.4-0.8-6.9,11.5c0.4,0.3,1,0.7,1.1,1c0.3,0.1,1,0.6,1.2,0.8c0.3,0.1,1,0.6,1.1,0.7l2.4,1.4
	c0.1,2.5,0.6,5.3,0.3,7.7c-0.7,6.9-1.5,4.7-2.4,5.9c-1.8-8.6,0.7-6.1-3.7-12.3c-4.8,18.4-1,16.9,3.3,19.9l2.2,1.8
	c0,12.7,2.8,26.8,0,38.5c0.3,0.3,0.7,0.8,1,1.1l1.8,3.9l-11.9,0.1l3.6-5.9l-5.7-4.1c-0.8,0.7-3.7,1.8-5.1,5.7
	c-1.4,3.9-0.4,5.9,0.3,9.5c-8.2,6.4-7.1,10.9,0.8,16.6c-0.3,0.4-0.7,1-0.8,1.1c-0.1,0.3-0.6,0.8-0.8,1.1c-4.6,5.9-5.9,4-3.7,14.5
	c6.9,3,14.5,4.7,22.5,4.6c-1.4,8.6-3.3,3.6-2.5,13.8c0.4,5.3,0.6,13.3,0.3,16l-11.2-0.3l-6.1,12.7c-43.4,2.4-33.9,4-35.5-32.6
	c-0.4-8.7-0.4-20.2-0.1-29c0.3-9.3,0.7-19.5,0.4-28.8C1103.7,573.3,1105,572.4,1098.5,566.5z M1090.5,450.9c-3-9.5,0.8-5.3,1.4-6.4
	c5.3,1.1,5.5-1.4,5.9,4.7c0.3,3.5-0.3,3.3-2.8,4.4C1093.1,454.4,1090.7,451.9,1090.5,450.9z M1041.4,453.5c-3-8.2-3-7.5,2.5-11.2
	c1.9,1.4,5.5,0.4,3.5,8.2C1046.2,454.4,1045.4,453.8,1041.4,453.5z M1131.3,450.4l-9.4-0.8C1124.9,447.3,1128.8,449.1,1131.3,450.4z
	 M1141.6,445c4.4-7.3,11.2-6.1,16.7-5.8l5,6.1c-1.7,5.9-0.7,1.7-1.7,4.1c-0.1,0.4-0.4,0.8-0.6,1.2l-4,8.3c-7.3-4.6-3-2.8-7.7-9.3
	c-6.2,2.4-1.4,2.6-8.3,5.7C1140.4,452,1139.3,448.7,1141.6,445z M995.9,455.8c-7.7-1.9-8.2-5-5.1-12.3l10.4,0.3L995.9,455.8z
	 M876.6,441.1l7.9-1.4c1.8,2.2,3.2,4,5,5.9l-4.1,12.4c7.5-2.2,9.8-4.8,18.8-4s16.2-0.8,24.9,0.4c4.3,11.8,1.9,55.3,1.4,71.4
	c-8.4,7.1-3.5,10-0.3,16c2.5,5,1.2,19.2,1.5,25.7c5.4,1.9,6.1,4.1,9.5,8.2c0.3,0.4,1,1,1.4,1.4l1-24.3l-6.2-1.9l0.1-28.2
	c3.6,6.8-2.8,17.3,1.5,25.7c0,0,2.6,6.5,5.3-5.3c2.5-11.8,1-26,0.6-37.6c-4.8,1.9-2.4,0.4-5,2.9c-0.6,0.6-1.7,2.8-2.4,3.5
	c-0.8-9.7-2.1-44.8,0.8-51l1.1,9.1c-0.6,10.6-1,24.8,1.2,34.3c9.5-4.7,4.4,4.7,5.3-10.8l35.7,3c-3.5-7.6,3.9-4.7-16.5-7.2
	c-7.9-1-13-1.5-18-4.7c-1.9-8.6-5-23.2-3.6-28.4c8.2-3.9,27.5-2.9,38.9-1.5l14.7,9.7L997,489c-4.4-7.3,2.1-13.8-2.5-25
	c-5.8,6.4-2.5,15.8-2.6,24.2c-0.1,9.4-0.4,15.2,0,24.8c2.6-1.7,2.9-1.9,5.3-3.9l-3.3,21.4c-0.3,0.1-1,0.4-1.2,0.6l-1.4,0.7
	c-0.4,10.1-1.2,22.8,1.8,31.1c3.5-3,1.8-0.4,4-5.5l0.4,9c-0.8,0.3-1.8,0.7-2.2,1c-2.2,1.4-1.1,0.6-4.1,2.9c1.9,28.6-1,60.2-0.1,87.6
	c3.9-3.6,6.4-1.1,5.5-20.2c3.5,11.1-3.3,5.7,7.2,7.2c-2.5-6.1,0.1-11.3,4.1-15.1l-5.5-14.1c5.1-17.4-3.7-74.1,0.6-85.9
	c1.9-5.3,0.3-1.2,3.6-4.7c1.5,5.1,3,11.2,6.8,14.5c1.1-1.8,2.5-0.6,1.4-8.9l-2.8-9.1l-8.4-0.3l-1.4-61c5.5-2.8,3.5-4.6,13-5.1
	c30.7-1.8,26.7,4.7,26.4,34.3c0,6.4-0.1,13,0,19.2c0.1,8.2,1.5,13-3.9,18.1c-1.7-6.6,0-5.9-5.1-10.1c-4.1,5.8-0.1,15.4,1.5,22.7
	c9,0,3.6,0.1,6.6,1.9c2.1,29.9-2.2,80.2,2.4,106.6c8.7,1.9,4.6,8.4,4.6,16.5c-0.1,12.4,3.9,3.9-1.5,15.4c5.5,4.7,5.8,4.1,8.3,11.9
	l-8.6,1.5c-2.9-5.8-3.9-11.5-9.3-15.2c1.1-15.2-0.3-11.2-2.1-14.1c-5.4,9.8,2.4,8.7-0.3,17.4c-1.8,6.2-9.1,3.6-17,4.1
	c-5.5,7.2,0.1,3-5.8,5.7c-3.2-5.8-9.1-7.7-9.1-15.2c0-5.7,0.3-20.7-0.4-22.8c-7.6,3.5-0.8-0.3-4,7.2c-3.7,8.9,0.4,0.8-6.8,5.9
	c-0.3,7.5,0,15.9-8.3,19.2l-21.2,0.8l-2.4,4.7c-2.5,2.6,0.7,1.8-5.4,2.1l0.6-6.6c-8.9-5-15.5-9.5-10.1-22.3
	c14.7-7.1,9.4,5.4,11.5,10.8l1.9-8.3c5.1-0.8,8.2-0.8,11.8-4.1c-1.4-15.4-14.7-6.6-25.7-5.7c-3.6-18.3,1-53.8-0.6-77
	c-1.9-3.7-6.8-5.1-10.8-6.6c-1.1,16.5,5.8,78.6-5.1,83.7c-5.7,2.6-11.1,1.7-15.6-0.3c-11.5-4.7-10.5,0.1-23.2,0.6
	c-3.9-12.6-1.8-27.2-0.7-41.5c-6.9,0.7-7.5-1.7-7.7,5.5l-0.8-30.3c1.4-12.2,1-5-5.1-8.6c0.3,20.7,0.1,40.4-0.1,61
	c-0.3,26.6-21.4,7.9-40.7,11.2l-0.3-109.3c0.3-0.1-3-3.6-3.3-3.9c9-18.7-3.2-68.7,5.3-86.4l32.8-3.9c0.3-0.4,1.4-2.2,1.7-2.8
	c3.7,5.8,5.1,9.1,14.4,9.5c-1.5-4.6-0.6-4.4-4.1-8.7C876.2,445.2,872.8,447.7,876.6,441.1z M826.6,441.7l-0.1,15.1
	c-1-1.8-4-6.8-5.3-9.4C817.7,439.9,819,441.1,826.6,441.7z M800,445.4c5.7-0.1,7.3-0.4,13.1,0.3c-3.7,3.7-19.9,4.6-26,1.5L800,445.4
	z M717.3,606.7c4.8-14.4,1.8-5.9-0.1-17.4c-0.8-4.8,0-13.8,0.1-19.1c0.1-13.3-0.4-27.1-0.1-40.4c1.8-89.1-5.4-73.3,23.5-76.1
	c7.1-0.7,8.9-1.7,16-2.2c-3-3.7,1.4-0.6-4.7-4.6c0,0-2.8-0.7-2.9-1.1l6.8-0.1c1.1,3.3,1.5,5.8,2.5,8.6l11.3,1.4
	c-1.8-7.5-3.5-6.2-3.5-14.1l9.7-0.6c-2.4,8.7-4.1,5.7-2.8,16c11.6,0.8,7.9-4.4,23-4c10,0.3,17.8-1.9,25.4,1.2c2.5,6.6,1.8,1.5,0,8.3
	l2.4,1.4c5.4,4.4,3,1.9,3.5,6.2l-3.7-0.1c0-0.1-0.4,0-0.7,0c-2.5,4.7-1.8,4.8-1.9,11.6c-0.1,3.9-0.3,7.7-0.1,11.6
	c0,7.7-0.6,15.5-0.3,23.1l0.6,142.3c-22-9.7-22.4-1.1-43.2-3c-2.4-14.2-0.6-54.9,0.7-72.3l-0.8-16.2c-1.4-4.4,0.1-0.4-2.8-3.3
	c-5.4,7.7,0.3,4.6-2.8,15.1l-1.8-27.9c0-1.4,1-2.9,1.5-4.8c0.6,4.3-0.1,6.5,0.1,8.7c1.2,9.7,0.4,3.3,2.9,6.5
	c3.9-5.5,2.2-2.1,2.6-10.5c0.3-5.3-0.6-6.2,2.9-7.9l1.9-0.6c2.4-1.5,0.4,1,2.4-3c-4.3-5.9-5.5-1.7-6.5-4.8c-0.1-0.6-0.7-0.6-1.1-0.8
	c-0.1-18.5,4.3-54.5,0.3-71.1l-1.4-0.7l-9-3.5c-3.3,31.9,2.5,185.5-3,198.6c-1.4,0.8,3.5,3-6.1,1.8c-6.6-0.8-4.3-6.6-19.5-5
	c-8.2,0.8-23,13.7-22.4-2.9c0.3-12,14.5-9.4,1.7-25C725.7,615.2,722,615.4,717.3,606.7z M932.4,454.9c0.8-11.5-4.4-13.8,4-22.3
	l10.5,15.2C931.5,452.7,941.8,451.9,932.4,454.9z M1146.9,433.6l3.2-1.4c1.4-0.3,3.5-2.1,8.6,1.4c-2.1,1.8,4.4,1.8-5.1,2.2
	C1140.7,436.4,1150.8,436.1,1146.9,433.6z M707.9,426c0.3,0.4,0.7,1,0.8,1.2c0.1,0.3,0.6,1,0.7,1.2l2.8,4.8
	c5.9,6.9,15.1,10.2,19.8,12.7l-20.9,4.3c9.8-2.1,6.6-1,8.9-8c-6.4,0.3-11.8,2.6-17.8,1.5c-7.1-1.2-8.6-4.7-9.7-8.3
	c8.3-5.1,8.7,1.2,15.5-6.2V426z M697.4,411.2l7.9,0.3l-1.2,8.7C696.7,419.9,696.3,420.1,697.4,411.2z M699.6,402.9
	c11.2-6.1,12.4,4.6,15.1-2.6l-1,3.9C707.9,404.6,703.3,405.7,699.6,402.9z M1147.2,428c3-15.6,3.3-13.3-1.7-27.2l10.6,0.3l-1-5.4
	l7.9-2.1C1152.2,418.6,1164,425.5,1147.2,428z M697.7,393l3.9,1.2L697.7,393z M1146.1,383.7c5.9-8.4,24.3-7.6,28.2,2.5l-9.7,2.5
	l-7.5-5.9L1146.1,383.7z M687.4,387.2c2.5-6.2,7.3-7.3,14.7-7.2c11.6,0.3,12.4-0.8,17.3,5.7c-4.3,1.4-4.3,0.8-7.6-1.8
	c-1.8,3.3,3.3,1.4-4.8,4.3C701.5,390.1,692,388.8,687.4,387.2z M1150.4,372.9c0.7,0,7.5-9.3,12.9-0.1L1150.4,372.9z M716.1,374.2
	c-7.6,3.9-2.1,1.2-6.1,1.5c-14,0.8-14.7,0-16.6-4.4C701,368.8,711.5,367,716.1,374.2z M1166.5,365.9l-18.1-0.7
	c5.3-10.4-3.6-6.9-2.8-13c4.1,5.3-0.7,3.6,9.5,4.1c7.6,0.4,7.3,0.1,12.2-3.3c-0.3-0.4-0.8-0.8-1.1-1.1c-0.1-0.1-0.7-0.7-1.1-1
	c-13.4-11.2-2.6-7.1-12.4-13.1l-3,6.8l-5.5-1.2l0.3-7.6l14.7-7.5c10.9,1.1,15.1,5.9,14.5,17c-5.9,5.4-1.4,0.8-5.3,6.2l-4.8,5.9
	C1165.2,365.3,1163.1,360.5,1166.5,365.9z M687.3,349.1c-0.8-14.7,4.7-18,14.8-23.2c8.2-1,11.1,7.2,12.2,9.8
	c-2.5,4.3-3.9,7.1-6.5,13.4l3.9,4.6c-6.5-1.9-5.4-1.9-9.5-6.2c-3.7,5.1-1.1,3.7-4.3,8.4C691.6,355.3,691,353.3,687.3,349.1z
	 M142.2,360.6c-1.5-6.1-5.1-14.5-5.3-21v-66.7l8.7,0.8l1.4,106.5l5.1,5.4l-5,12l5.7,3.3l-1,8.6c-1.5-3.6-1.1-2.1-5.5-3.7l0.4,22.1
	l4.8,1.9c-2.2,5.3-4.1,5.4-6.4,7.6c2.5,1.5,5.4,5.1,7.1,8.2l-10.8,3.5c9.5,5.1,10.2-2.5,14.5,5.7c-3.9,3.2,1.1,1.8-6.6,0.3l-4.7,8.9
	c-7.6,1.8-14.5,6.6-14.9-7.2c-0.6-14.1,7.5-13.7,8.9-19.2C135.8,416.2,131.6,380,142.2,360.6z M125.1,203.1
	c-0.7-28.1,30.8-22.8,35.4-7.2c3.9,13.1-6.4,16.6-15.9,17.7C134.2,214.8,129.3,208.7,125.1,203.1z"/>
<path class="st0" d="M473.3,289.5c7.7-9,5.1,0.6,18.9-0.6l0.1-11.5c3.9,6.2,1.5,5,3.2,10.9c2.9,10.4,11.6,10.9,5.5,30.6l-11.2,0.4
	c-4-5-7.6-17.3-9.5-25C473,292.7,476.9,293.8,473.3,289.5z M462.1,293l-8.4-4.7l0.1-31.7l24.2-0.4c14.1,2.4,8.3,22.5,8,23
	c-2.8,6.2-7.1,0.4-15.5,7.5C467.1,289.5,467.8,290.2,462.1,293z M548.8,253.8c3.3,2.1,4.8,4.1,6.2,7.6
	C550.1,261.2,549.1,259.6,548.8,253.8z M560.5,258.8l4.8-1.5C561.6,260.9,565,262.3,560.5,258.8z M494.8,254.9
	c-3.2,1.5-1.4,3.3-6.4,0c7.5-4.7,2.8-5.3,8.3-6.5C499.5,253.3,494.8,254.9,494.8,254.9z M304.7,246.2c3.5,4.3,3.2,2.1,0,6.5
	C300.2,250.1,299.1,248.4,304.7,246.2z M256.5,247.2c0.4-0.3,1.2-4.4,6.9-1c4,2.5,2.6,4.8,2.5,8.7
	C258.5,255.5,252.4,254.4,256.5,247.2z M449.3,249.3c0.1-2.2,2.4-1.9,1.8-0.3C450.6,250.5,449.1,251.6,449.3,249.3z M401.4,249.3
	c0-2.8,2.2-2.4,1.8-0.4C402.6,251.2,401.3,251.1,401.4,249.3z M343.2,245.4l7.7-2.1c2.8,4.1,5.7,5.5,1.8,11.2
	c-4-1.5-1.8-1.2-5.8-5.4c-0.3-0.3-0.8-0.6-1.1-0.8L343.2,245.4z M568.9,246.4c-6.5,0.8-14.7,2.8-19.6-1c2.4-2.1-1.5-5.1,10.9-4.1
	C567.4,241.8,567.1,241.4,568.9,246.4z M551.6,218.6l12.3,4l-1,11.1l-12.3-0.8L551.6,218.6z M537.1,243l-28.6,1.1
	c-3.2,3.9-1.1,0-3.3,6.5c-1.9-6.9-0.8-3.3-5-8.7c-34.3,3.6-48.4-2.4-51.2-2.2c-3.3,0.3-5.5,2.6-25.2,3.7c-15.8,0.8-13.7-3.2-25-6.6
	c-0.4,0-21.7,11.9-38.6,4.8c-4.3-1.8-4.7-4.8-7.5-8.3c-4.7,1.8-8.2,1-14.8,1.1l-2.5,9.5l-24.9-0.4c-3.7-2.5-5.7-4.1-11.6-6.4
	c-11.1,4.3-5.8,6.9-17.4,8.2l4.3,6.5l-11.5,1.1l1.2-7.6c-10.2-2.9-10.2-10.8-21.9-5c-15.1,7.5-8.7,4-23.8-0.3c-3.2,2.6-5,2.9-4.7,8
	c5.8,2.9,15.5,1.9,22,1c4.3,8,7.6,8,14.1,13.6l0.3,26.1c5.1-4.8,3.9,7.7,3.5-18.5c-0.1-7.3,1.1-10.5,3.5-14.7
	c37.6-2.8,18.5,5.9,24.6,33.9c0.8,3.3,0.8,2.4,2.1,4.3c4.6-2.5,3.5,2.6,4-5.7l-0.8-10c-0.7-21,0.4-15.1,3.2-18.1l-0.6,29.6
	c0.1,3-1,1,0.8,4.8c1.1,2.5,1.4,1.5,2.9,2.9c6.2-10.2-9.3-34.9,6.1-41.6c4.7-2.1,22.5-2.5,26.6,1.2c6.1,5.5-1,30.6,2.2,40.2
	c2.5,7.7-0.6,1.4,4.3,4.4c2.5-7.3,1.9-16.3,1.2-25.6c-1.1-17.8-1.2-15.1,11.5-15.2c2.6-7.6,20.3-6.4,27.7-4.6c3.7,1,6.6,2.9,7.2,6.5
	c0.7,4.3,0.1-0.6,0.6,3.6l0.1,29.2c-9-2.2-19.1-3.2-20.5,9.3l7.7-4.1l22.4,20.7c5.1,3.9-1.2,0.3,5.8,3c-3-9.3-11.8-12.3-15.1-20.2
	c6.9-0.7,11.1,0.3,17.3-0.1c8.6-0.7,9.7-1.5,9.4-8.3c-6.8,1.8,0.3,0.6-4.6,2.1c-0.4,0-1,0.4-1.2,0.4c-5.9,1.2-4.7-0.3-5.7-0.7
	c-4.4-10.9,2.4-27.7-5.7-37.2l-0.4,37.9c-9.5-2.9-4.6-28.1-3.9-37.2c10.6-7.6,25.4-5.9,42.6-5.8l-0.3,29.5c-3.2,2.9-2.6,2.2-5.4,4.1
	l-5,4.4c8.4,5.4,7.5-1.1,15.1-5.3c10.1,6.9,0.3,15.1,17.7,21.6c-3.9-9.3-4-4.1-6.9-12.7c19.9-0.3,17.3,2.6,22.7,19.5
	c-4.1,2.6-6.2,1.9-10.4,6.1c-11.9-3.6-36.1-5.4-42.3,9.5c12.9,0,33.9-3.3,48.1-4.4c18.9-1.5,35,1.1,52.6,1.2
	c-3.9-12.7-9.4-3.9-15.9-10.5l-0.8-8c0.6-4.3,1.1-6.8,1.5-11.2c-0.4-0.4-1-1.4-1.1-1.1c0,0.1-2.1-6.4-9.5-10.4
	c-0.6-10.5-3.6-24.5,1.4-31.4c5.3-1.2,37.5,0,41.2,2.4c3.5,7.1,1.2,19.6,1.4,28.9l-13-2.8l-9.4,13.1c8.2-2.4,2.9-3.2,9.3-6.4
	c11.3-1.7,7.5,1.8,18.5,4.1l1.7-27.4l11.5-1.5l-1.1,24.6l-10.1-0.8c-0.1,9.1,1.8,6.5-3,12.3c-2.9,3.6-4,5.3-6.9,8.7
	c-5.4,6.5-7.5,12.9-15.2,15.6c2.5,13.3,1.4,4.4-1,14.7c7.3,6.2,17.3,16.7,23.4,27.9c19.2,34.3-4.7,43.8,26,42.6
	c-2.1-17.4-12.3-27.2-14.8-38.6l28.2,2.9c-8.7-14.5-26.7-0.6-34.3-10.4c12.3-6.2,25.7,7.2,37.8,0c-5.1-4.1-6.6-3.6-15.5-5
	c15.2,0.7,21.6,1,32.4,12.7c-3.6,6.1-8.2,8.9-5.7,18.3c5.8-6.6,11.1-13.6,11.1-22.7c-7.2-4.7-7.1-3.2-13.6-11.2
	c-3.7-4.7-9.8-7.7-15.5-9.8c-1.7,4.4-1.2,5.5-6.2,7.5c-5.3,1.9-5.4,1.1-9.1,4.4c-7.6-6.6-10.6-3.9-20.2-2.9
	c-9.8-12.9-20.9-25.2-11.8-34.9c7.1-7.6,6.2,0.7,13.6-5.4c4.6-4,0.3-2.8,6.9-6.4c-0.8-3.2-1.2-3.2-1.8-4.4c-1-1.9-0.7-0.3-1.7-3
	c2.6-2.2,2.9-2.4,5.3-3.7c4.3,7.5,5.1,10.8,2.8,18.5c4.4,3.5,1.8,0.1,5.5,3.3l12.4,15.9c-6.1,4.1-2.8-0.1-6.1,5.7
	c3.7,4.4,0.8,5,7.9,3.7c14.2-2.6,8.6-10.4,0.7-17.4c-5.9-5.5-7.5-7.7-13.8-10.9c0-6.1-1.2-8.3-1.2-11.2l0.8-40.9
	c8.4-13.8,8.4-7.7,6.6-27.4c-3.5-2.2-5-2.9-7.5-5.1c-0.1-12.2,0.4-19.5-2.1-31.3c-9.4,2.8-11.3,6.9-17.6,9.7
	c-5.7-8.3-1.1-10.2-12.9-8.6C537.2,217.4,558.2,226,537.1,243z"/>
<path class="st0" d="M454,531.4c1.2-4,1.2-8.2,2.1-10.8c0.8-2.2,3.5-5.3,4.8-7.6c12-21.3,8,3.9,10.5-14c-5.8-2.2-3.6-1.8-7.1,0.1
	c-6.9,4-12.2,12.9-13.4,21.6l-7.7,1.2c-1.9,14.9-7.9,31.4-10.5,47l-2.6,20.5c-2.1,9.7-4.4,15.5,7.9,21.4l4.1-11.1
	c1.5,9.8,0.1,4.8,4.7,6.5c5.3-10.4,9.3-41.8,15.4-57.7c14.9-39.6,22.1-40.8,24.2-45.8c-7.6-5-4.3-1-15.2,14.7
	c-5.4,7.7-28.5,64.9-26.8,74.4c-1.2-9.7,2.8-34,5-44.7c2.8-14,5-5.9-1.5-14.8c-2.5,6.4-3.5,7.3-4.3,15.4l3.9-19.5
	c0.4,0.3,2.8,1.8,2.9,1.9c0.3,0.1,1,0.4,1.2,0.6L454,531.4z"/>
<path class="st0" d="M880.6,545.7l-1-37.1c1.1-16-1.1-11.9-2.8-14c-3.3,5-4,36.1-4,40.9c0.1,8.4,1.9,11.9,1.5,21
	c-0.4,7.9-0.7,16.2-0.6,24.2c0.7-0.3,1.7-1.5,1.9-1s1.4-0.7,1.8-0.8c2.5-1.2,1.1-1.1,2.4-1.4c6.6-1.5-8.2-2.4,3.3,0.4
	c0.6,0.1,3.2,1.2,3.7,1.4c-0.7-11.3,1.4-8.3-6.1-11.2l1.4-3.6c3.5-3,2.6-0.6,5.1-7.5c1.7,4.4,0.4,2.2,5,4.1
	c4.6-42.5-10.4-13.8-3.3-75.5c11.1-1.4,26.6,5.9,35.5-0.3c-4.4-7.3-25.4-5.7-34.3-5.3c-1-4.7-1.2-5.5-1.5-10.2
	c-0.6-6.4,0.1-5.4-1.5-10c-8.7,8.9-4.6,31-5.3,42.9C881.5,513.7,882.7,537.4,880.6,545.7z"/>
<path class="st0" d="M211.9,467.2c0.6-3.6,4.6-1.7,1.2-0.1C210.5,468.3,211.8,467.9,211.9,467.2z M219.4,461.2
	c-0.3-5,1.9-10.2,7.9-12C226.2,455.6,226.3,461.6,219.4,461.2z M213.4,392.6c11.9,2.6,9.3,6.2,13.6,15.1c12.7,26.1,8,14.4-3.3,35.1
	c-9.4,0,2.4,0-9.3-1.4c1.2,4.1,0.6,3.2,3.3,5.8c-9.4,5.5-1.1,0.4-7.1,9.4c-3,4.6-5.1,2.1-8,9.8c3.9,3.3,3.7,3,8,5.5
	c6.5,3.9,2.1,3.5,9.5,6.9c0.8-1.4,7.2,1.1-0.3-8.7c5.9-3.7,12.2-12.3,15.1-19.8l12-22.4c-9.1-8.7-4.4,0.7-9.5-13.4
	c-5.7-15.9-8.3-2.8-14.8-30.7c-3.3-14.1-1.4-10.5-7.5-14.8l-6.4-18c-6.1-6.8,2.2-1.7-6.5-5.9C204.7,364.6,212.3,373.3,213.4,392.6z"
	/>
<path class="st0" d="M162.1,245c2.2,7.2,2.5,2.6,0.8,8.4l-12.6,0.4c-3,10.2-1.9,6.1,4.8,11.1c2.9,2.2-0.3,1.1,3.6,2.5l7.5-11.2h28.4
	c-4.1-4.4-0.4-1.8-6.2-4.7c0,0-3.3-1.1-4.1-1.5h9.1c2.5,6.2,4.8,8.7,13.1,9.5l-1.2,10.6c-1.5-5,1-2.5-2.5-7.3l0.1,26.7l-11.8,4.4
	c3.3,4.8,3.5,3.6,2.4,11.2l16.6-3.3c0.7-6.8,7.3-10.1,2.6-14.4c-1.9-1.8-4.7,1.5-5.4,2.1c1.5-8.7-4.7-2.8,5.9-7.2l-0.8-21.6
	c4.3-4.6-0.7-1,3.7-3.6c4.1-2.5-0.1-1.1,5.4-1.1c4.8,0.1-1.9,2.5,4.4,0.7c5.9-1.7,1.4,1.1,5-4.8c-12.4-4.1-16.2,3.3-24.8-2.6
	c1.8-4.6-3-2.6,4.1-4.6c0.4-0.1,6.2,0.1,7.2,0.1c-2.5-5.3-4.8-6.5-12.7-7.7C194.4,239.2,211.1,246.8,162.1,245z"/>
<path class="st0" d="M539.7,185.6c0.4,0.7,0.8,1.5,1.2,2.4c-2.1,0-3.5-0.3-4.6-0.6c-0.6,3.2-1.4,6.1-2.8,8.9
	c2.4,0.3,4.8,0.6,7.7,0.8c9.5-8.6,4.4-6.8,22.1-6.5c5.1,9.1,0.4,11.8,12.6,12c0-8.7-3.2-13.3-6.8-18.4c-6.6-0.1-13.3-2.2-19.1-6.1
	C547.3,181.2,543.7,183.8,539.7,185.6z"/>
<path class="st0" d="M184.5,631.8l4,7.9L184.5,631.8z M182,591.6c-10.5,44-2.4,24.8-3.2,33.6c-0.7,8.7-9.7,18.3-7.2,27.7
	c5.3-5.5,2.5-5.8,8.3-11.9c10,2.9,10,8.3,25.4,8.2c-2.1-9.5-15.6-13.6-19.5-23.2c-2.1-5.3,13.7-62,14.8-73
	c-11.6-6.8-7.9-2.2-17.4-0.4c-6.9,1.2-10.4-4-18.9,0.4c2.4,4.1,1.5,5,9.7,4c7.3-0.8,2.2-2.2,11.6-2.4
	C187.6,562.7,184.4,581.8,182,591.6z"/>
<path class="st0" d="M256.2,329.2c3.3,3.3-1.1,1.9,4.4,3.3h16.6c3,0.6,3.3,1.8,10.2,2.2c11.8,0.7,41.4-4.3,49.4,7.2l8,26.8
	c1,4,0.3,5.4,1.4,10c1.7,5.7,5,10.9,7.5,15.6c3.3,6.8,2.4,10,8.3,14c0.4-18-13.6-62.4-23.2-72.1c-14-14-14.1-10.1-37.9-10.9
	C287.7,324.9,266.4,326.2,256.2,329.2z"/>
<path class="st0" d="M617.4,415.1c-1.8-4.3-3.9-3.6-9-4.6l3,9.4c-4.1,4.6-5.5,11.8-5.4,18.8c-8.9-1.5-18.5-3.7-25.6,1.5l-8.6,7.2
	c-1,1.4-2.9,7.1-4,8.9c-2.1,0-8.2-0.3-9.8,0c-9.3,1.1-2.9,0.4-5.5,2.4c6.5,4.8,20.2,2.6,29.2,2.6c-0.8-9.1,0.1-4-3.5-9.8l3.6-5.3
	c9.3-6.4,86.2,12.7,97.5,6.6c-2.6-5.8,3.2-2.1-5-4.7l-58.1-7.3c-0.3-0.6-0.8-0.4-1.4-0.6l0.1-8C614.8,417.2,621.9,425.3,617.4,415.1
	z"/>
<path class="st0" d="M355.2,457.6c-1-9.7-3.6-10.9-5.7-18.9c-3.2-12.3,1.4-7.6,1-18c-14.9-1.1-35.1,1.7-49.5,3.5
	c-25.3,2.9-29.9,1.2-49.4,4.4c0.8,10.5-4.6,17.2-1.2,32.9l3.7-28.9c5.3-0.4,32.2,1.8,39.8,2.8c-0.3,2.6-0.8,5.4-0.7,8.2
	c0.4,8.7,0.7,3.5,1.9,5.3c3.7-8.7-3-6.2,4.3-18.9l18.1,2.6l7.1,15.9c1.9,2.9,1.2,1.2,3.2,2.9c4.1-9.5-16.7-22,11.6-20.9
	C343.4,438.3,346.4,452.3,355.2,457.6z"/>
<path class="st0" d="M381.9,362.4l2.8-3C384.1,363.8,387.2,361.3,381.9,362.4z M355.8,318.4c7.6,6.6,2.9,2.2,14.5,5.5
	c7.1,1.9,9.5,2.6,14,7.9c-6.2,9.7-10.9,0.7-12.9,12.9l-8.9-0.3c2.5,11.9,5,1.1,12.7,14.9c6.5,11.6-2.2,13.6,2.5,22.4
	c0.1-0.4,0.4-1.5,0.4-1.2c1,2.9,1-2.1,1.1-2.5l2.2-4c6.2,6.1,12.4,18.3,12.6,21.3c-3.2,10.1-2.8,4.3,0.7,13.6
	c2.5,7.1,1.5,9.1,5.9,15.5c0.4-0.3,1-1.2,1.1-1c0.1,0.3,1-0.8,1.1-1.1c5.4-9.8-9-31.1-14.4-45.6c-3.2-9,0.6-11.3,0.8-19.8
	c-8.4-5.9-5-0.8-11.5-5.8c3.9-3.7,1-1.4,5.8-3.7l6.2-4.6l-12,0.7c5.1-7.6,10.2-4.8,16.6-11.6c-5-9.8-6.5-8.9-18.7-11.6
	C367.7,318.4,358.2,304.4,355.8,318.4z"/>
<path class="st0" d="M638.3,628.2c-0.3-15.9,4-28.6,5.3-44.7c1.4-18.5,12.9-16.9,10.8-36.8c-12,4.1-0.6,7.3-13.6,15.5
	c-0.7,14.5-3.6,27.1-5.4,40.5c-2.6,19.4,1.4,18-5.7,40.2l4.7,3.3c6.2-9.5-5.8,7.2,1.5-2.4c1.2-1.7,2.1-1.7,3.6-3.9
	c3-4,3.3-15.1,11.3-31c11.1-22.1-1.2-25.7,18.3-39.4l-0.6-18.3l-5.8,0.6c-0.6,4.4-0.4,8.4-0.8,12.7c-1.2,12.2-5.7,6.4-9.1,26.4
	l-11.5,33.3C639.7,627.5,640.1,626.3,638.3,628.2z"/>
<path class="st0" d="M168.9,311.1c6.6,8.3,32.8,18.9,43.7,23.8l4.7-3.7c-0.1,1.7-0.7,2.1-0.8,2.5c-1.9,5.5-0.7-4.3-2.1,7.7
	c4.7,0.1,3.3,0.4,7.7,2.9c7.2-3.2,10.6-3.9,14.9-7.9c3.6,1.4,8.7,3.9,12,5c5.4-13.6-7.6-8.2-19.9-10.6c-6.1-1.4-11.1-4.7-17.4-5.8
	c-29-5-6.8-0.8-31.5-10.9c2.4-5.1,1.2-1,3.3-6.8C176.8,306.2,173.7,308.6,168.9,311.1z"/>
<path class="st0" d="M335.8,476.1c-28.8,2.8-18.5-4.8-31.1-5.9c-1,6.5-2.1,3.3,1.9,7.5c2.9,3.2,0.4,0,3.7,2.2l2.4,1.9
	c-3.5,4.4-8.3,9.1-11.3,14l-9.8,15.4l-10.4,40.2c5.8-2.8,4.4,0,5.7-8.3c4.7-31.3,4.8-14.8,10-28.8c9.8-27,10.2-15.8,19.4-32.4
	c3.9-0.1,18.3,0.7,22.1,1.2c15.4,2.5,14.7,1.5,16.7-4.6C348.7,472.5,352.9,474.4,335.8,476.1z"/>
<path class="st0" d="M247.2,473.9c-4-8-1.4-7.5-10.5-6.9c0.6,6.6,1.7,7.9,4,13.1l8.4-0.8l5.7,7.5c6.9-3.6,3-5.5,8-5.7l-0.7,9.8
	l8-5.7l10.4,4.4c6.2-16.9,13.1-3,18-13.7c-6.4-4.6-2.8,0.3-12-0.8c-4.6-0.7-8.3-2.6-12.3-2.8L247.2,473.9z"/>
<path class="st0" d="M347.7,302.2c-4.3,0.4-12.3,1.5-15.9,0.7c-7.1-1.4-1.9-3.9-11.2-5c-1.4,3.3-2.5,7.5-2.1,12.7
	c0.8,11.3,4.1,10.8,5.7,11.9c6.5-16.6-5.3-12.6,14.9-14.9c6.9-0.7,6.6-1.5,14.1-1.2c-7.6,23.2-15.8,14.5-12,24.2
	c0.4-0.3,1.2-1.2,1.4-0.8c1.8,3.3,0.6-0.8,5.7-6.2c6.1-6.2,14.2-16.9,13.4-25.9c-3.7-0.7-5.5,0-7.5-1.7l-4.1-24.2
	C347.9,285.2,351.6,290.6,347.7,302.2z"/>
<path class="st0" d="M435.3,401c-4.7,1.4-27,23.4-28.4,31c-1.4,7.3-7.2,15.4-14.1,21c9.7,3.2,9.8-2.8,22.4-18.4l21.2-24.2
	c-0.1-0.3-0.4-1.1-0.6-1.4c0-0.3-0.3-0.8-0.3-1.1c-0.3-1.4-0.3-2.2,0-4.8c3.5,4.7,0.3,1.7,3.9,3.7l-2.5-15.5
	C435.8,392.1,427.7,388.3,435.3,401z"/>
<path class="st0" d="M504.6,608.5c2.5-1,4.7,4.7,5.1-11.3c1.1-45.4,22.5-80.4,23.1-86.2c-14.8,2.9-16.3,27.9-17,30.2
	C511.5,557.3,501.8,591.2,504.6,608.5z"/>
<path class="st0" d="M1062.4,612.3c0.4,0.3,1,0.1,1.1,0.6l6.2-1.4c0.6,6.4,1.2,11.5,5.1,16.6l-1.9-77.2c-1.2,1.4-3.5-1.4-4.4,13.3
	C1066.4,599.3,1066.4,583,1062.4,612.3z"/>
<path class="st0" d="M1013,756.4c15.9-4.8,8.4-24.5,5.4-41.6c0-0.3-1.4-7.9-1.5-8c-3.2-7.5,0.8-2.6-5.7-4
	C1004.3,714.1,1015.1,731,1013,756.4z"/>
<path class="st0" d="M467.7,353.1c29.6-5,14.2,3.5,33.6,6.9l4.7,12c-3.7,5.8,0,1.8-5.1,5.9l5,7.1c2.4-3.6,0.6-2.5,3.9-3.3
	c3.6-33.2,4.7-30-6.4-33.1c2.4,11.9,2.5,3.2,4.3,11.2c-10.5-11.9-30.7-16.9-36.4-13.6C467,349,468.5,348.4,467.7,353.1z"/>
<path class="st0" d="M1036.2,755.5c0.3-0.4,0.7-1.7,0.7-1.4l1.8-30c5,15.4,2.4,28.8,9.5,34.6c0.6-10.2-1.5-16.5-3-26.4
	c-1.9-13.3-0.4-20.1-5.1-26.8c-6.8,3.7-6.6,3.2-6.9,22.3l0.3,21.3C1035.4,759.8,1034.3,752.4,1036.2,755.5z"/>
<path class="st0" d="M533.2,416.2l-3.6-4.4c-8,1.2-12.7,1-17.6,5.1c-6.5-4.4-7.5-2.4-15.1,1.4c1.1,4-0.8,1.4,5.1,4.8
	c6.4,3.9,30-3.6,50.8-1c-5.7-9.3,3.3-3.3-13.6-4.3c1.8-4.1-2.5-0.1,4.7-4c0.4-0.1,1.1-0.4,1.4-0.6s0.8-0.6,1.2-0.7
	C538.9,408,538.5,410.5,533.2,416.2z"/>
<path class="st0" d="M797.7,583.6c2.2-15.2,10.2-33.2-1.4-46.6c-2.9,3.3-3.5,1.5-0.6,12.2c7.6,27.2-6.2,15.1-3.2,38.3
	c1.2,9.5,4.3,45.6,7.3,51.9C802.4,620.8,795.7,597.4,797.7,583.6z"/>
<path class="st0" d="M421.7,522.6c1.1-11.8,11.2-18.7,13.7-29.6c-10.6,3.3-23.4,23.2-15.4,34.3c0.3,0.3,0.7,0.8,1,1.2l3.7,3.7
	c5.9-9.4,18.8-21.7,20.6-33.2C431.1,502.6,432.7,516.3,421.7,522.6z"/>
<path class="st0" d="M851.9,624.1c1.2-1.8,1.4-0.3,1.9-4c0.1-0.8,0.1-4.6,0.1-5.7c0.6-14.4,1.4-73.9-7.7-78.3
	c-3.2,5.1,1.8,31.8,3.2,40.2C851.6,589.6,847,614.5,851.9,624.1z"/>
<path class="st0" d="M310.5,373.7c31.7-1.9,6.2,24.6,24.3,21.2c1-18.1-3.2-35.7-24.3-31.4l-3.7-3c-4-2.2,0.1-1-5.4-1.7L310.5,373.7z
	"/>
<path class="st0" d="M418.4,364.5l-2.5,1.9c-4.4,2.5-10.5,4.3-14.5,12.4c7.1-4.8,3.7-0.1,13.4-7.9c0.4-0.3,0.8-0.7,1.1-1l4.6-2.8
	c1.5,8.2,2.4,5.3,1.1,14.5c3,1.9,8.3,4.6,12,6.8c-1.2-10.6-6.8-19.2-11.8-27.8c-9.7-16.5,1.7-24.8-12.9-24.5
	C406.5,346.8,413.2,346.8,418.4,364.5z"/>
<path class="st0" d="M271.3,392.6l14,13.7c26-1.5,22-27.2,7.2-40.8c-6.9-6.5-9.3-6.5-20.5-5.3c7.3,16,22.3-1.5,28.5,24.2
	C307.4,413.2,272.8,393.1,271.3,392.6z"/>
<path class="st0" d="M909.6,635.1l3.6-14l4,7.7c4.7-3,2.5,1,3.6-6.9c-3-4-0.4-2.2-6.1-3.3c-0.7-18.3,8-28.2,6.2-44.7
	c-7.5,5-4.6,14-9.3,31.1l-6.5,23.1C904.6,639.3,906.2,634.2,909.6,635.1z"/>
<path class="st0" d="M1014.1,642.3c3.5-9.1,4.3-5.5,4.7-18.4c0.3-9.8,2.8-14,3.3-21.3l-2.9-32.8c-2.6-8-1.9-5.4-6.1-7.2
	c-2.1,5,5.4,26.8,3.9,38C1015.8,610.5,1013.6,631.8,1014.1,642.3z"/>
<path class="st0" d="M733.9,574.6c-0.1-0.7-0.7-0.7-1-1.1c-1.8,2.2-1.5-0.1-2.2,4.4c-0.1,1.7,0.4,3.5,0.7,4.7
	c0.4,2.5,1.2,5.8,1.7,8.6l5.5,54.1c6.9-8.7,1.5-45.5-0.4-55.3L733.9,574.6z"/>
<path class="st0" d="M465.2,424.9l5.4,29.5c0,0.4,0.8,4.4,0.8,4.4c1.2,3.5,1.4,2.8,2.4,3.9c1.9-5.3,1.4-14.4,0.7-20.6
	c-0.6-3.6-1.5-4.7-1.4-10.1c0.1-7.1,5.9-17.7-21.6-13C453.5,424.9,456.6,423.3,465.2,424.9z"/>
<path class="st0" d="M537.1,377.9C540.3,401.8,514.7,381.6,537.1,377.9z M530.4,372.2c0,0-15.2,19.6,0.8,21.6c7.2,1,18-7.2,0.6-31.7
	c-3.3-4.6-2.5-6.1-9.7-6.5C522.4,366.3,527.1,361.6,530.4,372.2z"/>
<path class="st0" d="M747.7,645.5c7.3-7.5,8.2-23,8.2-33.1c-0.1-7.2,0.8-29.5-4-34.7c-3.6,9.4-0.8,23-1,34.6
	C750.8,623.8,748,634,747.7,645.5z"/>
<path class="st0" d="M965.2,637.6c1.5-1.5,1.7-1,3.6-4.4c0.7-1.2,2.4-5.8,2.6-7.2c1.7-11.1-2.4-5.3,3.7-13.7
	c-2.9-15.8,3.9-35.5-2.2-47.6c-4,9.1-1.2,25.9-2.9,36.9L965.2,637.6z"/>
<path class="st0" d="M219.7,514.4c0.6-1,2.4-5.8,2.5-6.2c1.1-4.4,0.4-1.4,0.3-5.9c-5.3-0.3-8.9-0.3-15.5,3
	c-6.4,3.3-4.6,5.9-4.8,14.1l5.9-3.9c3.3-2.6-0.1-1.5,4.6-2.8c6.2,5,3,3.2,5.3,13.4l7.3,0.8C225.7,519,223.4,520.1,219.7,514.4z"/>
<path class="st0" d="M477.5,471.8c5.9,0.4,17.7-7.5,57.3,3c8.3,2.2,4.1,0.6,6.6-0.8c-7.7-13.4-61-8.4-67.4-3.9
	C476.1,471.7,473.2,471.5,477.5,471.8z"/>
<path class="st0" d="M611.1,624.8c4.1-1.7,10.4-36.8,11.9-45.4c0.3-1.8,1.2-7.3,1.4-8.2c1.1-8.6,0.8-2.8-1-6.6
	C618.1,569.9,609.7,614,611.1,624.8z"/>
<path class="st0" d="M1028.5,654.6c-4.7-5.4-9-6.1-18-2.6c-0.6,8.4,6.2,7.1,14.5,7.3c2.8,0,7.5-0.3,8.7-0.1
	c8.2,1.1,4.8,3.5,11.2-0.7c-1.4-10.6,2.5-3.3-4.7-6.5c-5.3-2.2-4.1,2.6-5.9-3.5l-2.8,2.6C1028.6,654.2,1033.1,651.1,1028.5,654.6z"
	/>
<path class="st0" d="M596.6,562c5.8-2.9,7.5-9,9.4-16.7c2.8-10.8,5.8-15.4,0.1-21.2c-5.4,3.6-2.5-0.4-4.4,9.1
	C597.5,553.5,592.5,555.8,596.6,562z"/>
<path class="st0" d="M558,572.2c5.9-4.7,4.6-4.3,5.7-13.7c1.1-10.2,12.3-32.1,9.8-38.3C564.5,523.9,557.3,564.5,558,572.2z"/>
<path class="st0" d="M170.8,379.3c5.5-0.7,10.1-4.7,15.2-6.6c6.6-2.6,11.1-4.4,13.4-12.2C188.3,361.2,169.9,366,170.8,379.3z"/>
<path class="st0" d="M568.9,620.8c5.7-4.4,9-18.7,11.8-30.2c2.5-10,7.3-23,7.6-31.7C582.9,566.4,569.7,608.9,568.9,620.8z"/>
<path class="st0" d="M1139.8,527.4c-0.3-13.1-9.7-15.5-15.4-22.5l-14.5-1.2c4.8,7.7-1.2,1.7,7.6,6.4
	C1140.5,522.4,1125.2,527.1,1139.8,527.4z"/>
<path class="st0" d="M375.3,525.9c5.4-3.2,4-1.4,6.2-9.7c5.4-21,14.1-14,18-29.7l-8.4-0.7C384.8,505.8,374.7,508.5,375.3,525.9z"/>
<path class="st0" d="M597.2,430.4c-3.2-4.4-8-8.2-14.1-10.1c-18.3-6.2-8-5.7-20.5-7.1c2.1,5.9,0.4,5.4,5.9,8.4
	c2.9,1.5,5.7,1.7,8.2,3C587.3,430.6,579.8,430,597.2,430.4z"/>
<path class="st0" d="M297.3,643.2c1.7-5.3,5.9-42.3,4.7-49.1c-5.7,2.4-5.8,13-6.2,22.1C295.3,624.1,292.3,636.9,297.3,643.2z"/>
<path class="st0" d="M1023.7,634.6c6.2-11.6,8.7-43.3,8.3-60.2c-6.5,9-3.6,14.9-5.4,28.2C1025.3,611.4,1023.4,625.3,1023.7,634.6z"
	/>
<path class="st0" d="M836.1,475.3c4.6,8.4,0.4,3.5,16.5,5.5c8.4,1.1,12.7,2.9,19.5-1C866.3,475.7,843.4,471.8,836.1,475.3z"/>
<path class="st0" d="M669.6,632.4c4.7-4.6,2.5-3.6,3.3-12.3c1-10,7.1-18.8,8-38.9C670.7,586.7,669.4,632.4,669.6,632.4z"/>
<path class="st0" d="M358,522.8c6.9-3.5,23.4-29,27-36.8c-9.8-0.6-2.4-1.8-8.7,7.6c-3.3,4.8-3.3,2.6-7.1,8.4
	C364.2,509.7,360.3,513.2,358,522.8z"/>
<path class="st0" d="M1116.9,613.2c3.2-4.4,1.5,7.1,2.9-10.4c0.6-7.6,5-34.2,1-41.2C1119.8,562.9,1113.3,606.1,1116.9,613.2z"/>
<path class="st0" d="M760.7,464.5c-5.4-4-29.3-6.1-37.6-5.9c2.6,6.6-4.8,2.4,16.3,7.1l16.6,1.1C761.6,465.7,757.4,466.5,760.7,464.5
	z"/>
<path class="st0" d="M514.5,528.5c2.8-4.4,1.8-5.4,4.3-9.3l5.9-7.7c-10.5,3.6-11.3,3.3-15.9,13c-3,6.6-7.1,12.7-4.4,18.5
	L514.5,528.5z"/>
<path class="st0" d="M1084.2,633.2c3.9-6.6,8.7-27.4,1.9-37.1l-2.1,2.9c-2.5,8-0.7,17.8-0.8,26.3
	C1083,631.8,1081.9,629.3,1084.2,633.2z"/>
<path class="st0" d="M492.5,539.6c6.8-4.6,5.3-10,10.8-16.6c8.4-10.2,10.5-2.6,10.6-15.1C502.9,510.7,493.4,525.5,492.5,539.6z"/>
<path class="st0" d="M956.7,615.5c3.6-3.9,2.1,1.7,3.5-4.8c0.1-0.6-0.4-7.1-0.4-7.6l-9.3-36C948.6,582.2,954.6,600,956.7,615.5z"/>
<path class="st0" d="M339.2,468.2l19.2,6.1c18.8,6.4,21.2,7.6,24.9-0.3c-3.9-2.1-11.9,0.7-22-2.8c-4.4-1.5-7.5-1.8-12.2-3
	c-1.8-0.6-3.9-1.4-6.1-1.5C338.5,466.7,341.1,467.1,339.2,468.2z"/>
<path class="st0" d="M245.2,546.2c0.8-2.4-0.8-22-1.4-28.5c-1.9-23.9,5-19.8-1.9-25.6C236.7,501,241.4,536.5,245.2,546.2z"/>
<path class="st0" d="M610.8,567c6.1-2.2,2.9,4,10.4-12.7c3.2-6.8,4.4-9.3,0.3-14.8C615.8,543.3,611.8,559.2,610.8,567z"/>
<path class="st0" d="M431.3,454.8c7.1-3.5,18.5-24.3,15.5-31.1c-7.6,2.6-5.4,5.1-9.1,14.2C434.2,446.2,432.2,444.8,431.3,454.8z"/>
<path class="st0" d="M230.2,568.2c-6.8-5-15.4-8-23.7-9.5c1,9.5,8.6,13.6,17.6,12.7C234.7,570.4,226.2,571.8,230.2,568.2z"/>
<path class="st0" d="M481.3,538.9c3-5,1-4.7,4.7-10.2l11.5-15.8c0.6-1,2.6-4.7,3.6-6.8C492.4,506.2,475.5,530,481.3,538.9z"/>
<path class="st0" d="M901.1,610c4.4-7.2,1.9-26.6,0.1-35.5c-1.8-8.9-0.3-5.1-5.4-7.7L901.1,610z"/>
<path class="st0" d="M499.2,454.2c4.4-5.8-8.3-21.3-8.4-21.4l-1-13c-6.4-2.6,4.1,0-7.7-2.8C484.2,425.6,494.5,448.8,499.2,454.2z"/>
<path class="st0" d="M396.1,504c4.1-6.4,10-7.7,12.6-14.9c-15.9,3-21.9,20.3-24.2,33.7L396.1,504z"/>
<path class="st0" d="M883.4,611.8c3.6-3.6,3,0.1,4.3-6.9c0-0.3-0.3-7.1-0.3-7.9c-0.1-2.1,0.1-6.2,0-7.7l-2.9-9
	c-2.9,3.9-3.3-1.4-3,14.8C881.6,604.3,880.6,603.9,883.4,611.8z"/>
<path class="st0" d="M350.9,519.1c3-2.2,17.8-20.1,21-30.3c-9.8,2.5-6.1,5.4-12.7,12.9C353.1,508.7,350.9,508.2,350.9,519.1z"/>
<path class="st0" d="M780.8,470.6L804,476c7.7,0.6,7.2-0.3,9.8-1.9c-1.7-2.5,4.1-3.7-14-4.8l-15.1-1
	C779.8,469,783.7,468.1,780.8,470.6z"/>
<path class="st0" d="M276.5,544.4c5.5-5.5,0.4-9.1,4.3-19.2c1.8-4.4,2.4-4.4,3.9-10c4.3-15.8,1.1-6.2-1.1-9.7
	C275.8,512.9,275.4,540.3,276.5,544.4z"/>
<path class="st0" d="M838.5,565.9c1.4-1.4,4,4.6,3-14.9c-1.1-19.9-2.5-14-5-16.5c-2.6,4.6-4.3-9-0.3,14.8
	C837.5,556.4,835.3,560.5,838.5,565.9z"/>
<path class="st0" d="M544.7,551.9c3.6-4,12.2-23.2,13.4-29.9c-8.7,2.2-7.7,4.8-10.9,14.1C545.2,541.9,542.1,546.5,544.7,551.9z"/>
<path class="st0" d="M860.7,561.4c2.4-2.8,4.4,4,2.9-16c-0.7-10.1,1-9.1-6.8-12.2C856.2,545.9,858.7,550.4,860.7,561.4z"/>
<path class="st0" d="M180.8,416.3c10,5.9-0.1-2.2,19.9-9.7c8.9-3.3,4-0.6,6.4-5.7c-1.7-1-2.8-7.2-14.7,4.8
	C179.1,419.5,183.3,407.3,180.8,416.3z"/>
<path class="st0" d="M877.7,493.9c2.4-5.7,2.5-18.4,1.7-25.9c-1.2-11.3-0.6-4.7-3.3-7.7l-2.2,25.3
	C875.3,497.1,875.3,491.2,877.7,493.9z"/>
<path class="st0" d="M526.8,549.7c7.1-3.9,14.4-23.9,16-31.8c-5.3,1.7-3.2-0.7-7.1,5.1L526.8,549.7z"/>
<path class="st0" d="M744.4,542.6c-1.9,2.4-1.5-0.6-2.5,4.4l0.7,11.6c0.7,18.8,1.5,11.6,3.7,13.3C749.3,565,749.5,549.8,744.4,542.6
	z"/>
<path class="st0" d="M630.2,565c6.1-2.6,3.2,0,6.6-4.8c4.1-5.9,4.7-13,5-19.8c-7.7,2.6-2.8-2.8-6.6,5L630.2,565z"/>
<path class="st0" d="M171.3,329.9c4.1,5.3-3.3,0.8,13,5.8c7.5,2.2,9.3,3.5,11.5-3.9c-10.5-6.1-6.1-1.1-17-2.6
	C169.9,328.1,175.7,327.1,171.3,329.9z"/>
<path class="st0" d="M1024.8,543.9c3.5-5.7,5.7-20.7-1.9-26.7c-4.7,8-1.7,3.9-0.8,12.7c0.1,2.1-0.1,6.8,0,7.6
	C1023.4,547.5,1022.3,540.7,1024.8,543.9z"/>
<path class="st0" d="M133.2,195.5c0.4,6.8-0.6,8,4.6,11.2c6.8,4.1-0.6,1.1,8.3,3l-7.3-10.1c1.4-6.8,3-7.3,4.8-12.6
	C136.8,188.8,137.2,189.2,133.2,195.5z"/>
<path class="st0" d="M366.8,420.2c1.9,6.2,4.6,5.1,10.5,8.2c6.4,3.3,6.2,4.7,13.7,5.4C388.4,427.5,373.3,416.9,366.8,420.2z"/>
<path class="st0" d="M681.1,577.7c5.1-6.2,6.9-15.1,4.3-23.4C675,559.1,678.9,573.9,681.1,577.7z"/>
<path class="st0" d="M419.1,459.4c-7.1-4.1-4-3.6-12.9-2.4l-3.3,14.7c9,0.6,9.4-0.8,8-9.1L419.1,459.4z"/>
<path class="st0" d="M359.2,492.4c-8.3,2.5-4.8,0.3-8.9,6.4c-4.8,7.3-10.9,13.8-10.1,23.9L359.2,492.4z"/>
<path class="st0" d="M304.7,521.2c2.8-4.8,5.9-14.1,9.4-18.4c5.8-6.6,8.9-2.9,11.1-14.9c-9.8,3.2-15.6,16.9-19.2,25.9
	C304.2,518,301.1,515.1,304.7,521.2z"/>
<path class="st0" d="M1008,497.1c5.5,3.5,2.4,2.2,13.8,3.2c7.2,0.7,6.6,1.4,12.3-1c-2.5-4.1-4.3-5.8-19.2-4.4
	C1008,495.5,1010.7,495.6,1008,497.1z"/>
<path class="st0" d="M404.2,509c7.5-1.7,15.6-11.5,18.4-18.5c-11.1,0.6-7.1-0.4-14.1,10.2L404.2,509z"/>
<path class="st0" d="M193.9,453c-1.9-17.2-7.9-11.6-9.1-24.5c-10.2,0.4-2.5,8.4-0.3,12.2C188.5,447.3,186.1,447.9,193.9,453z"/>
<path class="st0" d="M905.7,556.6c2.2-3.9,0.4-4.7,0.3-11.2c-0.4-9.3,2.6-9-6.2-11.9c-1,7.2-0.8,7.2,0.8,13.4
	c0.1,0.3,1.5,5.7,1.7,5.7C905.1,559.1,901.9,554.2,905.7,556.6z"/>
<path class="st0" d="M264.1,297.7c-0.3,1.7-4.4-1.5-0.1,5.5c5,8.3,14.4,1.2,15.5-5.1L264.1,297.7z"/>
<path class="st0" d="M1072.8,537.6c0-0.1,3.3,1.4,1.9-11.8c-0.7-7.2-0.6-7.3-5.8-9C1065.3,523.4,1068.9,533.8,1072.8,537.6z"/>
<path class="st0" d="M956.4,540.5c0-3.3,0.3-7.6-0.4-10.9c-2.1-8.4-2.1-4.6-6.9-6.2C946.2,532.5,946.8,536.8,956.4,540.5z"/>
<path class="st0" d="M222.3,274.2c-1.5,3.5-0.1,2.1,1.1,8.6c2.5-0.3,7.1-0.6,8.7-0.6l7.5-8.4C223.8,278.4,231.8,269.3,222.3,274.2z"
	/>
<path class="st0" d="M995.9,752.2l2.1-36.2c-4.7,5.8-6.8,25.6-4,33.1C994.9,751.7,995,751.1,995.9,752.2z"/>
<path class="st0" d="M915.6,551.5c0.8-20.9-2.6-16.6-6.9-18.4C907.5,554.1,913.4,550.5,915.6,551.5z"/>
<path class="st0" d="M971.8,524.9c-5,17.2,4.7,13.1,4.8,13.3c1.7-2.9,4-3.7,1.9-9.8c-0.1-0.3-2.5-3.3-2.5-3.3
	C968.8,520.9,973.5,524.8,971.8,524.9z"/>
<path class="st0" d="M1126.1,656.6c-3.6-6.6-7.9-6.4-16.5-5.1c2.9,8-2.6,5.8,7.2,6.9C1123.1,659.2,1122.8,658.7,1126.1,656.6z"/>
<path class="st0" d="M316.9,513.3c4.1-3,2.1-1.5,4.6-5.1c10.2-14.4,10.1-5.1,12.9-17.7c-8.2,2.6-8.9,4-12.2,10.4L316.9,513.3z"/>
<path class="st0" d="M734.7,566.5c0.1-0.3,4.4,1,0.8-12.9c-1.1-4.6-2.8-7.9-6.5-9.8c-1,1.9-1.8-0.8-0.8,4.3l4,11.2
	C733.9,564.5,732.5,562.4,734.7,566.5z"/>
<path class="st0" d="M809.7,563.9c3.7-3.9,3.2-4.6,3.2-13c-0.1-7.6-0.1-10.6-5.8-14L809.7,563.9z"/>
<path class="st0" d="M445.9,682.3c1.8,4.1,5.9,10.6,11.6,9.7c1-4.4,2.6,5.1,0.7-4.6c-0.6-2.2-0.6-3-2.8-5.1
	C451.1,678.2,450.8,681.1,445.9,682.3z"/>
<path class="st0" d="M167.2,361.4c12,3.2,2.9,1.8,18.5-2.5c5-1.5,1.4,0.6,5.4-2.1C172.9,355.1,178.6,353.7,167.2,361.4z"/>
<path class="st0" d="M965.2,539.9c0.4-0.6,3.7-3,2.4-9.7c-2.1-8.9-1.7-4.3-7.1-7.1C960.7,532.9,959.8,535,965.2,539.9z"/>
<path class="st0" d="M385.2,445.2c-2.6-7.3-14.9-11.6-21.7-14.5C366,437.6,378.2,443.7,385.2,445.2z"/>
<path class="st0" d="M971.8,661.6l15.1-2.8c3.7-7.1,1.2-0.4,0.1-4.8c-3-0.8,3.9-1.5-4-0.7C971.5,654.4,972.6,659.8,971.8,661.6z"/>
<path class="st0" d="M558.4,424.9l2.4,0.7c8.3,3.2,13.6,7.1,20.6,8.4c-2.9-8.6-1.8-3.6-10.4-7.3c-4.4-1.9-2.4-2.5-6.4-3.7
	C556.3,420.6,559.6,423.8,558.4,424.9z"/>
<path class="st0" d="M404.6,523.8l-3.9-9.7c-5.5,6.6-5.8,9.4-5.5,16.2L404.6,523.8z"/>
<path class="st0" d="M863.5,633.8c3.3-4.8-0.7-13.7-2.5-17.3l-2.2-3.2C858.1,624.6,856.4,627.1,863.5,633.8z"/>
<path class="st0" d="M176.8,416.9c-0.4-2.9-1.4-2.8-3.5-7.5c-3-6.8,1-4.8-6.6-6.5C171.3,423.9,174.8,417.3,176.8,416.9z"/>
<path class="st0" d="M924.2,544.4c2.5-9.7,1.2-10.9-3.2-14.7C917.3,536,917,542.1,924.2,544.4z"/>
<path class="st0" d="M752.4,548.1l8.6,0.7c0.1-7.5-2.5-9-8.6-11.1V548.1z"/>
<path class="st0" d="M550.1,339.6c5.7,3.3,12.9,1.9,21,1.2c-3.7-1.9-10-4.4-14.9-4C545.8,337.8,553,337.4,550.1,339.6z"/>
<path class="st0" d="M419.1,459.8c2.6,4.6,0.3,7.2,6.6,7.1c4.8-0.1,4.7-2.8,6.6-6.9L419.1,459.8z"/>
<path class="st0" d="M1086.3,593.4c1.5-3.5,2.9-6.8,1.9-11.6c-0.7-3.5-1.1-2.8-2.1-4.4c-1.2,1.5-3.6-3.3-3.2,8.2
	C1083.4,594.1,1085.2,591.9,1086.3,593.4z"/>
<path class="st0" d="M518.4,294.2l-4.3-6.5c-3.5-3.9-1.8-2.4-5.8-4.8c-0.1,0-6.4,1.4,0.7,8C512.6,294.2,513.4,293.7,518.4,294.2z"/>
<path class="st0" d="M787.3,565.2c1.5-8,3.3-15.5-4.3-20.2l1.5,15.5C785.9,564.5,785.5,562.9,787.3,565.2z"/>
<path class="st0" d="M1093.1,661.1c2.2-2.5,2.8,4.4,4-6.5c1-9-3.3-8-3.3-8C1090.5,654.1,1090.5,654,1093.1,661.1z"/>
<path class="st0" d="M446.8,461.7c-6.1,2.1-7.1,1.8-9.8,7.3l15.5-0.8L446.8,461.7z"/>
<path class="st0" d="M228.1,648.7c3.6-4.3,2.4,4.4,2.5-5.5c0.1-6.8-2.4-5.5-2.6-5.8C220.8,640.4,221.6,645.2,228.1,648.7z"/>
<path class="st0" d="M973.5,640.4c5.7-5.1,4.3-7.3,3.3-17.2c-1.7,1.9-2.1-2.1-4.1,6.8C971.5,635.1,973.5,640.3,973.5,640.4z"/>
<path class="st0" d="M236,304.4c3.2,8,1.9,6.4,8,8.7l-0.8-13.6L236,304.4z"/>
<path class="st0" d="M288.8,502.1c8.6-3,2.4,1.9,7.5-5.8c4.6-6.6,0.8,1,3.9-7.9C292.4,491.4,291,493.1,288.8,502.1z"/>
<path class="st0" d="M544.7,468.2c2.2-2.2,0.7,0.1,2.2-3.7c3-8.2,0.6-7.6-0.3-9.1C541,457.8,537.8,463.6,544.7,468.2z"/>
<path class="st0" d="M336.8,502c9.3-2.2,11.5-3,11.9-12.4C343.2,492.4,339.2,496.1,336.8,502z"/>
<path class="st0" d="M1081.2,532.5c3.2-3,3.9,4.8,4.3-6.6c0.3-9.1-2.9-5.8-3.2-6.2c-2.1,3-2.1-4-2.5,6.2
	C1079.8,528.4,1080.6,530.7,1081.2,532.5z"/>
<path class="st0" d="M606.7,410.7c-1.7-7.3-3.5-7.7-12.2-8.6c2.1,7.1-2.9,2.8,4.3,6.6C599,408.9,606.2,410.7,606.7,410.7z"/>
<path class="st0" d="M209,445.2c-1.1-7.3-1.1-6.2-10.2-6.5C200.2,445.1,201.7,449.1,209,445.2z"/>
<path class="st0" d="M756.4,573.7c0.6-1.8,2.9-2.6,3.5-9.4c0.4-6.8-0.3-6.2-1.9-9.7C753.3,561.2,756,564.9,756.4,573.7z"/>
<path class="st0" d="M348.8,701.5c0,0,4.7,2.9,2.5-6.1c-1.1-4.8-1.7-2.6-4.4-4.4C346.9,691.2,338.9,691.4,348.8,701.5z"/>
<path class="st0" d="M1009.3,675.7c0.8-0.6,3.5-0.3,3.9-5.8c0.6-6.1-0.8-4.8-3.9-7.2C1006.5,667.1,1006.5,670.4,1009.3,675.7z"/>
<path class="st0" d="M293.2,315.9c1.1-1.1,2.1-0.3,3.3-5.8c1.5-6.5,0.8-5.1-1.4-8.7C291.4,305,290.5,309.7,293.2,315.9z"/>
<path class="st0" d="M1043.9,676.2c0.4-0.7,2.9,2.5,2.8-6.2c-0.1-11.9-0.4-3.3-2.8-6.8C1040.4,670,1039.8,670.3,1043.9,676.2z"/>
<path class="st0" d="M723.2,561.3c0.1-0.4,8.4-0.7-1.9-12.7C721.3,548.7,716.1,550.1,723.2,561.3z"/>
<path class="st0" d="M256.7,295.3c2.8-6.1,1.9-10,0-15.1c-5.3,3.5-1.8,0-2.1,7.3C254.4,295,250.6,291.7,256.7,295.3z"/>
<path class="st0" d="M863.1,594.8l2.5-15.2c-0.7-9.1-0.3-3.2-2.1-5.7C861.4,578.3,861.1,590.3,863.1,594.8z"/>
<path class="st0" d="M176.1,393.1c2.8-4.8,2.1-4.7,0-8.6l-5.3-0.3C171,392.3,170.7,391.6,176.1,393.1z"/>
<path class="st0" d="M1145.6,645.2c-2.4,6.2-3.2,12.2,0,17.6C1149,657.1,1148,650.6,1145.6,645.2z"/>
<path class="st0" d="M323.7,522c7.9-3.9,0.7,2.1,4.1-3.9l7.7-13.6C328.7,507.2,325.7,515.4,323.7,522z"/>
<path class="st0" d="M218.3,306c7.1,2.4,5.8,6.8,10-1c0-0.1-0.3-2.6-3.9-2.5C212.3,303.1,222.7,301.1,218.3,306z"/>
<path class="st0" d="M396.8,651.9c2.6-3.5,5.8-13.4,3.9-17.4C398.1,638.5,395,648,396.8,651.9z"/>
<path class="st0" d="M984.4,536.9c0.1-0.7,1.1-3.6,0.8-5.1c-1-6.8-1.7-4.8-2.8-6.5C978.6,532,978.8,533.4,984.4,536.9z"/>
<path class="st0" d="M303.6,305c1.4,2.8-1.7,2.6,3.5,3.6c10,2.1,4-0.7,5.5-1.8C308.9,303.3,309,301.7,303.6,305z"/>
<path class="st0" d="M360.7,489.4c7.5-1.5,5.8,0.3,6.8-7.2C360.5,482.5,361.3,481.9,360.7,489.4z"/>
<path class="st0" d="M217.4,289.5c0.6,0.3-1.8,5.3,4.7,1.9c2.8-1.4,1.5-0.7,2.8-6.1C220.4,286.6,219.5,285.1,217.4,289.5z"/>
<path class="st0" d="M1120.8,556c2.9-3.2,2.9-1.7,2.1-10.9C1122.4,545.5,1116.9,546.9,1120.8,556z"/>
<path class="st0" d="M181.9,391.4c1.8,1.1-2.2,4.8,13-1.4c-1.8,0.1-7.3-0.4-7.3-0.4l-4.6,1C182.7,390.6,182.3,391.2,181.9,391.4z"/>
<path class="st0" d="M283.8,491.7c-2.8,4.1-2.2-1.4-2.4,5.4c-0.1,8.2-0.4,0.7,2.2,4C285.8,495.6,286.9,496.8,283.8,491.7z"/>
<path class="st0" d="M571.2,214c5.9-2.9,4.1-1.5,6.1-7.1C572.5,208.5,572.6,202.5,571.2,214z"/>
<path class="st0" d="M260.6,373.9c1.8-2.8,0.6,3.2,2.5-5c1.4-5.7,1.2-2.2-0.6-5.5C259.4,367.7,260.7,367.1,260.6,373.9z"/>
<path class="st0" d="M1019.8,769c9.4-1.8,4.7,1.5,7.2-5.1C1021.3,765.3,1021.7,764.3,1019.8,769z"/>
<path class="st0" d="M493.1,391.4l7.3-1.2c-1.1-1.5,3.2-5-3.6-2.4C491.4,389.9,496.8,386.6,493.1,391.4z"/>
<path class="st0" d="M212.6,533.4c0.7-0.8,4.4-0.3,0-6.2C207.1,533.8,210.8,530.9,212.6,533.4z"/>
<path class="st0" d="M478.6,390.8l-2.1-7.3C473.7,388.8,472.4,389.6,478.6,390.8z"/>
<path class="st0" d="M237.2,253.1c4.7,3.5,4.1,1.8,6.9,0c-5.7-4.4,6.4-2.9-2.9-1.9C236.5,251.6,240.4,250.5,237.2,253.1z"/>
<path class="st0" d="M407.3,392.3l10.5-7.9C411.5,386.6,410.3,386,407.3,392.3z"/>
<path class="st0" d="M496.4,610.9c0.7-8,1.2,1.4-1.7-2.2c-5,5-1.4,3.9,0,5.9C496.4,612.3,496,614.8,496.4,610.9z"/>
<path class="st0" d="M211.4,646.4c5.7-2.6,2.5,3.2,5.1-5.1C212.1,643,213.6,639.3,211.4,646.4z"/>
<path class="st0" d="M678.9,727.3c0.4,0.4,1.1,3.2,1.4,3.6c1.5,2.2-0.1,0.4,3.9,1.7C681.3,726.7,684.9,728.9,678.9,727.3z"/>
<path class="st0" d="M811.6,617.7c2.8-4.8,2.4-2.8,0.3-6.8c-1.4,2.1-1.2,0.8-1.7,3.6C809.4,621.7,810,615.2,811.6,617.7z"/>
<path class="st0" d="M388.4,463.6c1,1.7-3.5,1,4.7,4.6c3.2,1.5,0.3,0.7,3.7,1L388.4,463.6z"/>
<path class="st0" d="M462.4,470.1c0.3,0.1-2.2,5.7,4.7,0C464.2,467.9,468.1,466.5,462.4,470.1z"/>
<path class="st0" d="M270.1,385.8c1.4-4,2.4-1.1-1.9-5.8C267.9,389.9,268.1,383.7,270.1,385.8z"/>
<path class="st0" d="M190.5,428.2c6.2-5.4,3.2,5.3,2.9-2.6c-0.3-5.8,1.4-0.1-1.9-3.6L190.5,428.2z"/>
<path class="st0" d="M662.5,612.3c0,4.1,1.5,3.2,2.2,0.1C665.6,608.7,662.5,611.4,662.5,612.3z"/>
<path class="st0" d="M197.7,529.2c-4.4,2.8-2.9-2.2-3.3,6.1L197.7,529.2z"/>
<path class="st0" d="M479.3,379.8l4,0.7C481.9,377.2,479.8,379.5,479.3,379.8z"/>
</svg>
