<?xml version='1.0' encoding='utf-8'?>
<svg xmlns="http://www.w3.org/2000/svg" width="13in" height="18in" version="1.1" style="shape-rendering:geometricPrecision; text-rendering:geometricPrecision; image-rendering:optimizeQuality; fill-rule:evenodd; clip-rule:evenodd" viewBox="0 0 13000 18000"> <defs> <style type="text/css">  .fil0 {fill:black}  </style> </defs> <g id="Layer_x0020_1"> <metadata id="CorelCorpID_0Corel-Layer"/> <g id="_3532575920"> <path class="fil0" d="M4855 11561c-52,-3 -65,-18 -110,-19 3,-2 8,-10 9,-7 1,3 7,-5 9,-5 2,0 7,-2 9,-2l83 32zm-168 -539l29 34c-104,-21 -79,2 -90,8 21,21 -26,27 105,32 8,18 -8,37 33,45l-3 64c-5,34 -8,61 34,93 -64,36 -57,-4 -86,52l29 12c4,3 8,3 11,10 7,17 74,16 104,31 18,9 14,10 44,26 47,26 23,1 40,38 -63,116 -234,-8 -297,-61 -39,-33 -27,-35 -54,-69 -48,-61 13,40 -81,-87 -4,-5 -31,-34 -33,-35 -128,-113 -274,-83 78,-375 79,96 55,78 169,148 -12,24 -8,19 -33,36zm2359 -130c18,-7 33,-21 61,-33l-61 33zm-2436 -209c5,116 -7,112 32,167 10,14 17,25 24,36 65,-15 62,1 105,16 47,17 48,5 99,-4 -2,2 -4,3 -5,7 -1,4 -4,6 -6,7 -33,23 50,-18 -25,15 -13,6 -50,17 -64,18 -45,5 -94,-13 -117,-38 -93,-103 -38,-197 -43,-224zm352 117l-28 -8c4,-2 13,-7 15,-6 36,14 -8,-25 13,15zm369 -275c7,-2 28,5 12,2 0,0 -22,1 -12,-2zm1041 -26c42,-3 78,-1 114,-12 45,-14 39,-24 92,-32 35,84 35,52 3,132l92 -55c-31,65 -68,51 -76,123 24,-10 36,-26 57,-41l72 -42c62,116 -27,-20 101,105 20,19 -1,5 23,19 5,3 22,9 30,13 114,51 93,-24 225,8 -39,211 -350,155 -442,151 -63,-3 -131,17 -205,10 -70,-125 -9,-242 -3,-272 -57,-49 -61,-15 -84,-107zm-960 -164c8,109 -35,109 -98,159 -71,56 -137,129 -227,162l-267 138c27,69 -2,4 33,56 -56,2 -60,16 -118,17 -9,-41 -6,-39 -26,-53l-40 -126c63,-61 30,-59 94,-102 -16,-120 15,-81 65,-178 29,-55 63,-129 99,-177 76,-100 214,-149 346,-202 7,16 5,5 11,34 28,125 -6,-24 84,154 39,77 44,53 80,110l-36 7zm2150 -90c43,7 48,12 73,22 -6,60 3,44 -43,65l-21 -35c-7,-20 -7,-32 -10,-52zm1547 -16l127 -114c-38,67 -59,71 -127,114zm-433 -146c2,2 5,3 5,7 0,3 3,6 3,7 -2,22 -2,11 -8,22 0,-1 -36,-2 0,-36zm-2236 -26l20 42c-10,-2 -76,-16 -20,-42zm-1111 -96c45,71 -3,111 153,283 15,16 16,21 32,37 40,40 21,-3 38,52 -58,-40 -127,-94 -159,-152 -19,-34 -92,-188 -64,-220zm491 -41l18 74c-49,41 -32,-11 -29,63l12 31c-2,4 -11,21 -12,23 -15,28 -7,-4 -13,25 -7,35 2,11 3,27 1,22 3,12 1,38l-96 49c-134,32 -212,52 -303,-188 -5,-14 -17,-41 -20,-52 -9,-37 -1,-34 4,-48 89,44 58,156 189,190 -8,-96 -8,-77 -71,-111 -32,-18 -60,-69 -57,-113 73,13 60,40 141,56 -25,-54 -68,-73 -110,-80l22 -16c2,0 8,-3 10,-3l128 26c63,9 118,3 183,7zm29 -85l17 -25c-12,31 0,-2 -17,25zm981 -48c11,-6 -11,-12 43,-14 87,-4 36,1 47,14 -16,16 8,13 -32,17 -49,4 -49,-10 -57,-17zm-370 0c33,-26 112,-13 161,-13 29,0 55,1 84,2 5,0 41,-1 42,-1 47,4 16,-2 38,12 -41,31 -308,16 -324,0zm2675 -64c132,96 54,18 181,8 38,58 2,22 26,62 30,48 91,67 95,146 -112,-42 -57,-45 -237,106 -31,26 -53,41 -80,73 -121,144 -306,232 -519,230 12,-55 45,-21 80,-91 23,-63 -9,-60 40,-124 -13,-60 -28,-37 -2,-87 3,3 7,3 8,8 1,5 6,6 7,8l47 61c-3,-43 1,-27 -22,-59 3,-2 8,-9 9,-7l62 -40 58 67c-11,-49 -21,-50 -29,-76 22,-26 4,-6 25,-26l86 -69c64,-50 50,-27 82,-74 16,10 26,12 47,22 -26,-58 -16,-13 -26,-80l61 18c-17,-41 -42,-52 2,-77zm-5 -144l-28 9c29,-15 -4,-18 28,-9zm129 -111c-12,9 10,15 -45,12 18,-23 -2,-35 45,-12zm-3411 55l-27 -82c90,6 118,6 143,62l287 -28 18 83 81 -14 0 45c57,16 -26,-13 19,5 -12,35 -14,35 -38,56 30,16 11,14 48,3l-26 53 30 9 -33 46 43 29 -30 28c23,19 -40,22 40,18 -9,14 -22,35 -31,51 46,20 17,5 38,28 -21,42 4,4 -26,42l35 43c-64,35 -37,42 -17,107 13,41 9,44 28,84 40,84 -7,89 56,155 -9,7 -17,14 -25,20 -25,23 -7,5 -21,21 70,35 74,-33 132,-49 -10,107 -231,159 -298,88l98 6 -9 -53c-62,-7 -87,-2 -157,-77 -40,-43 -34,-50 -66,-100 -20,-32 -48,-47 -74,-80 -24,-31 -41,-63 -67,-99 -167,-235 -80,-264 -111,-542 -54,27 -16,-14 -40,44zm3438 -88c53,-6 45,-11 85,-19 28,66 -37,117 -103,129 15,-41 -3,-45 44,-49 -19,-89 23,6 -25,-61zm-3499 -46l26 22 -2 12 -23 -34zm4116 -111c12,-8 36,3 13,2 0,0 -20,4 -13,-2zm-2556 -3c1,-58 26,-22 17,-10 0,0 -3,4 -4,4 -4,4 -13,11 -13,6zm-50 -141c35,13 12,-4 29,19 1,1 22,42 23,43 -63,-31 -51,-60 -52,-61zm-25 -83l0 0zm-14 -161l8 35c-21,-23 -33,-6 -8,-35zm43 -168l23 145 -23 -145zm-61 62l24 45 -24 -45zm-1936 -138c25,-35 -23,-19 26,-25 65,-8 13,5 23,14l-49 10zm-133 -68c13,8 44,4 20,48l-20 -48zm2287 156l-4 -168c4,-59 -2,-27 16,-48 21,28 6,173 -11,217zm-2220 -334c0,-8 16,-12 12,1 -2,7 -14,30 -12,-1zm82 194c-36,28 -34,30 -87,34l-12 -21c-12,-34 -18,-80 -57,-92 -72,-22 -56,10 -56,10 29,35 31,52 30,97 -56,8 -50,34 -166,46 -67,7 -105,40 -162,56 44,35 -61,35 66,22 -11,26 -13,32 11,35l12 -41c224,-64 350,-71 572,-34 174,30 372,82 523,139 -50,68 -148,142 -166,254 71,-28 27,-69 85,-62 14,-122 120,-155 171,-139 34,11 -18,17 60,8 79,-9 108,7 172,58 -3,79 -28,112 -62,183 30,22 13,14 63,13l2 98c-35,28 -46,21 -75,50 -77,77 -136,45 -234,66 -95,20 -23,-6 -53,37l256 0c-22,49 37,20 -69,33 -186,22 -81,20 -191,-11 -38,-11 -52,-3 -87,-18 9,-38 -17,-12 21,-30 40,-19 129,-30 151,-57 -16,-9 0,-7 -31,-6 -3,0 -7,1 -11,1 -4,0 -8,1 -12,1 -15,1 -26,0 -40,1 -59,2 -67,10 -129,-1 23,-39 -7,-1 35,-34 21,-17 27,-22 42,-44 2,-3 7,-14 10,-17 21,-27 10,-7 20,-19 48,-55 10,-48 7,-55 -46,37 -22,60 -83,87 -2,-3 -4,-10 -4,-8l-6 -21c-10,-56 -14,-73 -69,-54l-4 -87c-42,35 -47,62 -63,129 37,30 60,8 55,64 -55,-8 -4,-20 -88,-29 -79,-9 -42,11 -84,-47l-10 46 -74 2c-10,26 -16,-19 -2,86 -33,-46 -36,-36 -102,-40 -33,40 -91,38 -159,41 -50,2 -93,-3 -138,15 -43,17 -15,0 -39,30 44,60 64,24 134,15 56,-6 121,-2 179,-6 102,-8 392,-131 368,65 -4,31 -4,14 -5,54 20,-9 43,-8 46,-8 6,13 16,32 16,36 6,35 5,11 -6,42 -3,-3 -6,-13 -7,-10 -11,22 -11,-16 -13,-18 -16,-16 -26,-15 -61,-6l37 61c11,16 3,2 14,27l50 -32c-33,94 -78,145 -94,192 53,-22 61,-97 107,-131 12,80 -20,78 -51,139 49,-19 12,-2 60,-34l-41 110c-117,3 -149,-12 -250,-17 7,-35 10,-20 -4,-46l-109 -26 49 -43c-19,-3 -16,-3 -36,-3 -47,1 -12,16 -57,-2 63,-31 124,-30 186,-81 64,-52 -6,16 14,-16 -10,-6 -108,50 -160,53 -86,5 -278,-108 -318,-176l-53 -73c-48,-40 -40,-7 -36,-83 -184,12 -228,104 -439,2 -89,-43 -141,-36 -195,-138 -50,-92 -93,-192 -141,-289 -66,-132 -58,-216 -58,-373 58,-55 271,-166 368,-175 57,65 59,179 99,262 76,11 137,6 183,-32l11 -152c-179,-184 127,-181 226,-151 117,35 86,39 142,120 67,98 57,104 72,124 25,34 7,-9 33,39zm-713 -216c45,-27 54,-30 112,-30 64,127 132,255 -13,262 -38,-78 -36,-176 -99,-232zm3208 1867c20,-234 -154,-394 -295,-548 -28,-31 -24,-38 -49,-61 13,-60 -23,-25 33,-47l-66 -32c21,-44 20,-55 -30,-78l27 -30 -43 -41c50,-11 55,4 90,20 -38,-105 -141,-335 -142,-440 23,51 61,316 174,361l-102 -302c-39,-98 9,-81 -24,-171 -60,-162 -28,-55 -24,-112 6,-96 7,42 0,-25 -9,-89 10,-12 11,-86 1,-58 -37,18 2,-54l-7 -65c37,-40 11,-22 32,-68l21 144c-3,2 -25,26 -27,28 8,20 4,16 17,42l-17 24c-2,2 -7,7 -8,9 -2,2 -6,6 -9,9l26 30c21,37 -3,-21 15,40 -74,5 -19,-1 -44,15l49 29c23,188 33,255 120,410l137 226c32,88 82,132 97,164 14,29 8,39 26,72 108,192 -42,76 66,448 27,94 67,143 220,154 177,12 328,-131 450,-237l81 106c-99,34 -156,43 -217,115 -204,244 -641,227 -746,130 -5,-135 229,-194 -82,-392l-155 -177c-111,-152 -77,-327 -145,-501 -32,11 -3,125 7,239 8,90 49,162 51,253 54,33 42,7 35,63 39,11 26,1 46,21 2,2 3,6 5,7l-5 80 85 2c-18,23 -27,24 -35,44l89 7c7,36 21,40 61,45 -53,16 -44,4 -80,39 112,11 164,11 153,88 -56,-9 -75,-58 -175,-51 -78,5 -119,47 -180,70 -67,26 -152,18 -223,10 -72,-8 -114,-54 -153,-93 -74,-15 -72,8 -107,-46 -46,-69 -41,-21 -109,-57 -31,-222 300,-54 219,-344 -46,-168 -84,-350 20,-503 112,-164 163,-155 159,-454 -2,-116 7,-167 40,-264 24,-72 20,-190 84,-224 41,61 -27,166 -36,253 -10,100 -23,225 -23,319l51 285c14,78 54,176 83,251 84,221 106,284 245,422 25,25 60,64 78,89l70 98c37,77 45,190 85,242zm-3356 -1897c73,-14 260,-67 309,-65 -35,10 -275,73 -309,65zm-309 121c10,-63 16,-38 70,-69 79,-46 148,-138 327,-117l-198 93c-71,34 -144,111 -199,93zm456 -204l95 -65c56,-19 24,0 36,5 -17,60 -69,56 -131,60zm176 -71c37,-27 213,-53 256,24 -52,-1 -96,-1 -148,4 -131,12 -91,0 -107,-28zm-307 -17c48,20 23,18 93,10 -27,68 -78,50 -93,-10zm42 -42c0,-15 14,-13 12,-1 -3,16 -12,11 -12,1zm179 0l66 -27c-3,1 -6,3 -7,8l-20 23c-45,26 -39,-4 -39,-4zm-640 239l-98 -5c-162,-308 81,-343 53,-524 99,2 80,6 152,-32l207 0c49,-4 17,-8 40,8 24,39 34,281 16,339 -13,40 -57,75 -97,83 -39,8 -45,-3 -86,11 -24,8 -38,16 -75,24 -2,55 3,75 -86,62 -13,-30 -25,-75 -11,-119 25,-76 40,-14 9,-97 -106,75 -46,156 -24,249zm1233 -215c-9,-16 7,-414 29,-526 12,-60 -9,-31 32,-67 -34,217 38,342 11,486 -25,129 -67,106 -71,107zm-90 -45c-1,59 10,64 -16,97 -9,-55 17,-85 35,-135 34,-97 4,-99 43,-152 8,113 17,143 -62,190zm2430 -257c-1,-2 11,-14 13,2 4,39 -1,28 -13,-2zm-94 31c16,-51 49,-75 85,-95 -8,20 -17,33 -28,47 -34,46 -17,32 -57,47zm-2673 -55c13,-66 36,-169 79,-211 2,98 -1,192 -79,211zm-850 -100c21,-16 -35,-20 13,-8l13 8c-24,16 -3,13 -26,0zm-373 31c53,-31 53,-2 137,-17 47,-9 81,-25 136,-33 -35,94 -203,48 -274,50zm3832 61c-8,-16 -13,-34 -19,-60 -4,-18 -10,-53 -11,-89 109,5 79,-18 153,-29 50,43 38,16 41,86 -81,-1 -91,86 -164,92zm1405 -181c30,132 45,115 75,160 22,33 -6,13 49,47l-24 40c52,-2 23,-4 42,12l-22 34c-2,3 -6,8 -8,12 23,10 26,10 50,18 5,61 10,51 3,99 32,18 22,12 32,37l4 35c12,24 33,75 5,109l40 30c-16,40 8,6 -26,40l37 23c-5,228 120,267 95,442l-135 -118c-42,-47 -58,-110 -92,-172 -116,-208 -75,-8 -177,-350 -39,-131 -83,-263 -149,-379 -30,-51 -92,-150 -10,-166 98,-19 143,26 210,47zm-1401 -18c4,-10 3,-31 24,-26 52,14 8,-10 23,35l-46 -9zm-2775 1c58,-48 31,-6 32,-5l-32 5zm2583 -66c64,-7 65,-11 111,19l-6 69c-2,2 -7,1 -8,5 -1,4 -7,4 -9,5l-25 17c29,16 4,0 28,12 34,17 20,10 28,16l-53 17c30,17 -13,-2 24,12 2,1 28,9 33,10l10 86c-2,2 -7,1 -8,6l-18 12c-2,1 -7,5 -9,6 -2,1 -6,4 -9,6l62 3c-8,31 -9,14 -28,59l96 -2c-33,5 -36,8 -64,35l97 23 -53 31c37,17 36,-21 87,29 -12,20 27,2 -41,24l74 7c5,11 15,32 22,39l28 23c1,1 4,2 5,4l-39 24 70 24 -29 29c112,24 15,72 100,115 -40,44 -16,-1 -20,51l65 11c-62,64 -9,20 13,60 1,1 2,5 2,7 1,2 1,6 2,7 10,16 -1,16 34,25 -4,55 -9,27 35,86l116 149c30,47 111,400 104,452 -2,15 -36,98 -41,111 -20,-22 -29,21 -7,-56 36,-124 5,-71 -9,-90 -49,55 -7,61 -42,115 -57,-29 -1,11 -14,-75 -3,-22 -11,-22 -14,-27 -27,49 -4,39 -42,63 -2,-3 -4,-10 -5,-8l-23 -48c-22,48 -18,22 -28,31 -161,-80 -196,-22 -271,-216 -21,-56 -73,-145 -82,-171 -11,-32 -22,-180 -9,-212 77,13 121,104 165,130 203,115 65,31 150,376 32,-44 11,-63 14,-130 10,-237 18,-151 -285,-419 -27,-24 -46,-43 -70,-68 -115,-119 -231,-259 -321,-401 -57,-90 -46,-83 -79,-197 -60,-207 -48,-270 149,-285l67 -35c-22,-14 -26,-4 -33,-3zm-2507 6l-42 5c1,0 -9,-50 42,-5zm3902 -28c40,-18 133,-5 166,14l-166 -14zm-3625 -144c124,82 37,320 25,337 -17,-61 -15,-122 -30,-172 -20,-68 -30,-104 4,-165zm-979 299l-98 0c-5,-64 36,-129 67,-163 12,-13 30,-42 67,-50 86,-18 95,29 95,30 -75,62 -113,76 -130,183zm4639 -232l15 -64c83,5 16,-7 75,29 62,-6 121,-31 178,1 -86,51 -169,58 -267,34zm-3843 -34c9,-8 23,-19 29,-25 56,53 15,126 -26,278 -4,15 -7,26 -13,41l-8 19c-2,3 -4,7 -6,9l-16 17c-11,-17 -12,6 -19,-47l11 -176c66,-33 67,-6 91,-75l-43 -42zm-103 5l39 -14c-23,12 5,17 -39,14zm2280 -1c26,-74 50,-69 88,-115 34,58 2,23 31,42 57,38 113,-6 190,38 -226,-3 -203,21 -309,35zm-2023 -200c41,74 8,38 0,49 -2,-3 -6,-13 -6,-10 0,2 -4,-8 -3,-10 2,-31 -3,-13 9,-28zm-100 9c6,4 30,-18 2,28l-2 -28zm3704 13l40 -7 -40 7zm-1010 35l15 -57 67 13 -82 44zm933 -152c31,30 22,22 36,50 -52,3 -67,-3 -36,-50zm-3214 39c-3,-23 8,-7 10,0 8,22 -10,3 -10,0zm2658 -13c-58,-25 4,-26 15,-30l-15 30zm-183 13c58,-59 -11,18 101,-53l-9 49c-2,2 -6,4 -8,6 -31,25 5,1 -17,17l-21 -6c-3,-1 -8,-2 -11,-2l-35 -9zm-100 -26c10,44 -5,19 -8,28 -12,-11 -12,17 -23,-31 -8,-37 4,-14 9,-24 13,10 13,-15 22,28zm964 -67c0,0 48,-4 0,61 -2,-3 -34,5 0,-61zm-187 51c-2,2 -14,14 -27,18 -39,11 -8,2 -27,-4 3,-3 -11,-65 54,-14zm-273 0c29,-32 50,-6 121,-34l2 33 -123 1zm180 20l-21 -59c30,18 43,24 21,59zm-203 -26c-22,38 20,11 -45,31 -82,-46 -65,-52 -56,-76 25,14 15,-16 24,42l77 3zm-178 -3c28,-26 -35,-15 34,-28l-34 28zm-2868 33l-99 10c24,-42 60,-71 101,-98 10,8 98,33 115,189 7,64 -18,229 -33,291 -88,365 1,434 -91,562l-74 4c-12,-29 -13,5 -5,-29 8,-34 1,20 12,-25 1,-5 3,-28 2,-30 -8,-37 -8,-19 -23,-37 -34,37 -48,113 -195,110 -65,-1 -54,-2 -77,-38 32,-15 51,-3 72,-6l35 -72c-166,-33 -98,84 -293,140 -49,-55 -40,-157 -45,-241 -9,-136 17,-97 91,-206l133 -15c11,42 18,83 30,126l42 116c38,-10 30,6 85,-62 26,-31 37,-62 43,-113 14,-129 -39,-134 11,-245 13,34 21,124 38,177 26,77 35,120 87,135 22,-41 69,-238 63,-290 -13,-104 -107,-176 -53,-294l72 -23 9 -89c-41,26 -4,-11 -31,21 -4,5 -17,29 -20,34zm2494 -86c-7,-2 11,-1 11,-1 21,-1 3,4 -11,1zm130 -31l-31 9 31 -9zm-156 -3l30 -23c-11,32 7,14 -30,23zm-34 -42c-6,-19 6,-33 17,-15 16,25 -1,3 -4,8l-13 7zm127 -19c-10,4 -14,6 -33,14 16,-14 -24,-22 33,-14zm-3001 316c-112,29 -60,27 -118,52 3,-180 17,-150 -19,-324 -8,-41 -14,-50 -18,-92 114,76 101,183 148,317 116,-3 106,-5 133,-34l4 45c-37,12 -86,24 -131,36zm3582 -351l-84 -3c8,-44 158,2 186,30 -37,33 -39,36 -103,36 29,-44 7,-46 1,-63zm-421 92c14,-103 25,-10 84,-114l96 -4c-26,42 -51,36 -92,67 30,17 -48,37 58,9l84 -44c67,-51 21,1 144,35 -55,40 3,4 -92,12 -40,4 -51,13 -78,20 -64,16 -131,6 -203,19zm-57 -15c-32,-12 -41,-14 -63,-102l96 7c-3,2 -7,5 -9,7l-27 19c-24,23 -1,-6 -22,33l26 36zm-150 -128c12,18 17,25 23,48l-86 -26c1,-20 38,-21 62,-22zm606 -14c0,0 29,4 0,0zm-561 -5c41,-18 31,-10 62,7 -4,1 -22,7 -32,7 -60,-3 -15,-5 -30,-14zm1004 -35c31,-20 8,0 12,0l-24 15c55,-52 -33,15 13,-14zm-1100 -11c-11,2 -23,11 -40,0l40 0zm-3052 -126c15,17 9,-1 27,41 72,163 13,1 128,190 49,81 74,14 166,209l-166 65c0,-49 -17,-95 -28,-149 -24,-117 -153,-123 -127,-357zm3094 61c6,-27 2,-5 12,-5 17,0 -18,33 -12,5zm-80 -9c-26,16 -22,27 -56,5l56 -5zm50 -33c24,-11 -5,-18 39,0 -12,7 27,24 -39,0zm-553 117c3,-2 7,-4 9,-5 2,-1 7,-3 9,-5 52,-33 41,-56 71,-83 35,-31 82,-24 137,-18 -39,20 -12,-3 -35,35 44,22 20,20 64,7 -39,18 -107,40 -134,77 75,2 77,-22 138,-30 51,-7 103,2 153,-4 34,38 41,44 65,90 -84,-30 2,-60 -93,-75 -20,39 -14,53 -17,108l69 10c-5,59 -37,88 -11,133 60,-30 -4,-25 56,-67 75,62 9,1 25,196 20,-12 39,-24 63,-35 -26,59 -11,31 -60,67 -55,-45 -13,-56 -69,-81 -34,75 73,120 60,233 -201,104 -149,-163 -268,-184 -7,69 10,47 31,116 -105,-3 -117,-33 -184,-77 -2,3 -3,7 -4,9 0,0 0,25 -36,49 -23,16 -32,14 -77,20 56,-145 118,-111 90,-180l-182 224c-79,-53 -96,-117 -26,-190 16,-17 33,-25 48,-36 33,-25 5,-13 34,-20l7 -89c-52,31 -20,20 -58,45 -5,-97 11,-80 66,-122 52,-39 37,-60 60,-121zm452 -133c-13,2 -30,0 -43,-1 29,-20 41,-23 73,-11 -19,10 4,6 -30,12zm-175 -10l27 19 -27 -19zm689 40c1,-56 3,-21 -10,-64 46,12 40,20 78,53 22,19 42,28 56,61 -31,-4 -97,-6 -117,-10 -84,-16 12,-34 -111,-45 16,61 12,27 63,80 121,1 72,14 190,13l-2 71c-48,2 -13,5 -44,-23 -81,-74 -51,12 -159,13 -20,-55 -11,-51 -70,-53 15,82 18,12 21,89 -112,-19 -8,-65 -161,-98 19,-31 12,-21 40,-32l40 -15c2,-5 6,-4 10,-6 -86,-26 -64,0 -141,9 45,-128 213,-47 316,-43zm-352 -56c33,-19 62,-25 87,-14 -16,25 -33,40 -66,60 -7,-13 -13,-30 -21,-47zm294 -10l-107 -6c-24,-15 -40,-21 -37,-60 78,35 18,22 105,12 19,19 32,31 39,55zm184 10c72,-37 70,-3 124,-16 54,-12 18,-45 71,-76 12,26 43,-12 -30,109l-106 -1c24,31 36,18 11,64 -36,-14 -60,-33 -70,-80zm-410 -53c23,-30 -48,-11 28,-29l-28 29zm-178 24c22,-29 100,-68 153,-59 -74,12 -66,57 -153,59zm900 -15c-12,-83 -26,-29 -59,-91 96,15 68,114 77,195 7,67 54,146 5,206l-24 -86c-6,-24 -19,-50 -20,-94 -23,49 11,19 -34,45l-43 18c-2,-3 -6,4 -9,5 31,63 79,10 108,158 -62,-25 -131,-81 -152,-144l92 -111c-58,29 -39,40 -110,51 -2,-83 -6,-35 40,-79 62,-61 -5,-90 130,-71zm-3358 -76c2,-4 14,-11 23,-13 21,-6 8,-3 31,0l-53 13zm3076 -22c-73,112 -1,72 -59,98 -61,27 -272,-123 -286,-153 130,-2 214,51 346,55zm-2800 49c2,-2 5,-5 7,-7l51 -65c1,-2 1,-7 1,-8 8,-32 -10,19 3,-22l69 44c-5,-59 -30,-13 14,-39 73,88 52,107 37,142 -67,161 -26,45 -81,143 -94,167 -188,68 -326,133 -8,4 -84,49 -96,57 -76,55 -47,117 -34,164l-84 35c-49,-43 -47,-54 -79,-112 -53,-96 -204,-155 -249,-303 18,-11 38,-14 56,-21l-15 -57c33,-2 38,-3 71,4l44 24 -74 11 32 39c30,-2 41,-4 65,-10 132,-34 43,27 138,-22 20,35 44,59 79,74 18,-46 18,-26 23,-84 -3,-2 -7,-4 -8,-5 -41,-16 -22,23 -32,-8 -1,-2 -4,0 -6,-1 20,-44 31,-28 70,-50 1,4 4,21 6,24 12,23 14,19 29,31l17 -71c1,1 48,-5 -10,69 -16,21 -21,23 -48,52 13,7 -10,8 32,13 72,9 105,-25 118,-87 67,26 100,78 155,100 -30,-55 22,-110 -82,-111l106 -79zm2840 -144c13,-17 25,-23 33,-29l14 9c-21,24 22,9 -47,21zm-2721 -33c-7,24 -13,38 -28,57l-38 -43 66 -13zm2616 28c25,-39 109,-71 151,-74 -38,32 -102,69 -151,74zm76 -71c8,-60 22,-56 80,-65 -22,49 20,8 -35,45 -12,8 -27,12 -45,20zm-3588 -67c7,-18 28,-19 50,-26 -41,39 -33,24 -50,26zm3805 -73c78,-11 42,2 53,22 -2,1 -17,59 -116,0 9,-5 44,-20 63,-22zm-2698 -5c-1,-18 12,-5 14,3 2,8 -12,43 -14,-3zm-1111 -14c20,-26 1,-35 34,-12l-34 12zm3741 -51l-2 28 2 -28zm-3642 15c146,-18 -9,-68 148,-90l-9 77 -57 12c-30,110 -10,58 -110,58 10,-37 18,-26 4,-72 -43,-16 -37,-11 -96,-4 -56,84 42,-16 -17,29 -16,12 -5,9 -30,-2 9,-11 4,-6 18,-19 1,-1 16,-12 23,-19 26,-25 8,-14 39,-42l75 10 13 61zm735 -36c9,-24 23,-31 53,-39 -15,36 1,31 -53,39zm-66 -4c-25,-24 -20,-12 -31,-48 45,14 33,20 31,48zm-626 -39c1,14 -1,3 -11,7l5 -27c6,15 4,-5 5,21zm804 -19c-9,-11 -43,30 -19,-56 14,-49 20,-26 36,-34l-17 90zm-830 -12c-52,18 -71,22 -74,-41l99 -7 -25 48zm2928 -96c-39,43 -8,24 -43,38 -50,19 -23,-1 -32,-5 25,-17 -21,-19 75,-33zm-153 13c1,-4 -27,32 4,-15 21,-32 -17,10 22,-11 -15,40 14,26 -26,26zm-2172 -42c24,51 7,23 0,33 -9,-10 -23,8 0,-33zm2161 -14c6,-38 -23,-18 34,-33 -17,28 -5,18 -34,33zm783 -117c-10,41 0,27 -36,40 26,-54 -26,-20 36,-40zm-3653 178c19,-73 66,-82 116,-119 140,-103 127,-120 329,-123 127,-2 97,21 93,110 29,16 13,9 49,16l46 11c2,-3 7,4 10,6 13,30 26,-37 5,39 -16,57 -108,102 -145,159 57,-6 42,-25 90,-61 93,-69 94,-24 103,-16 -18,40 8,8 -39,35 16,26 23,32 39,70 -63,-19 -21,-15 -67,-54 9,60 14,17 30,82 -31,-15 -26,-16 -57,-28 26,48 22,45 14,94 30,14 10,3 33,8 3,1 13,8 15,4 1,-2 5,2 7,4 -25,40 2,6 -25,33l-87 65c-42,26 -87,53 -133,74 -50,22 -98,44 -159,47 -79,4 -135,13 -156,-52 95,-46 22,55 86,-82l109 8c-32,-33 3,-8 -34,-30 -16,-9 -8,2 -31,-11 -42,-22 -18,-2 -23,-32l70 14c24,-56 43,-35 102,-75 49,-34 78,-25 102,-89 -69,24 -166,96 -243,94l41 -21 -14 -126 -120 1 6 -76c-68,-6 -16,6 -61,-20l-49 32c-22,10 -23,6 -48,8zm3314 -204c-82,2 -114,45 -133,-32 31,-15 127,-3 166,1 28,3 53,13 73,23 20,9 34,18 54,29 167,90 90,38 124,225 1,0 23,12 25,13 64,48 2,35 78,49 -13,-56 -14,-42 4,-93 18,24 20,-2 16,45l-34 91 -86 33c20,35 3,23 57,28 -16,86 -9,23 -1,64 -62,56 -47,-1 -99,67 -84,109 -279,184 -397,56 -65,-70 -170,-183 -143,-281 42,-21 81,-23 127,-12 -6,-143 -46,-195 -193,-159 10,-79 46,-119 103,-154 77,46 42,75 176,76 44,-69 34,-19 83,-69zm281 -19c-73,14 -156,29 -181,-63 50,-25 81,-12 92,-8l84 25 6 47zm87 -96c19,-10 -1,-34 42,0 -11,9 6,8 -25,10l-17 -10zm-730 35c73,-10 65,-25 106,-29 56,-5 67,25 96,-27 66,21 164,15 238,7 -21,37 -10,20 -57,43 -138,66 -29,-21 -182,-2l-14 81c-67,-13 -24,-11 -54,-81l-66 59c-31,22 -48,33 -94,41 23,-38 -8,-7 36,-41l42 -31c-10,-7 -8,-7 -28,-16 -3,-1 -18,-4 -22,-5zm251 -97l43 -1 -43 1zm-154 -67l0 0zm123 -1c10,-40 -2,-20 17,-44l24 -18c24,-18 24,-24 55,-32 31,-7 130,-2 167,-1l-46 43c66,7 108,-15 174,11l49 59c21,52 23,22 41,68 -67,-10 -32,-32 -127,-43l28 36c1,-2 3,7 5,10 -124,-7 -129,-24 -227,-56 -158,-51 -159,7 -219,-15 13,-31 -41,-34 59,-19zm340 -127c32,-30 -12,-7 28,-18l-28 18zm-313 -33c49,-64 145,-42 173,12 -41,-15 -129,23 -200,26l27 -37zm204 -2c14,-20 27,-41 40,-8l-40 8zm612 5056c152,26 384,-82 509,-158 46,-28 89,-72 133,-102l-7 -116c98,-82 63,-27 170,-31 133,-49 -10,-279 -58,-315 -47,-35 -63,-41 -109,-72 -83,-55 -67,-4 -117,-27l42 -11 -5 -69c97,31 17,122 189,90 50,-9 49,-28 64,-70l-95 28c11,-79 77,-55 62,-178 -137,-104 -381,95 -384,253l58 30c-38,145 -240,293 -370,348 -37,16 -54,11 -97,16l-33 -31c-2,-2 -6,-5 -9,-7 -92,10 -159,113 -245,164 -211,125 -456,138 -466,-185 -2,-58 16,-148 9,-195 -13,-83 -52,-38 -36,-152 -65,-73 -66,-62 -121,-155 -110,-186 -260,-393 -240,-636 70,34 82,181 140,249 67,79 251,126 377,207 48,31 76,45 120,76 76,55 135,134 205,196 -32,214 -121,225 -247,322 -45,35 -85,107 -114,164 -44,85 -11,156 79,164l-50 -42c-18,-76 0,-134 37,-193 32,-51 232,-194 253,-217 45,-50 84,-90 78,-183 -46,-30 -108,-128 -154,-169l-103 -102c31,-181 116,3 30,-357 -32,-132 -64,-227 -139,-335 -23,-33 -20,-50 -30,-77 -13,-37 -38,-51 -77,-109l-108 -180c-14,-27 -37,-54 -43,-81 -9,-40 -1,-58 8,-97 3,-11 13,-47 13,-47 5,-33 6,21 3,-23 -2,-28 -5,-16 -13,-28l-39 130c-47,-45 27,-200 31,-259 -60,42 -64,97 -77,182 -37,-12 -12,15 -32,-17 -32,-52 13,-97 41,-153 28,-58 68,-107 116,-139l40 18c1,49 -8,40 -6,95 49,-24 54,-180 160,-105 3,-2 7,-10 8,-7l45 -23c-1,57 -10,30 16,74l31 -57c22,-36 19,-26 67,-30 -32,98 13,48 28,57 -4,-25 4,-43 22,-64l56 15c-10,42 -13,29 -39,46l69 128c34,-11 28,-9 48,-27l23 69c30,65 10,36 50,56 -12,-71 -78,-230 -63,-265 52,22 9,22 71,54 1,-50 -5,-90 -30,-106 -171,-41 -335,16 -495,13 45,3 191,-40 286,-43 135,-4 223,14 352,17 -19,-28 -13,-33 -60,-41l-251 -22c1,-50 8,-47 -13,-82 -38,46 -21,35 -18,100 -62,-18 -393,46 -430,62 -66,28 -81,41 -127,-10l19 -14c44,-21 44,-18 63,-55l-39 -39c42,-41 33,10 71,-56 -42,12 -63,22 -95,-1l-35 39c-21,23 8,-1 -7,6 -16,-41 2,-36 -25,-83 92,-26 76,72 114,-32l-53 -28 60 -57c84,6 336,-42 460,-56l41 27c56,-36 -45,45 21,-18 42,-41 108,-12 158,-1l252 45c57,-1 47,-31 94,-49 -4,45 -34,63 -52,109l-52 18c16,36 31,37 0,80l-59 76 -125 -11c15,35 -10,11 18,33 31,24 85,27 119,39 -11,48 7,6 -20,48l-122 -2c26,106 117,116 182,376 45,-60 -41,-161 -83,-314 57,12 91,63 117,113 122,242 110,252 171,518 -50,2 -27,12 -67,-16 -4,30 -9,67 8,99 40,78 -41,-19 26,26 12,-9 4,-46 20,-71l2 21c9,19 8,15 19,28l48 -26c52,65 83,158 124,236 33,63 1,16 41,43 66,45 0,31 92,64 32,75 -25,18 43,65 -84,-2 -171,-37 -247,-73 -8,-4 -34,-19 -36,-19 -3,-1 -7,-2 -10,-2l-31 12c59,56 331,167 396,179 195,36 298,-18 486,96 140,84 115,61 199,184 -38,48 -124,82 -144,129 -26,61 -14,103 -78,131l-49 24c80,-16 94,-36 138,-87 29,-34 20,-24 56,-41 2,58 -6,26 14,51 72,-12 13,-23 92,-30 6,-111 22,-63 34,-121 28,-127 -108,-215 -208,-264 -64,-32 -108,-71 -210,-97 -90,-22 -217,-1 -288,-28l-7 -138 41 -27c-24,-23 -30,-19 -58,-34 -9,-64 -23,-83 -40,-141 -42,-139 -44,-314 -90,-454 -99,-304 -110,-254 -161,-379 -21,-52 -35,-87 -39,-146 54,-45 89,-43 116,-111 -31,-68 -42,-41 -108,-75 17,-49 45,-59 68,-116 51,-124 204,-173 85,-327 -39,-51 -3,-34 -63,-55l42 76c49,118 -12,103 -35,181 -9,30 -2,22 -12,44 -6,15 -19,34 -27,45 -48,65 -97,28 -169,88l50 20 -130 32 8 -107 51 -24c-31,-102 -78,9 -51,-293l58 -3c-22,-62 -43,-55 -65,-148 -16,-68 -3,-151 7,-193 -107,-23 -51,29 -183,-36 -65,-32 -110,-60 -179,-72 -8,-35 -1,-52 -18,-78 -39,-58 -35,27 -37,-73 133,-55 174,1 195,-45 56,-127 -90,-108 -150,-132 4,-3 9,-12 11,-9l33 -15c35,-15 9,2 31,-18 -11,-6 -3,-5 -26,-10 -3,-1 -23,-3 -27,-4 80,-193 40,-165 13,-375 -26,-206 -114,-214 -153,-293 -60,-123 47,-112 -137,-148 -64,-13 -221,-105 -362,66 -55,66 -3,42 -88,106 -67,50 -118,158 -150,239 -40,101 -33,42 -96,100 1,3 4,4 5,10 1,5 4,7 6,10l19 50c-98,62 -32,146 28,189 26,6 35,-26 56,-8 14,12 -10,33 -20,50 50,16 47,29 43,102 67,44 47,66 99,115 47,44 49,70 118,101 -26,121 -93,128 -204,180 -217,101 -261,49 -286,57l-16 14c-18,11 -153,31 -195,113l-143 191c-42,53 -44,82 -43,174 -36,50 -83,93 -85,182 60,72 146,86 170,179 -44,84 -91,105 -133,167 18,74 79,86 148,64 -27,-52 -37,-40 -94,-41 -1,-74 -7,-49 35,-89 17,-16 7,-4 26,-29 108,-140 268,-149 442,-122 71,11 67,26 102,76 8,12 20,23 31,41 -23,-3 -65,-10 -85,-18 -33,-13 -22,-23 -77,-33 -60,-11 -34,3 -86,-25 -88,-48 -81,-14 -137,36l-138 84c-42,16 -45,12 -66,43l60 16c-3,87 31,122 13,213 39,31 44,87 66,132l42 79c117,157 66,139 32,222 -45,111 27,130 -119,134 -48,1 -250,22 -286,42l377 -31 -28 117 -115 21 98 11c-7,138 32,308 -46,445l-174 311 -64 26 62 14c-12,48 -22,142 -4,188l-139 9c-2,-5 -5,-13 -5,-10l-259 -6c57,11 112,-1 167,2 93,5 35,2 61,23l-142 18c195,12 270,-26 321,7 -71,45 -278,-6 -370,42 18,9 -2,8 32,13 82,12 172,-8 252,-13 59,-4 67,-1 109,-10 -16,57 -5,43 21,82 -146,11 -289,-4 -437,5 -19,-20 -13,11 -32,-45 -20,-61 -12,-133 -3,-192 57,-23 147,-18 219,-13 -30,-32 -59,-29 -112,-25 -50,4 -86,7 -135,-1 -3,-84 -26,-78 -32,-120 47,-47 65,-14 111,-41l-118 -7c0,-45 10,-147 8,-170 -21,-194 -18,-215 -145,-266 -82,-32 -74,-23 -132,-71 -2,-1 -183,-13 -291,-57 46,-32 -2,-9 103,-8 20,-64 48,-34 70,-93 46,-125 29,-104 104,-229 61,-100 47,-82 24,-120 -2,4 -6,5 -6,12l-19 53c-33,63 -116,122 -149,187 -22,44 -48,51 -85,73 -38,23 -37,26 -44,52 66,12 89,-5 136,-27l-20 25c-3,3 -15,13 -22,21l-159 1c-41,-41 -52,-42 -91,-73 -29,-23 -56,-68 -42,-106 41,44 19,54 82,78 -25,-61 -59,-58 -57,-148l4 -128c0,-4 -3,-8 -3,-12 -3,-34 -10,-19 15,-41l40 70c21,45 24,58 76,74 -7,-62 -9,-56 13,-102 1,-2 18,-35 18,-36 15,-76 2,-15 -8,-37 -32,54 -12,64 -56,98 -32,-16 -31,-37 -53,-71 -27,-41 -24,-48 -88,-33 -16,37 -14,-7 -12,37 2,27 22,62 20,109 -4,88 -22,87 -40,153 32,165 87,116 160,181 -12,6 -2,12 -36,8 -12,-1 -31,-8 -44,-12 -79,-22 -204,-31 -250,-97l-65 -158c-19,-56 -67,-67 -103,-131l6 -88c153,-46 147,-82 182,-221 20,-79 2,-56 -4,-121l43 -16c-38,-19 -33,-16 -54,-32l39 -32c-54,-61 -47,-40 -43,-129l-28 -32c-2,-2 -4,-6 -7,-9 11,-49 6,-34 36,-64 -31,-146 -55,-126 -54,-213l71 -37c-10,67 -14,26 6,93 -22,21 3,8 -41,28 3,2 7,2 8,6 3,10 11,7 17,11 85,51 104,47 152,136l-42 42c18,45 4,13 34,56l-43 69c17,3 62,28 75,34 15,93 34,47 53,114 -5,0 -49,1 -66,-5 -90,-33 -53,-12 -66,-3 39,38 102,46 157,53l49 109c-17,-2 -16,-1 -33,-14 -44,-34 -62,-54 -114,-70 29,46 108,40 122,132 -40,-16 -70,-6 -116,-21l-17 -9c-3,-2 -14,-11 -18,-13 -23,81 -9,-17 -94,54 33,17 -45,20 52,15 13,-1 38,-13 56,-14 50,-5 72,12 92,41 -31,8 -55,8 -74,27 97,-13 129,61 194,48 11,-18 16,40 18,-47 1,-64 -26,-86 -35,-154 -8,-58 -46,-124 -70,-166 -71,-123 -27,-237 -98,-374 -76,-147 -79,-98 -158,-314 -66,-177 -225,-64 -267,-201 50,-56 132,-58 217,-63 156,-10 114,-63 168,-144 38,-58 93,-112 98,-209 3,-55 -14,-99 0,-146 23,-76 16,-53 20,-140l47 -9 14 52c39,-15 35,-5 51,-41 42,-99 -34,-91 -84,-133l66 1c-25,-58 -11,-36 -55,-70 19,-72 120,-290 -22,-316 -194,-36 -225,-6 -359,48 -49,-45 -99,-109 -194,-122 -57,-8 -234,21 -279,42 -23,11 -69,49 -89,64 -34,26 -62,45 -97,70 -131,93 -37,202 -160,286 -100,-20 -65,-54 -176,-50 0,-135 -90,-103 -60,-195l97 117c57,-27 17,-27 -11,-69l-59 -82c-11,-77 -23,-152 17,-207 32,-43 92,-86 173,-78 35,58 27,73 91,81 2,-135 -17,-117 -75,-193 -70,-1 -131,-3 -185,37l88 13c60,-10 50,-18 81,14 -96,-22 -155,80 -229,122l-2 -58c-121,40 -118,202 -80,336 18,65 96,148 143,194l54 46c-34,38 -24,17 -47,69 61,-13 132,-64 189,-27 -33,18 -83,4 -119,28 -51,34 -6,-4 -32,42 70,-3 84,-29 183,-4l12 67 83 -6c-31,67 -31,4 -25,95 151,-28 307,192 693,-167 43,-40 75,-43 117,-76 36,-28 51,-32 106,-37 -1,-27 0,-26 22,-56l49 -51c1,-41 -5,-85 -9,-112l-78 70c0,-83 -9,-53 -52,-100 -34,-37 -62,-42 -67,-94 72,-30 206,-31 276,10 60,59 2,230 -55,285l-61 75c-52,79 -53,73 -134,130 -34,24 -43,26 -72,54 -178,167 -288,143 -425,238 -86,60 -241,8 -328,-25 -44,-17 -10,17 -45,-25 -15,-18 -16,-32 -24,-49l55 -123c-50,21 -90,67 -89,136 29,40 59,75 105,111 -67,105 -129,73 -276,96 -44,7 -86,34 -135,46 -88,22 -98,-14 -170,-3 -118,17 -84,90 -401,155 -66,13 -96,37 -127,81 19,-2 47,-17 80,-29 86,-31 58,3 109,-5 109,-18 240,-166 364,-158 130,8 88,31 207,-33 28,-15 52,-28 88,-14 14,6 69,52 76,62 145,208 42,577 53,672 54,8 59,-10 94,-36 41,-31 39,-11 92,-19 32,-40 133,-128 206,-97 -80,32 -148,68 -184,152l168 -32c-26,24 -73,25 -103,49 -16,12 -20,25 -34,37 -23,19 -22,7 -49,34 -178,182 -108,148 -403,164l-23 -40c-84,17 -14,44 -104,18 -14,-150 91,-212 209,-181 77,20 23,34 85,47 38,-32 9,-4 29,-36 -3,-2 -7,-10 -9,-7l-95 -29c-68,-26 -44,-27 -85,-54 -71,-46 -134,-11 -154,-113 150,-15 53,39 159,49 -15,-37 -28,-47 -35,-77 76,-14 137,-21 167,-95 -49,15 -56,34 -104,26 46,-37 131,-119 99,-174 -51,78 -95,152 -191,186 -37,13 -65,25 -111,20 33,-74 33,-71 30,-172 -24,20 -18,5 -33,38 -26,59 -6,96 -71,115 -14,-20 -12,10 -20,-47 -4,-24 0,-42 0,-61 -29,18 -16,8 -37,33 -16,19 1,10 -19,20l-5 -118c-56,12 -61,18 -51,67 -60,-12 -57,-67 -136,-92 -57,-18 -164,-5 -206,40l97 19c83,6 191,35 243,106l-47 42c110,50 208,29 261,167l-74 10 -3 77 -106 74c-61,26 -73,5 -124,64l132 -30c-36,35 -118,57 -169,66 -126,21 -110,-25 -214,-31 6,70 1,52 53,83 184,110 241,10 327,30 22,14 47,30 72,46 -15,28 -51,128 -75,164 -45,67 -59,70 -51,183 13,187 51,266 240,215 1,90 16,92 51,146 -2,191 -14,216 50,379l142 303c17,29 81,109 101,122 40,26 100,65 145,78 191,54 233,4 395,-9l229 217c51,50 14,41 94,58 19,69 38,86 69,143l-18 56c-50,19 -56,7 -77,59l-11 32c-18,46 -179,62 -224,95 -105,74 -205,225 -261,349 -30,67 -36,52 -69,87 -54,56 -16,43 -107,59 -62,125 -57,213 -137,307 -99,116 -367,224 -64,381 160,83 154,178 251,248 104,75 262,133 341,-3 30,-51 157,-116 210,-164l222 -162c-68,-4 -301,9 -344,65l-21 32c-2,4 -9,16 -11,19 -25,33 -91,70 -127,78 -56,-35 -80,-110 -95,-177 -17,-77 -41,-197 21,-239 48,-33 45,-4 81,-58 31,-46 23,-56 62,-90 97,-85 254,-130 357,-213 142,-115 85,-136 233,-197 75,-31 30,-36 88,-66 32,-16 74,-22 101,-38 46,-28 76,-59 89,-109 23,-88 11,-191 18,-284 25,7 1,-18 25,22l166 252c11,19 3,7 17,24 27,34 18,7 40,59 -59,-2 -116,8 -160,10 -57,2 -111,-1 -149,26 60,24 262,-18 343,-16 11,34 33,75 31,88 -103,42 -394,26 -543,67 -40,11 -14,4 -29,13 131,5 165,-12 278,-17 50,-2 90,-6 138,-9 52,-3 105,-15 146,14 -186,21 -400,12 -560,82 48,33 463,-74 675,-51 15,29 23,53 35,80 -64,0 -123,-11 -186,-7 -54,3 -418,34 -448,67 -49,53 16,-30 -11,20 161,13 343,-39 501,-46 33,-1 66,-2 98,-3 55,-3 45,-15 78,10 -71,34 -563,11 -713,97 50,32 440,-32 540,-42 36,-4 60,-1 95,-2 8,0 55,-4 56,-4 66,8 15,-3 37,20 -18,22 -205,1 -257,9 62,56 171,49 247,29 -7,121 -41,-18 -174,59l78 19c69,-4 94,-19 117,58 67,231 157,111 411,130 104,8 224,8 304,-40 68,-41 138,-139 54,-232 -52,-60 -136,-32 -220,-35 -53,-52 -131,-95 -199,-145 -48,-35 -135,-134 -107,-214 27,-11 63,-8 115,-12 -12,-8 -5,-13 -31,-17l-153 -2c-37,-52 -43,-137 -64,-194 -27,-72 -53,-142 -26,-236 105,-7 348,-22 442,-1 -29,104 -258,13 -231,256 28,17 24,6 41,46 69,-3 78,2 106,47 33,54 29,29 115,38l20 48c147,41 101,51 277,51 139,0 136,-70 262,-72l76 142c54,146 217,138 370,138 300,-1 340,-107 514,-208 55,70 68,63 167,77l0 29z"/> <path class="fil0" d="M8612 11653l-47 10 47 -10zm596 -577c-16,16 -32,32 -47,48 -100,0 -212,-5 -266,7 -134,32 -289,23 -407,54 20,16 -34,27 61,20 21,-1 73,-25 182,-29 81,-3 160,-30 252,-32 -12,10 24,12 -71,31 -28,6 -50,13 -69,15 -39,4 -53,-8 -95,-3 -17,2 -44,16 -65,21 -43,11 -215,16 -312,47 14,150 73,7 103,384 75,4 83,-76 335,-111 -9,14 -19,28 -28,42 -46,4 -95,14 -130,38 97,-31 83,-4 96,16l-2 3 -89 13c-35,119 -89,23 -182,123 -19,21 -84,123 -205,66 -115,-54 -220,-312 -205,-380 -83,8 -184,102 -264,109 -165,13 -247,-104 -311,-226 -118,-226 -368,-185 -120,-410 38,-34 75,-53 113,-95 74,-81 113,-238 183,-236 -168,-125 -322,-128 -369,-243 68,9 41,6 84,39 102,80 133,47 212,107 134,103 368,64 531,39 71,-11 129,3 195,-12 106,-25 222,-96 318,-97 -12,26 18,6 -33,35l-323 121c-14,179 14,494 79,641 73,-12 25,-9 67,-35l215 -54c79,-16 213,-33 295,-38l-264 2c84,-61 323,-50 443,-44l-43 31c33,2 87,-6 140,-9zm-1030 142c51,-41 29,-40 114,-21l12 63c-23,-2 -61,-5 -81,-11 -38,-11 -20,-3 -44,-32zm-280 -370c71,33 56,112 64,141 0,0 86,177 75,310l-79 51 75 -2c-34,29 -88,19 -148,62l52 32 -69 -3c-22,-73 -48,-22 -73,-134 -14,-62 -29,-116 -41,-181 -29,-164 36,-141 143,-276zm-591 229c-2,-32 13,-13 12,-3 -2,19 -12,6 -12,3zm812 -28c44,-18 68,-25 106,-11 -6,3 -36,16 -40,17 -68,15 -66,-6 -66,-6zm-68 -77c-4,28 8,26 20,48 32,62 4,68 0,148l86 0c-32,-95 -2,18 -44,-59l31 -21c2,-1 5,-4 8,-6 44,17 25,23 93,6l-42 71c-38,50 -16,16 -74,48 27,39 27,17 13,65 52,7 54,15 71,48 -76,26 -28,2 -49,34l111 3c-5,-56 -20,-51 25,-69l100 187c36,78 44,171 10,254 -50,53 -320,49 -329,-403 -5,-283 -124,-287 -31,-355zm50 29c23,-15 36,-18 73,-18 -34,23 -22,15 -73,18zm-31 -46c36,-19 52,-42 84,-18 -33,22 -48,34 -84,18zm-302 -81c6,-22 37,-8 5,0 0,0 -5,2 -5,0zm449 -47c-57,25 -152,70 -222,67 -37,-40 -87,-157 -89,-199 45,15 24,26 92,10 212,-51 103,35 227,30 -1,44 -23,43 -23,43 -1,-3 -6,4 -9,6 35,32 23,36 24,42zm-552 -236c13,2 52,13 58,15 31,6 46,3 79,5l48 95c-63,-12 -37,-16 -59,9 41,7 34,20 51,54 -71,8 -34,11 -91,-44 -26,-25 7,-1 -29,-20 37,90 71,62 108,123 -136,-37 -88,-53 -154,-111 12,57 26,54 46,97 -17,32 -33,84 -94,90 11,47 14,38 20,72l-74 18c25,54 28,34 67,69l8 125c22,26 29,22 48,48 11,16 31,51 38,63l-29 68c57,73 90,6 143,121 -93,64 -248,-117 -285,-175 -95,-148 -65,-99 -162,-214 -32,-37 -43,-28 -65,-78 16,-42 43,-71 76,-95l46 -37c28,-25 34,-21 57,-41 68,-59 33,-150 154,-205l-7 -52zm518 74l42 6 -42 -6zm-244 -32c-34,18 29,1 -35,15 -30,7 -21,-2 -24,-8l60 -7zm221 -51c50,-9 16,-18 64,11l-64 -11z"/> <path class="fil0" d="M9428 10888c-12,9 -25,18 -37,28 -86,-15 -203,23 -281,-5 54,-31 212,-26 317,-23zm-93 73c-9,8 -19,16 -28,24 -30,0 -67,1 -112,4 -208,14 -67,22 -197,41 -50,7 -379,41 -419,19 56,-42 172,-42 240,-43 48,-1 72,-8 120,-12 125,-11 75,5 105,-28 -13,-9 -5,-12 -32,-18l-411 41c29,-31 -22,-19 60,-31l148 -12c375,-46 200,2 311,14 30,3 78,-8 113,-7 29,1 67,6 103,9zm-327 318c-11,12 -22,24 -33,36l-96 3c37,-31 78,-38 129,-39zm-84 96c-12,15 -24,30 -36,46 -59,10 -120,42 -172,4 39,-30 65,-20 125,-32 35,-7 54,-13 83,-17zm-64 82c-17,24 -34,47 -51,72 -27,-1 -55,-3 -83,-4 22,-16 -8,0 34,-18 51,-23 8,18 55,-45 18,-2 33,-3 45,-4z"/> <path class="fil0" d="M5432 10869l190 -9c-30,10 -97,21 -143,28 -30,5 -63,8 -90,13 -74,14 -54,22 -70,37 100,9 143,-17 232,-21 111,-4 150,-31 252,-34 -22,21 12,5 -33,21 -4,1 -19,3 -23,4 -28,10 -16,5 -33,19 110,0 164,-5 269,-17 63,-7 179,-15 226,-55 -59,-30 -136,24 -394,3 -74,-6 -60,28 -122,-3 31,-12 152,-23 195,-27 136,-12 62,-33 196,-29 -3,3 -6,4 -7,8 -7,21 -66,20 -90,31 73,2 148,-12 230,-16 -12,-25 6,-23 -29,-49 -34,-25 -198,33 -399,23 109,-34 219,-32 329,-44 -25,-26 13,-29 -91,-29 -77,0 -339,24 -408,54 -55,24 -10,39 -91,58 -57,14 -59,-4 -92,33z"/> <path class="fil0" d="M5521 11059c-34,25 0,5 -37,22 13,-7 -10,-28 37,-22zm-256 18c5,-1 23,-3 24,-3 65,13 16,-1 42,19 -44,19 -62,7 -113,25 -18,46 3,-41 1,14 -1,19 25,-10 -2,12 -38,32 -18,-26 -57,43 49,-1 61,1 102,-10 3,-1 39,-11 42,-12l44 -24c-50,1 -53,9 -88,-9 44,-30 157,-31 215,-21 -5,1 -33,7 -34,7 -35,17 -17,7 -34,29l88 3 28 -52c103,-17 95,9 173,-3 66,-10 127,-1 160,-33 -87,-8 -158,11 -242,17 32,-54 20,-16 61,-57 -31,-3 -56,-1 -83,-3 -41,-3 -24,-3 -56,-22 -40,16 -85,19 -135,30l-101 26c-37,12 -16,-1 -37,24z"/> <path class="fil0" d="M8594 10855c51,2 139,-20 207,-25l759 -36c-40,-35 -9,-28 -120,-21 -42,3 -84,2 -126,2 -225,-2 -445,14 -667,53 -76,13 -30,2 -54,27z"/> <path class="fil0" d="M5892 8186c-34,67 -58,115 -36,155 60,-30 42,-66 107,-128 39,-38 -3,-21 62,-25 -19,71 -75,66 -102,186 102,-31 24,-67 100,-113 -8,95 -38,92 -49,188 57,-29 30,-15 82,-65 -13,-128 -12,-37 6,-115 14,-58 -12,-82 -39,-109 -56,11 -71,46 -111,71l19 -77 -64 -15 26 47z"/> <path class="fil0" d="M3483 7680c-27,-46 -187,-138 -173,-311 19,-235 153,-234 192,-306 -99,-2 -121,58 -154,116 -34,60 -68,98 -83,182 -23,125 117,315 218,319z"/> <path class="fil0" d="M5646 10579l484 -45c63,-7 124,-4 160,-26 -80,-47 -355,15 -489,27 -30,3 -60,3 -89,8 -72,11 -56,24 -66,36z"/> <path class="fil0" d="M7967 5980c23,33 51,19 85,2 59,-30 50,-38 56,-57 -66,-31 -81,-47 -162,-23 -83,25 -102,117 -25,102l46 -24z"/> <path class="fil0" d="M7888 6314c55,-23 114,-32 119,-95 -153,-16 -180,13 -202,90 25,10 56,32 72,38 70,26 79,-20 79,-20l-69 -14z"/> <path class="fil0" d="M8781 10765c158,0 208,-23 409,-23 151,0 115,-16 129,-30 -86,-25 -296,12 -407,14 -75,2 -91,-13 -131,39z"/> <path class="fil0" d="M6989 9411c7,168 73,241 81,306 7,61 8,47 33,94l-69 -372c30,-49 36,-77 41,-151 -83,34 -9,46 -68,110l-18 14z"/> <path class="fil0" d="M8581 11322l392 -52c50,-13 33,-8 58,-34 -85,1 -343,21 -418,54 -60,26 -16,1 -31,32z"/> <path class="fil0" d="M3514 9189c17,11 -30,12 23,9l284 -61c52,-10 107,-20 165,-30 63,-11 127,11 183,-15 -73,-40 -566,67 -654,97z"/> <path class="fil0" d="M3590 9827c35,-1 492,-54 530,-83 -97,-1 -474,44 -530,83z"/> <path class="fil0" d="M7120 9437c25,-39 9,-102 20,-161 12,-65 36,-56 33,-138 -27,32 -52,87 -66,137 -17,61 -36,127 13,163z"/> <path class="fil0" d="M8641 10917l93 -4c138,-32 269,-10 330,-44 -70,-32 -348,19 -423,48z"/> <path class="fil0" d="M8864 10591c44,35 224,-31 228,-32l485 -1c-103,-32 -619,-5 -713,33z"/> <path class="fil0" d="M5092 8488c1,-1 46,-1 2,-105 -21,-49 -33,-53 -92,-60l56 121c29,79 -1,19 34,44z"/> <path class="fil0" d="M7849 5905c59,-13 64,-27 125,-42 48,-12 85,-4 114,-21 -35,-36 -196,-50 -239,63z"/> <path class="fil0" d="M7774 6189c8,7 9,40 105,10 49,-15 52,-15 54,-62 -56,-12 -35,-2 -89,11 -79,20 -48,-16 -71,40z"/> <path class="fil0" d="M8997 9194c17,3 14,-1 36,10 39,20 10,8 35,22 38,21 206,111 230,101 -51,-48 -150,-94 -220,-123 -123,-51 -62,-23 -81,-10z"/> <path class="fil0" d="M5615 11001l160 -5c72,-12 16,2 36,-16 -17,-45 -35,-33 -94,-27 -65,7 -71,3 -102,48z"/> <path class="fil0" d="M5245 10439c120,-98 68,-16 101,-84 -65,23 -67,33 -110,75 -25,25 -247,150 -309,231l318 -222z"/> <path class="fil0" d="M4975 10475c75,-32 84,-134 280,-245 -1,0 16,-27 -43,-5 -7,3 -32,22 -41,30l-138 139c-41,42 -34,20 -59,81z"/> <path class="fil0" d="M5675 10383l338 -24c34,-11 24,-9 41,-20l-282 15c-79,1 -71,3 -97,28z"/> <path class="fil0" d="M3529 9250c36,4 332,-35 372,-65 -86,0 -321,39 -372,65z"/> <path class="fil0" d="M9167 10418l729 4 -540 -17c-37,-3 -181,-13 -190,13z"/> <path class="fil0" d="M5892 10703c24,20 -32,14 47,24l104 -13c40,-16 24,-12 47,-35l-151 3c-68,13 -24,5 -47,20z"/> <path class="fil0" d="M4878 5972l104 -4c8,-45 56,-62 82,-85 30,-27 13,-4 32,-46 -87,37 -74,42 -102,73 -44,48 -60,9 -115,63z"/> <path class="fil0" d="M9173 11036c30,16 -28,7 43,13l19 2c12,-11 23,-22 35,-33 -36,1 -70,6 -97,18z"/> <path class="fil0" d="M6566 8367l426 -46c-99,-5 -363,1 -426,46z"/> <path class="fil0" d="M8203 7472c40,-26 25,21 29,-58 2,-50 5,-40 -15,-73 -25,13 -28,-11 -35,55 -6,56 -2,43 21,76z"/> <path class="fil0" d="M4596 9216c9,-1 100,18 149,18 74,0 124,-5 200,3 -24,-24 14,-28 -90,-24l-260 3z"/> <path class="fil0" d="M6524 9439c20,14 -15,20 68,9l112 -51c-64,-26 -110,3 -154,26l-26 15z"/> <path class="fil0" d="M8682 8312l6 -98 44 31 -8 -65 -48 -6c-2,-69 24,-28 -29,-58l35 195z"/> <path class="fil0" d="M3403 9502c104,-2 363,-61 406,-50 -19,-27 46,-36 -92,-13 -83,14 -223,55 -314,63z"/> <path class="fil0" d="M6171 8790c50,3 71,-1 118,-5 9,-1 44,-3 49,-4 30,-9 15,-5 35,-26 -64,-4 -166,-7 -202,36z"/> <path class="fil0" d="M3636 8788c69,18 239,-45 296,-64 -53,-4 -246,45 -296,64z"/> <path class="fil0" d="M5896 10981c45,-1 177,-4 209,-28 -51,-31 -169,-2 -209,28z"/> <path class="fil0" d="M8863 11221c45,1 78,1 120,-4 77,-9 59,-18 65,-37 -45,-4 -143,7 -184,41z"/> <path class="fil0" d="M4509 6120c-7,-36 -15,-38 -35,-62 -32,-39 -9,-30 -65,-39 4,81 -10,32 37,67 55,41 -3,26 63,34z"/> <path class="fil0" d="M3483 9618c57,20 121,-6 182,-6 -21,-20 35,-35 -99,-19 -29,3 -79,4 -83,25z"/> <path class="fil0" d="M6729 8716c84,1 183,9 250,-16 -56,-17 -201,-9 -250,16z"/> <path class="fil0" d="M8941 6786c-37,-52 -29,-5 -68,-74 -17,-30 -44,-66 -45,-90 -21,18 -71,-60 20,90 22,36 36,74 93,74z"/> <path class="fil0" d="M3942 9453c13,7 -31,24 78,-1l71 -11c26,-7 19,-7 32,-16 -15,-9 29,-29 -89,-3 -35,8 -60,16 -93,30z"/> <path class="fil0" d="M3246 9800l384 -50c-92,-3 -318,13 -384,50z"/> <path class="fil0" d="M3754 9304c48,3 233,-30 274,-46 -43,-30 -238,39 -274,46z"/> <path class="fil0" d="M6405 9014c64,2 93,-1 146,-8 94,-12 101,14 154,-27 -65,1 -253,19 -300,34z"/> <path class="fil0" d="M6243 10118c-5,-58 -27,-141 -72,-170 5,51 32,138 72,170z"/> <path class="fil0" d="M5702 10734l148 -6c-6,-7 12,-64 -108,-19 -57,21 -15,1 -40,24z"/> <path class="fil0" d="M4350 8822c-5,-38 -10,-51 -14,-81 -11,-84 7,-31 -22,-71 -8,16 -22,20 -7,82 18,79 32,60 43,70z"/> <path class="fil0" d="M6178 8733c54,16 229,-29 283,-38 -113,-7 -189,19 -283,38z"/> <path class="fil0" d="M5202 11022c4,0 183,-26 221,-53l-167 20c-86,23 -22,-4 -54,33z"/> <path class="fil0" d="M3592 7566c37,-21 64,-89 69,-123 -81,35 -23,7 -50,58 -33,63 -9,-8 -25,30 -23,55 5,35 5,35z"/> <path class="fil0" d="M6567 10814l65 28c1,-54 8,-13 -3,-47 -16,-52 -10,-23 -23,-41 -31,23 -38,14 -39,60z"/> <path class="fil0" d="M3703 9522c45,11 105,9 140,-13 -50,-30 -100,-24 -140,13z"/> <path class="fil0" d="M4309 9917l160 -11c-2,-2 4,-51 -116,-12 -39,12 25,-14 -23,9l-21 15z"/> <path class="fil0" d="M8581 8550c54,6 149,108 202,121l-149 -120c-70,-55 -39,-16 -53,-1z"/> <path class="fil0" d="M5620 9183c14,-19 12,22 22,-48 1,-10 0,-54 0,-65 0,0 -72,15 -21,113z"/> <path class="fil0" d="M9453 9550c53,7 132,-25 156,-82l-156 82z"/> <path class="fil0" d="M8776 10675c43,29 100,15 139,-15 -60,-3 -89,-14 -139,15z"/> <path class="fil0" d="M5462 9215c79,-7 30,-37 14,-93 -29,45 -32,36 -14,93z"/> <path class="fil0" d="M3557 9355c41,14 126,-8 159,-27 -46,-2 -140,-6 -159,27z"/> <path class="fil0" d="M4828 10607c64,-18 24,-12 66,-48 66,-56 18,31 58,-52 -70,23 -100,52 -124,100z"/> <path class="fil0" d="M9092 11161c12,19 -15,15 12,21 9,-8 17,-16 26,-24 4,-4 7,-8 11,-12 -14,0 -30,4 -49,15z"/> <path class="fil0" d="M6512 8169l273 -18c-59,-25 -217,1 -273,18z"/> <path class="fil0" d="M8584 8307c-5,-32 -11,-56 -18,-78 -16,-56 11,-10 -27,-53 0,69 -9,99 45,131z"/> <path class="fil0" d="M5533 10955l144 -14c0,0 -16,-56 -122,0l-22 14z"/> <path class="fil0" d="M6814 8897l248 -17c-60,-26 -223,5 -248,17z"/> <path class="fil0" d="M6696 9863l-199 9c36,14 51,10 95,11 136,3 80,-1 104,-20z"/> <path class="fil0" d="M3706 7391l194 -64c-95,2 -137,16 -194,64z"/> <path class="fil0" d="M3822 8853l184 -1c-41,-21 -167,-31 -184,1z"/> <path class="fil0" d="M3312 9398c67,-1 105,3 142,-29 -53,-2 -110,-4 -142,29z"/> <path class="fil0" d="M3828 9383c29,7 66,11 109,-27 -66,-9 -68,-17 -109,27z"/> <path class="fil0" d="M3529 9535c15,13 -17,16 38,19 46,3 71,-11 98,-34l-136 15z"/> <path class="fil0" d="M6344 8828c34,19 -12,18 40,14 44,-4 31,-14 44,-42 -10,1 -33,-1 -41,2 -41,12 -19,2 -43,27z"/> <path class="fil0" d="M6456 8434c79,-2 124,-10 190,-34 -80,0 -129,7 -190,34z"/> <path class="fil0" d="M6329 10285c-9,-46 -25,-88 -56,-117 -19,38 31,92 56,117z"/> <path class="fil0" d="M8289 7334c53,-4 39,-12 46,-16 5,-54 -55,-72 -46,16z"/> <path class="fil0" d="M8226 11411c10,6 -22,18 46,17 73,-1 1,4 36,-17 -44,-29 -31,-32 -82,0z"/> <path class="fil0" d="M8975 6917c-2,-42 -14,-43 -31,-78 -11,-23 -5,-10 -11,-27 -13,15 -50,-1 3,60 18,21 27,28 38,44z"/> <path class="fil0" d="M3964 7411c13,9 3,24 87,28 -61,-82 -85,-29 -87,-28z"/> <path class="fil0" d="M8233 11466c3,3 -17,20 40,19 43,0 14,-4 35,-19 -32,-20 44,-20 -46,-16 -28,1 -20,10 -29,16z"/> <path class="fil0" d="M4263 6348c38,-11 40,0 50,-25 16,-39 5,-19 -26,-43l-24 68z"/> <path class="fil0" d="M9163 9208l96 23c-82,-94 -95,-24 -96,-23z"/> <path class="fil0" d="M5066 10189c24,-3 70,-23 104,-42 -44,-27 -81,10 -104,42z"/> <path class="fil0" d="M4919 6272c23,17 -9,15 37,19 63,6 7,3 32,-19 -68,-50 -64,-3 -69,0z"/> <path class="fil0" d="M6523 8825l135 0c-13,-6 2,-3 -21,-12 -36,-15 -90,-11 -113,12z"/> <path class="fil0" d="M6149 10136c-11,-37 -13,-37 -20,-65 -3,4 -50,-17 -20,46 7,16 25,15 40,19z"/> <path class="fil0" d="M9509 8569c45,1 69,16 123,19 -18,-14 -50,-34 -81,-34 -58,0 -16,-2 -42,16z"/> <path class="fil0" d="M3731 9065c20,-1 54,0 72,-3 38,-7 4,12 40,-23 -29,1 -106,-1 -112,27z"/> <path class="fil0" d="M5634 5979c7,-10 13,21 14,-27 1,-36 0,-19 -14,-42 -17,22 -16,-36 -17,30 -1,65 16,39 17,39z"/> <path class="fil0" d="M5285 9522c-5,-3 16,-17 -36,-8 -64,12 18,-17 -36,21 8,4 -9,19 45,10 40,-7 14,-5 27,-24z"/> <path class="fil0" d="M5382 9272l-17 -107c-32,37 -19,81 17,107z"/> <path class="fil0" d="M6538 10089l117 6c-20,-13 11,-22 -64,-23 -38,0 -38,7 -53,17z"/> <path class="fil0" d="M3786 9950l112 5c-24,-44 -78,-24 -112,-5z"/> <path class="fil0" d="M5483 8299c62,-8 52,-2 68,-55 -46,13 -45,22 -68,55z"/> <path class="fil0" d="M8591 11561c16,3 21,0 40,-1 -13,-14 32,-66 -70,-10 10,6 8,8 30,11z"/> <path class="fil0" d="M4276 9990c94,5 74,7 106,-10 -29,-17 -52,-12 -106,10z"/> <path class="fil0" d="M6551 10726c23,-40 21,-32 -14,-49 -29,42 -31,34 14,49z"/> <path class="fil0" d="M8886 9133c34,-5 53,13 78,23 -3,-3 -16,-22 -30,-31 -70,-49 -42,1 -49,8z"/> <path class="fil0" d="M6719 9344c70,8 95,20 135,-14l-135 14z"/> <path class="fil0" d="M5495 8633c20,-23 20,39 14,-38 -2,-19 -9,-27 -14,-37 -18,28 -15,40 0,75z"/> <path class="fil0" d="M5593 9732c0,0 20,18 48,5 27,-13 9,0 23,-38l-71 33z"/> <path class="fil0" d="M8690 11480c-46,-16 -34,-12 -74,6 7,3 1,15 44,10 64,-6 3,3 30,-16z"/> <path class="fil0" d="M6775 8615l106 1c-9,-23 11,-26 -42,-18 -12,2 -50,12 -64,16z"/> <path class="fil0" d="M4192 7215c49,-18 34,-6 50,-51 -36,7 -43,17 -50,51z"/> <path class="fil0" d="M5399 9605c13,8 -21,31 32,7 21,-10 10,-5 24,-35 -48,14 -29,4 -55,28z"/> <path class="fil0" d="M7883 7578c0,0 31,21 65,-14 -53,-24 -43,-6 -65,14z"/> <path class="fil0" d="M8675 9367c-18,-51 -28,-25 -28,-61 -22,17 -58,-23 -11,34 5,6 34,24 39,27z"/> <path class="fil0" d="M9955 10505c30,17 -34,15 43,17 48,1 30,-1 52,-13l-94 -3z"/> <path class="fil0" d="M4040 10111c64,3 92,9 136,-20l-136 20z"/> <path class="fil0" d="M4870 9697c3,7 -15,20 42,19 27,-1 32,-11 36,-14l-78 -5z"/> <path class="fil0" d="M7868 10260c5,-64 2,-6 -12,-31 -9,13 -23,26 0,53 26,-28 6,48 12,-22z"/> <path class="fil0" d="M8842 10078c-79,-19 -19,24 -19,33 20,-19 11,-4 19,-33z"/> <path class="fil0" d="M3605 9954c12,9 23,13 45,11 58,-4 16,4 52,-14l-97 3z"/> <path class="fil0" d="M6371 10176l-5 -53c-4,8 -61,-6 5,53z"/> <path class="fil0" d="M3448 9569c16,0 20,3 32,-1 31,-12 17,-6 36,-22 -67,4 -23,-10 -69,24z"/> <path class="fil0" d="M5134 5815c0,-5 -1,-15 -2,-18 -12,-34 -2,-8 -12,-24 -44,59 -11,31 14,42z"/> <path class="fil0" d="M4940 9828c18,12 -9,16 27,12 28,-3 12,-3 26,-13 -12,-6 -26,-18 -52,1z"/> <path class="fil0" d="M6889 10802c56,10 48,-2 63,-29l-63 29z"/> <path class="fil0" d="M6205 10231c-1,-4 -5,-18 -6,-21 -6,-33 -1,-4 -5,-31 -13,18 -22,-25 -13,25 2,12 12,18 23,26z"/> <path class="fil0" d="M7184 7971c41,-39 17,38 17,-19 0,-49 22,18 -12,-32l-9 21c-3,55 -1,-7 3,30z"/> <path class="fil0" d="M9391 8793c67,-11 11,-1 36,-22 -81,2 -20,-3 -36,22z"/> <path class="fil0" d="M6468 8898l52 13c-28,-40 20,-18 -23,-23 -5,-1 -28,9 -29,11z"/> <path class="fil0" d="M4898 10374c-33,23 -29,10 -41,62l41 -62z"/> <path class="fil0" d="M5215 9176c40,15 42,12 67,-6l-67 6z"/> <path class="fil0" d="M6831 10786c45,-6 24,2 49,-23 -18,4 -42,6 -49,23z"/> <path class="fil0" d="M8106 7335l4 -29c-29,11 -41,19 -4,29z"/> <path class="fil0" d="M4496 9147c30,-4 27,-5 39,-14 -7,-5 7,-17 -14,-7l-17 10c-2,2 -6,7 -9,11z"/> <path class="fil0" d="M6696 9541c-38,-29 3,-18 -66,-21l66 21z"/> <path class="fil0" d="M7786 8220l36 -47c-66,28 1,-23 -22,12 -21,32 3,5 -14,35z"/> <path class="fil0" d="M8844 9078c-9,-40 4,-7 -27,-25 30,47 -27,-1 27,25z"/> <path class="fil0" d="M5610 9800l33 -14c-32,-14 -13,-8 -33,14z"/> <path class="fil0" d="M5429 8069l38 -6c-20,-16 33,-19 -13,-8l-25 14z"/> <path class="fil0" d="M8996 9953c57,-3 0,2 26,-14l-19 2c-1,1 -4,8 -7,11z"/> <polygon class="fil0" points="3984,9347 4045,9349 "/> <polygon class="fil0" points="3704,8428 3766,8431 "/> <polygon class="fil0" points="8614,9793 8627,9763 "/> </g> </g> </svg>