<?xml version="1.0" encoding="UTF-8"?>
<svg width="8.5in" height="11in" clip-rule="evenodd" fill-rule="evenodd" image-rendering="optimizeQuality" shape-rendering="geometricPrecision" text-rendering="geometricPrecision" version="1.1" viewBox="0 0 8500 11000" xmlns="http://www.w3.org/2000/svg" xmlns:xlink="http://www.w3.org/1999/xlink">
 <defs>
  <style type="text/css">.fil0 {fill:black}</style>
  <clipPath id="m" clip-rule="nonzero">
   <rect x="4458" y="-1308" width="344" height="6600"/>
  </clipPath>
  <clipPath id="n" clip-rule="nonzero">
   <rect x="5573" y="4729" width="1604" height="354"/>
  </clipPath>
  <clipPath id="q" clip-rule="nonzero">
   <rect x="9208" y="4760" width="2833" height="323"/>
  </clipPath>
  <clipPath id="r" clip-rule="nonzero">
   <rect x="4458" y="-1308" width="344" height="6600"/>
  </clipPath>
  <clipPath id="s" clip-rule="nonzero">
   <rect x="5573" y="4729" width="1604" height="354"/>
  </clipPath>
  <clipPath id="t" clip-rule="nonzero">
   <rect x="9208" y="4760" width="2833" height="323"/>
  </clipPath>
  <clipPath id="u" clip-rule="nonzero">
   <rect x="4458" y="-1308" width="344" height="6600"/>
  </clipPath>
  <clipPath id="v" clip-rule="nonzero">
   <rect x="5573" y="4729" width="1604" height="354"/>
  </clipPath>
  <clipPath id="w" clip-rule="nonzero">
   <rect x="9208" y="4760" width="2833" height="323"/>
  </clipPath>
  <clipPath id="x" clip-rule="nonzero">
   <rect x="4458" y="-1308" width="344" height="6600"/>
  </clipPath>
  <clipPath id="o" clip-rule="nonzero">
   <rect x="5573" y="4729" width="1604" height="354"/>
  </clipPath>
  <clipPath id="p" clip-rule="nonzero">
   <rect x="9208" y="4760" width="2833" height="323"/>
  </clipPath>
 </defs>
 <symbol viewBox="4458 -1308 7583 6600">
  <g clip-path="url(#m)">
   <image x="4458" y="-1310" width="344" height="6602" xlink:href="church_Images\church_ImgID1.png"/>
  </g>
  <g clip-path="url(#n)">
   <image x="5573" y="4729" width="1605" height="354" xlink:href="church_Images\church_ImgID2.png"/>
  </g>
  <g clip-path="url(#q)">
   <image x="9208" y="4760" width="2834" height="323" xlink:href="church_Images\church_ImgID3.png"/>
  </g>
 </symbol>
 <symbol viewBox="4458 -1308 7583 6600">
  <g clip-path="url(#r)">
   <image x="4458" y="-1310" width="344" height="6602" xlink:href="church_Images\church_ImgID4.png"/>
  </g>
  <g clip-path="url(#s)">
   <image x="5573" y="4729" width="1605" height="354" xlink:href="church_Images\church_ImgID5.png"/>
  </g>
  <g clip-path="url(#t)">
   <image x="9208" y="4760" width="2834" height="323" xlink:href="church_Images\church_ImgID6.png"/>
  </g>
 </symbol>
 <symbol viewBox="4458 -1308 7583 6600">
  <g clip-path="url(#u)">
   <image x="4458" y="-1310" width="344" height="6602" xlink:href="church_Images\church_ImgID7.png"/>
  </g>
  <g clip-path="url(#v)">
   <image x="5573" y="4729" width="1605" height="354" xlink:href="church_Images\church_ImgID8.png"/>
  </g>
  <g clip-path="url(#w)">
   <image x="9208" y="4760" width="2834" height="323" xlink:href="church_Images\church_ImgID9.png"/>
  </g>
 </symbol>
 <symbol viewBox="4458 -1308 7583 6600">
  <g clip-path="url(#x)">
   <image x="4458" y="-1310" width="344" height="6602" xlink:href="church_Images\church_ImgID10.png"/>
  </g>
  <g clip-path="url(#o)">
   <image x="5573" y="4729" width="1605" height="354" xlink:href="church_Images\church_ImgID11.png"/>
  </g>
  <g clip-path="url(#p)">
   <image x="9208" y="4760" width="2834" height="323" xlink:href="church_Images\church_ImgID12.png"/>
  </g>
 </symbol>
 <path class="fil0" d="m2024 5987c15 20 22 72 7 95l-7-95zm58-6l22 9c-22 14-20-6-22-9zm179-37c2 3 9 6 9 9 4 14 0 3-2 9l-7-17zm-254 11l-13-49c15 55 18-26 20-43 0 23 9 11 7 89l-13 3zm2732-43c2-9-2-3 4-14 4-6 4-6 9-11 4 26 7 17-13 26zm-1858-32c4-23-2-17 18-20-4 14 0 14-18 20zm-619 63c-31-37-27-14-38-43s-9-32-46-37c-55 43 0 32-58 66 18-89 35-86 84-80 11-32 9-20 18-26l40 121zm-199-43l-7-63c2 3 4 3 7 3l4 6v-32c7 32 18 69 4 98l-2-57c-13 23-4 11-7 46zm2693-46l35-106c11 20 31 124 42 158-44-17 18-9-46-63l-31 11zm-71-17l15 26c7 6 18 14 2 37-4-11-7-23-11-37-7-14-18-20-7-26zm-2434-26l35 37c-2 6-2 6-2 9-2 3-7 0-15 20-9-14-11-20-13-32-2-32 4-3-9-29l4-6zm-252 23c-9-20-2-20 0-46 13 29-2 9 20 23l-7 11c-20 20-7 17-13 11zm270 43c2-3 15-9 18-9l22 14c2 0 4 3 4 3l-20-69c-9-26 0-14 7-17 9 17-2 14 15 29 2 3 4 3 4 3s2 3 4 3c2 80 13 75-13 126l-42-83zm-111-72l27-78c2 6 2 6 7 17l15 52-29-9-20 17zm124-26c18-3 4 0 22-9 24 17 22 11 20 49-20-26-4-29-29-34-13-3-4 6-13-6zm-243 23l-2-49h7c0 11-2 34-4 49zm794-49c31 0 55 9 71 26-18 0-18-6-33-11-15 9-7 0-18 11l-20-26zm-518-9c4 6 11-3 2 17l-2-17zm639 52h-18c-2-26-7-29-20-40l55 3c-4 14 2 6-9 20 29-14-4-14 29-23l148-3c13 17 13 14 49 14l4-9c2 0 2-3 4-3 18-11 66-6 86-3l-230 55c-38 11-44 26-77 14 0 23 4 20-29 26 7-17 9-14 18-20-4-17-4-11-11-32zm-542 14c-2-3-2 6-7-11-4-17 0-17 2-29v-11c4-23 31-20 62-14-31 26-51 9-58 66zm-113-83l15 3c-31 17-13 0-15-3zm-283-72c9 6 4-6 9 9l-9-9zm619 9l9 17c22-9 15-14 31 3l-44-3c-2-17-7-9 4-17zm1157 20l4-17c18-11 58-6 77-9h15c15 0 166-3 166 6 2 3 4 6 7 6l2 3-237 11c-20-3 2-3-13-3l-22 3zm-51-20l-18 20c-27-6-15-6-44 0 7-17 7-14 20-26 18 17 15 14 42 6zm-962 9c9-6 0-11 15-3 2 0 11 11 13 14-29 3-15 6-29-11zm-270-17c0 3 13 0 0 20-15-20-11-11 0-20zm-42 11c0-3 0-11 13-3 11 6 9 11 11 17-31-6-13 6-24-14zm-533 0c0-6 9-11 7 0-2 9-7 9-7 0zm2263 3c2 9 15 20-31 17l-24-9c2-3 2-6 4-3 0 0 2-3 4-3h15c-18-20-7-9-4-14h24v3c2 9 7 9 11 9zm-113 9c13-29 38-26 49-3-15 0 0 3-15-3l-11-6c-4 6-4 14-4 14-15 11-18-3-18-3zm-343-14c15-9 22-6 46-6l-11 26c-15-3-27-11-35-20zm-889-9c27 0 22 0 35 14 24-17 11-14 60-14h602c11 9 2 0 9 9v3l2 3c64-29 13 14 53-11l2 26c-33-14-15-20-44-6-18 9 4 3-22 6h-577c-7-6-2 3-11-9-13 20-35 11-97 11h-24l9-17c0-3 4-14 4-14zm-46 6l29-3c-7 20-7 11-20 26-4-17 0-6-9-23zm-35 20h-53l13-3c18-29 7-3 31-11l11-6c-11 32 7-6-2 20zm-766-9c-2-3-2-6-2-6 0 3-2-3-2-3 0-11 0-6 2-11l2 20zm-55-14c4-6-4-9 11-9 18 3 11 9 13 9-9 9-7 17-24 0zm1677-3c42 3 18 11 55 3-2 0-9 11-9 11l-7 9c-2 3-2 3-4 3 0 0-7-6-7-9l-7-11c-2 0-2-3-4-6-15 20-11 14-18 0zm-1049 11v-11c24 3-7 14 42 0l-4 23c-27 9-58-3-88 0 9-14 7-20 29-26l2 3c0 3-18 11 20 11zm-159 11c-29 3-20 6-27-20 18-11 9 0 11 6 11 17 0-9 15 14zm-259 40l-24 20 20 9c-9 29-4 26-24 37 2 17 7 17-2 34-24 49-27 89-46 112-2-43 2-92 2-141l-11-138c55 11 51 0 102 0-13 23-4 34-15 66zm-117-6l-11-60 33 3c-4 9-4 9-7 23-2 23 4 11-4 29l-2-49s-2 0-2 3l-4 23c-2 9 0 14-2 29zm2679-66h29c-7 3 11 6-13 6-27 0-9 0-15-6zm124-26c9 46-20 29-38 23 24-9 24-3 38-23zm-2485 9c-7 3 0 6-15 9h-24c27-26 35-11 40-9zm1615-34c38-17 11-3 31-29 15 17 24 40 20 60h-49l-2-32zm-55 6c7-20 4-6 29-29 0-3 2-3 4-6l7 23c0 3 2 3 4 3 0 3-2 20-2 20-7 17-4 14-42 14v-26zm-53-9l24-23c11 29 13 17 15 57l-38 3-2-37zm-622 9c11-32 7-3 27-37 24 23 22 34 20 57l-46 3v-23zm-58-20c18-6 13-3 24-17l4 9s4 3 4 6c13 17 11 11 7 43l-44 3 4-43zm-102-6c18-6 13-9 31 0l9 34c11-6 2-23 11-37l2 49-62 3 9-49zm88 0v49l-27-6 2-52c18 9 7 6 24 9zm-148 37v-29l15-14c11 3 13 6 24 11v40c-18 3-42 9-40-9zm-150-26c7-3 9-6 13-9l15-14c13 20-4 6 20 11v43h-51l2-32zm-60-3l24-14c4-3 4-3 13-9 2 20 9 32 7 55l-46 6 2-37zm-119-3l33-23c24 32 18 11 20 60l-49-3-4-34zm-290-17c20-6 7-9 24 0 11 17 7 32 7 57h-40l9-57zm-66 11c13-11 13-11 29-17 22 23 18 9 18 66 40 3 82 3 131 3-9-14-11-29-9-52 9-3 20-9 29-17 4 6 7 6 9 20 4 17 2 17 2 34l-18 11h55c38 0 22 3 49 11 29-17 93-11 128-3-24 3-20-3-35 11l-316 3c-33 0-93 11-122-9h82l2-17h-35l2-46zm226 43c0-32-7-43 38-60 9 29 29 20 13 57l-51 3zm-239-49v49c-77 14-51-43-24-63 13 6 4 3 13 9 2 0 4 3 11 6zm126 0l11 6c9 0 9-11 18-14 13 20 13 29 11 57h-42l2-49zm228 46l-42 3v-49h42c7 26 4 23 0 46zm-431 195l-7-11c-15-37 2-17-22-34-2-29-4-14 4-34-27-11-33-29-27-57l-15-6c13-9 7-6 24-9 13-3 9 3 24-11h-42l9-14c-44-3 2 20-95 11-33-3-22 3-33-14 7-17 2-11 13-17-9-9-7-3-11-20 33 9 9 3 33 23 11-14 29-23 40-29-7 14-9 14-7 23 29-29 11-20 97-20l11 17c4-32 0-17 18-29l-4 34h2c4 14 2 0 7 0l4 17c-11 3-7 0-18 3l-2 26c-18 6-9 0-20 9 4 14 15 43 22 57 35-23-2 14 24-46-22 9-9 9-29 3 4-17-4-3 7-17 7-11 0-3 9-11l11 14c7 11 2 6 13 11l4-9s0-3 2-3l4-14c7 9 9 3 4 23l-4 14c-4 0-7-6-18 0 11 23 15 6 27 23h-33c-4 17 2 11-18 23-18 9-18 3-20 23 11 0 4 3 20-9 27 23 18-6 40 14l-35 6c7 43 15 26 18 63-22-6-13 0-13-26l-20 3zm551-190h-38l4-40c11-6 13-9 22-20 18 20 18 26 11 60zm1241-57c-9 20 4 6-13 14 4-20-9-9 13-14zm-75 6c18-11 11-3 18 0-11 9 0 17-18 0zm-40 0c0 3 0 9-9 11-22 6-4 3-13-6 9-14 4-14 22-6zm-64 14c2-17-2-9 9-14l-9 14zm-549-3l15-6c9-14 2-3 9-11 4 20 4 20 24 32 44-43 106-34 190-29 64 0 100-6 162 3 7 0 27-3 44-3 7 14-7-14 2 6v3l4 6c24-20 9-14 73-14l11 60h-374c-29-6-11 3-18-14l-9 9c-9 6-18 9-27 3l-7-6c-4-11-2-3-4-14l-13 23c-38-6-18 6-33-6l-11-11c-2 17 0 17-42 14l2-43zm38-11c11-9 0-6 22-6-9 17-4 20-22 6zm-38 11c-29-3-11 6-24-11 9-6-2-9 29-6-9 14-2 9-4 17zm1239-23l-2-26c15 0 135-3 137 3l15 14c13 14 11-6 9 23-22 9-131 6-148-3-18-6-4-3-11-11zm-471 20c7-11-7-9 9-11 22-6 0-3 11 6l-20 6zm-825-11c-15 11-13 9-29 6 9-9-2-9 13-9s4 0 15 3zm-82 9c11-14-2-11 18-6l-18 6zm-221-9l4 20c0 11-2 23-2 34l11-40c18-9 11 0 29-17 22 20 42 57-18 60-22 0-11-3-27 6 2 3 0 23 35 14-40 3-53 6-77-14l40-9 4-55zm-24-6c15 23 0 20-2 20-4-17-11-11 2-20zm-64 11c2-14-7-9 15-11-7 11 0 3-15 11zm-943-6c0-3 13-11 4-3 0 0-7 9-4 3zm2797-32l133 3c20 26 2 29 27 34-38 6-119 11-148 0l-11-37zm-1909 29l13-3c-11 6 2 11-13 3zm-62 0c2 0 2-3 4-3h18c-11 11-9 17-22 3zm-46 3c-13 0-7 3-15-6 27-11 11 3 15 6zm-86-9h20c-13 23-9 14-20 0zm-66 6c18-11 2-6 27-6-9 11-13 29-27 6zm-51 6c4-14-11-11 13-9-18 20-2 0-13 9zm-44 0l-11-3 15-6c-9 3 0 0-4 9zm-46-6c-20 6-13 3-20 0 2-3-13-17 20 0zm-80 6c-4-6 0-6-4-11 38-3 7-3 18 6l-13 6zm-367-17c2-3 4-6 4-3l2 14c-9-9-2 3-7-11zm122 0l-9 3c-11 9 0 3-9 6 2-17 4-14 18-26v17zm-86 14c7-20 4-17 20-26-4 14-7 20-20 26zm-35-14l-22 17c4-17 9-23 24-34l-2 17zm75 6l13-26-13 26zm420-34c82 0 153 0 232 3 42 3 84 0 126 0h91c38 3 18-3 27 14l-454-6c-40-3-15-3-22-11zm2073-9c0-6 9-3 7 3 0 3-7 11-7-3zm142-49c33 6 20 14 27 49h-35l9-49zm-64-11c2 3 4 3 7 11 15 32 7 52-27 52 0-46 0-34 20-63zm-2471 20c4 6 4-11 7 17 2 23 0 14-7 20-9-14-7-23 0-37zm-137-9c9 20 11 23 9 46h-24c0-14-4-6 2-23 0 0 4-9 4-11 11-17 2-3 9-11zm84 86c0-3 2-6 2-3l15-17h95c46 0 49-9 84-9 0-20-2-11-2-29 15 40 55 26 166 29-4 11 13 11-42 11h-113c-13 0-20-3-40 6 9 17 9 9 15 29l-184 3 2-20zm133-83c2 3 9-3 7 23-4 32-2 14-13 20-2 0-15 9-11-26 4-26 7-14 18-17zm-33 0c11 14 7-6 9 17 4 23-4 20-7 23-11-14-11-17-2-40zm-29 3c22 14 15 26 4 40-13-11-13-17-4-40zm-119 0s9-3 9 20c0 37 0 9-9 20-9-6-15 11-13-20 2-9 11-17 13-20zm2699 49l-24-3c-2-6-7-9-4-32 4-17 4-14 13-23 24 37 2 32 15 57zm-2487-49v43c-13-6-18 0-20-17-4-29 7-23 20-26zm2560-14c7 9 15 26 13 40-2 37 4 6-9 20-2-3-2-3-4-14-4-32-9-40 0-46zm-181-3c15 6 15 3 29 6l2 55h-29c15-29 2-34-2-60zm-2356-17v43c-2-3-9 0-11-20s4-17 11-23zm2423 17s-7 11-4 0c4-11 4-6 4 0zm-2120 6l-7-20c11 9 9 0 7 20zm-473-52v32-32zm-111 29c-7-98-4-201-4-299 0-55-11-230 18-250 0-3 4-6 7-6 0 0 2 0 4-3 7-3 0 0 9-6 20 26 35 78 38 112l-2 302c-2 46 4 101 0 149h-69zm-46-9c-2-34-9-147 2-170l4 172c-7 3-2 0-7 3l-4 3c0 46 7 60-9 75l-2-129c4 6 2-6 7 14v6l9 26zm268-9v-32c15 20 11 17 13 49-9-6-9 9-13-17zm2440 0c-9-9-4 11-9-17l4-141 9 149c0 11 4-3-4 9zm-1898 17c7-23-2-20 7-34 9-11 13-6 29-3-7 20-15 32-35 37zm1489-34c-13-23-11-26 7-37 4 9 9 9 7 23-7 23-4 9-13 14zm-1427-11c-4 11 2 6-11 11 11-11-15-9 11-11zm-248-14c9 11 7 6 7 20-11-14-2 0-7-20zm1958-402l4 325c2 49-9 210-2 247 2 29 15 23 7 69-11-34 2-57-29-60l-71-3c-24 0-80 6-100-6 53-3 128 9 175-6-55-6-1002 9-1164 3l-294-3h-49c-24 3-31 3-49-6 9-9-15-6 20-9h168c66 0 131 0 195 3l383 3c126 0 254-6 385-6s265 3 396 3c13-34 11-215 11-273 0-49-9-256 13-282zm62 442c-7-34-4-230 0-267 11 20 0 43 9 66l13 138c0 78 9 49-11 63v-43c-11 20-7 23-11 43zm-1551-40l-13-9c27 6 2-3 13 9zm1124 11c9-11 2-11 15-23-11 17-2 14-15 23zm-1376-11c-2-3-4-9-4-9l-7-14c7-11 11-14 15-29l2 3c13 17 15 17 18 32-20 14-4-23-20 23l-4-6zm-146-78l2 20 13 3 7 43c-13-3-7 0-18-6 7 20-9 6 13 17 4 3 13 3 18 6 4-11 2-6 0-26 27 6 29 3 49-9 11 23-9 6 7 23 15-17 11-14 15-40 18 17 4 9 24 14l-9 52c-22-9-13-11-40-3l-11 32 24-11c-4 32-9 11-15 46 9-9 13-14 33-11l-22 32c-15-9-35-6-49-20l-40-29c2 0 2-3 4-3l15-32c-29-3-24 3-40 20-29-23-22-101 18-118zm2e3 106c-7-14-11-57-11-75 0-29-4-60 7-80 11 40 4 109 4 155zm-372-57s-2 9-2 11c-9-17-4-17-27-9l4-29c27 11 22 14 24 26zm-2144-83c2 11 9 37 9 52 0 14-7 26-7 32 0 34 0 14 13 20l7 52c2 32 0 11-9 17v-63c-13 17-9 6-11 29-2 14 2 11-4 26l2-164zm611 72c-20 6-13 9-18-11 29 0 11-9 18 11zm-33-9l-4 6 2-14c0 3 2 0 2 9zm1438-9c7-29 0-14 11-20l-11 20zm-1560-9c2-11 7-9 18-14-9 11 11 6-18 14zm77-29v17h-18c7-23-4-20 18-17zm91-6c24 9 35 9 40 40l-55-20 15-20zm-535 46c0-17-2-20 7-34l-7 34zm2560-351v463c2 6 29 14 27 63-2 29-2 17-15 23v-72c-11 9-13-3-11 37 2 20 4 20-4 34-42-14 13-63-38-78l-20-3c-2 0-4-3-4-3l53 3c-2-37-4-78-2-118 2-29 9-14 7-43-9-46-2-287 9-307zm-708 437c-9 6-7 6-18 9-40-52 0-118 2-132 0-17-2-20 27-20l2 37c-33 11-27 14-29 26 15-20 9-3 29-3v-26l22-9 7 20c11 17 38 32 58 14-2 55-27 26-31 57 0 3 2 3 4 3l4 6h4c7 6 11 6 20 9 11-6 7-9 18-17l9-3c0-3 2-3 2-3v-34c-7-23-9-14-11-17-31-34 9 17-9-11l-13-26h33c20 17 38 55 24 83-18 40-13 55-53 69l7 9c-55 17-24 6-80 6-7-23-13-32-29-46zm-1358-132c0-3 11-17 15 3l-15-3zm-49 6c2-3 2-6 9-9 11-6-13 0 11-3s15 3 18 3c0 3 2-3 0 11 0 0-2 9-4 11l31-6-7 23-9-14c-13 9-7 6-24 11-15-26-9-11 0-26l-24-3zm-573-26c18 23 9 155 7 187l-7-187zm2040 26c-24-9-20 3-31-26 33-6 58 0 75 17-13 11-24 14-44 9zm95-20c22 49 20 17 31 52-38-3-15-11-42-37-31-34-31-29-29-49 22 3 33 17 40 34zm-1772 109c-2-37-7-106 7-138 2 9 2-3 2 14l-9 124zm162 132l-18-17c9-32-2-34-4-66 18 9 7 3 18 23 20 29 55 46 91 52 66 14 62-9 89-23 7-3 2 3 13-9 33-29 51-126 9-175l-7-6c-18-17-13-26-42-34-11-6-27-9-31-9-11 0-22 6-33-11 24 3 73 11 95 26 20 14 13 20 22 37 7 11 20 17 33 26v20c0 14 4 11 7 17 7 17 2 6 7 23 0 3 0 3 2 6l7 11c-24 26 13 14-22 69-15 23-29 34-49 52-58 3-137 9-186-11zm62-261c-13 14-7 0-9-3-4-11-2-6 13-11-2 9 2 6-4 14zm1124 124c11-14 20-17 31-34l82-115h60c-9 32-44 52-46 152l-126-3zm-896-172l15 34c-15-6-9 3-15-14-4-14 0-11 0-20zm-290 310c7 29-35 9-44 3-15 14-46 9-95 6l2-175 29-3c-11 43 24 29-4 55 20 14 15 9-2 26 42 6 7 20 49 63-102-207 113-371 279-256 42 29 86 124 82 167-2 20-27 83-35 103 22-23 49-92 49-109 0-14-9-26-7-46 38-3 73-6 86 37-38 9-49-6-75 9l82 3c35 3 44 43 82 57 18 6 51 26 77 37l86 34-272 3v-34c-22 0-9 3-24-9v-52c20-6 20-9 49-6l-13-26c-4 14-4 9-11 14l-22-11c-11 23-24 17-11 49-2 3-4 3-4 3l-18 9c7 11 0 0 9 11 15 20 13 23 11 49l-80-6-2-3-2-9c-11 17-7 17-29 17 9-14 58-37 64-149-27-26-33-78-60-103-55-60-131-75-206-40-2 0-9 3-13 3-29 14-51 55-64 80l-15 20c-2 3-2 3-4 3 2 46-2 75 11 112s11 17 33 32c13 11 22 23 35 32zm-155-313c-9-17-4-46 2-69l-2 69zm131-52c11-11-15-9 20-11l-20 11zm1420-14s-7 6-4 0c0 0 7-11 4 0zm-1389 0c0-17 0-14 9-26l15-20c9 20 9 6 9 29-11 11-15 11-33 17zm1974-66c13-9 2-6 15-23 4 29-7 89-18 109l2-86zm-232 11c2 17 7 23-2 55l2-55zm-1688 6c4-6 15-9 24-11 18 17 15 23 4 40l42-3c-18-23-18-3-22-37 24 6 46 37 64 55-35 3-73-6-119-3 7-6-7-6 22-11l-15-29zm1894 445c-20-11-13-29-9-55 4-29 4-43 4-72-2-43 9-103 4-144 0-20-7-37-7-66 0-11 2-26 2-34-2-20-4-6-4-29 0-32 7-103 13-132 2 80 4 152 7 256 2 32 13 250-11 276zm-1969-471l33 29c-46 17-2 14-44 37l11-66zm2e3 -37c2 6 7 0 2 14-7 23 2 0-9 11l7-26zm-2002-32c15-9 0-9 20-3 11 60-24 66-27 29l7-26zm-646 80c-2-14-2-32-4-46-4-40 4-34 7-37l-2 83zm2690 184c-15-29-15-34-15-78 0-46-4-190 13-224 4-9 4-9 9-14 20 9 51 14 75 26 7 63 2 43-22 49l24 14-2 207-33 6 2 170c11-37 4-89 7-132l24 26-15 11 24 14c-2-32-11-60 0-86l4 23c0 11 2 20 4 32l9 126-20-92c-4 6-2-9-7 14l2 83c-13-14-11-11-11-37h-7c0 34 7 37-27 40 0-49 11-172-11-198-20 3-22 3-29 20zm-46-264c2-6 4-9 7 0 0 6-7 9-7 0zm-2341-29c18 32 4 193 4 244 2 43 13 224-4 247-9-11-2 6-7-11l-2-437c-2-57 4-37 9-43zm1934 155c9-34 0-129-2-172 24 9 13-17 24 17 4 17-2 6-7 26l-2 14c-2 11 0 3-2 17 20 9 7 9 22-9l-15 40c-18 6-4 0-4-3-2 20 4 26 11 40 15 32-4 32-4 32l-20-3zm-2095-141c-7-9-7-6-2-23 9 11 9 6 2 23zm2339-124l2 40c38 32 38 23 49 75 7 26 2 9 11 20l-2-40c15 26-2 9 18 20-4 6-7 11-11 17 18 75 4 307 4 414 0 32 2 106 0 132l-139-3c2-14-9 0 13-14l2-465 49-6c-18-11-40 9-49-17-7-23 2-49 2-69-2-57 29-63 38-75l7-17 2-3c0-3 2-3 2-6 0 0 2 0 2-3zm108 98c13 6 9-3 9 9-13 3-4 3-9-9zm248 129c0-34-4-49 4-95l31-11-7-6c-9-14-15-34-7-49 11 20 0 17 22 29 2 29-2 55 0 78 2 40 9 43-11 63 24 11 9 0 11 29 2 14 4 23 4 43 0 60 2 227-4 270l-44-3c-13-106 0-250 0-348zm-2162-152c-13 57-58 49-18-9l18 9zm-268-40c15 9 13 9 33 14l2 29c13 6 24 11 35 17l24-11c-7 20-4 23-24 29l2 135c0 11 4 11 7 29h-27c18 9 11 3 27 14v198l-2 138c-2 17 0 34-7 43-18 6-89 3-111-3l-4-190c-4 9-4-3-9 20-4 20 0 3 2 9l-2-46c-11 11-7-11-13 20l4-75c11 23-7 17 13 43 7-11 2 17 9-20l-2-273c9 0 20 3 29 0 27-3 11 3 15-9-29 6-15 6-46-3l2-83 20-37 13 23 9-11zm2285 52c7-55 18-32 35-32 20 0 9-29 15-52 7 9 2-6 11 17l20 55-62-9c2 0 2 3 4 3l11 6c44 17 33-3 44 23-22 14-53-3-80-11zm-2224-52c11 20 4-3 15 20-13 17-2 0-15 14v-34zm1730 20l20 20-20-20zm-31 167c-40-6-7-9-46 3 4-37 9-69 9-103 2-32-7-72-4-95 7 9 13 11 20 20l58 49 4 40c-2 0-9 6-11 6l-7 6c33-6 9-6 20 3-2 32-2 49-15 63l-11 17c18 14 7 3 24 11 9 6 4 3 11 9 11 9 4 3 9 11-73-6-24 0-62-14-7-3-2 3-15-6 9-17 13-11 15-17 0-3 2-3 2-3zm-1812-118l-7-52c0-9 0-6 2-9 9 14 4 37 4 60zm-239-78c7 6 15 6 18 17 4 20-15 26-13 26l-4-43zm2071 14c-11-3-9-3-13-11l13 11zm655-26c2 20 7 9-7 14 0-17-2-3 7-14zm-2113 46l35-49c4 9 7 0 2 32-2 14-4 26-4 40 0 170 51 106-51 132-22 9-2 11-27 9-2-17 2-23 2-32 0-32-13 6-2-69 2-11 0-20 0-34 33-11 24-17 44-29zm195 98c-2-80 0-106 18-172l-18 172zm1998-155c13 14 7 0 9 23-9-9-4 11-11-14-2-14 2-9 2-9zm-522 26c9-26 2-6 24-23 13-9 9-6 15-20 4 32 7 20-40 43zm-2195-6c4-49-7-37 24-49l4 52c4 3 2 3 11 6 58 34 40 129 40 184-2 72 0 172-15 224l-7-75-18-9c-9 55 18 193-2 236-7-6-4 6-7-9 0 0 2-181-4-221-22-3-15 0-33 0v86c-7-29-4-52-9-86-20 17-4 20-11 32l2-34-24-11c0-60 7-124 2-184-4-144 24-118 46-141zm261-40c35 20 35 29 33 52-35-14-33-37-33-52zm-325 23c-33-3-18 3-27-11 2 0-7-11 15-3 15 6 7 6 11 14zm2728-17l-4 6c-4-6-9-6 0-20 4 9 2 0 4 14zm-2434 17c2 6 0-6 2 9-20 3-9 9-20-14-4-9-7-17-4-34 15 17 7 6 15 23l7 17zm2135 43c-18-11-20-17-46-32-2-34 0-20-13-49 15 11 11 9 18 23 20 40 33 20 42 57zm-237 391l-18-32-18-17c-35-40-115-57-166-46-58 11-113 63-122 129 4 6 11 14 15 20 2-14 0-29 4-40 4-23 33-57 58-69 38-14 97-14 126 3-73 3-113 0-148 60-29 55-20 109 20 149 15 17 51 29 75 34 60 9 88-29 108-49 7-9 24-20 27 0 0 9-11 29-13 37-4 9-2 14-4 17-9 29 0 6-11 20l-22-3c-4 14-9-3 2 20-44-3-88 0-135-14-44-14-27-29-49-46l-29-14c20 57 62 46 86 75-221-3-197 9-201-32-15 26 7 17-18 29-15-37-2-55 0-86l31-9c-11-9 18-9-18-6l-4-32c-11 6-4 0-13 9l-2 9c-2 6-4 11-7 17l-44 3c24 17 20-11 44 26l-29 9c18 43 20-14 24 60-58 0-268 11-301 0 20-6 24-6 44-14 24-11 27-6 40-20 77-6 166-106 175-109l126 3c24 20 22 83 66 109-18-43-100-121-7-256 15-20 77-55 115-60 69-9 95 17 139 34-4-17-11-17-24-23-22-11-18-6-31-20-42 0-89-9-122-9l-115 11c22 14 4 3 49 6 24 0 31 3 55 0-4 6-2 3-9 9-4 3-11 6-15 9-18 11-46 40-102 20-2-9-4 3-2-9 2-3 4-9 7-11 4-11 9-20 13-32 4-20 11-43 15-66 7-23 22-98 11-121l-7-11c11-6 31-11 40-17h-29l-4-26c-4 26 0 0-9 14 0-55-7-20 7-63l35-6-42-9-11-40 55-3c22 60 31 201 13 264-7 26-22 46-24 72l75-20 9 20c4-23 2-11 9-23 88-3 133 26 164 26l-7-141 35-3 18 9c15-20 51-23 64 14l-11 6c-4 98 9 86 9 126 0 80-2 55-69 55v9c69 0 58-6 69 14l7-20c11 46 7 124 4 172-2 0-4-3-4-3-4 11-4-57-4-60 0-26 2-49 2-75-2 3-2 0-7 14-4 20 4 72 2 115-4 49-4 95-7 141-20-3-42 0-62-3-35 0-27-17-53-3 13-17 44-29 62-92 18-69 0-83-9-138zm-2345-402c0-26-2-46 9-72 7 11 2 14 2 17-4 60 18 37-11 55zm516-40l-11-29c2 6 11 11 11 29zm-316-32c-2 6-13 46-15 49-4 9-22 17-29 32-4-40 7-34 18-43 11-11 15-23 27-37zm347 14c-2-29-4-34 9-55l-9 55zm20 3l-4-37c-4-20 0-34 2-49 2-29 2-78 9-95 4 11 20 181 18 198-13-6-4 0-15-9l-9-9zm-460-49l7 29-7-29zm142-6c-9 3-11-9-9 3 2-9-4-9 9-3zm-55 6c-2-9 4-6-2-11l13 6-11 6zm407 14c15-9 13 3 27-14 18-17 4-17 27-32l11 11c-9 20-38 49-60 60l-4-26zm1777 95l73-158c0 40 22 60 58 43l20-11c-7 20-2 6-11 23l7 6 2 3c9 9 2 0 9 11-42-14-27-6-31 6-24-14 2-3-15-14-18-11-4 0-18-9-4-3-18-20-27-26-27 37-2 46-20 75-15 23-29 40-33 69l11 34c-13-6-15-6-24-17v-34zm-1923-144c-7 11 2 6-11 9 9-20-2-6 11-9zm2051-20c7-6 9-32 15-6 4 17 0 26-9 40h-42l-7-23c18-14 20-17 42-11zm-2111 0l11 20c-20-9-11 6-11-20zm-139 92c24 17 0 17 31 34 22 14 18 20 35 29 24-6 80-98 84-112-13-11-20-14-27-29 64 37 31 11 62 29-22 17-44 0-55 75-62 29-40 75-80 86-11-55-7-40-42-66l-9-46zm2066-75c-15-9 0 14-13-11 15 9 7-9 13 11zm-1876-11c-7 17 4 6-11 11 9-9-13-3 11-11zm2345-29c2 29 53 190 55 198-22-6-55-37-66-72l-13-6c4-14 0-3 7-14 0 0 4-6 11-14-13 3-11 3-22 3l-9-6c29-9 18-11 33-37-22-9-13-11-40-26-9 29-9 20-24 40l7 23 15-11c-2 32-9 20 7 37-13 11-15 14-24 34-13 26-7 9-27 29-38 34-20 43-40 66-7-6-11-6-18-11l11-20-24 3 18 43c-4 3-11 6-18 11l-13-17c27-46-18-26 29-57 22-14 7 3 20-9 29-57 64-187 88-261 18 11 2-11 18 17 11 20 7 37 20 57zm-2597 78l-18 3c0 11 0 23-4 34-9 26-4 11-11 14-7-11 29-126 35-138 0 23 2 29 7 40-20 11-15 20-18 49l9-3zm498 109c49-52 27-3 44-43 22-52 31-6 44-46 15-49 18-14 42-49 18-23 13-34 44-46-22 72-131 164-164 207l-11-23zm20-181c-13 14-7 11-15 26-20 26-20 6-20 6-4-6-13 9-4-17 4-9 18-23 40-14zm1370 72c-13-11-38-32-42-80 22 40 15 11 55 89 11 23 15 17 24 46 7 29 11 37-7 55l18 9c4 37 9 34-7 52 13 26 7 3 7 20-2 20-2 0 4 26-11 17 4 3-15 20 9 37 2 29 4 60 29 9 22-3 33 17l-82 20c7-17 9-26 13-46 4-14 11-23 18-34-7-29-15-14-7-60 4-20-2-3 13-11 0-6 0-14-2-17l-22-75c13-3 9 11 11 0s4-9-4-23c0-3-22-9-20-43 9-37-13 32 4-11 0-3 2 3 2-11zm843 0l-9-86c-9-46-2-32 9-34l22 161c-11-6-20 6-22-40zm-407-98c-7 17 0 9-9 17-15 0-9-3-29-6l-27 23c-2-17 4-20 9-40 2 0 2 3 4 3 24 26-18 0 9 9l42-6zm-1639 17c0-20-4-9 7-14l-7 14zm1650 63c4-17 4-29 4-46 0-9 2-9-4-20-11-20-7-9-11-14l11-6c4 6 22 40 24 49 9 20-4 26 9 49 11 20 2 3 13 9 11 9 22 49 29 63l-9 6c9 20 7 14 20 32-7 11-9 14-13 23-7-9 0 3-7-11-9-26-7-32-24-60-18-32-11-40-24-75l-18 3zm-577-83h60c18 29 42 83 46 124l-55-6-51-118zm-1239 29c11-32-2-6 4-23 0-9-2-6 4-11 11-6 4 0 15 0l4 11c-40 3 4-3-29 23zm175-29c2-20-2-6 11-17-2 26 0 11-11 17zm-292-34l2 34c-4-11-13-23-2-34zm-128 46l11 40c-9 6 7-3-9 9-11 6-7 3-13 6 20-80-15-49-18-109 24 32 7 34 29 55zm2020-60c-7 11 4 11-11 3l11-3zm-2412-6c-7 17 11 9-15 11 4-26-2-11 15-11zm2429 0l-4 20s0-3-2-3l-11-11 18-6zm-1768 49l-4-14c9-14 13-17 29-32 18-11 15-17 31-26l9 20c-13 11-13 9-20 26l-27-6c0 3 2 6 2 6 7 11 11 6 7 14-7 11-13 9-27 11zm-46-63l-13 11 13-11zm1697-6c-7 11 7 20-18 6 11-11-11 0 4-9 20-11 7 0 13 3zm-1825-6c29-9 27 11 29 20 2 3 4 9 7 11h-42l7-32zm-471 0l-7 11 7-11zm898-11h55c-11 26-60 66-82 126-33-3-24 0-55 0 2-26 51-98 69-118l7 20 7-29zm1606 3c-4-11 0-26 7-37l-7 37zm-221-9c0-3 4-9 7 0 0 6-7 17-7 0zm261-83c0 29 2 23-9 40l9-40zm-2060 86c-15-17-11-69-11-95 29 11 20 14 15 43-7 60 22 43-4 52zm354-106c-9 20-9 23-35 23 0 3 2 9 2 11v6c-24 3-7-3-33 32l-7 6c-24 34-9 14-33 29-15 9-11 11-31 17 7-23 40-46 58-66 53-55 24-40 46-43s13-3 11-11c0-3-2-3-2-6l-2-6c22 0 9-3 27 9zm38 718c-24-20 0-20-29-37 4-14-7-46-13-69-15-52 15-37-20-55-9 37 22 118 24 124 20 49 20 37 15 63 22 11 24 23 33 40l11-20 73 101-80-78 42 69-49-6c-11-17-11-37-22-60-15-40-64-57-64-63-2-3-4 0-7-3l20-11c0-3 2-3 4-3-42 3-128-29-142-26-20 6-51 14-71 20s-44 0-73 3c4 0-4 3 24 6h22c-9 17-4 6-20 17-9 9-15 14-22 20l-38 37-11-9s-2-11-27 9l29 9c-13 11 0 6-20 9 11 29 9 9 15 34l-24 11-13-26c11-17-2-3 20-17-22-9-13 0-20-20 0-46 11-279-4-310l18-6c-7-17 7-9-20-17-15-40-15-23-4-66l24 17c2-32-15-40 18-55l7 43c-15 11-20 14-22 34 13-6 11-3 20-6l29-63c22-14 29-17 46-37 40-43 75-89 119-126 20 11 35 3 62 6-7-3-2-6-13-9h-42c4-32 93-98 117-138 33 0 62 6 93 6 33 3 69 0 102 3-4 23-13 17-31 34-60-6-126-3-190 0 33 17 53 6 91 9l-100 106c-7 9-11 11-20 20-15 14-24 29-38 40l-137 158c-4 3-11 9-18 14l2 230c40-9 55-29 108-32 49-3 86-3 108 26 2 0 4-3 4-3l11-9s2 0 2-3c-4-14-11-32-15-49-7-23-2-3-11-26-2-6-4-14-7-20-7-69-4-83 20-103l-18-11 7-49h44l2 29 11-14c2 0 7-9 7-11 2-6 0-9-2-20-15 17-29 17-55 9-7-20 0-23 4-52l24-6-18-11c9-49 11-23 53-26-7-20-13-3-22-26l-18 17c2-23 4-26 13-43l53 6c-4 14-7 17-11 32-11 26-4 17 0 23l2-3 29-55c42-83 58-89 115-149l60-55c9-9 4-6 15-11 15-6 9-3 27-14 104-72 301-89 431-49 223 69 372 253 392 500 18 207-104 408-279 509l-42 23c-7 3-9 6-11 9-27 3-44 14-73 23-131 32-265 14-383-37-51-20-64-49-115-66-2-14-2-14-4-23 20 9 18 9 33 17l-71-78c-64-66-128-230-124-316l9 20c7-40-2-32 2-69 38 17 11 6 22 46 0-3 2-3 2-3 7-26 0-32-4-40-7-9-4-6-7-11-18-43 7-78 13-124 4-32 11-40 35-52l7-3c-7 0 0 3-11-6 13-29 13-40 35-63 27-29 119-121 135-147 106-23 66-40 108-49 15-3 24-3 40-6l4-9c0-3 0-3 4-9 35-3 29-6 64 6 38-17 13-14 53-9 33 6 33 3 62-6 22 14 82 34 113 37l18-11c27 20 0 3 13 17l126 72c24 11 60 55 69 75 2 6 2 9 4 14 15 23 24 3 31 37 4 29 7 6 22 52s40 43 58 184c4 26-4 121-11 141-9 26-15 26-20 57-4 26-11 37-20 57-11 20-18 34-29 52-13 17-24 26-33 46 33-14 29-29 42-49 11-11 13-6 24-26 82-147 91-305 18-460l-111-161c-20-20-24-20-44-37-77-72-144-89-243-112-184-43-385 55-498 193-40 46-46 80-69 115-9 14-20 23-33 55-7 20-13 49-18 69-29 129 27 244 38 307zm122-747c13-14 13-23 40-26-4 6-4 6-11 9 0 3-9 9-11 9-9 6-7 6-18 9zm1566-29c2-17 4-29 9-40l-7 34s-2 3-2 6zm-265-52v78c-18-11-40-40-38-72l38-6zm-1217 60c15-20 20-17 46-29 15-6 24-11 46-11l-2 32-91 9zm1002 187c4 6 4 3 9 9l46 55c-24-11 0 3-18-11-11-9-2-3-13-9 18 37 31 34 58 63 22 23 31 46 55 57-13-20-27-32-42-49-13-14-29-29-38-49 49 23 86 106 122 109 2-29 2-63 4-92 2-17 2-29 2-46 2-34 2-23 27-26-2 49-4 109 11 147l-20 11c11 11-15 6 15 9l-18 14h-4c2 37 9 34-2 66l9 14c-9 3-11 3-24 6-4-20 13-9-20-17 0 0 2-3 4-3l9-11c7-9 4-14 4-29-20-14-20-11-40-32-15-14-15-20-29-34-24-26-46-46-69-72l-102-109c-9-9-22-23-29-34l38 29c9 6 0 0 11 6l-201-224c35 20 235 241 243 253zm199-264c-13-9-2-3-7-17l18 3-11 14zm-1095-34c18 6 33 23 53 34-13 11-27 9-51 17-18 6-31 11-49 17-29 9-64 34-91 32 13-14 122-60 155-69-9-29-4-6-18-32zc-7-6-7 3-11-17l11 17zm-100 26c31-29 24-34 40-49 13-11 4-3 20-9-7 40-24 49-49 69-15 14-44 43-62 52l51-63zm352-92c-7 29-46 49-77 49 11-9 31-14 44-20 18-11 20-20 33-29zm-409 17c-7 23-7 14-22 32-42 40-49 72-82 75 7 23-33 46-38 49h-4c-11 11-9 34-46 55 4-43 0-32 31-63l153-161c7 17-9 9 9 14zm265 23c18 9 7 3 13 9-42-3-80-37-89-75 2 3 4 3 4 6l2 3 55 52c4 3 9 6 13 6zm-181-72c24-9 62-14 93-6l4 37-75-3c2 14 20 9-33 63-13 14-18 17-29 32-29 37-133 129-133 164 11-6 22-11 35-20 27-20 86-60 119-52 15 9 13-11 11 26l9-20c13-14 60-9 73-6l-22 14c-84 34-135 78-190 78-22 0-53-3-82-3l-9-14-11 14c-22-3-44-6-58 0 27-37 159-170 195-215l22 20c24-32 20-3 49-23l-51-3c2-37 38-46 80-49l2-34zm-27 26c-2-3-11-26 20-34 2 23 4 20-4 34 0 3-4 14-15 0zm664 23c22 9 11 3 27 23 22 23 49 40 60 72-33-17-4-6-46-43l-27-32c-11-9-2-3-13-6 20 37 62 66 97 112l97 109c-24-17-49-49-77-75l-208-221c-7-9 0 0-4-11 24 9 33 29 53 46 15 11 22-20 42 26zm-108-83c24 9 9 0 13 11l-13-11zm-321-55c22 0 31 0 44 11 58 57-35 118-69 55l24-66zm117 121c7-17 13-26 20-49 2-11 2-11 2-23 2-32-4-9 9-26 11 20-4 80-31 98zm204-66c-18-9-11-6-18-20 15 9 9-3 18 20zm-613 83c9-20 2-11 2-26l-2-3 117-118c11 32-27 55-44 75-29 34 0-9-53 55-15 20-2 11-20 17zm434-124l-15-23c-7-14-4-9-7-20 20 11 18 17 22 43zm-188-34c49-6 55-26 95-9 20 9 11 3 22 17-100-29-173 78-60 126 20-23 15-11 44-9 42-49 24-52 13-106 24 0 9 0 22 6 22 11 18 23 7 49 38 66-7 9 2 72-18 9-11 3-24 17-100-3 4 3-60 17-11-14 0 3-7-17-4-11 0-6-7-11-18 14-11 32-15 20 0 0 0 3-2 3-18-6-15-9-22-14-7-3-13-3-22-6-7-34 4-26-9-34 0 0-2 11-4-3h-4c7-29 4-9 13-32-27-26-18-17 18-86zm-40-11l-11 23c0-14 2-11 11-23zm378 55l-53-57c13 11 40 40 53 57zm-62-66c-15-11-4 0-13-14l13 14zm-438 112c4-14 2-6 13-20 4-6 9-9 15-14 9-11 22-26 31-34 18-14 2 6 20-17 11-17 22-40 42-49-69 129-33 78-33 138l-89-3zm-24-115c-7-14 2-9-15-23l-7-3 4-11c18 6 4 0 20 11l15 14-18 11zm323-17c-18 0-27-3-40-14 29-3 24 0 40 14zm-177 32c11-26 4-17 29-29 11-6 22-11 35-14-35 20-38 11-64 43zm301-52l181 190c-29-14-177-181-181-190zm-208 0c13-11 33 9 35 3 2 0 4 3 4 3l-40-6zm208 0c-9-6-7 0-13-14l13 14zm-290-6c18-6 58-57 66-72l18-14c11 6 7 0 20 11l66 66c9 9 7 9 13 17 4 6 4 3 13 11l97 112-58-3c-7-29-11-55-27-75-75-98-148-60-197-49l-13-6zm305-6c33-20 11-11 33-29 7 23 0 23-18 43-15-9-7-3-15-14zm-305 6c-24 9-9 14-24 11-4-9-13 11 0-11 11-17 49-57 69-63-11 34-29 34-44 63zm-42-103l18 9-13 6-4-14zm108 32l-20 6c7-29 27-43 51-57 13 9 35 43 55 60 49 37 35 46 58 63 20 14 13 6 33 26l717 767c22 23 9 9 24 37 9 17 11 14 31 23l-11 23c7 23 11 23 35 23l-7 26 18-9 2-3 29-11-2 32c-7-26 2-9-15-17l-9 29c-7 3 4 0-15 6h-11c-102 17-44-34-82-78l-51-46c11-9 0-6 24-6-27-26-27 20-80-60h49s4 0 4-3 2 0 4-3c-2 0-2 0-4-3-18-3-9 0-29 3h-38l-150-164c-27-32-35-43-55-43 4 26 33 52 44 80-71 14-75-20-86-37-44-52-80-75-128-124-2-6 0-3-9-9-73-43-186-83-274-86-102-6-122 6-179 6h-31l-27-9c2-29 0-26 33-26l9-11c20-11 22-6 44-14-18-20-75-26-100-101 20 9 9 0 20 11 51-34 53 40 146 43 69 3 75-26 117-37-2-14 13-29 22-49 15-3 15 0 20 0h4l40-11c-49-11-60 14-53-34l80 3 518 557c24 23 15 3 18 3 0-11 4 0-9-11l-31-40c-18-23-29-34-46-52l-100-98c-13-11-13-20-24-32l-356-382c-38-34-113-109-146-149-13-17-33-40-53-40-13 11-11 9-18 29zm217 95l-66-78c29 34 33 26 66 78zm-164-172l13 11c-7-6-7-3-13-11zm-732 718c13-32 122-135 153-170l64-63c29-32 15-32 31-40 38-20 20-20 55-52l363-391c11-11 4-6 15-11l13-9c15-46 7-17 13-75l4-57c7-17 2-3 9-11 0 52-9 124 11 161l-22-11c-9 6-22 23-27 26-22 17-9-6-31 23-15 20-35 40-51 57-40 40-69 78-102 115l-206 221c-20 17-33 37-51 57-9 9-51 52-53 55 0 0-64 34-73 63-9 32 11-14 0 14-7 14-217 233-228 250l-7-9c-4-9 2-6-15-17 2 0 4 0 4-3l128-124zm-493-767l2-34c9 14 18 43 9 57l-11-23zm1235-6c0 43 2 14 11 49-15-9-13 3-18-20l-2-89c7 14 9 46 9 60zm1325 865l11-26-18-11 2-34c-4-3 11-11-15-3-2-26 4-20-9-37l11-11c-4-9-2-3-7-14-4-9-2-6-4-11-15 9-9 6-18 17l-44 3c18 17 20 11 46 11l-2 40-18 6c2 34 2 17-15 46 0 3-4 11-4 11-9 14-11 6-20 29-2 6 2 0-2 6-20-23 13-572 31-661 11-60 4-207 22-256 11-34-2-29-2-55-2-11 4-40 4-57l27 6c7 92 9 181 20 270 2 20 11 40 11 60 0 26-2 43 0 72 2 43 7 86 7 132 0 49 11 83 13 132 9 95 35 336 29 399-9 3-15 9-24 14-20-29-9-29 0-55l-11-6c-2 0-4 0-4-3l-15-14zm-2535 115l-24-17-31 11c4-20-4-17 15-23 7-3 20 0 29 0 7-9 7 9 4-14 4-3 4 0 15-9 9-6 2-3 7-11-4-17-9-34-15-52l-15-40c-4-9-4-6-11-9 2 11 15 72 18 78-24-9 2 0-11-14l-24-14 20-11-9-52-15 9c-13 6 7 3-2 0 7-46 4-43 20-49l-11-17c11-17 9-20 0-43-15 9-9-9-13 23l-18-9c-4 6-7 6-15 11l18 9-15 20c20 0 13 0 27-6-4 23-15 32-22 43-15 29 11 17-18 43l-2-20s-20 6 7 37c-2 37 2 66-20 98-2-66-9-98-4-175 42 20-15 6 18 26 11-17 7-17 4-37-15 9 4 9-22 3-13-78 0-488 11-598l42-9c-7-3 11-3-18-6-4 0-18 3-24 3 11-161-11-89 40-118-29-23-40 20-35-46l4-80c-2-23 0-60 2-83 2-20 2-26 2-49 0-11 0-26 2-37l35 316c7 95 18 221 33 319 20 132 38 330 53 474 2 23 0 72 4 86 7 32 13 20 13 69-2-6 0 3-4-11 0-3 0-9-2-11l-4-17c-2-3-15-26-18-29-9 3-4 0-13 9l-4 32zm-24-974c-4 37 9 32 20 60 0 3-9 26 9 92 9 32 11 75 13 112 4 34 4 23 13 52l64 371c9 49-4 86-24 141l-11 26c-4 14 0 9-7 23-9-9 0 11-9-17l-31-307 35 6-40-37c-18-95-9-80 22-95l-35-17-7-103 22-14c-33-26-42-101-20-132-15-32-18-11-20-57-7-69-2-124-18-210l4-3 2-46c15 37 2 124 15 158zm1223-141c-18-3-22-9-15-29 13 6 9 3 11 11 7 11 4 3 4 17zm1310-14c-27-3-24 14-20-69 2-66-2-60 11-72l-2-3-9-14 7-60c24 34 15 175 13 218zm-1354-207c-9-14-7-11-2-29 11 17 13 11 2 29zm18-11l-15-63 53 20c-9 34 7 66-4 147l-18-20c-13 6-11 11-15-3-2-9-2-40-2-49l15-32h-4c-20 0 4 9-9 0zm0-72c-18-17-13-26 0-40 13 14 11 23 0 40zm595 2373l2-3 9-9 11 17c2 0 2-3 4-3l22-17c4 6 2-3 11 17l11-17c44 6 142 0 192 0h208l-701-14c-44-6-440-3-509-3-42 0-86 3-126 3-40 3-84-3-128-3-148 6-381-9-504 3l-9-11s-2 0-4-3h-20c20-11 1374 0 1518 0 44 0 91-3 133 0h318c49 3 38 6 51-6-38-23-162 3-201-17l243 6-4 442c9-11 9 11 11-26l7-391v-3c0-3 2-3 2-3 9 26 2 75 2 106 0 32-4 75 4 98 4-6 2 0 4-14l2-83c-2-57 20-37-2-72l11-23c-9-11-9-17-22-29 0-3-2-3-2-6-11-9-13-11-29-11l-265-9c7-26 4-6-4-14l7-11c15 3 18 0 27 3l13 3c4-14 164-6 175-11-20-11-173-6-208-6s-75-6-104-6c-95 6-462 17-520 3 11-9-13-9 27-11 60-6 148 0 206 3 190 6 381-6 571 0 33 3 82-6 104 11l-53 9c20 9 80 11 100-3-4-9 2-11-18-17l-91-6c-44 0-82-3-126-3h-259c0-29-4-37 15-60 2 3 13 17 15 20l11 29 38-40s0 3 2 3c7 9 4 6 9 9 18-6 7 3 24-17 31 14-27-11 11 6 7 6 0 3 13 6 2-9 0-3 2-9 2-9-2 0 2-9 38 3 4-3 31 11 29-23 100-9 139-9 175 0 144-29 150 63l35 3 9-26c71-9 91 11 155 14v37c-31-9-18 0-31-20-35 0-80-9-100 9l-24 11c18 20 115 9 146 9-15 40-29 46-62 34 11 23 27 23 60 26l-9 20s0-3-2-3c-7-9-7-11-31-14l15 40c2 0 4-9 7-9 0 0 2 0 2-3s2-3 2-6l18 9c2 9-4 9-11 14l-22 9 22 17-15 23-4 6c-9-34-18-55-33-83-22-46-9-57-44-63l7 20c0 6 0 6-2 14-7 29-24 55-35 83-9 26-44 86-33 112l18 3c22-26 44-118 71-155-9-23-20-14-4-34 27 49 42 118 69 170 22 37-4 26 15 52 7-11-2 9 7-11l11-32c4 9 11-17 4 23l-15 37c-4 9-4 6-7 17-4 20-4 37-2 55 0 9-2 17 0 26 4 23 4 11 9 17v-95c18 29 0 195 2 241 27-46 11-170 15-236 7-9 27-37 27-40 7-14 9-32 22-40 11 14 7 11 15 26 11 20 7 6 22 20 11 11 22 32 24 52h11c13 3-2-3 9 6-9 34-4 14-4 55v34c0 23-2 17 4 32l7-23v-75c2-43-4-55 15-89-15-34-18-26-2-60-20-34-9-112-11-155-7-66 7-40-13-52l2 144c-22-26-24-72-35-103l-42-3-55 144 2-193h104l20 6s2 3 4 3c18-23 13-46 13-78l40-20c-38-40-31-32-31-89-24 26 13 26-40 26l-7-75 22-11c4-69-7-250 2-302 4-32-7-37-9-72l9 11c4-17 7-78 7-101 0-17-4-34-7-49 0-40 2-32 18-37l-7 532c0 20-7 49 7 63 9-20 2-282 2-328 2-138-13-170 40-259 7-9 4-11 11-23 13 6 29 6 42 11 11 3 22 11 38 17 29 6 29 0 53 0 18 0 24 9 42 11-40-32-66-9-106-26-77-32-77-9-86-43l44 3-44-17c11-6 33-3 49-3 20 3 29 6 51 9-7-3 2 0-13-9l-35-6c-18-3-31-3-51-3l-7-198c-27 3-13 3-29 20-20-20-20-95-22-126l58 11c-13-11-31-11-49-17-13-6-7-3-13-14 9-6-9-6 18-6l53 9c40 6 49 23 49 23s2 3 4 3c-9-14-15-26-20-34l-104-11c4-49 15-6 20-55l-24 3 15 227-15-6h-4c-2 0 0 20-7-3h-2c11-17 9-9 11-37l-9-34c-15 23 0 20-18 40l7 26-20 11c4 11 11 20 0 34-24-14-11-57-20-121-7-43-2-112-4-141-13-89-4-101-9-138l-13-135 22-9-27-11-7-138-29-408c4 6 4 3 7 14 2 0 2 11 2 11l27 172c11 63 13 141 22 207 15 135 35 264 55 402l27-14-22-9c-2-23-7-37 2-57 7-20 31-49-13-37l-18-121h22v-20l-27-11-11-95c24-14 24-14 20-40-18-6-9-6-24 3-9-46-9-101 0-144-7-9-11-11-13-11-4-6-2 0-7-14-18-98 7-75 7-132-31-11-27 14-33-52-7-72 4-46 11-92l-18-14c-13-43-15-98-13-149l-20-3c-4-34-9-40 15-55-11 26-13 9-11 34 20-3 33-17 15-34l15-11c-18-9-15-6-31-23-11-14 0-17-31-17l-18 34c-13 9-7 3-11 17l20 17c4 72-7 112-13 181-11 11-7 6-20 17 9 32 20 9 11 66-4 26-9 43-9 72-15 6-11 0-27 11 22 49 22 9 7 92-7 34-9 29-24 55 15 37 11 17 4 66-4 23-4 40-13 63-20 46-2 60-13 135l-22 9 11 32-18 11 18 6-11 95-22 3c4 46 22 11 7 69-4 26-9 52-11 78-22 3-9-3-29 11l22 29-22 118-22 6c2 29 24 57 0 92l-24-29 4-29c-18 0-13 0-27-9 7-11 11-23 7-37-4-17 0-3-9-11-18 29 9 17-18 43l7 32c-38 34-29 89-60 118-20-43 7-135-7-161-11-6-15-3-38-3l-2-112c27 6 18-20 22 49 0 17 2 40 7 55 18-29 11-121 9-155l102 9c-35-14-64-9-82-14-20-3-13 3-20-14 11-23-20-11 62-6l-69-17 9-43-31-11c-22 26-13 46-29 55l-15-6c-2-17 11-46-15-46-2 3-15-9-4 23 4 11 22 29 7 57 27 14 22 46 22 78s20 80-2 106c-2 3-4 3-7 9 9 34 9 29 4 72-4 23 2 55-13 72-15-11-22-11-24-37l-9 17c0-3-2 0-4 3l-27-32c-7-9-2-3-9-11 22 3 42 11 53-6h-51c-15-17-18-20-24-52v37l-18-17c-11-9-27-20-29-37l40 3-2-20-15 14c-42-6-40-17-55-52v3l-7 20c-13-17-22-20-33-40 44 0 24-6 53-14 15-3 20 3 29-17l27-6c-27-6-29-3-42 11-20-6-9-3-29-9l-7 26c-49 0-35-6-60-29-4-3-27-17-40-29 20-14 29-3 38-34 0 0-2 3-4 3l-7 6c-13 9 13 3-15 6-31 6-42-26-44-49 0-3-2-3-2-6-4 14 0 0-2 14s0 9-4 14c-13-14-13-17-29-29 20-17 22-14 35-32 22 11 49 11 75 9-18-3-11-9-82-20-18 20-7 6-22 14l-7 9v3c-27-9-31-11-31-37-22 3-18 0-29-11 0 0 2 0 2-3 2 0 4 0 4-3 20-11 13-9 15-14l-18 6c-29-6-40-20-44-52l-7 14-20-20 18-17c2 0 4-3 4-3s2 0 4-3c31-20-27 9 9-3 7 3 7 3 9 6l2 6v3h27c-7-9-11-20-20-29-20 6-15-3-35 9-20 11-7 11-33 14-13-20-18-20-22-49l-13 17c-11-11-18-14-22-32l29-3c-4-20-7-17 13-26 4 20 9 14 2 34 20 0 7 0 27-11 27-11 71 9 97 14-20-11-31-14-60-20-53-9-15-20-73-32-9 6-4 0-11 9l-11 20s-2 3-4 3l-2 3c-27-3-24-3-33-26 4-9 2-3 9-11 0-3 4-6 4-6 9-9 9-9 13-11-2-20 4-9-9-23 35 0 77 23 122 14-35-6-73-3-104-20l-51-23-24 40c18-3 22-9 31-11l18 9c-7 17-18 26-22 40l-18-17c4-11-2 0 4-9l9-9c-60 0-64-43-20-57-4-17 7-11-11-17 15-3 7 0 13-9-7-17-2-3-11-23l-13 20c-4-6 9-6-18-11-9 23 0 0-11 20l-4 14c-24-6-29-11-35-32h2l4-3c11-6 7 0 9-14l-13 3h-2c-2 0-4 3-7 3h-2c-13 3 0 9-15-6 13-11 13-6 24-23 15 17 4 14 33 20-4-14 4-3-11-14 20-17 7-3 13-20h-38c-20 32-22 29-49 14 4-20-2-11 9-23l13-11c0-3 2-3 2-3-15-9-11-3-35 0l-2-3-2-6s0-6-2-9c0 0-7-3-9-3l-24-3c-13-17-7-14-29-37-4-40-9-80-11-121 0-17 4-55 2-57 0-3-4 3-4-20l11-132c7-49-4-46-4-72-2-17 0 3 4-26-11-17-15-17-29-32-4-34 11-32-13-57-24 11-24 26-24 55-24 17-24 20-27 52-7 80 20 78 24 118v126c7 23 4 34 2 57-9 132-2 63-33 129-7 3-27 3-33 6l-20-3c7 17 0 6 9 17 18 23 0 40-31 34 2 0 2-3 2-3l2-3v-3c4-11 9 9 0-9h-15c-2 20 0 9 4 26l-22 3c7 20 9 9 15 29l-11 17c-51-6-27-37-60-17 15 26 7-6 38 40l-13 11-13-20c0 40 0 37-29 57-20-17-2-17-29-26-15-6-18 0-31-3 7 17 9 14 2 34 15 9 18 14 29 23l-20 34-44-9c9 20 7 9 27 23-9 20 0 9-18 26-15-20-2-17-22-37l4 43c-22 20-7 14-42 14 13 11 7 6 22 14-9 20 2 6-20 20l-22-49 27 3c-13-20 11-9-38-14 0 46 31 37 11 83-29 0-22 3-33-9l-9-11c-24 11-7-11-29 9l58 29-29 29c-4-29 0-34-24-43 9 23 0 0 7 14 13 29 11 49-24 55-18-17-4-14-24-23 2 26 13 20 33 34-18 20-13 26-31 29 0-32 0-29-20-43-20 6-15 0-11 11 7 11 0 3 18 0l7 34c-11 6-20 14-31 14-9 0-20-3-20-3-18 3 2-3-11 9l46 3c-15 17-33 37-49 55 0-32 15-49-13-60l4 49-38-6c-7-6 2-3-7-6-4 32 15 26 46 32-7 9-29 37-42 43 2-60 2-46-22-55 7 11 27 37 4 55-22 14-38-6-51-11 9 29 4 9 24 32l33-9c-7 14-40 46-51 55 0-17 4-26 0-37-7-26-4-20-24-20 7 14 27 43 7 60-18 17-33-6-46-11 0 34 22 29 51 23-11 17-31 40-46 46-4-14 0-3-7-11-24 17-9 46-60 20 4 26 2 17 31 20 9 0 9 3 11 3-15 14-40 46-58 52-2-20-2-49-2-69 2-40-2-23-4-55-4-37 20-95 4-121-20 14-15 37-18 32 0 0 0 3-2 3-15-20-24-66-31-89l27-17c-7-29-11-6-11-34 24 0 7 0 29 11-13-29-33-34-40 0-2 9-2 14-4 20-2 11-13 23-15 40-4 20 7 63 4 98l-69-3c38 14 35 3 71 6l4 60-18 17c4 29 13 11 9 46 0 17-2 37-4 57-9 83-9 60-27 86-2-3-7-6-9-6l-9 9-9-23c11-6 7 20 11 0h2c-7-17-9-26-15-40l-15-32c-4-40-24-57-31-92-2 6-9-11-2 23-9-3-11-3-24-9-2 29-9 23-11 52 13 11-20 17 27 6-22 11-4 0-18 11-9 9 0 6-15 17-7-23 2-43 11-63 11-32 31-55 24-75l-13-29c-4 3-4 3-9 11-9 20 4 40-18 92-29-43-7-78-4-92-22 9 9-11-7 3-9 9 4 6-7 6l-22-115c13-20 18-23 13-52l11-17c9-3 20-6 29-9-38 6-51 14-64 3l51-17c-13-6-31 6-53 6 4-9 7-11 13-14-24-6-18 3-20-29 31-6 40-3 62-20l-42 11c-33-75-29-3-44-147 18-11 9 0 18-23l-22-9c-4-55-20-69-7-124-22-29-31-83-20-121-18-20-13-26-20-60-7-37-9-34 0-66-2-17-42-69-20-118l-4-9c-11-17-13-34-18-55-7-34-9-34 0-63l-11-14c-2-3-2-3-2-6-9-23 0-49 0-66 0-43-27-17 13-83-11-14-13-17-31-23l-18 26s-2 3-2 6l2-34 27-17c-7-9-20-17-31-26-11 17-7 3 2 29h-24l7 34-29 6 2 3 2 3 18 11c2 6 7 118-11 144-4 6-4 6-9 14l9 11 2 3-2 78-22 14c9 32 13 14 9 57-7 40 7 60-24 69-2 23-2 14 13 32-11 112 2 66-31 109l20 23-9 69c-2 3-9 6-11 6-11 6-7 3-13 9 11 32 20 14 15 60-2 29-7 40-7 66l-46 11c2 3 4 3 4 3 0 3 2 3 4 3 0 3 2 3 2 3 9 9-2 0 7 6 4 3 15 9 22 11l-4 37h-20c-4-11 0 0 0-9v-6c-38 3-35-9-66-11 15 14 24 17 53 14-7 9 11 9-22 14l-15 9c-9 9 0 9-20 11h-139c33 11 128 6 177 0l-18-14c24 0 49-6 66 6-2 3-2 3-4 3s-2 3-4 3l-29-3c9 17 7 9 33 11v40l-22-6c-2 11 2 6-7 17l-13 11 33 6-4 83-38 6c15 9 11 3 11 29l15 6c11 32-7 86-7 124-13 9 18 11-27 6-2 20-7 26-15 37 9 17 7 9 15 23-4 6-9 6-11 20v172c-4 6-55 32-7 52l-11 26c38 32 27 103 27 164v468c0 57-4 34-20 72l11 17c2 0 4 0 4 3l2 3c0-3 13 34-11 60 7 11 7 11 15 20l-2 215-4 11-20 37c7 6 9 9 13 17l-4 14-2 9c35 72-11 213 20 270 4-9 2 11 7-17l2-121c2 26-9 78 9 101l11-227c0 29-11 267 7 287 9-14 2-276-2-325-2-29 13 3 4-29 7 57 7 92 9 152 0 29-9 118 4 141 11-66-9-330 2-351 2 32-4 69 0 95 2 9 9 26 11 37l2 132c0 23-7 60 11 78 0-26-4-40-4-60-2-26 4-34 2-60 0-26-13-101 2-118 7 14 11 98 11 118l4 103s2 3 2 6c0-34 2-89 0-121 0-40-11-69-2-112 22 55 15 106 15 172l4 158 11-14c0-3 2-3 4-3 0 9-2 26-2 34 0 29-2 11 9 14-11-101-4-210-7-310l-9-89c31 37 20 124 20 178 0 32 2 60 2 92 2 14 2 32 2 46 2 29 0 26 11 40 18-46 20-207 4-256l24 3c7 37 7 66 7 106 0 23-11 80 9 86 2-11 11-241 9-244l22-6 4-34c33-11 40 0 44 34 69 32 53 83 58 181 4-6 11-11 11-23v49l11-26c4 11 7 11 4 20-7 20-2-6-11 23 11 20 9 11 20 29 0 0-9 43-2 78l7 23s2 3 4 3c0-75-11-213-4-279 4-29-4-55-4-66-4-26 2-17 4-20 7 0 9-9 13 20l27-3c13 60-7 319 15 345 13-20-9-11 9-37 20 14 15 63 27 80 0-57-9-106-9-155 0-55 2-103 2-155 0-112-7-204-7-316 40 9 2 78 33 103 18-14 4-9 18-29 18-34 35-43 66-75l35 3c-7 6-13 9-22 14l-20 17c66-32 73-32 157-32l73 40-24-29c18-6 44-3 53 6l11-14c-4 26-4 0-2 26 9 0-4-9 9 0-2 43-2 40 18 69 15 20 9 29 20 60-24-9-31-14-38-40-2-11-2-14-4-29l-4-20-2-3c0 55 7 92 4 152 0-3 2-6 2-6l2-3c2-3 2-9 4-11 7-20 11-23 29-34l13 14c11-20-7-9 27-6-18-46-22-23-13-75-38-37-35-11-40-83l-18-3c13-17 38-9 69-9l-38 6c44 3 38 9 60 32 22 3 35-3 55 6 4 0 9 3 13 6 13 6 13 3 22 17-13 9-9 3-18 9-31 14-18 14-53 14-2 20 4 49 13 63l-55 40c38-20 73-40 108-60 122-66 263-103 407-115l11-14 186-3c15 9 4-11 13 14 13-11 15-14 35-9l2 3 2 3s0 3 2 3c31-17 27-11 58-3 20 6 7-11 18 11l9-14 2 3c24 11 38-9 82-6 22 0 44-3 66 3 9 3 38-3 58 0 24 0 38 14 62-3 7 9 7-14 7 14z"/>
 <path class="fil0" d="m2840 5995c27-23 13-6 18-3l-18 3zm1029-69c-4-9 4 0 4 0 2 17-4 3-4 0zm-832 6c4-9 4-11 13-6-7 9 15 9-13 6zm790-14l-11-9 11 9zm-825-20l11 3c-2 3 11 17-11-3zm690-9c-22-3-9 6-20-14 27 9 11-3 20 14zm-662 23c7-11 4-9 13-17l-11-14c13 0 11 3 20 0l18-11c-9 29-13 20-22 43h-18zm712-26c-15 3-18 0-27-14l27 14zm-113-26l-13-17c20 6 9 0 13 17zm-31-9c-15 14-15 9-42 6-24-3-20 9-24-14 9 0 64 9 66 9zm-265-6l-9-11c7 6 2-3 9 11zm-303 66l-7 11c7 9-11 9 13 9l-11 23c31-9 31-26 38-55 7-3 4-3 15-6 4 0 4 3 15 0 2-3 18-11 20-11 9 6 13-11 7 11 18-11 9 3 15-23-33 0-24 9-60 11 13-11 24-23 44-32 18-3 20 0 42-9l11 14c2-6-4-17 38-23 33-6 27 3 46-14 11 6 4 3 13 9l4 6c9-11 18-11 51-17-9 11-9 9-13 26l18 14-27 14c4 0-7 14 22 0 7 0 7-6 13-9 22-9 20 3 38-11l-31-6-9-29 27 3-9 14c29 0 20-3 49 6l11-14s2 0 2-3c42 17 31 0 51 20-33-3-64-11-71 32 27-9 2-6 29-23 7 9 15 20 22 29 22-14 13-9 18-20 0 0 2-3 2-6v-3c13 23 7 20 9 37l4 6c35-52 51-23 64-23 2 0 7-6 20-6l11 11c71 17 27 20 64 34-9-49-11-23-42-40 0 0-2-20 51 0 15 6 9 3 7 11-4 11 0-9-9 14l42 3c-9 17-7 9-7 20 13 6 11 6 24 11 7 3 15 6 27 11 13-14 20-32 49 0 2 3 4 3 9 9 13 11 7 9 22 17-7-29-11-14-13-37 20 6 29 20 53 23-9-9-9-9-15-17 49 20 27 17 53 32l-18 9 31 23c4-14-2-14 9-34 38 32 0-3 46 26l55 34c-4-26-2-9-20-26-53-52-44-32-82-63-11-9-9-11-29-20-95-52-142-57-243-92l-122-23c-51-6-31-6-40-14 18-14 2-11 38-9 113 11 265 60 363 112l113 63c-11-26-95-66-128-83-49-23-102-37-153-57-77-32-268-55-361-55 7 14 20 9 60 11 60 6 53-3 66 14-15 14 22 9-27 11-184 0-122-23-343 37-159 43-285 132-398 233-27 23-27 29-51 57-18 20-31 32-49 55-55 72-124 184-146 276l24-46c9-20 7-23 18-40l102-147c29-29 31-63 55-55 7-40 9-23 31-52 18 6 7 3 22 6-7-23 11-75 75-55l-11-26c13-11 20-14 24-23 0 11-2 17-4 29 22-9-18-20 24-9 0-6-2-20-2-20 0-9 2-6 4-11l4 9c11 17 0 14 27 17l-13-23c20-11 13-11 24-32 13 17 15 11 18 11-4 9-7 11-11 20 20-6 22-14 29-32 9-26-22 3 4-23 22 17 4 11 18 29v-29l24 11h2s11 6 2-11l-13-9c0-3-2-3-4-6 27-6 15-11 35-11-13 6-9 6-9 26 40-9-4-6 27-29 18-9 9 3 31-9 2 0 4 0 4-3s2 0 4-3z"/>
 <path class="fil0" d="m3451 4981v-37c4 6 4 0 11 14 2-37 2-11 7-17 18 3 15 0 24 17l-42 23zm-148-9zm-13-57c2 0 2-3 4-3l15-6c-4 26 2 14-13 29-9-11-4 14-7-20zm122 11c-20-9-7 3-18-14l18-9v23zm-82-23c11-6-9-9 24-6l-2 34 31 3c-2-9-4-9-4-20 2-14 0 0 7-11l7 32 38 3c-7-29 7-11-11-17v-29c0 3 2 6 2 9l7 6 2 3 2-17 18 23-15 17c0 40-4 43 29 66l4 43c-38-3-51 0-73-9-22 17-38 17-69 3-2-26-2-14 9-37-7-6-9-11-13-17 9-11 9-17 11-32 7-26 2-14 13-40l-7-3c-2 0-4 11-9-3zm-40 11c-11 11-15 26-15 43l40 89c58 60 162 23 175-23l15-52c13 17 7 17 13 34 0-34 4-57-11-80h-4c-27 6-22-14-29-32-11-26-44-49-71-23l-9 11-2 3-24-17 33-11c-27-17-64 6-84 20-15 9-9 6-24 3 2 23 2 9-2 34z"/>
 <path class="fil0" d="m2575 6016c18 29-4 20 18 46 11 14 4 3 11 17-22 3-33 6-49-3-7-20 0-17 18-32 0-17-7-17 2-29zm168-23c-2 6-7 23-31 17-20-3-24-11-38-23l29-11c33-6 40-9 33-78l-46-32c18-49-7-66-38-92-38 3-40 14-60 37-22-26-4-20-42-37 7-9 13-11 18-17l-44 11c-9 3-9 6-11 9 29-6 27-9 44 9-2 3-4 3-11 3 0 0-13-3-15-3l20 14c13 9 18 29 24 46l38-9 9-37c104-6 40 75 38 83 31 32 86 11 31 86l-11-3c-29-6-22-6-40 6 9 20 11 11 33 23l-2 52-35 11 15 9c-55 3-49-11-64-63-55-3 4 20-75 43 9 11 9 9 2 20-18-9-15-17-44-23 46 69 175 34 199 34-4-26 0-11 18-29 18-14 84-57 97-83l-40 26z"/>
 <path class="fil0" d="m3663 4404c9 9 0 6 7 9-20 3-22 0-27-17 18 0 9-3 20 9zm-24-14c-4 6 9 17-24 3-7-3-13-6-18-9 20-3 24 3 42 6zm-55-20c7-11 0-6 9-9 18-11 4 0 9 3l-18 6zm0-26c-20-3-20 0-27-14 20 0 18 3 27 14zm0 26c2 11 2 6 0 9-18-6-35-9-53-14-11-3-18-6-29-9l-35-3 73-83c0 29-27 55-40 69 20 14 20 6 44 17 24 9 15 11 40 14zm-53-112c-62 112-75 49-93 103 22 3 93 9 115 20 27 14 2 0 20 23l58 9c18 9 35 17 53 26 62 32 60 52 91 55 0-20-29-40-55-66-20-23-42-37-62-60-22-29 7-6-31-29-29-17-60-80-95-80z"/>
 <path class="fil0" d="m2453 6257c18-14 4-11 29-6l-13 9c-18 3-7 3-15-3zm66-32c-7 11 11 0-13 11l13-11zc-2-17 2-6-4-17-27 14-4 26-53 29-20-32-18-32-15-66-11-6-27-17-29-43-2-23 4-14 4-17 13-3 24-6 40 0 24 6 20 6 15 32 11-11 20-11 49-3 20 9 24 17 24 46l-29 11 2 3 18 9c0-3 2 0 4 0l-27 17zm53-109c27-3 55-9 73-23-27 0-35 6-66 6-20 0-44-6-58 0l27 26c-75 3-27 0-64-26-20-11-91-20-73 43 11 34 20 11 18 60-13-3-20-3-27-3-9 26-2 78-4 103 0 43-7 66 15 92l2-158c29 23 44 66 86 26l18 11c20-40 40-43 42-98 11-6 20-17 22-32l2-3-13-26z"/>
 <path class="fil0" d="m3544 4901zm131-29c-9 0-13 0-20-3-18-9-4 3-9-11 29 6 27 11 29 14zm-146 152l35-3c31 3 46 6 75 26l31 26c-24 20-40 14-75 9 0 0 2 20 46 11 35-6 84-14 38-69-2-3-27-26-33-26-7-6-77-26-102 3l-4-80c33-14 7 0 60-14 18-6 55-9 66 11 13-14 2-9 20-14-2-23-2-11-11-32h9c-49-49-88 0-115 9 15-17 24-32 22-60l-13 23c-9 20-31 29-60 55 4 23 13 29 15 57 4 26-2 43-4 69z"/>
 <path class="fil0" d="m3752 4906l-24-11c-11 37-22 46-44 57 24 60 115 101 146 101 73-3 35-118 9-103-2 3-13-9-9 20 4 17 22 3 4 52-46-11-15-37-58-32-2 29 11 26 42 37l20 14c-9 6 11 9-18 6 0 0-15-9-18-9-13-6-20-11-35-20-31-14-40-17-55-43 13-6 0-3 20 3l-7-20c38-23 31-6 58-11 29-20 15-52 51-52 9 29-7 23 9 43 18-11 18-29 11-57-20-89-69-11-69-11l-33 37z"/>
 <path class="fil0" d="m3139 4872c9-6-18-6 11-3 4 14 11 17 13 37 27 6 53 17 84 11l-4 49c-170-17-73-6-139-40 4-17 7-14 29-17 0-6-2-20 0-23 2-14 2-9 7-14zm-35 55c20 69 97 26 144 55 7-46 9-92 60-126l33-14c9-6 7-6 13-11-22 3-24 6-40 3l-31-32c-24-11 24-3-4-3-2 0-11 3-11 3 11-52-77-75-97-60-11 9-20 78 11 98-9-29-15-26-13-63 31 11 97 6 122 89-9 6-20 17-31 26-15-11-40-37-62-46 22 40 40 26 55 57l-42-14c18 14 13 0 18 23-20-9-24-20-44-11-2-23 4-17-2-32-44-11-113 6-86 52 4 9 4 6 9 9z"/>
 <path class="fil0" d="m3154 4651c18 6 4-6 13 11-27-9 0 0-13-11zm33-89v17c-24-9-44-14-66 0-38 26-31 40-31 52l18 9c7-9 4 3 2-17 31 0 20-6 42-11 20-3 31 3 49 6 9-17 11-32 27-40l11 20v3c2 0 2 3 2 3l-18 14c4 23 20 32 11 63-51-6-49-34-115-40 24 34 44 20 60 49 42-9 60 14 80-20v-3l-7-32c-2-17-9-17 11-23-4 32-9 20 4 37 4-23 27-109-2-126-35-9-60 20-77 40z"/>
 <path class="fil0" d="m3590 4820c7-3 7 3 11-6 0 3-4 11-2 14 0 11-2 0 4 9 9-26 20-66 7-98 0 0 0-14-38-9-44 6-42 49-77 52 2-17 27-72-13-121-38 3-66 34-77 60 0 0 2 0 2 3 4 26-2-11 9 9 40-3 62-9 60 32 0 26-4 55-11 78l-46-14c9 11 46 23 66 23 31-83 18-57 64-66 18-3 29-3 46-3l-4 37z"/>
 <path class="fil0" d="m3668 4688l15 6c11 37-13 32-9 83 22-6 35-32 51-49-4-9 0-3-4-9l-4-6-4-6s0-3-2-3l18-17c15 14 15 17 18 43h35l2 23 29 3c-2 9 11 23-58 34-33 6-58 9-88 0 13 17 46 26 75 29 40 0 55-9 80-20-20-3-44 9-77 9 2-3 4-6 4-3l4-3 29-9c33-9 35-32 53-9 0-20-27-69-35-86v9l-2 6c0 3-2 3-2 6-42-34-9-20-69-95-9 3-18 6-27 11 18-34 4-14 0-23-20 14-31 43-31 75z"/>
 <path class="fil0" d="m3320 4590c18 6 11-6 15 20l-15-20zm-35-72l-2 17c2 3 4 3 4 3 4 20 4 3 4 3 7 3 2-3 11 6 11 11 2 9 22 20l2-9h2c0-3 2-3 2-3l49 6c35-23 24-11 71-20 0 26 2 20-13 37l-24 23c2-49 20-3 24-46l-29 17c2 32-11 46-20 69-31-14-42-29-49-63-33-9-20 0-44-20l-7-9c7 26 22 49 35 66 18 17 40 29 75 29 13-17 7-11 24-20 27-17 4 3 22-26 38-69 44-101-44-95-20 0-13 0-24 3-27 6-49-20-93 11z"/>
 <path class="fil0" d="m3362 5271c58-49 13-95 35-149 22 6 7 3 22 23 18 17 18 0 31 23s15 55 31 72l-9 40c42-26 20-98 4-138-15-37-18 6-18-40-60 14-84 11-135 6-4 14 2 9-13 26 9-32 13-26 2-32-9 26-20 37-31 60 9-6 4-3 11-6l18-14c-9 46-46 98 7 138-2-26-24-43-22-69 0-11 20-60 29-66 29-20 44 11 49 34 11 55-4 52-11 92z"/>
 <path class="fil0" d="m3097 5200c24-14 11-14 31-34-2 29-20 72-35 86l4-52zm-91-92c29-11 53-6 84-3-31 6-24 6-49 20l-35-17zm-42 46c-2-17-2-3 7-9 0 0 58 20 69 0l4-3c13 11 38 9 55 3 15-6-13-14 18-3 7 37-22 46-49 55 0 26 7 29 13 49-9 14-13 11-15 37 29-9 35-26 51-55 9-20 24-60 24-83-11-20 0-6-20-14l-9-29c-44-11-184-34-148 52z"/>
 <path class="fil0" d="m2975 4754c15-40 27-11 38-49 27 3 22 6 35-11 9 11 0-17 9 14 4 17-2 9 2 20 11 34 7-17 9 29l31 14 4 37c22-11 29-29 29-55 0-17 0-23-4-37-11-34-2-20-22-32-7 34 9 34 18 49 11 26-2 17-2 20-11-17-40-37-20-86-9-11-9-17-22-29-31 3-55 20-71 43-15 20-42 46-33 72z"/>
 <path class="fil0" d="m3497 4608l20 9c4-11 2-6 7-11 13 20 9 20 11 46-7-6-2 0-9-9l-7-9-2-3 15 52 15-60c-13-23-13-23 0-43 22 6 24 9 33 26 18-3 35-11 51-14 22 0 22 9 46 11 7-43-42-40-77-49-22-23-58-32-95-29l-9 83z"/>
 <path class="fil0" d="m3114 5274c31-14 55-34 97-43l-9 11c-22 20-18 3-22 46-27-29-44-9-73 0 4-3 2-9 7-14zl-27 23c31 26 13-14 108 6 13-26 27-40 49-52 2 37 4 29-9 57l-15 40c20 29 35 3 18 43-9 3 13 11-20 3-18-6-24-26-29-40h-51c-24-26-11-23-24-43-29 40 40 49 60 60-4 11 2 26-15 0 9 26 53 34 77 34l15-17c0-20-2-43-11-57 24-40 38-55 2-89 4-11 4-14 11-20-62-3-113 23-139 52z"/>
 <path class="fil0" d="m3314 4832c-2-23-18-60-33-69 71-60 73 32 97 55l7 11c11-20 7-17 7-49 2 3 2 3 2 6l13-37c-2 3-2 3-7 9l-9 11c-11-46-35-95-84-103-44 40-29 126 7 167z"/>
 <path class="fil0" d="m2429 5849c-4 46-22 55-7 118 11 46 31 57 66 72 2-55 13-40 18-69-35-3-40 14-42 46-11-11-38-98-35-121 0 0 2 3 4 3l15 9c11 9 2 0 11 14l20-14c11-3 9 0 22-3l-49-3c4-23 2-17 31-23l4 6s0 3 2 3l18 3 11-26c-27-26-38-55 2-69l-20-17c-20 17-40 37-20 80l-53 17 18-37c-15 20-4 6-18 11z"/>
 <path class="fil0" d="m3017 4921c-2 3-9 11-4 0 4-9 7-3 7 0h-2zm42-17l11 23-38-9-11-11c-11-20-11-20-27-37 9-20-7-3 15-17l-53-14c15 11 15 3 31 17-18 14-11 3-33 6-7 46 11-3 44 57 2 6 11 20 15 26l49 3c9 46-24 37-58 46l-11 49c64-60 22-17 73-52-15 40-51 66-84 86 51-11 89-43 104-103 15 14 15 11 33 3-18-32-22 9-46-49-4-9-2-6-4-14-7-6-4-3-11-9z"/>
 <path class="fil0" d="m2924 6041c0-3-2-3-2-3 4-3-9-9 15-3l-13 6zm80 0l-2-32-22 11-4-20c-9 9-7 11-35 6 13 17 4 11 33 14l-11 9c-2 3-9 9-11 9l-69-23c4 17 13 26 24 32l11 11c-31 0-22 0-31-9l-11-17c-13 14-7 29-7 26l-51 9 9 17 69-17c-7 14-7 11-18 20 9 6 2 9 18 3l18-9 9 20c11-34-2-11 55-23 24-6 11-6 18-9-15-26-20 0-46-20 15-9 7 3 29-6 15-3-2-14 27-3z"/>
 <path class="fil0" d="m3528 5257c7-11-2-9 11-11-7 23 2 6-11 11zc4 49-18 20 58 23 31 55 35 17 100 46-9-37-27-49-71-43-13-32-22-14-38-43 44-3 40 9 73 17-27-23-69-40-115-34-11 14-15 26-20 49 2 0 4-6 4-3l9-11z"/>
 <path class="fil0" d="m3488 5079c35 57 24-6 93 86 2 0 7 3 7 6 7 14 4 9 0 29-51 9-58-32-84-40 20 32 35 46 86 52l27-26s2-80-62-98c-20-6-18-9-31-20-22 6-20 0-35 11z"/>
 <path class="fil0" d="m4692 4338l18 26c-38 14-7-6-27 29-9-9-9-3-7-23l-22-6 29-37c7 9 4 3 9 11zm11 66c35-26 22-43 13-83-89-43-97 63-62 75h7c20 6 4 11 42 9z"/>
 <path class="fil0" d="m3349 5315l11-9c13-6-2-3 4 0l-9 43c-27 9-38 20-46 52l24-26c58-6 33-9 49-46 7-14 31-34 53 6l4 6c7-14-2-26-9-43 7 6 18 14 24 23 9 9 4 6 9 14 7 11 4 11 11 20-11-40-46-80-84-89-15 11-33 29-42 49z"/>
 <path class="fil0" d="m2123 4306c0 3 2 3 2 3l22 23c-13 20-13 9-18 20-9 23 7 23 7 23 7-14 9-14 18-32 0-23 4-49-15-57-75-26-93 86-22 89-13-34-18-26-29-49l35-20z"/>
 <path class="fil0" d="m3761 5133c38 3 0-9 42-14 4 26-9 34-20 49 13 11 13 9 33 14 20-37 33-14 44-78 0 3-2 3-2 6l-15 14c-13-14 0-6-20-14-31-17-58-3-62 23z"/>
 <path class="fil0" d="m3692 5113l-9 14c13 46-7 34 29 69 2 0 2 3 4 3-11 17-2 32 2 49l35 11c-7-11-31-26-18-63-15-23-51-80 15-60-18-26-33-6-60-23z"/>
 <path class="fil0" d="m3241 5047l15 3c-22 11-62 34-71 49-15 23-35 63-15 86 11-40-4-55 33-86 18-14 11-17 29-26 24-11 20 11 31-14 2 40 13 29 38 46l13-3c-4-37-9-14-20-43-27-6-11-6-35-20l-18 9z"/>
 <path class="fil0" d="m3117 5013c15-9 20-14 40-11v9c0 11 22 6 42 9l7-3c27 6 20 11 46 11 2-14 7-6-2-23-13-29-60-20-62-20-18 11-7-3-11 20l-4-6c0 3-2 0-4-3 0 0-27-20-51 17z"/>
 <path class="fil0" d="m3533 5941c0-3-2 0-2 0l-73 3 2-26-20 11c9 11 4-17 7 17 42 3 29 3 38 11l-84-6c7 11 124 14 142 17l-29-17c35-9 40 9 62-3-15-11-7 0-18-9 0 0-9-11-9-14-15 9-13 20-15 14z"/>
 <path class="fil0" d="m2940 4932c2 3 4 3 4 3 2 11 2-6 20 14-13 17-49 60-24 95 9-23-4-14 15-43 20-29 22-3 22-40 0-9-15-14-20-49 0 3-2 3-2 6s0 3-2 6c0 0 0 3-2 3 0 0-2 3-2 6 0 0 0 3-2 3-9-32-13-32-2-63-9 20-11 34-4 60z"/>
 <path class="fil0" d="m4446 5771c0 46 4 89 2 135v98c4 26 0 11 11 14-2-37-2-80-2-124 2-60-2-72-7-118 0-3-2-3-4-6z"/>
 <path class="fil0" d="m3112 6050v-6l11-11c-11 0-9-3-20 0-22 6 2 0-11 9-9 6-13 6-24 9 31 23 24 11 66 20-27 14-7-3-20 17 13 20 11 23 24 29 4-11 0-14-4-29 9-14 4-9 13-17-18-17-4-6-18-9-20-9-4 3-18-11z"/>
 <path class="fil0" d="m2975 4754l-7 32c29 3 15 3 33-14 15-14 15-6 33-17l-29-26-18 17c-9 9-2 3-13 9z"/>
 <path class="fil0" d="m2488 6076c-66-34-44-55-80-66l4 26c22 11 9 6 29 20l-9 6c-2 0-7 3-9 3-15 9-4 0-15 14 11-3 46-6 58-3 13 0 15 6 35 11-9-9 7 0-13-11z"/>
 <path class="fil0" d="m3769 5234l13 23c18-23 22-32 15-66l-31-9 2 52z"/>
 <path class="fil0" d="m4256 5251c15 6 4-11 13 11 4 9 4 11 4 20l18 26c4-66-27-57-29-98-27 0-20 3-40-9 11 17 29 26 33 49z"/>
 <path class="fil0" d="m4267 5481c18-14 18-20 24-40h29c0-3-9-6-9-6-13-9-4-3-11-9 4-37 20-83-2-115 0 0-4-3-7 17 0 23 0 0 4 20 13 63-4 72-29 132z"/>
 <path class="fil0" d="m2484 5036h4c2-32 2-57 13-66l2-3c18-14 27-29-2-46-11 17-4 14-9 29-11 34-9-26-9 86z"/>
 <path class="fil0" d="m3103 4809l-42-9c-9-6-9-6-18-9l-13 14 40 6c-18 11 18 6-27 9-11 0-27 0-38-3-20 0-33-9-51-14 11 34 126 23 148 6z"/>
 <path class="fil0" d="m5263 4424c20 6 69 9 95 11 27 3 69 9 89-6-35-3-62 0-97-3-18-3-35-3-49-6h-35s-2 0-2 3z"/>
 <path class="fil0" d="m4849 4338c13 9 42 6 60 9 20 6 35 11 55 17 0 0-2 3-4 3s-4 3-7 3l-11 3c-13 6-4-3-11 6l42-11c22 17 0 14 38 17-15-23-51-29-77-37-20-6-62-17-84-9z"/>
 <path class="fil0" d="m3192 6194c-38 9-38 9-53-6 24 3 89 3 95 3-20-17-38-9-60-6-29 0-35-9-51 17l91 3 2 14c11-6 4 11 11-11-11-3-24-9-35-14z"/>
 <path class="fil0" d="m2126 4473l-4-20c-11-6-31-9-42-11l-15 20c7 3 9 3 15 6 0 0 2 0 4 3 18 9 18 9 42 3z"/>
 <path class="fil0" d="m5429 4952c33 20 135 26 195 32l20-3c-22-9-84-9-111-11l-104-17z"/>
 <path class="fil0" d="m2811 4136c38-11 20-20 51-26 22-6 38-6 60-17-82 0-84 0-111 43z"/>
 <path class="fil0" d="m3117 5013l-15 3c-7 26-22 46 4 57 22 11 51 14 77 11-24-20-13 3-82-23 0-29 4-29 15-49z"/>
 <path class="fil0" d="m3692 5395c18-9 38-23 53-40 15-14 35-32 42-55-9 6-2-3-13 11l-35 34c-18 14-38 26-46 49z"/>
 <path class="fil0" d="m3597 5921c29-6 44 3 51 11l29 3-9-23c-33 23-29 0-53-3-40 0-40 0-51 9 18 23 18 9 33 3z"/>
 <path class="fil0" d="m4665 4725h31c4-9 2-34-7-52-15 6-9-6-18 20-2 6-4 20-7 32z"/>
 <path class="fil0" d="m2533 5883c15 11 20 17 46 17 15 3 35-3 46-11-24-11-66-6-93-6z"/>
 <path class="fil0" d="m3256 5398c20-17 22-49 24-80 4-32 7-66-15-86 4 52 29 23-9 167z"/>
 <path class="fil0" d="m4190 4832c20 23 49 66 73 75-4-11-69-95-95-101l22 26z"/>
 <path class="fil0" d="m4637 4283h89c-4-6 4-20-44-14-49 6-40-3-44 14z"/>
 <path class="fil0" d="m4964 4542c20 26 86 29 124 34l-31-26c-31 14-51 11-93-9z"/>
 <path class="fil0" d="m4893 4981c18 14 135 34 155 34-18-11-51-17-75-20-31-3-49-11-80-14z"/>
 <path class="fil0" d="m3738 5283c-15-29-20-6-49-55-20-34-11-52-22-83-11 23 4 57 15 80 13 29 24 49 55 57z"/>
 <path class="fil0" d="m4126 4657c-7-23-13-20-24-43-9-3-4 0-11-6-2 0-9-6-11-9-9-6-9-9-20-14 4 17 38 52 55 66 7 6 4 3 11 6z"/>
 <path class="fil0" d="m5438 5228c24 23 55 0 89 17 11 6 27 20 58 20 11 3 7 0 13-3-13-3-27-6-42-9-20-9-18-14-35-20-18-6-20 3-42 0-11 0-24-6-40-6z"/>
 <path class="fil0" d="m2555 4177c-31 3-71 23-97 34-38 14-60 26-97 37 33-6 166-55 195-72z"/>
 <path class="fil0" d="m2827 5021c4-3 11-3 11-26l-2-40c0-9 0-6 2-11 0-32 0-14-11-32v109z"/>
 <path class="fil0" d="m2449 6154l11 20c33-23 46 6 71-14-18-11-9 3-24-17-11 20-35 14-58 11z"/>
 <path class="fil0" d="m3570 5455c-33 11-64 14-104 23-44 11-97 6-102 6 33 20 181-11 206-29z"/>
 <path class="fil0" d="m2070 4513c20 3 89 3 104-11l-40 6-11-14c-27 26-31-6-53 20z"/>
 <path class="fil0" d="m3621 4665l-24-11-2-3c-18 23-2 6-11 23-18 6-15 3-31 14 20 0 20 0 38-6 35-11 27-14 31-17z"/>
 <path class="fil0" d="m3409 5984c18 14 97 11 106 9-22-14-71-9-106-9z"/>
 <path class="fil0" d="m3006 5202c-4 40 7 66 38 78-9-34-15-3-27-55-9-32 4-11-11-23z"/>
 <path class="fil0" d="m3692 5113c60-23 60-26 133-23-44-23-117 3-133 23z"/>
 <path class="fil0" d="m5008 4838c9 11-9 9 18 14 27 9 11-6 27 14h-51c11 9-11 3 18 9h24c18 0 20 6 38 11-2 0-2-3-4-3l-2-3c-2 0-4-3-4-3l-11-20c13 6 22 9 35 14-24-17-66-14-86-34z"/>
 <path class="fil0" d="m4646 4134c15 9 53 3 73 0-13-14-73-17-73 0z"/>
 <path class="fil0" d="m1495 4530c33 0 113-23 146-37 20-9 27-6 42-17-35 6-122 43-144 46-27 0-24-3-44 9z"/>
 <path class="fil0" d="m3535 5372c20-9 4 9 18-20 4-11 4-11 11-23l-27-9-2 52z"/>
 <path class="fil0" d="m4022 4435l51 3c-4-14-7 0-33-14 0-3 20-26-22-11 2 14 0 9 4 23z"/>
 <path class="fil0" d="m3975 5444c-7-17-7-11-11-26-11-29 0-17 0-32 0 0-18-57-18-57-2 14-4 23 0 34 7 23 7-14 7 29 0 20 7 40 22 52z"/>
 <path class="fil0" d="m4699 4430c-18-11-53-6-73-6 22 29 69 6 73 6z"/>
 <path class="fil0" d="m3230 4717c13 17 9 14 33 20l-4-37c-20 6-18 3-29 17z"/>
 <path class="fil0" d="m1364 4484c11 11 27 17 51 20 22 3 49 6 64-3-117-9-24 3-115-17z"/>
 <path class="fil0" d="m3741 4843l-42-9c2 17 0 20 20 26 22 3 18 0 22-17z"/>
 <path class="fil0" d="m1307 4145c20 6 126-6 164-6-84-17-49 6-131 3h-27l-2 3h-4z"/>
 <path class="fil0" d="m5763 5326c11 6 40 11 58 14 62 11 40 20 51 0-31 0-82-17-108-14z"/>
 <path class="fil0" d="m3291 4648c18-3 13 0 24-11-7-14-15-29-27-40l2 52z"/>
 <path class="fil0" d="m3356 5088c7 9-2 3 11 9 24 9 55 0 77-9 4-3 7-3 13-6 13-6 4 0 13-11-49 23-55 23-115 17z"/>
 <path class="fil0" d="m3081 4858c-4-9 9-9-46-14 7 9 9 14 18 20 31 17 24 0 29-6z"/>
 <path class="fil0" d="m2318 4148c15 0 31-3 44-9 31-9 35 0 44-23-29 9-66 20-89 32z"/>
 <path class="fil0" d="m3506 5889c-29 11 11 0-22 23 22 3 53 6 62 0-18-9-9 0-24-9-20-14 9 0-15-14z"/>
 <path class="fil0" d="m3747 4881c31-3 2 3 22-14 15-14 53-37 58-49-15 9-62 32-80 63z"/>
 <path class="fil0" d="m4389 4964c18 14 15 3 35 20 18-29 2-3 29-20-15-9-44-3-64 0z"/>
 <path class="fil0" d="m2703 4177c13 9 11-3 51 0 22 0 33 9 58 3-20-9-80-17-108-3z"/>
 <path class="fil0" d="m4387 5269h22l66-6c-22-9-38-11-69-3-31 6-9 3-20 9z"/>
 <path class="fil0" d="m5502 4392c15 11 66 23 80 11-11-6-60-14-80-11z"/>
 <path class="fil0" d="m3621 4665l22-14c7-9 2-3 9-14-24-6-9-9-33-14-2 17-2 17 15 32-20 6-9 6-13 11z"/>
 <path class="fil0" d="m5161 4904c-27-3-22-6-33 0l60 11c-4-14 0-9-13-14l-60-29 46 32z"/>
 <path class="fil0" d="m2364 4369c24-3 38-6 60-11 20-6 35-3 51-11-33-6-84 11-111 23z"/>
 <path class="fil0" d="m2347 5289c29 6 42 6 44-29-31 3-7 0-20 11-15 17-9 6-24 17z"/>
 <path class="fil0" d="m1462 4188c108-3 73 32 137 14-42-3-33 0-66-14-18-6-53-6-71 0z"/>
 <path class="fil0" d="m1683 4392c11 6 102-17 111-23-31 0-40-3-62 11-27 11-35 3-49 11z"/>
 <path class="fil0" d="m4637 4843c20-14 20-29 13-49-15 14-24 32-13 49z"/>
 <path class="fil0" d="m4652 4004c9 3 20 6 31 3 27 0 22-9 27-14-49 3-42-6-58 11z"/>
 <path class="fil0" d="m3455 5280c-7-17-15-11-31-32-20-29-7-26-20-49 0 49 15 66 51 80z"/>
 <path class="fil0" d="m3006 5202c-11-17-7-6-22-17-9-9-13-20-20-32 4 26 4 23 20 37-2 20-4 20 2 40 4-9 9 0 4-26l15-3z"/>
 <path class="fil0" d="m3075 6001c-40-17-24 0-35-20-4 23-2 26 42 37l-7-17z"/>
 <path class="fil0" d="m3128 5929c18 14 9 0 18 20l22 3c-15-14-4 3-9-14 20 0 24 3 40-6l-71-3z"/>
 <path class="fil0" d="m1780 4490c15-6 7 0 2-17 0-3-2-3-2-3v-3c-31 17-22-3-38 23h38z"/>
 <path class="fil0" d="m5123 4849c-13-37-62-34-95-34 20 6 60 11 77 20l13 11s2 3 4 3z"/>
 <path class="fil0" d="m4896 4306l75 20c-9-20-58-29-75-20z"/>
 <path class="fil0" d="m4037 4329c11 6 13 9 29 14l126 14c-22-11-15-3-42-6l-113-23z"/>
 <path class="fil0" d="m3522 4734c15-6 20-3 22-23-13-17-4-11-24-9l2 32z"/>
 <path class="fil0" d="m2519 4372c-9 6-7-9-4 17l18 40c7-14 2-43-13-57z"/>
 <path class="fil0" d="m3183 5200c29 17 86 3 102-29-2 3-4 0-4 3l-15 11c-27 17-49 14-82 14z"/>
 <path class="fil0" d="m4845 4228c27 26 64 3 66 3-24-11-38 0-66-3z"/>
 <path class="fil0" d="m2946 5998c2 0-4 9 11 3 7-3 0-11 27-23l22 17c-4-9-7-14-11-23-44-3-20 3-49 26z"/>
 <path class="fil0" d="m3712 5053l38-3c-13-14-15-20-38-20v23z"/>
 <path class="fil0" d="m3398 4702l13-26-33-6c0 17 9 23 20 32z"/>
 <path class="fil0" d="m3460 5386c-15-46-29-23-33-20 7 9-22 9 33 20z"/>
 <path class="fil0" d="m1267 4197c22 20 86 14 113 3-7-3-20 6-38 6l-75-9z"/>
 <path class="fil0" d="m1776 4240c20 6 77 3 100-3 15-6 7-3 11-6l-111 9z"/>
 <path class="fil0" d="m3161 6082c51-9 35-23 35-29-11 0-13-6-35 29z"/>
 <path class="fil0" d="m2141 4260l-64-3c0 11-4 17 46 9 13 0-2 9 18-6z"/>
 <path class="fil0" d="m2121 4424c-7-9-2-3-11-6 0 0-7-3-9-3l-22-3 11 20c13 0 13-3 20-11 9 17 0 9 18 17-2-6 0-9-7-14z"/>
 <path class="fil0" d="m3008 4125c20-29 18-9 27-32-13-3-27-9-31 20 0 9-2 0 4 11z"/>
 <path class="fil0" d="m2681 5444c18-17 15-20 9-43l-18 20 9 23z"/>
 <path class="fil0" d="m2119 4231c-11-14 0-3-24-11-7-3 2-3-11-3-4 17-2 20 11 23 18 0 0 0 11-6l13-3z"/>
 <path class="fil0" d="m3041 5073c29-6 38-3 33-29-11 0-22 9-33 29z"/>
 <path class="fil0" d="m3134 5099c7 26 2 14 15 20 18-14 9 0 15-26l-31 6z"/>
 <path class="fil0" d="m4931 4211c-9-17-31-23-53-23 11 14 31 20 53 23z"/>
 <path class="fil0" d="m5292 4513c31 11 40 14 55 6-15-9-9-6-29-9-35-6-20-3-27 3z"/>
 <path class="fil0" d="m4783 5717c0-3 20-3 22-20s-7-11-15-17l-7 37z"/>
 <path class="fil0" d="m4707 4826c2 0 4 0 4 3 2 6 2 0 7 3 9 6 2 3 15 6l-7-29c-33 6-15-6-20 17z"/>
 <path class="fil0" d="m5123 4849c18 17 27 17 66 17-4 0-4-6-15-9l-51-9z"/>
 <path class="fil0" d="m3619 4700c0 9 4-3 2 20 9-6 31-40 35-52l-38 32z"/>
 <path class="fil0" d="m2851 6151c-11-9-7-3-2-14h-24c9 23 11 11 4 40l22-26z"/>
 <path class="fil0" d="m3451 4639l31-17c-11-32-2-6-13-17-11 14-13 17-18 34z"/>
 <path class="fil0" d="m1853 4145l84-3c-22-9-15 3-42-6-18-6-29-3-42 9z"/>
 <path class="fil0" d="m2411 5860l11-9s4 0 4-3h2l15-37c-20 11-27 26-33 49z"/>
 <path class="fil0" d="m2953 5797l20 6c9-6 27-14 35-20l-58 9 2 6z"/>
 <path class="fil0" d="m2539 4866h75c-18-9-66-14-75 0z"/>
 <polygon class="fil0" points="3499 3881 3484 3869 3482 3898 3508 3898"/>
 <path class="fil0" d="m4869 4404c7 6-2 9 35 14l44 3c-20-6-53-14-80-17z"/>
 <path class="fil0" d="m4960 4748c40 23 13 23 77 34 20 6 29 3 49 6 15 3 33 3 49 6l-97-14c-62-6-38-26-77-32z"/>
 <path class="fil0" d="m3475 5067c20-14 33-26 35-57-11 14-27 40-35 57z"/>
 <path class="fil0" d="m2092 4128c15 9 20 6 44 6 0 0 4-26-44-6z"/>
 <path class="fil0" d="m4539 5927l-24-3c2 26-4 20 20 23l4-20z"/>
 <path class="fil0" d="m2376 5315c-11-14-4-9-20-11-7-3-11-6-22-9 9 32 4 14 42 20z"/>
 <path class="fil0" d="m5365 4455l66 3c-9-6 13-6-31-9-20-3-24-3-35 6z"/>
 <path class="fil0" d="m3095 6136h-29l-20 3s-2 3-4 3c22 9 15 0 35 3s9 20 18-9z"/>
 <path class="fil0" d="m2148 4484c0-9 11-6 4-17h-13c4 29 2 37 35 17h-27z"/>
 <path class="fil0" d="m5553 5105c18 6 66 20 80 6l-80-6z"/>
 <path class="fil0" d="m2530 5139c2 0 4-6 4-3 4 9-4-20 18-32l-29-6c9 20 7 14 7 40z"/>
 <path class="fil0" d="m5668 5329c-20-11-77-26-108-26l108 26z"/>
 <path class="fil0" d="m2083 4386c15 9 60 6 73-6l-73 6z"/>
 <path class="fil0" d="m3294 5059c15 9 20 14 35 17l-38-37c-2-3-4-3-4-6 9 20 4 11 7 26z"/>
 <path class="fil0" d="m5615 5294c18 14 95 26 115 29l-115-29z"/>
 <path class="fil0" d="m5376 5116c38 23 29 32 82 17l-55-3-27-14z"/>
 <path class="fil0" d="m4964 4542c-18-20-15-20-55-26 27 23 22 6 55 26z"/>
 <path class="fil0" d="m2767 4283l-66-3c24 14 35 11 66 3z"/>
 <path class="fil0" d="m3187 4562v-20c-31 11-15 0-24 20h24z"/>
 <path class="fil0" d="m5701 4952l53 6c-13-17-42-14-53-6z"/>
 <path class="fil0" d="m5039 4682c13 11-13 0 11 11l46 17c-7-11-40-23-58-29z"/>
 <path class="fil0" d="m3511 5366l-2-69c-11 20-7 52 2 69z"/>
 <path class="fil0" d="m4238 4777c9 11 11 14 18 23 15 23-4 9 20 20-4-17-13-29-38-43z"/>
 <polygon class="fil0" points="3121 4829 3145 4838 3137 4806"/>
 <path class="fil0" d="m4508 5978c24 3 27 0 20-23-11 9 0-6-13 11-7 9-2 3-7 11z"/>
 <path class="fil0" d="m5559 4455c7 9-7 14 40 17-15-14-2-9-40-17z"/>
 <path class="fil0" d="m5526 4453c-13-11-29-17-46 0h46z"/>
 <path class="fil0" d="m3139 4872c2 29-4 26 11 37 7-9 11 17 7-11-9-34 2 9-13-11-2-6 0-3-4-14z"/>
 <path class="fil0" d="m1893 4450c2 0 13-3 15-3 13 0 2 0 11 6-4 3-2 3-13 9-4 0-11 3-13 3-9 3-15 3-24 6l71-26-137 14c-11 3-4 3-11 9l102-17z"/>
 <path class="fil0" d="m3623 4297l35-3c-15-11-27-23-35 3z"/>
 <path class="fil0" d="m2508 5927c24 20 7 11 22 34 9-14 7-11 2-26l-24-9z"/>
 <path class="fil0" d="m1194 4180l51 6c-4-6 0-6-11-9-2-3-13-3-15-3-9 0-20 3-24 6z"/>
 <path class="fil0" d="m3674 4938c-11 6-13 9-24 14-20 11-11 3-15 14 20-3 31-11 40-29z"/>
 <path class="fil0" d="m2471 6358l29-52c-18 3-22 23-29 52z"/>
 <path class="fil0" d="m4922 4260c-15-6-38-11-55-9 18 9 44 14 55 9z"/>
 <path class="fil0" d="m3183 5909l49-3c-7-3-18-6-27-6-38-3-18 0-22 9z"/>
 <path class="fil0" d="m3165 4708c-7-14-4-11-20-20 0 32 0 26 20 20z"/>
 <path class="fil0" d="m4710 4427c2 3-2 14 15 11 24-6 7 3 11-14l-27 3z"/>
 <path class="fil0" d="m4112 5441l38-6c-9-6 15-9-18-6-15 0-20 0-20 11z"/>
 <path class="fil0" d="m4891 5030l80 9s-66-20-80-9z"/>
 <path class="fil0" d="m2776 4251c11-11 29-6 49-26-20 3-44 11-49 26z"/>
 <path class="fil0" d="m2937 4085l35 9-13-20c-9 6-15 6-22 11z"/>
 <path class="fil0" d="m2639 5360c-2-23 2-17-18-23 0 32-11 9 18 23z"/>
 <path class="fil0" d="m5615 5294c-2-6 7-6-13-14-13-6-18-3-31-3l44 17z"/>
 <path class="fil0" d="m1247 4484c-20 0-2-3-13 3 9 14 9 14 29 3-9-9 13-9-15-6z"/>
 <path class="fil0" d="m2641 4453c-20-9-75-11-95-9l95 9z"/>
 <path class="fil0" d="m4889 5079l49 6c-4-3-2-6-11-9-2 0-13-3-15-3l-20 3-2 3z"/>
 <path class="fil0" d="m3480 5409c18-11 2 0 9-17-22 9-22 0-20 14 7 6-11 20 11 3z"/>
 <path class="fil0" d="m5438 5019l80 3c-24-3-62-14-80-3z"/>
 <path class="fil0" d="m4891 4605s11 0 13-14c0-11-4-9-13-14v29z"/>
 <path class="fil0" d="m2497 5042c13 6 27 9 40 0-15-6-27-9-40 0z"/>
 <path class="fil0" d="m1800 4343c29 3 24 6 33-11-13-3-20 3-33 11z"/>
 <path class="fil0" d="m3577 5878l-29 11c13 9 13 6 29 3v-14z"/>
 <polygon class="fil0" points="2345 4958 2367 4938 2336 4941"/>
 <path class="fil0" d="m2621 4194c20-3 53-9 69-14l-53 6c-22 6-11 6-15 9z"/>
 <path class="fil0" d="m2601 6151c11-9 24-23 31-37-20 9-27 23-31 37z"/>
 <path class="fil0" d="m2477 6205c24-9 27-14 13-29l-13 29z"/>
 <path class="fil0" d="m3026 6082c9 14 13 20 29 29-7-17-9-26-29-29z"/>
 <path class="fil0" d="m2692 4317c22 9 15 6 24-9-15-6-18-6-24 9z"/>
 <path class="fil0" d="m3838 4185c-13-9-40-11-62-14 15 11 42 11 62 14z"/>
 <path class="fil0" d="m5026 4421l106 34c-29-11-64-29-106-34z"/>
 <path class="fil0" d="m2369 5381c13 20-4 14 27 23-9-17-9-20-27-23z"/>
 <path class="fil0" d="m3860 5481c20-9 15-9 13-20-15 0-20 3-13 20z"/>
 <path class="fil0" d="m2241 4162c13 14 18 9 46-3l-46 3z"/>
 <path class="fil0" d="m3064 5964c18-6 4 3 20-9-18-14-22-20-20 9z"/>
 <path class="fil0" d="m5774 5346c-9-3-20-3-29-6-22-6-38-11-60-6l89 11z"/>
 <path class="fil0" d="m2491 4277l64-20c-27 0-51 9-64 20z"/>
 <path class="fil0" d="m5112 4938c9 9 2 9 24 11h33l-58-11z"/>
 <path class="fil0" d="m2953 5065c15 9 18 6 27-11-13 3-27 3-27 11z"/>
 <path class="fil0" d="m3873 4272c13 23 13 14 22-3-31-3-15 0-22 3z"/>
 <path class="fil0" d="m2692 6182c7-14-4-11-4-11-4 3-2 3-9 9l-2 11c11-6 2 17 15-9z"/>
 <path class="fil0" d="m5039 4677c-9-14 0-11-20-11h-29l49 11z"/>
 <path class="fil0" d="m2887 6110c7 14 2 11 11 23 13-20 9-20-11-23z"/>
 <path class="fil0" d="m2851 4838c4-17-11 11 0-11l9-6h2l-9-23-7 29c0 11 2 6 4 11z"/>
 <path class="fil0" d="m4424 4113l-46-14c9 17 27 14 46 14z"/>
 <path class="fil0" d="m3362 5444c22-6 15 6 24-17-24 6-15 0-24 17z"/>
 <path class="fil0" d="m2320 6021c0-11-4-9-4-14-9 20-11 14 0 32 2-6 4 3 4-17z"/>
 <path class="fil0" d="m1882 4165h-24l-20 3c11 9 31 6 44-3z"/>
 <path class="fil0" d="m4984 4487c7 9 0 3 13 11 2 3 15 6 18 9-11-20-7-17-31-20z"/>
 <path class="fil0" d="m3674 4938c11-6 0 9 13-9 4-9 4-14 7-20l-9-6c0 23-2 20-11 34z"/>
 <path class="fil0" d="m3336 5941c-9-20-11-20-24 0h24z"/>
 <path class="fil0" d="m4442 5395c4-3 2 6 9-14 2-6 2-11 2-20-11 6-7-3-11 34z"/>
 <path class="fil0" d="m2926 6110c11 23-2 20 31 29l-31-29z"/>
 <path class="fil0" d="m2123 4234c13 0-2 6 13-3 11-6 2 0 9-6l-11-6h-4c-9 3-4 0-7 14z"/>
 <path class="fil0" d="m3511 5366l4 17 22 6c-9-11-18-17-27-23z"/>
 <path class="fil0" d="m3079 5990l35 3c-2-3 2-9-22-9-13-3-11 6-13 6z"/>
 <path class="fil0" d="m4900 4955c15 11 69 20 86 23l-86-23z"/>
 <path class="fil0" d="m3225 5843l-27 3c11 9-4 6 13 9 31 3 0 3 13-11z"/>
 <path class="fil0" d="m2599 4677c18-11 27-17 33-37-11 14-24 20-33 37z"/>
 <path class="fil0" d="m3174 6016c-29-20-24 0-24 3h13c11 0 7 0 11-3z"/>
 <path class="fil0" d="m1922 4272l-49-3c18 9 31 11 49 3z"/>
 <path class="fil0" d="m4988 4863c-11-14-15-17-42-17l42 17z"/>
 <path class="fil0" d="m3528 5024l-9 11c-9 14-4 3-9 20 18-14 15-6 18-32z"/>
 <path class="fil0" d="m2393 5202l9-23-11-3c-2 6-2 6-2 14 4 23 0 3 4 11z"/>
 <path class="fil0" d="m3648 4817c-4-14 0-9-15-14 0 23-11 17 15 14z"/>
 <path class="fil0" d="m3765 4105l53 6c-13-9-42-11-53-6z"/>
 <path class="fil0" d="m1581 4539c24-3 31 0 44-11-7 3-13 3-20 3s-9 0-15 3l-9 6z"/>
 <path class="fil0" d="m2249 4519l-27-11c9 11-2 9 13 14 24 9 9 0 13-3z"/>
 <path class="fil0" d="m4988 5042c15 9 40 17 60 14l-60-14z"/>
 <path class="fil0" d="m5272 4570c-13-11-42-14-66-17l66 17z"/>
 <path class="fil0" d="m3314 5366l31-46c-13 11-27 23-31 46z"/>
 <path class="fil0" d="m2597 4533c-22 6-20 11 2 17l-2-17z"/>
 <path class="fil0" d="m3663 6062c7-11 11-11 29-11l-22-9c-9 11-7-3-7 20z"/>
 <path class="fil0" d="m2561 4111c40-9 27-6 31-20l-27 17c-2 0-4 3-4 3z"/>
 <path class="fil0" d="m3154 5978c11 9 11 9 24 0-13-9-11-9-24 0z"/>
 <path class="fil0" d="m2095 4562c-4-6 7-11-11-9-20 3-2-3-9 11l20-3z"/>
 <path class="fil0" d="m4900 5823c2 17-2 20 15 11-7-17 7-6-15-11z"/>
 <path class="fil0" d="m3918 6001c7 17-7 11 20 14-9-14 4-9-20-14z"/>
 <path class="fil0" d="m2933 6335c7 20 0 14 15 11 2-17 4-9-15-11z"/>
 <path class="fil0" d="m4685 4171c13-9 7 3 13-23-15 6-11 3-13 23z"/>
 <path class="fil0" d="m3267 3858c31 17 22 0 22 0-18-6-9-9-22 0z"/>
 <path class="fil0" d="m4117 4496c13 6 51 9 58 3l-58-3z"/>
 <polygon class="fil0" points="2659 4461 2639 4473 2654 4481"/>
 <path class="fil0" d="m4174 4570l-18-9c0 20-2 23 18 9z"/>
 <path class="fil0" d="m3314 5366c-4 3-9 6-11 11-7 26-4 0 7 14l4-26z"/>
 <path class="fil0" d="m4389 4375c4 3 9 9 20 9 33 6 4 3 18-3l-38-6z"/>
 <path class="fil0" d="m2449 5803c20-11 13-3 24-23-18 9-18 9-24 23z"/>
 <path class="fil0" d="m5030 4286l-27-9c2 6-7 6 11 11 13 3 9 0 15-3z"/>
 <path class="fil0" d="m4267 4249c20-6 4 6 18-11-13-6-13-9-18 11z"/>
 <path class="fil0" d="m2488 4312c18 3 18 3 31-3-20-9-18-3-31 3z"/>
 <path class="fil0" d="m3988 4157l38-3c-11-9-27-6-38 3z"/>
 <path class="fil0" d="m2743 5993c2-9 4-17 7-29-2 3-7-3-11 17-2 14 0 3 4 11z"/>
 <path class="fil0" d="m4915 5139c7 11 4 14 24 14-13-11-7-11-24-14z"/>
 <path class="fil0" d="m2911 5993c9 11-9 6 18 14-7-23 7-11-18-14z"/>
 <path class="fil0" d="m4942 5102c11 9-9 14 31 14l-18-9c-7-3-7-3-13-6z"/>
 <path class="fil0" d="m4019 4355c2 0-2 9 11 11 13 3 9 0 15-3l-27-9z"/>
 <path class="fil0" d="m3619 5438c24-6 40-17 55-29-20 11-38 17-55 29z"/>
 <path class="fil0" d="m2544 4243c18 9 15 3 24-11-2 3-9 3-13 6-9 3-7 3-11 6z"/>
 <path class="fil0" d="m3765 5944c-7-6 11-11-18-3l4 11 13-9z"/>
 <path class="fil0" d="m2555 4177c15-3 35-6 42-14-20 6-24 3-42 14z"/>
 <path class="fil0" d="m2670 4904c-7 11-13 0-2 20 7-6 4 3 7-9 0-9-4-11-4-11z"/>
 <path class="fil0" d="m5216 4912c4 14-7 17 15 9-7-6 18-6-15-9z"/>
 <path class="fil0" d="m5033 4453c11 11 7 9 27 14-7-6-2-6-11-11-11-6-7-3-15-3z"/>
 <path class="fil0" d="m3460 5102c22 0 9 3 20-6-7-3 11-9-9-3-18 3-11 6-11 9z"/>
 <path class="fil0" d="m1906 4332c15 0 31-3 40-14-13 6-22 6-40 14z"/>
 <path class="fil0" d="m3606 5358c-24 9-9-3-18 17 18-9 11 3 18-17z"/>
 <path class="fil0" d="m2652 4608l-15 26c11-6 7-3 13-9l7-17h-4z"/>
 <path class="fil0" d="m3322 6199l35-3c-15-9-22-6-35 3z"/>
 <path class="fil0" d="m3659 4746c11-9 9-29 9-46l-9 46z"/>
 <path class="fil0" d="m3249 5886c15 6 13 9 24 3-13-11-4-9-24-3z"/>
 <path class="fil0" d="m3276 5473c-13-9-51-17-71-20l71 20z"/>
 <path class="fil0" d="m2376 5246l33-3c-13-9-22-6-33 3z"/>
 <path class="fil0" d="m2590 5972c7 6 7 3 15 11l2-17-18 6z"/>
 <path class="fil0" d="m2800 4343c-7-3-7 0-13 3 9 6 13 6 20 9-2-11 7-6-7-11z"/>
 <path class="fil0" d="m4721 4470c-7-6 0-3-11-6-7-3-7-3-11-3 7 20 0 9 22 9z"/>
 <path class="fil0" d="m2712 6142c9 11-18 14 18 11-9-11-2-6-18-11z"/>
 <path class="fil0" d="m1119 4200c20-3 11 3 18-11-31 3-9 3-18 11z"/>
 <path class="fil0" d="m5095 4892l27 6c-4-3 7-3-15-9-27-9-7 0-11 3z"/>
 <path class="fil0" d="m3364 5924c-4-20-7-9-18-32 0 17 9 23 18 32z"/>
 <path class="fil0" d="m2387 5047c4-57 0-34-4-43l4 43z"/>
 <path class="fil0" d="m5117 4628c15 9 31 9 55 9l-55-9z"/>
 <path class="fil0" d="m5265 4372c7 14-13 0 7 11 9 3 9 0 18 0l-24-11z"/>
 <path class="fil0" d="m2840 5208c15 9 7 9 20 0-11-6 0-11-20 0z"/>
 <path class="fil0" d="m2648 4289l-31-9c11 17 9 9 31 9z"/>
 <path class="fil0" d="m4679 4254c9-11 11-11 4-23-7 11-7 0-4 23z"/>
 <path class="fil0" d="m5327 5251c-15-11-24-11-49-14l49 14z"/>
 <path class="fil0" d="m4668 5700c7-20 0-17-2-20-4 6-11 0 2 20z"/>
 <path class="fil0" d="m3241 5047c-18 3-20 0-29 17l29-17z"/>
 <path class="fil0" d="m1391 4527c27 6 15 6 24-9l-24 9z"/>
 <path class="fil0" d="m2442 6314c-4 11 0 23 9 29 0-3-2-14-4-14-2-11-4-11-4-14z"/>
 <path class="fil0" d="m2137 4180c-9-17 4-11-18-14 11 20-4 3 18 14z"/>
 <path class="fil0" d="m3145 3996v-14s-29-6 0 14z"/>
 <path class="fil0" d="m4391 4286l24 6c-7-6 0-6-13-9-18-6-11 0-11 3z"/>
 <path class="fil0" d="m1935 4090l35-6c-11-3-33-3-35 6z"/>
 <path class="fil0" d="m3878 5774c4 6 0 3 9 9 11 6 4 3 13 3-11-11-4-9-22-11z"/>
 <path class="fil0" d="m2537 4062c4 3-7 14 18 0-9-6-9-6-18 0z"/>
 <path class="fil0" d="m2345 5401c7 9-7 3 13 17-2-23 7-9-13-17z"/>
 <path class="fil0" d="m3648 5964l-13 6c29 17 13 0 13-6z"/>
 <path class="fil0" d="m2946 6168c9 11 0 9 15 14-2-14 7-9-15-14z"/>
 <path class="fil0" d="m4957 5013c-11-6-35-11-49-9l49 9z"/>
 <path class="fil0" d="m2727 4217c-11-9-27-11-44-11l44 11z"/>
 <path class="fil0" d="m3059 4904c-13-26-18-23-31-40 2 9 27 34 31 40z"/>
 <path class="fil0" d="m5117 4915c18 11 20 9 42 11l-18-6h-4c-15-6-2-3-20-6z"/>
 <path class="fil0" d="m3851 5998h20c-4-6 0-6-11-6-18-3-7 3-9 6z"/>
 <path class="fil0" d="m3088 3904c20-23 4-20 2-20l-2 20z"/>
 <path class="fil0" d="m2068 6352c2-17-2-6-7-9v20c4-9 4 0 7-11z"/>
 <path class="fil0" d="m2081 4493c4-11 4-3-2-14-15 20 2 14 2 14z"/>
 <path class="fil0" d="m3699 5950c7 14-2 6 13 14-4-17 4-11-13-14z"/>
 <path class="fil0" d="m4663 4171c9-6 7 9 11-17-13 9-7 0-11 17z"/>
 <path class="fil0" d="m3769 4280v-14c-18 6-2-6-11 9 4 6 2 0 11 6z"/>
 <path class="fil0" d="m2325 5352c4-32 7-23-4-26l4 26z"/>
 <path class="fil0" d="m2170 4573c4-6 2-6 4-9-15 3-7-11-11 20 9-9 0 0 7-11z"/>
 <path class="fil0" d="m4473 4099c-9-6-38-11-53-11l53 11z"/>
 <path class="fil0" d="m4022 4435c-13 6-7-6-15 17 11-6 7-3 15-17z"/>
 <path class="fil0" d="m4440 5231c15-6 7 6 11-14-4 3-9-3-11 14z"/>
 <path class="fil0" d="m3725 5771c22-11 7 3 18-14-13 6-13 0-18 14z"/>
 <path class="fil0" d="m3491 4392c11 9 2 9 20 3-9-6-11-6-20-3z"/>
 <path class="fil0" d="m3121 5895c-15 9-13 6-22 17 18-6 13-6 22-17z"/>
 <path class="fil0" d="m2316 4323c11-3 20-9 29-11-18 0-18 0-29 11z"/>
 <path class="fil0" d="m5557 4912c2 0 7 6 13 6 24 6 7 0 13-3l-27-3z"/>
 <path class="fil0" d="m1400 4395c-7-6-4-6-13-11-11-6-4 0-13 0l27 11z"/>
 <path class="fil0" d="m2590 4559c9 14-13 6 15 11-7-14 0-6-15-11z"/>
 <path class="fil0" d="m3842 5984c9-20-4-14-9-17l9 17z"/>
 <path class="fil0" d="m3314 5895h20c-7-3 0-17-20 0z"/>
 <path class="fil0" d="m1318 4478l15 3c-4-11 4-17-15-3z"/>
 <path class="fil0" d="m3853 5955c7 17-2 9 13 14-7-11 9-3-13-14z"/>
 <path class="fil0" d="m3314 5317l2-17c-15 14-11-23-9 6 2 17-4 3 7 11z"/>
 <path class="fil0" d="m2794 6191c-20 0 0 9 2 9s9-6-2-9z"/>
 <path class="fil0" d="m4657 4165v-17c-18 29-4 14 0 17z"/>
 <path class="fil0" d="m3053 6062c-13-17 2-9-24-11l24 11z"/>
 <path class="fil0" d="m2918 4852l13-29c-11 3-9 11-13 29z"/>
 <path class="fil0" d="m3876 4909c0-6 2-9 0-14-9-26-2-6-9-17l9 32z"/>
 <path class="fil0" d="m3570 5455l49-17c-20 6-33 6-49 17z"/>
 <path class="fil0" d="m2411 5860c-9 14-11 14-7 29l7-29z"/>
 <path class="fil0" d="m2471 6358s-4 0-9 14c-4 20 0 0 2 9l7-23z"/>
 <path class="fil0" d="m3283 5860c-15 14 0 11 0 11 4-9 11 0 0-11z"/>
 <path class="fil0" d="m2345 5090c0 9 11 6 9 0s-9-11-9 0z"/>
 <path class="fil0" d="m3499 3881c20-6 7 6 13-11-18 6-7 0-13 11z"/>
 <path class="fil0" d="m3769 5984c9 11-11 3 11 14-4-14 4-9-11-14z"/>
 <path class="fil0" d="m4969 4792c-15-9-31-6-51-9l51 9z"/>
 <path class="fil0" d="m3362 5271l-27 14c18-3 18-3 27-14z"/>
 <path class="fil0" d="m2309 3987c22 0 11 6 24-9l-24 9z"/>
 <path class="fil0" d="m2480 5306s13 14 9 0c-4-9-9-9-9 0z"/>
 <path class="fil0" d="m3694 6018c18 3 9 9 13-9-11 6-4 0-13 9z"/>
 <path class="fil0" d="m5006 5179c11 11-11 6 13 11-4-14 0-6-13-11z"/>
 <path class="fil0" d="m2497 5225c24-6 9-3 15-9-29 3-7-3-15 9z"/>
 <polygon class="fil0" points="2566 4300 2572 4292 2559 4286"/>
 <path class="fil0" d="m2831 4283c15 17-24 11 7 9 15-3 4 0 11-6l-18-3z"/>
 <path class="fil0" d="m3634 5774c-18-14-11-3-13 3l13-3z"/>
 <path class="fil0" d="m1223 4194c9 6-2 11 13 0-9-6 2-9-13 0z"/>
 <path class="fil0" d="m4449 5073c9-11 7-11 0-20v20z"/>
 <path class="fil0" d="m1665 4458c-20 3-22 6-35 14l35-14z"/>
 <path class="fil0" d="m3942 4361c4 6 2 0 7 11l7-11h-13z"/>
 <path class="fil0" d="m2745 4128c0 6 13 17 7 0-2-6-7-3-7 0z"/>
 <path class="fil0" d="m4179 4067c-7-9 11-6-15-9 11 11 0 3 15 9z"/>
 <path class="fil0" d="m2402 6513c0 6 4 11 7 3 2-14-7-6-7-3z"/>
 <path class="fil0" d="m5351 4754c-4 6 7 6 9 6 9-3-4-9-9-6z"/>
 <path class="fil0" d="m4643 4249l9-17c-15 6-7-9-9 17z"/>
 <polygon class="fil0" points="3754 5970 3743 5964 3743 5975"/>
 <path class="fil0" d="m2294 4453c15 0 27-3 38-9l-38 9z"/>
 <path class="fil0" d="m4668 3841c0 6 9 9 7 0s-7-9-7 0z"/>
 <path class="fil0" d="m2721 4409c-2-14 7-9-13-9l13 9z"/>
 <path class="fil0" d="m3712 5803l-2-14c-11 9-9 3 2 14z"/>
 <path class="fil0" d="m5026 4421l-84-17c44 6 51 17 84 17z"/>
 <path class="fil0" d="m2867 3892c-11-14 0-3-15-14 7 14 4 9 15 14z"/>
 <path class="fil0" d="m2796 6335c0 14 7 3 7 0 2-6-7-6-7 0z"/>
 <path class="fil0" d="m1272 4484c0 6 4 6 7-3 4-11-7-3-7 3z"/>
 <path class="fil0" d="m2645 6220c-15 9-2 6 0 9 13-20 4-3 0-9z"/>
 <path class="fil0" d="m4398 5340c24 0 9 3 15-9l-15 9z"/>
 <path class="fil0" d="m4665 4243l4-17c-4 3-7 6-7 9 0 11-2 3 2 9z"/>
 <path class="fil0" d="m2336 3941c4-11 9-11 4-26l-4 26z"/>
 <path class="fil0" d="m1340 4384l18-3c-7-6-7-6-18 3z"/>
 <path class="fil0" d="m3798 4504c-7-26 0-6-13-14l13 14z"/>
 <path class="fil0" d="m2376 5317c-18 6-7-3-11 14l11-14z"/>
 <path class="fil0" d="m3783 5461l2-14c-9 9-11 3-2 14z"/>
 <path class="fil0" d="m5088 5073c7 6-11 6 18 9l-18-9z"/>
 <path class="fil0" d="m3090 5924c-15 9-4 6 0 11v-11z"/>
 <path class="fil0" d="m5028 4516c11 3 15 9 31 6l-31-6z"/>
 <path class="fil0" d="m4059 5409c13-6 11 0 4-11l-4 11z"/>
 <path class="fil0" d="m2617 6329c0 14-7 0 4 3 9 0-4-17-4-3z"/>
 <path class="fil0" d="m5484 4987c-4-11 0-9-13-9l13 9z"/>
 <path class="fil0" d="m4092 4432c4 6-22 6 13 6l-13-6z"/>
 <path class="fil0" d="m3267 5912c7-11-4 0-7 3 0 9 4 3 7-3z"/>
 <path class="fil0" d="m2225 5702l2-9c-4 3-18 9-2 9z"/>
 <path class="fil0" d="m3303 4875l13-11c-9 3-11 0-13 11z"/>
 <path class="fil0" d="m4648 4470c13-3 7 3 11-11l-11 11z"/>
 <path class="fil0" d="m2086 4177c2-3 4-6 4-3 0 0 4-3-2-11l-2 14z"/>
 <path class="fil0" d="m2769 4355c7-11 9-3 0-14v14z"/>
 <path class="fil0" d="m3679 5346c13-6 9 3 11-11l-11 11z"/>
 <path class="fil0" d="m2796 6148l11 11c-4-14 4-6-11-11z"/>
 <path class="fil0" d="m2559 4717c2-3 9-6 13-9 0 0 4-6 4-9l-18 17z"/>
 <path class="fil0" d="m2949 5082c9 6 4 6 15 0h-15z"/>
 <path class="fil0" d="m2614 4378c-13 3-29 3-38 9l38-9z"/>
 <path class="fil0" d="m4924 5182c9 6-9 6 15 6l-15-6z"/>
 <path class="fil0" d="m3820 5978c0 6 9 17 4 3 0 0-9-9-4-3z"/>
 <path class="fil0" d="m5119 4648c7 9-7 3 13 9-4-3-7-6-13-9z"/>
 <path class="fil0" d="m2977 5455c-11 11-7 9 0 3 9-6 7-9 0-3z"/>
 <path class="fil0" d="m3645 5777c9 11-11 3 13 9l-13-9z"/>
 <path class="fil0" d="m4464 4427c7 9-11 3 13 6l-13-6z"/>
 <path class="fil0" d="m3274 4909c-4 11 0 3 2 0h2c2-11-4 0-4 0z"/>
 <path class="fil0" d="m2367 6421l-2-11c4 17-11-9 2 11z"/>
 <polygon class="fil0" points="2991 3976 3013 3984"/>
 <polygon class="fil0" points="1687 4418 1652 4427"/>
 <polygon class="fil0" points="2322 4016 2338 4010"/>
 <polygon class="fil0" points="3674 5409 3692 5395"/>
 <polygon class="fil0" points="2378 4297 2356 4309"/>
 <polygon class="fil0" points="2907 5047 2907 5019"/>
 <polygon class="fil0" points="5077 4993 5117 4996"/>
 <polygon class="fil0" points="2570 4203 2590 4200"/>
 <polygon class="fil0" points="5172 4671 5214 4680"/>
 <polygon class="fil0" points="4404 4467 4449 4476"/>
 <polygon class="fil0" points="3039 5777 3026 5794"/>
 <polygon class="fil0" points="2442 4274 2457 4269"/>
 <polygon class="fil0" points="5227 4840 5203 4835"/>
 <polygon class="fil0" points="3659 4774 3665 4757"/>
 <polygon class="fil0" points="5121 5243 5088 5237"/>
 <polygon class="fil0" points="1513 4547 1544 4542"/>
 <line class="fil0" x1="2429" x2="2429" y1="4430" y2="4430"/>
 <polygon class="fil0" points="5482 4895 5422 4884"/>
 <line class="fil0" x1="4400" x2="4400" y1="5111" y2="5111"/>
 <polygon class="fil0" points="5360 4973 5336 4973"/>
 <polygon class="fil0" points="2674 4145 2648 4131"/>
 <polygon class="fil0" points="2404 5366 2393 5381"/>
 <polygon class="fil0" points="5307 4720 5285 4714"/>
 <polygon class="fil0" points="5174 5067 5134 5065"/>
 <polygon class="fil0" points="3951 5768 3940 5783"/>
</svg>
