<?xml version="1.0" encoding="utf-8"?>
<!-- Generator: Adobe Illustrator 23.0.1, SVG Export Plug-In . SVG Version: 6.00 Build 0)  -->
<svg version="1.1" id="Layer_1" xmlns="http://www.w3.org/2000/svg" xmlns:xlink="http://www.w3.org/1999/xlink" x="0px" y="0px"
	 viewBox="0 0 245.1 245.1" style="enable-background:new 0 0 245.1 245.1;" xml:space="preserve">
<style type="text/css">
	.st0{fill:#222222;}
</style>
<g>
	<path class="st0" d="M177.1,37.7H67.8c-7.4,0-13.3,6-13.3,13.3c0,5.6,3.5,10.4,8.3,12.4v154.5l48.7-40.1c0,0,0,0,0-0.1l11.1-9.2
		l9.5,8.3c0,0,0,0,0,0l0.1,0.1l0,0l0,0l49.9,41.1V63.4c4.9-2,8.3-6.8,8.3-12.4C190.6,43.7,184.6,37.7,177.1,37.7z M172.1,196.7
		l-49.6-40.8l-49.7,40.9V64.4h99.3V196.7z M177.1,54.3H67.8c-1.8,0-3.3-1.5-3.3-3.3s1.4-3.3,3.3-3.3h109.3c1.8,0,3.3,1.5,3.3,3.3
		S178.9,54.3,177.1,54.3z"/>
	<polygon class="st0" points="144.6,120.5 144.6,84.4 131.1,99.7 122.6,84.4 113.8,99.7 100.3,84.4 100.3,120.5 122.6,120.5 	"/>
	<path class="st0" d="M102.6,129.5c3,0,3-4.8,0-4.8C99.5,124.7,99.5,129.5,102.6,129.5z"/>
	<path class="st0" d="M136.8,124.7c-9.3,0-18.7,0-28,0c-3.1,0-3.1,4.8,0,4.8c9.3,0,18.7,0,28,0C139.9,129.5,139.9,124.7,136.8,124.7
		z"/>
	<path class="st0" d="M79.4,142.1c0,8,0,16,0,24c0,3.1,4.8,3.1,4.8,0c0-8,0-16,0-24C84.2,139,79.4,139,79.4,142.1z"/>
	<path class="st0" d="M81.8,129.3c-3.1,0-3.1,4.8,0,4.8C84.9,134.1,84.9,129.3,81.8,129.3z"/>
	<path class="st0" d="M81.8,126.1c3.1,0,3.1-4.8,0-4.8C78.7,121.3,78.7,126.1,81.8,126.1z"/>
	<path class="st0" d="M165.9,103.7c0-9,0-18,0-27c0-3.1-4.8-3.1-4.8,0c0,9,0,18,0,27C161.1,106.8,165.9,106.8,165.9,103.7z"/>
	<path class="st0" d="M162.8,115.8c3.1,0,3.1-4.8,0-4.8S159.8,115.8,162.8,115.8z"/>
	<path class="st0" d="M164.8,176.3c-3.1,0-3.1,4.8,0,4.8S167.9,176.3,164.8,176.3z"/>
	<path class="st0" d="M164.8,172.1c3.1,0,3.1-4.8,0-4.8S161.8,172.1,164.8,172.1z"/>
	<path class="st0" d="M156.8,175.5c3.1,0,3.1-4.8,0-4.8S153.8,175.5,156.8,175.5z"/>
	<path class="st0" d="M78.8,72.5c3.1,0,3.1-4.8,0-4.8C75.7,67.7,75.7,72.5,78.8,72.5z"/>
	<path class="st0" d="M78.8,78.2c-3.1,0-3.1,4.8,0,4.8S81.9,78.2,78.8,78.2z"/>
	<path class="st0" d="M87.6,75.3c3,0,3-4.8,0-4.8C84.5,70.5,84.5,75.3,87.6,75.3z"/>
</g>
</svg>
