<?xml version='1.0' encoding='utf-8'?>
<svg xmlns="http://www.w3.org/2000/svg" width="13in" height="18in" version="1.1" style="shape-rendering:geometricPrecision; text-rendering:geometricPrecision; image-rendering:optimizeQuality; fill-rule:evenodd; clip-rule:evenodd" viewBox="0 0 13000 18000"> <defs> <style type="text/css">  .fil2 {fill:none} .fil1 {fill:#010101} .fil0 {fill:#FDFFFF}  </style> </defs> <g id="Layer_x0020_1"> <metadata id="CorelCorpID_0Corel-Layer"/> <path class="fil0" d="M9092 4226l-344 -220 344 220zm-1692 -220l0 0zm-628 303c-388,-349 -179,-475 189,-661 75,426 144,397 -189,661zm4497 -4038c39,238 17,102 -8,274 -134,-454 -407,-827 -339,-1172l346 897zm-3869 3735l79 167c266,-257 417,-241 730,-188 332,518 213,1025 289,1628 510,161 437,331 846,426 499,116 422,-167 962,95 -80,480 -144,419 -595,577l150 391 -384 -236 184 744c499,-92 104,-127 338,-507 191,-311 861,-989 983,-1686 110,-628 -71,-941 -34,-1460 44,-609 294,-926 -534,-958 -462,-1224 -1406,-1798 -2345,-641 459,828 684,1142 1737,862l248 438c321,-159 312,-228 627,-195 -1438,1106 -1125,593 -1809,268 -2898,-1378 -1621,-3665 -955,-3954 787,-86 1124,402 1701,412 507,9 524,-264 986,1 808,464 705,547 1031,1407 786,-873 -613,-2989 -651,-3090 272,78 14,-143 337,190 -102,-485 -131,-326 -212,-535 -111,-287 46,-20 -94,-362l-265 121c-185,-217 -254,-262 -426,-447 -886,-951 -2293,-358 -3031,-1491 -483,128 -657,68 -1033,144 -509,104 -555,290 -924,72 -643,472 -170,148 -1229,401 -296,-362 -225,-387 -748,-423 675,871 1445,1019 2439,451 111,865 -1184,1235 -1857,1235 -1090,-1 -1630,-575 -1847,-683 -134,691 89,1385 -781,1825l-90 700c608,-332 501,-824 1398,-615 240,56 1050,429 1229,591 342,310 2067,452 1739,2146 -393,-21 -45,91 -442,-168 -746,202 -528,80 -911,-109 261,651 467,612 681,1120l-421 802c-495,53 -1017,141 -1443,402 165,207 178,75 154,222 -559,-79 -1252,-558 -1591,-1150 -381,892 -36,515 43,2273 40,879 148,475 453,945 141,217 111,326 269,561l865 1478c300,520 382,390 717,735 555,572 762,1414 1224,1971 342,99 352,-6 642,70 677,177 -152,221 678,101 800,-115 1509,-1174 1956,-1795 357,-497 637,-322 916,-922 -6,-329 -65,-972 -308,-1180 -264,677 302,222 -464,1177 -482,601 -284,706 -526,1069 -521,781 -2367,1623 -3547,-385 -999,-1701 -2096,-2404 -1357,-3633 512,252 841,633 1483,28 503,-473 155,-761 420,-1322 307,-153 679,-231 955,-145 -229,284 -400,227 -798,406l52 799 245 -400c188,612 54,293 329,644 177,226 199,347 335,660 811,-175 486,408 1093,-681l717 -121 -178 -1048c-309,236 -342,522 -781,811l348 -1039z"/> <path class="fil0" d="M3040 9952c47,-301 -22,-727 -314,-1407 -450,-115 -447,-148 -757,-42 38,35 74,71 109,110 50,45 101,97 148,146 137,131 254,263 350,429 43,56 82,114 117,175 43,56 82,114 117,175 96,125 174,265 230,415z"/> <path class="fil0" d="M10591 9599c-23,-45 -46,-90 -70,-136 -267,86 -359,241 -349,443 122,-123 263,-227 419,-307zm-627 565c-10,-15 -19,-30 -29,-45l-312 554 11 23 1 -1c72,-185 177,-353 308,-498 7,-11 14,-22 21,-33z"/> <path class="fil0" d="M12253 8524c-65,90 -129,181 -190,273 -83,14 -164,34 -242,59 141,-114 280,-227 433,-332z"/> <path class="fil0" d="M3317 6345c517,91 666,-33 1131,344 603,489 1574,944 2366,617 762,-314 821,-237 1163,-644 656,155 -100,232 626,76 -280,-277 -273,-143 -340,-512 -542,362 -1014,756 -1675,958 -262,-375 -474,-500 -696,-674 -372,-291 -300,-636 -819,-1095 -908,831 -1351,554 -1758,930z"/> <path class="fil0" d="M1256 7787c22,-15 46,-30 70,-44 -307,-761 -470,-345 -790,-1323 -23,110 -57,216 -100,317l0 0c32,29 63,58 92,89 100,95 188,202 261,319 128,127 235,275 315,438 56,64 107,132 152,204zm-639 -1754l18 8c158,68 81,139 82,141 155,-450 103,-32 28,-541 -24,87 -55,173 -94,256 -10,46 -21,91 -35,135zm158 -519l304 -333c-85,-7 -165,-4 -240,7 -11,66 -26,131 -45,194 -5,44 -11,88 -19,131z"/> <path class="fil0" d="M4802 15753c-44,-152 -96,-271 -155,-345l-197 91c-3,37 -4,71 -5,102 8,0 15,-1 23,-1l15 0c130,0 244,59 318,152z"/> <path class="fil0" d="M2383 1719c-38,422 6,230 204,564 472,795 819,929 1960,379 -448,-1030 -1100,-1936 -2164,-944z"/> <path class="fil0" d="M1476 716c1204,422 1029,-315 2252,346 342,185 218,38 678,77 -407,-406 -157,-249 -107,-540 -408,-369 -257,-215 -691,-32 -233,-398 -764,-857 -1211,-988 -540,183 -1030,510 -922,1138z"/> <path class="fil0" d="M11111 1432l-105 -568c-692,-160 -1803,-240 -2317,287 156,224 -35,90 187,191l913 327c407,265 524,752 913,1114 68,-284 45,0 -11,-283l85 -407c339,-429 -92,-285 335,-661z"/> <path class="fil0" d="M3201 16320c-99,-54 76,-99 -181,55 37,-10 72,-13 111,-13 12,-7 25,-14 38,-20 10,-8 21,-15 32,-22z"/> <path class="fil0" d="M9349 10996c-13,-12 -26,-23 -39,-34l-100 227c9,-10 19,-21 30,-31 21,-50 52,-96 90,-133 6,-10 13,-19 19,-28z"/> <polygon class="fil0" points="1243,16844 1243,16843 1239,16844 "/> <path class="fil0" d="M987 4797c23,-16 47,-33 72,-51l26 -292c-13,44 -28,87 -46,130 -8,28 -16,56 -25,83 -8,44 -17,87 -28,130z"/> <path class="fil0" d="M1218 3148c28,-23 55,-47 83,-72l-434 -628c-11,1 -22,2 -33,4 181,194 315,432 384,696z"/> <path class="fil0" d="M1834 8377l100 -206 -560 -262c62,56 119,116 179,175 39,39 79,78 116,119 59,54 114,111 165,173z"/> <path class="fil0" d="M3343 10614c-14,-72 -38,-161 -73,-272 -21,11 -42,24 -63,37 4,10 8,20 12,31 38,46 69,112 95,167 10,12 20,24 29,37z"/> <path class="fil0" d="M1884 3100l799 553 1605 -426c-214,-200 -630,10 -875,95 -743,-531 -755,-24 -1433,-737 -177,-186 -14,-48 -197,-177l100 692z"/> <path class="fil0" d="M7489 18350l-256 369c26,5 48,7 67,8 11,-17 24,-34 38,-49 7,-11 15,-22 23,-33 13,-23 29,-45 46,-64 7,-15 15,-31 23,-46 23,-50 37,-102 54,-154 1,-10 3,-20 4,-30z"/> <path class="fil0" d="M4047 15921l-68 59c9,-5 19,-10 28,-14 11,-12 22,-23 35,-33l6 -12z"/> <path class="fil0" d="M12569 7261c-32,168 -30,376 -4,597l0 -486c0,-37 1,-74 4,-111z"/> <path class="fil0" d="M2392 -3844c100,192 23,78 178,98 -135,593 -2,904 586,1081 -727,-926 22,-1909 -365,-2304l-399 1125z"/> <path class="fil0" d="M7780 12729c-26,-14 -53,-23 -79,-27 -23,66 -33,131 -34,195 19,-36 37,-68 67,-100 12,-19 25,-37 39,-53l7 -14z"/> <path class="fil0" d="M12361 6150c-168,-211 -405,-406 -650,-458 133,507 642,932 922,1213 17,-56 36,-111 59,-164 -49,-70 -96,-143 -144,-214 -80,-120 -142,-246 -186,-376z"/> <path class="fil0" d="M2355 13863l54 -96c-20,29 -41,52 -53,90l-1 6z"/> <path class="fil0" d="M10974 2743l198 419c303,-598 478,-793 305,-1469 -196,287 -382,759 -503,1050z"/> <path class="fil0" d="M1670 1923l1045 -850c-662,82 -468,264 -1265,191 220,449 302,115 219,659z"/> <path class="fil0" d="M8254 15993c-38,60 -35,106 -37,212 3,-23 8,-46 16,-70 2,-14 5,-28 9,-42l0 -58 15 15 10 -23c-5,-11 -10,-22 -14,-33z"/> <path class="fil0" d="M7157 7780l-710 101c141,272 143,369 434,363 420,-9 291,-174 276,-463z"/> <path class="fil0" d="M5636 8052c274,273 79,200 555,208 91,-298 125,-2 -31,-461 -520,-5 -295,-32 -524,252z"/> <path class="fil0" d="M11401 7700c-258,-622 -102,-404 -99,-861 580,54 294,92 827,276l-585 -570c-252,272 -300,230 -489,419l345 736z"/> <path class="fil0" d="M3169 13650c-87,428 35,926 323,1178 117,-356 -155,-819 -323,-1178z"/> <path class="fil0" d="M13738 2960c-1152,-301 -788,-348 -1126,-479 144,212 239,225 434,431 347,365 226,463 692,49z"/> <path class="fil0" d="M5848 9529c-419,-99 -756,-331 -1067,-617 402,968 2163,705 2280,760 -205,-285 -155,107 -1213,-142z"/> <path class="fil0" d="M15067 2042c-434,-298 -205,-49 -754,-256 -221,-84 -514,-318 -671,-460 303,353 876,971 1425,716z"/> <path class="fil0" d="M4090 14221l-149 -992c-432,285 -165,433 149,992z"/> <path class="fil0" d="M5905 -9451c314,200 674,-7 1049,-124 -283,-79 -863,-42 -1049,124z"/> <path class="fil0" d="M7490 8656c-111,-31 41,-115 -291,2 -474,167 -74,23 -248,185 281,245 492,223 539,-187z"/> <path class="fil0" d="M12428 1090l245 557c-71,-213 98,-1068 128,-1388 -258,393 121,404 -372,831z"/> <path class="fil0" d="M6645 8936c-198,-197 -207,-146 -568,-103 205,322 115,344 568,103z"/> <path class="fil0" d="M5762 15492c-330,-457 65,-273 -493,-509 409,623 673,605 864,1080 -207,-731 -83,-172 -372,-571z"/> <path class="fil0" d="M2795 13998c86,394 52,1143 366,1373l-366 -1373z"/> <path class="fil0" d="M1193 -3512c316,-284 255,-378 12,-711l-12 711z"/> <path class="fil0" d="M9598 3513l-540 27c280,239 453,420 540,-27z"/> <path class="fil0" d="M461 926c350,-107 191,-263 420,45l236 -556 -655 511z"/> <path class="fil0" d="M7369 8072c574,-106 279,-87 395,-231 -397,-150 -322,-161 -395,231z"/> <path class="fil0" d="M5275 15578c-120,410 11,599 252,968l-252 -968z"/> <path class="fil0" d="M6187 13930c-118,421 48,774 219,1177l-219 -1177z"/> <path class="fil0" d="M2686 15681c62,-369 144,-245 -156,-518 -56,382 -121,279 156,518z"/> <path class="fil0" d="M14225 2937l588 -110c-184,-85 47,-173 -328,-102 -457,86 -105,31 -260,212z"/> <path class="fil0" d="M7511 -8375l-38 -396c20,-2 -594,243 38,396z"/> <path class="fil0" d="M3991 -4065c-366,-214 -214,-189 -640,-117 275,192 229,125 640,117z"/> <path class="fil0" d="M8319 -6585c-174,-456 -43,-195 -283,-247 -10,314 -104,295 283,247z"/> <path class="fil0" d="M6895 6652c324,-110 610,-174 706,-496l-706 496z"/> <path class="fil0" d="M6170 16692c-178,378 -145,298 72,753l-72 -753z"/> <path class="fil0" d="M11727 6465c100,-354 89,-223 -135,-358 -68,254 -180,118 135,358z"/> <path class="fil0" d="M4747 13431l-48 -356c-215,201 -487,123 48,356z"/> <path class="fil0" d="M5499 8627c-167,391 -47,287 231,432l-231 -432z"/> <path class="fil0" d="M7540 2263l398 -423c-343,91 -347,53 -398,423z"/> <path class="fil0" d="M7919 7868c460,-338 201,64 184,-415 -445,472 -22,175 -184,415z"/> <path class="fil0" d="M3662 -4584l528 -8c-249,-130 -395,-251 -528,8z"/> <path class="fil0" d="M4988 7967c493,39 224,-5 305,-128 -345,-203 -137,-77 -305,128z"/> <polygon class="fil0" points="9471,9070 9722,8855 9615,8581 "/> <path class="fil0" d="M624 2262l317 -124c-259,-100 -246,-49 -386,75 23,16 46,32 68,49z"/> <path class="fil0" d="M8614 -4322l-733 -97c326,-12 264,327 733,97z"/> <path class="fil0" d="M4866 8609c11,-306 168,-13 -131,-297 -67,303 -150,170 131,297z"/> <path class="fil0" d="M4435 13502c-114,328 -156,241 95,438l-95 -438z"/> <path class="fil0" d="M8812 7634c-281,125 -227,46 -255,421l255 -421z"/> <path class="fil0" d="M5167 14160c363,-281 277,-27 195,-401l-195 401z"/> <path class="fil0" d="M13013 3478c391,143 206,154 427,-82l-427 82z"/> <path class="fil0" d="M11111 1432l37 292 147 -253c-165,-130 56,-55 -185,-39z"/> <path class="fil0" d="M4382 14816c-295,150 -323,371 -398,500l398 -500z"/> <path class="fil0" d="M1095 -1274l122 -259c-367,132 -212,-6 -122,259z"/> <path class="fil0" d="M3591 14264c46,219 97,-21 98,-113 5,-313 -117,22 -98,113z"/> <path class="fil0" d="M7856 8390c117,46 134,48 135,48 213,32 -62,-275 -135,-48z"/> <path class="fil0" d="M9471 9070c-177,17 -141,-24 -67,147 178,-44 160,7 67,-147z"/> <path class="fil0" d="M12994 -1246l-40 -569c-15,242 -73,354 40,569z"/> <path class="fil0" d="M7310 13725c-9,-2 -20,-4 -31,-7l38 47c-3,-13 -6,-26 -7,-40z"/> <path class="fil0" d="M7451 13215c-62,-117 -52,-3 -22,79 5,-28 12,-54 22,-79z"/> <path class="fil0" d="M4102 -3691c18,3 357,-96 162,-81 -3,0 -217,73 -162,81z"/> <path class="fil0" d="M10119 -3590c-139,-41 -187,-116 -482,-170l482 170z"/> <path class="fil0" d="M6243 -4998c16,8 35,-53 40,-36 2,7 17,-15 17,-15 -3,3 -275,-56 -57,50z"/> <path class="fil0" d="M6821 18508c36,182 -49,-248 0,0z"/> <path class="fil0" d="M2202 15874c-24,139 8,-44 0,0z"/> <path class="fil0" d="M7630 1324c6,12 -121,-239 0,0z"/> <polygon class="fil0" points="9650,8020 9502,7727 "/> <polygon class="fil0" points="9404,9216 9279,9423 "/> <polygon class="fil0" points="4298,8265 4262,7984 "/> <polygon class="fil0" points="4574,7633 4407,7360 "/> <polygon class="fil0" points="5906,-8709 6119,-9008 "/> <polygon class="fil0" points="7508,15112 7324,14777 "/> <polygon class="fil0" points="8158,-3786 7775,-3917 "/> <path class="fil1" d="M12407 4966c-159,370 -180,793 -45,1184 -168,-211 -405,-406 -650,-458 133,507 642,932 922,1213 -34,114 -56,233 -64,356 -32,168 -30,376 -4,597l0 99c0,53 3,105 7,157 -111,133 -217,270 -319,411 -152,105 -292,218 -433,332 -32,10 -63,22 -94,34 -125,34 -246,82 -361,146 -158,385 -1071,967 -1193,869 -254,379 -569,884 -712,945 -16,17 -30,36 -43,56 -26,25 -48,54 -66,86l-2 3c-13,-12 -26,-23 -39,-34 -162,367 -445,636 -760,876 -15,9 -30,18 -44,29 -55,32 -87,68 -130,110 -51,51 -103,102 -153,154 -26,25 -56,54 -80,80 -164,148 -471,705 -542,775 -52,53 -90,92 -120,166 -12,20 -23,41 -31,63 -62,-117 -52,-3 -22,79 -2,15 -4,30 -5,45 -72,73 -118,173 -118,287l0 44c0,19 1,37 4,55 -9,-2 -20,-4 -31,-7l38 47c19,79 60,149 116,202l19 19c14,27 30,47 45,72 13,33 31,64 52,92 12,26 27,50 44,73 15,33 33,67 54,96l2 6c13,77 45,123 76,191 16,76 61,180 103,243 16,44 24,76 50,117 19,47 57,120 87,158 5,13 11,26 17,38 10,33 24,66 42,96 17,60 46,115 86,161 16,33 20,96 31,134 2,35 9,70 20,105 2,14 6,28 9,42 2,30 7,60 15,88 2,30 7,60 15,88 3,53 16,104 37,149 4,20 10,39 17,58 -38,60 -35,106 -37,212 -54,410 -459,1251 -572,1637 -30,57 -58,111 -69,176 -115,348 -470,973 -498,1146 -6,18 -13,42 -21,58 -18,37 -31,76 -38,115 -15,45 -38,92 -45,138 -19,35 -32,71 -40,109 -13,29 -23,58 -29,88 -10,21 -17,43 -24,64l-18 27c-67,99 -83,218 -57,325 -11,25 -21,50 -27,71 -13,-32 -30,-64 -45,-93 -16,-55 -37,-111 -69,-159 -10,-40 -26,-78 -47,-113 -6,-22 -14,-44 -24,-64 -9,-40 -21,-72 -40,-109 -7,-47 -28,-106 -47,-150 -6,-32 -18,-62 -28,-93 -20,-61 -36,-107 -76,-160 -15,-33 -36,-57 -51,-88 -14,-48 -36,-92 -66,-131 -6,-13 -13,-27 -20,-40 -33,-64 -55,-122 -105,-178 -13,-21 -28,-40 -44,-58 -7,-11 -14,-21 -21,-31 -6,-13 -13,-26 -21,-39 -16,-40 -52,-111 -77,-144 -10,-32 -24,-62 -40,-90 -13,-33 -33,-73 -53,-102 -16,-45 -45,-100 -73,-137 -16,-35 -37,-67 -63,-96 -16,-33 -33,-65 -55,-94 -13,-27 -28,-57 -44,-82l-5 -14c-17,-63 -49,-120 -91,-167l-12 -24c-14,-53 -39,-102 -72,-145 -21,-53 -53,-110 -90,-152 -20,-50 -50,-103 -85,-143l-10 -19c-6,-30 -17,-60 -27,-89 -3,-20 -8,-40 -15,-58 -3,-20 -8,-39 -15,-58 -5,-28 -13,-56 -23,-82 -15,-54 -49,-123 -82,-168 -20,-43 -45,-95 -73,-132 -12,-26 -27,-51 -44,-73 -10,-22 -22,-47 -35,-67 -5,-18 -12,-35 -17,-52 -3,-29 -9,-58 -18,-85 -6,-35 -18,-69 -29,-103 -3,-16 -6,-31 -11,-46 -2,-22 -7,-44 -12,-65 0,-74 -7,-131 -40,-199l25 50c0,-100 -34,-192 -91,-264 -44,-152 -96,-271 -155,-345l-197 91c-3,37 -4,71 -5,102 -155,8 -287,103 -349,236 -20,26 -35,54 -49,83l-68 59c-16,8 -33,17 -49,22 -20,3 -39,8 -58,15 -46,8 -89,23 -128,45 -455,206 -697,221 -1038,359 -84,4 -161,34 -224,81 -123,57 -1070,421 -1071,422l94 -94c-70,0 -134,-4 -202,15l-59 0 0 -2 -4 2 -209 0c-55,0 -107,11 -155,30 -8,-39 -24,-73 -35,-110l0 -178c15,-25 32,-58 43,-85 19,-21 35,-44 49,-68 11,-14 21,-29 29,-44 15,-20 29,-42 40,-65 32,-33 59,-71 78,-113 10,-13 19,-27 27,-41 8,-10 15,-21 22,-31 22,-22 42,-46 58,-73l23 -23c47,-44 77,-96 104,-154 23,-31 42,-67 59,-102 29,-39 52,-83 66,-131 15,-29 26,-58 34,-90 17,-25 30,-51 43,-78 14,-16 27,-34 38,-52 46,-46 79,-103 104,-163 49,-50 83,-115 112,-179 23,-42 45,-89 66,-132 12,-24 22,-49 29,-74 23,-38 46,-88 58,-130l10 -17c85,-112 156,-235 211,-367 11,-18 20,-38 30,-57 34,-39 59,-84 80,-131 26,-46 42,-98 48,-154 7,-26 17,-48 23,-75 14,-31 25,-64 31,-97l54 -96c5,-7 10,-15 15,-23 14,-11 27,-22 39,-35 27,-17 51,-36 73,-58 20,-13 39,-27 56,-42 21,-13 41,-28 59,-44 11,-7 21,-14 31,-21 26,-12 50,-27 73,-44 27,-12 58,-28 83,-42 28,-13 55,-29 80,-48 15,-9 30,-19 44,-30 15,-9 30,-18 44,-29 14,-8 28,-18 42,-28 35,-16 71,-35 102,-58 37,-17 71,-40 101,-67 11,-7 21,-14 31,-21 53,-25 100,-61 138,-105 110,-94 29,-94 178,-135 52,0 94,0 146,-15 100,0 147,-14 235,-58 23,-12 45,-25 65,-41 123,-71 205,-203 205,-355l0 -44c0,-92 -31,-177 -82,-246 -13,-62 -63,-167 -103,-220 -304,-152 -609,-699 -621,-1140 -12,-37 -36,-91 -58,-128 -127,-315 -147,-259 -235,-430 -7,-25 -18,-56 -27,-80 -166,-612 -87,-915 -397,-1638 -450,-115 -447,-148 -757,-42 -33,-30 -68,-59 -103,-87 -10,-13 -21,-26 -31,-39l100 -206 -560 -262c-29,-26 -59,-52 -90,-76 -9,-16 -18,-31 -28,-46 22,-15 46,-30 70,-44 -307,-761 -470,-345 -790,-1323 11,-53 19,-106 25,-160 18,-61 33,-124 44,-188 4,-13 8,-26 12,-39l18 8c158,68 81,139 82,141 155,-450 103,-32 28,-541 12,-42 22,-85 30,-128l304 -333c-85,-7 -165,-4 -240,7l4 -27c61,-114 109,-236 142,-364 23,-16 47,-33 72,-51l26 -292c5,-15 9,-30 13,-46 23,-58 42,-116 59,-175 77,-192 116,-400 116,-607l0 -59c0,-145 -19,-286 -54,-420 28,-23 55,-47 83,-72l-434 -628c-11,1 -22,2 -33,4 -64,-69 -135,-133 -210,-190l317 -124c-259,-100 -246,-49 -386,75 -109,-74 -227,-136 -352,-182 44,-30 90,-60 138,-90 -312,-398 -338,-367 -66,-817 -371,-618 -368,-289 113,-1495 -427,-430 -591,-93 -1188,-829 -358,-441 -879,-1012 -760,-1634l296 -210c648,284 754,1373 1566,1220 -512,-95 -468,-402 -635,-659 -1228,-1883 -244,-3634 576,-3283 290,265 252,386 362,837 329,-336 239,-426 406,-210 174,474 36,364 396,668 190,-677 14,-1114 785,-1545 407,-227 462,-282 757,-146 -227,306 -1654,869 -1133,2549l304 -397c-98,-819 -46,-794 303,-1541 207,-77 436,-65 645,-223 280,-212 111,-271 129,-438 239,-192 498,-222 796,35l-166 648c1154,-687 532,-1234 460,-2234 -58,-807 276,-1689 1073,-1992 1361,-518 2565,-800 2942,1279 122,670 -127,645 -284,1223 971,463 327,971 877,1388l-311 350c1050,-349 2496,-912 3419,-228 990,733 1745,1047 2045,2440 -783,-113 172,-855 -908,-1049 -29,-5 -78,-17 -104,-22 -209,-40 -332,-415 -434,-593 -301,191 -393,124 -689,-118 536,894 855,-56 2257,2984 -1039,-71 -2010,-2170 -2941,-1892 1101,760 1294,1093 2056,2257 514,146 338,-160 680,277 -429,12 -181,-70 -547,77 119,1019 -114,1040 948,1667 267,158 331,46 610,-31 516,485 778,250 1265,905 920,-211 903,57 1780,1515 446,741 111,199 402,1029 -427,-211 -99,111 -377,-312 -417,-635 -851,-1678 -2489,-1185l-64 228c-159,674 -195,-227 0,327 2,6 110,217 140,298 -515,-97 -1023,26 -1531,81 813,436 781,-178 1391,214 -369,137 -677,322 -1105,285 -1490,-129 -279,468 -1947,-3 -136,-416 -21,-371 -255,-672l22 428 -414 92c455,1148 74,674 195,994 136,178 274,335 416,486zm-6165 12479c-217,-454 -250,-375 -72,-753l72 753zm-715 -899c-241,-368 -372,-557 -252,-968l252 968zm1798 -1768l183 335 -183 -335zm-2055 206c558,236 163,52 493,509 288,400 165,-159 372,571 -191,-475 -455,-457 -864,-1080zm1137 125c-171,-403 -337,-756 -219,-1177l219 1177zm-4204 766c8,-44 -24,139 0,0zm484 -193c-277,-240 -212,-136 -156,-518 300,273 218,149 156,518zm1298 -365c76,-129 103,-350 398,-500l-398 500zm-814 -1666c169,360 440,822 323,1178 -288,-252 -410,-750 -323,-1178zm1998 510l195 -401c83,374 168,120 -195,401zm-2006 1211c-314,-230 -280,-979 -366,-1373l366 1373zm1274 -1869l95 438c-252,-198 -209,-111 -95,-438zm-844 762c-19,-91 103,-426 98,-113 -1,93 -52,333 -98,113zm1108 -1189l48 356c-535,-234 -262,-156 -48,-356zm-758 155l149 992c-314,-560 -581,-707 -149,-992zm5463 -4013l-125 207 125 -207zm67 -147c93,154 111,103 -67,147 -74,-171 -110,-129 67,-147zm0 0l144 -488 107 274 -251 215zm-2520 -226c173,-162 -226,-18 248,-185 333,-117 180,-33 291,-2 -47,410 -257,432 -539,187zm2551 -1116l148 292 -148 -292zm-1646 663c72,-226 348,81 135,48 0,0 -18,-2 -19,-2 -7,-2 -207,243 -115,-46zm-1779 442c361,-42 370,-94 568,103 -454,241 -364,219 -568,-103zm-578 -205l231 432c-278,-145 -398,-40 -231,-432zm-718 285c311,286 647,519 1067,617 1058,249 1008,-143 1213,142 -117,-54 -1878,209 -2280,-760zm6621 -1212l-345 -736c189,-189 237,-146 489,-419l585 570c-533,-184 -247,-222 -827,-276 -4,457 -159,239 99,861zm-2845 355c28,-374 -26,-296 255,-421l-255 421zm-792 -213c-116,144 179,125 -395,231 74,-392 -2,-381 395,-231zm155 27c162,-240 -261,57 184,-415 17,479 277,77 -184,415zm-1473 13l710 -101c15,289 144,455 -276,463 -291,6 -293,-90 -434,-363zm5146 -1774c225,135 235,4 135,358 -315,-240 -203,-104 -135,-358zm-5401 2153c-475,-9 -281,65 -555,-208 228,-285 3,-258 524,-252 156,459 122,162 31,461zm-1456 52c299,283 142,-9 131,297 -282,-127 -198,6 -131,-297zm-473 -328l36 281 -36 -281zm727 -17c168,-205 -40,-331 305,-128 -81,123 188,167 -305,128zm-581 -608l167 273 -167 -273zm3194 -1204c-96,323 -382,387 -706,496l706 -496zm5412 -2678l427 -82c-221,236 -37,225 -427,82zm1212 -541c155,-181 -197,-127 260,-212 375,-70 144,18 328,102l-588 110zm-8331 3573c222,174 434,299 696,674 661,-202 1133,-596 1675,-958 67,368 60,235 340,512 -726,156 30,79 -626,-76 -342,407 -401,329 -1163,644 -793,327 -1763,-128 -2366,-617 -465,-377 -614,-253 -1131,-344 407,-376 850,-99 1758,-930 519,459 447,804 819,1095zm7843 -3550c-466,415 -345,317 -692,-49 -195,-205 -290,-218 -434,-431 338,131 -26,179 1126,479zm-4140 553c-87,447 -260,266 -540,27l540 -27zm5469 -1471c-549,255 -1122,-363 -1425,-716 157,142 450,376 671,460 549,208 320,-41 754,256zm-4093 701c122,-290 307,-763 503,-1050 173,676 -2,870 -305,1469l-198 -419zm137 -1311c240,-17 20,-91 185,39l-147 253 -37 -292zm1317 -342c493,-427 115,-438 372,-831 -30,320 -199,1175 -128,1388l-245 -557zm-4888 1172c51,-370 55,-332 398,-423l-398 423zm3571 -831c-426,377 5,232 -335,661l-85 407c57,283 79,-1 11,283 -389,-362 -506,-848 -913,-1114l-913 -327c-222,-102 -31,33 -187,-191 514,-527 1625,-447 2317,-287l105 568zm-3481 -108c-121,-239 6,12 0,0zm-4216 1999c245,-86 661,-295 875,-95l-1605 426 -799 -553 -100 -692c184,129 20,-9 197,177 678,712 690,206 1433,737zm9580 -4569c-113,-215 -56,-327 -40,-569l40 569zm-8446 3909c-1142,550 -1488,416 -1960,-379 -198,-334 -242,-142 -204,-564 1064,-992 1716,-87 2164,944zm-1832 -1590l-1045 850c82,-544 1,-210 -219,-659 797,73 603,-109 1265,-191zm-318 -1496c447,132 978,591 1211,988 434,-183 283,-338 691,32 -50,292 -300,134 107,540 -460,-38 -336,108 -678,-77 -1223,-661 -1048,76 -2252,-346 -108,-629 382,-955 922,-1138zm-1282 838l-236 556c-229,-308 -69,-152 -420,-45l655 -511zm8521 -4176c294,54 343,129 482,170l-482 -170zm-8541 2487c-90,-266 -245,-128 122,-259l-122 259zm6680 -2643l383 131 -383 -131zm839 -405c-469,229 -407,-109 -733,-97l733 97zm-4513 631c-55,-8 159,-81 162,-81 195,-15 -144,84 -162,81zm3298 7697l-348 1039c438,-289 472,-575 781,-811l178 1048 -717 121c-607,1089 -282,507 -1093,681 -136,-312 -158,-434 -335,-660 -275,-351 -141,-32 -329,-644l-245 400 -52 -799c398,-180 568,-123 798,-406 -276,-86 -648,-7 -955,145 -265,561 83,849 -420,1322 -642,604 -970,223 -1483,-28 -739,1229 358,1931 1357,3633 1179,2009 3026,1166 3547,385 242,-363 44,-468 526,-1069 766,-956 200,-500 464,-1177 243,207 302,851 308,1180 -279,600 -559,425 -916,922 -446,621 -1156,1680 -1956,1795 -830,119 0,76 -678,-101 -290,-76 -299,29 -642,-70 -462,-557 -670,-1400 -1224,-1971 -335,-345 -416,-215 -717,-735l-865 -1478c-158,-235 -128,-345 -269,-561 -305,-470 -413,-67 -453,-945 -79,-1758 -425,-1382 -43,-2273 340,592 1032,1071 1591,1150 25,-147 11,-15 -154,-222 426,-261 948,-349 1443,-402l421 -802c-213,-508 -420,-469 -681,-1120 383,189 165,311 911,109 396,258 48,147 442,168 328,-1695 -1397,-1837 -1739,-2146 -179,-162 -989,-535 -1229,-591 -898,-209 -790,283 -1398,615l90 -700c870,-439 647,-1133 781,-1825 217,108 757,682 1847,683 673,0 1968,-370 1857,-1235 -994,568 -1764,420 -2439,-451 523,36 452,61 748,423 1059,-253 586,71 1229,-401 369,218 415,32 924,-72 376,-77 549,-16 1033,-144 738,1133 2145,541 3031,1491 172,184 241,230 426,447l265 -121c140,342 -17,75 94,362 81,210 110,50 212,535 -324,-333 -65,-112 -337,-190 38,102 1437,2217 651,3090 -326,-860 -223,-944 -1031,-1407 -462,-265 -479,8 -986,-1 -577,-10 -915,-499 -1701,-412 -667,288 -1943,2576 955,3954 683,325 370,838 1809,-268 -315,-33 -306,36 -627,195l-248 -438c-1053,279 -1278,-34 -1737,-862 939,-1157 1883,-583 2345,641 829,32 579,348 534,958 -38,519 143,833 34,1460 -122,696 -792,1375 -983,1686 -234,380 161,415 -338,507l-184 -744 384 236 -150 -391c451,-158 515,-96 595,-577 -539,-263 -463,21 -962,-95 -409,-95 -336,-265 -846,-426 -76,-603 43,-1109 -289,-1628 -313,-53 -464,-69 -730,188l-79 -167zm-1117 -9040c-6,-17 -24,44 -40,36l40 -36zm-2293 969c-411,7 -364,75 -640,-117 426,-72 273,-96 640,117zm199 -527l-528 8c133,-259 280,-138 528,-8zm-2985 369c243,333 304,427 -12,711l12 -711zm1586 -746c387,395 -362,1378 365,2304 -588,-177 -721,-488 -586,-1081 -155,-20 -78,95 -178,-98l399 -1125zm5528 -1616c-387,48 -293,67 -283,-247 240,52 109,-209 283,247zm-808 -1790c-631,-153 -17,-398 -38,-396l38 396zm255 1338c-664,-351 -408,-559 -713,-936 -248,-307 -476,-162 -797,-883l485 -16 314 447c206,269 179,423 268,778 302,254 376,150 444,610zm-1647 -1970l-213 299 213 -299zm-215 -444c186,-166 766,-204 1049,-124 -376,117 -735,325 -1049,124z"/> <path class="fil1" d="M6772 4310c333,-264 264,-235 189,-661 -368,186 -577,313 -189,661z"/> <path class="fil1" d="M11262 546c25,-173 46,-36 8,-274l-346 -897c-68,345 205,718 339,1172z"/> <line class="fil1" x1="7400" y1="4006" x2="7400" y2="4006"/> <polygon class="fil1" points="9092,4226 8748,4007 "/> <path class="fil2" d="M1949 -5857c370,-361 850,-476 1441,-344"/> <path class="fil0" d="M2949 -6161c-227,306 -1654,869 -1133,2549l304 -397c-98,-819 -46,-794 303,-1541 207,-77 436,-65 645,-223 280,-212 111,-271 129,-438 61,-31 -380,-63 -506,-25 73,-1 149,23 258,74z"/> </g> </svg>