<?xml version="1.0" encoding="utf-8"?>
<!-- Generator: Adobe Illustrator 23.0.1, SVG Export Plug-In . SVG Version: 6.00 Build 0)  -->
<svg version="1.1" id="Layer_1" xmlns="http://www.w3.org/2000/svg" xmlns:xlink="http://www.w3.org/1999/xlink" x="0px" y="0px"
	 viewBox="0 0 245.1 245.1" style="enable-background:new 0 0 245.1 245.1;" xml:space="preserve">
<style type="text/css">
	.st0{fill:#222222;}
</style>
<g>
	<path class="st0" d="M124.6,221.1c51.6,0,93.7-42,93.7-93.7s-42-93.7-93.7-93.7c-51.6,0-93.7,42-93.7,93.7S73,221.1,124.6,221.1z
		 M124.6,43.8c46.1,0,83.7,37.5,83.7,83.7c0,46.1-37.5,83.7-83.7,83.7S41,173.6,41,127.4C41,81.3,78.5,43.8,124.6,43.8z"/>
	<path class="st0" d="M107.5,195c0.6,0.4,1.3,0.6,2,0.6c0.2,0,0.3,0,0.5-0.1c4.7,1,9.6,1.6,14.6,1.6s9.9-0.5,14.6-1.6
		c0.2,0,0.3,0.1,0.5,0.1c0.7,0,1.4-0.2,2-0.6c30.2-7.6,52.6-35,52.6-67.6s-22.4-59.9-52.6-67.6c-0.6-0.4-1.3-0.6-2-0.6
		c-0.2,0-0.3,0-0.5,0.1c-4.7-1-9.6-1.6-14.6-1.6s-9.9,0.5-14.6,1.6c-0.2,0-0.3-0.1-0.5-0.1c-0.7,0-1.4,0.2-2,0.6
		c-30.2,7.6-52.6,35-52.6,67.6S77.4,187.4,107.5,195z M92.3,124.9H65c0.2-4.6,0.9-9,2.1-13.3h115.1c1.2,4.2,1.9,8.7,2.1,13.3H157
		c-1.4,0-2.5,1.1-2.5,2.5s1.1,2.5,2.5,2.5h27.3c-0.2,4.6-0.9,9-2.1,13.3H67.1c-1.2-4.2-1.9-8.7-2.1-13.3h27.3c1.4,0,2.5-1.1,2.5-2.5
		S93.7,124.9,92.3,124.9z M82.8,84.9c2.5-2.5,5.2-4.7,8.1-6.7v23.5h-8.1V84.9z M166.5,101.7h-8.1V78.2c2.9,2,5.6,4.2,8.1,6.7V101.7z
		 M151.4,101.7h-8.1v-31c2.8,0.9,5.5,2,8.1,3.3V101.7z M136.3,101.7h-8.1V67.9c2.8,0.2,5.5,0.5,8.1,1V101.7z M121.1,101.7H113V68.9
		c2.6-0.5,5.3-0.9,8.1-1V101.7z M106,101.7h-8.1V74.1c2.6-1.3,5.3-2.4,8.1-3.3V101.7z M166.5,170c-2.5,2.5-5.2,4.7-8.1,6.7v-23.5
		h8.1V170z M82.8,153.2h8.1v23.5c-2.9-2-5.6-4.2-8.1-6.7V153.2z M97.9,153.2h8.1v31c-2.8-0.9-5.5-2-8.1-3.3V153.2z M113,153.2h8.1
		V187c-2.8-0.2-5.5-0.5-8.1-1V153.2z M128.1,153.2h8.1V186c-2.6,0.5-5.3,0.9-8.1,1V153.2z M143.3,153.2h8.1v27.6
		c-2.6,1.3-5.3,2.4-8.1,3.3V153.2z M75.8,153.2v8.5c-1.9-2.7-3.6-5.5-5-8.5H75.8z M173.5,161.7v-8.5h5
		C177.1,156.2,175.4,159.1,173.5,161.7z M178.5,101.7h-5v-8.5C175.4,95.8,177.1,98.7,178.5,101.7z M75.8,93.1v8.5h-5
		C72.2,98.7,73.9,95.8,75.8,93.1z"/>
	<path class="st0" d="M124.6,139.8c6.8,0,12.3-5.5,12.3-12.3c0-6.8-5.5-12.3-12.3-12.3s-12.3,5.5-12.3,12.3
		C112.3,134.2,117.8,139.8,124.6,139.8z M124.6,123.1c2.4,0,4.3,1.9,4.3,4.3c0,2.4-1.9,4.3-4.3,4.3s-4.3-1.9-4.3-4.3
		C120.3,125.1,122.3,123.1,124.6,123.1z"/>
	<path class="st0" d="M101,129.9h5.8c1.4,0,2.5-1.1,2.5-2.5s-1.1-2.5-2.5-2.5H101c-1.4,0-2.5,1.1-2.5,2.5S99.7,129.9,101,129.9z"/>
	<path class="st0" d="M142.5,129.9h5.8c1.4,0,2.5-1.1,2.5-2.5s-1.1-2.5-2.5-2.5h-5.8c-1.4,0-2.5,1.1-2.5,2.5
		S141.1,129.9,142.5,129.9z"/>
	<path class="st0" d="M78.5,135.9c-1.9,0-1.9,3,0,3C80.5,138.9,80.5,135.9,78.5,135.9z"/>
	<path class="st0" d="M88.3,117.9c-1.9,0-1.9,3,0,3S90.2,117.9,88.3,117.9z"/>
	<path class="st0" d="M103,132.9c-1.9,0-1.9,3,0,3C105,135.9,105,132.9,103,132.9z"/>
	<path class="st0" d="M148.3,120.2c1.4,0,2.8,0,4.3,0c1.9,0,1.9-3,0-3c-1.4,0-2.8,0-4.3,0C146.4,117.2,146.4,120.2,148.3,120.2z"/>
	<path class="st0" d="M159.8,120.2c1.9,0,1.9-3,0-3S157.9,120.2,159.8,120.2z"/>
	<path class="st0" d="M165.3,138.7c1.9,0,1.9-3,0-3S163.4,138.7,165.3,138.7z"/>
	<path class="st0" d="M82.8,118.2c-1.3,0-2.5,0-3.8,0c-1.9,0-1.9,3,0,3c1.3,0,2.5,0,3.8,0C84.7,121.2,84.7,118.2,82.8,118.2z"/>
</g>
</svg>
