<?xml version="1.0" standalone="no"?>
<!DOCTYPE svg PUBLIC "-//W3C//DTD SVG 20010904//EN"
 "http://www.w3.org/TR/2001/REC-SVG-20010904/DTD/svg10.dtd">
<svg version="1.0" xmlns="http://www.w3.org/2000/svg"
 width="1253.000000pt" height="1280.000000pt" viewBox="0 0 1253.000000 1280.000000"
 preserveAspectRatio="xMidYMid meet">
<g transform="translate(0.000000,1280.000000) scale(0.100000,-0.100000)"
fill="#000000" stroke="none">
<path d="M10393 12780 c-81 -22 -120 -53 -165 -130 -46 -79 -62 -152 -55 -251
8 -95 23 -141 68 -200 20 -25 55 -91 78 -147 23 -55 58 -124 77 -154 71 -112
77 -133 82 -268 3 -77 0 -142 -7 -168 -18 -66 -71 -117 -175 -167 -129 -62
-371 -146 -438 -152 -51 -5 -60 -3 -89 21 -17 15 -64 42 -103 61 -40 20 -111
68 -161 111 -112 95 -215 164 -319 213 -45 21 -101 54 -125 75 -119 100 -201
125 -576 176 -364 49 -517 66 -700 80 -184 13 -498 13 -627 -1 -105 -11 -306
-59 -411 -98 -43 -16 -98 -24 -215 -32 -304 -19 -312 -20 -371 -67 -63 -50
-316 -176 -386 -193 -27 -6 -65 -21 -83 -31 -46 -28 -173 -45 -471 -63 -387
-23 -516 -34 -631 -55 -58 -11 -163 -27 -235 -35 -362 -44 -437 -62 -475 -114
-11 -17 -33 -31 -51 -35 -38 -7 -168 -73 -256 -128 -40 -25 -85 -67 -123 -113
-33 -41 -105 -124 -160 -186 -135 -152 -192 -238 -244 -366 -46 -114 -83 -184
-141 -267 -19 -26 -35 -58 -35 -70 0 -13 -22 -68 -50 -124 l-49 -102 29 0 c33
0 43 -11 34 -34 -18 -46 -121 -61 -510 -72 -215 -7 -223 -6 -263 14 -23 12
-51 22 -63 22 -35 0 -105 39 -139 78 -53 60 -82 136 -76 196 11 103 99 312
191 450 88 132 274 276 469 363 152 67 188 96 208 166 8 31 7 43 -5 62 -23 36
-125 92 -186 103 -59 11 -227 2 -315 -18 -47 -10 -201 -77 -358 -155 -110 -55
-459 -298 -500 -348 -121 -147 -347 -595 -396 -782 -21 -78 -11 -406 20 -660
13 -114 26 -163 48 -195 10 -14 23 -47 30 -74 7 -28 37 -88 68 -135 97 -149
141 -251 109 -251 -24 0 -163 57 -231 95 -53 29 -151 65 -178 65 -16 0 18
-332 54 -516 41 -214 128 -467 221 -647 23 -44 75 -129 114 -188 83 -122 120
-193 158 -297 50 -140 63 -154 195 -211 179 -77 231 -127 323 -308 61 -119 92
-198 134 -350 95 -342 149 -460 251 -550 200 -177 222 -218 269 -503 44 -263
95 -402 172 -472 41 -37 66 -44 167 -50 35 -3 40 -6 41 -28 1 -42 2 -44 60
-116 33 -41 85 -129 130 -219 65 -131 76 -160 84 -231 6 -44 26 -128 44 -185
19 -57 39 -144 44 -194 7 -56 27 -139 53 -220 41 -124 43 -136 44 -250 0 -111
-2 -124 -27 -171 -50 -95 -113 -131 -249 -144 -68 -6 -106 -17 -168 -44 -77
-35 -85 -37 -218 -41 -156 -5 -155 -4 -318 -75 -188 -81 -349 -144 -490 -190
-71 -23 -207 -74 -301 -111 -94 -38 -176 -69 -183 -69 -16 0 -117 -52 -196
-100 -83 -51 -201 -110 -218 -110 -23 0 -103 -92 -170 -197 -134 -207 -255
-449 -293 -583 -18 -67 -78 -222 -178 -459 -31 -74 -62 -154 -68 -178 -10 -43
-17 -51 -91 -114 -45 -38 -78 -98 -105 -194 -49 -176 -52 -209 -21 -283 24
-59 39 -67 152 -82 175 -23 718 -5 717 24 0 6 -7 20 -15 30 -24 31 -19 117 8
157 27 41 66 51 74 20 12 -46 73 -19 123 54 22 32 38 45 55 45 28 0 75 -52 75
-84 0 -13 15 -43 34 -68 43 -56 152 -148 175 -148 9 0 49 16 90 35 100 48 101
48 115 -17 9 -39 52 -58 131 -58 81 0 154 23 188 58 14 15 51 79 81 142 74
151 122 245 156 300 36 58 60 140 60 206 0 66 -7 84 -32 84 -46 0 -104 -49
-154 -132 -73 -119 -153 -134 -94 -18 11 22 20 43 20 48 0 4 -18 16 -39 25
-42 19 -111 88 -111 111 0 7 25 51 56 96 120 176 179 355 143 433 -18 39 -49
48 -111 31 -71 -19 -122 -18 -139 2 -11 14 -10 19 10 35 37 30 129 53 214 53
42 1 77 1 77 2 0 1 -7 17 -15 36 -20 49 -4 103 38 128 54 33 75 27 139 -42
l57 -62 50 42 c72 61 113 82 188 98 111 23 245 130 308 246 31 57 50 182 24
162 -8 -6 -38 -30 -68 -53 -72 -56 -105 -54 -109 5 -3 37 1 44 41 81 81 74
228 141 283 127 27 -7 54 -54 54 -93 0 -48 50 -38 120 24 28 25 54 45 58 45 4
0 24 -11 45 -25 20 -14 42 -23 47 -20 28 17 218 333 327 545 36 69 69 129 73
134 20 21 170 -114 170 -153 0 -9 -30 -63 -67 -121 -169 -268 -203 -325 -214
-359 -6 -20 -21 -45 -34 -56 -30 -26 -40 -125 -12 -125 7 0 60 47 117 106 118
118 167 155 180 133 11 -17 -6 -58 -81 -192 -62 -111 -84 -177 -58 -177 20 0
125 113 191 206 31 43 91 135 133 204 42 69 86 135 97 147 31 34 69 37 155 13
90 -24 123 -43 123 -69 0 -20 -21 -32 -96 -55 -31 -10 -64 -30 -87 -54 -44
-46 -147 -213 -240 -391 l-70 -134 22 -18 c26 -21 123 -59 152 -59 12 0 35 12
52 26 45 38 150 88 260 123 53 17 103 31 110 31 37 0 88 24 122 58 20 20 78
99 128 175 56 86 97 137 107 137 13 0 19 -16 28 -78 6 -43 25 -112 41 -154 20
-50 34 -107 40 -165 11 -102 22 -138 50 -152 45 -24 151 -3 222 43 21 14 49
26 63 26 27 0 42 14 51 52 8 32 39 63 54 53 6 -3 11 -22 11 -41 0 -19 5 -34
11 -34 7 0 31 18 55 40 63 58 101 51 69 -11 -20 -37 -13 -47 43 -60 53 -12
108 6 136 44 17 24 21 41 19 98 -2 38 0 69 2 69 3 0 14 -6 25 -12 27 -17 48
-3 75 48 35 66 35 66 51 53 27 -22 15 -78 -51 -238 -29 -68 -25 -81 22 -81 36
0 63 -34 63 -79 0 -58 18 -71 100 -71 87 0 124 -13 117 -41 -4 -15 1 -23 19
-31 34 -16 162 5 232 37 30 14 63 25 74 25 17 0 19 -5 13 -44 -7 -44 -6 -45
28 -60 37 -15 57 -41 57 -74 0 -26 36 -57 95 -82 27 -12 65 -33 83 -47 26 -20
54 -28 128 -37 61 -8 101 -18 111 -29 10 -9 20 -42 24 -77 4 -33 12 -67 19
-75 25 -31 92 -12 139 39 46 49 87 23 62 -38 -27 -67 -28 -67 21 -60 56 8 60
1 45 -98 -13 -91 -2 -141 30 -146 16 -2 28 7 47 41 36 61 64 84 131 107 32 11
69 27 82 36 13 8 57 65 97 127 40 62 82 120 94 130 39 35 59 19 156 -133 53
-84 80 -90 140 -31 50 49 81 61 134 54 29 -4 59 1 99 16 63 23 213 51 273 51
56 0 64 -16 40 -86 -27 -77 -28 -148 -2 -183 19 -27 27 -31 123 -75 41 -19 64
-38 89 -73 79 -113 115 -129 151 -68 35 59 89 55 72 -5 -14 -53 -9 -85 13 -88
29 -4 47 -27 68 -85 19 -50 47 -77 82 -77 29 0 85 43 207 156 120 112 208 174
247 174 23 0 30 -6 39 -33 7 -19 33 -58 60 -88 l49 -54 70 38 c91 49 175 77
228 77 59 0 96 -34 149 -139 23 -47 55 -97 69 -110 26 -24 26 -24 123 -12 54
7 126 19 161 27 115 26 146 17 219 -58 93 -97 116 -162 68 -194 -28 -18 -74
-13 -164 17 -74 26 -85 24 -125 -16 -20 -19 -39 -35 -43 -35 -4 0 -28 14 -52
30 -24 17 -53 30 -63 30 -10 0 -60 16 -111 36 -115 44 -169 50 -277 30 -132
-24 -217 -35 -239 -29 -11 3 -29 20 -40 39 -25 41 -49 43 -83 7 -32 -35 -44
-58 -53 -108 -9 -52 -30 -75 -69 -75 -43 0 -76 19 -157 91 -38 34 -72 59 -75
56 -8 -8 -27 -238 -20 -245 3 -3 86 -11 184 -18 226 -17 699 -17 910 0 144 11
165 15 183 34 35 38 99 22 99 -25 l0 -27 28 27 c52 50 132 60 197 26 65 -34
367 -48 1004 -49 436 0 541 2 533 13 -24 28 -72 246 -82 370 -6 71 -18 147
-26 170 -36 99 -36 101 -9 209 27 110 30 166 15 267 -5 35 -14 146 -20 245
-28 465 -40 569 -81 696 -51 156 -114 244 -344 479 -154 158 -209 201 -365
286 -58 32 -168 100 -246 151 -77 52 -190 117 -250 145 -246 115 -335 162
-458 243 -70 47 -149 92 -175 100 -97 32 -482 108 -612 121 -75 7 -153 21
-175 30 -49 20 -109 78 -136 129 -26 51 -47 170 -48 266 0 42 -8 103 -17 135
-9 33 -17 78 -16 100 0 56 42 132 102 188 28 26 55 56 61 67 6 12 9 75 8 157
-3 153 2 172 62 263 68 101 81 136 85 219 4 123 33 163 215 301 146 110 289
229 316 265 33 44 30 79 -10 83 -57 7 -275 -167 -333 -265 -29 -50 -77 -93
-103 -93 -31 0 -43 28 -48 109 -6 102 13 209 49 276 16 30 32 72 35 95 8 49
34 71 72 60 15 -4 66 -28 114 -53 101 -54 123 -52 181 12 29 32 36 50 46 115
6 42 11 85 11 95 0 40 -119 118 -222 145 -76 20 -85 25 -103 52 -8 13 -24 24
-34 24 -22 0 -138 -119 -180 -185 -44 -69 -69 -141 -80 -232 -13 -103 -30
-153 -101 -298 -108 -221 -301 -485 -353 -485 -31 0 -40 47 -33 176 11 214 30
277 107 342 21 18 52 59 69 90 17 31 87 136 155 232 68 96 142 207 163 245 22
39 64 111 94 160 30 50 60 106 67 126 6 20 21 45 32 55 29 27 45 60 59 127 6
31 22 83 35 115 12 31 30 93 39 137 22 110 45 348 36 359 -5 5 -49 7 -99 4
-102 -5 -119 -14 -150 -82 -10 -23 -34 -60 -54 -84 -20 -23 -55 -80 -79 -125
-32 -61 -66 -106 -133 -174 -148 -150 -211 -164 -296 -62 -25 29 -49 49 -61
49 -36 0 -94 -72 -127 -160 -76 -196 -100 -389 -100 -790 1 -278 -36 -1008
-62 -1244 -20 -181 -73 -356 -137 -446 -46 -66 -74 -87 -136 -103 -45 -11 -49
-15 -66 -59 -37 -97 -167 -252 -242 -288 -56 -26 -240 -193 -491 -444 -111
-111 -220 -216 -242 -233 -161 -122 -712 -403 -956 -488 -142 -49 -319 -80
-319 -56 0 5 33 25 73 44 39 19 81 42 92 52 23 19 38 20 -130 -11 -88 -16 -94
-16 -194 4 -57 11 -106 23 -109 26 -13 13 19 25 148 55 311 73 420 125 472
225 31 60 102 131 224 222 114 85 145 118 182 191 25 48 62 78 144 117 43 20
78 50 135 113 43 47 111 107 150 134 83 56 252 215 283 265 46 73 -1 69 -205
-16 -288 -121 -715 -268 -799 -277 -81 -8 -115 2 -210 63 -74 48 -96 58 -154
65 -37 4 -89 15 -115 23 -60 19 -327 61 -515 80 -210 22 -276 4 -429 -119 -92
-74 -223 -209 -223 -230 0 -22 49 -19 250 15 218 37 298 38 371 6 30 -13 104
-38 164 -56 217 -64 327 -132 340 -213 10 -57 17 -64 82 -72 80 -10 107 -38
101 -109 -5 -62 -40 -118 -137 -220 -103 -107 -132 -123 -263 -146 -184 -31
-213 -43 -283 -113 -33 -34 -69 -80 -79 -101 -17 -37 -18 -40 -2 -52 43 -31
367 -24 483 11 57 17 76 6 47 -26 -35 -40 -81 -51 -253 -60 -253 -15 -441 3
-441 42 0 5 -11 15 -23 24 -22 14 -28 14 -68 -1 -29 -10 -81 -16 -150 -17 -90
-2 -110 1 -127 16 -11 10 -37 23 -58 28 -50 14 -74 36 -74 66 0 31 50 53 123
53 69 0 148 15 195 37 50 23 176 150 190 191 11 31 9 36 -16 62 -49 48 -203
67 -272 32 -26 -12 -38 -28 -48 -57 -19 -60 -29 -65 -125 -69 -73 -3 -97 -8
-151 -35 -76 -37 -142 -105 -151 -154 -9 -45 -36 -74 -78 -82 -110 -21 -482
123 -631 245 -24 19 -64 49 -89 67 -32 22 -53 48 -71 86 -14 30 -45 83 -68
118 -97 149 -190 379 -214 529 -8 50 -26 110 -43 145 -33 67 -95 145 -116 145
-8 0 -26 10 -41 23 -23 20 -25 26 -15 45 12 22 13 22 239 15 248 -7 360 0 369
23 10 26 -7 64 -37 79 -16 8 -88 21 -161 29 -119 12 -135 16 -152 37 -15 19
-18 33 -13 68 12 87 48 113 178 129 41 6 87 17 100 26 25 16 27 16 68 -19 47
-39 64 -42 117 -20 49 20 67 38 115 108 91 133 216 146 164 16 -23 -58 -2 -52
91 27 79 67 126 94 163 94 11 0 40 -18 64 -40 24 -22 47 -40 51 -40 4 0 20 11
36 25 16 13 46 29 67 35 95 28 1097 41 1427 19 250 -16 343 -42 457 -127 98
-73 157 -91 177 -53 16 29 39 32 81 11 54 -27 80 -26 80 3 0 13 -7 32 -15 43
-18 24 -19 54 -2 54 18 0 116 -66 160 -108 46 -44 79 -105 75 -135 -6 -41
-138 -84 -387 -126 -216 -37 -247 -33 -631 80 -281 82 -491 134 -609 151 -55
8 -197 13 -401 13 -280 -1 -320 -3 -360 -19 -61 -24 -100 -33 -203 -46 -97
-12 -275 -70 -359 -117 -62 -35 -89 -73 -72 -100 10 -15 25 -18 90 -17 63 1
144 17 404 82 461 115 465 115 710 109 295 -8 341 -17 630 -135 239 -97 463
-141 765 -149 294 -8 514 26 710 110 97 41 149 73 218 135 103 93 211 160 302
186 30 9 40 17 38 31 -2 28 21 68 80 138 77 91 87 108 87 149 0 29 9 47 40 83
30 35 39 52 34 70 -6 26 3 49 139 350 202 448 297 752 298 951 1 93 -14 138
-66 195 -36 40 -52 80 -40 99 4 6 23 9 43 8 53 -4 53 23 -3 107 -65 99 -64 97
-31 220 19 69 21 136 5 152 -8 8 -33 10 -74 6 -81 -7 -107 0 -153 42 -21 18
-49 36 -63 40 -14 3 -109 -7 -211 -24 -355 -59 -498 -73 -673 -68 -137 3 -171
8 -238 30 -101 33 -188 86 -319 194 -95 79 -153 118 -348 235 -30 18 -89 67
-131 108 -75 73 -102 121 -82 141 5 5 77 18 159 29 171 23 254 38 448 86 250
61 298 53 648 -110 381 -177 522 -222 978 -312 309 -61 303 -58 421 -170 98
-92 139 -115 139 -75 0 30 -79 270 -116 349 -59 129 -209 250 -327 266 -66 8
-87 21 -87 54 0 40 26 72 59 72 29 0 160 73 231 130 25 19 53 57 72 94 17 33
48 89 70 122 24 39 43 84 50 121 21 111 29 135 59 165 16 17 29 36 29 43 0 24
-39 46 -101 56 -35 6 -65 12 -68 14 -11 12 25 33 74 44 51 12 59 11 108 -12
87 -40 317 -243 317 -280 0 -8 41 -83 92 -167 56 -94 107 -197 133 -265 81
-212 95 -229 284 -330 207 -110 251 -166 259 -331 5 -103 -4 -127 -88 -243
-127 -176 -159 -327 -100 -484 26 -69 77 -127 112 -127 31 0 65 42 119 146 44
86 80 136 158 217 68 71 102 90 227 122 142 37 191 74 231 176 24 61 24 346 0
510 -44 296 -135 499 -224 499 -33 0 -47 -13 -87 -82 -22 -40 -32 -48 -56 -48
-24 0 -35 8 -56 40 -58 87 -37 177 59 249 62 47 220 131 246 131 28 0 40 -20
65 -111 12 -46 50 -160 84 -254 80 -227 86 -270 79 -619 -6 -300 -17 -386 -59
-454 -103 -172 -353 -416 -453 -443 -22 -6 -46 -16 -54 -22 -21 -18 -46 -78
-96 -238 l-45 -144 59 -57 c35 -35 68 -58 81 -58 30 0 96 71 237 256 67 88
135 173 151 189 16 17 35 47 40 68 6 21 30 64 53 95 58 78 303 322 322 322 25
0 52 35 91 115 58 119 67 167 50 266 -33 190 -173 529 -237 570 -45 30 -91 93
-148 204 -45 87 -49 102 -49 165 0 96 34 264 67 330 28 56 63 82 125 95 15 3
85 44 155 91 70 47 158 101 195 121 107 56 263 204 308 293 11 21 29 78 40
125 22 95 48 154 91 203 16 18 31 45 35 60 3 15 17 36 31 48 14 12 29 39 34
65 6 24 39 104 73 179 76 161 83 183 89 280 3 43 21 128 43 200 69 232 69 233
68 410 -2 200 -19 375 -45 453 -11 32 -54 115 -96 185 -42 70 -87 152 -100
182 -14 30 -45 87 -69 126 -25 39 -58 109 -75 154 -38 105 -52 125 -164 235
-50 50 -112 119 -136 155 -37 54 -57 71 -116 104 -42 22 -113 77 -175 133
-115 106 -188 157 -328 231 -340 179 -570 235 -757 182z m287 -135 c180 -38
423 -148 571 -259 198 -149 275 -313 334 -708 54 -365 78 -475 117 -530 10
-15 23 -56 29 -90 16 -101 76 -271 111 -315 12 -15 34 -5 90 40 78 63 94 8 32
-114 -71 -143 -134 -186 -387 -268 -87 -28 -175 -60 -196 -70 -54 -28 -103
-82 -151 -169 -66 -119 -68 -120 -109 -141 -36 -19 -73 -56 -114 -115 -26 -38
-59 -51 -187 -76 -63 -12 -173 -41 -245 -65 -199 -67 -343 -100 -585 -136 -97
-14 -143 -25 -163 -40 -71 -51 -187 -65 -258 -29 -75 39 -111 122 -145 339
-20 128 -65 283 -105 364 -35 69 -35 78 13 203 l31 83 -38 96 c-21 55 -58 122
-84 158 -26 34 -83 109 -127 167 -45 58 -99 132 -121 165 -72 106 -124 150
-257 215 -90 44 -143 63 -206 74 -273 50 -871 47 -1128 -4 -74 -15 -100 -25
-128 -49 -19 -17 -41 -31 -48 -31 -8 0 -39 12 -70 26 l-57 26 -60 -26 c-32
-15 -91 -34 -131 -42 -120 -25 -150 -33 -219 -65 -44 -19 -116 -38 -210 -54
-172 -31 -227 -46 -341 -95 -137 -59 -226 -121 -374 -260 -79 -74 -147 -130
-158 -130 -17 0 -18 6 -13 78 3 42 17 113 31 157 33 102 33 140 4 157 -17 9
-97 14 -280 16 l-258 4 -74 -40 c-41 -23 -99 -58 -128 -80 -111 -82 -216 -134
-380 -188 -185 -62 -486 -205 -634 -303 -198 -131 -419 -422 -504 -666 -41
-118 -65 -153 -152 -218 -182 -135 -353 -384 -352 -512 2 -87 69 -205 118
-205 25 0 63 31 99 81 28 39 86 73 110 63 43 -16 24 -95 -36 -151 -23 -21 -77
-58 -119 -81 -79 -44 -138 -100 -138 -131 0 -9 11 -54 24 -98 31 -102 46 -227
46 -374 0 -155 -1 -155 -133 -112 -14 4 -17 -1 -17 -31 0 -26 -9 -48 -30 -74
-16 -20 -35 -60 -41 -88 -11 -49 -10 -55 20 -116 38 -80 40 -129 6 -189 -43
-76 -56 -110 -70 -180 -11 -62 -21 -80 -110 -201 -102 -140 -134 -193 -121
-205 4 -4 78 64 164 151 179 182 225 216 291 216 26 1 80 7 121 15 196 38 199
38 375 25 94 -6 176 -15 184 -20 20 -11 -7 -26 -184 -103 -153 -67 -233 -88
-390 -102 -165 -15 -272 -58 -369 -146 -109 -99 -196 -235 -196 -306 0 -18 9
-56 20 -85 26 -69 26 -114 0 -128 -26 -14 -51 -1 -83 43 -101 136 -66 417 129
1022 66 205 114 385 114 429 0 18 9 66 20 107 28 103 35 205 21 280 -22 110
-51 142 -51 55 0 -28 -7 -52 -19 -67 -18 -22 -19 -22 -44 -6 -23 15 -49 44
-129 141 l-24 28 -78 -41 c-43 -22 -83 -41 -90 -41 -7 0 -35 16 -61 36 -40 31
-52 36 -74 28 -50 -18 -40 -47 78 -228 117 -179 138 -229 105 -253 -25 -18
-62 -9 -97 25 -15 15 -59 84 -97 154 -68 126 -203 314 -260 361 -16 14 -51 32
-77 42 -99 34 -193 88 -271 155 -44 39 -85 70 -92 70 -10 0 -12 -20 -7 -82 7
-100 30 -182 63 -226 14 -17 32 -48 40 -67 8 -20 31 -45 53 -60 48 -29 57 -43
36 -51 -30 -12 -81 21 -176 115 -293 293 -471 691 -471 1056 0 135 15 205 83
373 117 290 280 587 342 621 16 9 62 42 101 74 39 31 103 74 141 94 39 20 84
51 101 69 41 42 105 74 239 117 312 100 483 85 272 -24 -122 -63 -207 -120
-276 -185 -53 -51 -63 -67 -77 -119 -18 -73 -49 -107 -111 -123 -40 -11 -63
-29 -143 -110 -136 -139 -180 -234 -180 -386 0 -57 5 -77 26 -114 l26 -45 -17
-58 c-15 -48 -16 -67 -8 -102 15 -55 90 -248 103 -261 15 -15 111 -19 157 -7
24 7 55 22 69 35 26 22 26 23 10 47 -19 29 -13 39 23 39 37 0 55 14 48 39 -2
11 1 28 8 38 13 17 15 17 49 -1 33 -17 50 -19 193 -13 87 4 259 14 382 23
l224 17 19 -22 c26 -33 23 -86 -6 -115 -19 -20 -37 -25 -102 -30 -128 -10
-214 -25 -246 -44 -17 -9 -40 -23 -52 -29 -11 -7 -47 -13 -78 -13 -56 0 -58 1
-83 40 -29 46 -83 68 -126 52 -43 -17 -199 -219 -199 -259 0 -10 22 -13 94
-13 89 0 99 -2 162 -35 77 -40 96 -42 155 -15 55 25 76 25 146 0 32 -11 69
-20 84 -20 38 0 118 57 152 108 16 23 35 42 42 42 32 0 40 -42 38 -187 -1 -79
0 -143 2 -143 14 0 29 62 55 234 17 107 42 232 55 277 14 45 29 116 34 158 17
132 112 359 218 520 69 104 358 398 508 516 55 43 125 101 155 130 87 81 156
129 280 194 261 136 620 257 878 296 53 8 189 19 302 25 113 6 238 15 279 20
60 8 85 7 132 -6 34 -10 77 -15 102 -12 27 3 132 47 268 111 123 58 280 123
349 145 171 55 427 120 530 133 116 16 180 34 280 79 128 59 198 74 305 66
256 -18 1025 -162 1184 -222 43 -16 84 -24 128 -24 76 0 153 -24 276 -85 103
-52 193 -112 239 -159 18 -18 54 -46 79 -62 63 -39 179 -182 179 -220 0 -7
-15 -33 -34 -57 -19 -25 -33 -47 -30 -49 9 -9 255 24 354 47 137 33 339 97
465 147 164 65 247 114 336 195 73 67 83 73 96 60 20 -20 9 -82 -18 -105 -27
-22 -43 -63 -65 -159 -21 -93 -25 -236 -7 -254 20 -20 63 6 79 49 9 20 28 45
44 54 19 11 43 46 77 114 44 89 48 103 48 168 -1 61 -5 80 -33 132 -19 35 -37
89 -43 125 -13 88 -30 126 -101 232 -34 50 -95 159 -136 241 -41 83 -85 166
-99 184 -80 107 -147 421 -98 462 38 31 183 39 295 15z m1284 -992 c58 -30
121 -109 201 -253 115 -207 119 -223 120 -412 0 -167 -7 -194 -43 -172 -21 13
-30 53 -38 168 -6 94 -6 93 -77 149 -22 17 -31 37 -42 92 -18 85 -96 246 -164
339 -28 38 -51 77 -51 86 0 33 34 33 94 3z m300 -908 c9 -35 -20 -288 -43
-378 -50 -192 -112 -272 -402 -523 -84 -72 -163 -130 -235 -171 -60 -34 -154
-92 -209 -128 -156 -103 -600 -321 -750 -369 -27 -9 -93 -27 -145 -41 -53 -15
-159 -57 -240 -95 -162 -78 -192 -84 -214 -42 -17 34 -36 121 -36 168 0 28 5
36 26 45 15 5 34 8 43 5 66 -17 72 -17 60 2 -32 50 40 123 141 144 52 10 57
13 47 30 -17 26 3 52 43 56 18 2 70 -8 115 -22 118 -37 125 -36 180 28 48 56
95 86 138 86 13 0 48 13 78 29 30 16 108 47 174 71 131 46 197 79 277 140 29
22 105 65 168 96 63 31 144 77 180 102 149 106 318 279 419 430 66 99 83 143
106 283 7 44 40 90 59 83 8 -3 17 -16 20 -29z m-7524 -264 c0 -10 -18 -56 -40
-103 -72 -153 -85 -264 -50 -403 28 -109 26 -157 -10 -233 -64 -135 -72 -203
-40 -317 26 -90 25 -113 -5 -185 -30 -70 -32 -120 -7 -143 24 -22 94 -46 156
-53 46 -6 55 -3 84 21 72 60 82 115 62 326 -11 118 -2 198 28 239 10 14 45 41
78 60 74 44 175 145 281 280 114 147 214 247 270 271 26 11 82 54 130 99 86
82 122 101 148 80 39 -32 77 -205 95 -434 21 -274 13 -346 -64 -530 -52 -123
-56 -166 -25 -229 49 -96 148 -217 179 -217 59 0 132 185 159 407 6 46 13 163
17 260 4 117 11 187 20 205 8 14 45 55 84 90 77 68 165 168 265 299 82 108
149 174 169 166 59 -23 -11 -301 -183 -727 -39 -96 -71 -178 -71 -182 0 -11
74 -10 147 2 84 14 113 1 192 -89 80 -90 101 -101 191 -101 76 0 125 15 171
54 16 14 37 27 47 31 23 7 126 142 155 203 16 33 19 47 11 60 -16 25 -92 51
-154 52 -64 0 -137 31 -193 80 -52 45 -48 66 22 148 65 76 110 113 186 157 28
16 98 61 156 101 130 90 231 139 303 148 51 7 56 10 73 44 38 78 130 50 317
-96 63 -50 176 -134 251 -187 169 -120 289 -220 382 -318 81 -85 106 -126 101
-165 l-3 -27 -96 0 c-89 0 -98 -2 -132 -27 -19 -16 -43 -28 -51 -28 -9 0 -34
38 -63 97 -39 80 -57 104 -98 135 -55 42 -344 191 -449 233 -60 23 -72 25
-100 14 -45 -18 -238 -216 -329 -337 -84 -112 -111 -159 -120 -210 -28 -143
-331 -279 -672 -302 -158 -11 -228 -28 -299 -73 -98 -62 -258 -282 -272 -374
-6 -44 -26 -64 -54 -55 -28 9 -90 76 -132 142 -88 140 -131 200 -142 200 -6 0
-29 -9 -51 -20 -30 -15 -59 -20 -126 -20 -47 0 -108 -3 -134 -7 l-47 -6 5 -39
c9 -69 154 -296 214 -335 39 -26 234 -25 321 1 52 16 68 17 101 8 63 -20 86
-14 163 37 75 51 123 94 217 195 98 105 224 175 414 227 155 43 344 118 523
209 246 125 322 182 517 388 61 64 117 121 124 125 10 6 36 -12 89 -60 136
-124 258 -225 312 -255 32 -19 58 -41 63 -57 6 -15 8 -68 4 -131 -9 -139 5
-212 50 -257 23 -23 42 -33 64 -33 42 0 89 -44 131 -125 37 -72 70 -105 103
-105 13 0 59 38 120 100 55 55 108 100 118 100 28 0 39 -32 39 -115 0 -103
-12 -114 -157 -149 -171 -39 -323 -104 -323 -136 0 -6 27 -10 60 -10 63 0 102
-14 133 -48 17 -19 17 -20 -30 -54 -26 -19 -91 -73 -143 -119 -135 -120 -169
-145 -246 -181 -58 -27 -81 -32 -168 -36 -75 -3 -106 0 -119 10 -30 22 -10 46
52 64 72 21 105 38 160 83 48 39 101 114 101 142 0 10 12 27 28 38 26 20 27
21 8 36 -11 8 -27 15 -37 15 -28 0 -59 32 -87 90 -33 67 -116 133 -255 203
-292 146 -475 183 -772 158 -295 -26 -558 -83 -697 -151 -45 -22 -90 -40 -99
-40 -35 0 -140 -157 -184 -274 -20 -53 -25 -85 -25 -157 l0 -90 -57 -60 c-52
-55 -57 -64 -57 -107 l-1 -47 85 -1 c93 -1 153 -19 207 -60 41 -31 43 -60 6
-76 -16 -6 -90 -11 -172 -12 -118 -1 -145 2 -152 14 -5 8 -35 72 -67 141 -74
157 -119 209 -185 209 -54 0 -118 -39 -173 -104 -21 -25 -44 -46 -51 -46 -20
0 -16 -20 17 -76 34 -60 114 -135 197 -183 90 -53 123 -80 123 -100 0 -24 57
-74 123 -107 83 -43 157 -97 254 -186 50 -46 102 -89 114 -95 13 -6 55 -25 93
-43 148 -70 526 -385 526 -438 0 -55 -64 -32 -218 75 -50 35 -108 71 -127 79
-42 17 -141 17 -285 0 -62 -8 -112 -9 -122 -4 -17 8 -25 32 -63 181 -22 87
-80 205 -138 284 -63 84 -134 119 -265 128 -160 10 -236 43 -367 159 -74 66
-79 83 -40 151 30 51 40 82 61 190 21 109 37 139 85 160 22 10 39 25 39 34 0
30 -59 118 -107 161 -118 104 -265 142 -408 105 -82 -22 -135 -47 -235 -111
l-88 -56 -4 -187 c-4 -153 -9 -198 -26 -251 -12 -36 -26 -95 -31 -131 -12 -86
-31 -129 -81 -183 -53 -58 -92 -82 -155 -96 -55 -13 -144 -6 -169 13 -30 22
-7 45 104 101 126 65 210 130 235 182 14 31 16 52 10 125 -9 123 -38 256 -71
328 -48 109 -193 220 -334 256 -90 24 -291 16 -410 -15 -184 -49 -361 -133
-585 -279 -174 -114 -194 -110 -150 28 27 86 28 93 20 203 -21 274 2 326 185
426 57 30 106 67 148 110 51 52 69 65 102 69 60 8 133 -32 221 -123 102 -104
144 -131 241 -155 90 -22 119 -35 192 -86 43 -29 56 -33 115 -33 37 0 104 5
150 10 118 15 137 7 196 -84 46 -72 75 -96 117 -96 49 0 244 130 295 196 21
28 27 49 32 116 7 89 4 86 84 117 l29 11 -7 74 c-5 56 -3 86 9 123 8 26 20 86
26 133 13 102 39 512 33 523 -2 4 -24 7 -49 7 -55 0 -70 -15 -154 -147 -101
-158 -95 -139 -95 -313 1 -170 10 -231 57 -362 25 -72 28 -91 18 -103 -19 -23
-41 -18 -100 20 -30 19 -60 35 -66 35 -15 0 -62 -53 -114 -130 -25 -38 -48
-60 -60 -60 -10 0 -42 21 -72 46 -29 26 -82 60 -118 78 l-65 31 -190 0 c-188
0 -191 0 -235 27 -53 31 -94 68 -85 76 3 3 21 5 40 4 47 -3 70 10 99 61 31 52
66 180 68 242 0 40 -4 51 -33 82 -89 92 -129 85 -293 -50 -38 -32 -75 -57 -83
-57 -8 0 -40 17 -71 39 -107 72 -137 83 -216 79 -69 -3 -71 -2 -74 21 -3 20
16 44 100 126 201 197 252 221 439 213 183 -9 222 -48 260 -254 10 -60 24
-113 29 -118 14 -14 77 20 98 52 17 26 14 95 -18 379 -27 232 -26 268 4 296
12 12 42 53 65 91 76 126 199 265 222 251 5 -4 9 -14 9 -24z m7275 -911 c14
-23 -73 -138 -243 -319 -307 -329 -700 -624 -973 -731 -28 -12 -72 -35 -98
-52 -61 -42 -179 -156 -197 -190 -37 -72 1 -247 120 -556 66 -169 69 -184 52
-208 -14 -18 -16 -18 -50 -1 -21 9 -50 37 -69 64 -89 132 -244 260 -402 334
-47 22 -92 50 -100 63 -34 52 -31 275 5 318 l18 23 36 -19 c50 -27 65 -17 188
128 140 165 222 245 293 288 57 34 97 50 330 133 321 115 596 296 913 598 137
131 163 149 177 127z m-9875 -273 c0 -29 -34 -62 -55 -54 -19 8 -19 27 1 55
21 30 54 29 54 -1z m5890 -647 c73 -12 190 -64 190 -85 0 -7 -19 -20 -42 -29
-24 -8 -126 -45 -228 -81 -102 -37 -293 -111 -425 -165 -387 -158 -536 -198
-665 -180 -92 13 -110 18 -132 38 -26 22 -22 37 19 78 122 122 578 351 793
398 157 35 364 45 490 26z m-6287 -162 c51 -63 157 -228 157 -244 0 -23 -25
-27 -64 -10 -28 12 -41 26 -56 61 -11 25 -38 68 -60 94 -45 53 -63 99 -48 124
15 27 34 20 71 -25z m2293 -343 c170 -29 286 -76 452 -181 43 -28 52 -39 52
-63 0 -23 -7 -32 -36 -46 -60 -28 -129 -21 -282 29 -212 69 -521 126 -689 126
-76 0 -103 8 -103 30 0 20 97 64 210 95 36 9 70 19 75 20 31 10 245 3 321 -10z
m-2855 -86 c46 -34 106 -73 133 -87 28 -14 71 -43 95 -64 52 -45 366 -202 556
-278 199 -80 264 -116 373 -207 34 -30 52 -52 52 -67 0 -12 -16 -80 -35 -150
-68 -249 -89 -267 -156 -133 -53 106 -136 232 -200 301 -62 68 -126 110 -409
271 -269 152 -329 194 -407 280 -67 75 -128 169 -118 184 12 20 33 11 116 -50z
m6018 -64 c40 -20 47 -34 27 -53 -14 -14 -37 -17 -124 -17 -99 0 -152 12 -152
33 1 55 167 80 249 37z m512 -5 c10 -6 19 -17 19 -24 0 -22 -55 -63 -116 -86
-58 -21 -83 -20 -104 5 -26 32 17 74 104 101 51 16 72 17 97 4z m-4434 -134
c75 -57 203 -189 203 -210 0 -30 -54 -19 -101 20 -24 20 -73 51 -111 70 -70
35 -98 69 -98 117 0 25 17 47 36 47 7 0 38 -20 71 -44z m2047 22 c8 -13 4 -30
-17 -73 -15 -30 -27 -72 -27 -92 0 -32 9 -45 78 -112 82 -81 165 -131 247
-150 30 -7 122 -10 230 -9 168 3 183 2 228 -19 27 -13 66 -36 86 -52 56 -45
121 -134 128 -175 7 -47 -15 -72 -111 -125 -39 -21 -100 -65 -135 -96 -36 -32
-85 -67 -109 -78 -56 -24 -150 -33 -194 -18 -18 6 -73 18 -123 26 -74 12 -94
19 -112 40 -26 30 -28 43 -11 80 17 38 163 125 209 125 11 0 59 -20 108 -45
96 -49 111 -53 111 -30 0 20 -108 89 -172 111 -93 31 -227 3 -290 -61 -16 -15
-28 -36 -28 -45 0 -75 -192 -157 -347 -148 -86 4 -178 47 -255 117 -156 142
-182 148 -303 71 -89 -56 -131 -68 -176 -50 -38 16 -59 56 -59 113 0 82 89
169 209 204 65 19 118 13 159 -17 17 -13 37 -20 45 -17 8 3 38 43 65 89 58 95
87 128 143 164 61 38 80 76 78 158 -1 45 2 71 10 76 7 4 40 10 74 13 34 3 89
15 122 26 71 23 124 23 139 -1z m-1681 -268 c26 -16 47 -36 47 -45 0 -39 -104
-24 -139 21 -45 57 16 73 92 24z m414 -156 c29 -17 43 -31 41 -42 -3 -15 -16
-17 -93 -15 -138 3 -255 25 -255 47 0 15 104 32 204 35 47 1 68 -4 103 -25z
m141 -205 c3 -94 -9 -113 -111 -166 -125 -66 -263 -216 -342 -372 -39 -77
-113 -147 -178 -166 -92 -28 -242 -38 -467 -32 -258 7 -285 13 -301 67 -11 35
-9 44 15 94 65 134 331 358 626 529 92 53 168 89 215 102 54 14 197 22 370 21
l170 -1 3 -76z m7212 -23 c0 -20 -18 -39 -29 -32 -12 8 -15 59 -4 70 8 8 33
-21 33 -38z m-9410 -56 c27 -15 137 -184 150 -230 8 -30 7 -75 -5 -183 -28
-260 6 -414 143 -640 47 -76 54 -95 41 -103 -16 -10 -85 62 -145 153 -118 176
-167 368 -161 630 3 164 -18 170 -52 14 -11 -51 -26 -100 -32 -107 -27 -33
-66 -12 -210 116 -57 51 -121 103 -141 116 -20 13 -39 33 -43 45 -13 39 12 48
144 57 l124 9 62 66 c63 68 86 78 125 57z m2738 -86 c47 -33 10 -67 -88 -78
-70 -8 -92 4 -65 34 25 27 83 59 110 60 11 0 31 -7 43 -16z m-468 -114 c33
-33 14 -63 -80 -126 -145 -96 -321 -273 -340 -342 -26 -98 -133 -173 -339
-238 -81 -26 -185 -64 -234 -86 -95 -42 -123 -43 -133 -2 -9 34 12 77 46 98
17 10 69 21 122 27 106 12 155 31 242 93 73 52 143 124 218 227 117 158 256
285 373 341 71 33 98 35 125 8z m784 -110 c70 -27 107 -59 100 -88 -20 -72
-152 -154 -254 -156 -88 -2 -98 12 -77 100 10 37 28 92 42 122 l25 54 53 -4
c28 -3 79 -16 111 -28z m2260 -45 c97 -39 153 -53 246 -64 162 -19 325 -96
307 -146 -9 -22 -151 -20 -252 4 -198 48 -415 160 -415 215 0 23 41 20 114 -9z
m-931 -70 c84 -18 146 -51 227 -121 34 -30 94 -71 134 -91 100 -50 303 -115
493 -156 205 -46 266 -63 297 -88 28 -22 90 -34 216 -44 47 -3 159 -15 250
-26 201 -23 299 -24 381 -3 42 11 81 14 117 10 47 -6 53 -4 50 11 -2 9 -17 20
-34 25 -16 4 -57 32 -90 61 -32 29 -80 68 -105 85 -48 32 -250 134 -326 165
-48 19 -55 34 -20 42 26 6 332 54 394 62 63 8 87 -2 156 -67 80 -75 111 -139
134 -283 19 -121 13 -157 -27 -169 -132 -38 -214 -48 -407 -48 -338 0 -525 25
-726 95 -187 66 -260 86 -481 130 -250 50 -296 68 -459 184 -69 49 -112 73
-148 80 -73 16 -282 13 -383 -4 -116 -20 -299 -80 -333 -109 -89 -74 -308
-141 -503 -153 -135 -8 -251 9 -525 77 -476 118 -494 114 -709 -149 -116 -143
-163 -184 -239 -213 -113 -43 -286 -61 -337 -35 -29 15 -37 48 -16 66 9 7 61
17 116 21 154 12 234 60 291 173 70 136 214 293 314 343 48 23 76 30 142 33
127 5 315 -24 543 -85 241 -63 322 -76 422 -63 121 15 184 36 398 130 178 79
236 100 335 122 52 12 394 6 458 -8z m-17 -294 c47 -21 74 -54 74 -89 0 -33
85 -120 162 -165 34 -20 69 -37 76 -37 7 0 20 16 27 35 8 19 25 40 37 46 63
34 579 -39 943 -133 89 -23 145 -31 218 -32 53 -1 102 -7 108 -13 5 -5 18 -25
27 -44 16 -32 20 -34 60 -31 75 6 96 -37 41 -85 -17 -15 -49 -66 -71 -112 -51
-106 -138 -201 -185 -201 -41 0 -85 50 -108 122 -20 60 -86 198 -95 198 -4 0
-14 -28 -24 -62 -37 -132 -128 -277 -208 -330 -15 -10 -29 -32 -33 -50 -34
-156 -310 -478 -410 -478 -40 0 -105 -55 -105 -89 0 -32 26 -26 115 25 171
100 184 103 214 52 35 -57 64 -185 65 -288 l1 -95 -95 3 c-137 3 -448 23 -494
31 -64 10 -65 18 -18 228 49 217 71 370 72 498 1 107 16 159 46 163 28 4 94
-72 137 -158 31 -63 32 -68 29 -178 -2 -125 6 -139 43 -66 15 31 20 66 23 165
8 257 -63 599 -148 718 -25 34 -36 41 -63 41 -38 0 -58 -19 -131 -123 -89
-126 -201 -226 -239 -211 -8 3 -34 41 -58 85 -102 186 -136 243 -147 247 -7 2
-32 -41 -60 -100 -72 -153 -169 -257 -239 -258 -39 0 -50 16 -58 91 -11 102
-15 115 -49 167 -21 33 -36 71 -40 102 -8 57 -18 61 -86 34 -46 -19 -67 -52
-96 -149 -27 -94 -51 -142 -79 -161 -35 -23 -68 -7 -95 46 -25 49 -143 176
-183 196 -26 14 -31 14 -49 -3 -31 -28 -51 -74 -50 -113 2 -38 -38 -133 -70
-167 -12 -13 -30 -23 -41 -23 -36 0 -85 48 -115 113 -18 37 -48 79 -74 102
l-43 40 -12 -110 c-21 -182 -50 -228 -120 -191 -60 31 -94 81 -169 254 -7 17
-18 32 -24 32 -14 0 -41 -58 -85 -183 -47 -136 -70 -171 -113 -175 -98 -10
-235 167 -249 320 -8 80 0 101 67 173 46 50 60 72 60 95 0 46 24 95 61 123 70
52 207 110 237 100 23 -8 12 -54 -28 -113 -67 -98 -75 -150 -25 -150 23 0 131
84 180 140 30 34 113 70 139 61 18 -7 22 -18 26 -83 9 -132 44 -141 141 -39
79 84 90 87 301 103 202 15 218 10 309 -83 70 -72 100 -84 119 -50 18 35 11
64 -27 103 -56 58 -39 75 100 98 65 10 93 3 139 -35 16 -14 42 -28 56 -31 90
-20 134 -39 200 -89 115 -85 137 -83 128 11 -5 62 -26 107 -73 156 -58 59 -40
74 92 76 49 1 82 -4 111 -17z m-3469 -161 c9 -17 11 -46 7 -90 -7 -84 12 -177
65 -304 23 -54 41 -104 41 -111 0 -7 21 -41 47 -75 60 -80 70 -125 83 -375 14
-255 26 -311 91 -432 56 -103 67 -159 37 -189 -26 -26 -52 -3 -113 100 -102
171 -192 395 -238 589 -17 74 -21 125 -21 262 l-1 170 -38 67 c-46 81 -67 172
-67 300 0 82 3 99 18 107 30 18 75 9 89 -19z m-394 -365 c44 -20 66 -25 90
-20 93 19 115 18 141 -8 14 -14 28 -38 32 -53 4 -16 -1 -113 -11 -215 -29
-298 -15 -385 106 -655 33 -72 59 -142 59 -156 0 -39 -73 -98 -121 -98 -28 0
-126 60 -165 102 -69 72 -89 157 -104 431 -26 472 -31 500 -114 587 -57 60
-71 101 -44 128 12 12 18 10 131 -43z m1313 31 c3 -8 -2 -59 -12 -113 -15 -79
-18 -152 -19 -378 0 -276 0 -282 29 -398 33 -133 29 -167 -20 -167 -38 0 -128
63 -214 149 -83 84 -146 194 -174 307 -25 98 -38 259 -31 379 7 124 18 170 43
180 9 4 82 13 162 20 80 8 156 18 170 24 36 14 60 13 66 -3z m280 -557 c3 -6
12 -111 19 -233 7 -121 18 -234 24 -249 16 -42 13 -104 -9 -182 -36 -127 -23
-167 44 -126 35 22 60 20 70 -5 17 -44 -12 -54 -307 -114 -244 -49 -261 -50
-281 -11 -21 39 -30 201 -17 281 20 122 67 146 161 85 107 -71 160 -91 160
-61 0 7 -19 53 -42 102 -39 82 -43 96 -43 170 0 75 3 87 42 166 65 131 153
218 179 177z m2285 -420 c42 -46 79 -114 79 -146 0 -11 11 -37 26 -58 56 -84
30 -93 -309 -110 -298 -16 -383 -27 -598 -80 -196 -48 -264 -52 -419 -24 -113
20 -158 22 -475 23 -365 1 -382 3 -405 45 -13 26 -4 66 47 201 50 132 70 164
105 168 34 4 68 -37 159 -188 40 -67 79 -124 86 -127 23 -9 51 27 69 85 27 94
107 232 134 232 5 0 32 -45 61 -100 52 -103 117 -184 155 -195 33 -9 80 37
120 118 46 90 76 122 104 107 31 -17 109 -100 137 -148 47 -79 107 -63 180 50
67 103 77 112 111 94 15 -8 65 -46 112 -86 105 -88 133 -103 170 -95 39 9 118
81 178 163 95 129 113 136 173 71z m1363 -9 c29 -36 89 -157 105 -214 8 -31 7
-45 -4 -65 -39 -72 -39 -72 -27 -89 40 -56 40 -92 -1 -92 -14 0 -37 10 -52 22
-21 16 -48 23 -119 29 -120 10 -142 16 -166 46 -28 35 -26 48 20 138 22 43 40
87 40 97 0 55 60 140 115 163 35 15 52 9 89 -35z m-4233 -160 c42 -23 4 -120
-47 -120 -53 0 -72 74 -28 109 30 23 46 26 75 11z m4578 -244 c10 -12 6 -22
-21 -51 -34 -37 -34 -37 -76 -24 -23 6 -50 21 -59 31 -17 19 -17 21 6 39 29
24 132 27 150 5z m-125 -97 c30 -23 33 -54 9 -81 -26 -29 -52 -22 -69 17 -18
43 -18 50 2 69 20 21 26 20 58 -5z m-508 -194 c18 -27 13 -55 -10 -55 -18 0
-46 38 -46 62 0 27 37 22 56 -7z m-3906 -814 c21 -41 9 -92 -33 -138 -20 -23
-57 -31 -57 -14 0 11 28 139 35 159 7 19 43 14 55 -7z m5887 -422 c35 -6 71
-18 79 -27 14 -13 14 -16 0 -30 -11 -12 -36 -16 -84 -16 -94 0 -155 28 -134
61 16 24 51 27 139 12z m-675 -157 c-3 -40 -1 -43 31 -57 44 -18 55 -32 59
-80 l3 -39 110 -49 c129 -57 198 -68 285 -42 99 29 124 33 228 44 78 7 108 15
128 30 49 39 124 18 124 -34 0 -30 -20 -45 -55 -42 -25 2 -34 -6 -66 -53 -51
-77 -200 -217 -257 -242 -57 -25 -54 -22 -46 -42 3 -9 30 -28 60 -42 93 -44
155 -141 125 -197 -7 -12 -25 -30 -42 -39 -38 -22 -35 -42 11 -79 73 -59 232
-95 353 -79 44 5 80 5 98 -2 42 -15 91 -90 97 -149 4 -45 2 -49 -39 -91 -25
-23 -82 -64 -129 -90 -118 -67 -147 -66 -236 6 -78 62 -109 73 -249 82 -123 8
-153 20 -227 90 -96 91 -160 105 -263 55 -33 -16 -91 -56 -130 -90 -96 -85
-116 -94 -220 -102 -49 -4 -118 -11 -153 -15 -52 -6 -65 -4 -82 11 -71 64 54
169 327 275 152 59 229 106 293 177 85 94 145 261 98 271 -18 4 -49 -48 -62
-103 -17 -69 -120 -191 -196 -230 -99 -51 -186 56 -206 254 -9 98 8 138 96
226 38 38 70 73 70 78 0 4 -32 45 -70 89 -117 136 -176 236 -152 260 6 6 39
15 74 20 34 4 90 21 123 37 79 39 91 37 87 -17z m861 34 c8 -21 -32 -53 -101
-81 -77 -31 -127 -33 -142 -4 -28 51 55 97 176 98 44 1 63 -3 67 -13z m-6355
-362 c3 -21 -52 -84 -74 -84 -22 0 -26 18 -9 49 16 32 54 63 70 58 5 -2 11
-12 13 -23z m3910 -144 c5 -40 -85 -181 -130 -205 l-38 -20 -62 32 c-35 18
-76 36 -93 41 -53 15 -43 38 37 78 206 105 280 124 286 74z m-3212 5 c9 -21
-23 -65 -46 -65 -14 0 -20 7 -20 24 0 43 53 76 66 41z m4327 -15 c25 0 39 -5
43 -15 9 -22 -35 -90 -123 -190 -43 -48 -120 -136 -171 -194 -51 -58 -118
-143 -149 -188 -68 -100 -86 -109 -125 -62 -15 19 -35 42 -43 52 -9 10 -29 17
-49 17 -22 0 -46 10 -72 31 -34 27 -44 30 -80 24 -44 -6 -56 1 -69 45 -12 42
-36 60 -150 117 -113 57 -165 95 -165 123 0 24 67 117 131 184 50 50 60 57 74
46 8 -7 15 -21 15 -30 0 -30 47 -77 95 -95 43 -17 45 -17 78 4 19 11 48 21 66
21 26 0 34 -6 48 -37 23 -48 56 -65 115 -60 33 3 60 14 95 39 61 45 179 111
263 148 47 21 75 28 100 24 19 -3 52 -5 73 -4z m-2259 -183 c26 -19 13 -53
-26 -69 -90 -37 -114 -54 -134 -93 -24 -46 -41 -52 -83 -30 -24 12 -31 22 -31
44 0 16 7 35 17 42 14 12 11 15 -28 19 -37 4 -45 9 -47 29 -2 13 0 27 5 32 33
33 289 53 327 26z m-3986 -194 c5 -69 -53 -113 -108 -83 -25 13 -48 86 -33
101 15 15 71 28 108 26 28 -2 30 -5 33 -44z m9423 -82 c32 -33 30 -64 -4 -59
-26 4 -62 52 -54 72 9 23 25 20 58 -13z m-980 -131 c24 -13 26 -72 3 -94 -49
-49 -114 34 -67 86 18 20 36 23 64 8z m-3745 -345 c9 -21 -23 -65 -46 -65 -14
0 -20 7 -20 24 0 43 53 76 66 41z m3541 -187 c45 -50 55 -94 25 -121 -22 -20
-140 -42 -176 -33 -66 17 -54 99 23 147 55 35 100 37 128 7z m-9399 -100 c7
-7 12 -27 12 -45 0 -32 21 -46 35 -23 3 6 17 10 30 10 25 0 37 -25 70 -142 25
-94 80 -106 150 -33 49 50 81 53 72 6 -3 -14 -8 -43 -12 -63 -10 -48 9 -51 50
-8 29 30 49 37 59 22 3 -5 -4 -48 -15 -97 -21 -100 -24 -147 -9 -176 16 -30
32 -23 64 26 35 57 76 88 143 109 74 24 97 46 170 160 76 117 100 146 124 146
44 0 19 -82 -62 -202 -60 -89 -108 -144 -135 -157 -13 -6 -30 -26 -38 -46 -11
-26 -21 -35 -39 -35 -28 0 -58 -21 -138 -96 -72 -68 -146 -114 -181 -114 -40
0 -50 26 -36 93 7 31 9 59 5 63 -3 4 -20 -5 -37 -20 -73 -61 -96 -5 -45 110
29 65 32 94 9 94 -34 0 -76 -36 -100 -87 -42 -88 -105 -108 -82 -26 5 19 8 37
5 39 -10 11 -40 -12 -68 -52 -19 -27 -35 -41 -44 -38 -26 10 -38 72 -31 159 6
78 5 82 -19 103 -30 27 -33 70 -9 175 29 127 66 181 102 145z m10092 -208 c23
-46 26 -70 6 -70 -17 0 -30 17 -43 55 -21 63 7 74 37 15z"/>
<path d="M10500 11040 c0 -17 -7 -20 -49 -20 -87 0 -233 -55 -328 -123 -41
-29 -45 -30 -82 -17 -33 11 -47 10 -94 -5 -58 -18 -127 -67 -127 -90 0 -8 -18
-35 -40 -60 -54 -63 -56 -109 -5 -154 40 -35 104 -55 146 -46 17 4 40 22 57
43 45 61 41 59 212 97 150 34 278 103 302 164 16 43 39 191 33 212 -8 25 -25
25 -25 -1z"/>
<path d="M1082 9353 c4 -111 9 -141 38 -223 46 -136 62 -165 85 -165 32 0 33
67 1 105 -15 19 -27 48 -31 78 -13 102 -28 169 -57 249 -16 46 -32 83 -35 83
-3 0 -3 -57 -1 -127z"/>
<path d="M1294 527 c-9 -24 6 -44 18 -22 7 11 6 21 -1 28 -7 7 -12 6 -17 -6z"/>
<path d="M10443 5793 c-30 -11 -10 -24 34 -21 58 4 73 28 16 27 -21 0 -44 -3
-50 -6z"/>
<path d="M4935 3783 c-16 -2 -111 -19 -210 -38 -341 -65 -358 -67 -645 -64
l-265 2 3 -64 c4 -81 40 -158 92 -201 63 -50 78 -92 72 -197 -4 -72 -1 -102
16 -157 57 -186 234 -366 375 -381 34 -3 57 -1 61 5 4 6 -12 54 -34 108 -22
53 -43 120 -46 148 -14 115 35 226 131 298 64 49 201 120 284 148 62 21 66 21
103 4 51 -23 68 -14 150 77 84 95 248 300 248 311 0 8 -275 9 -335 1z"/>
<path d="M3081 1736 l-33 -11 4 -67 c6 -73 2 -84 -19 -66 -7 6 -30 11 -51 12
-34 1 -37 3 -35 29 l2 27 -32 -23 c-47 -35 -63 -38 -90 -16 -32 24 -59 24 -81
0 -9 -10 -37 -22 -60 -25 -46 -7 -77 -30 -100 -74 -16 -32 -47 -50 -91 -54
-21 -2 -31 -9 -33 -23 -11 -66 -24 -95 -41 -95 -21 0 -31 19 -31 58 0 15 -4
33 -9 41 -15 23 -23 -6 -16 -58 7 -53 -17 -131 -41 -131 -8 0 -14 5 -14 12 0
23 -27 -15 -69 -95 -43 -81 -51 -126 -27 -146 8 -6 23 -34 35 -61 19 -44 25
-50 51 -50 24 0 29 -5 32 -27 3 -28 3 -28 36 17 18 25 46 64 62 87 22 31 40
45 72 55 39 11 41 12 16 16 -16 2 -28 8 -28 14 0 20 51 98 64 98 27 0 96 -98
96 -138 0 -20 2 -21 21 -11 12 6 48 36 81 66 61 56 81 62 86 25 4 -27 17 -28
49 -2 14 11 43 23 65 26 28 5 38 11 38 25 0 11 -6 19 -14 19 -25 0 -27 18 -7
58 35 68 79 83 66 21 -4 -16 -3 -29 2 -29 24 0 194 333 210 410 5 26 2 30 -15
30 -12 0 -33 15 -49 35 -30 37 -44 40 -102 21z m115 -120 c6 -15 -29 -90 -46
-101 -15 -9 -40 14 -40 37 0 21 51 78 70 78 6 0 13 -6 16 -14z m-364 -137 c-3
-32 -53 -103 -75 -107 -23 -5 -23 35 0 68 46 69 81 87 75 39z m205 1 c-8 -40
-36 -80 -54 -80 -19 0 -12 47 13 85 24 36 48 33 41 -5z m-299 -11 c4 -20 -25
-52 -42 -46 -16 5 -20 36 -5 53 15 18 43 14 47 -7z m9 -145 c8 -22 -10 -49
-32 -49 -10 0 -22 7 -28 16 -15 24 -1 49 28 49 15 0 28 -7 32 -16z m91 -10 c4
-25 -22 -49 -43 -40 -31 12 -9 70 25 64 8 -2 16 -13 18 -24z"/>
<path d="M3491 1709 c-5 -13 -15 -39 -21 -57 -16 -42 -68 -86 -85 -72 -9 8
-10 22 -2 60 11 57 7 66 -21 51 -32 -17 -138 -238 -193 -401 -23 -66 -9 -53
53 55 75 130 120 195 135 195 26 0 10 -54 -61 -213 -64 -144 -81 -193 -51
-150 54 77 273 538 261 550 -3 3 -10 -5 -15 -18z"/>
<path d="M3750 1651 c-36 -10 -80 -24 -97 -32 -29 -12 -34 -11 -46 4 -12 17
-14 16 -37 -9 -24 -25 -24 -26 -3 -15 19 10 26 8 43 -9 24 -24 26 -60 4 -107
-22 -46 -58 -70 -79 -53 -8 7 -15 21 -15 31 0 26 -15 31 -34 10 -23 -25 -86
-152 -86 -173 0 -20 15 -24 25 -8 3 6 15 10 26 10 26 0 24 -19 -7 -126 -35
-116 -47 -181 -40 -210 6 -21 13 -24 50 -24 32 0 54 -8 84 -29 22 -16 43 -34
47 -40 10 -17 33 -13 55 9 11 11 24 20 29 20 16 0 41 -31 41 -50 0 -24 29 -40
74 -40 48 0 66 -21 66 -80 0 -67 35 -172 69 -209 34 -36 46 -38 61 -10 17 30
67 49 104 38 42 -12 47 -27 25 -68 -20 -37 -25 -106 -10 -129 13 -22 44 -10
66 25 20 33 55 44 55 19 0 -8 -24 -61 -54 -118 -64 -121 -80 -176 -71 -235 l6
-43 577 0 c610 0 806 11 859 46 31 20 27 51 -20 144 -33 66 -56 85 -132 107
-19 5 -37 22 -51 47 -12 22 -29 43 -38 48 -9 5 -64 13 -124 18 -59 5 -136 18
-172 29 -102 32 -118 30 -171 -30 -28 -32 -50 -49 -57 -45 -7 4 -12 31 -12 62
0 56 -22 94 -54 94 -35 0 -116 138 -103 174 3 7 25 23 49 35 24 11 54 37 67
56 13 20 32 40 42 46 25 13 62 -4 89 -40 25 -36 40 -39 66 -10 63 70 231 95
379 57 22 -5 48 -17 57 -25 21 -19 53 -15 173 21 133 40 198 44 263 16 44 -19
63 -22 115 -16 186 19 192 19 225 2 18 -9 40 -33 50 -54 16 -33 22 -37 57 -38
22 -1 46 -2 53 -3 7 0 19 -17 27 -35 27 -63 181 -149 270 -150 27 -1 56 -5 63
-9 8 -6 12 -37 12 -98 0 -88 0 -90 28 -100 43 -17 141 -5 199 25 61 30 70 31
94 10 29 -26 63 -10 121 56 29 33 56 60 61 60 4 0 13 -14 18 -30 8 -22 17 -30
35 -30 23 0 24 -3 19 -34 -8 -42 -7 -42 136 -51 94 -6 111 -5 152 13 25 11 48
18 51 14 12 -12 5 -45 -25 -115 -64 -151 -110 -197 -185 -183 -28 6 -38 14
-50 41 -19 47 -27 49 -63 15 -33 -32 -39 -34 -57 -22 -15 9 -44 67 -44 87 0
25 -13 17 -58 -35 -24 -28 -50 -50 -58 -50 -8 0 -32 10 -53 22 l-38 22 -35
-22 c-53 -33 -60 -29 -52 23 8 55 -4 58 -60 15 -22 -17 -47 -30 -55 -30 -32 1
-98 38 -151 87 -30 28 -74 60 -98 72 -59 30 -159 54 -195 47 -42 -9 -58 8 -51
54 7 44 -9 80 -35 80 -10 0 -40 -9 -65 -21 -35 -15 -58 -19 -86 -14 -52 9 -99
-8 -138 -48 -39 -41 -54 -80 -46 -124 8 -44 -6 -55 -61 -48 -25 3 -46 0 -55
-7 -29 -24 -60 -76 -60 -101 0 -13 -9 -36 -20 -50 -30 -38 -25 -45 33 -51 383
-43 2745 -28 2833 17 16 8 68 17 119 19 106 5 148 23 272 117 106 80 111 86
87 113 -34 38 -165 118 -194 118 -16 0 -75 -15 -132 -34 -113 -38 -268 -68
-282 -55 -6 5 -4 48 4 108 12 91 12 102 -4 126 -10 15 -15 32 -13 39 3 7 30
27 61 45 31 17 56 36 56 42 0 14 -104 59 -154 65 -62 9 -72 -6 -80 -118 -9
-119 -20 -159 -52 -192 -47 -47 -90 -33 -128 41 -9 19 -25 33 -38 35 -41 6
-50 41 -42 176 6 120 6 124 -13 114 -36 -20 -102 -100 -134 -164 -59 -116
-137 -228 -161 -228 -17 0 -7 42 22 93 36 65 37 73 5 81 -29 7 -60 53 -76 109
-11 41 -12 42 -38 25 -23 -14 -51 -4 -58 22 -8 32 -36 24 -104 -31 -88 -71
-104 -77 -131 -53 -21 19 -21 19 -14 -1 28 -71 28 -75 12 -100 -26 -39 -74
-33 -67 9 1 5 -1 16 -4 25 -5 13 -9 12 -25 -9 -17 -22 -19 -23 -25 -7 -4 9 -4
32 -1 50 22 118 19 129 -22 82 -37 -42 -72 -31 -86 28 -7 30 -18 34 -36 12
-28 -34 -50 -8 -50 63 0 47 -22 41 -95 -23 -34 -30 -65 -51 -69 -48 -3 3 -6
46 -6 93 0 103 -8 150 -26 157 -30 11 -64 -8 -84 -47 -25 -50 -53 -66 -74 -44
-20 19 -20 13 4 74 28 70 26 90 -5 90 -26 0 -76 20 -107 42 -13 10 -22 9 -41
-1 -42 -22 -60 -11 -96 64 l-33 70 -50 -55 c-28 -30 -64 -79 -80 -108 -32 -56
-57 -76 -82 -66 -20 8 -21 57 -1 74 8 7 20 30 25 52 15 52 -2 103 -39 123 -52
26 -261 77 -274 66 -7 -5 -34 -39 -62 -75 -27 -36 -55 -65 -61 -66 -7 0 -13
34 -16 93 -8 158 -40 192 -176 192 -107 0 -162 -24 -225 -95 -23 -27 -60 -56
-82 -66 -22 -9 -50 -27 -62 -40 -28 -30 -78 -32 -109 -3 -22 20 -22 20 -60 1
-38 -19 -114 -35 -223 -47 -65 -7 -117 -28 -151 -59 -14 -13 -39 -31 -56 -39
-44 -22 -78 -104 -69 -163 8 -53 -7 -84 -40 -84 -38 0 -56 46 -62 159 -3 53
-11 105 -19 117 -7 12 -30 26 -51 31 -27 6 -44 18 -58 42 -11 18 -41 57 -67
87 -55 66 -76 107 -84 168 -4 28 -12 46 -20 46 -7 0 -48 -52 -90 -116 -69
-104 -96 -135 -109 -122 -3 2 4 50 15 107 26 134 26 197 1 211 -11 5 -22 23
-26 40 -6 29 -9 30 -58 29 -29 0 -81 -8 -117 -18z m-115 -637 c47 -18 31 -124
-18 -124 -28 0 -37 16 -37 69 0 50 18 69 55 55z m3008 -195 c12 -20 -12 -74
-33 -74 -19 0 -26 61 -9 81 14 17 28 14 42 -7z m-600 -540 c16 -25 0 -68 -28
-75 -50 -13 -73 38 -34 77 23 23 47 22 62 -2z m1907 -63 c0 -29 -20 -66 -35
-66 -24 0 -29 27 -11 55 18 27 46 34 46 11z m-1850 -115 c0 -22 -19 -41 -42
-41 -24 0 -24 45 -1 58 22 13 43 4 43 -17z"/>
<path d="M2120 1189 c-7 -11 -9 -24 -5 -27 7 -7 35 25 35 40 0 16 -19 8 -30
-13z"/>
<path d="M7768 713 c-7 -25 1 -43 18 -43 11 0 14 8 12 27 -4 31 -23 42 -30 16z"/>
<path d="M1080 42 c0 -24 19 -42 46 -42 31 0 36 12 18 38 -19 27 -64 30 -64 4z"/>
</g>
</svg>
