<?xml version="1.0" encoding="utf-8"?>
<!-- Generator: Adobe Illustrator 23.0.1, SVG Export Plug-In . SVG Version: 6.00 Build 0)  -->
<svg version="1.1" id="Layer_1" xmlns="http://www.w3.org/2000/svg" xmlns:xlink="http://www.w3.org/1999/xlink" x="0px" y="0px"
	 viewBox="0 0 156 156" style="enable-background:new 0 0 156 156;" xml:space="preserve">
<style type="text/css">
	.st0{fill:#222222;stroke:#222222;stroke-miterlimit:10;}
</style>
<path class="st0" d="M25.7,124H117c1.1,0,2.1-0.9,2.1-2.1v-11.8c0-1.1-0.9-2.1-2.1-2.1h-3.6v-7.7c1.4,0,3.1,0.1,5.1,0.1
	c5.3,0,9.1-1.5,11.3-4.3c2.2-2.9,2-6.3,1.7-7.9c1.6-2,2.6-4.3,3.2-6.5c0.5-2,1.1-5.6-1.1-6.9c-0.4-0.3-2-0.9-3.8,0.8
	c-0.7,0.7-1.5,1.3-2.2,1.8c2.1-5.5,0.6-11.1-0.9-13.8c-0.4-0.7-1.2-1.1-2-1s-1.5,0.7-1.7,1.5c-1.4,4.7-5.3,7.6-9.6,9.4V48.6h1.2
	c1.1,0,2.1-0.9,2.1-2.1V34.1c0-1.1-0.9-2.1-2.1-2.1H72.3c-1.1,0-2.1,0.9-2.1,2.1v12.4c0,1.1,0.9,2.1,2.1,2.1h1.2v9.1
	c0,0.9-0.1,1.7-0.2,2.6c0,0.1,0,0.2,0,0.3c-1.2,6.6-6.1,11.9-12.6,13.4l0,0c0,0,0,0-0.1,0c-1.3,0.3-2.6,0.5-3.9,0.5h-7.5
	c-11,0-20,9-20,20V108h-3.6c-1.1,0-2.1,0.9-2.1,2.1v11.8C23.7,123.1,24.6,124,25.7,124z M124.6,70.2c0.3,2.8-0.2,6.6-3.6,10
	c-0.6,0.6-0.8,1.6-0.4,2.4s1.3,1.2,2.1,1.1c0.2,0,4.3-0.6,8.2-3.6c-0.3,1.5-1.1,3.4-2.3,5.1c-1.9,2.7-4.4,4-7.4,4
	c-1.1,0-2.1,0.9-2.1,2.1c0,1.1,0.9,2.1,2.1,2.1c2.4,0,4.4-0.6,6.2-1.6c-0.2,0.6-0.4,1.2-0.8,1.8c-1.4,1.8-4,2.7-8,2.7
	c-3.5,0-5.8-0.1-7.4-0.2c1.3-2,2.1-4.4,2.1-7c0-0.1,0-0.3,0-0.4s0-0.3,0-0.4c0-3.3-2.7-6-6-6s-6,2.7-6,6c0,1.1,0.9,2.1,2.1,2.1
	s2.1-0.9,2.1-2.1c0-1,0.8-1.8,1.8-1.8s1.8,0.8,1.8,1.8c0,0.1,0,0.3,0,0.4s0,0.3,0,0.4c0,4.8-3.9,8.8-8.8,8.8s-8.8-3.9-8.8-8.8
	s3.9-8.8,8.8-8.8C101.2,80.4,117.5,79.9,124.6,70.2z M74.5,36.2h38.1v8.3h-1.2H75.7h-1.2V36.2L74.5,36.2z M33.5,94.5
	c0-8,6-14.7,13.8-15.7v4.1c0,1.1,0.9,2.1,2.1,2.1s2.1-0.9,2.1-2.1v-4.3h5.4c0.9,0,1.8-0.1,2.7-0.2l0.8,4.2c0.2,1,1.1,1.7,2,1.7
	c0.1,0,0.3,0,0.4,0c1.1-0.2,1.9-1.3,1.6-2.4l-0.8-4.4c2.9-1,5.5-2.6,7.7-4.6l1.9,3.1c0.4,0.6,1.1,1,1.8,1c0.4,0,0.7-0.1,1.1-0.3
	c1-0.6,1.3-1.9,0.7-2.8l-2.6-4.2c1.4-2,2.4-4.3,3.1-6.8h4.6c1.1,0,2.1-0.9,2.1-2.1s-0.9-2.1-2.1-2.1h-4c0-0.3,0.1-0.7,0.1-1v-9.1
	h31.6v26.2c-4.8,1.3-8.9,1.4-9,1.4c-7.1,0-12.9,5.8-12.9,12.9s5.8,12.9,12.9,12.9c2.6,0,5.1-0.8,7.2-2.2c0.5,0.1,1.1,0.2,1.8,0.3
	v7.9H33.7V94.5H33.5z M27.8,112.2h3.6h80h3.6v7.7H27.8V112.2z"/>
</svg>
