<?xml version='1.0' encoding='utf-8'?>
<svg xmlns="http://www.w3.org/2000/svg" width="8.5in" height="11in" version="1.1" style="shape-rendering:geometricPrecision; text-rendering:geometricPrecision; image-rendering:optimizeQuality; fill-rule:evenodd; clip-rule:evenodd" viewBox="0 0 8500 11000"> <defs> <style type="text/css">  .fil0 {fill:black}  </style> </defs> <g id="Layer_x0020_1"> <metadata id="CorelCorpID_0Corel-Layer"/> <path class="fil0" d="M2839 6011c-3,11 -20,49 -31,57 2,-19 14,-46 31,-57zm5032 -3171c1,0 2,1 3,2 1,1 1,1 2,2 1,1 1,2 2,3 0,1 0,2 0,3 0,1 -1,4 -2,6 -4,8 -10,15 -16,22 3,-3 -14,6 -19,9 -9,4 -18,8 -27,11 -6,2 -12,5 -18,7 -5,2 -10,4 -15,6l-5 1 -5 1 0 0 -5 1 -5 1 -1 0 -1 0 -4 1 0 0c-3,1 -6,2 -10,2l0 0c-3,1 -6,1 -9,2l0 0 -2 1 -1 0 -3 1 -1 0 -2 1 -1 0 -3 1 0 0 -3 1 -1 0 -2 0 -8 2 -4 1 0 0 -4 1 0 0 -4 1 0 0 -4 1 0 0 -4 1 -1 0 -4 1 -4 1 0 0 -1 0 -3 1 -1 0 -4 1 -2 1 -2 1 -2 1 -1 0 -3 1 -1 0 -2 1 -3 1 -1 0 -3 1 -1 0 -3 1 -1 0 -4 1 -1 0 -4 1 0 0 -4 2 0 0 -4 2 0 0 -4 1 -1 0 -4 1 -1 0 -3 1 -1 0 -3 1 0 0 -3 1 -1 0 -2 1 -2 1 -2 1 -2 1 -2 1 -2 1 -3 1 -2 1 -3 1 -1 1 -3 1 -1 0 -4 2 -1 0 -4 2 0 0 -4 2 0 0 -4 2 0 0 -4 2 0 0 -4 2 -1 0 -4 2 -1 0 -3 2 -1 1 -3 1 -2 1 -3 1 -5 2 -2 1 -2 1 -3 1 -2 1 -3 1 -2 1 -3 2 -1 1 -4 2 -1 0 -4 2 -1 0 -5 2 0 0 -5 2c-58,27 -221,115 -269,150 -114,83 -225,201 -335,294 -38,32 -70,72 -107,103 -61,52 -422,299 -495,342 -87,51 -177,105 -264,155 -87,49 -198,84 -291,128 -49,23 -89,47 -141,68 -153,62 -311,107 -467,161 -52,18 -107,34 -161,49 -28,8 -55,21 -79,27 -26,7 -45,-10 -73,-6 -75,10 -35,35 -181,15 -128,-18 -254,-15 -381,-38 -114,-20 -338,-9 -490,-34 -36,-6 -65,-3 -100,-4 -71,-3 -113,-36 -171,-39 -27,-2 -169,11 -189,21 -18,8 -41,45 -43,62 -4,39 0,53 27,78 21,19 60,11 82,-4 69,-43 39,-56 39,-109 153,0 75,11 179,35 77,18 399,44 493,43 41,0 151,13 191,23 32,8 62,10 94,15 30,4 66,4 97,8 34,5 68,5 102,7 62,5 129,29 194,15 15,-3 28,-7 43,-9 20,-3 33,0 53,-4 32,-6 54,-20 85,-24 0,84 67,41 39,217 -4,27 -27,59 -24,65 11,29 82,-38 102,-53 13,-10 9,-20 23,-38 21,28 54,45 61,80 5,25 31,73 45,96 -25,31 -36,69 -61,101 -13,16 -63,81 -67,96 12,20 8,21 35,22 43,1 71,-18 153,-18 0,120 8,146 -82,223 -22,19 -69,62 -46,92 20,27 106,16 141,16 0,49 -31,229 -57,265 -32,44 -159,55 -98,113 25,24 9,26 55,28 1,32 -21,88 -33,118 -17,40 -87,83 -128,99 -14,5 -47,14 -57,22 -39,28 16,84 13,117l-197 183c-91,77 -204,106 -204,180 41,27 31,5 74,4 -12,18 -126,93 -152,105 -162,77 -129,34 -271,73 -22,6 -44,16 -65,23 -32,-23 -32,-15 -86,-8 -48,6 -99,9 -150,8 -29,-1 -135,-18 -148,-13l-17 14c-1,70 73,58 121,92 -15,9 -38,9 -55,13 -120,29 -96,7 -190,-9 -28,-5 -164,-38 -185,-27 -27,15 -10,30 -1,46 -106,11 -190,-17 -289,-37 -33,-7 -57,-29 -76,4 4,28 31,31 51,46 -160,18 -411,-94 -821,9 -122,31 -189,89 -287,163 -40,30 -85,67 -124,99 -40,33 -77,80 -102,125 -14,24 -57,135 -62,161 -34,195 17,198 95,335 28,49 75,75 121,106 104,70 236,96 351,38 88,-45 151,-79 153,-183 1,-41 3,-70 -47,-64 -40,39 30,137 -115,139 -45,0 -59,-4 -77,-50 -13,-34 -16,-74 5,-106 41,-60 73,-102 150,-103 91,0 128,-8 185,73 37,52 43,156 29,215 -7,30 -29,54 -45,81 -42,69 -151,127 -222,162 -69,34 -140,41 -217,41 -88,0 -133,20 -212,-33 -34,-23 -49,-27 -87,-39 -25,-8 -50,-42 -72,-59 -97,-80 -168,-197 -188,-322 -20,-121 -20,-339 49,-445 58,-90 66,-156 170,-210 31,-16 69,-28 59,-68 -23,-35 -110,8 -163,15 -90,13 -146,70 -216,98 -26,11 -48,17 -74,31 -15,8 -128,72 -132,73 -24,-25 -9,-85 6,-112 27,-49 111,-102 163,-116 36,-9 74,-17 104,-40 55,-41 105,-104 106,-174 1,-110 -116,-101 -179,-105 -72,-4 -51,-3 -124,7 -130,16 -291,94 -410,153 -31,16 -64,38 -94,50 -107,44 -102,59 -171,113 0,-54 -5,-56 17,-105 12,-28 30,-53 52,-75 52,-51 76,-74 140,-113 145,-87 123,-122 324,-182 65,-19 128,-29 194,-55 114,-45 331,-54 445,-13 59,21 114,50 158,95 95,95 246,125 376,125 29,0 90,3 77,-46 -15,-60 -92,14 -302,-69 -91,-36 -78,-54 -146,-103 -115,-83 -271,-104 -410,-96 -89,5 -61,-1 -177,-67 47,-55 174,-63 241,-54 49,7 76,28 124,29 47,1 68,54 111,28 51,-51 -194,-137 -262,-222 -52,-64 -80,-172 -120,-251 -15,-29 -32,-52 -42,-84 -20,-61 -23,-161 -23,-225 0,-112 5,-110 38,-211 12,-37 65,-129 92,-157 36,-38 130,-83 180,-64 -7,9 -37,23 -53,38 -16,15 -30,30 -46,46 -34,34 -58,70 -71,116 -21,71 -25,282 -13,354 25,140 66,140 134,237 27,39 50,71 80,108 24,29 59,95 102,79 29,-32 -4,-47 -24,-70 -26,-30 -97,-104 -88,-142 6,-27 18,-61 38,-80 21,-20 73,-23 89,1 10,16 4,111 54,181 12,16 68,83 78,34 0,0 -18,-130 -7,-186 6,-28 65,-112 84,-138 31,-41 72,-78 110,-113 44,-40 124,-38 184,-38 -51,40 -90,33 -158,112 -65,76 -63,97 -78,192 -36,225 -37,239 54,450 36,85 55,94 130,140 50,31 98,82 154,116 59,37 103,72 170,101 32,14 70,21 103,32 54,18 68,-10 114,26 34,27 174,51 214,38 29,-10 92,1 128,1 82,0 163,-19 245,-26 61,-5 56,2 116,-19 69,-24 139,-41 209,-66 117,-43 265,-100 362,-179 40,-33 110,-95 151,-119 62,-36 101,-37 173,-29 27,3 33,2 40,-24 -27,-47 -145,-12 -188,-8 3,-10 44,-98 65,-109 85,-46 124,-9 146,-24 34,-24 -14,-84 -136,-19 4,-29 12,-40 12,-74 0,-53 56,-84 77,-106 24,-24 42,-7 66,-26 5,-46 -51,-31 -75,-18 -19,11 -40,38 -64,54 0,-21 5,-49 -5,-65 19,-15 66,-70 77,-86 12,-18 19,-34 34,-49 43,-43 33,-74 9,-70 -16,2 -16,12 -21,23l-71 95c-21,21 -19,34 -32,51 -1,-16 -11,-42 -16,-59 -23,-80 -40,-39 36,-135 62,-79 41,-12 72,-64 -2,-3 -7,-35 -45,-23 -39,12 -92,92 -105,127 -21,-30 -21,-27 -10,-59 31,-98 -10,-24 53,-130 19,-32 39,-28 36,-58 -36,-31 -64,26 -82,51 -32,45 -32,69 -36,121 -13,-4 -48,-58 -49,-62 -4,-15 6,-85 9,-105 33,-194 40,-102 81,-155 -9,-14 -9,-19 -28,-15 -68,15 -73,91 -82,158 -11,76 -2,60 -5,88 -11,-7 -14,-14 -28,-23 -44,-29 -19,-51 -19,-142 0,-29 9,-67 14,-95 7,-37 42,-54 23,-76 -20,-7 -34,21 -43,38 -35,69 -19,225 -21,237 -26,-22 -34,-23 -42,-57 -9,-38 -33,-196 -11,-231 33,-53 -9,-58 -36,-9 -13,24 -7,57 -7,85 0,18 1,24 3,40 2,15 0,27 2,42 2,20 9,57 17,75 -16,-1 -78,-22 -86,-32 -31,-40 -12,-228 15,-257 20,-21 21,-10 14,-38 -96,0 -74,226 -74,275 -21,-5 -66,-29 -82,-45 -7,-15 4,-178 31,-216 31,-43 42,-31 43,-45 -4,-11 8,-5 -10,-11 -26,-8 -63,55 -72,91l-19 125c0,21 5,22 4,43 -82,-14 -42,-160 -21,-213 12,-31 25,-38 18,-70 -44,8 -38,14 -55,50 -14,30 -25,42 -32,77 -30,137 -13,177 73,219 83,41 30,46 211,116 34,13 92,66 122,91 28,23 73,89 93,121 76,125 91,186 83,335 -4,74 -25,97 -56,159 -21,42 -49,100 -84,130 -202,170 -322,215 -573,291 -72,22 -94,36 -173,41 -65,4 -131,18 -195,23 -59,5 -147,2 -205,-7 -114,-17 -60,18 -184,-31 -32,-13 -49,-7 -80,-8 -56,-2 -183,-67 -229,-97 -42,-27 -84,-59 -124,-90 -20,-15 -39,-32 -58,-47 -98,-74 -75,-15 -145,-178 -18,-42 -52,-120 -51,-163 2,-62 12,-132 20,-194 9,-71 11,-101 52,-162 87,-131 165,-99 165,-156 0,-63 -72,-47 -107,-43 -135,14 -114,35 -182,88 -70,54 -97,114 -141,182 -45,71 -23,108 -23,187 -52,-37 -28,-164 -84,-195 -33,-18 -82,-15 -111,9 -29,24 -39,65 -46,99 -59,-78 -117,-122 -125,-231 -6,-76 -8,-278 23,-339 24,-48 82,-115 131,-139 54,-26 50,-124 -102,-93 -94,19 -152,84 -194,168 -11,23 -24,35 -32,60 -8,25 -12,43 -23,68 -34,77 -25,249 -14,333 8,60 12,84 42,137 63,111 83,226 150,303 14,16 35,26 47,43 -8,5 -20,6 -29,11 -41,18 22,15 -99,24 -53,4 -196,85 -204,97 -37,55 67,45 124,93 -26,21 -238,74 -284,87 -47,13 -88,34 -132,55 -50,25 -69,45 -110,77 -130,100 -346,182 -319,423 5,41 22,110 74,108 35,-2 52,-70 87,-100 48,-42 177,-106 238,-137 101,-52 153,-77 264,-112 52,-16 100,-28 154,-33 37,-4 139,-7 164,23 10,60 -28,90 -69,128 -45,42 -142,21 -267,144 -18,18 -26,41 -38,62 -31,54 -4,133 0,179 3,37 35,43 64,30 17,-8 76,-49 129,-76 22,-11 45,-25 66,-34 86,-34 155,-91 207,-103 -46,53 -60,108 -97,165 -43,65 -49,132 -55,207 -7,84 -1,169 8,252 13,118 101,261 194,334 74,58 44,52 146,116 42,26 11,31 76,54 55,20 -9,23 107,24 78,0 172,7 247,-10 111,-25 263,-99 329,-194 37,-52 69,-129 69,-193 1,-73 -10,-152 -56,-210 -44,-56 -93,-96 -167,-95 -83,1 -153,-14 -211,55 -47,56 -93,91 -90,172 4,117 76,140 101,166 -70,19 -141,9 -206,-21 -32,-14 -126,-73 -145,-99 -15,-21 -33,-55 -50,-72 -33,-34 -36,-18 -49,-73 -15,-59 -16,-153 11,-209 26,-54 45,-113 85,-159 40,-46 212,-181 271,-218 68,-44 83,-59 164,-80 144,-38 298,-52 447,-40 75,6 145,17 218,26 41,5 77,1 117,5 61,6 158,27 216,29 40,1 77,4 118,4 40,1 75,-6 114,-8 41,-2 77,0 119,-3 75,-7 247,-24 319,-48 27,-9 71,-22 99,-23 -9,21 -22,29 -30,53 -11,34 -3,47 -1,78 3,65 12,77 42,132 21,38 37,76 60,114 17,29 53,93 92,69 15,-16 -2,-32 -2,-93 1,-152 31,-299 115,-430 20,-31 104,-63 140,-79 45,-20 97,-52 138,-80 34,-23 218,-167 243,-193 31,-32 72,-58 98,-94 12,-16 1,-10 16,-14 0,47 19,153 34,197 25,74 128,215 180,287 41,56 39,89 110,125 79,40 154,9 100,-61 -46,-61 -65,-79 -84,-151 -4,-15 -7,-30 -11,-45 -5,-16 -11,-29 -16,-45 -13,-51 -16,-107 -17,-158 0,-25 3,-36 4,-57 1,-18 0,-38 0,-57 0,-23 5,-32 5,-57 11,12 18,51 27,73 13,30 20,41 37,67 59,88 126,156 235,180 34,8 51,16 89,16 36,0 66,1 99,-6 32,-7 134,-42 100,-93 -22,-33 -138,-25 -240,-175 -59,-87 -102,-186 -127,-287 -16,-62 -11,-125 -19,-190 -17,-136 -11,-260 -10,-396 0,-63 -17,-107 -42,-163 -10,-23 -15,-58 -21,-83 -16,-66 -49,-89 -59,-150 -5,-28 -11,-57 -22,-83 -12,-27 -19,-49 -28,-76 -9,-27 -23,-44 -32,-72 67,35 127,43 200,53 70,10 143,39 210,43 39,2 83,1 122,5 57,6 157,54 319,65 48,3 141,43 190,63 69,28 121,25 190,63 28,15 58,35 91,36 34,1 80,2 87,-40 22,-122 -162,-216 -260,-241 -128,-32 -256,-53 -354,-152 -65,-66 -143,-116 -184,-200 -53,-107 11,-180 -37,-208 -25,-15 -59,16 -85,29l-102 25c-73,16 -283,31 -326,-30 13,-15 145,-49 175,-60 116,-43 226,-97 337,-152 28,-14 58,-24 88,-34 88,-32 160,-81 244,-127l155 -89c99,-64 197,-132 293,-200 46,-33 104,-64 146,-98 23,-18 47,-34 67,-55 100,-104 211,-202 321,-295 46,-39 84,-76 135,-109 52,-34 105,-55 157,-88 137,-87 334,-105 439,-210 7,-8 11,-22 15,-32 1,-2 2,-4 2,-6 2,-5 3,-10 3,-16 0,-6 -1,-10 -3,-15 -2,-5 -4,-8 -8,-12 -17,-17 -104,-37 -125,-36 -1,0 -2,0 -3,0 -86,5 -156,31 -241,50 -89,20 -282,82 -368,125 -126,63 -190,69 -337,161 -65,41 -150,77 -222,105 -102,40 -147,68 -263,69l-151 -6c-34,-6 -95,-46 -123,-23 -27,21 -28,97 -145,186 -52,39 -174,79 -239,89 -104,16 -210,16 -315,7 -94,-8 -192,-26 -283,-48 -66,-16 -70,-27 -126,16 -31,25 -66,45 -97,69 -81,62 -136,70 -229,98 -54,17 -74,32 -134,31 -105,-1 -180,-5 -277,-55 -40,-21 -60,-47 -93,-73 -34,-26 -59,-49 -77,-89 -10,-23 -26,-112 -56,-103 -24,14 -10,70 -14,95 -6,39 -10,57 -21,93 -15,51 -46,108 -79,148 -67,78 -167,160 -269,180 -12,-13 -27,-54 -44,-74 -51,-60 -117,-103 -196,-101 -30,1 -25,9 -47,13 -30,-40 -46,-83 -106,-83 -62,1 -79,45 -103,87 -31,-41 -60,-86 -109,-110 -23,-11 -70,-19 -93,-7 -22,11 -35,42 -49,60l-6 -13c-3,-6 -6,-12 -8,-18 -34,-68 -166,-124 -145,-203 8,-30 29,-13 26,-75 -2,-38 -9,-43 -9,-96 0,-134 21,-203 90,-320 11,-18 26,-45 40,-61 97,-117 100,-113 231,-179 40,-20 54,-34 71,-29 -98,48 -123,159 -158,252 -23,62 -46,207 -22,272 9,23 17,54 25,79 23,69 36,73 91,114 59,43 75,54 150,59 91,6 182,11 263,-38 11,-7 44,-47 46,-56 -19,-21 -124,-20 -157,-23 -54,-4 -83,27 -144,-17 -30,-22 -73,-59 -85,-94 -13,-38 -17,-126 1,-159 6,54 26,97 68,129 30,23 16,11 46,11 23,57 39,61 88,82 24,10 15,12 43,5 11,-47 -22,-51 -13,-122 3,-20 38,-78 49,-99 40,-74 86,-130 178,-106 50,13 32,21 112,32 46,6 94,5 138,-5 126,-28 134,27 235,51 -10,16 -17,12 -29,32 -28,48 -54,74 -54,134 0,65 23,91 85,103 18,4 35,15 49,5 18,-14 6,-26 0,-41 -34,-93 82,-177 132,-181 51,-3 54,23 97,30 28,5 95,6 117,-8 36,-23 73,-122 -54,-139 -54,-7 -50,6 -105,-21l-159 -94c-23,-19 -40,-43 -70,-57 -32,-15 -71,-14 -106,-22 66,-45 118,-60 204,-46 33,5 137,72 167,95 50,38 99,91 162,100 39,5 87,8 126,5 34,-3 78,-28 104,-29 22,15 30,34 64,40 64,13 112,-5 140,-67 17,-37 0,-71 6,-95 31,-8 39,0 71,-20 23,-14 44,-26 68,-37 56,-25 28,-119 -29,-125 -72,-7 -86,54 -161,17 -47,-23 -36,17 -69,-18 -35,-38 -41,-18 -79,-26 -14,-20 1,-39 -24,-64 -28,-28 -39,-11 -66,-21 -10,-31 1,-48 -32,-77 -25,-22 -60,-13 -89,-12 1,-108 -41,-79 -46,-100 3,-15 17,-31 23,-53 17,-67 12,-135 -22,-195 -48,-84 -87,-103 -155,-163 -34,-30 -155,-97 -201,-113 -113,-41 -86,-34 -197,-38 -28,-1 -49,-5 -78,-5 -264,6 -351,-96 -581,-381 -14,-28 -21,-50 -23,-82 -1,-37 8,-63 23,-96 30,-57 65,-95 117,-133 53,-37 101,-61 164,-77 34,-9 60,-18 89,-38 17,-13 28,-24 40,-42 2,-4 3,-8 3,-12 -1,-5 -2,-8 -5,-11 -3,-3 -7,-5 -11,-6 -5,-1 -8,0 -12,2 -44,25 -127,41 -177,49 -78,13 -102,34 -168,52 -46,12 -79,29 -116,58 -36,30 -60,58 -84,98 -34,60 -50,111 -55,179 -2,26 -1,48 1,74 -3,15 56,129 66,149 7,14 15,28 23,42l1 1 0 0 0 1 0 1 0 0 1 1 0 0 1 1 0 0 1 1 0 1 0 1 1 1 0 0 1 1 0 0 1 1 0 0 0 1 1 1 0 0 1 1 0 0 1 1 0 0 0 1 0 1 0 0 1 1 0 0 1 1 0 0 1 1 0 1 0 1 1 1 0 0 1 1 0 0 1 2 1 1 0 0 1 1 0 0 1 1 0 0 1 1 1 1 0 0 1 1 0 0 1 1 0 0 1 1 0 1 0 1 1 1 0 0 1 1 0 0 1 1 2 3 1 1 0 0 1 1 1 1 1 1 0 0 1 1 0 0 1 1 0 0 1 1 1 1 1 1 0 0 2 3 0 1 0 1 1 1 0 0 1 1 0 0 1 1 0 0 1 1 1 1 0 0 1 1 0 0 1 1 1 1 0 0 1 1 0 0 1 1 0 0 1 1 0 0 1 1 0 1 0 1 1 1 0 0c-20,-9 -25,-17 -43,-29 -61,-42 -33,4 -186,-128 -31,-27 -175,-195 -183,-214 -17,-38 -22,-97 -19,-139 2,-28 44,-72 58,-103 62,-131 -65,-55 -98,-184l-25 -132c-10,-65 31,-257 -100,-207 -109,41 -106,97 -103,201 5,172 -54,207 -42,259 8,33 31,-3 57,100 16,65 25,113 68,167 87,110 78,116 129,259 8,20 31,50 37,72 -30,-15 -67,-51 -91,-75 -26,-27 -60,-53 -87,-78 -89,-83 -123,-75 -231,-105 -39,-11 -101,-24 -142,-24l-162 -8c-26,-6 -130,-18 -133,21 -2,37 80,44 110,58 38,18 72,36 109,57 45,25 165,62 227,105 68,47 114,122 140,196 56,162 247,184 284,219 -16,13 -54,5 -74,3 -32,-4 -51,3 -82,3 -46,0 -113,-7 -154,-20 -84,-26 -160,-70 -230,-119 -19,-13 -35,-22 -53,-34 -42,-27 -62,-60 -120,-43 -34,10 -72,50 -29,105 51,65 35,88 114,147 -2,18 -8,15 -14,32 -32,105 101,160 185,169 -10,12 -25,17 -29,39 -14,66 69,86 117,92 -54,41 -94,16 -164,101 -32,40 -82,124 -98,173 -10,29 -59,112 -84,186 -24,72 -41,136 -62,208 -24,81 -27,149 -44,226 -22,99 -36,128 -36,235 0,77 -11,157 20,232 23,54 102,221 158,247 41,20 29,64 24,107 -8,81 -3,184 -2,268 0,41 -5,84 14,121 24,46 59,26 71,65 27,95 48,205 148,258 53,28 54,-7 71,64 21,85 42,117 79,192 54,110 149,152 269,131 49,-9 55,-15 95,-41 16,54 74,135 117,176 24,23 43,26 61,39 5,36 5,47 17,83 12,35 21,43 12,82 -6,26 -47,121 -61,144 -24,38 -67,75 -102,103 -49,40 -84,61 -152,52 -10,-14 -3,-16 -15,-29 -23,-27 -44,-51 -76,-68 -49,-26 -61,-64 -128,-64 -80,-1 -223,48 -262,122 -42,80 -58,272 88,232 43,-12 111,-98 159,-129 36,-24 25,-24 72,-24 -11,16 -51,40 -67,56 -64,64 -100,192 -65,280 30,76 82,87 158,79 62,-7 110,-21 127,-87 0,-2 3,-14 3,-14 0,-1 1,-2 1,-3l4 -9c0,91 5,143 94,176 30,11 35,23 72,12 52,-15 55,-63 76,-103 34,-64 162,-129 233,-130 81,-1 87,51 135,48 66,-3 47,-72 62,-122 9,-29 8,-50 12,-79 3,-25 11,-49 18,-74 11,-40 19,-111 37,-142 13,-23 61,-87 82,-101 34,-23 58,26 125,-54 35,-42 16,-98 -3,-144 -24,-58 -27,-78 -42,-137 -39,-154 -101,-115 -73,-277 13,-78 62,-86 66,-117 -96,0 -116,145 -109,218 3,40 60,101 73,150 3,14 6,28 10,43 4,18 5,31 8,48 12,51 58,121 49,173 -5,24 -45,42 -69,39 -38,-4 -46,-4 -76,25 -28,28 -82,94 -94,128 -20,57 -27,121 -44,179l-31 192c-16,-4 -13,-10 -29,-19 -9,-5 -25,-13 -35,-17 -71,-30 -181,7 -244,42 -40,22 -81,64 -103,102 -13,23 -24,96 -65,80 -4,-2 -10,-6 -18,-9 -5,-2 -14,-4 -20,-6 -56,-21 -66,-98 -56,-147 0,-1 30,-65 32,-68 10,-16 40,-36 57,-48 47,-33 72,-25 124,-29l149 -4c31,0 81,12 67,-32 -48,-16 -184,0 -206,-3 -19,-2 -42,-10 -65,-14 -57,-8 -71,-17 -126,11 -32,16 -67,38 -89,68 -70,94 -1,188 -117,189 -50,0 -85,6 -105,-49 -42,-120 54,-246 166,-278 53,-15 86,-11 139,-14 85,-4 227,-132 262,-201 16,-33 33,-72 46,-107 28,-73 12,-71 4,-128l59 -1c0,109 2,142 -28,247 -12,42 -76,93 -62,139 5,16 19,32 34,38 21,-12 41,-62 56,-84 42,-59 64,-136 70,-210 3,-43 -9,-201 -9,-275 0,-32 5,-97 -28,-116 -18,-10 -37,-6 -48,9 -22,30 22,129 -24,181 -24,-1 -27,-1 -41,-16 -19,-20 -18,-12 -21,-41 -6,-75 -5,-155 -4,-232 0,-43 27,-65 10,-97 -56,-19 -58,87 -58,124l4 187c-42,-7 -32,-68 -37,-101 -6,-40 -15,-83 -19,-121 -6,-60 -17,-135 -5,-197 3,-14 14,-48 11,-58 -64,-52 -54,152 -54,180 0,29 8,81 14,109 7,34 13,71 22,105 -53,-35 -87,-192 -87,-253 0,-52 -6,-103 -16,-154 -7,-36 -3,-115 -45,-125 -26,25 -13,84 -9,118l10 134c0,35 4,63 4,96 -44,-54 -111,-222 -114,-292 -2,-67 -3,-127 13,-192 10,-39 76,-120 61,-135 -30,-15 -51,29 -60,53 -15,36 -30,48 -38,88 -16,85 -23,131 -8,226 16,102 65,173 115,256 23,38 116,102 -52,100 -1,-55 -30,-88 -43,-132 -17,-62 10,-35 -42,-137 -45,-87 -46,-122 -47,-220 0,-65 13,-57 -5,-78 -37,7 -26,116 -26,152 1,62 40,146 69,202 15,28 11,44 17,75 10,49 45,87 46,138l-58 -1c-36,-43 -54,-152 -68,-204 -14,-54 -15,-36 -27,-108 -13,-76 -42,-227 -42,-297l-1 -61c0,-47 3,-81 10,-125 3,-20 1,-39 12,-58 53,-92 -29,-77 -46,2 -3,13 -4,42 -6,59 -7,46 -5,154 -1,197 5,41 6,86 15,125 16,73 30,178 44,231l63 209c-29,-6 -46,-44 -58,-70 -15,-30 -32,-56 -47,-84 -23,-45 -49,-137 -54,-142 -8,-9 -32,-21 -40,-29 28,-36 -5,-114 -5,-214l0 -183c1,-11 31,-87 44,-144 8,-36 7,-68 17,-105l47 -136c12,-31 7,-25 -7,-46 -35,0 -37,2 -56,66 -9,30 -22,64 -32,94 -21,65 -11,134 -43,210 -22,53 -17,45 -17,105 0,104 -5,137 13,240 6,37 22,66 22,105 -32,-15 -43,-24 -66,-52 -12,-15 -21,-18 -18,-36 22,-131 -18,-329 26,-515l51 -133c10,-18 12,-30 -2,-45 -47,-23 -63,85 -76,112 -37,82 -47,213 -42,307 3,60 17,181 17,236 -23,-34 -29,-128 -50,-155 -17,-22 -48,-5 -62,-43 -11,-30 -6,-261 -6,-304 0,-46 19,-155 -7,-194 -49,-13 -41,6 -76,-46 -17,-25 -29,-55 -45,-77 -30,-41 -65,-127 -72,-177 -6,-53 -11,-185 -2,-236 12,-73 33,-132 42,-207 15,-118 62,-277 104,-389 68,-184 114,-141 189,-178 28,-14 60,-28 90,-36 -4,15 -8,20 -11,37 -16,91 -3,73 28,114 -60,59 -48,61 -59,142 -10,77 22,101 90,109 -24,31 -24,100 -22,143 2,53 39,66 73,93 8,68 -6,71 22,139 13,32 19,23 4,59 -19,44 -20,28 -25,58 -8,51 -10,99 -9,153 1,26 9,46 9,74 0,25 3,52 5,78 12,11 22,25 34,31 11,-6 14,-2 24,-37 10,-34 -2,-156 11,-168 11,-6 53,-11 69,-9 25,4 110,94 121,119 37,78 30,247 89,230 45,-13 8,-137 25,-185 3,-8 22,-38 29,-45 49,-5 103,67 123,107 26,53 34,110 53,122 15,10 30,3 39,-11 13,-25 -20,-190 64,-189 43,0 98,107 100,158 2,41 -19,129 35,136 31,-23 17,-62 17,-101 0,-44 -4,-81 -4,-127 27,-2 32,-4 68,10 59,24 124,94 127,132l-237 108c-181,94 -76,42 -259,86 -49,12 -81,13 -106,64 -36,71 18,108 49,75 15,-15 7,-43 31,-56 30,-16 167,-27 214,-48 79,-36 149,-79 228,-117 76,-36 168,-65 239,-106 63,-35 144,-101 184,-160 43,-63 74,-137 95,-211l8 -34c12,18 15,36 31,57 10,12 122,116 140,126 112,60 166,70 288,70 62,0 95,1 153,-22 82,-33 146,-29 257,-101l105 -73c-4,41 -98,134 -139,135 -117,5 -89,-5 -171,103 -49,-29 -73,1 -120,15 -17,5 -48,8 -68,11 -25,4 -49,-4 -64,19 33,50 206,-17 227,-17 -15,24 -22,27 -50,38 -87,34 -123,8 -196,22 -20,4 -20,1 -29,19 10,20 12,16 33,19 19,3 29,3 49,3 35,0 70,0 105,0 -28,43 -57,74 -109,74 -39,0 -150,-11 -170,17 4,16 9,15 26,18 14,2 26,4 40,8 33,8 53,3 86,6 -37,26 -15,17 -61,16 -31,-1 -77,7 -127,5 -25,-1 -105,-18 -105,22 10,35 109,37 144,40 -8,13 -4,13 -21,17 -6,2 -27,5 -30,5 -31,-4 -23,-11 -62,3 -42,16 -103,-25 -127,4 12,16 34,21 49,31l-141 30c-70,9 -162,21 -234,0 -21,-6 -55,-9 -64,16 -20,50 69,64 102,68 41,5 125,8 165,2 51,-8 98,-19 148,-26 159,-23 364,-99 499,-187 70,-45 133,-97 200,-145 116,-84 199,-223 242,-360l18 -56c2,-9 0,-5 3,-10l66 22c26,7 44,13 73,19 26,5 51,9 78,13 115,19 224,20 342,21 37,0 52,-6 83,-9 0,70 -85,90 -143,82 -34,-5 -71,-4 -105,-9 -23,-3 -75,-17 -84,14 5,18 21,20 37,24 17,4 31,11 47,15 20,4 32,7 50,12 23,6 38,-4 50,11 -53,0 -106,11 -157,13 -14,1 -43,3 -44,18 12,43 183,20 222,23 -9,57 -35,40 -70,35 -20,-3 -36,-2 -56,-5 -33,-5 -66,-4 -95,13 -7,-38 -15,-57 -57,-57 -51,0 -53,-1 -92,26 -44,31 -91,105 -40,150 43,38 134,7 165,-34 24,-32 24,-45 72,-46 35,-1 67,14 105,13 -3,12 -58,50 -72,59 -15,9 -33,10 -49,17 -29,12 -18,12 -54,11 -46,0 -83,4 -127,4 -35,0 -91,-5 -109,22 18,14 86,18 114,22 46,7 90,0 135,5 -9,11 -16,14 -27,29 -40,-28 -32,-1 -69,5 -32,5 -58,4 -89,11 -18,4 -71,6 -93,7 -15,1 -79,-1 -79,22 8,29 91,24 120,29 49,7 91,-7 142,-7 -33,29 -86,49 -123,73 -25,17 -21,10 -51,9 -39,-1 -95,4 -131,0 -28,-3 -76,-36 -102,-27 -10,23 34,49 52,59 32,19 58,18 93,26 -61,42 -140,21 -210,33 -18,3 -13,-1 -25,10 4,28 25,20 51,23 70,9 138,7 201,-25 69,-34 147,-54 210,-95 38,-25 29,-26 89,-63 32,-19 69,-36 98,-54 67,-43 127,-73 197,-108 32,-16 68,-36 98,-54 35,-21 52,-45 83,-69 107,-85 219,-215 269,-342 6,-16 18,-37 22,-52 18,-71 10,-47 47,-105 10,-16 16,-36 25,-53 59,8 19,24 179,26 23,0 40,5 65,5 89,0 146,-21 227,-52 97,-38 197,-78 285,-134 68,-44 210,-108 284,-134 65,-23 131,-59 199,-80 66,-20 151,-49 218,-62 30,-5 74,-23 108,-32 43,-10 166,-45 194,-28zm-4455 -1792c-56,42 -95,82 -127,145 -11,22 -19,43 -23,67 -3,16 -4,29 -4,45 2,37 10,63 26,96 102,190 503,499 62,325 -14,-5 -25,-12 -37,-19l0 0c-6,-12 -13,-25 -20,-37 -10,-20 -21,-42 -33,-61 -10,-15 -20,-29 -29,-44 -29,-43 -60,-91 -82,-137 -4,-10 -11,-24 -14,-34 -11,-87 4,-156 46,-233 22,-37 44,-63 77,-90 34,-26 63,-41 105,-52 17,-4 31,-9 48,-16 46,-19 66,-27 118,-35 33,-5 118,-40 138,-44 86,-14 24,12 -58,42 -64,23 -137,43 -192,82zm1875 5839l0 0zm0 0l0 0zm-3674 170l0 0zm2344 -4734c22,1 29,-5 55,-3 10,14 14,63 45,69 16,3 36,2 46,-10 29,-35 24,-29 24,-67 26,-3 37,-5 65,-5 23,0 47,0 70,0 0,48 12,99 -29,124 -71,43 -188,59 -241,11 -51,-47 -17,-67 -35,-117zm-1006 -146c6,30 5,58 39,75 44,22 18,47 50,68 30,20 30,40 73,13 29,-19 44,-44 31,-78 -29,-79 -16,-96 -99,-132 -28,-13 -53,-35 -88,-28 -32,7 -5,9 -42,1 -16,-4 -42,-2 -59,-2 -65,0 -173,10 -224,1 -35,-6 -60,-14 -93,-21 -47,-10 -37,30 0,49 76,38 210,13 310,39 66,17 74,10 101,17zm1152 1810c-23,-70 61,-141 103,-95 13,14 13,26 12,45 -1,23 -6,21 -21,36 -21,21 -66,23 -94,13zm721 1692l-7 17c25,9 41,-17 57,-48 9,-17 25,-65 28,-85 39,-223 -56,-233 -72,-168 -14,60 4,184 -8,219 -9,27 -45,59 2,65zm1637 -2169c0,37 10,74 -25,93 -79,40 -107,6 -86,-24 9,-13 16,-26 27,-35 29,-21 46,-34 84,-34zm-1705 1674l34 28c41,-31 44,-92 44,-140 0,-63 -10,-90 -53,-130 -13,-12 -55,-24 -61,12 -12,68 33,75 36,140 1,30 -2,61 1,91zm77 638c-34,14 -30,31 -40,64 -3,11 -12,27 -15,38 -6,24 1,20 -11,46 -23,51 -5,44 -31,78 -20,27 -17,69 23,36 57,-47 44,-42 68,-89 14,-28 40,-33 49,-117 2,-18 0,-50 -20,-58 -9,-3 -1,-2 -10,-2 -26,1 -1,-1 -13,4zm-1426 -501c-3,34 1,122 -7,176 -11,79 -9,121 -46,202 -11,24 -19,21 -4,44 39,-9 56,-115 84,-161 28,-47 87,-109 73,-167l-21 0c-15,21 -26,97 -58,117 0,-44 9,-75 9,-118 0,-20 0,-41 0,-61 0,-45 4,-7 -1,-57 -23,44 1,2 -29,23zm1174 -476c38,-30 -2,-105 -17,-133 -13,-24 -18,-30 -37,-50 -23,-23 -39,-19 -73,-18 -33,45 -7,86 34,114 78,53 64,79 93,87zm112 1335c-13,3 -21,-12 -47,35 -25,44 -44,63 -85,90 -28,18 -14,41 16,34 34,-8 179,-97 144,-151 -5,-8 -5,-7 -13,-9 -23,-6 -7,0 -15,2zm-1155 -1165c38,-31 -27,-74 66,-148 24,-19 45,-21 58,-47 13,-27 28,-71 -18,-66 -17,27 5,45 -34,66 -34,18 -87,72 -89,112 -1,26 -10,75 18,83zm-5 -2530c-19,5 -37,-6 -63,6 -88,39 -48,58 -25,55 14,-2 38,-13 54,-17 51,-13 99,-5 121,-20 22,-15 2,-28 -20,-29 -34,-1 -40,-1 -67,5zm-68 2463l15 1c25,-36 -15,-130 46,-169 61,-39 -38,-67 -68,37 -7,23 -5,115 7,132zm2962 -1469c-16,5 -20,0 -37,11 -50,32 -44,28 -76,77 -36,55 -22,119 52,109 100,-14 151,-66 130,-170 -10,-49 -67,-28 -69,-27zm-2331 387c-16,20 -33,47 -39,70 -18,73 -33,45 11,90 22,23 14,22 61,16 36,-5 55,0 84,-20 152,-105 -41,-253 -117,-156zm-323 -1553c8,28 38,19 59,11 30,-12 45,-4 73,-1 -8,66 -8,107 40,156 55,55 83,48 152,45 55,-2 106,-24 153,-52 68,-40 56,-82 56,-153 0,-160 -82,-161 -257,-143 -56,6 -248,90 -276,138zm289 4594l0 0zm1226 -22l0 0zm0 0l0 0zm-13 -17l1 1 0 0 0 0c0,0 -2,-1 -1,-1zm-4 -9c0,0 1,1 1,1 0,0 -2,-1 -1,-1zm1 1l0 0 0 0zm-6 -10l0 0c-34,-44 -71,-101 -101,-148 -34,-54 -72,-92 -93,-156 -20,-60 -33,-153 -33,-216 0,-44 41,-144 66,-183 16,-27 33,-31 52,-70 29,-59 85,-315 114,-383 37,-89 56,-79 56,-192 0,-19 1,-42 -1,-60 -2,-16 -7,-40 -7,-55 22,6 0,11 36,12l30 171c4,28 8,62 10,90 7,71 14,41 14,86 -1,59 10,129 13,188 3,49 4,156 12,193 22,99 118,332 204,399 19,15 37,29 56,44 29,24 47,22 67,36 -35,23 -155,2 -192,-12 -62,-24 -91,-43 -133,-94 -36,-45 -65,-91 -80,-147 -7,-29 -21,-59 -25,-88 -5,-32 9,-78 -11,-103 -22,-28 -51,-9 -64,17 -17,34 -45,138 -48,179l-9 218c1,23 11,72 16,98 5,27 47,143 50,177zm-1083 401l-21 -39c-8,-17 -11,-30 -19,-47 -14,-31 -32,-52 -42,-85 -6,-22 -14,-91 -4,-111 17,-32 51,-40 20,-79 32,-10 57,-26 87,-36 30,-11 71,-13 97,-26 0,0 -45,83 -48,87 -27,43 -53,156 -62,209 -7,43 -6,81 -9,127zm437 -684l0 0zm-336 -362l0 0zm-367 -912l0 0zm1056 -768l100 -31c28,-10 59,-15 106,-34 26,-11 42,-10 67,-23 75,83 138,84 242,95 90,10 151,-12 224,-27l70 -14c5,28 -1,52 7,85 29,122 166,212 206,265 9,12 90,79 105,87 90,54 133,53 206,78 20,7 54,16 75,21 80,19 192,72 228,152 -45,9 -61,-10 -99,-32 -33,-18 -68,-31 -104,-40 -65,-16 -145,-54 -208,-80 -69,-29 -163,-22 -240,-48 -40,-14 -74,-15 -115,-29 -34,-12 -93,-15 -129,-15 -80,1 -163,-31 -245,-43 -210,-31 -222,-79 -355,-221l-142 -146zm-2134 1479l-4 4 4 -4zm4 -4l-4 4 4 -4zm4 -4l-4 4 4 -4zm4 -4l-4 4 4 -4zm0 0l0 0zm9 -9l1 1c0,0 -2,-1 -1,-1zm-122 -196l-60 17c-13,-18 -18,-32 -39,-41 -20,-8 -44,-14 -63,-8 -61,19 -135,106 -177,142 -14,12 -45,22 -52,-3 -5,-18 -3,-62 0,-80 7,-38 28,-75 65,-92 46,-21 66,-34 119,-43 62,-10 77,-3 119,34 20,18 31,14 48,30 14,13 28,32 40,43zm131 -803l5 8 -5 -8zm2287 -1056c-2,-44 70,-93 110,-79 20,61 -60,97 -110,79zm-180 -344l0 0zm-1811 -510l-2 9 2 -9zm1667 -148c-5,-14 1,2 1,-10 0,-14 -3,2 -2,-14 15,-12 36,-23 49,-34 24,-22 21,-24 36,-48 23,19 14,61 -1,83 -22,35 -45,30 -83,23zm56 -246c30,-11 58,23 101,18 46,-5 116,-69 119,18 -13,7 -13,2 -30,14 -38,27 -63,38 -106,38 -36,0 -44,14 -67,-16 -15,-19 -26,-47 -17,-73zm-1736 14c1,-1 1,1 1,2 0,0 1,1 1,1 0,0 -9,4 -2,-3zm-724 -140l0 0zm2143 -122l0 0zm-1405 641c6,-66 123,-265 200,-293 21,-8 40,-5 56,-18 9,-82 -128,-16 -196,87 -79,120 -150,253 -118,403 14,62 35,66 74,105 33,33 71,60 119,60 32,0 145,-19 160,-8 -15,14 -64,25 -89,31 -38,9 -79,2 -118,-3 -106,-13 -91,-12 -176,-72 -34,-24 -68,-132 -76,-172 -19,-94 43,-315 100,-394 18,-25 102,-109 127,-122 8,-4 88,-23 99,-23 75,-6 158,-6 227,25 27,13 56,44 81,35 40,-46 -88,-89 -119,-98 -32,-9 -193,-10 -225,-2 -45,12 -148,32 -184,51 -51,27 -109,53 -157,83 -117,74 -253,297 -272,439 -5,35 -2,79 -2,116 0,42 9,73 9,113 -68,0 -55,-15 -80,-64 -64,-128 -24,-111 -39,-175 -10,-45 -89,-12 -71,-142 3,-23 0,-37 13,-57 66,-98 -77,-35 -85,-94 -4,-28 5,-102 20,-123 33,-45 75,-26 70,-72 -26,-21 -39,1 -68,-28 -3,-30 -4,-64 8,-91 16,-38 57,-70 6,-80 -24,-5 -60,30 -86,39 -18,6 -40,16 -58,25 -26,13 -45,10 -67,20 6,-22 79,-130 101,-144 29,-18 49,-28 78,-44 71,-37 54,-35 61,-53 30,8 80,11 113,15 -20,27 -21,61 8,83 27,20 59,16 83,33 -47,53 -65,-2 -145,92 -14,17 -32,24 -21,49 37,17 64,-55 102,-64 45,-10 83,-14 115,-58 14,9 32,12 46,22 -12,15 -31,34 -48,44 -24,15 -45,17 -66,30 -29,19 -91,67 -76,105 28,11 59,-61 117,-81 60,-21 80,-45 115,-90 17,4 29,5 44,10 -17,29 -26,58 -51,83 -50,51 -74,29 -167,103 -8,6 -25,27 -29,36 -11,22 -12,31 7,43 22,-6 55,-75 163,-109 49,-16 112,-103 118,-153 6,3 75,9 86,9 -57,87 -64,124 -166,161 -26,9 -84,39 -105,56 -24,20 -24,15 -38,45 -9,19 -23,41 -13,61 22,-2 21,-23 38,-45 66,-88 160,-56 260,-168 19,-21 62,-83 52,-109 37,-4 51,1 88,-12 26,-9 45,-22 74,-31 51,-16 117,-41 169,-41 20,-6 42,-53 -40,-48 -26,1 -70,18 -95,27 -31,10 -60,16 -91,31 -49,25 -42,25 -102,25 -77,0 -150,-5 -224,-25 -43,-12 -90,-38 -134,-50 -8,-2 -16,-4 -24,-7 -19,-6 -27,-16 -10,-27 6,-4 11,-4 16,-6 53,-16 69,-11 88,-43 -11,-17 -10,-22 -35,-22 -55,-1 -114,4 -168,-3 -53,-7 -149,-5 -182,-49 3,-28 29,-36 53,-39 18,-2 109,0 94,-38 -8,-21 -106,-9 -133,-12 -38,-5 -110,-23 -140,-48 -17,-15 -36,-30 -37,-55 0,-47 20,-33 52,-44 4,-51 -53,-19 -124,-153 -13,-25 -24,-37 -37,-60 46,-58 83,7 127,31 41,22 78,56 120,81 101,60 195,93 312,94 44,0 140,-1 179,-22 38,-21 32,-14 74,1 29,10 60,9 92,13 42,5 268,88 266,139 -12,30 -28,21 -20,64 40,42 79,-3 104,-10 80,-21 158,43 258,0 24,-10 83,-37 75,-68 -16,-25 -51,19 -104,39 -37,14 -103,0 -141,-8 -40,-9 -97,7 -128,-29 -33,-38 -27,-51 -81,-81 -46,-26 -184,-77 -236,-83 -87,-11 -44,2 -127,-30 -19,-7 -33,-18 -53,-26 -90,-38 -191,-68 -237,-165 -20,-42 -21,-65 -49,-108 -72,-114 -155,-151 -277,-203 -77,-33 -139,-71 -216,-102l2 -1c0,-1 106,13 117,13 34,0 99,-4 129,2 69,14 148,30 214,53 104,36 221,210 305,228 30,6 19,5 35,31 8,13 18,27 26,39 36,53 87,90 142,120 30,16 61,28 89,46 94,63 95,50 204,62 50,5 179,58 216,44 15,-49 -54,-47 -92,-58 -42,-13 -84,-27 -127,-30 -125,-7 -115,-19 -238,-80 -166,-83 -214,-186 -290,-347 -22,-47 -65,-194 -99,-220 -25,-19 -21,-6 -39,-40 -27,-52 -24,-135 -58,-182 -34,-47 -41,-19 -8,-104 49,-127 9,-250 31,-287 19,-31 68,-64 105,-51 10,26 1,107 3,141l34 184c24,71 53,77 111,113 -9,12 -21,45 -35,66 -13,20 -32,40 -37,63 -8,36 3,142 19,176 21,43 98,126 137,164 18,18 26,36 46,55 37,36 63,65 104,97 24,19 34,25 61,39 31,15 37,25 61,39l198 104c28,7 49,-3 88,8 142,39 328,-20 478,-2 34,4 66,-1 97,4 33,5 125,34 158,47 31,13 36,20 61,39 20,14 41,18 65,36 19,14 86,86 96,105 18,36 59,103 58,142 -1,39 -9,142 -57,149 0,-68 7,-99 -19,-156 -15,-33 -49,-72 -74,-100 -49,-55 -92,-83 -164,-98 -137,-27 -93,32 -65,39 69,18 131,6 185,76 25,32 59,64 77,97 24,43 30,100 28,149 -18,7 -50,6 -59,19 -18,24 4,41 26,43 11,1 58,-6 70,-8 29,-6 48,-5 78,-5 0,47 -28,36 -53,79 25,41 37,19 72,11 63,-15 105,-38 108,29 -32,25 -74,16 -69,64 46,32 156,-74 161,23 -13,10 -50,22 -29,46 19,16 65,-4 87,-6 24,-3 59,22 52,44 -17,28 -92,8 -92,43 0,33 82,9 99,0 6,29 17,43 35,67 -27,15 -49,38 -79,58 -80,53 -132,62 -225,63 -104,1 -127,-73 -275,-157 -31,-18 -68,-40 -104,-40 -36,0 -103,-13 -132,4 -32,18 -61,35 -97,47 -17,6 -86,36 -96,49 -12,15 -10,39 8,46 37,16 144,-11 204,14 29,12 47,45 82,62 71,37 169,110 249,109 33,0 37,2 66,9l0 44c-16,4 -13,7 -31,9 -37,4 -71,-2 -103,-19 -54,-28 -79,-21 -128,6 -83,45 -136,105 -118,205 -75,4 -69,-83 -42,-133 10,-19 49,-81 65,-92 12,-9 30,-3 34,-23 7,-36 -37,-35 -63,-41 -86,-20 -79,-85 -260,-41 -53,13 -133,9 -182,-15 -51,-25 -132,-29 -175,11 -59,56 -94,121 -129,194 -15,31 -2,69 -9,101 -35,-10 -76,-82 -64,-117 29,-86 45,-115 99,-189 19,-25 26,-27 52,-44 26,-18 89,-20 121,-23 21,-2 28,4 34,-18 -18,-24 -112,-4 -139,0 -32,6 -80,45 -101,69 -41,48 -117,154 -118,218 -30,-33 -26,-61 -49,-90l-16 3z"/> </g> </svg>