<?xml version='1.0' encoding='utf-8'?>
<svg xmlns="http://www.w3.org/2000/svg" width="13in" height="18in" version="1.1" style="shape-rendering:geometricPrecision; text-rendering:geometricPrecision; image-rendering:optimizeQuality; fill-rule:evenodd; clip-rule:evenodd" viewBox="0 0 13000 18000"> <defs> <style type="text/css">  .fil1 {fill:black} .fil0 {fill:white}  </style> </defs> <g id="Layer_x0020_1"> <metadata id="CorelCorpID_0Corel-Layer"/> <path class="fil0" d="M5653 7533c-56,-48 -100,-177 -147,-187 -9,84 66,207 99,293 48,123 9,81 90,216 51,84 17,61 14,67 -54,-32 -144,-221 -172,-296 -35,-92 -15,-53 -80,-90l-60 -168c-27,42 78,399 139,508 47,84 10,71 7,75 -46,-46 -69,-139 -127,-169 -4,123 -13,72 99,248 -42,-3 -62,-28 -83,-65 -34,-60 -4,-42 -71,-85 22,114 110,127 111,207l-76 -30c16,152 187,120 302,184 59,34 107,45 157,94 40,39 86,95 134,121 59,-21 101,-84 168,-128 36,-24 175,-86 188,-104 42,-58 35,-491 4,-563 -40,50 6,43 -80,56l-7 -60c3,-1 7,-2 7,0 1,3 19,20 22,-12 5,-58 -18,-173 -65,-207 -45,40 -19,27 -8,98 -5,3 -30,13 -33,15 -34,22 2,-8 -20,18 -27,32 40,23 -54,39l-58 -115c-14,96 85,282 60,341 -37,-13 -31,-16 -42,-63 -9,-34 -17,-66 -26,-100 -14,-49 -35,-142 -62,-179 -19,38 19,125 27,177 -43,-7 -35,-37 -55,-87 -17,-44 -36,-69 -56,-112 -33,-72 -51,-164 -92,-225 -31,55 143,451 139,595 -34,-14 -2,24 -38,-28 -11,-16 -20,-45 -25,-61l-106 -393c-17,-8 -29,-10 -37,-14 -3,-1 -7,-3 -10,-5l-31 -25c-7,119 87,307 90,437 -110,-206 -93,-395 -246,-591 -26,50 29,109 52,171 12,33 54,172 58,202z"/> <path class="fil0" d="M6900 7629l-88 6 -77 132 -68 8c25,-29 39,-29 60,-55 19,-23 28,-56 44,-84 30,-51 79,-104 52,-154 -77,75 -72,150 -147,212l-15 13c-19,16 -6,14 -35,28 2,-119 59,-170 68,-200 -216,30 -145,60 -148,222 -3,128 -68,471 -47,544 41,9 42,-8 71,-35 105,12 84,28 152,91 148,138 234,-146 493,-177 1,-143 177,-45 198,-232l-75 -21c68,-40 100,-76 118,-148 -53,23 -28,18 -60,52 -28,30 -44,21 -82,42 -50,29 -101,90 -159,64l124 -71 -20 -53c49,-54 160,-120 176,-183 23,-92 -9,-38 66,-112 23,-22 71,-84 80,-107l-70 50c-36,-75 41,-17 -35,-63 27,-43 23,-25 23,-72 -28,24 -40,43 -66,70 -43,45 -41,38 -92,32 -58,57 -58,76 -96,126 -44,57 -76,27 -93,129 -128,32 -98,139 -188,150 21,-120 427,-480 440,-562 -47,25 -79,75 -112,94 -73,42 -49,-32 -155,67 -55,51 -100,27 -138,70 -11,13 -10,18 -22,35l-77 88z"/> <path class="fil0" d="M7006 9027c45,4 39,7 48,49 -42,-9 -42,-7 -48,-49zm-169 -534c70,162 107,125 36,317l73 199c35,118 15,77 83,180 74,112 142,200 274,259 -20,-116 -149,-91 -181,-250 89,33 130,130 238,153 -31,-62 -182,-157 -243,-210l80 -48c59,23 37,30 111,42 125,20 161,86 255,46 49,-21 -10,-13 64,-16 98,-4 53,-3 73,-16 -159,-38 -70,47 -343,-61 4,-52 4,-4 14,-48 -59,-39 -100,-38 -153,-72 69,-42 207,13 291,27l18 -41 325 1c-31,-35 -110,-36 -155,-38 -84,-3 -76,5 -149,-27 -62,-28 -230,13 -302,-77 52,-36 52,-26 117,-27 52,-21 14,8 41,-42 59,-1 82,-14 126,-17 57,-4 87,12 153,2 -13,-69 -15,-15 -39,-72 -17,-40 -6,-56 -29,-98 -113,-16 -177,40 -257,4 25,-18 -2,-10 33,-17 61,-12 63,21 124,-25l-84 -14c41,-41 24,-4 49,-54 -48,9 -146,33 -179,60l51 12c-60,16 -76,24 -122,-3 30,-46 42,-36 93,-52 62,-20 39,-30 101,-55 157,-64 184,-12 190,-103 -151,-80 -501,141 -540,124 25,-45 37,3 152,-122 65,-70 112,-45 170,-118 -198,0 -448,154 -559,296z"/> <path class="fil0" d="M6694 8941l98 -4c13,87 6,45 -56,86 -130,86 -6,204 -419,152 -160,-20 -126,-108 -244,-91 -10,95 -41,122 -51,209 89,-38 51,-100 128,-155 5,57 -35,182 -64,230 17,61 27,27 24,126 -2,58 -20,91 3,139 30,-45 12,-76 16,-135 116,1 33,180 86,279 12,-32 4,-39 46,-42l12 157c44,-82 25,-393 75,-477 139,51 54,365 112,524l20 -87c29,52 3,91 36,141 32,-19 20,36 21,-124 0,-49 -4,-119 18,-152 2,3 5,4 5,8 0,5 4,7 4,9l7 110c1,53 -19,80 -3,116 115,-122 -30,-408 65,-445 47,65 18,331 47,418 43,-26 34,-112 31,-165 61,-56 24,-32 65,-85 23,136 -14,107 27,123 21,-29 20,-219 -3,-253 -27,-39 -60,-49 -91,-213 58,4 29,-3 69,38 30,-54 -7,-21 45,-42 56,71 1,60 15,164 8,60 13,128 20,191 56,-49 30,-115 19,-189 -12,-77 3,-51 12,-84 6,-20 -2,-75 3,-106 57,47 48,169 48,237 0,74 -1,58 18,89 24,-37 25,-17 12,-126l49 -30 -1 -114 40 -23c-26,-92 -100,-93 -177,-380 -83,-41 -47,-3 -73,-91 -55,-19 -55,-31 -114,-20l-1 85z"/> <path class="fil0" d="M5436 8292c154,24 110,21 234,74 68,29 52,15 71,47 -128,15 -217,-58 -365,-57l-37 80c74,-5 97,13 152,60 -53,24 -39,-6 -84,26 120,129 205,48 244,111 -50,24 -78,-8 -121,-2 -144,18 -112,159 -133,215 -6,17 -3,3 -15,28 -12,26 -3,20 -17,39 -18,25 -32,19 -63,42l109 4 45 71 141 -23c-82,89 -358,101 -480,115 151,60 335,-8 457,-27 117,-18 75,0 133,51 2,145 -30,57 -51,151 63,-11 40,-28 92,-56 153,-83 29,-58 166,-72 37,-50 125,-158 136,-206 -70,-93 -58,-39 -72,-180 -19,-186 52,-263 -116,-344 -114,-55 -134,-163 -425,-201l-2 53z"/> <path class="fil0" d="M7049 10716c53,13 167,-56 232,-78 255,-84 501,-151 735,-285 102,-59 412,-398 490,-520 25,-39 22,-60 58,-111 30,-42 43,-72 21,-114 -46,58 -78,141 -125,205 -111,152 -345,410 -507,490 -149,74 -286,155 -457,209 -96,30 -420,137 -447,203z"/> <path class="fil0" d="M4985 9038c54,-14 36,-20 87,-48 42,-23 146,-33 203,-182 40,-106 -27,-328 -93,-394 -41,92 26,236 -51,347 -69,100 -139,152 -146,277z"/> <path class="fil0" d="M6403 8368c-39,85 1,39 -77,87 -69,42 -30,53 -125,46 -25,-54 -12,-83 -70,-86 -69,76 63,41 64,162 0,99 -113,86 -140,138 120,79 114,-33 112,248l104 -54c-15,-61 -16,-82 -59,-125 -3,-98 -9,-117 43,-190 37,-53 93,-79 122,-121 61,-9 79,-8 135,2l-9 -135 -100 26z"/> <path class="fil0" d="M4504 9770c-61,-94 -69,-132 -112,-151 0,113 290,504 473,611 125,72 193,148 337,202 113,43 297,114 410,117 -67,-58 -715,-199 -1001,-622 -35,-51 -74,-106 -107,-157z"/> <path class="fil0" d="M6673 8517c-82,10 -59,-13 -126,-6 40,90 4,-26 50,55 16,28 31,56 45,79 4,83 -16,201 -90,244 -110,64 -176,37 -164,191l66 1c35,-155 40,-140 204,-140 3,-137 50,-164 30,-322 50,-57 79,-65 60,-148 -51,0 -49,4 -75,46z"/> <path class="fil0" d="M6418 8218c48,-55 48,-196 47,-280 -1,-73 10,-248 -1,-297l-66 -34c-9,107 37,51 4,290 -8,60 2,109 4,169 3,70 -22,108 12,153z"/> <path class="fil0" d="M6447 11016c68,-35 4,-314 -7,-385 -29,-188 32,-222 58,-370l-38 -6c-11,23 -44,139 -51,174 -43,212 3,266 19,388 8,60 -10,151 19,198z"/> <path class="fil0" d="M7860 8715c-10,-32 -47,-84 -65,-125 -22,-51 -20,-121 -44,-165 -23,14 -12,5 -29,29 -35,50 -52,95 -32,156 22,69 98,105 170,104z"/> <path class="fil0" d="M6426 10128c-4,-60 -11,-274 -22,-316 -23,-87 9,-257 -26,-316 -45,114 6,386 6,512 0,66 -21,105 42,120z"/> <path class="fil0" d="M6425 8542c-24,49 -17,89 -2,146l64 -5c77,-137 27,-177 -61,-141z"/> <path class="fil0" d="M6268 8777c54,19 75,7 119,-21l-10 -79 -105 2 -3 97z"/> <path class="fil0" d="M6781 8763c30,-40 33,-26 4,-82 61,-13 60,3 52,-78 -120,-11 -140,111 -56,160z"/> <path class="fil0" d="M6585 8451l61 -17 8 -102 -103 -2c-6,80 -9,71 34,120z"/> <path class="fil0" d="M6223 8988l-21 78c47,42 32,44 91,37 27,-55 31,-77 -13,-123l-56 8z"/> <path class="fil0" d="M6035 8888l66 13 36 -60c-23,-52 -45,-68 -103,-63l0 110z"/> <path class="fil0" d="M6552 8837c11,-90 -34,-117 -119,-105 -1,67 51,113 119,105z"/> <path class="fil0" d="M6022 8601c41,35 82,60 119,6 -25,-93 21,47 -76,-98 -39,27 -46,38 -43,92z"/> <path class="fil0" d="M7823 8838c-64,-19 -258,-23 -321,-9 50,40 276,44 321,9z"/> <path class="fil0" d="M6587 9110c34,-53 23,-75 -13,-122l-68 4c4,71 3,22 30,65 37,59 -25,34 52,53z"/> <path class="fil0" d="M6234 8348c2,63 10,69 58,99 20,-29 34,-47 42,-77l-23 -45 -77 23z"/> <path class="fil0" d="M7460 9270c-49,-50 -202,-137 -276,-132 14,16 -4,3 19,18l108 57c67,31 72,43 149,58z"/> <path class="fil0" d="M7721 9008c-56,-23 -138,-23 -194,-13 39,29 157,39 194,13z"/> <path class="fil0" d="M6370 8889l47 -1c5,-63 9,-26 -12,-61 -34,13 -43,16 -35,62z"/> <path class="fil0" d="M6558 8726c48,-20 43,-44 -1,-66 -19,35 -24,31 1,66z"/> <path class="fil0" d="M6297 8632l49 11c-6,-67 10,-40 -39,-47l-11 36z"/> <path class="fil0" d="M6317 8938c25,56 21,56 52,1 -59,-32 -28,-13 -52,-1z"/> <path class="fil0" d="M6322 7531c23,-35 15,-33 1,-68 -19,27 -34,23 -1,68z"/> <path class="fil0" d="M6488 9077c0,25 29,30 22,2 -8,-32 -22,-16 -22,-2z"/> <polygon class="fil0" points="5968,7437 5980,7401 "/> <path class="fil1" d="M6447 11016c-29,-47 -11,-138 -19,-198 -17,-122 -62,-177 -19,-388 7,-35 40,-151 51,-174l38 6c-27,148 -87,182 -58,370 11,72 75,350 7,385zm-20 -888c-63,-15 -43,-54 -42,-120 0,-126 -51,-398 -6,-512 34,59 3,229 26,316 11,42 19,256 22,316zm623 588c27,-66 352,-172 447,-203 171,-54 308,-136 457,-209 162,-80 396,-338 507,-490 47,-64 78,-147 125,-205 23,42 9,73 -21,114 -36,51 -32,71 -58,111 -78,122 -388,461 -490,520 -234,135 -480,201 -735,285 -65,22 -179,90 -232,78zm-2657 -1097c43,19 51,57 112,151 33,51 72,106 107,157 285,423 933,564 1001,622 -113,-2 -297,-74 -410,-117 -144,-54 -212,-130 -337,-202 -183,-106 -473,-498 -473,-611zm3067 -349c-77,-15 -82,-26 -149,-58l-108 -57c-22,-15 -5,-2 -19,-18 74,-5 227,82 276,132zm-971 -193c0,-14 14,-30 22,2 7,29 -22,23 -22,-2zm-209 -97c44,45 40,67 13,123 -58,6 -43,5 -91,-37l21 -78 56 -8zm294 8c37,46 48,68 13,122 -77,-19 -15,7 -52,-53 -27,-44 -27,6 -30,-65l68 -4zm1148 19c-37,26 -156,16 -194,-13 56,-10 138,-10 194,13zm-1352 -68c-31,55 -27,55 -52,-1 24,-12 -7,-31 52,1zm367 83c62,-41 69,1 56,-86l-98 4 1 -85c58,-10 59,1 114,20 26,87 -9,50 73,91 76,287 151,288 177,380l-40 23 1 114 -49 30c13,109 13,89 -12,126 -20,-31 -18,-14 -18,-89 0,-68 9,-190 -48,-237 -5,31 3,86 -3,106 -9,33 -24,7 -12,84 11,74 37,139 -19,189 -7,-62 -12,-130 -20,-191 -14,-104 41,-93 -15,-164 -52,21 -14,-12 -45,42 -39,-41 -10,-33 -69,-38 31,164 64,174 91,213 24,34 24,224 3,253 -41,-16 -4,13 -27,-123 -40,53 -4,29 -65,85 3,52 12,139 -31,165 -30,-87 -1,-352 -47,-418 -94,37 50,323 -65,445 -16,-36 4,-63 3,-116l-7 -110c0,-2 -4,-4 -4,-9 0,-5 -3,-6 -5,-8 -23,34 -18,103 -18,152 -1,159 11,105 -21,124 -33,-51 -7,-89 -36,-141l-20 87c-58,-159 27,-473 -112,-524 -51,84 -31,395 -75,477l-12 -157c-42,3 -35,10 -46,42 -53,-98 29,-278 -86,-279 -4,59 14,90 -16,135 -23,-47 -5,-81 -3,-139 3,-99 -8,-65 -24,-126 29,-48 68,-173 64,-230 -77,54 -39,117 -128,155 10,-87 40,-114 51,-209 118,-17 85,71 244,91 413,52 289,-66 419,-152zm-332 -194c21,34 17,-2 12,61l-47 1c-8,-46 1,-49 35,-62zm-370 -49c58,-5 80,11 103,63l-36 60 -66 -13 0 -110zm1787 59c-45,35 -272,31 -321,-9 63,-14 258,-10 321,9zm-1389 -105c85,-12 130,15 119,105 -68,8 -119,-37 -119,-105zm-1448 305c7,-125 76,-177 146,-277 77,-111 10,-256 51,-347 66,65 133,288 93,394 -57,149 -162,159 -203,182 -51,28 -32,34 -87,48zm1286 -358l105 -2 10 79c-44,27 -65,40 -119,21l3 -97zm286 -21c43,22 48,46 1,66 -24,-35 -19,-31 -1,-66zm224 104c-84,-49 -64,-171 56,-160 9,81 10,65 -52,78 29,56 25,43 -4,82zm-473 -168c48,7 33,-20 39,47l-49 -11 11 -36zm117 -53c88,-37 138,4 61,141l-64 5c-15,-57 -22,-96 2,-146zm1435 173c-72,1 -148,-35 -170,-104 -20,-62 -3,-107 32,-156 17,-24 7,-15 29,-29 23,44 21,114 44,165 18,41 55,92 65,125zm-1838 -115c-3,-54 4,-65 43,-92 97,145 51,5 76,98 -37,54 -78,29 -119,-6zm432 481l-66 -1c-12,-154 54,-127 164,-191 74,-43 94,-161 90,-244 -13,-23 -29,-51 -45,-79 -46,-81 -10,34 -50,-55 67,-7 44,16 126,6 26,-42 24,-46 75,-46 19,83 -10,91 -60,148 20,158 -27,185 -30,322 -164,0 -169,-15 -204,140zm50 -739l9 135c-56,-10 -74,-12 -135,-2 -29,42 -85,68 -122,121 -52,73 -46,92 -43,190 42,43 43,64 59,125l-104 54c2,-281 8,-169 -112,-248 27,-52 140,-39 140,-138 0,-121 -133,-86 -64,-162 58,4 45,33 70,86 95,6 57,-5 125,-46 78,-48 38,-2 77,-87l100 -26zm82 109c-43,-49 -40,-40 -34,-120l103 2 -8 102 -61 17zm-250 -81c-8,30 -22,48 -42,77 -48,-30 -56,-36 -58,-99l77 -23 23 45zm-664 -4c-124,-53 -80,-50 -234,-74l2 -53c291,38 311,146 425,201 168,81 97,158 116,344 14,140 2,86 72,180 -11,48 -99,156 -136,206 -137,14 -14,-12 -166,72 -52,28 -29,45 -92,56 21,-94 53,-6 51,-151 -57,-51 -16,-69 -133,-51 -122,19 -306,86 -457,27 122,-14 398,-27 480,-115l-141 23 -45 -71 -109 -4c31,-23 45,-17 63,-42 15,-20 5,-14 17,-39 12,-25 8,-11 15,-28 21,-56 -11,-197 133,-215 43,-5 71,26 121,2 -39,-63 -123,19 -244,-111 46,-32 31,-2 84,-26 -55,-47 -78,-65 -152,-60l37 -80c148,0 238,72 365,57 -19,-32 -2,-18 -71,-47zm1167 127c111,-143 360,-296 559,-296 -58,72 -105,47 -170,118 -115,125 -127,77 -152,122 40,18 390,-204 540,-124 -6,91 -33,39 -190,103 -62,26 -39,36 -101,55 -51,16 -63,7 -93,52 46,28 62,19 122,3l-51 -12c33,-27 130,-52 179,-60 -25,51 -8,13 -49,54l84 14c-61,46 -62,13 -124,25 -35,7 -7,-1 -33,17 80,36 144,-20 257,-4 22,42 12,58 29,98 24,57 26,2 39,72 -66,10 -96,-6 -153,-2 -44,3 -67,15 -126,17 -27,50 10,21 -41,42 -65,1 -65,-9 -117,27 71,90 240,49 302,77 72,32 65,24 149,27 45,2 124,3 155,38l-325 -1 -18 41c-84,-15 -222,-69 -291,-27 54,33 95,32 153,72 -10,44 -10,-4 -14,48 273,108 184,22 343,61 -20,13 25,12 -73,16 -74,3 -15,-6 -64,16 -94,40 -130,-26 -255,-46 -73,-12 -52,-19 -111,-42l-80 48c61,53 212,147 243,210 -109,-23 -149,-120 -238,-153 32,158 161,134 181,250 -132,-59 -200,-148 -274,-259 -68,-103 -48,-61 -83,-180l-73 -199c71,-192 34,-155 -36,-317zm-372 -555c1,84 1,225 -47,280 -35,-45 -10,-83 -12,-153 -2,-59 -12,-109 -4,-169 34,-239 -13,-183 -4,-290l66 34c10,50 -1,224 1,297zm-143 -475c14,34 22,33 -1,68 -33,-45 -17,-41 1,-68zm-342 -63l-13 36 13 -36zm996 140c13,-17 11,-23 22,-35 38,-44 83,-19 138,-70 106,-99 82,-25 155,-67 34,-19 65,-70 112,-94 -12,82 -418,442 -440,562 89,-11 60,-118 188,-150 18,-102 50,-72 93,-129 38,-50 38,-68 96,-126 51,6 49,13 92,-32 26,-27 38,-46 66,-70 0,47 4,29 -23,72 76,45 -1,-12 35,63l70 -50c-8,23 -57,85 -80,107 -75,74 -43,20 -66,112 -16,62 -127,129 -176,183l20 53 -124 71c58,26 108,-35 159,-64 38,-22 54,-12 82,-42 31,-34 7,-30 60,-52 -17,72 -50,107 -118,148l75 21c-21,187 -197,89 -198,232 -259,31 -345,314 -493,177 -68,-63 -47,-79 -152,-91 -29,27 -30,43 -71,35 -21,-73 44,-417 47,-544 3,-161 -68,-191 148,-222 -8,30 -66,81 -68,200 29,-14 16,-11 35,-28l15 -13c76,-62 71,-137 147,-212 28,51 -22,103 -52,154 -16,27 -25,61 -44,84 -21,26 -35,26 -60,55l68 -8 77 -132 88 -6 77 -88zm-1470 -194c47,10 92,139 147,187 -4,-30 -45,-169 -58,-202 -23,-62 -78,-121 -52,-171 153,196 136,385 246,591 -4,-130 -97,-318 -90,-437l31 25c3,2 7,3 10,5 8,4 20,6 37,14l106 393c6,16 14,45 25,61 36,52 4,14 38,28 4,-144 -170,-540 -139,-595 41,61 59,154 92,225 20,44 39,68 56,112 20,50 12,80 55,87 -9,-52 -46,-139 -27,-177 27,37 48,130 62,179 9,34 17,66 26,100 12,47 5,50 42,63 25,-59 -74,-245 -60,-341l58 115c94,-16 27,-7 54,-39 22,-26 -14,4 20,-18 3,-2 28,-12 33,-15 -11,-71 -37,-58 8,-98 47,34 70,149 65,207 -3,32 -22,14 -22,12 -1,-2 -5,-1 -7,0l7 60c86,-13 40,-6 80,-56 31,72 38,505 -4,563 -13,18 -152,80 -188,104 -67,44 -109,108 -168,128 -48,-26 -94,-82 -134,-121 -49,-48 -97,-60 -157,-94 -114,-65 -286,-33 -302,-184l76 30c-1,-81 -89,-93 -111,-207 67,43 37,25 71,85 21,37 41,62 83,65 -112,-176 -103,-126 -99,-248 57,29 81,122 127,169 3,-5 40,9 -7,-75 -60,-109 -165,-466 -139,-508l60 168c64,37 45,-3 80,90 28,75 118,264 172,296 4,-6 37,17 -14,-67 -82,-135 -43,-93 -90,-216 -33,-85 -108,-208 -99,-293zm2132 744c8,-73 46,-90 29,-176 -11,-59 -52,-68 -80,-131 -78,-180 266,-302 131,-589 -211,-449 -430,54 -722,132 -143,38 -217,-114 -311,-49 -63,44 -133,196 -182,215 -49,-63 -13,-78 -97,-138 -48,-34 -71,-71 -113,-107 -135,-7 -266,85 -395,-52 -56,-59 -80,-196 -314,-190 -137,4 -206,135 -247,253 -54,158 -11,269 -32,431 -72,4 -124,-36 -134,54 -30,261 93,380 96,459 -220,176 -133,323 -223,556 -29,75 -126,175 -137,251 -12,86 79,191 134,239 130,-8 309,-55 411,29 15,78 -45,133 8,219 37,60 108,86 169,31 81,-73 103,-246 218,-270 -10,164 -64,119 -10,408 54,292 206,163 261,188 39,38 66,133 97,196 54,109 56,76 125,151 -7,96 -61,239 -38,381 21,127 44,271 38,399 -53,-9 -90,-80 -131,-121 -358,-357 -790,-415 -1126,-611 -271,-158 -330,-267 -502,-483l-276 -475c-28,-68 -21,-129 -93,-145 -29,83 6,419 22,519 51,333 146,494 424,718 274,220 641,168 896,232 258,65 565,186 713,410 45,68 69,97 102,177 25,62 16,46 27,111 16,96 54,72 74,73 23,-103 5,-106 54,-221 74,-172 277,-293 445,-347 510,-163 880,-110 1253,-330 364,-215 576,-920 424,-1079 -26,24 -165,307 -262,434 -168,219 -373,374 -615,511 -42,24 -277,120 -324,133 -180,49 -457,184 -629,276 -173,93 -194,172 -263,171 -6,-63 -3,-119 -14,-181 -24,-139 -74,-283 23,-466 27,-50 124,-89 199,-177 66,-78 60,-143 145,-213 61,9 25,18 85,21 165,-155 163,-313 173,-475 159,9 139,303 280,267 49,-188 -35,-288 266,-415 229,-97 237,-98 363,-315 99,-171 -162,-277 -201,-421 -25,-91 -28,-202 -53,-297 -29,-111 -119,-110 -164,-172z"/> <path class="fil1" d="M7054 9076c-9,-42 -3,-45 -48,-49 6,42 6,40 48,49z"/> </g> </svg>