<?xml version="1.0" encoding="utf-8"?>
<!-- Generator: Adobe Illustrator 23.0.1, SVG Export Plug-In . SVG Version: 6.00 Build 0)  -->
<svg version="1.1" id="Layer_1" xmlns="http://www.w3.org/2000/svg" xmlns:xlink="http://www.w3.org/1999/xlink" x="0px" y="0px"
	 viewBox="0 0 936 800.5" style="enable-background:new 0 0 936 800.5;" xml:space="preserve">
<style type="text/css">
	.st0{fill-rule:evenodd;clip-rule:evenodd;fill:#FFFFFF;}
	.st1{fill-rule:evenodd;clip-rule:evenodd;}
</style>
<g id="Layer_x0020_1">
	<path class="st0" d="M328.5,173.7c-8.3-7.1-14.9-26.3-21.9-27.8c-1.3,12.5,9.8,30.8,14.7,43.6c7.1,18.3,1.3,12,13.4,32.1
		c7.6,12.5,2.5,9.1,2.1,10c-8-4.8-21.4-32.9-25.6-44c-5.2-13.7-2.2-7.9-11.9-13.4l-8.9-25c-4,6.2,11.6,59.4,20.7,75.6
		c7,12.5,1.5,10.6,1,11.2c-6.8-6.8-10.3-20.7-18.9-25.1c-0.6,18.3-1.9,10.7,14.7,36.9c-6.2-0.4-9.2-4.2-12.3-9.7
		c-5.1-8.9-0.6-6.2-10.6-12.6c3.3,17,16.4,18.9,16.5,30.8l-11.3-4.5c2.4,22.6,27.8,17.9,44.9,27.4c8.8,5.1,15.9,6.7,23.4,14
		c6,5.8,12.8,14.1,19.9,18c8.8-3.1,15-12.5,25-19c5.4-3.6,26-12.8,28-15.5c6.2-8.6,5.2-73,0.6-83.7c-6,7.4,0.9,6.4-11.9,8.3l-1-8.9
		c0.4-0.1,1-0.3,1,0c0.1,0.4,2.8,3,3.3-1.8c0.7-8.6-2.7-25.7-9.7-30.8c-6.7,6-2.8,4-1.2,14.6c-0.7,0.4-4.5,1.9-4.9,2.2
		c-5.1,3.3,0.3-1.2-3,2.7c-4,4.8,6,3.4-8,5.8l-8.6-17.1c-2.1,14.3,12.6,41.9,8.9,50.7c-5.5-1.9-4.6-2.4-6.2-9.4
		c-1.3-5.1-2.5-9.8-3.9-14.9c-2.1-7.3-5.2-21.1-9.2-26.6c-2.8,5.7,2.8,18.6,4,26.3c-6.4-1-5.2-5.5-8.2-12.9
		c-2.5-6.5-5.4-10.3-8.3-16.7c-4.9-10.7-7.6-24.4-13.7-33.5c-4.6,8.2,21.3,67.1,20.7,88.5c-5.1-2.1-0.3,3.6-5.7-4.2
		c-1.6-2.4-3-6.7-3.7-9.1L347,147.6c-2.5-1.2-4.3-1.5-5.5-2.1c-0.4-0.1-1-0.4-1.5-0.7l-4.6-3.7c-1,17.7,12.9,45.7,13.4,65
		c-16.4-30.6-13.8-58.8-36.6-87.9c-3.9,7.4,4.3,16.2,7.7,25.4C321.7,148.5,328,169.2,328.5,173.7z"/>
	<path class="st0" d="M514,187.9l-13.1,0.9l-11.5,19.6l-10.1,1.2c3.7-4.3,5.8-4.3,8.9-8.2c2.8-3.4,4.2-8.3,6.5-12.5
		c4.5-7.6,11.8-15.5,7.7-22.9c-11.5,11.2-10.7,22.3-21.9,31.5l-2.2,1.9c-2.8,2.4-0.9,2.1-5.2,4.2c0.3-17.7,8.8-25.3,10.1-29.8
		c-32.1,4.5-21.6,8.9-22,33c-0.4,19-10.1,70.1-7,80.9c6.1,1.3,6.2-1.2,10.6-5.2c15.6,1.8,12.5,4.2,22.6,13.5
		c22,20.5,34.8-21.7,73.3-26.3c0.1-21.3,26.3-6.7,29.5-34.5l-11.2-3.1c10.1-6,14.9-11.3,17.6-22c-7.9,3.4-4.2,2.7-8.9,7.7
		c-4.2,4.5-6.5,3.1-12.2,6.2c-7.4,4.3-15,13.4-23.7,9.5l18.4-10.6l-3-7.9c7.3-8,23.8-17.9,26.2-27.2c3.4-13.7-1.3-5.7,9.8-16.7
		c3.4-3.3,10.6-12.5,11.9-15.9l-10.4,7.4c-5.4-11.2,6.1-2.5-5.2-9.4c4-6.4,3.4-3.7,3.4-10.7c-4.2,3.6-6,6.4-9.8,10.4
		c-6.4,6.7-6.1,5.7-13.7,4.8c-8.6,8.5-8.6,11.3-14.3,18.7c-6.5,8.5-11.3,4-13.8,19.2c-19,4.8-14.6,20.7-28,22.3
		c3.1-17.9,63.5-71.4,65.5-83.6c-7,3.7-11.8,11.2-16.7,14c-10.9,6.2-7.3-4.8-23.1,10c-8.2,7.6-14.9,4-20.5,10.4
		c-1.6,1.9-1.5,2.7-3.3,5.2L514,187.3V187.9z"/>
	<path class="st0" d="M529.8,395.9c6.7,0.6,5.8,1,7.1,7.3C530.7,401.8,530.7,402.1,529.8,395.9z M504.7,316.5
		c10.4,24.1,15.9,18.6,5.4,47.2l10.9,29.6c5.2,17.6,2.2,11.5,12.3,26.8c11,16.7,21.1,29.8,40.8,38.5c-3-17.3-22.2-13.5-26.9-37.2
		c13.2,4.9,19.3,19.3,35.4,22.8c-4.6-9.2-27.1-23.4-36.1-31.2l11.9-7.1c8.8,3.4,5.5,4.5,16.5,6.2c18.6,3,23.9,12.8,37.9,6.8
		c7.3-3.1-1.5-1.9,9.5-2.4c14.6-0.6,7.9-0.4,10.9-2.4c-23.7-5.7-10.4,7-51-9.1c0.6-7.7,0.6-0.6,2.1-7.1c-8.8-5.8-14.9-5.7-22.8-10.7
		c10.3-6.2,30.8,1.9,43.3,4l2.7-6.1l48.3,0.1c-4.6-5.2-16.4-5.4-23.1-5.7c-12.5-0.4-11.3,0.7-22.2-4c-9.2-4.2-34.2,1.9-44.9-11.5
		c7.7-5.4,7.7-3.9,17.4-4c7.7-3.1,2.1,1.2,6.1-6.2c8.8-0.1,12.2-2.1,18.7-2.5c8.5-0.6,12.9,1.8,22.8,0.3c-1.9-10.3-2.2-2.2-5.8-10.7
		c-2.5-6-0.9-8.3-4.3-14.6c-16.8-2.4-26.3,6-38.2,0.6c3.7-2.7-0.3-1.5,4.9-2.5c9.1-1.8,9.4,3.1,18.4-3.7l-12.5-2.1
		c6.1-6.1,3.6-0.6,7.3-8c-7.1,1.3-21.7,4.9-26.6,8.9l7.6,1.8c-8.9,2.4-11.3,3.6-18.1-0.4c4.5-6.8,6.2-5.4,13.8-7.7
		c9.2-3,5.8-4.5,15-8.2c23.4-9.5,27.4-1.8,28.3-15.3c-22.5-11.9-74.5,21-80.3,18.4c3.7-6.7,5.5,0.4,22.6-18.1
		c9.7-10.4,16.7-6.7,25.3-17.6c-29.5,0-66.6,22.9-83.2,44V316.5z"/>
	<path class="st0" d="M483.4,383.1l14.6-0.6c1.9,12.9,0.9,6.7-8.3,12.8c-19.3,12.8-0.9,30.3-62.3,22.6c-23.8-3-18.7-16.1-36.3-13.5
		c-1.5,14.1-6.1,18.1-7.6,31.1c13.2-5.7,7.6-14.9,19-23.1c0.7,8.5-5.2,27.1-9.5,34.2c2.5,9.1,4,4,3.6,18.7c-0.3,8.6-3,13.5,0.4,20.7
		c4.5-6.7,1.8-11.3,2.4-20.1c17.3,0.1,4.9,26.8,12.8,41.5c1.8-4.8,0.6-5.8,6.8-6.2l1.8,23.4c6.5-12.2,3.7-58.5,11.2-71
		c20.7,7.6,8,54.3,16.7,77.9l3-12.9c4.3,7.7,0.4,13.5,5.4,21c4.8-2.8,3,5.4,3.1-18.4c0-7.3-0.6-17.7,2.7-22.6
		c0.3,0.4,0.7,0.6,0.7,1.2c0,0.7,0.6,1,0.6,1.3l1,16.4c0.1,7.9-2.8,11.9-0.4,17.3c17.1-18.1-4.5-60.7,9.7-66.2
		c7,9.7,2.7,49.2,7,62.2c6.4-3.9,5.1-16.7,4.6-24.5c9.1-8.3,3.6-4.8,9.7-12.6c3.4,20.2-2.1,15.9,4,18.3c3.1-4.3,3-32.6-0.4-37.6
		c-4-5.8-8.9-7.3-13.5-31.7c8.6,0.6,4.3-0.4,10.3,5.7c4.5-8-1-3.1,6.7-6.2c8.3,10.6,0.1,8.9,2.2,24.4c1.2,8.9,1.9,19,3,28.4
		c8.3-7.3,4.5-17.1,2.8-28.1c-1.8-11.5,0.4-7.6,1.8-12.5c0.9-3-0.3-11.2,0.4-15.8c8.5,7,7.1,25.1,7.1,35.3c0,11-0.1,8.6,2.7,13.2
		c3.6-5.5,3.7-2.5,1.8-18.7l7.3-4.5l-0.1-17l6-3.4c-3.9-13.7-14.9-13.8-26.3-56.5c-12.3-6.1-7-0.4-10.9-13.5c-8.2-2.8-8.2-4.6-17-3
		l-0.1,12.6L483.4,383.1z"/>
	<path class="st0" d="M296.3,286.6c22.9,3.6,16.4,3.1,34.8,11c10.1,4.3,7.7,2.2,10.6,7c-19,2.2-32.3-8.6-54.3-8.5l-5.5,11.9
		c11-0.7,14.4,1.9,22.6,8.9c-7.9,3.6-5.8-0.9-12.5,3.9c17.9,19.2,30.5,7.1,36.3,16.5c-7.4,3.6-11.6-1.2-18-0.3
		c-21.4,2.7-16.7,23.7-19.8,32c-0.9,2.5-0.4,0.4-2.2,4.2c-1.8,3.9-0.4,3-2.5,5.8c-2.7,3.7-4.8,2.8-9.4,6.2l16.2,0.6l6.7,10.6l21-3.4
		c-12.2,13.2-53.3,15-71.4,17.1c22.5,8.9,49.8-1.2,68-4c17.4-2.7,11.2,0,19.8,7.6c0.3,21.6-4.5,8.5-7.6,22.5c9.4-1.6,6-4.2,13.7-8.3
		c22.8-12.3,4.3-8.6,24.7-10.7c5.5-7.4,18.6-23.5,20.2-30.6c-10.4-13.8-8.6-5.8-10.7-26.8c-2.8-27.7,7.7-39.1-17.3-51.2
		c-17-8.2-19.9-24.2-63.2-29.9l-0.3,7.9L296.3,286.6z"/>
	<path class="st0" d="M536.2,647.1c7.9,1.9,24.8-8.3,34.5-11.6c37.9-12.5,74.5-22.5,109.3-42.4c15.2-8.8,61.3-59.2,72.9-77.4
		c3.7-5.8,3.3-8.9,8.6-16.5c4.5-6.2,6.4-10.7,3.1-17c-6.8,8.6-11.6,21-18.6,30.5c-16.5,22.6-51.3,61-75.4,72.9
		c-22.2,11-42.5,23.1-68,31.1c-14.3,4.5-62.5,20.4-66.5,30.2V647.1z"/>
	<path class="st0" d="M229.2,397.5c8-2.1,5.4-3,12.9-7.1c6.2-3.4,21.7-4.9,30.2-27.1c6-15.8-4-48.8-13.8-58.6
		c-6.1,13.7,3.9,35.1-7.6,51.6C240.6,371.2,230.2,378.9,229.2,397.5z"/>
	<path class="st0" d="M440.1,297.9c-5.8,12.6,0.1,5.8-11.5,12.9c-10.3,6.2-4.5,7.9-18.6,6.8c-3.7-8-1.8-12.3-10.4-12.8
		c-10.3,11.3,9.4,6.1,9.5,24.1c0,14.7-16.8,12.8-20.8,20.5c17.9,11.8,17-4.9,16.7,36.9l15.5-8c-2.2-9.1-2.4-12.2-8.8-18.6
		c-0.4-14.6-1.3-17.4,6.4-28.3c5.5-7.9,13.8-11.8,18.1-18c9.1-1.3,11.8-1.2,20.1,0.3l-1.3-20.1l-14.9,3.9V297.9z"/>
	<path class="st0" d="M157.6,506.4c-9.1-14-10.3-19.6-16.7-22.5c0,16.8,43.1,75,70.4,90.9c18.6,10.7,28.7,22,50.1,30
		c16.8,6.4,44.2,17,61,17.4c-10-8.6-106.4-29.6-148.9-92.5C168.3,522.2,162.5,514,157.6,506.4z"/>
	<path class="st0" d="M480.3,320c-12.2,1.5-8.8-1.9-18.7-0.9c6,13.4,0.6-3.9,7.4,8.2c2.4,4.2,4.6,8.3,6.7,11.8
		c0.6,12.3-2.4,29.9-13.4,36.3c-16.4,9.5-26.2,5.5-24.4,28.4l9.8,0.1c5.2-23.1,6-20.8,30.3-20.8c0.4-20.4,7.4-24.4,4.5-47.9
		c7.4-8.5,11.8-9.7,8.9-22C483.8,313.2,484.1,313.8,480.3,320z"/>
	<path class="st0" d="M442.3,275.5c7.1-8.2,7.1-29.2,7-41.7c-0.1-10.9,1.5-36.9-0.1-44.2l-9.8-5.1c-1.3,15.9,5.5,7.6,0.6,43.1
		c-1.2,8.9,0.3,16.2,0.6,25.1c0.4,10.4-3.3,16.1,1.8,22.8V275.5z"/>
	<path class="st0" d="M446.7,691.8c10.1-5.2,0.6-46.7-1-57.3c-4.3-28,4.8-33,8.6-55l-5.7-0.9c-1.6,3.4-6.5,20.7-7.6,25.9
		c-6.4,31.5,0.4,39.6,2.8,57.7c1.2,8.9-1.5,22.5,2.8,29.5V691.8z"/>
	<path class="st0" d="M656.8,349.5c-1.5-4.8-7-12.5-9.7-18.6c-3.3-7.6-3-18-6.5-24.5c-3.4,2.1-1.8,0.7-4.3,4.3
		c-5.2,7.4-7.7,14.1-4.8,23.2c3.3,10.3,14.6,15.6,25.3,15.5V349.5z"/>
	<path class="st0" d="M443.5,559.7c-0.6-8.9-1.6-40.8-3.3-47c-3.4-12.9,1.3-38.2-3.9-47c-6.7,17,0.9,57.4,0.9,76.2
		C437.3,551.6,434.2,557.4,443.5,559.7z"/>
	<path class="st0" d="M443.4,323.7c-3.6,7.3-2.5,13.2-0.3,21.7l9.5-0.7c11.5-20.4,4-26.3-9.1-21H443.4z"/>
	<path class="st0" d="M420,358.7c8,2.8,11.2,1,17.7-3.1l-1.5-11.8l-15.6,0.3l-0.4,14.4L420,358.7z"/>
	<path class="st0" d="M496.3,356.6c4.5-6,4.9-3.9,0.6-12.2c9.1-1.9,8.9,0.4,7.7-11.6C486.8,331.2,483.8,349.3,496.3,356.6z"/>
	<path class="st0" d="M467.2,310.2l9.1-2.5l1.2-15.2l-15.3-0.3c-0.9,11.9-1.3,10.6,5.1,17.9V310.2z"/>
	<path class="st0" d="M413.3,390.1l-3.1,11.6c7,6.2,4.8,6.5,13.5,5.5c4-8.2,4.6-11.5-1.9-18.3l-8.3,1.2H413.3z"/>
	<path class="st0" d="M385.4,375.2l9.8,1.9l5.4-8.9c-3.4-7.7-6.7-10.1-15.3-9.4v16.4H385.4z"/>
	<path class="st0" d="M462.3,367.6c1.6-13.4-5.1-17.4-17.7-15.6C444.4,362,452.2,368.8,462.3,367.6z"/>
	<path class="st0" d="M383.4,332.5c6.1,5.2,12.2,8.9,17.7,0.9c-3.7-13.8,3.1,7-11.3-14.6C384,322.9,383,324.5,383.4,332.5z"/>
	<path class="st0" d="M651.3,367.8c-9.5-2.8-38.4-3.4-47.8-1.3C611,372.4,644.7,373,651.3,367.8z"/>
	<path class="st0" d="M467.5,408.2c5.1-7.9,3.4-11.2-1.9-18.1l-10.1,0.6c0.6,10.6,0.4,3.3,4.5,9.7c5.5,8.8-3.7,5.1,7.7,7.9H467.5z"
		/>
	<path class="st0" d="M415,294.9c0.3,9.4,1.5,10.3,8.6,14.7c3-4.3,5.1-7,6.2-11.5l-3.4-6.7L415,294.9z"/>
	<path class="st0" d="M597.3,432c-7.3-7.4-30-20.4-41.1-19.6c2.1,2.4-0.6,0.4,2.8,2.7l16.1,8.5c10,4.6,10.7,6.4,22.2,8.6V432z"/>
	<path class="st0" d="M636.2,393.1c-8.3-3.4-20.5-3.4-28.9-1.9C613.1,395.4,630.7,396.9,636.2,393.1z"/>
	<path class="st0" d="M435.2,375.4l7-0.1c0.7-9.4,1.3-3.9-1.8-9.1C435.4,368.1,434,368.5,435.2,375.4z"/>
	<path class="st0" d="M463.2,351.1c7.1-3,6.4-6.5-0.1-9.8C460.2,346.5,459.5,345.9,463.2,351.1z"/>
	<path class="st0" d="M424.3,337.1l7.3,1.6c-0.9-10,1.5-6-5.8-7l-1.6,5.4H424.3z"/>
	<path class="st0" d="M427.3,382.7c3.7,8.3,3.1,8.3,7.7,0.1C426.3,378,430.9,380.9,427.3,382.7z"/>
	<path class="st0" d="M428.1,173.4c3.4-5.2,2.2-4.9,0.1-10.1C425.4,167.3,423.2,166.7,428.1,173.4z"/>
	<path class="st0" d="M452.8,403.3c0,3.7,4.3,4.5,3.3,0.3C454.8,398.9,452.8,401.2,452.8,403.3z"/>
	<path class="st0" d="M375.4,159.4l1.8-5.4L375.4,159.4z"/>
	<path class="st1" d="M446.7,691.8c-4.3-7-1.6-20.5-2.8-29.5c-2.5-18.1-9.2-26.3-2.8-57.7c1-5.2,6-22.5,7.6-25.9l5.7,0.9
		c-4,22-12.9,27.1-8.6,55c1.6,10.7,11.2,52.1,1,57.3V691.8z M443.7,559.7c-9.4-2.2-6.4-8-6.2-17.9c0-18.7-7.6-59.2-0.9-76.2
		c5.1,8.8,0.4,34.1,3.9,47C442,518.9,443.2,550.7,443.7,559.7z M536.4,647.1c4-9.8,52.4-25.6,66.5-30.2c25.4-8,45.8-20.2,68-31.1
		c24.1-11.9,58.9-50.3,75.4-72.9c7-9.5,11.6-21.9,18.6-30.5c3.4,6.2,1.3,10.9-3.1,17c-5.4,7.6-4.8,10.6-8.6,16.5
		c-11.6,18.1-57.7,68.6-72.9,77.4c-34.8,20.1-71.4,29.9-109.3,42.4c-9.7,3.3-26.6,13.4-34.5,11.6V647.1z M141.1,484
		c6.4,2.8,7.6,8.5,16.7,22.5c4.9,7.6,10.7,15.8,15.9,23.4c42.4,62.9,138.8,83.9,148.9,92.5c-16.8-0.3-44.2-11-61-17.4
		c-21.4-8-31.5-19.3-50.1-30C184.3,559.1,141.1,500.8,141.1,484z M597.3,432c-11.5-2.2-12.2-3.9-22.2-8.6l-16.1-8.5
		c-3.3-2.2-0.7-0.3-2.8-2.7c11-0.7,33.8,12.2,41.1,19.6V432z M452.9,403.3c0-2.1,2.1-4.5,3.3,0.3C457.2,407.9,452.9,407,452.9,403.3
		z M421.8,388.9c6.5,6.7,6,10,1.9,18.3c-8.6,0.9-6.4,0.7-13.5-5.5l3.1-11.6l8.3-1.2H421.8z M465.5,390.1c5.5,6.8,7.1,10.1,1.9,18.1
		c-11.5-2.8-2.2,1-7.7-7.9c-4-6.5-4,0.9-4.5-9.7l10.1-0.6H465.5z M636.3,392.9c-5.5,3.9-23.2,2.4-28.9-1.9
		C615.8,389.5,628,389.5,636.3,392.9z M435.2,382.8c-4.6,8.2-4,8.2-7.7-0.1C431,380.9,426.4,378,435.2,382.8z M489.8,395.1
		c9.2-6.1,10.3,0.1,8.3-12.8l-14.6,0.6l0.1-12.6c8.6-1.5,8.8,0.1,17,3c3.9,12.9-1.3,7.4,10.9,13.5c11.3,42.7,22.5,42.8,26.3,56.5
		l-6,3.4l0.1,17l-7.3,4.5c1.9,16.2,1.9,13.2-1.8,18.7c-3-4.6-2.7-2.1-2.7-13.2c0-10.1,1.3-28.3-7.1-35.3c-0.7,4.6,0.4,12.8-0.4,15.8
		c-1.3,4.9-3.6,1-1.8,12.5c1.6,11,5.5,20.7-2.8,28.1c-1-9.2-1.8-19.3-3-28.4c-2.1-15.5,6.1-13.8-2.2-24.4c-7.7,3.1-2.1-1.8-6.7,6.2
		c-5.8-6.1-1.5-4.9-10.3-5.7c4.6,24.4,9.5,25.9,13.5,31.7c3.6,5.1,3.6,33.3,0.4,37.6c-6.1-2.4-0.6,1.9-4-18.3
		c-6,7.9-0.6,4.3-9.7,12.6c0.4,7.7,1.8,20.7-4.6,24.5c-4.5-12.9-0.1-52.4-7-62.2c-14,5.5,7.4,48-9.7,66.2c-2.4-5.4,0.6-9.4,0.4-17.3
		l-1-16.4c0-0.3-0.6-0.6-0.6-1.3s-0.4-0.9-0.7-1.2c-3.4,5.1-2.7,15.3-2.7,22.6c-0.1,23.7,1.6,15.6-3.1,18.4c-4.9-7.6-1-13.2-5.4-21
		l-3,12.9c-8.6-23.7,4-70.4-16.7-77.9c-7.6,12.5-4.6,58.8-11.2,71l-1.8-23.4c-6.2,0.4-5.2,1.5-6.8,6.2c-7.9-14.6,4.3-41.4-12.8-41.5
		c-0.6,8.8,2.1,13.4-2.4,20.1c-3.4-7-0.7-12-0.4-20.7c0.4-14.7-1.2-9.7-3.6-18.7c4.3-7.1,10.1-25.7,9.5-34.2
		c-11.5,8-5.8,17.4-19,23.1c1.5-12.9,6-17,7.6-31.1c17.6-2.5,12.6,10.6,36.3,13.5c61.4,7.7,43-9.8,62.3-22.6L489.8,395.1z
		 M440.4,366.3c3.1,5.1,2.5-0.3,1.8,9.1l-7,0.1C434,368.7,435.4,368.2,440.4,366.3z M385.4,359c8.6-0.7,11.9,1.6,15.3,9.4l-5.4,8.9
		l-9.8-1.9V359H385.4z M651.2,367.8c-6.7,5.2-40.5,4.6-47.8-1.3C612.8,364.4,641.8,364.9,651.2,367.8z M444.6,352.2
		c12.6-1.8,19.3,2.2,17.7,15.6C452.2,369,444.6,362.3,444.6,352.2z M229.2,397.5c1-18.6,11.3-26.3,21.7-41.2
		c11.5-16.5,1.5-38.1,7.6-51.6c9.8,9.7,19.8,42.8,13.8,58.6c-8.5,22.2-24.1,23.7-30.2,27.1C234.5,394.6,237.4,395.4,229.2,397.5z
		 M420.5,344.3l15.6-0.3l1.5,11.8c-6.5,4-9.7,6-17.7,3.1l0.4-14.4L420.5,344.3z M463,341.1c6.4,3.3,7.1,6.8,0.1,9.8
		C459.6,345.8,460.3,346.4,463,341.1z M496.3,356.6c-12.5-7.3-9.5-25.4,8.3-23.8c1.3,12,1.5,9.7-7.7,11.6
		C501.3,352.8,500.7,350.8,496.3,356.6z M426,331.6c7.1,1,4.9-3,5.8,7l-7.3-1.6l1.6-5.4H426z M443.4,323.7c13.1-5.5,20.5,0.6,9.1,21
		l-9.5,0.7c-2.2-8.5-3.3-14.3,0.3-21.7H443.4z M656.8,349.5c-10.7,0.1-22-5.2-25.3-15.5c-3-9.2-0.4-15.9,4.8-23.2
		c2.5-3.6,1-2.2,4.3-4.3c3.4,6.5,3.1,17,6.5,24.5c2.7,6.1,8.2,13.7,9.7,18.6V349.5z M383.4,332.4c-0.4-8,0.6-9.7,6.4-13.7
		c14.4,21.6,7.6,0.7,11.3,14.6C395.6,341.3,389.5,337.6,383.4,332.4z M447.7,403.9l-9.8-0.1c-1.8-22.9,8-18.9,24.4-28.4
		c11-6.4,14-23.9,13.4-36.3c-1.9-3.4-4.3-7.6-6.7-11.8c-6.8-12-1.5,5.1-7.4-8.2c10-1,6.5,2.4,18.7,0.9c3.9-6.2,3.6-6.8,11.2-6.8
		c2.8,12.3-1.5,13.5-8.9,22c3,23.5-4,27.5-4.5,47.9C453.6,383.1,452.9,380.9,447.7,403.9z M455.1,294l1.3,20.1
		c-8.3-1.5-11-1.8-20.1-0.3c-4.3,6.2-12.6,10.1-18.1,18c-7.7,10.9-6.8,13.7-6.4,28.3c6.2,6.4,6.4,9.5,8.8,18.6l-15.5,8
		c0.3-41.8,1.2-25.1-16.7-36.9c4-7.7,20.8-5.8,20.8-20.5c0-18-19.8-12.8-9.5-24.1c8.6,0.6,6.7,4.9,10.4,12.8
		c14.1,0.9,8.5-0.7,18.6-6.8c11.6-7.1,5.7-0.3,11.5-12.9l14.9-3.9V294z M467.3,310.2c-6.4-7.3-6-6-5.1-17.9l15.3,0.3l-1.2,15.2
		l-9.1,2.5V310.2z M430.1,298.2c-1.2,4.5-3.3,7.1-6.2,11.5c-7.1-4.5-8.3-5.4-8.6-14.7l11.5-3.4L430.1,298.2z M331.4,297.6
		c-18.4-7.9-11.9-7.4-34.8-11l0.3-7.9c43.3,5.7,46.3,21.7,63.2,29.9c25,12,14.4,23.5,17.3,51.2c2.1,20.8,0.3,12.8,10.7,26.8
		c-1.6,7.1-14.7,23.2-20.2,30.6c-20.4,2.1-2.1-1.8-24.7,10.7c-7.7,4.2-4.3,6.7-13.7,8.3c3.1-14,7.9-0.9,7.6-22.5
		c-8.5-7.6-2.4-10.3-19.8-7.6c-18.1,2.8-45.5,12.8-68,4c18.1-2.1,59.2-4,71.4-17.1l-21,3.4l-6.7-10.6l-16.2-0.6
		c4.6-3.4,6.7-2.5,9.4-6.2c2.2-3,0.7-2.1,2.5-5.8c1.8-3.7,1.2-1.6,2.2-4.2c3.1-8.3-1.6-29.3,19.8-32c6.4-0.7,10.6,3.9,18,0.3
		c-5.8-9.4-18.3,2.8-36.3-16.5c6.8-4.8,4.6-0.3,12.5-3.9c-8.2-7-11.6-9.7-22.6-8.9l5.5-11.9c22,0,35.4,10.7,54.3,8.5
		c-2.8-4.8-0.3-2.7-10.6-7L331.4,297.6z M505,316.5c16.5-21.3,53.6-44,83.2-44c-8.6,10.7-15.6,7-25.3,17.6
		c-17.1,18.6-18.9,11.5-22.6,18.1c6,2.7,58-30.3,80.3-18.4c-0.9,13.5-4.9,5.8-28.3,15.3c-9.2,3.9-5.8,5.4-15,8.2
		c-7.6,2.4-9.4,1-13.8,7.7c6.8,4.2,9.2,2.8,18.1,0.4l-7.6-1.8c4.9-4,19.3-7.7,26.6-8.9c-3.7,7.6-1.2,1.9-7.3,8l12.5,2.1
		c-9.1,6.8-9.2,1.9-18.4,3.7c-5.2,1-1-0.1-4.9,2.5c11.9,5.4,21.4-3,38.2-0.6c3.3,6.2,1.8,8.6,4.3,14.6c3.6,8.5,3.9,0.3,5.8,10.7
		c-9.8,1.5-14.3-0.9-22.8-0.3c-6.5,0.4-10,2.2-18.7,2.5c-4,7.4,1.5,3.1-6.1,6.2c-9.7,0.1-9.7-1.3-17.4,4
		c10.6,13.4,35.7,7.3,44.9,11.5c10.7,4.8,9.7,3.6,22.2,4c6.7,0.3,18.4,0.4,23.1,5.7l-48.3-0.1l-2.7,6.1c-12.5-2.2-33-10.3-43.3-4
		c8,4.9,14.1,4.8,22.8,10.7c-1.5,6.5-1.5-0.6-2.1,7.1c40.6,16.1,27.4,3.3,51,9.1c-3,1.9,3.7,1.8-10.9,2.4c-11,0.4-2.2-0.9-9.5,2.4
		c-14,6-19.3-3.9-37.9-6.8c-10.9-1.8-7.7-2.8-16.5-6.2l-11.9,7.1c9.1,7.9,31.5,21.9,36.1,31.2c-16.2-3.4-22.2-17.9-35.4-22.8
		c4.8,23.5,23.9,19.9,26.9,37.2c-19.6-8.8-29.8-22-40.8-38.5c-10.1-15.3-7.1-9.1-12.3-26.8l-10.9-29.6c10.6-28.6,5.1-23.1-5.4-47.2
		V316.5z M449.6,233.9c0.1,12.5,0.1,33.5-7,41.7c-5.2-6.7-1.5-12.3-1.8-22.8c-0.3-8.8-1.8-16.2-0.6-25.1c5.1-35.6-1.9-27.2-0.6-43.1
		l9.8,5.1c1.5,7.4-0.1,33.3,0.1,44.2V233.9z M428.4,163.2c2.1,5.1,3.3,4.9-0.1,10.1C423.3,166.7,425.7,167.3,428.4,163.2z
		 M377.5,153.9l-1.9,5.4L377.5,153.9z M525.6,174.7c1.9-2.5,1.6-3.4,3.3-5.2c5.7-6.5,12.3-2.8,20.5-10.4c15.8-14.7,12.2-3.7,23.1-10
		c5.1-2.8,9.7-10.4,16.7-14c-1.8,12.2-62.2,65.7-65.5,83.6c13.2-1.6,8.9-17.6,28-22.3c2.7-15.2,7.4-10.7,13.8-19.2
		c5.7-7.4,5.7-10.1,14.3-18.7c7.6,0.9,7.3,1.9,13.7-4.8c3.9-4,5.7-6.8,9.8-10.4c0,7,0.6,4.3-3.4,10.7c11.3,6.7-0.1-1.8,5.2,9.4
		l10.4-7.4c-1.2,3.4-8.5,12.6-11.9,15.9c-11.2,11-6.4,3-9.8,16.7c-2.4,9.2-18.9,19.2-26.2,27.2l3,7.9l-18.4,10.6
		c8.6,3.9,16.1-5.2,23.7-9.5c5.7-3.3,8-1.8,12.2-6.2c4.6-5.1,1-4.5,8.9-7.7c-2.5,10.7-7.4,15.9-17.6,22l11.2,3.1
		c-3.1,27.8-29.3,13.2-29.5,34.5c-38.5,4.6-51.3,46.7-73.3,26.3c-10.1-9.4-7-11.8-22.6-13.5c-4.3,4-4.5,6.4-10.6,5.2
		c-3.1-10.9,6.5-62,7-80.9c0.4-23.9-10.1-28.4,22-33c-1.2,4.5-9.8,12-10.1,29.8c4.3-2.1,2.4-1.6,5.2-4.2l2.2-1.9
		c11.3-9.2,10.6-20.4,21.9-31.5c4.2,7.6-3.3,15.3-7.7,22.9c-2.4,4-3.7,9.1-6.5,12.5c-3.1,3.9-5.2,3.9-8.9,8.2l10.1-1.2l11.5-19.6
		l13.1-0.9l11.5-13.1V174.7z M307,145.8c7,1.5,13.7,20.7,21.9,27.8c-0.6-4.5-6.7-25.1-8.6-30c-3.4-9.2-11.6-18-7.7-25.4
		c22.8,29.2,20.2,57.3,36.6,87.9c-0.6-19.3-14.4-47.3-13.4-65l4.6,3.7c0.4,0.3,1,0.4,1.5,0.7c1.2,0.6,3,0.9,5.5,2.1l15.8,58.5
		c0.9,2.4,2.1,6.7,3.7,9.1c5.4,7.7,0.6,2.1,5.7,4.2c0.6-21.4-25.3-80.3-20.7-88.5c6.1,9.1,8.8,22.9,13.7,33.5
		c3,6.5,5.8,10.1,8.3,16.7c3,7.4,1.8,11.9,8.2,12.9c-1.3-7.7-6.8-20.7-4-26.3c4,5.5,7.1,19.3,9.2,26.6c1.3,5.1,2.5,9.8,3.9,14.9
		c1.8,7,0.7,7.4,6.2,9.4c3.7-8.8-11-36.4-8.9-50.7l8.6,17.1c14-2.4,4-1,8-5.8c3.3-3.9-2.1,0.6,3-2.7c0.4-0.3,4.2-1.8,4.9-2.2
		c-1.6-10.6-5.5-8.6,1.2-14.6c7,5.1,10.4,22.2,9.7,30.8c-0.4,4.8-3.3,2.1-3.3,1.8c-0.1-0.3-0.7-0.1-1,0l1,8.9
		c12.8-1.9,6-0.9,11.9-8.3c4.6,10.7,5.7,75.1-0.6,83.7c-1.9,2.7-22.6,11.9-28,15.5c-10,6.5-16.2,16.1-25,19
		c-7.1-3.9-14-12.2-19.9-18c-7.3-7.1-14.4-8.9-23.4-14c-17-9.7-42.5-4.9-44.9-27.4l11.3,4.5c-0.1-12-13.2-13.8-16.5-30.8
		c10,6.4,5.5,3.7,10.6,12.6c3.1,5.5,6.1,9.2,12.3,9.7c-16.7-26.2-15.3-18.7-14.7-36.9c8.5,4.3,12,18.1,18.9,25.1
		c0.4-0.7,6,1.3-1-11.2c-8.9-16.2-24.5-69.3-20.7-75.6l8.9,25c9.5,5.5,6.7-0.4,11.9,13.4c4.2,11.2,17.6,39.3,25.6,44
		c0.6-0.9,5.5,2.5-2.1-10c-12.2-20.1-6.4-13.8-13.4-32.1C316.8,176.8,305.6,158.5,307,145.8z M624.1,256.5
		c1.2-10.9,6.8-13.4,4.3-26.2c-1.6-8.8-7.7-10.1-11.9-19.5c-11.6-26.8,39.6-44.9,19.5-87.6c-31.4-66.8-64,8-107.4,19.6
		c-21.3,5.7-32.3-17-46.3-7.3c-9.4,6.5-19.8,29.2-27.1,32c-7.3-9.4-1.9-11.6-14.4-20.5c-7.1-5.1-10.6-10.6-16.8-15.9
		c-20.1-1-39.6,12.6-58.8-7.7c-8.3-8.8-11.9-29.2-46.7-28.3c-20.4,0.6-30.6,20.1-36.7,37.6c-8,23.5-1.6,40-4.8,64.1
		c-10.7,0.6-18.4-5.4-19.9,8c-4.5,38.8,13.8,56.5,14.3,68.3c-32.7,26.2-19.8,48-33.2,82.7c-4.3,11.2-18.7,26-20.4,37.3
		c-1.8,12.8,11.8,28.4,19.9,35.6c19.3-1.2,46-8.2,61.1,4.3c2.2,11.6-6.7,19.8,1.2,32.6c5.5,8.9,16.1,12.8,25.1,4.6
		c12-10.9,15.3-36.6,32.4-40.2c-1.5,24.4-9.5,17.7-1.5,60.7c8,43.4,30.6,24.2,38.8,28c5.8,5.7,9.8,19.8,14.4,29.2
		c8,16.2,8.3,11.3,18.6,22.5c-1,14.3-9.1,35.6-5.7,56.7c3.1,18.9,6.5,40.3,5.7,59.4c-7.9-1.3-13.4-11.9-19.5-18
		c-53.3-53.1-117.5-61.7-167.5-90.9c-40.3-23.5-49.1-39.7-74.7-71.8L125.3,435c-4.2-10.1-3.1-19.2-13.8-21.6
		c-4.3,12.3,0.9,62.3,3.3,77.2c7.6,49.5,21.7,73.5,63.1,106.8c40.8,32.7,95.4,25,133.3,34.5c38.4,9.7,84,27.7,106.1,61
		c6.7,10.1,10.3,14.4,15.2,26.3c3.7,9.2,2.4,6.8,4,16.5c2.4,14.3,8,10.7,11,10.9c3.4-15.3,0.7-15.8,8-32.9
		c11-25.6,41.2-43.6,66.2-51.6c75.9-24.2,130.9-16.4,186.4-49.1c54.1-32,85.7-136.9,63.1-160.5c-3.9,3.6-24.5,45.7-39,64.6
		c-25,32.6-55.5,55.6-91.5,76c-6.2,3.6-41.2,17.9-48.2,19.8c-26.8,7.3-68,27.4-93.6,41.1c-25.7,13.8-28.9,25.6-39.1,25.4
		c-0.9-9.4-0.4-17.7-2.1-26.9c-3.6-20.7-11-42.1,3.4-69.3c4-7.4,18.4-13.2,29.6-26.3c9.8-11.6,8.9-21.3,21.6-31.7
		c9.1,1.3,3.7,2.7,12.6,3.1c24.5-23.1,24.2-46.6,25.7-70.7c23.7,1.3,20.7,45.1,41.7,39.7c7.3-28-5.2-42.8,39.6-61.7
		c34.1-14.4,35.3-14.6,54-46.9c14.7-25.4-24.1-41.2-29.9-62.6c-3.7-13.5-4.2-30-7.9-44.2c-4.3-16.5-17.7-16.4-24.4-25.6L624.1,256.5
		z"/>
	<path class="st1" d="M537,403.2c-1.3-6.2-0.4-6.7-7.1-7.3C530.7,402.1,530.7,401.8,537,403.2z"/>
</g>
</svg>
