<?xml version="1.0" encoding="utf-8"?>
<!-- Generator: Adobe Illustrator 23.0.1, SVG Export Plug-In . SVG Version: 6.00 Build 0)  -->
<svg version="1.1" id="Layer_1" xmlns="http://www.w3.org/2000/svg" xmlns:xlink="http://www.w3.org/1999/xlink" x="0px" y="0px"
	 viewBox="0 0 2879.7 1256.7" style="enable-background:new 0 0 2879.7 1256.7;" xml:space="preserve">
<path d="M771.3,736.3c1.9-10.2,5.8-19.7,10.9-28.6c4.2-7.2,8.6-14.3,13.2-21.9c-13.4-5.2-26.2-5.2-38.8,0.7
	c-1.5,0.7-2.6,2.5-3.4,4.1c-2.1,4.6-3.9,9.3-5.8,13.9c1-4.2,2.1-8.3,3.2-12.9c-7.9,5.9-8.8,8.4-6.7,18.1c0.7-0.8,1.4-1.6,2.1-2.5
	c-5,20.9-2.7,42.4-4.4,62.4c0-13.3,0-27.7,0-42.1c-0.4-0.1-0.7-0.2-1.1-0.4c-1.2,3.3-2.3,6.5-3.5,9.8c2.3-11.5,7.1-22.6,4.3-35.1
	c-8.2,6.6-10,16.3-13.8,25.1c1.2-3.9,2.3-7.8,3.7-12.4c-7.6,6.6-14.6,12.6-21.5,18.6c-0.3-0.2-0.5-0.4-0.8-0.5
	c0.3-0.8,0.7-1.5,1.2-2.8c-5.7,0-11.2,0-16.8,0c0-0.3,0-0.7-0.1-1c3,0,6.1-0.5,9,0.1c7.4,1.5,11.6-0.8,16.3-7.3
	c3-4.1,8.1-6.7,11.5-10.5c7.5-8.5,14.5-17.5,21.4-27.3c-7.7,3.5-15.5,7-23.4,10.6c1.8-2.3,3.5-4.3,5.2-6.4c0.4,4.4,2.7,1,3.7,0.7
	c7.6-2.3,15.1-5.2,22.8-7.4c6.3-1.8,12.8-2.7,20.8-4.4c-8.5-5.3-16-10.2-23.7-14.6c-1.1-0.6-3.2,0.4-4.8,0.7
	c-0.9-1.5-1.5-3.9-2.8-4.4c-6.2-2.4-12.5-4.6-19-6.3c-4.1-1.1-8.5-1.2-12.7-2.4c4,0.4,8,0.6,12,1.2c4.2,0.6,8.5,1.1,12.6,2.4
	c4,1.3,7.8,3.5,11.4,5.2c4.4-4,8.5-7.7,12.8-11.6c-1.3-1.2-2.6-2.3-3.9-3.4c5.7,6,10.1,0.9,14.5-1.9c19.8-12.7,41.4-14.9,64.1-11.5
	c2.9,0.4,6.2,1.2,8.9,0.4c14.7-4.9,29-2,42.6,3.4c8.2,3.2,16.3,1.2,24.3,2.4c20.9,3,41.8,6.1,62.6,9.6c3.6,0.6,5.7,0.3,7.2-3
	c0.2-0.5,0.7-0.9,0.8-1.5c3.1-11.1,12.4-13.9,21.8-16.6c1.2-0.3,3-0.7,3.7-0.1c5.7,5,12.2,9.5,16.6,15.5c5.1,6.9,8.5,15.2,12.6,22.9
	c0.5,0,1.1-0.1,1.6-0.1c0.5-13.3,1.1-26.7,1.6-40c0-0.9-0.2-1.9-0.7-2.6c-5.9-8-11.9-16-17.9-23.8c-0.6-0.8-1.9-1.2-2.9-1.5
	c-9.6-2.4-19.2-5-28.9-7c-2.4-0.5-5.2,0.9-8.1,0.1c2.9-0.5,5.8-1.7,8.6-1.3c8.6,1.2,17,3.5,25.6,4.6c5.9,0.7,9.3,4.2,12.7,8.2
	c3,3.5,6.2,6.8,10.3,11.3c-2.5-23.6-12.8-39.8-34.1-48.6c-1,2-2.2,4.3-3.9,7.7c0.8-3.6,1.4-6.1,2-8.5c-9.3-6.2-19.4-5.9-29.4-4.5
	c-1.7,0.2-3.6,2.5-4.7,4.2c-2.5,4.1-4.6,8.4-7.4,12.3c2.5-5.3,4.9-10.6,7.4-15.9c-0.3-0.4-0.6-0.9-1-1.3c-13.5,4.9-27.9,8.1-38,20.2
	c-0.4-0.5-0.7-1-1.1-1.5c4.4-3.3,8.5-7,13.2-9.8c4.8-2.8,10.1-4.9,15.3-6.9c5.2-1.9,10.6-3.3,15.8-5.9c-7.9,0-15.7,0-23.6,0
	c0-0.4-0.1-0.8-0.1-1.2c2.4-0.2,4.9-0.8,7.2-0.5c12.3,1.5,23.4-3.1,34.7-6.5c3.2-1,3.6-2.8,1.7-4.8c-6.1-6.6-11.8-13.7-18.8-19.2
	c-9.7-7.7-28.5-10.4-40.1,1.9c-1.5,1.6-2.4,4-3.4,5.7c0-0.2-0.3-0.9-0.8-2.7c-2.2,2.1-4.1,3.9-6.1,5.6c-0.6,0.5-1.5,0.5-2.3,0.7
	l0.1,0.1c7-10.1,16-17.5,28.2-20.3c-5.2-3.3-16.4-6.3-28.7-6.7c-9.8-0.3-19.6,0.4-26.1,0.5c8.2-3.2,15.7-4.2,35.3-1
	c13,2.1,25.8,6.1,38.6,9.2c0.4-0.4,0.7-0.8,1.1-1.1c-7.4-10.6-14.8-21.1-22.3-31.7c0.2-0.2,0.5-0.4,0.7-0.6
	c4.6,5.9,9.3,11.7,13.7,17.8c6.1,8.4,9.8,18.7,21.6,23.9c-1.4-16.5-2.8-32.5-4.2-48.4c0.2,0,0.3-0.1,0.5-0.1c1,6.2,2,12.4,3.1,18.6
	c0.2,1.3,1,2.5,1.5,3.7c0.2,7.6,0.8,15.3,0.6,22.9c-0.1,5.3,2,8.9,7,11.5c0.6-2.8,1.1-5.5,1.7-8.2c0.6-0.2,1.1-0.4,1.7-0.6
	c-4.1,13.4,5.5,18.9,12.8,26.1c1.4-2.2,2.4-3.8,3.4-5.3c-0.2,2.6-1.6,6.2-0.4,7.7c4.8,6,10.4,11.4,15.7,17.1
	c3.5-3.8,2.4-14.3-1.6-16.8c-0.1-0.1-0.5,0.4-0.8,0.6c-0.1,0.1-0.2,0.2-0.4,0.4c-0.1-0.1-0.2-0.3-0.3-0.4c1.3-6-1.7-10.3-7.3-10.4
	c4.3-1.6,4.3-1.6,7.6,2.1c0.5,0.6,2,0.4,3,0.5c-0.6,6.8,3.2,12,6.6,17.3c0.7,4.5,1.2,9.1,2.2,13.6c2.9,12.5,6.1,24.9,9.3,37.7
	c0.8-0.7,1.4-1,1.6-1.4c7.7-12.3,15.4-24.7,23.1-37c0.4-0.6,0.8-1.3,0.8-2c0.1-11.7,0-23.4,0-36.3c-13.3,8.7-27.8,13.5-37.4,25.7
	c3.2-3.8,5.7-8.4,9.6-11.2c7.7-5.6,16-10.4,24.2-15.2c2.9-1.7,4-3.8,4-7.2c-0.1-7.9,0.3-15.7,0.4-23.6c0.1-7,0-13.9,0-22.2
	c-7.2,6.3-14.7,11-19.5,17.6c-8.2,11.3-14.8,23.7-22.1,35.7c1.2-3.5,2-7.2,3.7-10.4c4.6-8.2,8.9-16.6,14.6-23.9
	c6.3-8,14.1-14.8,21-22.4c1.6-1.7,2.1-4.3,3.2-6.4c0.3,0.5,0.6,1.1,0.9,1.6c-11.5,10.1-23.9,19.4-34.2,30.6
	c-9.6,10.4-16.9,22.7-25.3,34.2c6.9-16,18-29.1,29.3-42.1c7-8.1,16.3-14.8,17.9-26.5c-0.2,1.7-0.5,3.4-0.7,5.1
	c14.9-13.4,20.8-32.2,31.6-48.5c-5.8-0.8-11.3-0.6-16.8-0.8c-3.6-0.2-5.4,1-6.2,4.6c-1.9,9.1-4.2,18.1-6.4,27.2
	c1.6-10.4,3.2-20.8,5-32.7c-5.3,1.2-10.7,1.7-15.5,3.7c-9,3.6-18.8,6.6-26.2,12.5c-10.1,8.1-18.3,18.6-27.3,28
	c5.8-7,11.9-13.7,17.3-20.9c10.2-13.4,25.7-18.4,39.8-25.2c9-4.3,14.5-6.8,19.7-15c0.5-0.8,1-1.6,1.4-2.4c2.5-5.1,5.3-9.7,12.6-8.2
	c0.3-0.6,0.6-1.3,0.9-1.9c-2-1.5-4-3.1-6.2-4.5c-13.6-8.8-26.3-18.5-43.9-19.2c-13.4-0.5-25.6,0.3-36.7,8.2c-0.7,0.5-1.7,0.7-2.6,1
	c-0.1,0-0.3-0.2-1.2-0.6c10.2-4.9,18.6-11.5,30.9-11.7c16.6-0.2,31.5,2.8,46.2,10.8c13,7.1,22.5,17.9,33.1,27.5
	c0.7,0.6,1.3,1.4,1.8,2.2c6.6,9.7,15.5,16,26.2,20.9c10.4,4.8,19.6,12.4,29.2,18.8c1.9,1.2,3.3,3.3,5.3,4.2
	c18.6,8.4,28.8,25.3,40.4,40.6c2.8,3.7,3.6,8.9,5.2,13.3c5.4-6.1,11.2-11.8,15.7-18.4c4.2-6.1,10.4-8.6,16.3-12.1
	c9.7-5.8,17.9,0.7,26.7,2.9c2.7,0.7,5.7,1,8.5,0.7c8-1,15.9-2.7,23.8-3.5c2.5-0.3,5.4,1,7.8,2c9.3,4,18.5,8,27.6,12.5
	c3.3,1.6,5.9,4.4,8.5,7c-12.5-9.6-28-12.6-41.9-19.1c-0.8-0.4-1.9-0.3-2.7-0.1c-8.7,2-17.4,4.1-27.8,6.5
	c12.3,11.3,16,25.8,19.8,40.2c-1.3-3.5-2.5-7-3.8-10.5c-1.4-3.7-2.4-7.6-4.4-10.9c-3.5-5.6-7.7-10.9-11.7-16.2c-2-2.6-4-1.9-6.2,0.1
	c-12.1,11.2-24.7,22-32.1,37.2c-1.8,3.7-4.5,6.5-6.4,10c-5,9.2-10.3,17.9-7.9,29.4c1.4,6.9,0.1,14.2,0.8,21.3
	c0.8,8.3,7.3,10.9,13.9,6.1c3.2-2.3,6.3-4.7,9.5-7c1.2-0.8,2.5-1.9,3.9-2.1c10.5-1.5,21-3.2,31.6-4c3.2-0.2,6.7,1.8,9.9,3.3
	c2.6,1.2,4.3,1.2,6.3-1.2c4.3-4.9,9-9.5,13.4-14.3c0.7-0.8,1.3-1.9,1.5-3c1-6.1,5.7-9.7,10.1-12.9c2.3-1.7,6.3-4.4,10.2-0.9
	c1.2,1.1,3.8,1,5.7,1c1.6,0,3.3-0.9,4.9-1c8.8-0.4,14.6-4.3,17.1-13c0.4-1.4,2.1-2.5,2.5-3.8c2.1-6.2,4.3-12.3,6.4-18.5
	c-0.4-0.4-0.9-0.7-1.3-1.1c-6.9,8.5-13.8,16.9-20.4,25c2.6-4.3,5.3-9.2,8.5-13.9c1.5-2.3,3.8-4.2,5.7-6.2
	c12.8-13.4,12.9-13.3,16.4-31.1c1.4-7.3,2.9-14.7,3.5-22.1c1.5-16.2-0.7-31.2-13.3-43.5c-7.4-7.2-14.2-14.8-23.7-19.4
	c-6-2.9-22.1-1.5-27.1,3c-10.3,9.3-21,18.2-25.2,32.4c3.7-7.8,4.8-17,12.3-22.7c1.5-1.1,3-2.4,4-3.9c6.8-10.4,17.4-13.5,28.7-14.9
	c2.8-0.3,5.9,0.1,8.7,1c11.3,3.7,20.8,10.1,28.2,19.5c1.4,1.7,2.7,3.5,4.1,5.2c0.7-0.4,1.4-0.9,2.2-1.3c-1.2-3.2-1.6-7-3.7-9.6
	c-9-11.1-17.4-22.8-27.9-32.3c-12.3-11.2-26.7-19.5-44.5-20.3c-7.8-0.4-15.2-0.8-22.3,3c-1.6,0.9-3.5,1.4-5.2,2.1
	c-9.4,4-19.8,6.1-25.6,16.1c-0.5-0.6-0.9-1.3-1.4-1.9c5.1-3.6,9.9-7.9,15.3-10.8c7.1-3.8,14.6-6.8,22.1-9.7c2.8-1.1,6.1-1.7,9.2-1.6
	c8.8,0.4,17.6,0.9,26.3,2.1c3.7,0.5,7.1,2.9,10.7,4.5c18.6,8.1,32.2,22.2,44.5,37.8c0.4,0.5,1,0.9,3.1,2.7
	c1.2-13.5,3.1-25.6,3.2-37.7c0.1-12-1.7-24-2.7-36c-0.9-0.1-1.8-0.1-2.7-0.2c-1.9,10.3-3.8,20.5-5.6,30.8c-0.4-0.1-0.8-0.1-1.1-0.2
	c2-10.8,3.9-21.6,6-32.3c0.2-1,1.6-2.4,2.4-2.4c0.9,0,2.4,1.3,2.7,2.2c1.9,7.2,3.8,14.4,5.1,21.7c1,5.9,1.1,11.9,1.8,19.3
	c2.2-2.4,3.6-3.9,5-5.5c9.5-10.8,19.2-21.6,28.5-32.6c3.5-4.1,6.3-8.8,9.2-13.4c0.6-0.9,0.6-3.1-0.1-3.9c-8.3-9.2-16.7-18.5-30-20.2
	c-3.1-0.4-6.4,0.7-9.1,1c5.6-3.7,15.3-3.3,22.4,1.6c3.6,2.4,7.1,4.9,10.4,7.7c3.1,2.7,5.8,5.8,9.8,9.9c1.5-2.6,2.9-4.9,4.6-7.8
	c1.1,1.8,1.7,2.5,1.5,2.7c-4.3,8.5-8.7,16.9-12.9,25.4c-1,1.9-1.3,4.2-1.9,6.3c2.8,0.5,5.7,1.9,8.2,1.4c13.9-2.7,27.1-6.2,41.8-1.5
	c14.3,4.5,25.2,12.3,34.5,23.3c-2.1-1.6-4.5-2.8-6.2-4.7c-8.2-9.2-18.9-13-30.4-16.5c-12.7-3.8-23.6,0.8-35.5,3.6
	c2.3,2,4.7,3.4,7.3,3.9c7.5,1.4,15.2,1.7,22.5,3.8c15.3,4.5,28.9,12.1,39.8,23.9c1.1,1.2,2.5,2.3,3.8,3.4c4.3,3.8,6.9,3.5,11.6-1.1
	c2,3.5,4.1,7,6.1,10.4c-0.4,0.3-0.9,0.5-1.3,0.8c-1.4-2.5-2.8-5-4.6-8.1c-2,0.9-4.1,1.9-6.8,3.1c1.5,2.7,2.8,5,4.1,7.4
	c-0.2,0.1-0.4,0.3-0.6,0.4c-1.3-1.8-2.6-3.6-4.6-6.3c-11.6,35.5-10.3,71.5-13.4,108.3c6.7-3.2,12.2-6.6,18.7-5.2
	c2.2,0.5,4.5,1.3,6.2,2.7c12.8,10.4,16.5,25.8,20.4,40.4c4,15.1,5.5,31,8,46.5c0.4,2.7,0.1,5.6,0.1,6.9c-2.7-14.1-4.8-29.7-8.8-44.8
	c-3.2-12.2-8.3-23.9-13.6-35.4c-1.8-3.9-6.6-6.6-10.3-9.3c-2.5-1.8-10.6,1.8-14.3,5.9c0.7,1.7,1.5,3.5,2.3,5.3
	c-0.2,0.1-0.3,0.2-0.5,0.3c-0.9-1.2-1.8-2.5-2.7-3.7c-7.6,4.9-9.3,17.8-3.6,24.4c2.6,3,4.9,6.2,6.4,10c-1.8-2.4-3.7-4.7-5.5-7.1
	c-0.4,0.2-0.8,0.5-1.3,0.7c2.9,7.4,5.9,14.8,8.7,22.2c9,23.4,22.8,44.2,34.7,66.1c4.7,8.7,8.6,17.8,13,27c4.6-4,8.9-8.9,14.2-12.2
	c4.6-2.9,10.5-3.8,15.6-5.9c6.1-2.5,11.3-1,16,3c3.4,2.8,6.5,2.1,10.6,1.4c6.3-1,13,0.3,19.5,0.9c9.1,0.9,18.3,1.9,27.4,3
	c1.9,0.2,3.9,1.2,5.5,2.3c9.4,6.5,18.9,13,28,19.8c3.1,2.3,5.8,5.3,7.9,8.5c6.2,9.4,12,19,17.9,28.6c1.2,2,2.1,4.2,2.5,6.7
	c-7.7-11.3-15.2-22.7-23.1-33.9c-2.1-3-4.9-5.7-7.9-7.7c-9.1-6-18.3-11.7-27.7-17.1c-2.6-1.5-6-1.9-9.4-2
	c7.5,9.9,16.9,17.7,24.4,27.1c-0.4,0.3-0.7,0.6-1.1,0.9c-9-8.3-18-16.8-27.2-24.9c-2-1.8-5.2-2.8-7.9-3c-4.5-0.5-9-0.3-13.5,0.1
	c-3.1,0.3-6.2,1.7-10.2,2.8c16.1,23.3,21.6,48.7,25.2,74.8c-6.8-24.7-11.6-50.3-29.5-71.9c-7.1,5.2-14,9.9-20.4,15.1
	c-4.3,3.6-7.7,8.2-11.9,12c-10.4,9.7-13.1,22.3-15.7,35.6c-3.7,19-0.9,38.9-7.6,57.5c-0.7,2,0.1,4.5-0.2,6.7c-0.6,4.5-1.7,9-2,13.6
	c-0.3,5.7-1.2,11.7,0.2,17c2.5,9.1,2,18.1,2.6,27.2c0.9,13,0.9,26,5.4,39c3.2,9.4,9.2,15.9,14.1,23.6c4.9,7.7,8.5,16.3,13.6,23.8
	c5.8,8.5,9.8,17.4,11.7,27.6c1.4,7.3,4.6,14.2,6.6,21.4c1.4,5,2.1,10.2,4.8,17.2c0.9-1.8,1.5-3.7,2.7-5.3
	c7.2-10.1,14.5-20.1,21.8-30.1c0.9-1.2,1.7-2.6,2.9-3.4c7.2-5.3,10.8-12.7,12.6-21.2c2.4-11.4,7.3-22.1,14.8-30.3
	c5.2-5.7,4.6-10.4,4.1-16.3c-1.6-17.2-1.7-34.6-4.9-51.5c-3-15.3-6.4-30.6-18.7-42.9c-8.5-8.5-16.4-14.2-28.8-13.3
	c-6.3,0.5-12.8-0.8-19.1-0.4c-3.7,0.2-7.3,2-10.9,3c2.3-3.4,5.2-5.3,10-5.3c11.2,0.1,22.5-0.6,33.7-0.7c2.4,0,5.1,1,7,2.4
	c7.9,6,15.5,12.4,23.2,18.7c1.1,0.9,2.4,2,3,3.3c8.5,16.5,17.4,32.8,21.6,51.1c1.7,7.4,3.8,14.7,6,23c4.1-5.7,7.7-10.5,8.1-17.3
	c0.6-10.1,1.2-20.2,2.8-30.1c1.6-9.7-0.1-19.6,2.9-29.1c0.9-2.7,0.7-5.8,1.9-8.3c0.7-1.4,3.2-2.7,4.8-2.7c1,0,2.5,2.6,2.8,4.1
	c1.7,10.5,3.3,21.1,4.7,31.7c0.7,5.2,0.9,10.4,1.4,16.7c3.2-2.7,6-4.7,8.5-7c9.2-8.1,18.4-16.2,27.4-24.6c3.8-3.6,7-7.8,10.3-11.9
	c11.2-14,18.7-30,25.1-46.5c1.5-4,1.1-8.8,1.7-13.1c1.2-9,2.5-18.1,3.5-27.1c0.2-1.8-0.3-3.7-0.9-5.5c-5.6-15.3-11.3-30.5-16.8-45.8
	c-4-11.1-13.2-18.1-20.6-26.4c-2.1-2.3-7-2-10.5-3.3c-10.7-4-19.9-1.7-29.3,4.9c-8,5.6-16.9,9.8-20.8,19.7c-0.5-0.5-1-0.9-1.6-1.4
	c3.5-4.3,6.6-9.1,10.7-12.9c3.8-3.5,9.1-5.4,13.1-8.7c7.9-6.5,16.2-6.7,26.1-5.7c11.1,1.1,18.9,5.7,26.9,12.8
	c14.3,12.7,21.4,29.5,28.3,46.5c2.6,6.4,4.7,12.9,7.1,19.5c6.9-6.5,10.1-13.9,11.8-23c2.2-12.3,7.5-24,10.5-36.3
	c2.5-10.5,7.1-19.6,13.4-28.1c5.8-7.8,17.1-7.2,21.9,1.1c5.3,9.1,10.2,18.2,10.2,26.4c-3.5-6.9-8-16.1-13-24.9c-1.1-2-3.8-4.1-6-4.4
	c-3.7-0.5-6.8,0.8-9.1,4.9c-7.2,12.8-10.1,26.9-13.1,41c-1.4,6.7-2.6,13.5-4,21.2c2.3-0.5,3.8-0.7,5.3-1.1c11.5-3.6,23.2-6,35.4-4.6
	c0.7,0.1,1.5,0.3,2.2,0.1c13.2-3.6,25.6,0.8,38,4.1c3.4,0.9,7.1,3.1,9.4,5.7c4.4,5,10.1,4.2,15.2,3.7c6.2-0.6,11.5,0.1,17.2,2.6
	c2.8,1.2,7.1-0.3,10.5-1.2c10.4-2.8,20.5-6.5,31.7-5.5c4.7,0.4,9.6-0.4,14.4-0.9c10.9-1.2,20.3,3.3,30.4,6.3
	c11.1,3.3,18.9,10.7,28.1,16.6c11.2,7.2,16.7,18.8,24.3,29c-16.9-26.1-40.7-42.1-71.1-47.3c-16.5-2.9-48.5,2.8-59.6,9.1
	c1.2,0.7,2.6,1.1,2.9,2c3.6,9.4,11.1,9.4,19.6,9.5c19.6,0.2,38.6,4.8,55.3,14.9c9.7,5.9,18.4,14.4,25.7,23.2
	c7.2,8.7,12.2,19.2,18.2,28.9c0.4,0.7,0.6,1.6,0.5,2.7c-10.2-20.7-23.9-38.5-43.7-50.4c-19.7-11.8-41.7-15.7-66.2-14.1
	c7,14.3,13.5,27.5,20.1,40.6c9.8,19.5,14.9,40.4,18,61.8c1,7.2,1.9,14.4,2.3,21.7c-4.4-29-9.7-57.6-24.8-84.3
	c3.4,24,6.6,47.1,9.9,70.1c-0.5,0.1-0.9,0.1-1.4,0.2c-1.6-13.2-3-26.4-5-39.5c-1.5-9.4-3.8-18.7-6-28c-0.4-1.5-2.2-2.6-4.1-4.7
	c-2.6,7.4-5,13.9-7.1,20.5c-2.8,8.9-4.9,18-8.1,26.8c-3.7,10.4-3,20.4-0.6,30.8c1.4,6.1,1.6,12.6,1.7,19c-1.6-9.3-3.2-18.5-4.8-27.8
	c-0.6,0-1.2,0-1.8,0c-2.7,15.4-5.5,30.8-8.2,46.2c-0.3,0-0.6-0.1-0.8-0.1c1.9-11.8,2.9-23.8,5.8-35.3c3.6-14.3,1.7-27.4-3.3-41.1
	c-6.1-16.7-14.3-32.1-24.3-46.7c-2.7-3.9-6.3-7.2-10.7-10.1c2.1,13.2,3.4,26.6,6.4,39.7c5.7,25.5,9.2,51.3,10.5,77.3
	c0.5,9.8,2.6,18.8,6.2,27.7c2.3,5.7,3.9,11.6,4.9,17.7c-2.8-7.4-5.6-14.9-8.3-22.3c-0.3,0-0.7,0.1-1,0.1c0,6,0,11.9,0,17.9
	c-1.7-14.5-0.9-29.4-10.3-43c0,11,0,21.1,0,31.3c-0.6,0-1.2,0-1.8,0c0-9.4-0.1-18.9,0-28.3c0.1-4.5-1.1-8.3-4.2-11.7
	c-4.2-4.8-8.4-9.7-11.8-15c-6.3-10.2-17.2-13.9-26.7-19.9c9.6,19,10.7,40.9,22.3,59.1c3.7,5.8,4.6,13.2,5.9,20.3
	c-3.6-8.7-7.3-17.4-10.9-26.1c-0.5,0.2-0.9,0.3-1.4,0.5c0.5,4.5,1.1,9,1.6,13.5c-0.2,0-0.5,0.1-0.7,0.1c-1.5-6.4-3-12.8-4.7-19.1
	c-2.3-8.9-6.1-16.8-14.5-21.7c-2.5-1.5-4.7-3.8-6.7-6c-7.3-8.2-16.5-12.6-27-16.2c-10.4-3.5-20.5-3.6-30.9-1.9
	c-4.2,0.7-8.3,1.6-13.3,2.5c4.5,6.8,9.1,12.2,12,18.3c2.8,6,4.1,12.8,5.9,19.3c1.8,6.6,3.4,13.3,5.1,19.9c-0.5,0.1-1,0.3-1.4,0.4
	c-3.6-10.4-7.5-20.7-10.6-31.2c-2.7-9.1-9.5-15.1-15-22.1c-0.7-0.9-3.3-0.8-4.9-0.4c-13,3.1-20.8,12.4-28.1,22.8
	c-6.5,9.3-13.9,18.1-20.2,27.5c-4.3,6.3-7.3,13.5-11,20.2c-1.1,1.9-2.1,4.2-3.9,5.3c-9.8,6-13.8,15.5-16.1,25.9
	c-1.5,6.8-4.4,12.4-9.8,17c-2.5,2.1-3.7,5.8-5.2,8.8c-2.9,5.8-5.9,11.5-8.5,17.4c-1.6,3.6-2.5,7.4-3.5,11.2
	c-2.4,8.4-6,15.9-11.7,22.8c-5.1,6.2-8.8,13.4-13.4,20c-3.6,5.2-7.6,10.1-11.1,15.3c-3.8,5.5-7.1,11.4-10.9,16.9
	c-2,2.8-4.4,5.5-7,7.7c-4.9,4.1-9.9,7.9-15.1,11.6c-5.6,4.1-3.8,10-2.3,14.4c4.2,12.6,9.6,24.8,14.6,37.2c0.4,1.1,1.7,2.2,2.8,2.5
	c9.3,2.7,18.5,6.4,28,0.5c1.9-1.2,4.7-1.3,7-1.3c27.2-0.1,54.3-0.1,81.6,0.9c-18.7,1.6-37.3,3.3-56,4.9c0,0.4,0,0.8,0,1.2
	c17,0,33.9,0,50.9,0c0,0.3,0,0.5-0.1,0.8c-15.4,1.7-30.8,3.4-46.2,5.2c-0.1,0.7-0.1,1.3-0.2,2c8.6,1.3,17.4,4,25.9,3.4
	c10.2-0.7,20.3-4.1,30.5-6.4c1.8-0.4,3.7-0.9,5.5-1c39.6-0.5,79.2-1.8,118.8-1.1c24.9,0.4,49,5.8,72.1,16.7
	c31,14.6,59.6,33.2,89.2,50c11.3,6.4,23.9,10.9,36.2,15.3c27.1,9.7,54.9,17.9,81.7,28.6c21.2,8.5,41.3,19.6,61.8,29.8
	c19.1,9.5,36.4,21.9,51.3,37c7.8,7.9,14.7,17.5,14.3,29.6c-0.3,7.6-2.4,15-8.8,20.3c-28.9,23.3-63,36.2-97.5,48.3
	c-41.3,14.5-83.9,23.9-126.9,31.7c-36.5,6.7-73.3,12-110.1,16.1c-41.7,4.6-83.7,7.6-125.5,10.7c-30.4,2.3-60.9,3.9-91.3,5.6
	c-35.7,2.1-71.5,4-107.2,6c-14.2,0.8-28.4,2.2-42.7,2.7c-11.6,0.4-23.2,0.1-34.8,0c-21.6-0.3-43.1-0.3-64.7-1
	c-30.3-1.1-60.8-1.7-91-4.5c-19.9-1.8-39.3-7.7-59.1-10.8c-35.7-5.6-71.4-11.4-107.3-15.5c-44.9-5.1-90-8.3-134.9-12.9
	c-33.2-3.5-66.2-7.8-99.3-12.2c-22.6-3-45.2-6.6-67.7-10.5c-15.3-2.6-30.6-5.5-45.7-9.2c-24.7-6.1-49.3-12.4-73.6-19.8
	c-20.7-6.3-40.9-14.5-61.4-21.6c-25.1-8.7-50.3-16.8-75.3-25.9c-9.5-3.4-18.5-8.2-27.3-13.1c-26.3-14.7-52.1-30.2-78.7-44.4
	c-8.8-4.7-8.2-11.9-9.5-19.1c-0.2-1,1-2.7,2-3.5c9.8-7.8,19.4-15.9,26.9-26.1c1-1.4,3-2.2,4.6-3.1c14.8-8.2,29.2-17,44.4-24.2
	c16.1-7.6,32.7-13.8,49.4-20.2c33.2-12.6,67.5-21,102.1-28.4c30.3-6.5,60.6-13.3,91.1-19.3c11-2.2,22.3-2.7,33.5-3.7
	c8.7-0.8,16.5-3.6,24.5-7.3c7.6-3.5,16.3-4.8,24.6-6.7c27.3-6.1,55.1-5.2,82.8-6.6c29.8-1.6,59.6-2.5,89.4-3.7
	c1.7-0.1,3.4-0.2,5,0.1c24.3,3.1,48.5,7.1,72.9,9.2c11.1,1,22.8-0.9,33.9-3c23.3-4.3,46.6-4.2,70-3.6c31.1,0.8,62.3,0.5,93.4,0.8
	c13.6,0.1,27.1-0.4,40.3,4.3c6.2,2.2,13.4,1.5,19.3,2c0.1,0-1,0.3-2,0.6c0,0.5,0,1.1,0,1.6c16.8,0,33.6,0,51.2,0
	c9.1-12.7,11-29.2,12-45.6c1.2-19.9-2.1-39.4-5.7-58.9c-1.7-9.4-2.1-19-3.4-28.4c-0.5-3.8-1.4-7.7-2.9-11.3
	c-4.5-11.1-9-22.3-14-33.1c-2.2-4.7-5.2-9.1-8.6-13c-7.1-8-14.5-15.7-22.1-23.2c-2.1-2.1-5.1-3.5-7.8-4.9c-4.9-2.5-10.5-4-14.9-7.3
	c-11.2-8.3-23.7-13.3-36.8-17.4c-8.1-2.6-15.9-6.5-23.6-10.4c-14.9-7.6-30.3-13.7-46.7-17.6c-7.2-1.7-14.1-4.9-21.1-7.5
	c-10.7-4-21.3-8.1-32.1-11.8c-1.4-0.5-4.2,0.4-5,1.6c-4,6-7.7,12.3-11.3,18.6c-1.4,2.4-2.3,5.1-3.4,7.7c-0.6-0.3-1.2-0.5-1.8-0.8
	c4.3-9.8,8.6-19.5,13.2-30c-7.7-2-16.3-4.3-24.9-6.6c-2.2-0.6-4.5-0.7-6.6-1.3c-12.9-3.9-25.7-4.7-39.2-1.6
	c-7.2,1.7-15.2-0.5-22.9-0.4c-4.1,0-8.5,0.4-12.2,2c-13.1,5.6-26.4,7.7-40.4,3.8c-1.8-0.5-4.3,0.4-6.2,1.2
	c-23,10.8-42.6,26.3-60.6,44.1c-11.7,11.6-23.3,23.5-35.6,34.5c-16.1,14.4-33.1,28.3-54.6,33.5c-22.2,5.4-36.4,18.7-45.6,38.7
	c-0.5,1.2-1.2,2.3-2.1,3.8c0.9-10.4,10.3-23.4,26.9-39.2c-5.6,0-11.3,0.3-16.9-0.1c-5.8-0.4-11.5-1.8-17.3-2.3
	c-5.4-0.4-10.5-4.8-15.6-2.3c-4.3-4.3-10.7-4.3-16-6.7c-6.7-3-12.1-0.5-17.9,2.4c2.4-1.5,4.8-3.1,7.9-5.1c-5-1.8-9-3.8-13.3-4.7
	c-15.4-3.2-30.8-7.5-46.4-8.4c-17.5-1.1-34.8,2.3-49.2,13.3c-1.1-1-2.1-1.8-3-2.6c8.8-3.7,17.7-7.4,26.5-11.1
	c-0.1-0.5-0.2-0.9-0.3-1.4c-1.3-0.2-2.6-0.5-4-0.7c-8.1-1.1-16.3-1.6-24.3-3.4c-6.8-1.5-13.2-4.5-19.8-6.9
	c-11.5-4.3-23.4-8.2-35.5-4.4c-9,2.8-14.5,10.5-19,18.7c-2.9-1.5-5.5,1.6-7.5,8.8c0.1-2.2,0.2-4.4,0.3-6.7
	c-6.4,6.7-12.9,13.5-20.2,21.2c0.3-5.3,2.3-7.3,5.3-9.4c4.3-3.1,8.1-7.1,11.4-11.3c7.6-9.4,15.2-18.5,26.8-23.7
	c-7.7,0-15.4,0-23.6,0c16.5-3,32.4-0.5,48.5,0.2c-0.6-1-1.3-2.1-2.3-3.5c3.4,2.2,6.3,4.5,9.6,5.9c2.7,1.1,5.7,3.1,9.3,2.6
	c4.6,1.8,10.2,5.3,16,6.1c17.7,2.2,35.6,3.4,53.4,5c4.4,0.4,8.8,0.9,13.3,0.8c-13.7-8.3-28.4-12.2-44.4-12.3
	c4.4-0.1,8.8-0.8,13.1-0.2c12.5,1.9,24.3,5.5,35.7,11.3c7.5,3.8,16.2,5.2,24.4,7.6c0.5-0.7,0.9-1.4,1.4-2.1
	c-7.3-7.5-14.3-15.2-22-22.3c-7.6-7.1-15.2-14.5-26.1-16.9c6.8,1.7,13.1,3.3,19,8.1c11.8,9.6,21.9,20.8,32.5,31.6
	c4.8,4.9,13.5,6.1,21,7.9c-10.6-16.1-22.9-29.7-40.7-37.4c0.2-0.4,0.4-0.8,0.6-1.3c4.7,2.5,9.8,4.5,14.1,7.7
	c10.7,7.7,20.3,16.7,27.9,27.5c3.1,4.4,7.7,4.8,12.3,5.3c2.7,0.2,5.5,0,8.7,0c15.3-28.7,38.9-49,71.5-59.9c-1.6-1.2-2.5-2.1-3.5-2.7
	c-10-6.2-19.8-12.9-30.2-18.4c-5-2.7-11-4.2-16.7-4.6c-12.2-0.7-24.6-2.1-36.2,4.5c-7.5,4.2-15.8,7-20.5,15.1
	c2.5-7.5,16.2-18.6,28.8-21.6c12.1-2.8,24.6-4.3,37.4-1.4c-3.9-4.5-8.2-8.7-11.6-13.5c-6.4-9.1-12.5-18.4-18.4-27.8
	c-4.9-7.8-10.6-13.8-20.1-16.6c-6-1.8-9.4,0.9-14.4,3.5c7-9.8,15.3-3.6,24.4-3c-8.5-14.6-17.2-27.3-30.4-37.8
	c-3.7,9.1-7.1,17.6-10.6,26.2c-0.3-0.1-0.5-0.2-0.8-0.3c2.8-7.7,5.4-15.5,8.4-23.1c1.3-3.3,1-5.3-2.7-6.8
	c-7.7,11.1-11.9,24.2-13.3,37c-1.3,12.7,2.2,25.9,3.3,39c-1.6-8.1-2.9-16.2-4.8-24.2c-2.6-11-5.4-22-8.5-32.9
	c-2.3-7.8-5.7-15.3-7.9-23.2c-1.4-5.2-4.8-4-7.8-3.4c-0.5,0.1-0.9,4.6-0.1,6.6c3.6,8.8,8.1,17.1,11.3,26c2.9,8.1,4.6,16.5,6.6,24.9
	c2,8.3,3.7,16.6,4.9,25c-5.6-25-13.6-49-24.8-72.2c-5.3,29.5-6.9,59.2-8.3,89c-0.5,0-0.9-0.1-1.4-0.1c2.1-30.3,4.2-60.5,6.1-90.8
	c0.2-2.5-0.6-5.1-1-7.7c-1.8,1.9-4.1,3.5-5.3,5.7c-7.8,13.9-12.1,29-15,44.5c-0.3,1.6-0.9,3.2-2.6,4.5c2.6-11,5.1-22,7.4-31.8
	c-3,1.7-6.8,3.9-10.7,6.1c8.4-6.3,13.1-15,17.6-24.7c-12.2-0.4-22.1,3.9-31.3,10.2c2.7-2.2,5.1-5,8.1-6.4c7.3-3.4,14.8-6.1,22.3-9
	c5.1-2,6.7-5.9,6.5-11.5c-16.8,1-32.1,5.3-45.8,14.5c1.9-2,3.5-5.1,5.8-5.7c11.4-3.4,21.7-10.6,34.3-9.8c1.6,0.1,3.3-0.9,6.1-1.7
	c-11.4-4.6-21.7-8.7-32.2-13c-1,2.3-1.6,4.1-2.6,5.6c-4.6,6.5-9.6,12.8-14,19.5c-1.5,2.4-1.5,5.8-2.1,8.7
	C776.9,725.8,774.1,731.1,771.3,736.3z M1126.1,739.1c-1.3,5.1,2.4,6.4,6.4,8.4c-0.4-7.2-0.8-13.7-1.2-20.2c-0.4,0-0.8,0-1.1,0
	c-1.4,4-2.8,8-4.1,12c1.3-5.8,3.3-11.6,3.8-17.5c0.5-6.3-0.3-12.7-0.5-19c-0.6,0-1.1,0.1-1.7,0.1c-1.1,11.2-2.2,22.4-3.2,33.5
	C1124.3,737.3,1125.5,738.2,1126.1,739.1z M1153.2,711.6c3.2-4.9,6.5-9.8,9.5-14.8c2.2-3.6,4-7.4,6.3-11.7c-7.7,0-14.3,0-22.2,0
	c1.7,8.4,3.2,16.1,4.7,23.8c-0.5,3.8-1,7.6-1.6,11.4c0.7,0.1,1.5,0.2,2.2,0.2C1152.5,717.6,1152.9,714.6,1153.2,711.6z M913.8,720.4
	c1.6-5,3.7-9.8,4.6-14.9c1.1-6.1,0.3-12.2-3.7-17.7C913.4,698.7,912.4,709.5,913.8,720.4c-0.5,6.3-0.5,12.6-1.5,18.8
	c-1.6,9.7,5.3,15.1,9.1,22c0.5-0.1,1.1-0.3,1.6-0.4c-1.1-17.1-2.1-34.2-3.2-51.2c-0.4,0-0.7,0-1.1,0
	C917.1,713.2,915.4,716.9,913.8,720.4z M1142.4,753.5c2.4,2.4,4.8,4.8,7.2,7.2c0.5-0.3,0.9-0.7,1.4-1c-0.4-7-0.8-13.9-1.4-20.9
	c0-0.5-1.4-0.9-2.1-1.3c-0.2-9.1-0.7-18.1-0.6-27.2c0.1-5.3-2.9-7.5-7.2-9.3c-4.4,7.5-7.7,14.8-6.8,23.5c0.7,6.5,1,13.1,0.9,19.6
	C1133.8,750.2,1137.1,752.6,1142.4,753.5z M1093.4,607.8c0-1.6,0-3.1,0-5.8c-15.6,7.8-25.3,20.2-34.4,33.2c-1.6,2.3,1.7,7.1,4.4,6.5
	c4.4-1,6.1,1.3,7.5,4.7c0.8,1.8,1.9,3.5,3.3,6.2c6.4-14.7,12.4-28.7,18.4-42.6c-0.1,0.8-0.1,1.6-0.2,2.5c0.3,0.1,0.7,0.3,1,0.4
	c2.9-4.4,5.8-8.7,9-13.6C1095.9,599.4,1095,603.9,1093.4,607.8z M1291.8,605.8c-1.4,2.5-1.3,4.5,1,6.8c3.1,3.2,5.1,7.4,8.2,10.6
	c3.1,3.1,6.9,5.5,10.7,8.4c3.6-7.2,6.3-13.5,9.7-19.5c1.6-2.8,1.6-4.9-0.8-6.8c-4.8-4.1-9.7-8-14.5-12.1c-2.8-2.4-5.2-2.4-7.7,0.1
	c2.1-4.3-0.7-8.2-6.5-8.6c-5.8-0.4-11.7,0.4-17.4-0.5c-10.6-1.7-17.4,4.6-25,10.7c16.7-5.6,28.9,1.9,39.7,13.3
	C1290.1,607.2,1291,606.5,1291.8,605.8z M1119.7,582.7c0.9,0.3,2,1.1,2.6,0.8c11.3-6.1,23.5-7.9,36.2-8.3c6.5-0.2,13-2.9,20.1-4.6
	c-3.6-3.5-6.3-6.6-9.4-9.2c-3.8-3.3-8-6.2-12-9.2c-5.2-3.9-17.8-3.7-23,0.2c-15.1,11.3-15.1,11.3-14.3,30.6
	c-0.9-4.9-1.7-9.9-2.6-14.8c-0.7-0.2-1.4-0.5-2.1-0.7c-5.6,9.8-11.1,19.6-16.7,29.4c0.5,0.6,1.1,1.1,1.6,1.7
	c6.1-4.1,12.2-8.1,18.2-12.3C1119.1,585.5,1119.2,583.9,1119.7,582.7z M770.1,649.5c1.5,1,3.3,1.8,4.5,3.1
	c7.2,7.5,14.2,15.3,21.5,22.8c1.5,1.5,3.8,2.1,5.7,3.2c0.9-0.4,2.1-0.6,2.7-1.3c12.7-13.4,28.8-20.2,46.3-25
	c6.2-1.7,11.8-5.8,17.7-8.9c-6.3-3.3-12.1-5.4-18-6.9c-5.9-1.5-11.2-0.1-16.2,3.9c-9.9,7.7-20.3,14.9-25.8,26.8
	c-0.3,0.6-1,1.1-1.5,1.6c3.2-7.4,6.7-14.5,13.2-19.7c5.5-4.4,10.6-9.2,16.3-14.2c-9.6-3.1-18.3-1.9-27.3-1.2
	c-13.3,1-25.1,5.3-36,12.6c-1.2,0.8-2,2.3-3,3.5c-7.2-0.4-10.7,4.7-14.3,9.1c7.7,5.2,14.9,10.7,22.6,15.1c5.2,3,11.3,4.5,16.9,6.7
	c0.3-0.5,0.5-1.1,0.8-1.6c-1.2-1.6-2.2-3.4-3.5-4.9C785.3,665.9,777.7,657.7,770.1,649.5z M1094.5,646.9c-1.1-1-2.3-1.9-4.7-4
	c-1.3,7.9-2.4,14.6-3.5,21.3c0.8,0.4,1.6,0.7,2.4,1.1c2.1-3.6,4.3-7.1,6.4-10.7c1.6-0.7,3.5-1.1,4.6-2.3c4.1-4.6,7.8-9.5,11.8-14.2
	c2.7-3.2,5.9-5.9,8.3-9.3c1.5-2.2,1.6-5.3,3-7.7c3.7-6.2,7.7-12.3,11.6-18.3c2.7-4.1,5.5-8.1,8.2-12.2c-0.5-0.4-1-0.8-1.4-1.2
	c-6.2,7.2-16.4,10.2-20.2,19.4c0.1,0.2-0.3-0.8-1.3-3.5c-5.3,7.3-9.7,13.4-14.1,19.5c-0.5-0.4-1-0.7-1.4-1.1
	c4.8-6.3,9.6-12.5,14.2-18.9c0.9-1.3,2.1-3.1,1.8-4.3c-0.3-1.1-2.3-2.1-3.7-2.6c-4.3-1.5-7.3,0.4-10.2,3.6
	c-12.9,13.8-21.4,30.2-28,47.6c-1.5,3.9-1,8.6-0.9,12.9c0,1.2,2.1,2.4,3.2,3.6c1.1-1.2,2.8-2.2,3.2-3.6c1.4-4.7,1.9-9.6,3.4-14.2
	c0.8-2.3,3-4.1,5.1-6.9C1093.4,644.1,1093.9,645.5,1094.5,646.9z M1179.1,762.4c1.4,0.4,2.9,1.4,4.1,1.1c7-1.8,14.2-3.5,20.9-6.1
	c4.2-1.6,9-2.5,11.1-8.2c3-8,6.8-15.9,14.1-21.2c0.9-0.6,2.1-1.8,2-2.6c-0.4-2.7-1.1-5.5-2.2-8c-0.4-0.9-2.9-2-3.3-1.7
	c-1.6,1.3-3.2,3-3.9,4.8c-1.3,3.6-2,7.4-3,11.2c-0.3-0.1-0.6-0.1-0.9-0.2c1-4.6,2-9.2,3.2-15.2c-2.9,1.6-5,2.3-6.3,3.6
	c-11,11.2-24.7,19.9-31.4,34.9c-0.4,1-1.4,1.7-2,2.6c3.6-6.5,7-13.2,10.9-19.6c2.6-4.3,5.7-8.4,8.5-12.5c0.7,0.5,1.9,1.5,2,1.4
	c6.8-7.1,13.5-14.3,20.6-21.9c-4.2-2.7-7.8-4.9-12.3-7.8c-3.1,7.9-5.9,15.1-8.7,22.3c2.2-7.6,4.3-15.2,6.6-23.2
	c-1.1-0.5-2.4-1.1-3.8-1.6c-7.8-3.1-15.6-6.4-23.5-9.2c-6.4-2.3-9.7-0.7-13.1,5.3c-3.7,6.5-7.8,12.8-11,19.6
	c-4.1,8.6-8.5,17.3-6.4,27.5c0.8,3.6,0.5,7.5,0.6,11.2c0.3,12.9,0.2,12.9,12.3,17.6C1169.5,768.6,1175.6,766.8,1179.1,762.4z
	 M1049.5,775.9c0.6-3.3,1.2-6.5,1.9-10.4c-4.3,2.9-5.8,9.1-3.9,13.7c-1.5,6.7-3.1,13.4-4.8,20.8c0.9-10.2,1.7-19.7,2.6-29.8
	c-9.2,5.3-14.2,13.2-18.1,22c-3.7,8.6-7.7,17-11.5,25.4c-0.1-0.3-0.4-0.8-0.2-1.2c4.1-10.2,7.9-20.5,12.4-30.6
	c2.7-6.1,6.2-11.8,9.3-17.7c1.6-0.1,3.5,0.3,4.6-0.5c2.7-2,6-4.1,4.6-9.2c-1.9,1.2-3.4,2.2-4.8,3.1c-0.3-0.6-0.8-1.7-0.9-1.7
	c-7.5,2-16.1,2.5-22.3,6.5c-12.9,8.3-24.7,18.2-30.9,33.1c-0.3,0.6-0.8,1.1-1.3,1.7c11.2-23,26.6-41.2,53.6-46.6
	c-4.9-2.1-9.7-3.3-14.3-4.9c-3.7-1.3-6.4-0.4-9.1,2.4c-4.3,4.5-8.8,8.7-13.2,13c-0.2-0.2-0.3-0.3-0.5-0.5c4.8-5.4,9.6-10.7,15.3-17
	c-4.3,0.5-7.6,0.4-10.4,1.4c-2.7,1-4.8,3.4-6.9,4.9c0.3-0.8,0.9-2.1,1.7-4.2c-9.1,1.5-17.6,0.9-24.8,7.1c-6.2,5.3-13.3,9.6-20,14.4
	c5.2-4.5,10.5-8.9,15.5-13.6c6.2-5.8,13.3-9.6,21.9-10.2c6.8-0.5,11.8-3.1,14.6-9.9c1.4-3.3,4.7-5.8,7.1-8.6c2-2.3,4-4.7,6.6-7.7
	c-9.7-1.7-17.9-7.9-25-1.7c-13.9-2.6-22,6.5-31.4,11.8c2.7-3.1,5.4-6,8.5-8.4c4.1-3.2,8-6.7,14-6.6c2.7,0,6.3-1.8,7.9-3.9
	c2.9-4,4.7-8.9,6.7-13.5c0.2-0.5-0.8-1.6-1.4-2.7c6.6-5.7,11.1-14.8,21.8-15.7c-4.8-8.6-10.3-3.2-15.4-2.3c2.4-1.5,4.9-2.9,8.1-4.9
	c-2.8-1.5-4.5-2.6-6.3-3.4c-6.9-2.9-13.9-5.7-20.8-8.6c-9.3-3.9-9.3-3.9-13.6,5.2c0.3-2.2,0.5-4.1,0.8-6.5
	c-5.4,1.1-10.1,2.3-14.9,3.1c-23.6,3.9-32.2,22.9-41.3,41.3c-0.6,1.2,0,3,0.1,4.4c1.1,10.8,2.3,21.6,3.2,32.5
	c1.3,14.4-0.4,29.5,10,41.6c2.5,3,5.4,5.7,8.1,8.5c0.5,1.5,0.8,3.3,1.7,4.5c13.1,16.3,26.8,31.8,46.8,40c4,1.6,8.1,3.1,11.8,5.1
	c10.9,6,22.5,3.1,32.7,3.9c3-8,6-14.8,8-21.9c4.4-15.7,13.3-28.6,23.3-41c5.3-6.7,5.3-8.5-0.5-14.8c-6-6.6-11.3-5.7-14.6,2.5
	C1051.3,771.8,1050.4,773.8,1049.5,775.9z M1462.4,741.9c-0.4,0-0.9,0-1.3,0c1.7-43.8,3.4-87.5,5.1-131.2c-0.9-0.1-1.3-0.2-1.7-0.2
	c-0.5,0.1-1.2,0.1-1.6,0.4c-11.2,9.5-25.2,15.7-32.5,29.5c-6.5,12.4-14.1,24.2-19.9,36.9c-5,10.9-8.1,22.6-12,33.9
	c3-9.8-2-17-7.1-26c-1.8,10.2-3.5,18.6-4.9,27.1c-0.7,4.2-1.2,8.6-0.8,12.8c1.7,19,17.5,31.5,23.2,48.7c9.4,4.1,18.5,9,28.2,11.9
	c4.1,1.2,9.3-1.8,14.1-2.6c6.8-1.1,13.7-2.8,20.5-2.3c6.8,0.5,13.3,3.5,20.1,4.9c10.3,2.1,19.4,6.2,27.4,13.1
	c3.2,2.7,6.9,4.8,11,7.5c1.2-6.5,2.6-11.9,3.1-17.5c1-12.4,5.1-24.6,1-37.3c-2-6.3-2.8-13-4.3-19.5c-1-4.4-2.1-8.8-3.1-13.2
	c-0.4,0-0.8,0.1-1.2,0.1c-0.7,4.3-1.4,8.6-2.2,13c-0.7-3-0.5-5.9-0.1-8.8c1.7-12,0.4-23-9.2-31.6c-1.9-1.7-3.3-4.2-5.3-5.8
	c-2.2-1.8-4.8-3.4-7.4-4.3c-3.9-1.3-8-2.2-12.1-2.6c-2.2-0.2-5.1,0.6-6.7,2c-5.2,4.6-10.2,9.5-14.7,14.7c-2,2.3-3.6,5.7-3.9,8.7
	C1463.3,716.8,1463,729.3,1462.4,741.9z M1433.5,352.9c-10.7,7.9-19.6,14.6-23.4,27.1c-4.2,14.1-2.8,28.1-2.2,42.3
	c0.2,3.4,1.1,6.8,1.7,10.8c2.3-1.3,3.8-2.3,5.5-3.2c2.5-1.4,4.8-1.5,5.8,1.8c1.7,5.3,3.6,10.6,4.7,16c1.5,6.9,2.2,13.8,3.4,21.1
	c29.3-14.4,54.5-7.8,78.1,12.5c2.3-16.8,3.8-33.7,6.9-50.3c3.1-16.6,7.7-33,11.8-50.1c-17.7-17.8-46.3-31.3-59.6-27.8
	c14.8,15,27.6,42.3,28.8,54.1c-2.9-6.6-5.7-14.5-9.7-21.8c-4.1-7.5-9.4-14.3-14.1-21.5c-7.8-12-18.6-15.2-32.2-12.1
	c-2.9,0.7-4.1,1.6-4.4,4.6c-0.9,8.6-2,17.1-3,25.7c-0.2,0-0.3,0-0.5,0C1432,373,1432.7,363.7,1433.5,352.9z M1835.5,753
	c2.6-0.8,4.5-1.2,6.1-2c13-6,25.4-0.9,35.7,5.2c8.9,5.3,14.8,15.6,22.1,23.6c2.6,2.8,5.1,5.8,8.2,8c12.3,8.5,25.4,15.9,33.1,29.6
	c2.4,4.3,5.6,8.1,8.5,12.1c0.5-0.2,1-0.4,1.5-0.6c-1-14.8-1.8-29.7-3-44.5c-0.5-6.3-1-12.7-2.6-18.8c-5.5-19.9-14.4-38.5-24.1-56.7
	c-4.3-8-10.1-13.3-18-18.1c-11.8-7.3-22.2-7.4-33.8-0.8c-7.3,4.1-14.2,8.6-18.4,16C1842.9,720.4,1838.8,736,1835.5,753z
	 M1060.9,853.6c-1.7,0-2.5-0.1-3.2,0c-15.4,3.4-30.9,3.7-46.3,0.8c-6.6-1.2-12.3,0-18.5,2.1c-25.1,8.4-45.3,23.6-61.4,44.3
	c-2.6,3.3-4.2,7.3-6.3,11.1c8.7,6.9,18.5,8.3,28.4,8.9c17.6,1.1,35.2,0.6,50-10.7c11.9-9,23.5-18.6,34.2-29
	C1046.2,872.9,1053,863.2,1060.9,853.6z M1186.1,549.5c2.2-18.2,4.3-37.3,7-56.3c0.7-4.8,0-8.7-3.7-11.3c-2.6-1.9-6.2-3.7-9.2-3.6
	c-11.2,0.3-22.7-0.1-33.3,2.7c-8.7,2.4-16.5,8.6-24.1,14c-4.3,3-6.6,7.8-5.5,13.8c0.8,4.4,0.9,9,0.8,13.4c-0.1,3.8,1.7,5,4.9,6.1
	c10.9,3.7,22.7,5.2,32,12.9c0.5,0.5,1.3,0.7,2.1,0.9C1166.9,544.6,1176.7,547.1,1186.1,549.5z M1464.8,692.6c0.5,0.2,1,0.3,1.4,0.5
	c3.3-3.8,7-7.3,9.9-11.3c4-5.5,8.5-7.8,15.6-5.9c7.2,1.9,15.2,0.2,21.4,6.2c1.9,1.8,4.7,2.8,7,4.1c0.6-0.9,0.9-1.2,0.9-1.4
	c-1.6-24.2-3.1-48.5-4.9-72.7c-0.1-1.1-2-2.8-3.3-3.1c-12-2.9-24-5.6-36.4-1.3c-3.2,1.1-4.4,2.3-4.7,5.6
	c-1.2,13.8-2.8,27.6-4.1,41.4C1466.5,667.3,1465.7,679.9,1464.8,692.6z M1426,593.9c-0.8,1.1-1.5,2-2.1,2.9
	c-15,25.4-24.2,53-31.1,81.5c-0.3,1.4-0.8,3.1-0.3,4.3c2.4,5.8,5.2,11.5,8,17.6c2.2-6.4,4.3-12.3,6.3-18.3
	c7.5-21.9,16.3-43.2,33.8-59.3c7.7-7.1,14.1-16.1,24.6-19.9c0.9-0.3,1.9-1.8,2-2.9c0.9-10.4,1.7-20.8,2.6-31.8
	c-8.7-0.6-16.9-1.2-25.1-1.6c-0.7,0-2.2,1.1-2.1,1.3c1,3.2-2.4,3.2-3.5,4.8c-4.1,6.2-8.2,12.4-12.4,18.8c3,2.4,5.6,4.4,8.2,6.5
	c-0.2,0.2-0.3,0.4-0.5,0.6C1431.7,597,1429,595.5,1426,593.9z M1038.3,844.3c11.5,1.6,21.3-2.9,31.2-6.8c4.1-1.6,8.2-3.8,11.5-6.6
	c6.1-5.2,11.6-11.1,17.5-16.5c4.7-4.4,9.5-8.6,13.6-12.3c-8.8-4.8-17.3-9.5-26.1-14.3c0.3,1.6,0.6,2.7,0.7,3.7c0.1,1.1,0,2.1,0,1.9
	c-2.2-4.2-4.9-9.2-7.6-14.2c-0.9,0.2-1.8,0.4-2.6,0.5c-8.2,10.5-3.4,23.6-6.1,35.1c0-8.7,0-17.6,0-26.7
	C1058,796.9,1045.1,819.5,1038.3,844.3z M1987.4,797c2.2-7.8,4.6-15.1,6.2-22.5c0.8-3.5,1.1-7.5,0.1-10.8
	c-3.7-12.1-8.2-24-12.1-36.1c-3.9-12.2-13-20.9-19.9-31.1c-0.5-0.7-1.4-1.5-2.2-1.7c-8.1-2-16.2-3.9-24.4-5.9
	c2.2,11.7,7.1,21.3,15.2,29.4c3.7,3.7,7.2,7.8,9.7,12.3c8.1,14.5,16.5,28.9,20.7,45.3C1982.5,782.9,1985,789.5,1987.4,797z
	 M1404.3,518.5c17.1,2.8,24.6,13.8,30.6,28.2c15.6-9.4,29.1-20.8,44-31.3c-7.2-6.4-13.5-12.2-20-17.7c-1.2-1-3.5-1.1-5.2-1
	c-10.7,1-20.9,3.5-30,9.8C1417.7,510.8,1411.2,514.3,1404.3,518.5z M1504.2,510.1c0.7-5.5,1.3-10.6,2.1-15.7
	c1.4-9.3-2.5-16.2-11.4-19.8c-6.9-2.8-13.9-5.6-20.9-8.4c-1.5-0.6-3.3-1.4-4.8-1.1c-12.4,2.4-25.6,2.2-36,10.9
	c-1.7,1.4-2.7,3.5-4.1,5.3c2,1.4,3.7,3.7,5.9,4.1c9.5,2.1,19.2,2.9,28.5,5.5C1477.6,494.9,1491.1,500.3,1504.2,510.1z M1100.6,554.5
	c0.2,0.5,0.4,1.1,0.6,1.6c-7.4,1-12,5.7-16.2,11.1c-2.1,2.7-6.7,4.9-6.8,7.6c-0.8,10.9-0.3,21.8-0.3,32.3c4.5-2.1,9-3.7,13.1-6.1
	c2.7-1.6,5.3-3.8,7.1-6.3c6.6-9.4,8.8-21.6,18.1-29.4c0.7-0.6,0.9-2.4,0.7-3.6c-1.1-8.5-2.3-17-3.7-25.5c-0.3-1.9-1.8-5.3-2.6-5.3
	c-4.3,0.1-11-0.2-12.4,2.2c-4.9,8.6-8,18.2-11.9,27.9C1091.8,558.5,1096.2,556.5,1100.6,554.5z M1119.9,639.2
	c0.5,0.8,1.1,1.7,1.6,2.5c-8.3,7-17,13.5-24.8,21c-7.6,7.2-12.5,15.5-12.8,26.9c-0.2,7.8,3.3,12,7.7,16.8c1.5-1.2,2.5-2.3,3.8-3
	c7.7-4.2,14.4-11.1,24.2-10.3c5.3,0.5,7.5-1.8,7-6.5c-1.2-11.3-2.7-22.6-4.2-33.9C1121.7,648.2,1120.7,643.7,1119.9,639.2z
	 M1204.5,625c-4.2-5.5-7.8-10.1-11.3-14.7c-4.4-5.6-7.5-6.1-13.4-2.1c-0.9,0.6-1.6,1.6-2.5,2.2c-13.5,10-21.1,24.2-29.3,38.4
	c-5.6,9.8-1.4,18.5-0.6,27.9C1162.6,655.3,1179.7,636.5,1204.5,625z M1394.9,610.5c-0.3-0.1-0.5-0.2-0.8-0.4c0.4-3.5,0.8-7,1.2-11
	c-0.9,0.6-1.4,0.7-1.5,1c-8.5,18.5-12.9,38.1-14.8,58.3c-0.1,1,0,2.3,0.5,3.1c3.6,5.1,7.4,10,11.1,14.9c-0.2,0.2,0.2,0,0.2-0.3
	c0.4-1.1,0.7-2.1,1-3.2c6.2-27.3,13.9-54,27.5-78.7c0.6-1.1,0.6-3.9-0.1-4.3c-2.4-1.5-6.3-3.9-7.7-3c-6.9,4.6-15.6,8.2-16,18.6
	C1395.5,607.2,1395.1,608.8,1394.9,610.5z M904.6,647.4c-22.8-3.1-41.3,4.4-55.9,21.6c-0.8,1-1.4,2.2-1.7,3.5
	c-1.6,6.3-3.5,12.7-4.3,19.1c-0.3,2.8,1.1,7.2,3.2,8.6c4.2,2.8,9.4,4.1,14.9,6.4c1.8-13.1,8.7-23.5,15.5-33.4
	C883.5,662.7,892.3,652.9,904.6,647.4z M914.5,668.9c9.8-6.6,18.8-12.6,28-18.8c-30.5-8.9-63.7,16.3-72.3,40.5
	c5,4.1,9.7,8,14.6,12.1c0.3-0.3,1-1.2,1.6-2.1c6.2-8,11.3-17.2,18.9-23.6c6.3-5.4,8.7-11.1,9.3-18.5c0.1-0.8,0.3-1.7,0.4-2.5
	c0.2,0,0.5,0.1,0.7,0.1C915.3,660.1,914.9,664.2,914.5,668.9z M1197.6,490.8c-1,2.4-1.5,3.2-1.6,4.1c-2.7,18.3-5.4,36.7-8,55
	c-0.2,1.1,0.2,2.9,0.9,3.6c7,6.1,14.1,11.9,21.5,18.1c3-23.3,2.3-45.9-5.4-67.9C1203.6,499.5,1200.6,495.9,1197.6,490.8z
	 M1098,469.6c-4.2,1.6-7.7,3-11.2,4.3c-4.1,1.5-6.1,4.1-6.2,8.8c-0.1,12.3-0.6,24.7-0.9,37c-0.1,3.1,0,6.2,0,9.6
	c8.9-1.2,19.4,2.1,21.6-11.2c0.2-1.1,1.7-1.9,2.4-3c2.1-3.5,4.6-6.8,3.3-11.3C1103.9,492.7,1101.1,481.5,1098,469.6z M1542.3,632.1
	c-0.7,1.6-1.5,2.7-1.7,3.9c-3.8,16.9-7.7,33.8-11.3,50.8c-0.3,1.6,0.2,3.7,1,5.2c3.4,6.3,6.9,12.4,10.5,18.5
	c1.7,2.9,3.7,5.6,5.5,8.4c0.5-0.1,1-0.3,1.6-0.4c0.6-5,1.2-9.9,1.7-14.9c0.6-6.3,1.1-12.7,1.5-19c0.4-6.8,1.8-13.8,0.5-20.3
	C1549.6,653.6,1550,642.1,1542.3,632.1z M1182.7,600c-5-3.6-9.2-7.1-13.9-9.7c-1.9-1.1-5.3-1-7.3-0.1c-6.3,3-12,6.8-13.2,14.7
	c-0.6,3.6-2.2,7.1-3.4,10.6c-4.2,11.7-5.1,23.4-0.5,36.7C1153.5,631.7,1163.3,612.8,1182.7,600z M1283.8,642.2c-2.9,0-5.6-0.6-8,0.1
	c-5.9,1.7-11.7,3.8-17.5,6c-9.9,3.8-11.3,7.4-7.7,17c2.8,7.5,5,15.1,7.5,22.6c5.8-0.7,9.5-3.1,11.3-8.7c1.8-5.4,4.7-10.6,7.1-15.8
	C1279.7,656.9,1284.4,651,1283.8,642.2z M1116.8,495.1c16.8-17.2,36.2-26.3,59.4-27.2c-20.1-12.3-41.1-5.9-62-4.7
	C1115,474,1115.9,484,1116.8,495.1z M1153.6,675.7c6.1-0.8,12.3-2,18.4-2.3c4.7-0.2,7.3-2.9,10-6c8-8.8,15-18.8,26.9-23.2
	c4.5-1.7,2.9-5.4,1.7-8.6c-1.5-3.9-4.4-3.4-7.3-1.8c-6.4,3.5-12.6,7.4-19.1,10.7C1170.5,651.4,1163.5,664.7,1153.6,675.7z
	 M1042.9,703.6c-1.4-7.5-10-18.1-16.2-19.1c-1-0.2-2.4,0.7-3.3,1.5c-5.9,4.9-12.2,9.5-17.5,15c-2.8,2.9-3.8,7.5-5.3,11.4
	c-0.1,0.3,2.6,2.3,2.8,2.1c4.7-4.3,9.9-1.5,14,0.1c8.4,3.2,14.8,0.6,20.8-4.7C1040.1,708.2,1041.4,705.8,1042.9,703.6z
	 M1032.8,665.3c-5.2-11-8.4-23.7-18.4-32.7c-4.3-3.9-16-4.1-19.5,0.6c-3.2,4.2-5.6,9-8.5,13.7
	C1002.3,653.1,1017.5,659.2,1032.8,665.3z M1341.2,557.3c-13,6.1-20.4,16.6-21.1,29.2c4.3,3.3,8.4,6.3,12.5,9.4
	c7.2-8.3,11.8-7.8,16.6-7.1C1352.4,582.6,1347.9,564.5,1341.2,557.3z M847.8,657.9c-16.1,4.4-31.3,11-44.3,25.3
	c10,4.5,19.2,8.6,27.7,12.4C837,682.4,842.3,670.5,847.8,657.9z M1519.9,610.5c-0.3,1.1-0.5,1.5-0.5,1.8c1,24.2,1.9,48.3,3.1,72.5
	c0.1,1.4,1.4,2.8,2.1,4.2c2.6-9.7,3.6-19.1,5.2-28.5c2-11.6,4.3-23.1,6.9-34.6c1.1-4.9-0.8-8.1-4.6-10.2
	C1528.4,613.6,1524.2,612.3,1519.9,610.5z M1892.7,779.5c-6.2-5.7-11.8-11-17.5-16c-1.3-1.1-3.3-1.6-5-2.1
	c-10.4-3.2-20.4-2.3-30.5,2c-6.8,2.9-12.7,6-14.1,14c11.1-1.2,22.2-3.7,33.2-3.4C1869.9,774.3,1880.8,777.4,1892.7,779.5z
	 M1968.2,699.2c15.8,20,21.5,42.9,27.7,65.6c9.8-23.5,10.3-24.3,0.9-41.2C1990.7,712.7,1982.9,702.8,1968.2,699.2z M1113.5,456.1
	c13.2-1.4,26.4-2.9,39.9-4.3c-3.5-2.5-7-4.7-10.2-7.3c-8.9-7.2-18.7-12.2-29.8-14.8c-2.2-0.5-4.6-0.1-7-0.1
	C1109,439.2,1111.2,447.5,1113.5,456.1z M1486.7,526.9c-1.7,2.8-3.7,4.8-4.1,7.1c-1.5,7.5-2.6,15.1-3.6,22.7c-0.2,1.4,0.9,4,1.9,4.3
	c8.9,3.1,17.9,5.8,26.7,8.6C1505.6,553.5,1498.5,540.1,1486.7,526.9z M1473.6,598.7c0.3,0.6,0.7,1.1,1,1.7c12.6-7.5,26-5.2,41-2.9
	c-2.8-5.4-3.8-10.9-6.8-12.6c-9.7-5.4-20.2-9.5-31.3-14.5C1476,580.7,1474.8,589.7,1473.6,598.7z M1076.9,574.9
	c-1.9,2.4-2.8,3.2-3.3,4.3c-6.3,11.1-12.3,22.3-18.8,33.3c-3.9,6.7-2.3,12.4-0.1,15.6c6.7-5.5,13.7-11,20.6-16.8
	c0.9-0.7,1.5-2.3,1.5-3.5C1076.9,597.4,1076.9,587,1076.9,574.9z M1431.5,546.1c-1.9-3.8-2.8-7.7-5.3-9.9
	c-4.9-4.3-10.3-9.3-16.3-10.9c-6.5-1.7-18.2,11.6-18.8,19c7,1.3,14.1,2,20.9,4C1418.9,550.3,1424.9,548.8,1431.5,546.1z
	 M1121.3,740.4c0.5-0.4,0.9-0.8,1.4-1.1c0.9-13.6,1.8-27.2,2.7-41.1c-11.4,3.3-16.9,11.5-22.5,19.8c-1.8,2.7-2,4.8,0.3,6.9
	C1109.2,730.1,1115.3,735.2,1121.3,740.4z M905.5,741.5c1.2-0.2,2.4-0.5,3.5-0.7c0.8-16.2,1.6-32.5,2.5-49.3
	c-1.4,0.5-2.1,0.5-2.3,0.8c-6,7.6-12,15.2-17.8,22.9c-0.6,0.8-0.1,3,0.6,4.1C896.3,726.8,900.9,734.2,905.5,741.5z M1853.4,785.1
	c0,0.6-0.1,1.1-0.1,1.7c25.4,4,44.2,18.8,61,37.3c0.3-1.6,0.4-2.8-0.1-3.7c-3.2-6.7-7.1-13.1-9.7-19.9c-3.3-8.7-9-12.8-18.2-12.7
	c-3.5,0-7-1.2-10.6-1.4C1868.3,785.8,1860.9,785.5,1853.4,785.1z M1237.6,503.4c2,3.1,3.8,6,6.1,9.5c8.8-15.4,24.5-22.3,37.4-34
	c-5-0.6-8.5-0.7-11.9-1.6c-4.7-1.2-7.9,0.5-11.8,3C1248.4,486.1,1243.4,495,1237.6,503.4z M1217.3,680.1
	c-1.8-10.8-3.4-20.3-4.9-29.8c-13.2,2.5-19.2,13.1-29,20.8C1195.2,674.2,1205.7,677,1217.3,680.1z M1007.1,742.8
	c0.4,0.5,0.8,1,1.3,1.6c3.8-0.4,7.8-2,11.2-1.1c6.9,1.7,12.8,0.6,18.9-2.5c3.3-1.7,6.9-2.6,10.7-4c-0.6-1.4-0.9-3.6-2.1-4.2
	c-6.2-3.5-12.5-6.6-18.9-9.7c-0.8-0.4-2.5-0.2-3.1,0.4C1019,729.7,1013.1,736.2,1007.1,742.8z M1408.2,482.4
	c3.7-2.8,6.3-5.2,9.2-6.9c10-6,10.4-6,8.1-17.3c-1.6-7.8-1.1-16.5-8.1-23C1407.7,449.4,1411.4,465.8,1408.2,482.4z M862.7,758.2
	c0.3,0,0.7,0,1,0c1.8-6.4,3.4-13,5.5-19.3c2.1-6.4,4.7-12.5,7.5-19.7c-5.6-1.5-11.2-3-17.2-4.6c-1.7,5.6-4.9,10.7-4.2,15.2
	C856.7,739.4,860.1,748.7,862.7,758.2z M1377.2,593.9c0.4,0.1,0.7,0.3,1.1,0.4c5-4.5,10-8.8,14.8-13.4c3.6-3.4,7.9-6.6,10-10.8
	c5.2-10.2,7.8-11.7,18-6.9c1-2.2,2-4.3,3.6-7.7c-2.8,0-5.1-0.6-7,0.1c-9.9,3.5-19.7,7.1-29.4,11c-1.9,0.8-4.4,2.4-4.9,4.2
	C1381,578.4,1379.2,586.2,1377.2,593.9z M1234.7,728.5c-8.8,5.7-14.8,13.9-18.2,24.7c10.4-1.3,20.7-2.6,30.9-3.9
	C1243.1,742.3,1238.9,735.4,1234.7,728.5z M1336.3,729.7c0.4-0.1,0.8-0.2,1.2-0.3c-3.3-11.2-6.4-22.5-10.2-33.5
	c-1.2-3.5-4.2-6.6-6.9-9.5c-2.5-2.7-6.1-2.9-6.9,1c-0.8,4-0.8,8.8,0.8,12.4c1.8,4.1,6,7,8.8,10.8
	C1327.8,716.8,1332,723.3,1336.3,729.7z M1078.6,419c10.6,0,20.5,0,32.4,0c-5-6.6-8.5-12.2-13-16.7c-1.8-1.8-7.6-2.9-8.8-1.6
	C1084.5,405.5,1079.5,410.6,1078.6,419z M1096,531.3c-5.3,0.3-9.1,0.7-13,0.7c-3.3,0-4,1.7-4,4.6c-0.1,7.7-0.4,15.3-0.6,23
	c-0.1,3,0,6.1,0,9.1c0.7,0.3,1.3,0.5,2,0.8c1.9-3.5,4-6.8,5.6-10.4c1.6-3.6,2.5-7.4,3.8-11.1C1091.6,542.9,1093.6,537.7,1096,531.3z
	 M1378.8,665.3c-2.3,17.8,1.8,34.8,5.2,51.8c2.1-9.4,3.4-18.7,5.3-28C1391.3,678.7,1384.4,672.4,1378.8,665.3z M1119,560.7
	c0.5,0.3,1,0.6,1.5,0.9c7.2-7.8,14.3-15.7,26.3-15.5c0-0.8,0.1-1.7,0.1-2.5c-9.1-3.7-18.1-7.4-27.8-11.3
	C1119,542.4,1119,551.6,1119,560.7z M1508,817.9c0.5-0.7,0.9-1.3,1.4-2c-7-5.6-13.8-11.5-21.1-16.8c-4.7-3.4-10.2-5.5-15-8.8
	c-8-5.5-15.9-1.4-24.4-1.4c10.8,4.4,21,8,30.6,12.7C1489.3,806.5,1498.5,812.5,1508,817.9z M1436.5,566.5
	c-6.4,0.9-11.9,1.9-12.4,9.7c-0.1,1.8-2,3.5-3.6,6.2c-1.1-2.7-1.9-4-2.1-5.4c-0.3-1.5-0.1-3.2-0.1-4.8c-15,2.8-18.4,6-18.2,17.7
	c6.9-4.5,13.7-10.1,21.4-1.4C1426.7,581,1431.4,574,1436.5,566.5z M1282.6,620.3c4-2.8,4.3-5.2,1.6-7.6c-5.3-4.6-10.6-9.3-16.1-13.6
	c-5.4-4.2-11.4-2.4-17.9-1.1C1261.4,605.8,1272,613,1282.6,620.3z M1101.5,468.1c3,12.2,5.8,24,8.7,36c6.3-4.4,4.7-9.8,3.9-15.1
	c-1.1-8-1.9-16.1-2.9-24.8C1107.1,465.8,1104.4,466.9,1101.5,468.1z M1473.6,536.9c-11.2,5.2-20.7,14.2-22.7,21.6
	c5.9,0,11.6,0.1,17.4-0.1c1,0,2.8-1.5,2.9-2.5C1472.2,549.8,1472.8,543.5,1473.6,536.9z M861.9,707.1c6.1,3,11.4,5.5,16.7,8.1
	c6.4-10.2,3.1-17.2-10.8-22.4C865.9,697.4,864.1,701.9,861.9,707.1z M1438.5,490.9c-8-3.8-17.4-3.8-28.6,3.2
	c-4,2.5-5.6,8.8-8.9,14.4C1414.8,502,1426.9,496.3,1438.5,490.9z M1330.5,617.7c-3.7,5.9-7.2,11.3-10.4,16.3
	c5.5,4.3,10.2,8,15.7,12.4C1334.9,636.4,1341.4,626.2,1330.5,617.7z M1288.9,691c-1.9-10-3.6-18.6-5.3-27.2c-0.6,0-1.2,0-1.8,0
	c-3.5,7.5-7,15-10.9,23.4C1277,688.5,1282.3,689.6,1288.9,691z M1128.3,663.7c0.5,0,1-0.1,1.6-0.1c0.2-13.8,7.4-27.2,2.1-41.6
	c-3.1,4.3-7.4,8.9-7.4,13.4C1124.5,644.9,1126.9,654.3,1128.3,663.7z M1100.5,462.7c2.9-1.9,8-3.8,8-5.6c0-7.7-2.1-15.1-6.2-22.1
	C1093.1,444.6,1092.9,448.2,1100.5,462.7z M1399.4,579.9c-6.5,5.6-12.2,10.4-17.8,15.2c-6.4,5.5-6.7,10.6-0.9,17.4
	c1.9-3.6,3.6-7.1,5.6-10.5c1.5-2.5,2.9-6,5.3-7C1398.3,592.3,1398.6,586.9,1399.4,579.9z M1617.8,639c-6.1-3.6-15.6-1.2-21,3.9
	c-13.2,12.6-17.2,19.1-14.4,24.1C1591.9,655.2,1600.9,643.1,1617.8,639z M1297.3,680c1-4.6,1.6-8.7,2.7-12.5
	c2.8-10,1.8-12.8-6.9-18.3C1289.2,659.8,1291.1,675,1297.3,680z M1953.2,793.4c-0.7,0.1-1.3,0.2-2,0.3c2.2,17.2-3.9,35.6,9,51.4
	C1957.9,827.8,1955.5,810.6,1953.2,793.4z M913.8,680.5c9.2-5.5,16.3-10.1,23.8-14.2c7.6-4.2,15.4-7.8,23.1-11.7
	c-2.5-0.9-5.2-1.7-7.3-0.8c-13.2,5.5-25.6,12.3-36.7,21.3C915.6,676.1,915.2,677.9,913.8,680.5z M889.8,712.8c1.2-1.5,2.2-2.6,3-3.9
	c4.8-8,9.2-16.3,16.9-22.2c1.8-1.4,2.1-4.6,3.1-6.9c-0.5-0.3-1-0.6-1.5-0.9c-1.3,1-2.7,1.8-3.7,3c-6.1,6.8-12.1,13.8-18.3,20.6
	C886.1,706,885.5,709.1,889.8,712.8z M1269.2,691.2c-1.1,3-2.1,5.4-2.9,7.9c-0.5,1.4-0.8,2.8-1.1,4.2c12.6,3.9,16.3,2.9,20.2-5.7
	C1280.2,695.6,1275,693.5,1269.2,691.2z M1136.1,649.4c-2.1,12.1-4.2,24.2-6.2,36.3C1137.2,681.9,1143.1,660.7,1136.1,649.4z
	 M1299.3,742.7c1.3-11.4-2.2-16.1-15.5-20.6C1281.8,728.6,1288.2,737.1,1299.3,742.7z M920.4,699.2c0.4,0.2,0.8,0.3,1.2,0.5
	c2.3-4.3,4.7-8.7,7-13c2.3-4.3,4.7-8.5,7.1-12.8c-0.3-0.4-0.6-0.8-0.9-1.1c-5.5,4.2-11.8,7.7-16.2,12.8c-1.7,2,0.8,7.6,1.4,11.5
	C920.1,697.8,920.3,698.5,920.4,699.2z M1408.6,553.2c0-0.6,0-1.3,0.1-1.9c-6.1-0.7-12.1-1.5-18.2-1.9c-1-0.1-2.8,1.2-3.2,2.3
	c-1.1,3.3-1.6,6.9-2.6,11.3C1393.6,559.3,1401.1,556.2,1408.6,553.2z M1209.6,592.9c-8.1-6.9-24.5-11-32.3-7.9
	C1187.6,590.2,1197.3,595.8,1209.6,592.9z M1077.6,689.6c2-7.8,3.8-14.5,5.6-21.2c-0.4-0.3-0.8-0.6-1.3-0.9c-2.4,2.1-4.9,1.6-7.5,1
	c-0.8-0.2-2.2,1.1-2.7,2.1C1069.5,674.7,1072.3,685.4,1077.6,689.6z M1081.3,470.6c15.2-5.3,18.2-6.2,8.7-20.3
	C1087.3,457.2,1080.7,461.9,1081.3,470.6z M1150.5,583.8c-0.2-0.5-0.4-1.1-0.6-1.6c-6.2,1.3-12.4,2.4-18.4,4
	c-3.2,0.9-6.5,2.2-8.9,4.3c-1.4,1.2-1,4.5-1.4,6.8c2.1-0.1,4.5,0.2,6.4-0.6c1.8-0.8,3-2.7,4.4-4.2c3.1-3.3,6.1-6.3,11.4-6
	C1145.7,586.7,1148.1,584.8,1150.5,583.8z M986.9,548.9c-0.1,0.6-0.2,1.2-0.4,1.8c6.9,1.6,13.7,3.3,20.6,4.7
	c1.3,0.3,2.8-0.7,4.3-1.1c-0.7-1.2-1.1-2.7-2-3.6C1002.4,544,994.6,546.9,986.9,548.9z M1063.5,643.7c-0.3,0.6-0.5,1.2-0.8,1.7
	c2.1,7.1,4.1,14.3,6.4,22.4c5.7-8.4,5.2-15-1-22.4C1067.2,644.3,1065.1,644.2,1063.5,643.7z M1098.6,717.3
	c6.1-7.6,11.8-14.6,18.6-23.1c-8.7,5.4-16.2,10-23.8,14.7C1095.7,712.7,1097.1,715,1098.6,717.3z M1068.6,721.7
	c-4,10.9-2,16.2,6.8,18.5C1076.6,732.8,1076.4,726.1,1068.6,721.7z M1330.7,689.5c2.8,12.2,5.6,24.4,8.3,36.6
	C1337.2,713.7,1342.2,699.8,1330.7,689.5z M1046.9,724.9c-1.4-5.6-2.4-9.8-3.6-14.9c-4,2.8-7.2,5-10.7,7.4
	C1037.3,719.9,1041.4,722,1046.9,724.9z M1091.1,754c5.5,2.6,8.8,9.5,16.1,5.5C1098.9,748,1098.7,748,1091.1,754z M1109,514.1
	c-0.6-0.1-1.2-0.3-1.8-0.4c-2.4,4.2-4.7,8.3-7.8,13.8c5.1-0.7,8.4-1.2,12.1-1.7C1110.6,521.5,1109.8,517.8,1109,514.1z
	 M1257.9,641.4c-0.3-0.6-0.6-1.1-0.9-1.7c-2.5,0.2-5.1,0.5-7.6,0.7c-7.5,0.7-8.1,2-3.6,9.6C1249.9,647.1,1253.9,644.3,1257.9,641.4z
	 M1475.6,498.7c-0.3,0.4-0.5,0.8-0.8,1.2c7,4.1,12.1,12.7,24.4,7.8C1490.4,504.3,1483,501.5,1475.6,498.7z M1322.1,569.1
	c-0.3-0.2-0.6-0.4-0.9-0.6c-3.9,4.5-7.9,9-12.2,13.9c3.3,1.5,5.7,2.5,8,3.5C1318.8,580,1320.4,574.5,1322.1,569.1z M1302.5,732.9
	c-0.9,14,1.8,18.1,10.2,17.2C1309.6,744.8,1306.5,739.5,1302.5,732.9z M1087.2,739.5c-1.3,4.4-5.8,8.1-0.5,11
	c1.9,1.1,5.7-1.4,8.7-2.2c-0.1-0.7-0.1-1.3-0.2-2C1092.8,744.3,1090.5,742.3,1087.2,739.5z M1116.9,525.5
	c-0.4-6.6-0.7-13.3-1.1-20.6C1110.4,509.7,1110.7,519.9,1116.9,525.5z M1260,627.2c0-0.3,0-0.7-0.1-1c-5,0-10,0.1-15,0
	c-4.5-0.1-4.8,2.2-3.2,6.5C1247.9,630.8,1254,629,1260,627.2z M1194.8,571.4c0.3-0.5,0.7-1,1-1.5c-6.6-5.5-13.2-11-19.8-16.4
	c-0.5,0.6-1,1.2-1.5,1.8C1181.9,559.9,1185.9,568.7,1194.8,571.4z M1358.8,563.2c1.9-4.8,3.4-8.6,5.2-13.2c-4.5,0.8-8,1.4-11.6,2
	C1354.5,555.8,1356.4,559.1,1358.8,563.2z M1035.1,745c0,0.4,0,0.9,0,1.3c4.4,1,8.8,1.9,14.1,3.1c0-2.8,0.8-5.5-0.2-6.5
	c-1-1-3.7-0.7-5.6-0.3C1040.6,743.2,1037.9,744.2,1035.1,745z M1704.8,1118.9c8,4.9,16,3.9,24,0
	C1720.8,1118.9,1712.8,1118.9,1704.8,1118.9z M860.8,632.4c10.3,6.3,17.9,7.6,24.6,4.2C876.5,635.1,868.7,633.8,860.8,632.4z
	 M1062.2,713.7c-2.4,6.1-1.7,9.3,3,13.9C1067.2,722.5,1068.2,717.7,1062.2,713.7z M853.5,725.5c0.4-0.1,0.8-0.1,1.3-0.2
	c1-3.7,2.1-7.3,3.1-11.1c-3.2,0-5.3,0-7.9,0C851.2,718.3,852.4,721.9,853.5,725.5z M1132.6,709.6c6.4-9.5,6.4-10.6,0-13.3
	C1132.6,700.6,1132.6,704.6,1132.6,709.6z M1417,566.2c-0.1-0.5-0.1-1.1-0.2-1.6c-2-0.2-4.5-1.4-5.8-0.5c-2.3,1.5-3.7,4.2-5.6,6.4
	c0.5,0.4,0.9,0.8,1.4,1.3C1410.3,569.8,1413.6,568,1417,566.2z M1142.7,688.3c-0.3-0.3-0.6-0.6-0.8-0.9c-2.7,1.8-5.5,3.5-8.8,5.6
	c2.2,1.7,3.7,2.9,5.7,4.4C1140.2,694,1141.5,691.2,1142.7,688.3z M1058.8,679.5c0.7-0.6,1.5-1.2,2.2-1.8c-1.3-2.3-2.6-4.6-3.9-6.9
	c-1.4,0.9-2.9,1.7-4.3,2.6C1054.8,675.5,1056.8,677.5,1058.8,679.5z M1054.7,658.1c-0.8,3.6-1.6,7.1-2.5,11.1
	C1058.7,668.3,1058.7,668.3,1054.7,658.1z M1417,486.6c0.4,0.6,0.8,1.1,1.2,1.7c2.5-3.5,9.5-1.3,10.1-7.2c-0.4-0.5-0.9-1.1-1.3-1.6
	C1423.7,481.9,1420.4,484.2,1417,486.6z M1234.7,523.6c7.2-5.4,7.6-7.6,2.8-11.6C1236.6,515.7,1235.7,519.1,1234.7,523.6z
	 M1136.5,682.6c7.1-3.4,5.9-7.6,3.6-12C1139.1,674.2,1138,677.7,1136.5,682.6z M1346.3,592.3c-5.7,0.8-8.8,3.7-9,9.2
	C1340.5,598.3,1343.6,595.1,1346.3,592.3z M1116.9,549.2c0.6-0.1,1.2-0.2,1.8-0.2c-0.6-5.8-1.2-11.7-1.8-17.5
	c-0.7,0.1-1.4,0.2-2.1,0.3C1115.5,537.5,1116.2,543.3,1116.9,549.2z M886.3,711.3c-0.7,0-1.4,0-2.1,0.1c-1,2.9-5.7,6,2.7,9
	C886.7,716.8,886.5,714,886.3,711.3z M1926.5,695.1c-1-3.9-0.7-9.1-8.1-7.6C1921.6,690.4,1924,692.7,1926.5,695.1z"/>
</svg>
