<?xml version="1.0" encoding="utf-8"?>
<!-- Generator: Adobe Illustrator 23.0.1, SVG Export Plug-In . SVG Version: 6.00 Build 0)  -->
<svg version="1.1" id="Layer_1" xmlns="http://www.w3.org/2000/svg" xmlns:xlink="http://www.w3.org/1999/xlink" x="0px" y="0px"
	 viewBox="0 0 444.3 474.9" style="enable-background:new 0 0 444.3 474.9;" xml:space="preserve">
<style type="text/css">
	.st0{fill:#282829;}
	.st1{fill-rule:evenodd;clip-rule:evenodd;fill:#282829;}
</style>
<g id="_1221359520">
	<path class="st0" d="M401.3,256.5c-0.7-2.1-1-3.6-1.7-5.9c-9.4-33,7.7-33.6-1.3-49.6c-1.1-2.1-0.8-0.3-0.3-2.2c1-3.9,0-5.7-4.8-5.7
		c-1.3-5.5-3.8,0-3.8-12.2c0-2.8,0.1-5.2-0.8-7.1c-1.3-2.4-2.5-2.5-4.8-3.6c-5-2.5-1.1-6.3-2.7-12.3c-1.1-4.2-4.5-6.9-9.5-6.9
		c-0.3-3.4-1-1.1,1-3.8c3.8-5,0.6-17.6-2.1-22.5c-2.7-4.8-6-4.5-10.5-6.9c-4.1-2.1-5.9-6.2-15.4-10.2c-6.4-2.7-1.1-3.2-6.7-7.8
		l-6.3-4.9c-2.9-3.4-4.2-14.4-17.8-16.8c-3.4-0.6-6.3,0.1-10.3,0.1c-6,0-2.9-4.3-16.6-6.3c-4.9-0.7-3.2,0.4-10.3-1.3
		c-0.1-2.5-1.1-4.2-3.1-5.3c-3.8-2-10.9-1.8-15.1-1.7c-3.9,0.1-3.4,2.5-4.6,3.8c0-13-7.4-13.3-8.4-16.8c-1.4-0.6-2.6-1.2-3.6-1.9
		c-4.8,2.1-9.9,3.6-15.1,4.3c-0.3,0-0.5,0-0.8,0.1l-4.3,3.5l1.3,2.2c-1.7,0.3-3.2,1.8-6.3,2.4c-2.4,0.6-5.7,0.3-8.3,0.3
		c-9,0-27.1-0.4-34.7,2.1c-6.4,2.2-8,4.2-8.8,9.2c-3.8,0.3-9.5-0.7-13,0.8c-4.8,2.1-3.5,4.5-6.2,8.4c-2.9,0-8.4-0.4-10.1,1.3
		c-1.1,1-3.2,5.6-4.5,6.9c-5.7,0.7-12.3,0.1-15.2,3.8c-5.9,7-8.4,2.7-15.8,11.2c-1.3,1.4-1.5,1.1-2.7,2.1l-11.7,11.6
		c-13,15.5-14.5,25.6-19.4,31.7c-0.4,0.7-0.4,0.6-1.1,1.1l-0.6,0.4c-0.6,0.6-0.1,0-0.6,0.7c-4.2,6.4-1.1,15.5-3.4,17.3
		c-6.7,5.7-4.1,10.6-4.3,17.2c-0.1,2.7-0.6,2.7-2.1,3.9c-5.2,4.5-6.4,2.7-4.3,11.6c1.5,6.7-1.7,7.4-3.6,13.6c-0.6,1.7-1,2.9-1.4,4.6
		c-1,3.6-5,16.2-5.2,18.9c-0.1,1.8,0.1,3.1,0,5c-0.7,16.2-2.7,18.3,4.3,36.4c2.2,5.6,4.8,10.9,7.6,16.2c0.8,1.5,1.4,2.9,2.1,4.2
		l3.5,8.5c0.8,2.2,1,5.9,3.1,8.7c1,1.3,7.4,6.2,8.1,10.1c2.1,11.6,8,12.7,8.5,15.8c1.4,7.4,0.6,10.2,5.2,18.5
		c3.2,5.7,5.9,9.6,9.8,14.5c3.4,4.2,7.7,8.7,12,11.7c0.8,0.6,0-0.1,0.8,0.6c0.1,0.1,0.1,0.3,0.3,0.3l28.1,18
		c8.7,3.8,12.2,2.4,21.3,3.1c0.8,0.3,1.7,4.8,12.6,4.2c3.1-0.1,2.5-0.7,4.5,1.1v-2.5l8.5,2.2c-0.4,1.4-1.3,2.5-1.8,4.2h7.1
		c-1.7-4.6-3.5-1.7-0.6-7.3c-8.4-1.4-6-2-10.2-5.5c-3.5-2.8-9.9,1.5-13.3-1.5c-1.7-1.5-1.3-2.2-4.6-2.9c-2.7-0.6-5.2-0.4-7.8-0.3
		c-9.4,0.3-15.2-4.3-22.5-8.7c-8-4.8-16.2-10.1-22.8-16.4c-1.1-1.1-2.5-3.2-3.5-3.9c16.4-5.9,10.2-19.9,25.2-21.8l-1.4,9.6
		c6-0.7,6.6,0,12.2,0.7c0.4-5.9,0.1-2.8,2.9-6.4l4.8-5c1.7-1.8,2.7-3.2,4.5-4.9c7.4-6.7,1.1-5.7,11.3-3.8l-2.1,9.6l-3.6,0.4
		c-1.7,3.2-3.5,3.1-7,4.5c2.1,10.1,16.6-6.7,19.7-16.8c4.2,0.4,4.8,0.8,8.1,1.8c-2-7.4-9.2-13.6-17.1-15.8
		c-5.3-1.5-10.2-0.4-13.1,2.8c-1.8,2-1.7,3.2-4.6,3.8c-8.1,1.7-27.7,15-38.9,19.4c-3.8,1.5-9,2.7-12.2,4.2
		c-3.6-4.8-2.7-16.4-4.5-18.5c-2.4-2.7-6.4-2-8.3-14.5c2.7-0.1,4.8-0.7,7.1-1.4l5.6-1.1c1.1-0.4,0.4,0,1-0.6l-0.7-2.1l-5.3,1.5
		c-1.5-1.4-2-3.5-4.8-4.1c-2.1-0.4-5.6,1-7.8,1.4c-1.3-0.8-3.6-3.1-4.3-4.5c-0.7-1.7-1.1-4.9-2-6.9c3.6-0.8,6.4-0.4,10.3-1.8
		c6.7-2.4,10.2-7,17.9-7.1c8.5-0.1,10.5-4.3,18.3-6.6c3.4-0.8,6.4-1.8,9.8-2.8c3.2-0.8,11.7-2.7,14.3-4.3c1.8-1.1,1.4-2,3.2-2.9
		c0,0,0.1-0.1,0.3-0.1c-7-1.7-7.8-2.7-9.8-9.4c-7.8,3.1-10.2,9.8-30.8,15.9c-5.2,1.5-12.9,4.5-18.2,5c-5.6,0.6-16.4,1.1-19.9,3.8
		c-3.9-7-7.1-14.3-9.9-22.4c-4.1-11.5-2.2-16.2-1.8-28.1c2.9-1.8,7.1-2.7,10.2-4.3c4.8-2.7,2.2-3.5,10.6-4.1
		c14.4-1,20.1,4.1,25.6,3.5c-1.4,8-4.6,10.2-2,15.2c1.3,2.4,1.7,4.3,3.2,6.6c1.4,2,3.6,3.8,4.8,5.5c4.3,0,6.2-0.7,10.8,0
		c4.1,0.6,7,1.4,11.3,0.6c4.8-1,5.2-1.5,5.6-6.6c0.3-3.9-0.7-6.9-3.1-8.7c-0.8,2.2-2.4,6.3-4.2,8c-2.1-1.1-5.3-4.8-6.7-7.3
		c-1.8-3.4-2.9-6.9-3.1-11.6c1.4,0.8,0.6,0.1,1.7,1.4c0.6,0.7,0.6,1,1.3,1.5c0.8,0.8,2.2,1.8,3.6,2.4c2.2,0.8,7,2.1,9.5,2.5
		c-1.3-5.5-0.8-5.9-0.3-11.3c-3.4-2.8-9.6-6.9-14-8.3c-9.8-3.2-52.4-9.8-59.2-8.5c0.8-4.3,3.5-7.3,4.9-12.9
		c14-1.3,27.4,1.8,40.4,5.7c6.3,1.8,7.3,3.4,11.6,1.4c3.2,3.4,9.5,2.7,13.7,4.1c6.9,2.1,2.8,3.9,12.9,5.2c-0.8-1.7-2.1-3.1-3.2-4.5
		c-2.4-2.8-1.1-3.5-2.7-5.7c-1.4-1.3-10.6-3.2-13.1-3.4c-2.8-0.1-2.1-0.4-3.9-1.5c-4.9-3.1-47.1-11.6-54.3-12c3.5-3.6,2.9-3.8,5-8.4
		c5.6,0.1,10.9,0.6,16.2,1.7c3.8,0.8,6.9,2.5,10.8,2.8c3.8,0.4,2.2,0.6,3.2-1.4c-2-1.1-5.7-1-8.3-1.4l2.5-4.8
		c-3.9-1.1-8.5-2.4-12.6-3.8c-3.4-1.3-8.7-3.6-12.2-3.8c0.7-2,3.5-3.5,4.9-7.4l0.6-1.4l14.4-0.7c1.1-1.5-1.3-2.1,5.6-3.5
		c2.8-0.6,5.2-1.1,7.7-1.7c-0.7-1,0-0.3-1.1-1.1c-5.2-3.8-18.6-6.9-24.3-6.7c5.2-5.9,9.2-17.3,14-24.8c2-3.1,2.8-4.9,7.1-5.9
		c5.3-1.3,17.1,0.8,22.7,2c9.8,2,10.3,4.8,19.2,6.7l-0.1-5c-2.1-0.8-3.5-0.7-5.3-2.4c2.2-1.8,6.4-2.2,8.5,0.1
		c2.1,2.2,4.5,3.6,6.2,5.9l-2.7,7.4c3.4-0.1,3.8-0.6,6.3-1.3c-0.6,3.4-1.7,5.3-2.9,7.7c2.8,1.3,3.8,0.1,6.6-0.1l-0.7,6.9
		c-0.6,2.8-0.6,1.7-13.4,2.5c0.1,1,2.8,4.3,3.6,5.3c1.8,2.1,3.9,2,6.6,3.2c-0.1,2.2-1,3.4-0.1,5.6h0.8c0-0.1,0.3-0.1,0.3-0.1
		c4.3-1.7,13.6-11.7,15.2-15.5c4.2-9.2-1.1-18.5-5-24.9c-4.2-6.9-8.7-13.6-14.4-18.7c-2.9-2.7-5.2-5-8.5-7.7
		c-2.5-1.8-7.4-5.3-9.2-7.4c3.8-1.8,8.4-1,10.8-2.1c1.4-0.7,4.3-5.7,5-7.4c10.8,0,7.8-1.7,11.3-2.4c3.9-0.7,8.1-0.3,3.5-6.3
		c4.6-2.1,7.4-0.1,11.7-0.8c4.5-0.7,3.9-1.1,8.3,3.2c2.1,2.1,3.8,4.9,6,7c3.4,2.9,7,1,10.8,0.3c-1.5-9.1-9-16.5-14.8-19.9
		c11.7-5.2,30.5,1.1,43.8-2.7c4.9-1.4,5.2-4.1,11.7-4.2c1.8,1.5,1.8,2.4,3.2,3.8c0.8,1,2.5,2.2,3.8,3.2c7.3,5.5,4.8,6.3,8.1,10.3
		c1.5,1.8,1.8,3.6,5.2,3.1c3.8-0.6,2.7,0.3,5.2,0.1c2.5-0.3,2.8-1.4,3.8-3.4c0.7,3.2,2.1,5.5,2.4,9c0.1,3.5,0.3,7.1,0.4,10.6
		l5.6-1.3l-1.7-19.9c2.4,3.2,11,2.2,15.8,3.1c7.1,1.4,6.9,5.6,13.7,6.3c7.3,0.7,11.2-2.9,16.8,2.4c3.4,3.2,4.8,9.1,8,12
		c1.8,1.7,3.6,2.8,5.5,4.3c2.9,2.4,1.1,4.6,2.9,6.9c0.8,1.1,10.1,3.9,13.1,6.4c2,1.5,3.2,3.1,5.3,4.5c2,1.4,3.8,2.5,6.3,3.5
		c3.8,1.5,3.6,0.6,4.9,4.9c0.8,2.8,1.4,5.6,1.8,8.7c-0.1,0.1-0.3,0-0.4,0.1l-4.6,1.8l-4.5,4.8c-7.1,9-6.2,4.1-9.1,8.1l-7.1,9.6
		c-2.9,3.8-4.2,6.6-10.9,6.6c-0.1-2,0-1.4-0.8-2.7c4.3-2.1,6-2.4,7.4-7.6c-9.5,0.3-11.3,2.4-18.3-2.9c-2.2-1.7-3.4-3.6-5.7-5.5
		c-3.6-2.8-2.1-2.5-4.3-6.9c-3.1-6-5.7-8.8-4.5-17.5c1-6.9,3.6-11.6,3.4-19.2c-3.2-1.8-5.7-3.2-7.1-7c-1,2-0.1-0.1-2.8,1.3
		c-0.1,16.5-4.8,26.4-6.2,41.4c-5.2,0-5.5-3.4-5.7-8.3c-0.3-4.6,0.7-9,1.7-13.1c2-8.7,3.5-16.4,3.4-25.9c-6.6,1.7-6.2,1.8-7.8,6.6
		c-0.8,2.2-1.7,2-2.2,4.8c-1.3,7-2.5,28.3-4.9,32c-6.7,0.7-3.5-3.6-5-7.7l-4.8-0.4c-2.5,3.5-1.7,3.8-7.1,4.1l-3.1-14.3l-2.8-0.1
		c-0.6,3.9,1.3,8.1,2.2,12.2c-2-0.8-4.1-2.2-5.9-3.5c-3.6-2.4-2.5-2.1-5-4.9c-6.2-0.6-7.4,1.7-11,3.6c-4.1,2.1-7.4-2.7-9.2-4.2
		c-2.9-2.5-5.5-2.4-8.7-5.9c-2.4-2.5-4.1-5.7-5.5-9.2l1,6.9l-3.1,1.5c0.1,3.6,2.7,7.8,4.2,10.6c0.8,1.7,1.8,3.1,2.4,5
		c1.3,3.8,0,2.7-0.3,6.2c2.2-1.1,1.7-1.5,3.4-3.2l4.1,1c-1.1-3.2-1.5-3.2,0.6-6c3.5,0,4.1,1.7,5.9,2.9c1.5-1,1.1-1.3,2.5-2.4
		c1.4,0.8,1.8,1.8,3.5,2.8c1.7,0.8,2.9,1.1,4.6,2.5l-0.4,0.6c-4.5,4.1-10.3,0.8-15.1-0.7c0.7,5.5,0.8,3.8,4.6,6.3
		c-1.7,1.5-3.6,1.5-5.7,3.6c1.4,1.1,2.8,2.1,4.6,1.5c0.6-0.1,0.8-1.8,4.3,1.4c-1.1,1.1-3.6,3.8-4.3,6c-2-1.4-1.4-1.7-4.8-2.5
		c-1.7,1.1-2.5,1.7-3.8,2.9c-3.2,3.1-9.6,4.6-12.3,7.8c-3.2,3.9-3.6,2.8-1.4,8.7c1.5,4.1,3.2,5.3,5.6,7.8c3.5-0.7,7.6-3.9,11-4.1
		c-0.7,0.6-4.9,6.2-5.7,7.3c0.6,1.5,1.8,2.9,2.8,4.6c1.5,2.4,1.3,2.8,3.8,3.6c0,2.8,0.1,8.1,2.2,9.4c1.3-0.7,1.5-3.5,2.8-4.1
		l1.4-0.6c1.8,3.9,7.8,10.5,10.8,14.4c1,1.3,2.8,3.6,3.6,5.2c-4.5-0.7-5.5-2.8-7.7,1.7c9.9,1.7,3.8,5,2.5,8l8.5-1.8
		c0.7,1.7,1.5,2.2,2.7,3.8c1.8,2.4,0.7,2.2,0.1,5.3c-1,5,1.3,7.1,3.1,10.1c2.2-2,3.6-5.2,6-6.7c2.8,3.5,0.6,3.9,5.6,6
		c5,2,5,2.8,8.1,4.2c4.3-10.1,10.5-10.3,12.7-13.8c3.1-4.9,2.1-13.8,8.1-18.2c5,1.8,10.1,12.4,14.4,15.9c1.4-1.7,2.1-8.3,2.2-11
		c0.3-4.9-1.3-7.8,2.8-9.6c1.4,5.2,1.1,5.6,4.2,9.4c2,2.5,4.1,4.8,3.4,9.2c4.1,1.4,2.5,0.8,6.7,0.3c-1,6.4,1.3,6,5.2,8.8
		c2.7,2,7.8-0.4,12-1.5c5.6-1.4,4.5-2.2,6.3-9.1c1.3-4.9,2.5-7.3,5.5-9.8c2.7,1.4,5.9,3.6,9.4,4.6c2.7-3.2,5.4-7.7,7.8-11.5
		c-11.7,4.4-28.7,7.5-32.3-1.6l21-10.2c4.9-2.2,17.5-8.5,20.4-11.3v-7.1c-2.9,0.4-16.1,10.3-21.4,13.4c-3.2,1.8-8.4,4.6-12.6,5.3
		c-2.7,0.4-5.7-0.3-8.4-0.4c-4.3-0.4-4.3,0.1-5.6-3.4c1.4-2.9,7.7-5.7,11.2-7.6c3.5-1.8,22.2-11.7,23.9-13.3
		c4.2-3.8,4.6-9.2,4.8-14.7c-1.3,0.3-2.5,0.4-3.5,1c-0.4,0.3-1.7,1.5-2.1,2.1c-1.3,2.1,0.3,1.5-3.8,5c-2.7,2.4-6.9,5-10.1,7.1
		c-8.4,5.5-14,8.8-26.9,6.9v-0.1l0.6-6.6c10.3-3.1,7-2.2,15.9-8.4l13.1-10.9c2.2,1.3,5.2,1.8,8.8,1.7c2.5-0.1,1.3,0.6,3.6,1
		c3.4,0.7,5.5-1.1,5.5,3.4c0,1-0.3,2.1-0.3,3.1c-0.7,5.7,2.9,10.9,8.3,12.4c0,4.6-0.7,10.2,1.3,14.1c1.4,2.7,1.4,1.3,4.3,6.9
		c0.8,1.8,1.1,1.1,2,2.8c-4.3-0.7-2.9,1.7-10.1,5.9c-1.7,1-3.9,2-6.4,3c6.8-0.3,7.4-0.5,13.7-3.5c1.7-0.8,3.4-1,3.6-2.7
		c3.6,5.6,0.4,9.7-1.1,15.2c-1.5,5.2-1.1,13-1,18.6c0.3,5.5,2,11.2,3.4,16.2c1.3,4.8,4.9,11.2,4.5,15.2c-0.8-0.1-1.7-0.1-2.5-0.4
		l-2.1-0.4c-6.9-0.6-9.8,0.6-16.9-2.5c-7-2.9-11.3-6.3-20.1-7.3l-3.5-6.9c-0.4,2-0.4,4.5-2.1,5.6c-0.6,0.3-0.4,0.3-1,0.6
		c-2,1-4.2,1.4-5.7,2.8c9.9,4.3,19.2,9.9,28.4,15.4c2.2,1.3,7.6,4.8,9.5,5.5c1.3-1.8,1.4-3.5,3.5-3.9c-3.1,3.8-2.1,11.5-1.7,17.1
		c-7.1,3.6-7.6,6-7.4,15.8c0.3,18-4.5,16.6-7.8,27.1c-0.4,1.3-0.8,2.8-1.3,4.2c-0.7,2.4-1.1,1.7-3.4,2.7
		c-3.6,1.7-14.7,12.6-18.5,16.5c-2.7,2.7-3.5,2.4-5.9,5.7c-1.7,2.5-2.8,6.2-4.3,7.4c-1.5,1.3-2.4,0.3-3.6,2
		c-2.8,3.8,2.8,11.9-15.5,13.7c-4.8,0.4-6.7-0.7-8.5,3.4c-1,2.2-3.6,4.5-6.6,5.2c-3.9-4.8-7.4-2.4-11.3,0.6
		c-2.5,1.8-2.8,4.3-0.6,6.6c-3.9-0.7-6.7-2.4-10.8,0.1c-5.5,3.2-4.6,5.2-6.9,6.3c0.1,0.1,0.3,0.1,0.3,0.3c0.1,0.4,0.6,0.1,1.1,2
		c0.3,1,0.4,2,0.6,2.7c0.1,0.6,0.2,1.1,0.4,1.6c6-2.7,12.1-4.7,18.4-6.3c1-0.8,2.2-1.4,3.5-2c2.1-1.2,4.3-2,6.6-2.6
		c-0.1-0.2-0.2-0.4-0.3-0.6c4.2-0.3,9.2-3.6,11.5-6.7c1.1-1.5,0.3-1.1,2.1-1.7c4.1-1.3,19.9-1.3,23.2-14.1c1.3-5.2,2.9-2.7,6-9
		c1-2.1,1.3-3.1,2.8-4.6l7.7-7.3c1.5-1.5,2.2-2.1,3.9-3.5c2.7-2.1,4.9-5.5,7.6-7.3c1.8-0.4,4.9,3.1,7.7-4.9c1.1-3.2,2.1-7.3,3.5-9.9
		c4.9-9.5,5.2-7.8,6.9-20.1c0.3-2.9-0.4-11.2,0.3-13.1c1.3-2.9,6.6-2.2,7.3-6.3c1.4-7.7-3.5-13.1,2.5-17.1c1.7-1.1,2.5-1.8,3.6-3.4
		c6.4,1.5,8.1,0.4,8.4-4.5v-7.1h0.7C404.7,263,402.6,260.2,401.3,256.5z M115.9,109.8c0,0,0,0.1,0,0.1L115.9,109.8L115.9,109.8
		c0.6-2.3,1.3-3.5,3.3-4.6l1.4,5.7L115.9,109.8z"/>
	<path class="st1" d="M329,285.7c-2,4.1-7.1,9.4-8.5,12.6c0.3,0.1,7.7,0.8,2.4,3.8c-1.7,1-3.6,1-5.2,0.6c0.8,0.6,4.3,2.9,4.9,3.6
		c-6.3,6.4-2.1,3.8-3.1,11.6l-4.2,1.7l-0.1,4.1c3.1-1.7,8.3-9.5,11.7-11.3l9.2,11.2c2.9,3.5,6,7.6,7.6,13c2.7-2.7,1-3.1,6.4-2.7
		c2.8,0.1,5.9,0.6,8.8,0.7l-0.1,6.9l5.9,0.1c2.4-11.3,2.5-10.3-9.2-20c-6.2-5-7.1-5.9-14-10.3c-2.2-1.4-2.5-2.4-3.8-4.5
		c-8.5,2.8,2,2-9.2,3.5c0.8-5,2.8-6.7,3.2-10.8c-1.7-0.3-1.3,1.1-2.5-2.5c-1-2.7-0.7-3.1-0.4-6c1.5,0.6,6.3,4.1,7.8,5.2l19.7,13.8
		c1.8,1.3,2.5,1.4,4.8,0.1c8.4-5-4.6-9.4-9.1-12c-7.3-4.3-9.1-7.3-19.9-7.3l2.2-8.5c-3.4-0.6-6.3-1.5-9-2.7c1.1,2.1,2.5,3.8,3.9,5.9
		L329,285.7z"/>
	<path class="st1" d="M140.6,93.4c2.9,4.1,8.5,9.4,12.2,12.6c2.1,1.8,4.2,4.3,6.3,6.3c7.8,8.1,8.3,3.9,12.6,12.6
		c1.5,3.1,1.1,6.9,2.8,9.8c2,3.4,4.6,4.6,5.7,6.9c1.3,2.4,3.4,6.9,3.9,9.4c3.2-0.1,2.8,0.3,4.6-1.5c1.1-1.1,2.1-1.5,2.8-3.1
		c2.5,1.1,2.7,2.1,3.9,4.3c0.1-0.1,0.3-0.3,0.3-0.3c0,0.1,0.1-0.1,0.3-0.3l1.4-2.4l6.9-0.3c1-1.7,1.4-4.5,2.2-5.6
		c1.1-1.4,2.7-1.1,4.3-3.5c-7.4-3.8-8.5-8.4-14.4-16.2c-1.8-2.4-3.1-3.5-2.8-7.6c-3.5,1.3-2.7,2.2-7.4,1.5
		c0.8,4.6,13.1,19.6,12.6,25.9c-6.4,1.5-13.7-3.5-15.1-5.7l-4.3-9.2c-2-3.6-4.6-7.8-7-10.8c-3.4-4.2-5-4.6-10.8-6.9
		c2.5-7.4-2.7-9.6-6.6-13.4c-6.6-6.4-7.3-5.6-14.3-2.7L140.6,93.4z"/>
	<path class="st1" d="M220.1,393.4c4.8,2.8,4.1-0.7,6,5.3l1.5,2.7c2-2.5,3.4-5.9,5.2-8.4c3.5-4.6,9.2-5.7,4.8-12.3
		c-1.5-2.4-1.1-2.2,0-4.8c2.2-4.6,1-7,7.3-4.9c0.7-0.7,0.8,1.1,0.7-2.1c0.3,1.5,2.2,8,3.1,9.1c3.2,0.6,6.2-1,8-2.7
		c2.4-2.2,2.4-3.9,5.7-5l-5.9-12.6c-1.7,0-6.4-0.4-7.7,0.1c-2.9,1.4,0.4,4.1,1,5c-1.5,1.7-3.2,1.7-5.9,1.8c0.3,1,0.6,1.3,0.6,1.8
		c0,0.1,0.6,0.4-0.1,1.7l-1.4,0.3c-1.7-3.1,1-7.4,1.5-10.8c-12.7,1.3-12.3,3.5-16.8,13.3c-2.7,5.6-7,15.9-7.7,22.7L220.1,393.4z"/>
	<path class="st1" d="M180.5,346.4c0.4,11.7-3.9,20.3-8.1,29.1c-6.9,14.3-13.6,18.7-15.9,22.4c7.3,0,5.2,0.6,8.7-3.5
		c4.8-5.3,11.2-14,15-20c4.5-7.3,12.7-22.8,14.5-32.7C185.2,345.3,189.3,346.5,180.5,346.4z"/>
	<path class="st1" d="M109.9,313c7.3-1.4,24.8-8.1,32.2-11.7c6.4-3.2,6.4-2.4,7.6-7.6c-3.9-0.4-9.8-2.2-13.4-1.1
		c-3.4,1-7.4,3.2-10.8,4.6c-4.5,1.8-11.6,4.6-14.4,8.4c-1.3,1.7-0.7,3.2-1,7.4H109.9z"/>
	<path class="st1" d="M98.1,193.4c4.1,5.7,37.8,13.3,44.5,13.4C135,189.6,105.8,189.1,98.1,193.4z"/>
	<path class="st1" d="M103,333.8c6.9-1,27.3-9.2,32.7-14.1c2.2-2,12.7-3.1,19.9-8.5c-2.4-2.5-1.7-2.4-6.3-3.5
		c-4.2-1-9.1,2.9-13.8,5.7C130,316.6,107.1,324.7,103,333.8z"/>
	<path class="st1" d="M301.2,378.8c0.3-7.1-2.5-17.1-4.1-23.6c-2.2-9.5-2.1-14.3-11.7-16.8c1,7.4,5.2,26.7,7.8,34.3
		S295.6,376.3,301.2,378.8z"/>
	<path class="st1" d="M332.6,270.7l4.5,1.7c-2,7.3-1.3,7.3,10.9,11.3c10.1,3.5,10.2,5.5,15.4,8.8c0.6-1.3,0.6-2.5,1-3.8
		c1-2.5,1.1-0.6,2.2-3.5c-2.1-3.8-13.7-7.4-18.2-9.8c-3.2-1.8-4.9-4.1-7.6-6.4c-2.5-2.4-1.1-1.1-4.3-2.7c-2.4-1.1-1.5-1.7-5.2-1.5
		c1.1,2.4,0.8,2.9,1.4,5.7L332.6,270.7z"/>
	<path class="st1" d="M315.9,370.6c-0.6-8-2.1-15.4-4.2-22.7c-2.2-7.8-4.9-11.9-12.2-14.3c0.4,7.7,2.8,14.8,4.9,21.5
		C306.8,362.9,307.2,369.3,315.9,370.6z"/>
	<path class="st1" d="M186.5,414.1l2.5,0.1c-1.5,1.8-1.7,2.2-1.7,5.3c3.9,2.9,11.9,5.5,17.5,5.6c5.7,0.1,13.7-2.1,19.3-3.4
		c6.9-1.5,13-2.2,20.3-2.1c3.6,0.1,7.1,0.4,10.8,0.6c2.1,0.1,5.6,0,7.6-1.1c3.6-2,1-1.4,0.7-1.7c-3.2,0.3-5.7-0.4-8.8-0.7
		c-23.4-1.3-31.3,5-43.2,5.5c-7.4,0.3-9.8-2.2-15.5-3.6c2.8-5.3-0.6-8-6.4-7C187.5,411.8,186.9,412.3,186.5,414.1z"/>
	<path class="st1" d="M182.6,393.8c6.7-0.7,6.7-2.8,9.2-8.1c2-4.1,3.8-8.3,5.7-12.4c5.9-12.7,5.5-12.4,10.3-25.2
		c-7.1-0.4-5.9,4.5-8.1,9.2c-2.5,5.5-16.2,33.6-17.2,36.6V393.8z"/>
	<path class="st1" d="M119.5,179c0.3,3.2,1.7,3.6,4.3,4.9c2.1,1,4.8,1.8,7.1,2.7c4.5,1.5,10.1,3.6,14.7,4.6
		c-1.5-5-4.9-11.2-8.5-13.1c-3.5-2-14.3-0.6-17.8,1H119.5z"/>
	<path class="st1" d="M284.3,376.6c-0.3-5.2-1.7-13-2.8-18c-1.3-5.7-3.2-10.9-8.7-12.2l3.1,17.3c0.8,5.6,2.5,10.9,8.3,12.9H284.3z"
		/>
	<path class="st1" d="M262.6,131.9l7.6-4.1c0-11.5,2.2-20.7,2.2-23.8c-0.1-2.8-0.4-2.1-0.8-2.7c0-0.1-0.1-0.3-0.3-0.3
		c-3.9,5.9-3.8,5.6-5.6,13.8C264.3,121.1,262.6,125,262.6,131.9z"/>
	<path class="st1" d="M205.4,387.7c5.9-7.1,5.2-7.4,9.1-16.8l7.6-18.5c-7,2.5-7.6,8.3-10.3,15.7c-2.2,6.3-5.7,12.2-6.3,19.4V387.7z"
		/>
	<path class="st1" d="M162.9,85.3c-0.4,8.8,4.3,8,7.7,12.6c2.1-0.6,5.3-1.8,6.6-3.2c-1.3-3.2-3.4-5.3-5.2-7.3
		c-2.1-2.4-4.3-4.6-9.1-2V85.3z"/>
	<path class="st1" d="M198.8,103.1c-0.7-5-1.3-7.3-5.3-9C191.8,99.4,194.3,101.2,198.8,103.1z"/>
	<path class="st1" d="M363,316l-0.3,5.5c2.5-1.1,6.9-6.3,9.8-8.1c-1.7,0.1-2.9,0.7-4.3,1.4C366.1,315.6,365.1,315.5,363,316z"/>
	<path class="st1" d="M310.6,374.5c0,1.3-0.7,1.7,2.8,3.5l4.2-2l-0.4-1.7c0,0,0-0.1-0.1-0.3c-2-0.4-5.5-0.8-6.6,0.4H310.6z"/>
</g>
</svg>
