<?xml version="1.0" encoding="UTF-8"?>
<svg width="18in" height="13in" clip-rule="evenodd" fill-rule="evenodd" image-rendering="optimizeQuality" shape-rendering="geometricPrecision" text-rendering="geometricPrecision" version="1.1" viewBox="0 0 18000 13000" xmlns="http://www.w3.org/2000/svg">
 <defs>
  <style type="text/css">.fil0 {fill:black}</style>
 </defs>
 <path class="fil0" d="m6361 14439l358-923c-56 457-326 755-358 923zm-332-889l83-131c-19 128 54 36-83 131zm-846-349c50-184-2 2 64-133 27-56 34-87 53-142-19 251 5 139-117 275zm1676-1459l26-143c43 76 18 79-26 143zm-911 46c64-88 9-59 130-111-9 9-30 43-41 53-71 66-5 28-89 58zm-498 203c65-101 310-408 470-440-58 109-121 108-216 221-78 93-172 170-254 219zm4492-888c34 57 85 39 56 121-53-8-123 97-56-121zm-2776 253c55-107 58-12 83-149 16-84-8-154-13-248 82 117 116 100 146 203-146 116-147 31-216 194zm1945-199c116-175 210-81 338-244-65 173-174 158-338 244zm-1568-310c2 151 48 93-90 73l90-73zm2776-63c-32 71-42 87-86 138l-31-128c-186-19-160 15-289-59 223 22 137 3 280-8 103-9 0-61 126 57zm476-8c-96-62-112-10 11-130l-11 130zm-913-69c-178-63-84-7-124-90 120-48 74-38 124 90zm-450-246l55 113c-100-44-58 19-55-113zm-2174-105c131-63 362 37 436 135-6 4-17 8-21 9-375 94-16 125-366 92-8 140 15 180-33 265l-39-113c-21-142-23-274 23-388zm1851-84l-75 373c-86-97-135-141-117-327l192-46zm2322-23c69-69-62 63 0 0zm-534 33c53-100-33 62 0 0zm652-318c-77-104-28-23 27-80l-27 80zm-2092 18c0 1-67 94-28 6 18-37 38-51 28-6zm1791-116c-54 41-23-2-58 63 10-73-22-32 58-63zl90-93-90 93zm616-183c55-138 292-353 419-429-181 272-189 273-179 451-21-11-124-58-146-61-179-24-42-16-94 39zm-526 90s-64-472 330-520c-86 130-68 171 24 275l-354 245zm399-1023c-2 182 23 67-37 94l37-94zm-1085 543c80-175 74-158 240-257 277-167 79-186 261-209-60 91-56 80-115 196-74 147-87 91-140 226 173-34 238-40 292-159 24 271-70 357-197 511-172 209-108 277-134 587-149 49-180 87-296 148-145 76-209 45-355 118-254-250-160-136-545-96l-51-54c-7-7-17-17-26-25l-50-45c-79-74-29 20-68-78 307-163 274-215 416-282l59 159c165-55 58-43 205-97 542-199-38-290 228-573 5 8 13 20 15 26l57 224c211-30 373-225 417-429-298 30-67-5-213 109zm962-501c-90-5-41 100-91-96 147 25 93-19 91 96zm440-197c-1 0-57 78-25 11 21-46 36-61 25-11zm-489-131c21 151 52 51-120 146l120-146zm-4706 3278c-50 142-189 440-295 555-529 575-750 1291-1193 1951-85 126-220 267 17 334l359-593c89-168-12-76 141-191-106 432-478 862-337 983 108 40 100 53 177-95l335-714c74-141 121-322 189-479 73-171 201-312 263-453 74-165 96-317 182-486 113-220 77 51 283-426l279-396c168-250 109-209 339-344 15 125-235 366-443 745-88 160-150 234-243 386-139 226-80 266-156 469-10 27-94 139-117 180-52 90-51 140-97 240-136 294-489 1155-432 1427 114-43 126-111 193-203 3 394-53 323-70 441-17 116 3 111 32 161 294 78 91-417 298-889 63-144 156-286 198-429 238-815 45-777 437-1535 352-679 286-558 583-717 71-868 187-712 9-1206 210-46 344-1 636-114 93-36 42-43 189-47 75 131 61 114 148 227l-34 183c-53-51-47-62-137-75-26 166 10 336 11 495 3 229-92 285 54 413 240-100 56-143 92-510 153 81 177 145 362 127l-97 123c69 150 100 85 159 259-163 239-413 473-570 747-142-89 18-38-174-86l-328 1223c-14 217-6 266-59 476-68 269-350 1604-265 1785 272-19 142-357 180-663 21-168 80-606 155-716 33 26 71 54 109 83-20 82-32 135-51 235-23 125-23-45-19 105 5 242-16 39 45 129 70-44 65-89 87-170l47-120c43-110 85-225 129-339 89-234 236-430 304-617 48-133 20-197 109-304 348-418 180-367 342-583 62-83 130-182 159-291-207-25-254 158-357 345-89 163-174 276-267 451-63 120-60 79-113 217l-340 758c62-281 172-363 163-688 104-60 170-156 228-275 76-156 191-305 166-474l-64-7c-169 63-593 1131-618 1268l116-644c28-214 257-507 104-561 246-48 217-179 319-395 161-339 396-531 622-846l331-428c105 166-137 370-249 555-189 312-500 602-566 969 262-96 283-341 446-503l395-570c86-180 87-257 354-277l-469 627c-59 70-69 53-109 100-80 96-108 245-54 351 233-81 91-173 279-332 121-102 507-741 616-858 123-133 121-2 208-123 25-34 52-173 96-252 78 298-101 405-213 551-180 232-387 428-548 673-24 37-52 77-83 119l-36 47c-44 53-25 30-60 68-96 104-114 107-189 230l-184 402c-111 178-181 215-334 507-55 105-35 63-77 133l-374 886c-81 184-195 434-108 635 145-103 168-438 255-619 91-188 190-401 273-608 90-223 178-395 304-575 103-145 82-226 140-314 66-99 18 18 110-107 48-65 37-110 75-178 66-116 97-53 184-239l954-1173c90-98-14 34 62-64 115-150 110-282 278-384 157-94 50 32 147-110 70 220-11 71 141 128 237-433 695-662 972-1032 123-164 54-39 92-243 30-165 174-311-25-402 24-239-133-980-356-1111-120 144-30 172-5 385l-122 73-41-209c-18 1-164 21-165 21l-128-111-181 142c-129-394-10-172 195-623 145-320-8-293 51-618 71-394-24-331-83-628-41-208 69-496-24-644-132 41-84-1-128 159-32 114-72 182-84 256-6 38 44 521 51 625 67 1029-151 786-202 1007 28 172 92 144-32 269-130 131-171 91-205 283l248-130c-57 139-167 243-279 326l-399 314c-165 138-92 84-161 300l-242 91c-17 354 89 112 180 388-154-65-10-25-172-127l-124 62-25-149c-569 59-731 415-1258 606-156 56-366 100-479 141-41-38-41-53-72-83-97-92 4-22-114-78-73 150 4 77-107 176-426 51-607-136-768-371l513 153c-71-194-302-170-417-356 718 177 706 153 1344-55 136-44 293-99 263-256-44-28-5-42-100-46-117-4-166 75-258 121-298 150-591 145-867 43-309-114-179 47-423-37-8 9-20 10-23 26l-61 96c-80-69-64-52-125-158-105-183-27-103-188-141 8 220 108 391 278 516-3 11-10 15-12 31-6 73-63 91-32 179 63 78 133 122 179 252l-366 209 12 461-201 16c-43 307-123 295-291 456-129 122-2 78-153 92 94-38 165-133 224-236 77-133 29-92 42-162l62-189c-185 9-275 127-440 227-141 84-291 132-447 223-491 283-945 130-922 442 339 48 547-144 811-219-106 133-136 140-254 245l-319 274c-203 192-473 354-454 682 366-46 427-488 741-619-84 128-230 272-333 392-77 89-82 135-149 234-98 143-144 61-84 315 87-17 121-7 174-105 67-123-9 5 29-97 31-83 5-43 58-109l441-437c184-167 197-376 452-475-47 166-126 244-266 335l-150 176c-88 128-176 191-244 347-102 233-708 795-277 961 69-126 143-305 202-419 48 171-100 263-194 398-135 192-101 359 167 273 16 142-74 318 60 386 197 56 204-240 267-415 58-157 173-198 195-358 24-178-85-152-85-149l-97 52c-131 136-110 332-308 389 32-96-2-14 45-106 4-7 10-19 15-27l310-566c1-1 51-110 53-113l167-450c-341 67-61 179-286 196 96-137 53-239 226-353 8 8 18 10 20 25l49 79c80 88-80 36 161 73 52-76 105-232 144-343l-106-125 147-247c44 55 75-100 30 103-5 22-33 12-53 131 232 49 341-244 426-386l426-432c-115 248-377 478-527 709l-535 723c-98 129-197 282-204 453-13 349 29 155 106 208 50-184 122-313 212-464l140-195c102-125 70-47 158-222l285-425c142-227 150-238 341-382z"/>
 <path class="fil0" d="m5831 2321c82-54-33-47 92-28 196 31-102-164 52 70-224 1-59 4-144-42zm-171-275c15-125 44-77 82-163-12 135-22 38-82 163zm-164-708c21 236 43 562-24 719-94-80-50-147-150-281 103-68 34 26 156-42-85-141-82-254 18-396zm-318 449c-108-80-89-173-60-324l135-5-75 329zm611-458c-46 75-7 47-105 66 74-49-94-37 105-66zm3748-462c49 86 47 22-21 94l21-94zm960-94c114 16 19-5 76 40-104 58-352 47-463 44-44-1-364 74-369-34-2-37 265-2 378-8 102-6 249-60 378-42zm-2462-8c28-129 7-133 143-150-2 132-35 122-143 150zm957-171c-46-94-30-12 33-144l-33 144zm-688-57c363 139-72-145 327-75-25 58-54 75-112 121-142 114-95 3-135 227l734-97 69-150c76 158 6 28 145 166-40 66 5 104-144 91-443-39-320 93-655 95-323 2-610 110-905 143 184-182 37-116 107-284l64 176c397 13-23-41 590-117-54-222-101-113-85-296zm1940-143l101-15c4-9 16 10 24 15l-98 11c-4-9-18-8-27-11zm-1981 17c-125-6-123-6-56-127l56 127zm1844-17c-215 93-71 12-175 234-15-159-2-215-107-228-101-13-39 46-139-6 90-65 230-47 301-26l120 26zm-1135-64c16-117-44-71 95-86-36 87 22 56-95 86zm1198-261c172-8 87 20 108 91l-214-18c13-97 14-68 106-73zm-963 73c156-76 222-68 241 95-12-6-49-25-60-30-9-4-22-9-33-13l-148-52zm-676 139c-64-73-71-82-151-123l171 12-20 111zm266-181c-42-85-30-45-82-98-13-13-27-8-52-54l480 7c-158 66-9 77-261 120-72 196-38 229-228 242-48-228 100-162 112-199 5-15 22-11 31-18zm1886 38c47-159-34-3 151-123 145-94-35-54 159-104-45 63-58 140-93 211-109-53-116-13-217 16zm-795-26c95-189-25-187 126-203-52 38-85 28-76 220l-302 32 69-126c89 48 53 41 183 77zm756-498l-436 17c-321 35-284-36-503-81-9 6-21 6-25 20-4 13-19 16-24 20-7 5-36 32-45 39-115 89-256 97-409 101-847 24-828 139-1510 232-156 22-123 55-294 90-708 143-1617 332-2113 700-48 165 32 75-70 222-63 92-78 55-123 179-59 162-155 258-172 412-35 333-6 864 159 1064 63 49 44 15 91 20 270 25-135-59 73 2 65 20-36 88 219 45 28 129 115 239 218 337l-432 294c63 138 39 106 182 173 472-237 459-635 490-727 68-202 59 12 162-218 24 31 23 29 51 70l122 223c167 128 124 10 130 9l3-70c-2-6-5-24-8-31l-88-78c209-157 174-23 248-251-314-39-257-136-519-163 145-118 56 9 96-153-7-8-19-34-22-27l-63-92c192-186-48 158 40-39 25-55 16-22 30-94 17-90 2-99 31-206l-180-113 92-139c-68-215 19 28-84-141l165-128c10-8 65-55 67-56 153-98 410-138 586-207-25-176-28-192-206-139s-270 182-437 204l-65 9c-8 2-21 7-29 10-7 1-18 8-24 10-288 89-135-18-151 147l-128-167c129-85 35-65 149-129 66-36 141-39 212-70l84 112c38-55 15-2 34-84 48-208-46 56 9-69 74-168 784-201 965-301 154-85 127-6 250-164 83 72 35 50 167 74 100-103 78-39 116-183l64 87c34 42 15 29 65 70-147 114-93 22-65 222 142-29 180-2 207-118 56-243-22-61-68-181l122 40c-51 114 28 186 44 244-164 9-146-14-275 66-57 34 15 29-80 50l-120 3c-8 1-24 3-36 7-85 263 39 149-153 319l108 168c-75 167-181 171-153 358-12-137-72-259-51-342 42-163 111-185 49-376-11-2-29-15-33-4l-118-9c-80-73 65 151-35-78l-49-113-304 91 13 263c-164-22-441 140-510 252l675-108c104 163 3 59 152 150l48 463c190 66 119 91 308 127 14-80 32-161 46-254 71-478 246-273 810-313 172-12 309-47 478-73 184-29 320-17 508-30 329-23 701-67 1048-53 346 14 154 145 460 109 298-35 133-191 78-323 97-117 52-214 2-318-16-34-14-15-23-72l241 47c24-141 8-271 51-358l-163-41c-2 0-9 1-13-1 50-312 80 83 203-241 241 84 608 78 582 406-11 137-309 395-381 631 1 65 87 97 78 461-7 265-65 381 193 423 196-576-291-701 77-1006 197-164 343-687 142-902-80-87-532-190-650-205-471-57-139-269-502-337-84 77-107 165-151 284z"/>
 <path class="fil0" d="m6626 4225l-10 167c-157-109-79-36 10-167zm296-123l-12-224-20 430-79-170 111-36zm-632-89l33 130-33-130zm-441 219c-57-14-128-42-138-43 157-169-37-176 195-124-59 56 20-106-33 59-17 53 0 44-24 108zm699-345c62-118 21 30 55-101 22-85 14-164 12-251 103 164 75 271-67 352zm2073-1482c12-69 77-69 142-48l-142 48zm-620-173c110-89 382-154 586-175l283-3c135 3 148 34 138 157-69-50-432-57-545-53-245 7-240 57-462 74zm421-313l-226-19c-295 401-362-250-481 444-105-58-51-26-151 10-86 31-64 71-160 9 82-53 36-26 141-60 203-66 80 50 159-108-48-36-4-38-97-55-128-23-337 63-375 54-173-117-36-116-264-126l-39 193c-85 8-283 54-337 76 25 135-35 135 102 161 160 30-11-16 140-69 3 264-160-74-159 340 279-18 189-44 387-106 214-68 189-40 338-178 112 78 104 47 419 63 69-100-35-106 336-133 327-23 127-143 414-54-87 143-864 389-1083 458l-1143 439-61 144-56-94-117 84 122 96-108 163c-44-41 42-84-176-31l-475 280c-95-34-387-210-291 79 24 74 176 206 234 395-13 169-156-63-95 417l-316 128 130 198c5-6 26-39 33-46 54-58 1-29 77-51l6 329c273 65 47 308 423 238-11-68-234-422-117-869 50-193 23 58 45-127 1-9-12-177-14-216 336 48 528 157 846 214 81 14 635 184 874 75l-42-111c-5-6-17-14-22-18l-78-1041c-17-114-70-169-118-266-406 69 151 27-397 125 49-207 151-79 423-181 77-28 86-50 174-74 85-23 78-1 172-42 221-95-46-87 540-213 194-42 187-81 320-142l1220-296c-34-131 23-32-184-192-6-5-14-15-20-19-207-153-91 22-171-124 409-203 736-28 871-44 281-32 31-43 213-177l898-31c-36-88 10-117-185-128-75-4-198 18-275 25-180 15-333-39-564-22-351 25-766 86-1048 1l-203 117c-157-133-6-94-174-196-117 48-109 34-235 304z"/>
 <path class="fil0" d="m11030 12350c57-103 97-99 152-219 47-104 54-164 118-255 82-116 107-168 160-262 90-160 79-96 178-196 76-78 95-153 168-252 357-490 518-439 493-669-198 42-331 225-483 387-92 99-88 140-170 251-60 82-505 457-632 669-327 545-109 202-212 420-39 83-6 8-52 63l-219 324c-65 125-95 61-161 265-79 244-31 559-114 722-76 149-79 130-134 327-134 473-315 728-291 963 209-126 210-455 367-613-31 125-23 178-14 222 161 41 161 34 235-71 70-97 71-101 57-231 7 356-236 440-100 654 157-16 114 26 157-135 20-77 20-163 63-230l258-329c217-354 264-295 502-630 174-246 890-1139 896-1354-161-3-199 83-300 189l-1193 1577c-101 181-59 122-249 204-39-141-2-149 116-255 269-243 64-141 360-485 147-171 112-213 167-396l223-171c323-308 326-475 520-655l380-418c124-166 267-265 299-535-177 61-57-11-192 143l-273 311c-155 185 40 22-267 279-26 22-70 54-91 75-27 29-19 20-54 70-88 123-164 199-243 305-256 344-486 598-719 958-35 54-28 56-63 110-58 88-115 100-71 215-180 40-94 5-121-17 108-122 110-269 203-446 72-136 70-62 153-187 46-70 29-94 82-163l-46-75c-6-9-15-20-20-29-5-8-13-17-16-25l-78-272c99 134 12 122 186 32-69 153-69 61-2 224 246-70 262-173 298-252 67-144 362-475 482-602l159-177c79-91 125-191 227-275l446-477c96-116 148-160 91-299-151 40-140 65-234 198l-272 357c-296 224-615 652-813 871l-214 202c-47 48-10 8-57 47l-26 23z"/>
 <path class="fil0" d="m7914 4069c143 34 102 36 62 130l-62-130zm50-156c6-3 17-15 20-9l273-52c-43 103-53 8-74 116-159-143-101-41-219-55zm914-402c73 57 35-7 48 93l-33-46c-3-6-7-35-15-47zm-208-156c56 178 51 109 10 288-181-63-8-167-10-288zm654 436c104-268 160-277 442-349-75 143 5 29-81 119-95 99-225 193-361 230zm-80-329l-42-133 141 67c-113 34-30-8-99 66zm-1107-188c-76 46 1 11-108 40 50-63-33-123 108-40zm2345-389c-73 145-125 179-287 267l-57-196 344-71zm-1158 906c-136 78-245 189-407 252-179 70-360 135-479 237 52 34-135 143 374-42l1913-1232c275-190 121 16 378-78 155-83 236-314 119-573-62-138 14-102-170-107-31 277 46 234-60 518l-271-114 64-300c-238-26-215 159-297 375-318 27-607 34-900 98-209 46-297-8-427 5l-1907 345c-24 9-74 29-94 41-81 50-18 6-75 69 12 6 32-2 39 15 13 27 107-9 190 67 8 7 36 63 44 74l54-98c3-6 12-21 14-25 1-1 315-247 373 309 23 223-48 579 20 711 175 5 142-1 247-118 173 15 70 17 214 61l182-158c-40-110-31-73-54-169 81 35 23 6 73 50 76 67 102 189 423-95 160-142 180-98 420-118z"/>
 <path class="fil0" d="m9019 15278c282-68 155-168 388-602l844-1756c37-69 17 34 67-143 104-365 52-119 181-318 68-106 66-165 162-301l599-825c218-349 501-646 486-865-211 68-208 130-418 386l-67 104c-327 560-717 999-1082 1728l-907 1901c-80 216-243 552-253 691z"/>
 <path class="fil0" d="m8687 15405c251-99 171-315 304-644l695-1525 691-1066c120-112 110-117 165-260 41-108 513-598 582-759 21-48 91-265 114-347-220 107-228 268-513 580l-421 587c-24 45-12 39-39 91l-162 210c-149 151-94 131-193 310-176 317-317 489-287 713-286 79-434 728-543 972-44 97-97 150-140 237-23 47-84 211-104 275-60 192-134 425-149 626z"/>
 <path class="fil0" d="m5792 5380c103 65-66 67 232 5 98-21 201-6 308 2-111 102-141 60-142 240 148-1 241-64 371-110 197 190 58 81 277 143 8 2 22 8 33 13-39 243-91 283-16 431 128-95 43-91 105-286 24-79 86-202 115-271l-49-251c84-53 12-10 140-25 95-124 157-142 149-352l-418 10c-194 158 20 90-213 90-116 0-245 22-347 49-161 41-442 186-545 312z"/>
 <path class="fil0" d="m8404 4709c196 174 281 39 528 109l379 122c2 1 65 37 81 45-148 31-591-122-693 12-38 105-14 158 111 158l262-15c186 29 75 91 65 167-18 129 59 114 131 109 144-10 305-96 415-146-16-526 16-250-464-488-140-69-21-65-207-93 584-36 424 196 642 61-43-176-35-128-258-159-333-47-466-119-743-101-169 11-225 15-249 219z"/>
 <path class="fil0" d="m8798 6864l89-32-89 32zm-323-60c26 134-13 129 187 163 444 77 308-75 941 64 57 137 60 249 207 253 76-215-24-168 74-427 68-177 19-277-34-406-363-37-424 94-700 174l-675 179z"/>
 <path class="fil0" d="m5645 6517c213 239 247 332 265 693 113 82 81 31 147 139-93 115-431 259-304 724 286-175-38-423 653-838 183-110 72 23 110-141-180-25-141 10-268 23 38-57 92 27 151-164l-334-70-261-579c-29-104-3-40-39-105-117 36-74-84-127 103-16 59 2 155 7 215z"/>
 <path class="fil0" d="m10585 14938c336 122 321-71 452-267 231-345 362-431 614-895 96-175 278-302 192-477-172 6-310 233-389 366l-267 446c-174 242-142 144-298 416-92 160-263 230-304 411z"/>
 <path class="fil0" d="m8730 7688c-28 158 54 70 110 230 38 109-12 289-20 422 13 3 47 11 53 10 201-16-49 39 61-15 0 48-12 53 5 104 25 75 22 53 53 96 172-68 199-69 237-279 29 100 15 53 167 68 33-195 201-167 168-465l-320-174c-86 117-60 284-168 451-45-122 40-96-59-303-175-364-282-149-287-145z"/>
 <path class="fil0" d="m7817 4416c-27 404-50 158-118 408 145 7 298 23 415 93 137 83 128 189 326 123 1-80-119-409-151-457 48-147 60-78 76-251-224-2-357 133-548 84z"/>
 <path class="fil0" d="m11519 3829c113 117 188 51 388 62 234 262 85 465 75 756-9 273-248 332-260 627 191-24 225-106 312-250 279-465 70-624 77-859 8-254 53-208-101-426-140-20-469-51-491 90z"/>
 <path class="fil0" d="m7453 7945l68 200c170 17 320 32 481-26 212-76 176-194 278-215 225 39 206 166 337 281 78-362-239-467-418-457-134 8-229 105-321 140-216 82-193-41-425 77z"/>
 <path class="fil0" d="m10662 3865c8 196 55 260 109 489 20 83 35-31 90 115 21 57 1 165 100 212 362 63 148-642 19-831l-318 15z"/>
 <path class="fil0" d="m6669 7920l-36 349 346 238c-291 43-247-122-531-62 83 297 527 254 567 229 98-118 171-255 51-404-77-96-102-51-164-130-71-90-35-138-79-242l-154 22z"/>
 <path class="fil0" d="m6838 7490c288 43 389-88 448-351-98-130-138-121-197-191-127-147 6-160-230-175-73 203 44 108 12 306-31 191-92 191-33 411z"/>
 <path class="fil0" d="m8715 8879c391-2 1301-523 1158-892-166 22-27-85-144 101-36 56-62 110-96 154-95 122-466 392-601 447-184 76-289-17-317 190z"/>
 <path class="fil0" d="m5728 4919c164 124 86 26 238 30 564 14 154-48 553-56 198-4 188 39 259-100-50-45-4-48-117-47-41 1-8 31-128 22-138-9-85-83-307-71-165 8-441 56-498 222z"/>
 <path class="fil0" d="m11633 3248c270-93 61-354 149-617 74-224 60 117 66-184-298-47-406-11-271 671l56 130z"/>
 <path class="fil0" d="m6849 9025c-59-203-64-58-429-240-167-84-196-153-224-270-4-14-9-62-13-76-34-128-14-57-41-105-132 71-155 124-105 288 103 339 679 476 812 403z"/>
 <path class="fil0" d="m6471 2119c-204-128 58-77-210-103-27 125-196 394 337 308 15-2 87-19 100-25 75-32 57-32 96-62-23-138 0-258-114-291-145-41-181 90-209 173z"/>
 <path class="fil0" d="m7666 7210c275 16 527-472 532-501 37-245 7-61-36-133-184-24-531 389-496 634z"/>
 <path class="fil0" d="m12870 9385c-17 159 149 159 336 209 180 48 395 59 519-17-49-95 14-89-171-107-73-7-111 6-209-14-273-53-253-104-409-90l-66 19z"/>
 <path class="fil0" d="m11232 322l315-49c14-282-71-349-321-361l6 410z"/>
 <path class="fil0" d="m9470 5715c-100-54-167 0-308-8-181-10-187-74-391-92 62 280 439 260 555 232 132-32 116-44 144-132z"/>
 <path class="fil0" d="m11423 4599l104-206c84-186 83 25 55-218-256 4-542 345-159 424z"/>
 <path class="fil0" d="m8655 8692c215 18 106 29 271-48-5-57-2-129-70-229-6-9-15-19-21-27l-52-56c-134 108-135 154-128 360z"/>
 <path class="fil0" d="m7297 610c243-22-27-18 197-46 219-28 14 62 224-30-38-198-19-188-245-115-162 52-172 43-176 191z"/>
 <path class="fil0" d="m5528 5786c-13-157 44-156-109-201-78-22-144 0-177 64-111 210 191 148 286 137z"/>
 <path class="fil0" d="m9908 5209c133 86 302 29 272-124-148-84-332-54-272 124z"/>
 <path class="fil0" d="m11574 4986c58-172-28-242-199-280-22 100-10 230 73 279l126 1z"/>
 <path class="fil0" d="m13897 9326c97-35 193-89 205-225 20-216-12-92-32-136-112 15-176 192-173 361z"/>
 <path class="fil0" d="m11404 9625c74 27-95 73 92 22 154-43 105-151 73-262-149 51-215 61-165 240z"/>
 <path class="fil0" d="m8028 1924c34-52 100 92 46-142-26-112-42-66-88-100-1 1-90-6-62 137 30 158-12 48 104 105z"/>
 <path class="fil0" d="m10574 10156c20 12 15 106 147 17 58-39 56-97 75-149-206-16-178-64-222 132z"/>
 <path class="fil0" d="m6414 2894c71-23 112 0 145-74 89-201-35-132-40-139-45 32-91-42-105 213z"/>
 <path class="fil0" d="m5403 3078c17-36 83-28-15-178-48 23-107-43-89 89 17 119 18 53 104 89z"/>
 <path class="fil0" d="m6089 3130c219-28 89 29 136-97-163-71-111-45-136 97z"/>
 <path class="fil0" d="m5921 3511c181-39 79 25 141-104-261 23-72 52-141 104z"/>
 <path class="fil0" d="m7419 10516c-66-182 30-53-123-126 50 174-90 87 123 126z"/>
 <path class="fil0" d="m5262 5561c7-10 20-37 21-30 0 7 47-10-15-116l-6 146z"/>
</svg>
