<?xml version="1.0" encoding="utf-8"?>
<!-- Generator: Adobe Illustrator 23.0.1, SVG Export Plug-In . SVG Version: 6.00 Build 0)  -->
<svg version="1.1" id="Layer_1" xmlns="http://www.w3.org/2000/svg" xmlns:xlink="http://www.w3.org/1999/xlink" x="0px" y="0px"
	 viewBox="0 0 270.9 270.9" style="enable-background:new 0 0 270.9 270.9;" xml:space="preserve">
<style type="text/css">
	.st0{fill:#222222;}
</style>
<g>
	<path class="st0" d="M145.5,154.8l2.7,4.5l2.7-4.5c5.1-1.9,22.3-8.7,30.6-18.4c8.9-10.4,4.7-20.6,1.2-24.5
		c-0.3-0.3-0.6-0.5-0.9-0.8c-3.1-1.9-9.4-3.8-16-1c-0.9-14.2-11.4-19.5-17-20.3l-0.6-0.1l-0.6,0.1c-5.6,0.8-16.1,6.1-17,20.3
		c-6.6-2.8-12.9-1-16,1c-0.3,0.2-0.6,0.5-0.9,0.8c-3.4,3.9-7.6,14.1,1.2,24.5C123.2,146.1,140.4,152.9,145.5,154.8z M177,117.6
		c1.1,1.6,4,6.9-1.7,13.5c-4.4,5.1-12.2,9.5-18.5,12.4c0.6-1.2,1.2-2.5,1.8-3.9c5-1.1,9.5-3.8,12.7-7.8c1.2-1.5-0.9-3.6-2.1-2.1
		c-2.4,3-5.5,5.2-9.1,6.4c2-5,3.9-10.5,4.9-15.9C170.2,115.1,175.3,116.8,177,117.6z M148.2,97.9c2.2,0.5,9.7,3.2,9.7,14.3
		c0,10.1-5.8,23.2-9.7,30.9c-3.9-7.7-9.7-20.8-9.7-30.9C138.5,101.1,145.9,98.5,148.2,97.9z M119.3,117.6c1.6-0.8,6.7-2.5,12,2.7
		c1,5.4,2.9,10.9,4.9,15.9c-3.6-1.2-6.6-3.4-9.1-6.4c-1.2-1.5-3.3,0.6-2.1,2.1c3.2,4,7.7,6.7,12.7,7.8c0.6,1.4,1.2,2.7,1.8,3.9
		c-6.3-3-14.2-7.3-18.5-12.4C115.4,124.6,118.2,119.3,119.3,117.6z"/>
	<path class="st0" d="M190.5,43.6H81.2c-9,0-16.3,7.3-16.3,16.3v159.3c0,9,7.3,16.3,16.3,16.3h109.3c9,0,16.3-7.3,16.3-16.3V59.9
		C206.8,50.9,199.5,43.6,190.5,43.6z M74.8,219.2V59.9c0-3.5,2.8-6.3,6.3-6.3h9.3v171.9h-9.3C77.7,225.5,74.8,222.7,74.8,219.2z
		 M190.5,225.5h-92V89.3c1.3-0.3,2.5-0.9,3.1-2.2c0.4-0.8,0.4-1.7,0.2-2.5c-0.3-1-1.6-1.8-1.8-2.7c-0.5-2.2,3.6-3.5,3.3-6.2
		c-0.2-2.2-2.8-3.8-4.8-5.1V53.7h22.2c1.4,0.9,2.8,1.5,4.5,1.8c1.5,0.2,2.9,0.2,4.4-0.3c0.8-0.3,1.6-0.9,2.4-1.5h13.6
		c1.8,2,4.1,3.7,7,2.8c2.4-0.7,3.1-3.5,6.5-2.2c2,0.8,3.3,3.3,5.2,4.4c5.4,3.2,11.1,0.1,12.9-5h13.4c3.5,0,6.3,2.8,6.3,6.3v91.1
		c-1.1,3-4.6,3.1-4.9,6.6c-0.2,1.8,0.8,3.2-0.1,5.1c-0.6,1.3-1.9,2.3-2.2,3.8c-0.6,2.5,0.6,3.9,2.3,5.6c1.3,1.3,2.5,2.2,3.5,3.9
		c0.5,0.9,0.8,2,1.4,2.9v31.3c-7.9,0-15.9,0-23.8,0c-2.7,0-2.7,4.2,0,4.2c7.9,0,15.9,0,23.8,0v4.8
		C196.8,222.7,194,225.5,190.5,225.5z"/>
	<path class="st0" d="M172.7,178.2c0-1.4-1.1-2.5-2.5-2.5h-44c-1.4,0-2.5,1.1-2.5,2.5s1.1,2.5,2.5,2.5h44
		C171.5,180.7,172.7,179.6,172.7,178.2z"/>
	<path class="st0" d="M154.8,190.7c1.4,0,2.5-1.1,2.5-2.5s-1.1-2.5-2.5-2.5h-12.2c-1.4,0-2.5,1.1-2.5,2.5s1.1,2.5,2.5,2.5H154.8z"/>
	<path class="st0" d="M82.8,211.5c-2.7,0-2.7,4.2,0,4.2S85.5,211.5,82.8,211.5z"/>
	<path class="st0" d="M80.7,167.2c0,12.8,0,25.6,0,38.3c0,2.7,4.2,2.7,4.2,0c0-12.8,0-25.6,0-38.3C84.9,164.5,80.7,164.5,80.7,167.2
		z"/>
	<path class="st0" d="M82.8,160.3c2.7,0,2.7-4.2,0-4.2S80.1,160.3,82.8,160.3z"/>
	<path class="st0" d="M145.7,210.4c-11.3,0-22.5,0-33.8,0c-2.7,0-2.7,4.2,0,4.2c11.3,0,22.5,0,33.8,0
		C148.4,214.6,148.4,210.4,145.7,210.4z"/>
	<path class="st0" d="M155.7,210.1c-2.7,0-2.7,4.2,0,4.2S158.4,210.1,155.7,210.1z"/>
	<path class="st0" d="M163.7,210.1c-2.7,0-2.7,4.2,0,4.2S166.4,210.1,163.7,210.1z"/>
	<path class="st0" d="M147.7,105.1c-1.9,0-1.9,3,0,3S149.6,105.1,147.7,105.1z"/>
	<path class="st0" d="M149.4,124c-0.6,1.8,2.3,2.6,2.9,0.8c1.3-3.8,1.3-7.9,0-11.7c-0.6-1.8-3.5-1-2.9,0.8
		C150.5,117.3,150.5,120.6,149.4,124z"/>
	<path class="st0" d="M174,127.7c1.9,0,1.9-3,0-3S172.1,127.7,174,127.7z"/>
	<path class="st0" d="M122.3,127.7c1.9,0,1.9-3,0-3S120.4,127.7,122.3,127.7z"/>
	<path class="st0" d="M134.8,58.2c1.9,0,1.9-3,0-3C132.9,55.2,132.8,58.2,134.8,58.2z"/>
	<path class="st0" d="M156.8,61c1.9,0,1.9-3,0-3S154.8,61,156.8,61z"/>
	<path class="st0" d="M165.4,65.9c0.7-0.7,0.9-1.7,0.5-2.6c-0.5-0.9-1.5-1.3-2.5-1c-0.2,0.1-0.5,0.2-0.6,0.4
		c-0.2,0.1-0.4,0.3-0.5,0.5c-0.4,0.9-0.4,1.9,0.3,2.6C163.3,66.7,164.6,66.7,165.4,65.9z"/>
	<path class="st0" d="M105.5,79c-1.9,0-1.9,3,0,3C107.5,82,107.5,79,105.5,79z"/>
	<path class="st0" d="M176.2,154.7c-1.9,0-1.9,3,0,3S178.1,154.7,176.2,154.7z"/>
</g>
</svg>
