<?xml version="1.0" encoding="utf-8"?>
<!-- Generator: Adobe Illustrator 23.0.1, SVG Export Plug-In . SVG Version: 6.00 Build 0)  -->
<svg version="1.1" id="Layer_1" xmlns="http://www.w3.org/2000/svg" xmlns:xlink="http://www.w3.org/1999/xlink" x="0px" y="0px"
	 viewBox="0 0 245.1 245.1" style="enable-background:new 0 0 245.1 245.1;" xml:space="preserve">
<style type="text/css">
	.st0{fill:#221E1F;}
</style>
<g id="XMLID_1_">
	<g id="XMLID_3_">
		<g id="XMLID_148_">
			<path id="XMLID_4_" class="st0" d="M54,203.1c-1.5,0-3-0.6-4.2-1.7l-6.2-6.2c-2.2-2.2-2.3-5.8-0.2-8.2l72.5-79.7l21.8,21.8
				l-79.6,72.5C56.9,202.6,55.4,203.1,54,203.1z M49.7,191l4.4,4.4l73.1-66.5l-11-11L49.7,191z"/>
		</g>
	</g>
	<g id="XMLID_6_">
		<g id="XMLID_146_">
			<polygon id="XMLID_234_" class="st0" points="132,133.7 111.3,113 123.2,95.5 130.7,88 135.9,93.2 128.8,100.1 120.8,112.1 
				132.9,124.3 144.9,116.2 151.9,109.2 157.1,114.4 149.5,121.9 			"/>
		</g>
	</g>
	<g id="XMLID_7_">
		<g id="XMLID_145_">
			<path id="XMLID_233_" class="st0" d="M171.1,100.3l-5.2-5.2l4.8-4.8c0.2-0.2,0.2-0.5,0-0.7l-15.3-15.3c-0.2-0.2-0.5-0.2-0.7,0
				l-4.8,4.8l-5.2-5.2l4.8-4.8c3-3,8-3,11,0l15.3,15.3c3,3,3,8,0,11L171.1,100.3z"/>
		</g>
	</g>
	<g id="XMLID_9_">
		<g id="XMLID_139_">
			<path id="XMLID_8_" class="st0" d="M199.4,160.3c-1.2,0-2.3-0.6-3-1.6c-0.2-0.3-16.6-24.7-37.7-46l-1.6,1.6
				c-0.7,0.7-1.6,1.1-2.5,1.1c-0.9,0-1.9-0.4-2.5-1.1l-21.2-21.2c-1.4-1.4-1.4-3.8,0-5.2l1.6-1.6c-21.3-21.2-45.8-37.5-46-37.7
				c-1.4-0.9-2-2.7-1.4-4.3c0.6-1.6,2.2-2.5,3.9-2.3c34.3,4.2,59.6,30.4,61.1,32l21.1,21.1c1.6,1.5,27.7,26.9,32,61.1
				c0.2,1.7-0.7,3.3-2.3,3.9C200.3,160.3,199.8,160.3,199.4,160.3z M158.7,103.9c0.9,0,1.8,0.3,2.5,1c12,11.7,22.7,24.7,30.2,34.5
				c-8.5-22.9-25.2-38.9-25.4-39.1l-0.1-0.1l-21.2-21.2l-0.1-0.1c-0.2-0.2-16.2-16.8-39.1-25.4c9.8,7.5,22.7,18.2,34.5,30.2
				c1.4,1.4,1.4,3.7,0,5.1l-1.6,1.6l16,16l1.6-1.6C156.8,104.3,157.7,103.9,158.7,103.9z"/>
		</g>
	</g>
</g>
</svg>
