<?xml version="1.0" encoding="utf-8"?>
<!-- Generator: Adobe Illustrator 23.0.1, SVG Export Plug-In . SVG Version: 6.00 Build 0)  -->
<svg version="1.1" id="Layer_1" xmlns="http://www.w3.org/2000/svg" xmlns:xlink="http://www.w3.org/1999/xlink" x="0px" y="0px"
	 viewBox="0 0 735.9 608.4" style="enable-background:new 0 0 735.9 608.4;" xml:space="preserve">
<path d="M141.1,560.7c-1.1-0.8-2.6-1.9-3.4-2.6c-1.4-1.2-13.7-8.1-17.1-9.5c-2.2-0.9-3-2.9-3.6-9.2l-0.5-4.8l4.4-4.8
	c2.4-2.6,4.9-5.8,5.6-7.1c0.7-1.3,2.8-4.6,4.7-7.3c1.9-2.7,3.5-5.5,3.5-6.2s0.9-2,1.9-3c1-1,3.6-4.3,5.6-7.3c2-3.1,4-6.1,4.5-6.8
	c0.4-0.7,1.4-2.1,2.2-3.3c0.8-1.1,3.8-5.7,6.7-10.1c2.9-4.4,5.4-8.3,5.4-8.6c0-0.3,0.7-1.3,1.5-2.2c2.7-2.9,13.6-19.6,13.6-20.8
	c0-0.6,1.4-2.6,3.2-4.4s3.8-4.4,4.5-5.7c1.5-2.9,4.5-7.1,7.4-10.4c1.2-1.3,3.1-4.2,4.3-6.4s3.1-5,4.1-6.4c2.2-2.8,7-9.9,9.3-13.9
	c2.4-4.2,7.4-12,12.7-20c2.6-3.9,5.5-8.3,6.3-9.7c0.8-1.4,3-4.5,4.8-6.9c1.8-2.4,3.9-5.4,4.6-6.8s2.5-4,4-6c1.5-2,2.7-4,2.8-4.5
	c0-0.5,1.3-2.6,2.9-4.6c1.6-2,3.9-5.7,5.2-8.1c1.3-2.4,3.6-5.8,5.1-7.6c1.5-1.8,3.5-4.9,4.5-6.9s2.7-4.8,4-6.2
	c3.3-3.7,11.7-16.3,16.3-24.4c0.7-1.3,2.4-3.6,3.6-5c1.3-1.4,2.3-3.1,2.3-3.7c0-0.6,0.6-1.5,1.3-2.1c1.2-1,6.6-9,12.3-18.2
	c2.5-4,7.1-10.5,10.7-15.1c2.4-3.1,3.8-5.2,7.9-12.4c1.3-2.3,3.5-5.8,5-7.8c1.4-2,3.1-4.8,3.8-6.1c0.7-1.3,2.4-3.9,3.8-5.7
	c2.3-3,3.4-5.2,6.5-12.8c2-5,2.7-7.3,3.1-10.9c0.5-4.3,2.7-9,5.6-12.2c1.1-1.2,2-2.6,2-3.2s1.1-1.9,2.5-3.1l2.5-2.1l-2-3
	c-1.1-1.7-3.4-4.7-5.2-6.7c-2-2.4-3.7-5.4-4.5-8.3c-1.5-5.3-3.1-8.7-5.2-11c-0.8-0.9-2.1-2.8-2.9-4.4c-2-3.7-10.3-12.2-13.5-13.8
	c-1.4-0.7-3-1.9-3.6-2.7c-1-1.3-3.8-3.3-9.8-6.7c-1.3-0.7-6.9-3.5-12.3-6.2c-23.8-11.6-27.9-13.5-30.5-13.5c-0.9,0-3.1-0.9-4.9-2
	c-1.7-1.1-4.1-2-5.2-2c-1.1,0-4.1-0.8-6.8-1.6c-24.7-8.3-63.8-13.4-93.7-12.3c-27.1,1-34.2,1.4-35.1,2.2c-0.5,0.4-1.9,0.6-3.2,0.4
	c-1.2-0.2-4.9,0.2-8.2,0.8c-3.3,0.6-7.9,1.4-10.3,1.8c-16.5,2.5-22,3.7-29.8,6.5c-4.8,1.7-9.5,3.4-10.5,3.6c-3.9,1-0.6-4.4,3.6-5.7
	c1-0.3,1.8-0.8,1.8-1.1c0-1.1,21.1-13.6,23-13.6c0.4,0,2.9-1.1,5.5-2.4c2.6-1.3,5.2-2.4,5.7-2.4c0.5,0,1.7-0.5,2.6-1.1
	c4.6-3,28.2-10.5,36.6-11.6c2.7-0.4,7.2-1,10.1-1.5c30.2-4.7,90-3.7,115.3,1.9c6.8,1.5,12.9,2.8,13.6,2.8c0.7,0,3.8,1,7.1,2.3
	s9.4,3.4,13.8,4.8c4.4,1.4,8.3,2.9,8.8,3.3c0.5,0.4,3.7,1.6,7.1,2.6c3.4,1,10.4,3.4,15.4,5.2c26.3,9.4,43.9,11.8,67.9,9.2
	c15-1.7,13.8-1,19.9-10.4c5.3-8.1,4.9-7.8,10.5-6.6c10.2,2.2,27.8,12,36.8,20.5c2.8,2.7,5.4,4.9,5.7,4.9c1.4,0,0.4,2.3-2.9,6.4
	c-1.9,2.4-4.1,5.6-4.8,7c-0.7,1.4-1.8,2.7-2.5,3c-2.7,1-0.3,5,9.3,15.7c9,9.9,15,15.1,21.1,18c2.5,1.2,6.9,3.5,9.7,5.1
	c2.8,1.6,7.8,3.8,11.1,4.9c3.3,1.1,6.7,2.5,7.7,3.1c1,0.6,2.4,1.2,3.1,1.2s2.3,0.7,3.5,1.6c1.2,0.9,6.1,3.5,10.8,5.9
	c13.8,6.8,18.1,9.2,20.2,11.3c1.1,1.1,3.1,2.1,4.4,2.2c1.3,0.2,3.4,0.9,4.7,1.6c5,2.8,10.4,6.3,13.2,8.5c1.6,1.2,5.4,3.5,8.5,5
	c3.1,1.5,6.7,3.6,8,4.6c1.3,1,3.9,3,5.7,4.3c1.8,1.3,5.2,4.2,7.5,6.5s4.9,4.3,5.7,4.6c0.8,0.2,2.5,1.7,3.8,3.3
	c3.9,4.7,8.4,8.9,13,11.9c4.7,3.2,18.4,17,27.1,27.3c3.1,3.7,6.3,7.5,7.1,8.3c0.8,0.9,2.7,3.4,4.2,5.5s4.8,6,7.4,8.6
	c4.4,4.5,5.3,6.9,2.6,6.9c-0.7,0-2.6,1.2-4.2,2.7c-1.6,1.5-4.1,3.3-5.4,4c-1.3,0.7-4,2.5-6,4c-2,1.5-5.5,3.9-7.8,5.3
	c-2.3,1.4-6.8,4.7-9.9,7.2c-3.1,2.5-6,4.6-6.4,4.6c-0.4,0-2.2,1.4-4,3c-1.8,1.6-5.1,4.1-7.2,5.4c-4.7,2.9-6.3,4-10.8,7.4
	c-1.9,1.5-5.6,4.3-8.2,6.2c-2.6,2-7.3,5.5-10.3,7.8c-3.1,2.3-7,4.9-8.7,5.8c-1.7,0.9-5.4,3.8-8.2,6.5c-5.6,5.4-7.8,6-8.6,2.6
	c-1.5-6.4-11.7-29.3-15.1-34c-1-1.3-2-3.3-2.3-4.4c-0.3-1.1-1.4-3.1-2.4-4.4c-1-1.3-2.6-4-3.7-5.9c-3.2-5.8-3.6-6.5-5.8-8.7
	c-1.1-1.2-2.1-2.6-2.1-3s-1.8-3.1-3.9-5.9c-5.1-6.6-7.3-9.5-12.1-16.2c-2.2-3.1-5-6.6-6.2-7.9s-3.6-4.3-5.2-6.8
	c-1.7-2.4-3.3-4.5-3.7-4.6c-0.4-0.1-1.9-2.2-3.5-4.5c-2.2-3.4-15.4-17.4-21.1-22.5c-0.6-0.6-3.7-3.6-6.8-6.8
	c-5.4-5.6-9.3-8.8-15.8-13c-3.5-2.3-16.2-6.6-19.4-6.6c-1.1,0-4-0.6-6.4-1.2c-10.1-2.8-33.5-1.3-34.9,2.2c-0.8,2.1-2.7,4.6-6,8.1
	c-1.3,1.4-3.8,4.3-5.6,6.4c-1.7,2.2-3.4,4-3.7,4.2c-0.3,0.1-2.4,2-4.6,4.2c-2.2,2.2-4.4,3.9-4.8,3.9s-1.6,1.7-2.6,3.8
	c-1,2.1-3.2,5.7-5,8.1c-4,5.4-8.3,12.2-8.3,13.1c0,0.6-4.7,7.3-9.8,14c-1.6,2.2-3.4,4.7-3.8,5.7c-1.8,4-3.5,6.7-5.9,9.7
	c-2.9,3.6-8.4,12.1-8.4,12.9c0,0.3-1,1.7-2.3,3c-1.3,1.3-3.1,4-4.1,6c-1,1.9-3.3,5.5-5.2,7.9c-1.9,2.4-4,5.5-4.7,6.9
	c-0.7,1.4-2.2,3.5-3.3,4.7c-1.1,1.2-3.4,4.7-5.2,7.9c-1.7,3.1-3.7,6.2-4.4,6.8c-0.7,0.6-1.9,2.3-2.7,3.9s-3,5.2-4.9,8.1
	c-1.9,2.9-4.6,7.2-6.1,9.5c-1.5,2.3-4.2,6.2-6.1,8.6c-1.9,2.4-3.5,4.7-3.5,5c0,0.3-1.4,2.5-3.1,4.8c-1.7,2.3-3.8,5.7-4.8,7.6
	c-1,1.9-2.2,3.6-2.9,3.8c-1.4,0.5-6.7,8.2-9.5,13.9c-1.2,2.4-3.3,5.9-4.7,7.9c-1.4,2-3.7,5.7-5.2,8.3c-1.4,2.6-3.7,5.9-4.9,7.4
	c-1.3,1.4-2.3,2.9-2.3,3.3s-2.5,4-5.6,8c-3.1,4-5.6,7.8-5.6,8.4s-1,2.1-2.2,3.2c-1.2,1.2-3.3,3.8-4.6,5.8c-1.3,2-3.4,5.3-4.7,7.2
	c-1.3,1.9-3.6,5.4-5.2,7.8c-1.6,2.4-3.5,5-4.2,5.8c-0.8,0.8-1.4,1.8-1.4,2.3c0,0.9-4,6.5-5,7c-0.3,0.1-1.3,1.9-2.2,3.8
	c-0.9,2-3.7,6.5-6.2,10.1c-2.5,3.6-5.6,8.3-6.8,10.5c-1.2,2.2-3.6,5.6-5.2,7.5c-1.6,2-5.2,6.8-8,10.7c-2.8,3.9-6.8,9.1-8.9,11.4
	c-2.1,2.3-3.8,4.7-3.8,5.3s-0.5,1.5-1.2,2c-0.6,0.5-2.2,2.9-3.6,5.2C154.2,561.5,147.1,564.8,141.1,560.7L141.1,560.7z M151.3,557.8
	c1-0.9,1.8-2,1.8-2.4c0-1.4-17.5-14.8-19.4-14.8c-0.5,0-2.1-1.1-3.5-2.4c-3.8-3.5-7.8-4-8.9-1.1c-1.6,4.2-0.7,6.7,3.2,9.3
	c12.6,8.2,17.1,10.9,17.9,10.9c0.5,0,1.8,0.8,2.8,1.8C147.2,561.1,147.6,561,151.3,557.8L151.3,557.8z M158.7,549.5
	c1.3-1.2,2.3-2.6,2.3-3s0.9-1.7,2-2.7s2-2.3,2-2.8c0-0.5,1.2-2.3,2.6-4c2.5-3,10-13.4,12.5-17.5c5.8-9.4,10.3-16.2,12.5-18.6
	c1.4-1.6,2.6-3.2,2.6-3.5c0-0.7,4.5-7.2,7.3-10.6c1.2-1.4,2.2-3,2.2-3.4c0-0.7,0.8-2.1,5.1-8.8c3.9-6,7.8-11.5,8.4-11.9
	c0.4-0.3,1.6-1.9,2.6-3.6c3.5-6.2,5-8.5,6.6-10.6c0.9-1.1,2.7-3.9,3.9-6.1s2.9-4.8,3.7-5.9c0.8-1,1.4-2.3,1.4-2.9s2.1-3.2,4.6-5.9
	c4.4-4.7,5.4-6.2,8.9-13.1c0.9-1.7,2.4-4.5,3.4-6.1c1-1.6,2.9-4.9,4.4-7.3c1.4-2.4,2.9-4.4,3.3-4.4c0.4,0,0.9-0.6,1.2-1.4
	c0.7-2,2.6-5.1,3.4-5.7c0.4-0.3,1.7-2.3,3-4.5c1.2-2.2,3.4-5.4,4.8-7.1c1.4-1.7,2.8-4.1,3.2-5.2c0.3-1.1,1.7-3.5,3.1-5.3
	c1.4-1.8,3.9-5.7,5.6-8.6c1.7-2.9,4.3-6.7,5.8-8.3c1.4-1.6,2.6-3.4,2.6-3.8s0.7-1.3,1.4-1.9c0.8-0.6,2.4-3,3.5-5.4
	c1.1-2.4,3.2-5.8,4.6-7.5c1.4-1.7,2.8-4,3.2-5c0.4-1,1.2-1.8,1.8-1.8s1.3-0.6,1.6-1.4c0.7-2.1,5.3-9.7,9.5-15.8
	c2.1-3,3.8-5.8,3.8-6.3s0.8-1.6,1.7-2.4c0.9-0.8,2.3-2.8,3.1-4.3c0.8-1.5,2.9-4.6,4.7-6.7c1.8-2.2,3.3-4.3,3.3-4.8
	c0-0.9,6.6-10.3,7.8-11c0.4-0.3,0.6-1.2,0.4-2c-0.3-1,0.2-1.8,1.3-2.4c0.9-0.5,1.7-1.4,1.7-2c0-0.6,1.6-2.6,3.5-4.4
	c1.9-1.8,3.9-4.4,4.4-5.9c0.5-1.4,1.6-3.3,2.4-4c0.9-0.8,1.6-1.7,1.6-2.1s1.6-2.9,3.4-5.6c1.9-2.7,4.9-7,6.7-9.5
	c3.6-5.1,10.3-13.1,14.3-16.8c1.4-1.4,2.6-2.9,2.6-3.4c0-0.5,1.9-2.8,4.2-5.2c5-5.1,7.8-8.7,9.2-12c1.3-3,8.6-14,14.7-21.9
	c4.6-6.1,4.8-8,0.9-8c-0.5,0-3.8-1.1-7.2-2.5c-3.4-1.4-8.9-3.4-12.2-4.6c-5.4-2-20.1-11.6-21.8-14.3c-1.1-1.8-2.6-0.7-5.2,3.7
	c-1.5,2.5-3.3,5.3-4.1,6.2c-0.8,0.9-1.9,2.9-2.6,4.4c-0.6,1.6-2.8,5-4.8,7.6c-2,2.7-3.6,5.2-3.6,5.7c0,0.5-0.8,2.1-1.7,3.5
	c-1,1.4-2.4,3.5-3.2,4.7c-0.8,1.2-1.5,3-1.5,4c-0.1,5-6.1,21.4-9.6,26c-1.2,1.5-3.3,4.9-4.7,7.5c-2.3,4.2-5,8.3-11.4,17.5
	c-0.9,1.3-2,3-2.5,3.7s-3.2,4.9-6.2,9.4c-2.9,4.5-5.4,8.3-5.4,8.6c0,0.3-1.4,2.2-3.2,4.3s-3.5,4.6-4,5.6c-0.4,1-2.2,3.8-4,6.2
	c-1.8,2.4-4.5,6.8-6,9.7c-1.6,2.9-3.7,6.3-4.8,7.4c-1,1.1-1.9,2.3-1.9,2.5c0,0.3-4.8,7.7-10.6,16.4c-5.8,8.8-11.1,16.9-11.6,18
	c-1.3,2.5-8.1,11.4-8.9,11.8c-0.9,0.4-4.2,5.7-4.9,8c-0.3,1.1-2,3.9-3.7,6.4c-1.7,2.4-4.7,6.7-6.6,9.6c-1.9,2.8-4.4,6.2-5.4,7.5
	c-1.1,1.3-3.3,4.5-5,7.1c-1.7,2.6-3.4,4.9-3.7,5c-0.3,0.1-0.6,0.6-0.6,1.1s-1,2-2.3,3.4c-1.3,1.4-3.4,4.8-4.7,7.4
	c-1.3,2.6-4.6,8.1-7.3,12.1c-2.7,4-5.3,8.3-5.9,9.4c-0.6,1.2-2.7,3.9-4.6,6c-1.9,2.2-4.2,5.4-5.1,7.1s-3.4,5.6-5.5,8.5
	c-2.1,2.9-5.5,7.9-7.4,11.1c-2,3.2-5.7,8.4-8.3,11.7c-5.2,6.4-5,6.1-7.6,11.3c-2.8,5.6-7.2,12.4-10.9,17.1c-1.9,2.3-3.4,4.4-3.4,4.6
	c0,0.4-10.5,15.3-12.1,17.1c-2.6,3-7,9.2-7,9.9c0,0.4-1.3,2.6-2.7,4.8c-3.3,4.9-2.9,5.9,4,9.5c4,2.1,7.6,4.5,11.9,7.8
	c1.7,1.3,12,7.6,12.6,7.6C156.1,551.7,157.4,550.7,158.7,549.5L158.7,549.5z M578.9,349.4c1.7-1.2,3.1-2.6,3.1-3
	c0-0.5,2.2-1.9,4.8-3.1s5-2.9,5.2-3.7c0.3-0.8,3-2.9,6.2-4.8c5.2-3,9.4-6,16-11.2c1.3-1,4.2-3.1,6.4-4.6c2.2-1.5,5.9-4.3,8.3-6.3
	s5.3-4.1,6.5-4.8c2.2-1.2,13.9-9.7,18.5-13.6c1.4-1.1,5.3-3.8,8.7-5.9c3.4-2.1,7.2-5.1,8.4-6.6l2.3-2.8l-6.1-6.2
	c-3.4-3.4-7-6.4-8.1-6.7c-1.2-0.3-2.5-1.6-3.3-3.3c-0.9-1.8-2.3-3.3-4.1-4c-1.5-0.6-3-1.7-3.4-2.3c-1-1.9-15.2-12.4-16.6-12.4
	c-0.8,0-1.9,1.7-1.9,3.1c0,0.3,2.2,2.9,4.8,5.7c13.4,14.3,11.8,14.3-2.5,0c-8.9-8.9-15.3-16.7-8.8-10.8c0.8,0.7,2.5,1.3,3.8,1.3
	l2.3,0l-2.5-2.2c-5.6-4.8-11.1-7.2-10.1-4.5c0.9,2.5-3-0.7-4-3.3c-0.7-1.6-2.5-3.2-5.3-4.7c-3.4-1.8-4-2-2.9-0.7
	c0.8,0.9,1.4,2,1.4,2.5c0,0.5,1.1,1.1,2.3,1.4c1.4,0.3,2.6,1.2,2.9,2.2c0.3,1,1.7,3.1,3.2,4.7c1.5,1.6,2.7,3.4,2.7,3.9
	c0,1.2-8.7-7-10.5-9.8c-0.7-1.2-2-2.6-2.9-3.2c-0.9-0.6-1.5-1.8-1.5-2.6c0.1-1.1-1.5-2.3-6-4.7c-10-5.3-8.5-2.2,3.5,7.3
	c2.5,2,4.6,3.9,4.6,4.2c0,0.3,1.8,2.7,4,5.4c2.2,2.6,4,5,4,5.3c0,0.7-11.8-10.5-14.8-14c-1.4-1.7-12.2-11-16.2-14
	c-0.2-0.2,0.1-0.6,0.7-0.9c0.7-0.4-0.1-1.2-2.7-2.4c-6.1-2.9-5.2-1.4,6.6,10.4c11.4,11.4,14.7,15.7,7.1,9.1
	c-8.4-7.3-23.6-22.5-23.6-23.7c0-1.2-8.9-5.8-10.4-5.3c-0.5,0.2,0.8,1.3,2.8,2.6s6.9,5.7,11,9.9c14.1,14.6,17,19.3,4.4,6.8
	c-4.2-4.1-9.4-8.8-11.5-10.4c-5.6-4.3-11-9.3-11.5-10.7c-0.5-1.2-6.2-3.5-6.2-2.4c0,0.8,5.3,5.8,9.8,9.1c3.2,2.4,8.2,7.4,13.1,13.2
	c0.6,0.7,4.1,4.4,7.7,8.3c3.7,3.9,6.7,7.4,6.7,7.9c0,1-3.5-2.2-7.9-7c-3.4-3.7-3.2-3.6-19.7-19.7c-7.1-6.9-13.3-12.5-13.9-12.5
	c-0.6,0-1.4-0.7-1.9-1.5c-0.9-1.5-4.2-2.8-4.2-1.7c0,0.3,2.7,2.8,5.9,5.5s7.1,6.4,8.5,8.2c1.4,1.9,4.4,5.1,6.6,7.3
	c2.6,2.5,3.6,4,3,4.3c-0.6,0.2-2.9-1.6-5.2-3.9c-2.3-2.4-8.6-8.5-14-13.6c-5.4-5.1-9.4-9.3-8.7-9.3c1.5,0-5.3-3.4-9.2-4.6
	c-14.7-4.4-14.6-4.3-13.5-2.6c0.3,0.5,1.9,1.1,3.7,1.3c2.5,0.4,3.1,0.8,3.1,2.2c0,1,0.9,2.2,2,2.9c4.9,3,31.2,28.5,37.6,36.5
	c1.6,2,5.9,7.1,9.6,11.4c3.7,4.3,7.8,9.3,9.1,11.2c1.3,1.9,3.5,4.7,4.9,6.3c1.4,1.6,3.1,4,3.8,5.3c0.7,1.3,1.9,3.1,2.8,4
	c0.9,0.9,1.5,1.9,1.5,2.4s0.9,2.1,2.1,3.6c1.2,1.5,1.9,3,1.6,3.3c-0.3,0.3-0.6,0.4-0.7,0.2c-3.4-5.2-6.8-10-8.7-12.1
	c-1.3-1.4-3-3.8-3.8-5.4c-0.8-1.6-2.5-3.9-3.7-5.2c-1.2-1.3-3.3-4-4.6-5.9c-1.3-1.9-5.8-7.1-10-11.4c-4.2-4.4-8.9-9.3-10.4-10.9
	c-15.7-17.5-37.3-36.1-45-38.8c-4.5-1.6-3.7-0.3,2.3,3.7c9,6,23.3,18.6,32.9,28.9c9.6,10.4,15.2,16.7,18,20.5
	c1.8,2.3,4.6,5.7,6.3,7.5c1.7,1.8,3.1,3.6,3.1,4c0,0.3,1.4,2.1,3,4c5,5.5,6.7,8.5,4.9,8.5c-0.4,0-0.8-0.5-0.8-1.2s-0.9-1.7-1.9-2.4
	c-1.9-1.3-10.4-12-11.3-14.3c-0.2-0.6-0.9-1.2-1.4-1.2c-0.5,0-2-1.4-3.3-3.2c-5.6-7.7-26.3-28.9-35.6-36.5c-2.9-2.4-7.3-6-9.6-7.9
	c-7.5-6.3-9.4-7.7-12.3-9.1c-1.5-0.8-3.9-2.2-5.2-3.2c-1.3-1-3-2-3.9-2.3c-1.1-0.4-1.3-0.8-0.6-1.6c0.9-1.1-6.7-3.5-7.7-2.5
	c-0.7,0.7,3.2,4.4,4.6,4.4c1.8,0,9.5,5.2,12.5,8.4c1.4,1.5,3,2.7,3.6,2.7c3.5,0,45.1,40.7,49.4,48.2c2,3.5-1.5,0.6-13.9-11.8
	c-7.6-7.6-18.1-17.6-23.3-22.4c-5.2-4.8-11-10-12.7-11.6c-3.2-3-9.8-6.8-10.5-6.1c-0.3,0.3,0.8,1.5,5.4,5.7c0.7,0.6,1.6,1.1,2.1,1.1
	c0.5,0,1.6,1,2.5,2.1c0.9,1.2,2.8,2.8,4.1,3.6c1.3,0.8,4,3.1,5.9,5c1.9,2,3.7,3.6,3.9,3.6c0.7,0,13.2,12.9,14.1,14.6
	c1.4,2.6-0.8,0.8-10.1-8.3c-8.7-8.5-14.3-13.4-15.5-13.4c-0.3,0-0.9-0.7-1.1-1.6s-0.9-1.6-1.3-1.6c-0.5,0-2-1-3.4-2.2
	c-2.4-2-3.9-3.2-9.3-7.3c-2.2-1.7-14.3-7.9-15.3-7.9c-1.2,0,1.6,2.5,3.9,3.5c1.3,0.6,4.5,2.9,6.9,5.1c2.5,2.2,4.8,4.1,5.3,4.1
	c2.6,0,35.9,29.6,35.9,32c0,1.7-2.4,0-8.7-6.3c-8.1-8.1-15.5-14.6-18.2-16.1c-1.6-0.8-7.6-5.5-11.4-8.8c-0.5-0.5-3.2-2.3-6-4.2
	c-13.9-9.2-22.2-14-26.2-15.2c-3.8-1.1-1.5,1,5.8,5.1c11.2,6.4,15.6,9.2,18.1,11.3c1.2,1,3.3,2.6,4.5,3.4
	c4.7,3.3,20.7,17.2,20.7,17.8c0,0.4,0.6,0.9,1.4,1.2c1.6,0.5,10,8.6,15.5,14.8c2.1,2.4,4.7,5.2,5.8,6.4c1.1,1.2,3.5,4,5.4,6.4
	c1.9,2.3,5,6,6.9,8.1c3.4,3.7,7.2,8.6,11.4,14.8c1,1.5,2.5,3.3,3.1,3.8c2,1.7,6.3,8.7,5.9,9.8c-0.2,0.5-1.8-1.2-3.6-3.8
	c-4-5.7-7.8-10.6-14-18c-2.6-3.1-5.8-7.3-7.2-9.3c-2.6-3.9-13.3-15.5-19.4-21.1c-1.9-1.8-6.8-6.4-10.8-10.3
	c-9.6-9.4-13.4-12.6-23.9-19.6c-4.8-3.2-9.6-6.6-10.7-7.6c-1.1-1-6.3-4-11.5-6.6c-5.3-2.7-11.1-5.9-13-7.2c-1.9-1.3-3.6-2.3-3.8-2.3
	c-0.2,0-1.4-0.7-2.5-1.5c-1.2-0.9-4.2-1.7-6.9-2l-4.8-0.5l3.2,1.6c1.7,0.9,6.2,3,9.9,4.8c7.1,3.4,10,5.1,19.8,11
	c8.2,5,5.9,5.1-2.8,0.1c-8.4-4.9-13.6-7.4-19-9.5c-4.2-1.6-14.7-7.6-15.5-8.9c-0.7-1.1-4.3-0.4-4.3,0.9c0,1.2,3.8,3.3,17.4,9.7
	c4.8,2.2,9.6,4.7,10.7,5.5c1.1,0.8,4.5,2.8,7.5,4.5c14.8,8.4,36,24.1,37.4,27.9c0.8,2-17.1-11-22-16c-1.3-1.3-4-3.1-6-4.2
	s-4.4-2.3-5.3-2.9c-7.1-4.6-12.5-7.6-15.5-8.9c-2-0.8-6.2-3.1-9.4-5c-6-3.6-15.3-8.1-16.7-8.1c-3,0-4.8,4.1-2.8,6.3
	c1,1.2,0.9,1.3-1,1.3c-1.6,0-2.1,0.3-1.9,1.4c0.1,0.8-0.2,1.4-0.8,1.4c-0.6,0-1.9,1.1-3,2.5c-1.1,1.4-2.8,3.5-3.8,4.7
	c-2.4,3-2.3,4,0.4,3.5c6.7-1.3,26.1-1.7,29.1-0.6c6.6,2.3,8.2,0.8,2-1.9c-2.2-1-3.9-2-3.6-2.3c0.9-0.9,6.5,1.5,8.9,3.7
	c1.3,1.2,4.8,3,7.8,4c5.5,1.8,7.8,1.6,5-0.4c-0.8-0.6-1.3-1.1-1.1-1.1c1,0,5.3,2.5,6.2,3.6c0.5,0.6,1.5,1.2,2.1,1.2
	c0.6,0,1.3,0.5,1.6,1.2c0.2,0.6,2,1.9,3.8,2.9s6.1,4,9.4,6.8c3.3,2.8,6.5,5.1,7.1,5.1c0.8,0,6.1,4.2,14.1,11.3
	c3.6,3.2,21.7,22.9,23.5,25.6c1.2,1.7,3.9,5.3,6.1,7.8c2.2,2.5,3.8,4.8,3.6,5c-0.4,0.4-14.8-14.8-17.7-18.8
	c-3.5-4.7-13.4-14.6-13.7-13.7c-0.2,0.5,3.2,4.9,7.5,9.8c4.3,4.9,7.9,9.5,8,10.3c0.1,0.8,1.8,2.8,3.8,4.4c1.9,1.7,3.5,3.6,3.5,4.4
	c0,0.8,0.4,1.6,0.8,1.9c0.5,0.3,1.7,1.9,2.8,3.6c1.3,2,2.6,3.1,3.6,3.1c1,0,1.8,0.6,2.1,1.5c0.2,0.8,0.9,1.7,1.5,2
	c0.6,0.2,1.1,1.2,1.1,2.1s1.5,3.5,3.4,5.9c1.9,2.4,4.3,5.8,5.4,7.7c1.1,1.9,3,4.6,4.2,6c1.2,1.4,3,4.2,4,6.1
	c2.7,5.3,8.8,14.3,9.1,13.4c0.1-0.4-0.3-1.6-0.9-2.6c-0.6-1-1.4-2.7-1.7-3.7c-0.8-2.8-14-24.7-14.8-24.7c-0.3,0-1.2-1.2-2.1-2.6
	c-0.9-1.4-2.7-4-4-5.8c-3.3-4.4-5-7.5-4.1-7.5c1.7,0,13.5,16.5,21.3,29.8c0.5,0.9,2.7,4.6,4.9,8.3c5.7,9.7,18.4,35.7,18.4,37.6
	c0,2.3-1.5,0.6-4.7-5.5c-1.4-2.6-2.9-5.1-3.3-5.6c-1.1-1.1-0.1,4,1.2,6.6c0.6,1.2,1.5,3.5,2.1,5.3
	C573.5,352.2,574.4,352.6,578.9,349.4L578.9,349.4z M573.7,327.9c-0.4-1.1-0.3-1.2,0.4-0.4c0.5,0.5,0.8,1.2,0.5,1.4
	C574.5,329.2,574,328.7,573.7,327.9L573.7,327.9z M571.4,323.9c-0.3-1-0.9-1.8-1.3-1.8c-0.8,0-7.1-12.8-7.1-14.4
	c0-1.8,3,2.7,6.4,9.5c1.8,3.6,3.1,7,2.9,7.5C572.1,325.3,571.7,324.9,571.4,323.9L571.4,323.9z M575.6,318.9
	c-0.9-1.8-1.5-3.4-1.3-3.7c0.5-0.5,3.7,4.6,3.7,5.9C578,322.9,577.3,322.2,575.6,318.9L575.6,318.9z M581.3,318.2
	c-2.4-4.5-10-17.4-12.5-21.1c-2.6-3.9-3.3-6-2.1-6c0.6,0,3.5,4.6,7.2,11.1c1.1,2,3.1,5.5,4.4,7.9c1.3,2.4,2.9,5,3.5,5.7s1,2,0.8,2.8
	C582.4,320,582.2,319.9,581.3,318.2L581.3,318.2z M586.8,315.4c0-0.7,0.4-1,0.8-0.7c0.4,0.3,0.8,0.8,0.8,1.2c0,0.4-0.4,0.7-0.8,0.7
	S586.8,316,586.8,315.4z M571.4,310.6c-1.9-3.9-1.6-4.6,0.3-0.9c0.9,1.7,1.5,3.2,1.3,3.4C572.9,313.3,572.2,312.1,571.4,310.6
	L571.4,310.6z M584,310c-0.3-1-1-2.3-1.6-3c-1-1.1-2.2-3.2-6.6-11.1c-1.1-2-3.5-5.6-5.4-8.2c-1.9-2.5-3.4-4.8-3.4-5.1
	c0-0.3-0.7-1.3-1.5-2.2c-2.2-2.4-7-11.4-5.4-10.1c1.5,1.2,13.3,18.6,13.3,19.6c0,0.3,0.7,1.4,1.5,2.3c2.1,2.3,11.2,17.2,11.2,18.5
	C586,312.5,584.5,312,584,310L584,310z M591.3,310.5c-0.3-0.3-0.5-0.9-0.5-1.4c0-0.5,0.4-0.5,0.9,0.1c0.5,0.5,0.8,1.1,0.5,1.4
	C592,310.8,591.6,310.8,591.3,310.5z M558.6,301.3c-4.1-6.1-5.3-8.4-5-9.4c0.3-0.9,4.2,4.9,6.9,10.3
	C563,307.1,562.3,306.8,558.6,301.3L558.6,301.3z M586.2,302.7c-1.4-1.5-2.6-3.2-2.6-3.7c0-2-6.1-11.1-14.3-21.5
	c-4.9-6.2-7.8-11.2-6.9-12.1c0.7-0.7,7.8,8.9,13.7,18.6c0.4,0.7,1.6,2.4,2.6,3.8c1,1.4,1.8,2.9,1.8,3.3c0,0.4,0.5,0.9,1.1,1.2
	c1.1,0.4,5.5,7.7,6.9,11.3C589.3,305.9,589.3,305.9,586.2,302.7L586.2,302.7z M566.3,302.1c-0.9-1-2.4-3.4-3.3-5.4s-3.2-5.5-5.2-7.9
	c-3.5-4.4-4.9-7.1-3.5-7.1c0.4,0,1.7,1.6,2.9,3.7c1.2,2,3.2,5.1,4.5,7c2.1,2.9,6.9,11.6,6.5,11.6
	C568.1,303.9,567.2,303.1,566.3,302.1L566.3,302.1z M592.4,301.6c-0.9-1.3-1.7-2.7-1.7-3.1s-1.1-1.9-2.4-3.3
	c-1.3-1.4-3.5-4.7-4.8-7.4c-2.4-4.8-3.2-6-11.1-16.9c-4.5-6.2-9.5-13.7-9.5-14.3c0-0.7,6.1,6.3,8,9.2c1,1.6,2.9,4.4,4.2,6.4
	c5.6,8.4,7.3,10.8,9.5,13.4c1.3,1.5,3.2,4.6,4.3,6.9s2.3,4.4,2.7,4.7c0.9,0.6,3.3,6,2.8,6.5C594.2,303.8,593.4,302.9,592.4,301.6
	L592.4,301.6z M608.3,301c0-0.5-1-1.8-2-3c-2-2.2-2.5-3.6-1.3-3.6c1,0,4.2,5.6,3.7,6.7C608.5,301.6,608.3,301.6,608.3,301L608.3,301
	z M599.2,298.6c-0.3-0.7-0.3-1.5-0.1-1.7c0.2-0.2,0.6,0.2,0.9,0.9c0.3,0.7,0.3,1.5,0.1,1.7S599.5,299.4,599.2,298.6z M601.5,290.9
	c-0.4-0.6-2-2.6-3.4-4.5c-3.2-4.3-3.3-6.1-0.1-2.4c2.8,3.3,5.7,7.9,4.9,7.9C602.5,292,601.9,291.5,601.5,290.9L601.5,290.9z
	 M551.6,289.9c-0.3-0.3-0.5-1.1-0.5-1.8c0-1,0.2-1,0.9,0.2C552.8,289.7,552.5,290.8,551.6,289.9L551.6,289.9z M613,286.7
	c-1.5-2.1-3-4-3.4-4.1c-0.4-0.2-1.5-2-2.4-4c-0.9-2-2.2-4.2-2.7-4.9c-2.5-3-9.5-12.1-10.9-14.2c-2.7-4-10.7-13.7-16.2-19.5
	c-7.6-8.1-15.2-17.3-14.7-17.8c0.7-0.7,15.4,15.1,16.6,17.9c0.6,1.4,2.2,3.3,3.5,4.4c1.3,1,4,4,6,6.6c2,2.6,4.9,6.1,6.4,7.7
	c1.5,1.6,3.8,4.8,5.2,7.1c1.4,2.3,3.9,5.9,5.4,7.8c2.7,3.4,5.8,7.8,9,12.8C617.4,290.5,615.8,290.6,613,286.7L613,286.7z
	 M563.7,287.6c-0.6-0.7-0.8-1.4-0.6-1.6c0.2-0.2,0.9,0.2,1.4,0.8c0.6,0.7,0.8,1.4,0.6,1.6C564.9,288.7,564.3,288.3,563.7,287.6z
	 M603.4,283.8c-1.5-2.3-3-4.2-3.4-4.4c-1.1-0.5-13.2-19.1-13.3-20.4c0-1.3,3.7,3.6,7.3,9.4c1.8,3,3.9,6.2,4.7,7.1
	c0.8,0.9,2.5,3,3.8,4.5c2.2,2.6,4.4,7,3.8,7.5C606.3,287.8,605,286.1,603.4,283.8L603.4,283.8z M590.9,285.6
	c-0.5-0.9-0.6-1.6-0.3-1.6c0.7,0,1.9,2.4,1.5,2.9C592,287,591.4,286.4,590.9,285.6L590.9,285.6z M616,279.5
	c-3.8-5.3-4.4-6.5-2.4-4.7c2.2,2,6.1,7.6,5.6,8.1C618.9,283.1,617.5,281.6,616,279.5L616,279.5z M545.6,280.6
	c-0.9-1-1.7-2.2-1.7-2.7s-0.9-1.9-2-3.1c-1.1-1.2-2.9-3.6-4.1-5.4l-2-3.2l3.3,3.1c1.8,1.7,3.3,3.6,3.3,4.1c0,0.5,0.5,1.4,1.1,1.9
	c1.1,0.9,4.7,7.2,4.1,7.2C547.5,282.4,546.6,281.6,545.6,280.6L545.6,280.6z M586.8,279.7c-0.6-0.7-0.8-1.4-0.6-1.6
	c0.2-0.2,0.9,0.2,1.4,0.8c0.6,0.7,0.8,1.4,0.6,1.6C588,280.7,587.3,280.3,586.8,279.7z M549.2,276.7c-2.6-3.2-5.3-7.8-5.3-9
	c0-0.8,4.8,4.5,6,6.7c0.6,1.1,1.7,2.8,2.4,3.8C554.6,281.5,552,280.1,549.2,276.7L549.2,276.7z M623,278.8c-0.9-2.3-0.5-3.1,0.7-1.6
	c0.6,0.8,1.2,1.8,1.2,2.2C624.9,280.5,623.5,280.1,623,278.8z M642.8,274.5c-0.3-0.4-0.1-0.8,0.4-0.8s0.8,0.4,0.8,0.8
	c0,0.4-0.2,0.8-0.4,0.8S643.1,274.9,642.8,274.5z M582,272.5c-0.6-0.7-0.8-1.4-0.6-1.7c0.2-0.2,0.8,0.3,1.3,1.2
	C583.8,274,583.4,274.2,582,272.5z M610.6,271.7c-0.6-0.7-0.6-1.2-0.2-1.2c0.4,0,1,0.5,1.3,1.2c0.3,0.7,0.3,1.2,0.2,1.2
	C611.7,272.9,611.2,272.4,610.6,271.7z M638.4,269.3c-1-1.6-1.6-3-1.4-3.2c0.5-0.5,4.6,4.3,4.6,5.3C641.6,273,640,272,638.4,269.3
	L638.4,269.3z M631.1,269.6c-0.8-0.4-1.4-1.3-1.4-1.9s-1.5-2.7-3.2-4.5c-3.4-3.6-6-7.7-4.8-7.7c0.4,0,1.9,1.6,3.4,3.7
	c1.5,2,3.9,5,5.3,6.7C633.1,269.1,633.5,271,631.1,269.6L631.1,269.6z M557,268.1c-0.9-1.4,0.1-1.7,1.2-0.4c0.6,0.8,0.7,1.2,0.2,1.2
	C557.9,268.9,557.3,268.6,557,268.1L557,268.1z M614.6,267.7c-0.6-0.7-0.8-1.4-0.6-1.6c0.2-0.2,0.9,0.2,1.4,0.8
	c0.6,0.7,0.8,1.4,0.6,1.6C615.8,268.8,615.1,268.4,614.6,267.7z M534.6,265.2c-1.1-0.5-1.3-1.9-0.3-1.9c0.4,0,0.9,0.5,1.2,1.2
	s0.4,1.2,0.3,1.1S535.1,265.5,534.6,265.2L534.6,265.2z M554.7,264.5c-1.4-1.4-1.7-3.1-0.5-2.3c0.9,0.5,2.6,3.6,2.1,3.6
	C556.1,265.8,555.4,265.2,554.7,264.5L554.7,264.5z M539.2,262.4c-1-1.6-2-3-2.4-3.1c-1-0.4-4.3-5.5-3.9-5.9
	c0.2-0.2,1.2,0.7,2.3,2.1c1,1.3,2.9,3.7,4.1,5.2c1.2,1.5,2.1,3.2,1.9,3.7C541.2,264.8,540.2,264,539.2,262.4L539.2,262.4z
	 M632.7,262c-3.7-3.9-7.4-8.9-6.9-9.4c0.5-0.5,11,10.4,11,11.5C636.8,265.6,635.6,265,632.7,262z M603.6,262.1
	c-0.5-1.2-0.6-1.8-0.1-1.5c1.2,0.7,2.6,3.6,1.8,3.6C604.8,264.2,604.1,263.3,603.6,262.1z M617.3,261.6c-2.8-3.1-4.8-7.1-3.1-6.5
	c1.2,0.5,6.4,8.2,5.9,8.7C619.8,264,618.6,263,617.3,261.6L617.3,261.6z M531.3,261.6c-1.1-1.1-1.2-2.2-0.2-2.2
	c0.4,0,1.1,0.7,1.6,1.6C533.7,262.7,532.8,263.1,531.3,261.6L531.3,261.6z M644.1,258.2c-2.4-2.4-4.1-4.5-3.9-4.7
	c0.4-0.4,8.6,7.5,8.6,8.4C648.7,262.9,648.7,262.9,644.1,258.2L644.1,258.2z M550.9,259.6c-0.7-0.8-2-2.6-3-4.2l-1.8-2.8l2.5,2.8
	c2.4,2.7,4.3,5.6,3.7,5.6C552.2,261,551.6,260.4,550.9,259.6L550.9,259.6z M557.3,259.6c-1.9-2.2-2.5-3.3-1.7-3.3
	c0.4,0,1.5,1.1,2.5,2.4C560,261.2,559.4,261.9,557.3,259.6z M606.7,257.4c-2.1-2.6-2.4-5.1-0.4-3.4c1.3,1.1,3,4.7,2.4,5.2
	C608.6,259.3,607.7,258.5,606.7,257.4L606.7,257.4z M597.6,254.6c-2.5-3-2.8-4.9-0.3-2.2c3.2,3.5,4,4.6,3.1,4.6
	C600,257,598.7,255.9,597.6,254.6L597.6,254.6z M581.7,253.3c-0.8-1.1-1.3-2.1-1.1-2.4c0.2-0.2,1,0.5,1.8,1.7
	C584.2,255.3,583.7,255.9,581.7,253.3L581.7,253.3z M524.6,253.3c-0.3-0.3-0.5-0.9-0.5-1.4c0-0.5,0.4-0.5,0.9,0.1
	c0.5,0.5,0.8,1.1,0.5,1.4C525.3,253.7,524.9,253.6,524.6,253.3z M636,251c-0.9-1.1-0.9-1.2,0.4-1c0.8,0.2,1.6,0.7,1.8,1.3
	C638.7,252.7,637.2,252.5,636,251L636,251z M556.3,250c-1.8-2-1.8-3.9-0.1-2.5c1.6,1.3,3,3.9,2.1,3.9
	C558,251.5,557.1,250.8,556.3,250z M600.9,249.3c-2.3-2.7-2.4-3.8-0.2-1.6c1.2,1.2,2.1,2.4,1.8,2.6S601.6,250,600.9,249.3
	L600.9,249.3z M620.7,247.8c-3.1-2.9-3.5-3.5-2.3-3.5c0.4,0,1.9,1.4,3.2,3.2C624.8,251.4,624.6,251.5,620.7,247.8L620.7,247.8z
	 M606.1,247c-1.4-1.6-2.6-3.3-2.6-3.8c0-0.9,3.4,2.8,4.8,5.3C609.5,250.6,608.9,250.2,606.1,247L606.1,247z M516.2,243.7
	c-5-5.7-4.7-5.3-13.2-13.3c-4.6-4.3-6.7-6.7-5.7-6.7c1.5,0,16,14.1,21.5,20.9C523,249.8,521,249.2,516.2,243.7L516.2,243.7z
	 M539.4,245.7c-2.2-2.4-2.9-3.8-2-3.8c0.9,0,4.9,4,4.9,4.9C542.3,248,541,247.5,539.4,245.7L539.4,245.7z M524.2,244.6
	c-2.6-2.9-4.1-5.8-2.2-4.3c1.7,1.4,4.7,5.6,4.3,6C526.1,246.4,525.2,245.7,524.2,244.6L524.2,244.6z M589.9,245.3
	c-2.9-3.6-3.1-4.3-0.5-1.8c1.6,1.5,2.9,2.8,2.9,3C592.3,247.2,590.8,246.5,589.9,245.3L589.9,245.3z M572.5,242.1
	c-1.5-2.1-2-3.3-1.2-2.6c2.1,1.6,5.1,5,5.1,5.8C576.5,246.8,574.9,245.6,572.5,242.1z M591.3,238.8c-4.7-4.9-6.3-7.2-4.8-7.2
	c0.3,0,1.2,1,2.2,2.2c0.9,1.2,3.3,3.9,5.2,6C599.4,245.7,597.2,244.9,591.3,238.8L591.3,238.8z M534.4,239.8c-2-1.2-6.8-7.3-6.2-7.8
	c0.3-0.3,3.6,2.7,6.9,6.3C537.3,240.8,537,241.5,534.4,239.8L534.4,239.8z M539.7,238.2c-1.6-1.6-3.4-3.7-3.8-4.6s1.2,0.3,3.6,2.7
	c2.5,2.4,4.5,4.4,4.5,4.6C543.9,241.8,542.2,240.7,539.7,238.2L539.7,238.2z M599.5,239.1c-1-1.1-1.5-2-1.1-2c0.7,0,4,3.9,3.3,3.9
	C601.5,241.1,600.5,240.2,599.5,239.1L599.5,239.1z M565.4,234.2c-8.4-9.4-25-25.7-26.7-26.1c-1.1-0.3-1.9-1.1-1.9-1.8
	c0-1.4-7.2-8.1-13.7-12.7c-6.4-4.6-4-5.2,3.4-0.9c3.4,2,16.1,13.6,22.2,20.3c1.6,1.7,4.1,4.4,5.5,6c1.5,1.5,3.5,4.1,4.6,5.7
	c1,1.6,2.9,3.6,4.1,4.5c2.4,1.8,7,8,6.4,8.6C568.9,237.8,567.2,236.3,565.4,234.2L565.4,234.2z M509.9,230.1
	c-6.4-6.1-8.5-8.9-6.9-8.9c0.8,0,7.5,6.5,11.6,11.3C520.5,239.3,518.3,238.2,509.9,230.1L509.9,230.1z M532.8,230.8
	c0-0.5,0.4-0.6,0.8-0.4s0.8,0.6,0.8,0.8c0,0.2-0.4,0.4-0.8,0.4S532.8,231.2,532.8,230.8z M496.5,217.7c-2.1-1.5-4.8-3.4-5.8-4.2
	c-1.1-0.8-2.7-2.2-3.5-3.3c-1.4-1.8-3.1-3.1-12.6-10.2c-2.1-1.5-3.8-3.1-3.8-3.5c0-1.1,3,0.1,4.4,1.7c0.8,0.8,1.7,1.5,2.1,1.5
	c0.8,0,7.8,5.4,13.6,10.4c1.8,1.5,4.2,3.4,5.4,4.1c2.3,1.5,6,6.2,4.8,6.2C500.7,220.5,498.6,219.2,496.5,217.7L496.5,217.7z
	 M411.6,189.5c-0.6-1,0.4-1,2,0c1,0.7,1,0.8-0.2,0.8C412.7,190.3,411.9,189.9,411.6,189.5L411.6,189.5z M419.4,189.4
	c-2.2-0.8-2.4-2.3-0.2-1.7c1.5,0.4,2.8,1.6,2.3,2.2C421.3,190,420.4,189.8,419.4,189.4L419.4,189.4z M434,187.3
	c-6.5-3.2-8.1-4.7-3.1-3c3.1,1.1,10.5,5,10.5,5.6C441.4,190.7,439.8,190.1,434,187.3L434,187.3z M419.6,184.9
	c-1.3-0.7-2-1.4-1.4-1.6c0.9-0.3,5.8,1.9,5.8,2.6C424,186.6,422,186.2,419.6,184.9z M419.5,180c-2.8-1.1-3.1-2.5-0.3-1.5
	c1.3,0.5,2.6,1.2,2.9,1.6C422.6,180.9,421.7,180.9,419.5,180L419.5,180z M655.5,256.9c-0.2-0.6-2.4-2.7-4.8-4.6
	c-2.4-1.9-5.1-4.7-5.9-6.2c-0.9-1.5-2.8-3.4-4.4-4.3c-1.5-0.9-2.8-1.9-2.8-2.3c0-1-17-15.6-22.1-18.9c-1.6-1.1-3.6-2.6-4.5-3.4
	c-3.2-3-7.2-6.1-8.9-7c-1.5-0.8-5.1-3.4-19.2-13.9c-1.5-1.1-3.1-2-3.7-2c-0.5,0-3-1.5-5.4-3.4c-2.4-1.9-6.3-4.4-8.5-5.8
	c-2.2-1.3-5.2-3.2-6.6-4.1c-1.4-1-4-2.5-5.7-3.5c-1.7-1-4.2-2.5-5.6-3.5c-1.3-1-5.7-3.2-9.7-5c-4-1.7-8.3-3.9-9.4-4.8
	c-1.2-0.9-2.5-1.7-2.9-1.7c-1.4,0-20-8.6-24.8-11.5c-2.6-1.5-5-2.8-5.4-2.8s-2.2-1-4-2.3s-5.9-3.9-9-5.9
	c-11.2-7.2-17.2-13.8-26.9-29.4c-8.6-13.9-14.5-18.5-30.8-23.9c-9.2-3.1-22.9-4.2-25.5-2.1c-1.4,1.2-32.2,1.4-37.4,0.2
	c-2.2-0.5-6.8-1.4-10.3-2.1c-7.4-1.4-15.6-3.8-22.2-6.7c-2.6-1.1-9.6-3.7-15.5-5.8c-5.9-2.1-15.2-5.4-20.7-7.4
	c-8.8-3.2-16.8-5.4-35-9.7c-16.2-3.8-80.3-5.6-98-2.8c-8.1,1.3-21.8,4-30.6,6.1c-15.4,3.6-15.1,3.5-29.1,9.9
	c-1.8,0.8-4.8,1.8-6.8,2.3c-3.9,0.9-12.6,5.4-12.6,6.5c0,0.9,1.2,0.9,4.3,0c1.3-0.4,5.5-1.5,9.2-2.5c3.7-1,8.9-2.4,11.5-3.2
	c5.7-1.7,16.6-3.6,25.8-4.7c3.7-0.4,11.6-1.3,17.5-2c7.9-0.9,15.1-1.2,27.4-0.9c16,0.4,20.1,0.7,41.3,3.4c5.2,0.7,12,1.5,15.1,1.9
	c3.1,0.4,6.6,1.1,7.9,1.6c1.3,0.5,4.5,1.4,7.1,2c18.3,3.8,24,5.5,34.6,9.9c14.3,6,21.6,9.4,22.6,10.6c0.4,0.5,2.3,1.5,4.2,2.2
	c3.4,1.3,11.8,6.2,20.5,11.8c2.6,1.7,5.8,3.6,7.1,4.2c1.3,0.6,5.6,4.1,9.5,7.6c3.9,3.6,10,9.1,13.5,12.2c3.5,3.1,8.1,7.3,10.3,9.3
	c12,10.8,17.1,14.6,22.5,16.6c2.3,0.9,5,2.1,6,2.7c3,1.9,18.5,6.8,21.6,6.8c1.6,0,4.9,0.7,7.4,1.7c6.1,2.2,8.3,2.8,15.3,3.9
	c11.4,1.8,25,4.1,30.6,5.2c3.1,0.6,8.1,1.5,11.1,2c22.3,3.5,37.1,7.4,53.7,14.1c21.1,8.5,25,10.2,31.6,13.5
	c3.4,1.7,8.2,4.1,10.9,5.4c2.6,1.2,5.9,3.1,7.2,4.1c1.4,1,2.7,1.8,3,1.8c0.5,0,14.6,8.4,32.2,19.1c2.5,1.5,7.9,5.3,12,8.4
	c4.1,3.1,9.4,6.8,11.8,8.3s5.2,3.5,6.3,4.5C655.5,258.7,656.2,258.8,655.5,256.9L655.5,256.9z M492.5,227.2
	c-0.3-0.7-1.2-1.6-2.2-2.1c-1.6-0.8-1.5-0.7,0.2,1.2C492.8,228.7,493.2,228.9,492.5,227.2z M489.5,188.2c-3.1-2.6-7.9-5.1-9.7-5.1
	c-1,0-0.8,0.4,1,1.6c2.8,1.8,4.8,3.2,6.6,4.6C490.2,191.3,492.1,190.4,489.5,188.2L489.5,188.2z M501.8,184c0-0.7-5.5-2.4-8-2.4
	c-2.5,0-1.2,1.3,2.9,2.6C499.7,185.3,501.8,185.2,501.8,184L501.8,184z M472,182.7c-2.1-1.6-9.3-5.1-9.7-4.7
	c-0.2,0.2,0.5,0.8,1.5,1.5c1,0.6,3.1,1.9,4.6,2.8C471.8,184.2,474.5,184.6,472,182.7L472,182.7z M471.6,178.5c0-0.4-0.7-0.9-1.6-1.1
	c-0.9-0.2-1.6-0.1-1.6,0.2c0,0.4,0.6,0.8,1.4,1c0.8,0.2,1.5,0.4,1.6,0.5C471.5,179.1,471.6,178.9,471.6,178.5L471.6,178.5z
	 M452.2,176.8c-0.8-0.9-2.4-1.6-3.5-1.6c-2,0-1.9,0.1,0.7,1.5C453.1,178.7,453.9,178.7,452.2,176.8L452.2,176.8z M358.2,161.1
	c1.1-1.2,3-4,4.2-6.1s3.2-5.4,4.4-7.1c3.5-4.9,3.1-5.8-5-12.9c-7.6-6.6-11.8-10.7-11.8-11.5c0-0.3-0.9-0.9-1.9-1.4
	c-1-0.5-4.4-3-7.3-5.5c-3-2.6-7.2-5.7-9.3-7c-2.1-1.3-5.3-3.3-7.1-4.5c-1.8-1.2-5.3-3.1-7.7-4.3c-2.4-1.2-5.3-2.9-6.5-3.9
	c-2.8-2.3-24.3-12.8-29.2-14.3c-1.1-0.3-3.4-1.3-5-2.1c-1.7-0.8-6-2.2-9.5-3c-3.6-0.8-9.9-2.4-14-3.6c-7.1-2-15.7-3.7-31.8-6.4
	c-22.3-3.7-48.4-4.4-76.4-2.1c-11.6,1-11.8,1-28.8,4.7c-6.1,1.3-13.6,2.9-16.6,3.5c-3,0.6-5.7,1.5-5.8,2.1
	c-0.4,1.4,12.1,0.5,17.2-1.1c1.9-0.6,4.6-1.1,6-1c1.4,0.1,5.3-0.3,8.6-0.8c10.8-1.5,35.1-1.9,49.5-0.9c7.4,0.5,15.1,1.1,17.1,1.2
	s6.6,0.6,10.3,1.2c3.7,0.5,9.3,1.2,12.3,1.6c14.8,1.8,34.2,6.3,46.5,10.7c3.3,1.2,7,2.4,8.4,2.8c1.3,0.3,3.8,1.4,5.6,2.3
	c3.7,2,17.3,7.2,20.4,7.8c1.2,0.2,2.2,0.7,2.2,1.1s1.3,1.4,3,2.3c1.6,0.9,4.6,2.7,6.6,4s4.6,2.8,6,3.4c12.3,5.7,30.4,25.9,36.3,40.6
	C353.5,162.8,355,164.5,358.2,161.1L358.2,161.1z M458,103.3c0.6-1.6,0.9-3,0.6-3.2c-0.7-0.7-3.9,4.4-3.3,5.3
	C456.2,106.7,457,106.1,458,103.3L458,103.3z M457.4,98c1.6-1.8,2.5-2.3,2.9-1.6c0.4,0.6,1,0.2,1.9-1.4c1.5-2.6,1-3.1-0.7-0.9
	c-1,1.2-1.1,1.1-0.6-1.6c0.8-4.8-3.1-2.1-7,5c-0.8,1.5-1.6,2.3-1.8,1.8c-0.2-0.5,0.8-2.8,2.2-5.2c2.9-5,4.1-7.8,3.3-7.8
	c-0.3,0-1.2,1.1-2,2.4c-0.8,1.3-1.7,2.4-2.2,2.4c-1.4,0-0.7-2.5,1.3-4.5l2.1-2.1l-2.3-1.8c-2.4-2-4.6-2.4-5.4-1.1
	c-0.9,1.4-1.8,0.1-1.4-2c0.3-1.5,0-2-0.9-2c-0.7,0-1.3,0.4-1.3,0.8c0,0.4-0.4,0.8-0.8,0.8s-0.8-0.7-0.8-1.6c0-1-1-2-2.8-2.9
	l-2.8-1.3l-2.4,2.7c-1.3,1.5-2.4,2.9-2.4,3.3c0,0.3-0.4,0.6-0.8,0.6s0.1-1.6,1.3-3.6c3.8-6.5,0.9-5.2-3.8,1.7
	c-4.1,6-4.3,6.7-2.8,6.7c1,0,2.5,0.5,3.3,1c0.9,0.6,3.3,1.7,5.4,2.5c2.1,0.8,5.6,2.8,7.8,4.5c2.3,1.7,4.6,2.8,5.2,2.6
	c0.8-0.3,1.1,0,0.9,1.1C449.3,100.7,453.9,101.7,457.4,98L457.4,98z M451.8,83.4c0.6-0.7,1.2-1,1.4-0.8c0.6,0.6-0.6,2.1-1.5,2.1
	C451.1,84.6,451.1,84.2,451.8,83.4L451.8,83.4z M425.4,80.9c0.5-1.2,2-4.1,3.3-6.5c3.8-6.8,2.1-6.2-2.6,0.9c-1.6,2.5-3.3,4.7-3.7,5
	c-1.3,0.8-0.9,2.8,0.6,2.8C423.8,83.1,424.8,82.1,425.4,80.9z M420.8,78.5c0.9-1.6,2.5-4.4,3.5-6.2c1-1.7,1.7-3.5,1.5-3.8
	c-0.6-1-8.2,9.9-8.2,11.7C417.6,82.4,419.1,81.6,420.8,78.5L420.8,78.5z M421.4,68.3c-0.2-0.2-0.7,0.2-1,1c-0.4,1.1-0.3,1.2,0.4,0.4
	C421.4,69.2,421.7,68.6,421.4,68.3L421.4,68.3z"/>
</svg>
