<?xml version="1.0" encoding="UTF-8"?>
<svg width="735.94" height="608.44" version="1.1" viewBox="0 0 735.9375 608.4375" xmlns="http://www.w3.org/2000/svg">
 <path d="m100.29 606.82c-1.2749-0.89107-3.0639-2.2622-3.9756-3.0469-1.6702-1.4376-16.207-9.5574-20.156-11.258-2.5961-1.1183-3.5233-3.4695-4.2625-10.809l-0.5681-5.6405 5.1506-5.6095c2.8328-3.0852 5.8306-6.8752 6.6618-8.422 0.83113-1.5469 3.3481-5.4473 5.5934-8.6676 2.2452-3.2203 4.0822-6.5101 4.0822-7.3106s1.0121-2.3844 2.2491-3.5199c1.237-1.1354 4.2014-5.0175 6.5875-8.6269s4.7598-7.1953 5.275-7.9688c0.51518-0.77344 1.6641-2.5145 2.5532-3.869 0.88905-1.3545 4.4641-6.7168 7.9446-11.916 3.4805-5.1993 6.3281-9.7592 6.3281-10.133s0.80659-1.5506 1.7924-2.6151c3.1305-3.3802 16.02-23.136 16.02-24.554 0-0.74863 1.701-3.0792 3.78-5.1791s4.4618-5.142 5.2952-6.7603c1.7734-3.4437 5.2673-8.3536 8.765-12.317 1.365-1.5469 3.6718-4.9219 5.1261-7.5s3.6562-5.9531 4.8932-7.5c2.6166-3.2723 8.2405-11.672 11.003-16.433 2.8708-4.9484 8.7337-14.137 15.044-23.579 3.0938-4.6286 6.4436-9.7539 7.4442-11.39 1.0005-1.6356 3.5758-5.2941 5.7228-8.1301s4.6063-6.4219 5.4651-7.9688 3.0016-4.7109 4.7618-7.0312 3.2283-4.6854 3.2626-5.2558c0.0342-0.57039 1.5684-3.0097 3.4094-5.4207 1.8409-2.411 4.577-6.7217 6.0803-9.5795 1.5032-2.8577 4.1919-6.9 5.9748-8.983 1.7829-2.0829 4.1598-5.743 5.2821-8.1335s3.2359-5.7098 4.6969-7.3762c3.8788-4.4239 13.75-19.241 19.216-28.845 0.88039-1.5469 2.8078-4.1983 4.2832-5.892s2.6825-3.646 2.6825-4.3383 0.67569-1.8196 1.5015-2.505c1.3654-1.1332 7.8129-10.671 14.522-21.483 2.9488-4.7522 8.3686-12.411 12.57-17.763 2.8874-3.678 4.4883-6.1804 9.375-14.654 1.5469-2.6824 4.184-6.8436 5.8604-9.2471s3.708-5.6466 4.5148-7.2068 2.8103-4.601 4.4522-6.7574c2.6932-3.5372 4.0232-6.1682 7.6594-15.153 2.4045-5.9411 3.157-8.5861 3.6682-12.894 0.59961-5.0526 3.178-10.628 6.6452-14.369 1.2959-1.3983 2.3562-3.0761 2.3562-3.7284s1.3132-2.291 2.9182-3.6416l2.9182-2.4556-2.3457-3.5446c-1.2901-1.9495-4.0461-5.5092-6.1243-7.9104-2.4062-2.7801-4.3496-6.3301-5.3508-9.7739-1.8066-6.2145-3.7091-10.255-6.0892-12.933-0.91663-1.0312-2.4603-3.3516-3.4303-5.1562-2.3332-4.3407-12.188-14.409-15.955-16.3-1.6445-0.82579-3.5429-2.2614-4.2188-3.1903-1.1377-1.5636-4.5376-3.8898-11.541-7.8965-1.5469-0.88494-8.0859-4.1881-14.531-7.3405-28.062-13.725-32.972-15.895-35.979-15.902-1.0946-0.0026-3.6777-1.0442-5.7402-2.3145s-4.8047-2.3332-6.0938-2.362c-1.2891-0.02877-4.875-0.90204-7.9688-1.9406-29.127-9.7779-75.341-15.859-110.62-14.557-31.926 1.178-40.352 1.7038-41.425 2.5848-0.61195 0.5022-2.2994 0.73002-3.75 0.50626-1.4506-0.22375-5.8014 0.20226-9.6686 0.94669s-9.3516 1.7022-12.188 2.1283c-19.45 2.9226-26.002 4.3512-35.156 7.6656-5.6719 2.0536-11.262 3.9633-12.422 4.2437-4.6458 1.1229-0.64976-5.219 4.2188-6.6954 1.1602-0.35182 2.1094-0.96207 2.1094-1.3561 0-1.3049 24.888-16.032 27.094-16.032 0.46148 0 3.3899-1.2656 6.5077-2.8125 3.1177-1.5469 6.129-2.8125 6.6917-2.8125 0.56269 0 1.9574-0.60487 3.0995-1.3442 5.4251-3.512 33.242-12.348 43.179-13.716 3.1746-0.43706 8.5142-1.2226 11.866-1.7457 35.588-5.5539 106.2-4.3636 136.03 2.2929 8.0437 1.7948 15.269 3.2633 16.057 3.2633s4.5422 1.2157 8.3439 2.7016 11.131 4.0585 16.287 5.717 9.8517 3.4055 10.434 3.8823c0.58267 0.47681 4.3795 1.8734 8.4375 3.1035s12.23 3.9793 18.159 6.1092c31.029 11.146 51.821 13.951 80.152 10.816 17.713-1.9601 16.235-1.1903 23.514-12.244 6.2839-9.542 5.7796-9.2233 12.363-7.8133 12.074 2.5857 32.836 14.139 43.388 24.143 3.3279 3.1552 6.3671 5.7444 6.7538 5.7538 1.6341 0.03958 0.44312 2.6905-3.4192 7.6103-2.2666 2.8872-4.8196 6.6003-5.6734 8.2514-0.85377 1.651-2.1631 3.2362-2.9096 3.5227-3.1907 1.2244-0.40322 5.9079 10.997 18.478 10.651 11.743 17.727 17.771 24.891 21.203 2.9762 1.4258 8.1536 4.1596 11.505 6.075s9.2464 4.5127 13.1 5.7716c3.8533 1.2589 7.9517 2.9086 9.1076 3.666 1.1559 0.75738 2.7896 1.377 3.6305 1.377 0.84088 0 2.6923 0.82846 4.1144 1.841 1.422 1.0126 7.1824 4.1218 12.801 6.9094 16.285 8.0798 21.304 10.884 23.857 13.328 1.3153 1.2594 3.6356 2.4356 5.1562 2.6138 1.5206 0.17827 4.0304 1.0379 5.5773 1.9103 5.8892 3.3213 12.313 7.4644 15.568 10.041 1.8594 1.4717 6.3743 4.1104 10.033 5.8638 3.6588 1.7534 7.9244 4.1918 9.4793 5.4186 1.5548 1.2268 4.5767 3.4962 6.7153 5.0431s6.1455 4.9943 8.9043 7.6609c2.7587 2.6666 5.7688 5.0875 6.689 5.3797 0.92023 0.29224 2.9388 2.0629 4.4857 3.9347 4.5527 5.5092 9.9689 10.493 15.294 14.073 5.5622 3.7397 21.741 20.07 31.933 32.233 3.6728 4.3828 7.4405 8.8125 8.3727 9.8438 0.93218 1.0312 3.1474 3.9675 4.9227 6.525s5.6822 7.1356 8.6821 10.174c5.2383 5.3048 6.2898 8.1451 3.0153 8.1451-0.78814 0-3.0162 1.4191-4.9513 3.1535s-4.784 3.8522-6.3308 4.7062c-1.5469 0.85397-4.7109 2.9934-7.0312 4.7542s-6.4518 4.6001-9.1812 6.3094c-2.7293 1.7093-8.0028 5.5224-11.719 8.4735-3.716 2.9511-7.131 5.3769-7.589 5.3906-0.45796 0.0138-2.5926 1.607-4.7437 3.5406s-5.9714 4.7812-8.4895 6.3281c-5.5348 3.4-7.4235 4.6944-12.761 8.7454-2.2611 1.7162-6.6423 5.0177-9.736 7.3367-3.0938 2.319-8.5781 6.4427-12.188 9.1638-3.6094 2.7211-8.25 5.8203-10.312 6.887s-6.4084 4.5037-9.6576 7.6376c-6.5505 6.3183-9.185 7.129-10.139 3.12-1.8093-7.6051-13.761-34.534-17.787-40.078-1.1234-1.5469-2.3515-3.8672-2.729-5.1562s-1.6312-3.6094-2.786-5.1562c-1.1548-1.5469-3.1098-4.6627-4.3443-6.924-3.7282-6.8289-4.256-7.6265-6.814-10.296-1.354-1.4133-2.4619-3.0201-2.4619-3.5707s-2.0929-3.6916-4.6509-6.98c-6.0635-7.7948-8.5712-11.16-14.237-19.104-2.574-3.6094-5.8432-7.8281-7.2647-9.375s-4.1997-5.1328-6.1736-7.9688c-1.9739-2.8359-3.9466-5.2972-4.3838-5.4695-0.43719-0.17228-2.2839-2.5566-4.1038-5.2984-2.6443-3.9838-18.193-20.588-24.856-26.543-0.74883-0.66925-4.335-4.2552-7.9694-7.9688-6.4292-6.5693-11.024-10.34-18.69-15.339-4.1302-2.6932-19.106-7.8126-22.905-7.83-1.3319-7e-3 -4.7419-0.66685-7.5778-1.4683-11.891-3.3604-39.516-1.5933-41.186 2.6345-0.98502 2.4939-3.182 5.4484-7.124 9.5804-1.5626 1.6379-4.5157 5.0604-6.5625 7.6057-2.0468 2.5452-4.0275 4.7648-4.4015 4.9325-0.37406 0.16765-2.802 2.3825-5.3954 4.9219s-5.1544 4.617-5.6911 4.617-1.9112 2.0039-3.0544 4.4531-3.7767 6.7734-5.8524 9.6094c-4.6722 6.3836-9.7954 14.451-9.7954 15.424 0 0.76405-5.4966 8.6516-11.509 16.515-1.9471 2.5466-3.9729 5.5778-4.5018 6.7361-2.164 4.7387-4.0867 7.9242-6.9296 11.481-3.4383 4.3016-9.87 14.234-9.8765 15.253-3e-3 0.37671-1.2234 1.9854-2.7134 3.5749s-3.6565 4.7536-4.8145 7.0312c-1.158 2.2777-3.899 6.4615-6.0912 9.2975-2.1922 2.8359-4.6634 6.5046-5.4916 8.1526-0.82819 1.648-2.5724 4.1473-3.8761 5.5539s-4.0487 5.5981-6.1 9.3142-4.3915 7.3058-5.2003 7.9771c-0.80878 0.67123-2.2489 2.7461-3.2002 4.6108-0.95131 1.8647-3.5572 6.1826-5.7909 9.5953s-5.4639 8.4543-7.1784 11.204c-1.7145 2.7492-4.9669 7.319-7.2276 10.155-2.2607 2.8359-4.1275 5.4907-4.1484 5.8994-0.0209 0.40873-1.6681 2.9497-3.6604 5.6466s-4.5426 6.7073-5.6674 8.9119c-1.1247 2.2046-2.6502 4.2407-3.39 4.5246-1.6817 0.64534-7.8912 9.6734-11.26 16.371-1.3978 2.7791-3.8931 6.9513-5.5452 9.2716s-4.3993 6.75-6.105 9.8438-4.3098 7.0108-5.787 8.7045c-1.4771 1.6937-2.6857 3.4498-2.6857 3.9024s-2.9531 4.7232-6.5625 9.4903c-3.6094 4.767-6.5625 9.2528-6.5625 9.9683 0 0.71553-1.1602 2.4218-2.5781 3.7917-1.418 1.3699-3.8438 4.4582-5.3906 6.8629-1.5469 2.4047-4.0376 6.2217-5.535 8.4823s-4.2396 6.4199-6.0938 9.2429c-1.8542 2.8231-4.1096 5.8816-5.0119 6.7969-0.90234 0.91522-1.6406 2.1141-1.6406 2.6641 0 1.0989-4.7264 7.7161-5.8737 8.2235-0.3946 0.1745-1.5781 2.2064-2.6299 4.5154s-4.341 7.6506-7.3091 11.87c-2.9682 4.2196-6.5969 9.7815-8.0638 12.36-1.467 2.5781-4.2101 6.5859-6.0958 8.9062s-6.1202 8.0156-9.41 12.656c-3.2897 4.6406-8.0089 10.686-10.487 13.435-2.4781 2.7486-4.5056 5.5446-4.5056 6.2133s-0.6119 1.7237-1.3598 2.3444c-0.74787 0.62068-2.6364 3.3905-4.1967 6.1552-6.2317 11.042-14.663 14.964-21.657 10.076zm11.979-3.4207c1.1602-1.0167 2.1034-2.3023 2.0961-2.857-0.022-1.6676-20.672-17.41-22.849-17.419-0.57406-3e-3 -2.4215-1.2956-4.1054-2.8738-4.4572-4.1775-9.2336-4.7558-10.556-1.278-1.8825 4.9514-0.84559 7.9641 3.7738 10.964 14.857 9.6486 20.154 12.88 21.114 12.88 0.59899 0 2.1051 0.97554 3.347 2.1679 2.3924 2.297 2.8722 2.1912 7.1798-1.5837zm8.7561-9.7218c1.5006-1.4163 2.7283-3.0303 2.7283-3.5866s1.0547-2.0023 2.3438-3.2133 2.3438-2.6852 2.3438-3.2759c0-0.59073 1.3972-2.732 3.1048-4.7584 2.9714-3.5261 11.752-15.826 14.708-20.603 6.8614-11.089 12.214-19.062 14.766-21.994 1.6758-1.9257 3.0469-3.803 3.0469-4.1719 0-0.85173 5.2744-8.4578 8.6639-12.494 1.4223-1.6937 2.5861-3.4951 2.5861-4.003 0-0.80177 0.95282-2.4224 6.0746-10.332 4.5552-7.0351 9.1524-13.552 9.8744-13.998 0.48203-0.29791 1.8368-2.2201 3.0106-4.2715 4.155-7.2616 5.9066-10.048 7.8444-12.48 1.0781-1.353 3.1614-4.5694 4.6296-7.1475s3.4337-5.6936 4.3679-6.9233 1.6985-2.767 1.6985-3.4163 2.4258-3.798 5.3906-6.997c5.1899-5.5999 6.3197-7.2607 10.528-15.476 1.0565-2.0625 2.8641-5.2928 4.0168-7.1783 1.1527-1.8856 3.4706-5.7879 5.1508-8.6719s3.424-5.2436 3.875-5.2436c0.45108 0 1.087-0.73828 1.4132-1.6406 0.84811-2.3461 3.0623-6.0132 4.039-6.6892 0.4581-0.31706 2.0328-2.6858 3.4993-5.264 1.4665-2.5781 4.0226-6.375 5.6801-8.4375s3.3466-4.8047 3.7536-6.0938 2.0494-4.0997 3.6499-6.2459 4.5974-6.7361 6.6599-10.2c2.0625-3.4638 5.1211-7.8761 6.7969-9.8052s3.0469-3.9598 3.0469-4.5126 0.77006-1.5564 1.7112-2.2301c0.94118-0.67376 2.8024-3.5459 4.1359-6.3825 1.3336-2.8366 3.7728-6.8444 5.4206-8.9062 1.6477-2.0618 3.3621-4.698 3.8096-5.8581 0.44756-1.1602 1.4078-2.1094 2.1338-2.1094 0.72605 0 1.564-0.73828 1.8621-1.6406 0.82714-2.5036 6.1964-11.467 11.161-18.631 2.4492-3.5346 4.4531-6.8931 4.4531-7.4632s0.88864-1.8402 1.9748-2.8225c1.0861-0.98227 2.7348-3.275 3.6637-5.095 0.92892-1.82 3.4153-5.3982 5.5252-7.9516 2.11-2.5534 3.8363-5.0931 3.8363-5.644 0-1.1181 7.8194-12.134 9.2334-13.008 0.49672-0.30698 0.69203-1.3654 0.43403-2.352-0.30861-1.1801 0.2026-2.1533 1.4943-2.8445 1.0798-0.57792 1.9634-1.66 1.9634-2.4047 0-0.74467 1.8769-3.084 4.1709-5.1986 2.294-2.1145 4.6302-5.2363 5.1916-6.9372 0.56135-1.7009 1.8485-3.8418 2.8604-4.7575 1.0118-0.9157 1.8397-2.0456 1.8397-2.5109s1.8319-3.4585 4.0708-6.6516c2.239-3.1931 5.7991-8.2645 7.9114-11.27 4.2679-6.0722 12.178-15.405 16.846-19.876 1.6758-1.605 3.0469-3.4069 3.0469-4.0042s2.2148-3.3479 4.9219-6.1123c5.921-6.0466 9.1909-10.327 10.831-14.176 1.5312-3.5948 10.208-16.549 17.292-25.818 5.4586-7.1416 5.7115-9.3933 1.0547-9.3933-0.64205 0-4.4638-1.3045-8.4927-2.8989s-10.51-4.0596-14.403-5.4782c-6.3916-2.3294-23.755-13.731-25.697-16.874-1.2844-2.0782-3.0245-0.82655-6.1059 4.392-1.7507 2.9648-3.929 6.2401-4.8408 7.2784-0.91179 1.0383-2.2842 3.3869-3.0497 5.2192-0.76556 1.8323-3.317 5.8922-5.6698 9.0221s-4.2778 6.1773-4.2778 6.7719c0 0.59464-0.92172 2.4352-2.0483 4.0901-1.1266 1.6549-2.814 4.152-3.75 5.5491-0.93594 1.3971-1.712 3.5065-1.7246 4.6875-0.0625 5.8739-7.2179 25.245-11.355 30.741-1.3585 1.8047-3.8635 5.8125-5.5666 8.9062-2.7116 4.9256-5.8782 9.7846-13.442 20.625-1.0792 1.5469-2.3831 3.4901-2.8974 4.3183-0.51433 0.82819-3.7828 5.8045-7.2633 11.058-3.4805 5.2539-6.3281 9.8226-6.3281 10.153s-1.6859 2.5994-3.7464 5.0431-4.1694 5.424-4.6864 6.6228c-0.51696 1.1989-2.6331 4.5001-4.7024 7.336s-5.2799 7.9919-7.1344 11.458c-1.8546 3.4657-4.3807 7.3898-5.6136 8.7202s-2.2417 2.6642-2.2417 2.9642c0 0.29992-5.635 9.0321-12.522 19.405s-13.069 19.914-13.737 21.203c-1.5378 2.9657-9.5116 13.485-10.553 13.922-1.1052 0.46395-4.9594 6.7262-5.8307 9.4738-0.40154 1.2662-2.3726 4.6412-4.3801 7.5s-5.5132 7.94-7.7902 11.292-5.1556 7.3594-6.3966 8.9062c-1.241 1.5469-3.9021 5.3438-5.9135 8.4375s-3.9735 5.7656-4.3602 5.9375c-0.38671 0.17188-0.70312 0.74899-0.70312 1.2825 0 0.53349-1.2191 2.3584-2.709 4.0554-1.49 1.697-4.003 5.6317-5.5844 8.7439-1.5815 3.1122-5.446 9.5404-8.5879 14.285-3.1418 4.7446-6.2941 9.7513-7.005 11.126s-3.1614 4.5825-5.4455 7.1284c-2.2841 2.5458-5.0156 6.3163-6.0699 8.3788s-3.9616 6.5582-6.4607 9.9904c-2.499 3.4322-6.4387 9.3052-8.7549 13.051s-6.7458 9.959-9.8438 13.807c-6.1196 7.6014-5.8422 7.1885-8.9408 13.308-3.3272 6.5705-8.4996 14.682-12.864 20.173-2.1914 2.7573-3.9844 5.2256-3.9844 5.4852 0 0.52046-12.345 18.064-14.235 20.23-3.0473 3.4915-8.2683 10.88-8.298 11.743-0.01823 0.5295-1.4776 3.0701-3.243 5.6457-3.9279 5.7306-3.419 6.9291 4.7499 11.188 4.6822 2.441 8.9671 5.272 13.994 9.2458 2.0093 1.5883 14.106 8.9311 14.851 9.0142 0.43303 0.0483 2.0151-1.0709 3.5156-2.4872zm495.92-236.25c2.005-1.418 3.6544-3.0279 3.6654-3.5776s2.5468-2.2072 5.635-3.6832 5.8581-3.4496 6.1552-4.3857 3.5711-3.4691 7.2756-5.629c6.1267-3.5721 11.103-7.0455 18.923-13.208 1.5469-1.219 4.9219-3.6567 7.5-5.4173s6.9687-5.1083 9.7568-7.4394 6.228-4.8712 7.6442-5.6446c2.5858-1.4122 16.356-11.5 21.847-16.005 1.6165-1.3261 6.2195-4.4352 10.229-6.909 4.0094-2.4738 8.4971-5.9625 9.9727-7.7527l2.683-3.2549-7.2331-7.2721c-3.9782-3.9996-8.276-7.5339-9.5508-7.8538-1.4295-0.35878-2.9322-1.8702-3.9211-3.944-1.0361-2.1728-2.7426-3.8383-4.8234-4.7077-1.771-0.73999-3.5597-1.9519-3.9748-2.6931-1.2354-2.206-17.905-14.604-19.639-14.606-0.9751-2e-3 -2.2097 2.0143-2.2097 3.6077 0 0.35387 2.5602 3.378 5.6894 6.7202 15.777 16.852 13.973 16.823-3.008-0.0488-10.533-10.465-18.051-19.746-10.348-12.775 0.9461 0.85622 2.9526 1.5444 4.4589 1.5293l2.7387-0.0275-2.9694-2.5506c-6.5727-5.6457-13.126-8.5567-11.865-5.2703 1.11 2.8927-3.4908-0.81511-4.7781-3.8506-0.79432-1.8731-2.897-3.7353-6.2604-5.5444-4.039-2.1726-4.7322-2.3458-3.4238-0.85586 0.90235 1.0275 1.6406 2.3288 1.6406 2.8918 0 0.56296 1.2465 1.2973 2.77 1.632 1.7053 0.37455 3.0143 1.3941 3.4056 2.6526 0.3496 1.1243 2.0562 3.6275 3.7925 5.5625 1.7363 1.9351 3.1569 4.0002 3.1569 4.5891 0 1.3602-10.261-8.2073-12.342-11.508-0.85817-1.3612-2.408-3.0686-3.4442-3.7943-1.0361-0.72572-1.8105-2.106-1.7209-3.0672 0.12009-1.2885-1.7316-2.7506-7.047-5.5644-11.852-6.2739-10.085-2.6339 4.163 8.5792 2.9648 2.3332 5.3906 4.565 5.3906 4.9594 0 0.39448 2.1094 3.2417 4.6875 6.3271s4.6875 5.8926 4.6875 6.2381c0 0.8387-13.952-12.35-17.472-16.517-1.6729-1.98-14.343-12.946-19.064-16.499-0.24288-0.18283 0.10488-0.67015 0.77279-1.083 0.83546-0.51634-0.15589-1.3946-3.177-2.8148-7.1685-3.3696-6.0993-1.6967 7.8486 12.28 13.431 13.459 17.381 18.521 8.3566 10.709-9.9434-8.6075-27.891-26.573-27.891-27.919 0-1.4618-10.49-6.8125-12.224-6.2348-0.54981 0.18327 0.9176 1.5451 3.2609 3.0263s8.1662 6.7437 12.94 11.694c16.586 17.201 20.102 22.721 5.1452 8.0772-4.9777-4.8736-11.07-10.403-13.539-12.288-6.5809-5.0231-12.957-10.938-13.583-12.599-0.5479-1.4552-7.3128-4.1094-7.3128-2.8692 0 0.95519 6.3037 6.8314 11.547 10.764 3.7821 2.8366 9.681 8.7674 15.467 15.55 0.67783 0.79463 4.7911 5.1792 9.1406 9.7434 4.3495 4.5643 7.9082 8.7565 7.9082 9.316 0 1.1381-4.1813-2.5696-9.2838-8.2324-3.9641-4.3993-3.7552-4.1912-23.3-23.21-8.3457-8.1211-15.718-14.766-16.382-14.766-0.66435 0-1.6988-0.78606-2.2988-1.7468-1.1089-1.7757-4.9851-3.3631-4.9851-2.0415 0 0.39798 3.1284 3.3113 6.952 6.4741s8.3418 7.5437 10.041 9.7355c1.6988 2.1918 5.2149 6.0481 7.8137 8.5697 3.054 2.9632 4.2873 4.7393 3.4872 5.022-0.68079 0.24053-3.423-1.8466-6.0938-4.6381s-10.092-10.008-16.493-16.038c-6.4002-6.0292-11.041-10.973-10.312-10.986 1.8036-0.0328-6.2203-4.0157-10.863-5.3922-17.347-5.143-17.235-5.1214-15.978-3.0861 0.33904 0.54857 2.2797 1.2634 4.3126 1.5884 2.968 0.47461 3.6962 0.98639 3.6962 2.5978 0 1.1348 1.0155 2.623 2.3371 3.4249 5.7461 3.4865 36.824 33.627 44.419 43.079 1.8644 2.3203 6.9781 8.3484 11.364 13.396 4.3856 5.0473 9.2395 10.993 10.786 13.212 1.5469 2.2193 4.1757 5.5836 5.8418 7.4764 1.6661 1.8927 3.6925 4.7237 4.503 6.291s2.295 3.671 3.2988 4.6748 1.8251 2.2752 1.8251 2.8252 1.1135 2.46 2.4745 4.2443 2.2047 3.514 1.875 3.8437c-0.32971 0.32972-0.71332 0.42371-0.85245 0.20887-3.9654-6.1232-8.0835-11.856-10.227-14.236-1.5002-1.6661-3.5214-4.5332-4.4917-6.3714-0.97031-1.8382-2.9586-4.6207-4.4184-6.1835-1.4598-1.5627-3.9029-4.6994-5.4291-6.9704s-6.8457-8.3478-11.821-13.504c-4.9754-5.1562-10.474-10.962-12.218-12.902-18.582-20.659-44.073-42.613-53.142-45.769-5.2748-1.8356-4.322-0.32295 2.7635 4.3875 10.671 7.0939 27.514 21.904 38.814 34.127 11.381 12.311 17.912 19.724 21.296 24.168 2.0727 2.722 5.3961 6.7296 7.3854 8.9058 1.9892 2.1762 3.6168 4.2827 3.6168 4.6812 0 0.39846 1.6139 2.508 3.5865 4.6879 5.9047 6.5252 7.9376 10.057 5.7885 10.057-0.51563 0-0.9375-0.62309-0.9375-1.3846s-1.0259-2.0568-2.2798-2.8784c-2.2577-1.4793-12.301-14.178-13.326-16.85-0.29272-0.76283-1.039-1.387-1.6583-1.387s-2.3672-1.7049-3.8841-3.7887c-6.5973-9.0629-31.054-34.114-42.065-43.086-3.4801-2.8359-8.6028-7.0547-11.384-9.375-8.8899-7.4173-11.114-9.0758-14.466-10.789-1.8047-0.9222-4.5469-2.6065-6.0938-3.7429s-3.5983-2.3445-4.5587-2.6846c-1.3234-0.46873-1.4975-0.91822-0.71894-1.8563 1.0317-1.2431-7.8942-4.162-9.0852-2.971-0.79599 0.79601 3.7782 5.1684 5.407 5.1684 2.1285 0 11.215 6.0958 14.767 9.9075 1.6495 1.7696 3.5479 3.2216 4.2188 3.2266 4.1264 0.0308 53.268 47.988 58.259 56.855 2.3541 4.1824-1.7365 0.71262-16.395-13.908-8.9477-8.924-21.331-20.819-27.519-26.434-6.1875-5.6145-12.938-11.761-15-13.66-3.8205-3.5166-11.574-8.0074-12.4-7.1818-0.40275 0.40274 0.90168 1.7774 6.3844 6.7284 0.81669 0.73748 1.9462 1.3409 2.5101 1.3409 0.56385 0 1.9161 1.1326 3.005 2.517 1.0889 1.3843 3.2527 3.291 4.8083 4.2371 1.5557 0.94605 4.6655 3.6103 6.9108 5.9205s4.337 4.2004 4.6483 4.2004c0.87144 0 15.571 15.184 16.649 17.197 1.644 3.0719-0.95039 0.92919-11.891-9.8207-10.233-10.055-16.915-15.814-18.347-15.814-0.40998 0-1.0132-0.84375-1.3405-1.875s-1.0383-1.875-1.58-1.875c-0.54172 0-2.3544-1.1602-4.0283-2.5781-2.841-2.4067-4.5601-3.7642-10.984-8.6739-2.6122-1.9963-16.852-9.373-18.093-9.373-1.4478 0 1.8381 2.97 4.6114 4.1682 1.5879 0.68604 5.275 3.4038 8.1936 6.0396s5.7152 4.7923 6.2147 4.7923c3.0705 0 42.385 34.987 42.385 37.72 0 2.0043-2.7981-0.0367-10.262-7.4854-9.5264-9.507-18.296-17.223-21.535-18.948-1.8804-1.0016-8.9264-6.4396-13.498-10.417-0.6112-0.53183-3.7812-2.7378-7.0445-4.9022-16.369-10.857-26.193-16.576-30.864-17.965-4.5006-1.3392-1.7203 1.1251 6.8386 6.0612 13.173 7.5971 18.394 10.843 21.373 13.284 1.4655 1.2015 3.844 3.0282 5.2855 4.0595 5.4898 3.9274 24.394 20.244 24.394 21.055 0 0.46734 0.73828 1.0972 1.6406 1.3997 1.9084 0.63973 11.847 10.134 18.285 17.468 2.4512 2.7923 5.5156 6.1938 6.8099 7.559 1.2942 1.3651 4.1403 4.7401 6.3245 7.5 2.1843 2.7599 5.8698 7.0663 8.1901 9.5698 3.9982 4.3138 8.4759 10.136 13.453 17.493 1.2261 1.8123 2.8962 3.8486 3.7115 4.5252 2.3542 1.9538 7.4177 10.307 7.0026 11.553-0.20749 0.62247-2.1216-1.3724-4.2535-4.433-4.6999-6.7472-9.2166-12.551-16.532-21.241-3.0382-3.6095-6.8718-8.5656-8.5193-11.014-3.1148-4.6285-15.744-18.347-22.89-24.864-2.2666-2.0671-7.9778-7.5552-12.691-12.196-11.303-11.128-15.857-14.862-28.184-23.105-5.6701-3.792-11.358-7.8406-12.639-8.9968-1.2813-1.1562-7.3999-4.6855-13.597-7.8428-6.197-3.1574-13.081-6.9574-15.299-8.4447-2.2173-1.4872-4.2382-2.704-4.4911-2.704s-1.6028-0.80699-2.9999-1.7933c-1.4271-1.0075-5.0049-2.0575-8.1652-2.3963l-5.625-0.60297 3.75 1.8678c2.0625 1.0273 7.3359 3.5897 11.719 5.6942 8.3275 3.9987 11.85 5.9642 23.347 13.027 9.6339 5.9186 6.9143 5.9786-3.2922 0.0727-9.9052-5.7317-16.015-8.7921-22.465-11.253-4.9502-1.8884-17.32-8.9601-18.32-10.473-0.87505-1.3243-5.0502-0.42043-5.0502 1.0933 0 1.4302 4.4278 3.8921 20.593 11.45 5.6545 2.6438 11.35 5.5448 12.656 6.4468 1.3064 0.90197 5.2689 3.2729 8.8056 5.2687 17.491 9.8705 42.44 28.458 44.139 32.883 0.88991 2.319-20.157-12.978-25.948-18.859-1.4783-1.5013-4.6697-3.7073-7.092-4.9022s-5.2432-2.7087-6.2687-3.3641c-8.4032-5.3705-14.722-9.0142-18.292-10.548-2.3203-0.99702-7.3329-3.6756-11.139-5.9523-7.0783-4.234-18.068-9.5349-19.767-9.5349-3.4987 0-5.6872 4.876-3.3484 7.4604 1.2299 1.359 1.1097 1.5107-1.1719 1.4801-1.9108-0.0257-2.4738 0.37332-2.2668 1.6064 0.15151 0.90235-0.27499 1.6406-0.94779 1.6406s-2.2733 1.3154-3.5567 2.9231-3.2827 4.0944-4.4428 5.526c-2.8279 3.4895-2.687 4.7366 0.46875 4.1489 7.9247-1.4758 30.863-1.9801 34.337-0.75481 7.8473 2.7684 9.6736 0.99616 2.3283-2.2593-2.6493-1.1742-4.5755-2.3764-4.2803-2.6716 1.0107-1.0107 7.6918 1.7461 10.506 4.335 1.5469 1.423 5.6871 3.5257 9.2005 4.6727 6.4939 2.1199 9.1469 1.8806 5.8532-0.52782-1.0001-0.73128-1.5916-1.3296-1.3144-1.3296 1.1635 0 6.3085 2.9585 7.3706 4.2382 0.63302 0.76274 1.7453 1.3868 2.4718 1.3868 0.72648 0 1.5604 0.62408 1.8531 1.3869 0.29269 0.76277 2.3146 2.277 4.493 3.365s7.175 4.6826 11.103 7.9882c3.9284 3.3055 7.694 6.0133 8.3682 6.0173 1.0014 6e-3 7.2465 5.0126 16.694 13.384 4.2934 3.804 25.591 27.02 27.707 30.203 1.3713 2.0625 4.6057 6.1979 7.1877 9.1898s4.5 5.6342 4.2623 5.872c-0.4926 0.4926-17.487-17.5-20.905-22.133-4.1172-5.5806-15.771-17.244-16.136-16.15-0.19764 0.5929 3.7807 5.7854 8.8408 11.539 5.0601 5.7534 9.3299 11.224 9.4884 12.158 0.15858 0.93321 2.1625 3.2943 4.4531 5.2468 2.2906 1.9526 4.1648 4.2866 4.1648 5.1868s0.43897 1.908 0.97549 2.2396c0.53652 0.33159 2.0184 2.2549 3.293 4.2741 1.4844 2.3514 3.0189 3.6712 4.2685 3.6712 1.1393 0 2.148 0.75313 2.4244 1.8102 0.26035 0.99558 1.0646 2.037 1.7872 2.3143 0.72263 0.2773 1.3139 1.3671 1.3139 2.4218s1.793 4.1874 3.9844 6.9616 5.0391 6.8526 6.3281 9.0633c1.2891 2.2107 3.5299 5.3992 4.9796 7.0855s3.5777 4.9265 4.7289 7.2003c3.1452 6.2126 10.366 16.824 10.722 15.757 0.17175-0.51524-0.30319-1.9117-1.0554-3.1033-0.75223-1.1916-1.6633-3.1545-2.0246-4.362-0.97528-3.2596-16.495-29.157-17.493-29.19-0.33579-0.0113-1.4727-1.3915-2.5265-3.0673s-3.1887-4.7344-4.7443-6.7969c-3.9474-5.2339-5.9319-8.9062-4.8127-8.9062 2.045 0 15.926 19.454 25.084 35.156 0.60149 1.0312 3.1923 5.4609 5.7574 9.8438 6.6809 11.415 21.696 42.16 21.696 44.425 0 2.7191-1.7611 0.68201-5.5814-6.456-1.6558-3.0938-3.421-6.0469-3.9228-6.5625-1.2576-1.2923-0.16012 4.6743 1.4428 7.8442 0.68649 1.3576 1.7814 4.1558 2.4332 6.2183 2.1781 6.8925 3.1578 7.2975 8.5052 3.5156zm-6.098-25.272c-0.50876-1.3361-0.40108-1.4438 0.52481-0.52481 0.64071 0.63594 0.92876 1.3924 0.64011 1.6811-0.28865 0.28864-0.81286-0.23167-1.1649-1.1562zm-2.7891-4.7279c-0.37334-1.1602-1.0602-2.1094-1.5265-2.1094-0.95998 0-8.4122-15.165-8.3801-17.054 0.036-2.1196 3.5877 3.1512 7.5561 11.213 2.0991 4.2645 3.6394 8.2723 3.4229 8.9062-0.21649 0.63397-0.69907 0.20346-1.0724-0.9567zm5.0262-5.9502c-1.0777-2.1125-1.7418-4.0585-1.4758-4.3245 0.60537-0.60537 4.3264 5.4029 4.3312 6.9935 7e-3 2.0655-0.84666 1.2684-2.8553-2.669zm6.6855-0.84665c-2.8402-5.3356-11.83-20.482-14.751-24.852-3.0391-4.5473-3.8952-7.0231-2.4283-7.0231 0.7175 0 4.1839 5.388 8.444 13.125 1.2776 2.3203 3.603 6.5391 5.1675 9.375s3.4489 5.8631 4.1875 6.7271 1.182 2.3405 0.98538 3.2812c-0.30842 1.4753-0.52903 1.3883-1.6052-0.63337zm6.4859-3.3366c0-0.80387 0.42187-1.2008 0.9375-0.88217 0.51562 0.31867 0.9375 0.97639 0.9375 1.4616s-0.42188 0.88217-0.9375 0.88217c-0.51563 0-0.9375-0.65771-0.9375-1.4616zm-18.113-5.6132c-2.2024-4.6184-1.8925-5.4043 0.40995-1.0398 1.0457 1.9823 1.7355 3.7699 1.5328 3.9726-0.20269 0.20268-1.0769-1.1171-1.9428-2.9328zm14.784-0.65956c-0.35355-1.1602-1.1829-2.7422-1.843-3.5156-1.1468-1.3437-2.5634-3.7254-7.8064-13.125-1.2942-2.3203-4.177-6.6492-6.4061-9.6198-2.2292-2.9706-4.053-5.6856-4.053-6.0333 0-0.34772-0.79611-1.5032-1.7691-2.5676-2.609-2.8543-8.3019-13.432-6.4116-11.913 1.7477 1.4042 15.681 22.001 15.681 23.18 0 0.40651 0.81501 1.61 1.8111 2.6745 2.518 2.6908 13.189 20.346 13.189 21.821 0 2.0005-1.7027 1.3586-2.3915-0.90159zm8.6415 0.54688c-0.34375-0.34375-0.625-1.0609-0.625-1.5938 0-0.58744 0.43666-0.53209 1.1094 0.14062 0.61016 0.61016 0.89141 1.3274 0.625 1.5938-0.2664 0.26641-0.76562 0.20313-1.1094-0.14062zm-38.594-10.833c-4.8578-7.2112-6.3036-9.9441-5.9005-11.153 0.36035-1.081 4.9736 5.7605 8.1963 12.155 2.9373 5.8284 2.0421 5.4379-2.2958-1.0016zm32.578 1.5761c-1.6758-1.7546-3.0471-3.7295-3.0474-4.3887-9.4e-4 -2.3556-7.1414-13.087-16.919-25.426-5.8382-7.3683-9.2026-13.244-8.173-14.274 0.8376-0.8376 9.2166 10.536 16.183 21.967 0.51433 0.84392 1.8854 2.8774 3.0469 4.5187 1.1614 1.6414 2.1117 3.3892 2.1117 3.8841s0.57188 1.1192 1.2708 1.3874c1.2689 0.48694 6.5088 9.1105 8.1355 13.389 1.067 2.8063 1.0899 2.8156-2.6095-1.0578zm-23.445-0.66533c-1.0864-1.1602-2.8478-4.0078-3.9142-6.3281s-3.8063-6.5391-6.0886-9.375c-4.1821-5.1965-5.7859-8.4375-4.1753-8.4375 0.48005 0 2.0226 1.947 3.4279 4.3266s3.8021 6.071 5.3263 8.2031c2.4742 3.461 8.1697 13.72 7.6169 13.72-0.11968 0-1.1065-0.94922-2.1929-2.1094zm30.813-0.55949c-1.0875-1.5273-1.9773-3.1944-1.9773-3.7048s-1.256-2.2725-2.791-3.9158-4.0991-5.5618-5.6978-8.7078c-2.8729-5.6535-3.7972-7.057-13.111-19.909-5.2921-7.3027-11.213-16.212-11.213-16.872 0-0.80624 7.2263 7.4881 9.4756 10.876 1.2338 1.8584 3.47 5.2334 4.9694 7.5 6.5768 9.942 8.5653 12.752 11.179 15.797 1.529 1.7812 3.799 5.4645 5.0446 8.1852s2.6657 5.1946 3.1559 5.4975c1.0635 0.65727 3.8638 7.1091 3.3211 7.6518-0.20833 0.20832-1.2686-0.8708-2.3561-2.398zm18.722-0.70986c-0.0407-0.56923-1.1287-2.173-2.4178-3.5639-2.4014-2.5911-2.9986-4.3073-1.4989-4.3073 1.2183 0 4.9381 6.6034 4.4239 7.8532-0.30742 0.74718-0.45474 0.75242-0.50725 0.018zm-10.762-2.8088c-0.33365-0.86948-0.3957-1.7918-0.13789-2.0496 0.25782-0.25781 0.74174 0.24264 1.0754 1.1121 0.33365 0.86947 0.3957 1.7918 0.13789 2.0496s-0.74174-0.24265-1.0754-1.1121zm2.714-9.1414c-0.51299-0.69651-2.3038-3.0801-3.9796-5.2969-3.822-5.0559-3.9438-7.2281-0.15772-2.8117 3.3448 3.9016 6.6996 9.375 5.7463 9.375-0.37196 0-1.096-0.56987-1.609-1.2664zm-58.901-1.2336c-0.34375-0.34375-0.61217-1.293-0.59649-2.1094 0.0234-1.219 0.20635-1.1785 1.0234 0.22657 1.0095 1.736 0.71682 3.0266-0.42694 1.8828zm72.514-3.7564c-1.7708-2.4887-3.5953-4.6796-4.0543-4.8686-0.45901-0.18908-1.7484-2.3161-2.8652-4.7267s-2.5462-4.9981-3.1762-5.75c-2.9585-3.5304-11.209-14.26-12.887-16.759-3.1777-4.7331-12.655-16.152-19.139-23.061-8.9811-9.5688-17.946-20.4-17.365-20.981 0.80364-0.80363 18.162 17.88 19.644 21.144 0.73941 1.6283 2.6001 3.9486 4.1348 5.1562 1.5348 1.2076 4.746 4.727 7.1361 7.8207 2.3901 3.0938 5.7635 7.1648 7.4964 9.0467s4.5163 5.6788 6.1852 8.4375c1.669 2.7587 4.5536 6.9143 6.4102 9.2346 3.2143 4.0171 6.8859 9.2221 10.657 15.107 3.0287 4.7271 1.1664 4.8971-2.1768 0.19871zm-58.139 1.1001c-0.66258-0.79836-0.99375-1.6625-0.73594-1.9203 0.25782-0.25781 1.0109 0.18445 1.6734 0.98281s0.99375 1.6625 0.73594 1.9203c-0.25782 0.25781-1.0109-0.18445-1.6734-0.98281zm46.846-4.5026c-1.7889-2.6798-3.572-5.014-3.9623-5.1871-1.3558-0.60118-15.602-22.496-15.655-24.06-0.0521-1.5359 4.3962 4.2325 8.5882 11.137 2.1536 3.547 4.6556 7.3439 5.56 8.4375 0.90436 1.0936 2.9183 3.5036 4.4755 5.3555 2.6111 3.1054 5.2173 8.2195 4.5359 8.9009-0.15909 0.15909-1.7529-1.9033-3.5419-4.5831zm-14.78 2.1162c-0.62938-1.0078-0.76402-1.8324-0.29918-1.8324 0.84166 0 2.2912 2.8171 1.7354 3.3728-0.16056 0.16056-0.80688-0.53263-1.4363-1.5404zm29.602-7.1789c-4.5058-6.2457-5.2414-7.6944-2.8381-5.5888 2.6278 2.3022 7.2003 8.9682 6.5783 9.5902-0.2727 0.27271-1.9558-1.5279-3.7402-4.0014zm-83.067 1.3018c-1.1211-1.1934-2.0384-2.6528-2.0384-3.2431s-1.0747-2.2506-2.3883-3.6896-3.4658-4.3038-4.7827-6.3663l-2.3944-3.75 3.8452 3.7059c2.1148 2.0382 3.8452 4.2014 3.8452 4.8071 0 0.60566 0.60519 1.6035 1.3449 2.2174 1.2468 1.0347 5.547 8.4884 4.8972 8.4884-0.15966 0-1.2076-0.97641-2.3287-2.1698zm48.587-1.1114c-0.66258-0.79836-0.99375-1.6625-0.73594-1.9203 0.25782-0.25781 1.0109 0.18445 1.6734 0.98281s0.99375 1.6625 0.73594 1.9203c-0.25782 0.25781-1.0109-0.18445-1.6734-0.98281zm-44.352-3.5156c-3.0292-3.7399-6.2733-9.2211-6.2733-10.599 0-0.98709 5.6185 5.308 7.0967 7.9513 0.74241 1.3276 2.0321 3.363 2.8659 4.5231 2.7238 3.7897-0.37785 2.2134-3.6893-1.875zm87.108 2.5014c-1.0249-2.6708-0.53819-3.7114 0.86701-1.8535 0.75704 1.0009 1.3764 2.161 1.3764 2.5781 0 1.3419-1.6556 0.80716-2.2434-0.72461zm23.337-5.0796c-0.31867-0.51563-0.13264-0.9375 0.41342-0.9375 0.54605 0 0.99283 0.42187 0.99283 0.9375 0 0.51562-0.18604 0.9375-0.41342 0.9375s-0.67416-0.42188-0.99283-0.9375zm-71.738-2.3664c-0.65223-0.7859-0.94901-1.6658-0.65949-1.9553 0.28951-0.28952 0.99728 0.3535 1.5728 1.4289 1.228 2.2945 0.77212 2.5572-0.91334 0.52639zm33.769-0.91484c-0.6727-0.81055-0.76382-1.4062-0.21509-1.4062 0.52359 0 1.1948 0.63281 1.4916 1.4062 0.29679 0.77344 0.39358 1.4062 0.21509 1.4062s-0.84972-0.63281-1.4916-1.4062zm32.782-2.8618c-1.1321-1.8318-1.8518-3.5371-1.5994-3.7896 0.56023-0.56023 5.3798 5.043 5.3798 6.2546 0 1.886-1.8281 0.69408-3.7805-2.465zm-8.6414 0.41318c-0.90234-0.50918-1.6406-1.5368-1.6406-2.2836s-1.7145-3.1516-3.81-5.344c-4.0571-4.2447-7.1099-9.1425-5.6985-9.1425 0.46864 0 2.2724 1.9399 4.0084 4.311s4.5664 5.9457 6.2897 7.9437c3.2956 3.8208 3.733 6.1417 0.85102 4.5154zm-87.46-1.8325c-1.009-1.6326 0.14018-1.9784 1.426-0.42904 0.73946 0.89099 0.81059 1.4289 0.18893 1.4289-0.54833 0-1.275-0.44994-1.6149-0.99987zm68.007-0.40638c-0.66258-0.79836-0.99375-1.6625-0.73594-1.9203 0.25782-0.25781 1.0109 0.18445 1.6734 0.98281s0.99375 1.6625 0.73594 1.9203c-0.25782 0.25781-1.0109-0.18445-1.6734-0.98281zm-94.453-2.9646c-1.341-0.54112-1.5931-2.1916-0.33467-2.1916 0.46046 0 1.08 0.63281 1.3768 1.4062 0.29679 0.77344 0.44739 1.3729 0.33468 1.3322-0.11273-0.0407-0.7323-0.2868-1.3768-0.54687zm23.739-0.85233c-1.6212-1.6212-2.0233-3.6649-0.54076-2.7486 1.0492 0.64845 3.1218 4.2219 2.4487 4.2219-0.23912 0-1.0977-0.66294-1.908-1.4732zm-18.205-2.5132c-1.1492-1.8595-2.4052-3.5162-2.791-3.6816-1.154-0.49462-5.0944-6.4651-4.5958-6.9636 0.25368-0.25368 1.4599 0.8408 2.6804 2.4322s3.4168 4.3474 4.8806 6.1245 2.4936 3.7347 2.2884 4.3503c-0.20518 0.61553-1.3134-0.40226-2.4626-2.2618zm110.35-0.46666c-4.3567-4.6008-8.6798-10.481-8.1184-11.042 0.61866-0.61865 12.942 12.264 12.942 13.529 0 1.8352-1.4278 1.099-4.8236-2.487zm-34.408 0.17465c-0.62551-1.3728-0.6922-2.1545-0.15553-1.8228 1.3759 0.85036 3.0299 4.2263 2.0706 4.2263-0.451 0-1.3128-1.0816-1.9151-2.4035zm16.14-0.65744c-3.3473-3.6158-5.6619-8.3716-3.7097-7.6225 1.4004 0.53738 7.5377 9.635 6.9179 10.255-0.2203 0.2203-1.664-0.96422-3.2082-2.6323zm-101.41 0.06092c-1.3555-1.3555-1.4621-2.625-0.22048-2.625 0.49748 0 1.3561 0.84375 1.908 1.875 1.1051 2.065 0.0821 2.5196-1.6875 0.75zm133.05-4.101c-2.7753-2.8329-4.8688-5.3279-4.6523-5.5444 0.52829-0.5283 10.167 8.9034 10.167 9.9486 0 1.2146-0.0468 1.1773-5.5148-4.4042zm-109.96 1.7104c-0.76729-0.90234-2.3425-3.1172-3.5004-4.9219l-2.1053-3.2812 2.9517 3.2812c2.8623 3.1818 5.1318 6.5625 4.4056 6.5625-0.19604 0-0.98422-0.73828-1.7515-1.6406zm7.5817-0.0406c-2.2272-2.6012-2.9153-3.9438-2.0213-3.9438 0.44909 0 1.7522 1.2656 2.8959 2.8125 2.2283 3.014 1.5209 3.929-0.87458 1.1313zm58.317-2.6146c-2.4556-3.1218-2.7922-5.9813-0.47796-4.0606 1.5759 1.3078 3.5153 5.5247 2.8479 6.1921-0.21345 0.21346-1.2799-0.7457-2.37-2.1314zm-10.805-3.2761c-2.9745-3.535-3.2517-5.7902-0.31771-2.585 3.8175 4.1705 4.6995 5.4694 3.7138 5.4694-0.53292 0-2.0611-1.298-3.396-2.8844zm-18.691-1.4902c-0.95302-1.2738-1.5141-2.5347-1.2468-2.802 0.26729-0.26728 1.2096 0.61848 2.0941 1.9684 2.086 3.1836 1.409 3.8496-0.84734 0.83366zm-67.486-3.2e-4c-0.34375-0.34375-0.625-1.0609-0.625-1.5938 0-0.58744 0.43666-0.53209 1.1094 0.14062 0.61016 0.61016 0.89141 1.3274 0.625 1.5938-0.2664 0.26641-0.76562 0.20313-1.1094-0.14062zm131.47-2.7644c-1.0874-1.3102-1.0185-1.4682 0.51065-1.1719 0.9721 0.18838 1.943 0.86985 2.1577 1.5144 0.55683 1.6724-1.1812 1.4493-2.6683-0.3425zm-93.984-1.1376c-2.0866-2.3057-2.1618-4.6466-0.0941-2.9306 1.8972 1.5746 3.5305 4.645 2.4708 4.645-0.45385 0-1.5234-0.7715-2.3767-1.7144zm52.648-0.85794c-2.7127-3.1582-2.8708-4.4394-0.23553-1.9092 1.4605 1.4023 2.4292 2.776 2.1526 3.0526s-1.1393-0.23796-1.9171-1.1435zm23.379-1.7135c-3.6589-3.468-4.0964-4.1516-2.6569-4.1516 0.4723 0 2.1952 1.6875 3.8288 3.75 3.657 4.6174 3.3772 4.7132-1.1719 0.40158zm-17.344-1.0223c-1.6758-1.8827-3.0317-3.8844-3.0132-4.4481 0.0349-1.0605 4.0421 3.3496 5.6706 6.2407 1.3788 2.4478 0.72325 2.0056-2.6574-1.7926zm-106.04-3.8324c-5.9398-6.7478-5.4952-6.2993-15.599-15.737-5.4791-5.1176-7.8511-7.8903-6.7652-7.908 1.7146-0.0278 18.932 16.694 25.344 24.615 5.0732 6.2671 2.7157 5.4994-2.9791-0.97016zm27.36 2.3438c-2.5503-2.8329-3.4094-4.4531-2.3611-4.4531 1.0938 0 5.8082 4.6694 5.8082 5.7528 0 1.4314-1.4964 0.8672-3.4471-1.2997zm-17.916-1.346c-3.0393-3.4122-4.858-6.8848-2.6529-5.0654 1.9954 1.6463 5.5923 6.632 5.1231 7.1012-0.1911 0.19108-1.3027-0.725-2.4702-2.0357zm77.482 0.87721c-3.4746-4.1947-3.6985-5.1045-0.53143-2.1598 1.9112 1.7769 3.4748 3.359 3.4748 3.5156 0 0.87424-1.7725 0.0578-2.9434-1.3558zm-20.53-3.75c-1.7896-2.5168-2.3815-3.8416-1.3612-3.0469 2.421 1.8858 6.0184 5.9238 6.0552 6.7969 0.0764 1.8134-1.8092 0.30703-4.694-3.75zm22.222-3.892c-5.564-5.7633-7.4064-8.5299-5.6806-8.5299 0.31251 0 1.466 1.1602 2.5634 2.5781 1.0973 1.418 3.8586 4.5885 6.1361 7.0457 6.5292 7.0442 3.9277 6.1016-3.0189-1.0939zm-67.198 1.1714c-2.3909-1.452-7.9985-8.566-7.3015-9.263 0.40384-0.40385 4.2876 3.1452 8.1432 7.4414 2.6896 2.997 2.3399 3.7537-0.84175 1.8215zm6.2622-1.8885c-1.9463-1.8905-3.9872-4.3162-4.5353-5.3906-0.54807-1.0744 1.3731 0.35247 4.2692 3.1708 2.8962 2.8183 5.2657 5.2441 5.2657 5.3906 0 1.0186-1.9779-0.23572-4.9997-3.1708zm70.625 1.0934c-1.211-1.2891-1.8119-2.3305-1.3353-2.3143 0.80161 0.0273 4.6651 4.658 3.8862 4.658-0.19201 0-1.3399-1.0547-2.5509-2.3438zm-40.249-5.8402c-9.8652-11.14-29.473-30.305-31.535-30.822-1.3043-0.32737-2.2785-1.2589-2.2785-2.1788 0-1.6789-8.5321-9.6107-16.172-15.034-7.5698-5.3736-4.7489-6.1531 3.9844-1.101 4.0087 2.319 18.963 16.029 26.175 23.997 1.8461 2.0397 4.7811 5.2038 6.5223 7.0312 1.7412 1.8275 4.1739 4.8305 5.4061 6.6735 1.2322 1.8429 3.3993 4.2076 4.8158 5.2549 2.8444 2.1029 8.2572 9.437 7.5137 10.181-0.25903 0.25901-2.2532-1.5416-4.4315-4.0014zm-65.491-4.8005c-7.5151-7.2205-10.024-10.453-8.1116-10.453 0.89975 0 8.8373 7.7225 13.731 13.359 6.8898 7.9355 4.2359 6.563-5.6197-2.9063zm26.99 0.74165c0-0.54606 0.42187-0.7321 0.9375-0.41342 0.51562 0.31868 0.9375 0.76545 0.9375 0.99283s-0.42188 0.41342-0.9375 0.41342c-0.51563 0-0.9375-0.44678-0.9375-0.99283zm-42.788-15.411c-2.5055-1.8031-5.6102-4.0158-6.8992-4.9171s-3.1459-2.6323-4.1262-3.8467c-1.67-2.0686-3.6521-3.6705-14.858-12.008-2.4492-1.8223-4.4531-3.656-4.4531-4.075 0-1.2596 3.5139 0.0604 5.2408 1.9686 0.88675 0.97985 2.0189 1.7815 2.5158 1.7815 0.92868 0 9.2456 6.3357 16.057 12.232 2.1132 1.8293 4.9615 4.0271 6.3296 4.884 2.7585 1.7278 7.0618 7.2587 5.6477 7.2587-0.49444 0-2.9489-1.4753-5.4545-3.2784zm-100.18-33.284c-0.73329-1.1865 0.50778-1.1865 2.3438 0 1.2119 0.78319 1.1872 0.91077-0.17904 0.92315-0.87192 8e-3 -1.846-0.40753-2.1647-0.92315zm9.1406-0.079c-2.6191-0.99085-2.8054-2.7399-0.21976-2.0638 1.816 0.47488 3.3406 1.9463 2.6574 2.5647-0.18055 0.16341-1.2775-0.062-2.4376-0.50091zm17.29-2.4991c-7.6508-3.7343-9.5347-5.5091-3.696-3.482 3.6607 1.271 12.422 5.9323 12.422 6.609 0 0.88643-1.8931 0.20803-8.7259-3.127zm-17.046-2.8368c-1.542-0.80631-2.3089-1.6309-1.7042-1.8325 1.0922-0.36407 6.8515 2.202 6.8515 3.0527 0 0.81184-2.3072 0.2649-5.1473-1.2202zm-0.14735-5.8288c-3.3156-1.3378-3.6359-2.8931-0.36069-1.7514 1.5655 0.54573 3.0814 1.3726 3.3687 1.8374 0.63329 1.0247-0.32287 0.99735-3.008-0.0861zm278.58 90.805c-0.2812-0.73282-2.8139-3.1698-5.6283-5.4155-2.8143-2.2457-5.9602-5.5124-6.9909-7.2592s-3.3594-4.0525-5.175-5.1238c-1.8156-1.0712-3.3011-2.2988-3.3011-2.728 0-1.1682-20.118-18.385-26.108-22.343-1.8827-1.244-4.2668-3.0364-5.298-3.983-3.8005-3.4885-8.4951-7.1514-10.548-8.2296-1.8234-0.95777-6.0632-4.0387-22.65-16.459-1.7588-1.317-3.712-2.3946-4.3403-2.3946-0.62836 0-3.4934-1.793-6.3669-3.9844-2.8734-2.1914-7.3864-5.25-10.029-6.7969-2.6424-1.5469-6.143-3.7448-7.779-4.8842-1.6361-1.1395-4.6622-2.9933-6.7247-4.1196-2.0625-1.1264-5.0156-3.0078-6.5625-4.181s-6.7122-3.8218-11.478-5.8858c-4.7663-2.064-9.7802-4.6292-11.142-5.7004s-2.903-1.9477-3.4248-1.9477c-1.6954 0-23.633-10.161-29.284-13.564-3.024-1.821-5.8759-3.3108-6.3376-3.3108-0.46168 0-2.5959-1.1959-4.7427-2.6576s-6.9471-4.6193-10.667-7.017c-13.19-8.5006-20.313-16.277-31.765-34.683-10.201-16.393-17.167-21.794-36.387-28.213-10.811-3.6104-27.055-4.9433-30.041-2.4649-1.6562 1.3745-37.946 1.6057-44.105 0.28095-2.5781-0.55457-8.0625-1.6454-12.188-2.424-8.7866-1.6586-18.368-4.5312-26.25-7.8698-3.0938-1.3105-11.32-4.4032-18.281-6.8727s-17.93-6.4043-24.375-8.744c-10.38-3.768-19.824-6.3736-41.312-11.398-19.122-4.4712-94.828-6.6237-115.72-3.2902-9.5434 1.5228-25.776 4.755-36.094 7.1869-18.229 4.2967-17.84 4.1645-34.335 11.661-2.1263 0.96629-5.7122 2.173-7.9688 2.6816-4.614 1.04-14.884 6.3145-14.884 7.6442 0 1.097 1.4423 1.0978 5.0897 0.0028 1.5835-0.47539 6.465-1.7972 10.848-2.9373 4.3828-1.1401 10.5-2.8143 13.594-3.7204 6.7372-1.9732 19.534-4.3033 30.469-5.5478 4.3828-0.49883 13.664-1.5825 20.625-2.4082 9.3647-1.1108 17.776-1.3857 32.344-1.0569 18.901 0.42657 23.688 0.81959 48.75 4.0027 6.1875 0.78585 14.203 1.7686 17.812 2.1838 3.6094 0.41524 7.8281 1.2775 9.375 1.9161 1.5469 0.63862 5.3438 1.6916 8.4375 2.3399 21.631 4.5328 28.367 6.4653 40.852 11.72 16.864 7.0978 25.435 11.134 26.648 12.55 0.51562 0.60209 2.7326 1.7878 4.9265 2.635 4.0486 1.5633 13.924 7.2739 24.136 13.957 3.0938 2.0246 6.8906 4.28 8.4375 5.012 1.5469 0.73202 6.6094 4.7891 11.25 9.0156 4.6406 4.2266 11.787 10.691 15.882 14.366 4.0943 3.6746 9.5787 8.6121 12.188 10.972 14.108 12.763 20.159 17.233 26.57 19.633 2.7236 1.0193 5.8876 2.4547 7.0312 3.1898 3.5005 2.2499 21.823 8.0424 25.439 8.0424 1.8734 0 5.8215 0.8785 8.7735 1.9522 7.1827 2.6126 9.7418 3.2589 18.023 4.552 13.411 2.0941 29.564 4.8618 36.094 6.1843 3.6094 0.73108 9.5156 1.7972 13.125 2.369 26.302 4.1674 43.783 8.7658 63.325 16.658 24.96 10.081 29.504 12.025 37.291 15.961 3.9576 2.0001 9.7269 4.8416 12.821 6.3144 3.0938 1.4728 6.9304 3.6382 8.526 4.812s3.1966 2.1342 3.5578 2.1342c0.55672 0 17.233 9.87 38.016 22.5 2.9696 1.8047 9.3652 6.2554 14.212 9.8904s11.133 8.0445 13.969 9.7989 6.1694 4.1656 7.4077 5.3582c2.381 2.2933 3.2842 2.3446 2.4377 0.13848zm-192.33-35.056c-0.30229-0.78777-1.4492-1.8997-2.5487-2.471-1.8389-0.95548-1.817-0.84074 0.27371 1.4323 2.6143 2.8423 3.042 3.0376 2.275 1.0387zm-3.6103-45.997c-3.6073-3.0288-9.2933-6.0104-11.447-6.0024-1.231 5e-3 -0.92885 0.49697 1.1345 1.8488 3.271 2.143 5.65 3.7791 7.8246 5.3808 3.3208 2.4461 5.552 1.3455 2.488-1.2272zm14.531-5.023c0-0.87525-6.5495-2.8606-9.4369-2.8606-2.9553 0-1.367 1.4757 3.3658 3.1272 3.6094 1.2595 6.0711 1.1514 6.0711-0.26661zm-35.156-1.5636c-2.501-1.942-11.005-6.0736-11.494-5.5844-0.21317 0.21318 0.59823 0.98928 1.8031 1.7247 1.2049 0.73539 3.6673 2.2386 5.472 3.3404 3.9201 2.3933 7.1432 2.7901 4.2188 0.51935zm-0.46875-4.9376c0-0.45548-0.84375-1.0488-1.875-1.3185s-1.875-0.13888-1.875 0.29067c0 0.42954 0.73828 0.97392 1.6406 1.2097 0.90235 0.23581 1.7461 0.47769 1.875 0.5375 0.12891 0.0598 0.23438-0.26393 0.23438-0.71941zm-22.969-1.9843c-0.93327-1.0312-2.7916-1.8547-4.1297-1.83-2.3279 0.0431-2.2913 0.11959 0.84843 1.7735 4.3761 2.3052 5.3312 2.3217 3.2812 0.0564zm-110.89-18.516c1.3379-1.418 3.5942-4.6796 5.014-7.248s3.7791-6.3231 5.2429-8.3438c4.1504-5.7295 3.7101-6.861-5.9115-15.19-8.9699-7.7649-13.927-12.596-13.927-13.573 0-0.31795-1.0093-1.038-2.243-1.6001-1.2336-0.56208-5.136-3.4945-8.6719-6.5164-3.5359-3.022-8.4788-6.7431-10.984-8.2691-2.5054-1.5261-6.3023-3.9174-8.4375-5.3141s-6.2024-3.6798-9.0384-5.0737-6.2872-3.4688-7.6696-4.6111c-3.2475-2.6836-28.65-15.079-34.518-16.843-1.2891-0.38756-3.9562-1.5184-5.927-2.5129s-7.0333-2.5852-11.25-3.5348c-4.2167-0.94958-11.675-2.8476-16.573-4.2179-8.3387-2.3327-18.514-4.3675-37.5-7.4994-26.262-4.3321-57.112-5.1709-90.225-2.4532-13.728 1.1267-13.892 1.1533-33.994 5.5112-7.2188 1.565-16.045 3.4059-19.615 4.091-3.5693 0.68512-6.6716 1.7986-6.8939 2.4743-0.52491 1.5951 14.265 0.61117 20.28-1.3492 2.2461-0.73207 5.4102-1.2796 7.0312-1.2166 1.621 0.06292 6.2086-0.33734 10.195-0.88949 12.774-1.7695 41.38-2.2781 58.378-1.0379 8.7656 0.63956 17.836 1.2791 20.156 1.4211s7.8047 0.7544 12.188 1.3607 10.922 1.4593 14.531 1.8955c17.425 2.1058 40.339 7.383 54.844 12.63 3.8672 1.399 8.3114 2.86 9.876 3.2466s4.5178 1.6108 6.5625 2.7205c4.4249 2.4013 20.452 8.5457 24.108 9.2425 1.418 0.27024 2.5781 0.85676 2.5781 1.3034s1.582 1.6786 3.5156 2.7378 5.4141 3.1614 7.7344 4.6715 5.4844 3.3354 7.0312 4.0562c14.463 6.7389 35.854 30.627 42.859 47.862 5.7412 14.126 7.517 16.031 11.254 12.07zm117.82-68.273c0.66654-1.8433 1.0082-3.5551 0.75935-3.804-0.76847-0.76848-4.562 5.2087-3.9423 6.2115 1.0443 1.6897 1.9488 1.0055 3.1829-2.4075zm-0.7529-6.2579c1.9051-2.0811 3.0083-2.6947 3.4805-1.9358 0.45972 0.73878 1.2206 0.18902 2.2707-1.6406 1.7396-3.0312 1.2276-3.6877-0.86642-1.1111-1.1919 1.4666-1.273 1.2676-0.764-1.875 0.92465-5.7095-3.6677-2.4201-8.314 5.9553-0.97192 1.752-1.9396 2.708-2.1505 2.1245-0.21086-0.58348 0.95002-3.3223 2.5797-6.0863 3.4448-5.8424 4.8694-9.259 3.8606-9.259-0.3917 0-1.4598 1.2656-2.3736 2.8125s-2.0594 2.8125-2.5459 2.8125c-1.7079 0-0.85981-2.9224 1.5464-5.3286l2.4309-2.4308-2.6652-2.1803c-2.8419-2.3249-5.4618-2.8529-6.4247-1.295-1.0269 1.6616-2.1007 0.12274-1.6305-2.3367 0.33273-1.7406 0.0516-2.3661-1.0632-2.3661-0.83355 0-1.5155 0.42188-1.5155 0.9375s-0.42188 0.9375-0.9375 0.9375c-0.51563 0-0.9375-0.82396-0.9375-1.831 0-1.1723-1.1849-2.3933-3.2937-3.394l-3.2937-1.563-2.785 3.1596c-1.5318 1.7378-2.7918 3.476-2.8 3.8627-8e-3 0.38672-0.45463 0.70312-0.99199 0.70312s0.15191-1.9264 1.5317-4.2808c4.5262-7.7235 1.0418-6.1456-4.4636 2.0212-4.808 7.1324-5.1186 7.8846-3.2555 7.8846 1.1328 0 2.8918 0.55592 3.9089 1.2354 1.0171 0.67946 3.8614 1.9831 6.3208 2.8971 2.4594 0.91393 6.6233 3.2785 9.2531 5.2545 2.6825 2.0156 5.3852 3.3612 6.1565 3.0652 0.97391-0.37372 1.2829 0.0156 1.0594 1.3348-0.87672 5.1751 4.5851 6.3817 8.673 1.9161zm-6.626-17.132c0.65223-0.7859 1.379-1.2358 1.6149-0.99987 0.65015 0.65015-0.67082 2.4288-1.8038 2.4288-0.62166 0-0.55053-0.53792 0.18893-1.4289zm-31.176-3.0242c0.62067-1.418 2.3915-4.8724 3.9352-7.6765 4.4292-8.0455 2.4568-7.3556-3.0671 1.0727-1.9282 2.9421-3.9176 5.6037-4.4207 5.9147-1.5466 0.95582-1.0127 3.2672 0.75466 3.2672 0.92267 0 2.1743-1.1533 2.7979-2.5781zm-5.3616-2.8125c1.076-1.9336 2.9235-5.2031 4.1056-7.2656s1.9647-4.0797 1.7392-4.4826c-0.68679-1.2271-9.6379 11.626-9.6379 13.839 0 2.51 1.7786 1.5297 3.7932-2.0907zm0.7132-11.978c-0.28865-0.28864-0.81286 0.23167-1.1649 1.1562-0.50876 1.3361-0.40108 1.4438 0.52481 0.52481 0.64071-0.63594 0.92876-1.3924 0.64011-1.6811z"/>
</svg>
