<?xml version="1.0" encoding="utf-8"?>
<!-- Generator: Adobe Illustrator 23.0.1, SVG Export Plug-In . SVG Version: 6.00 Build 0)  -->
<svg version="1.1" id="Layer_1" xmlns="http://www.w3.org/2000/svg" xmlns:xlink="http://www.w3.org/1999/xlink" x="0px" y="0px"
	 viewBox="0 0 612 792" style="enable-background:new 0 0 612 792;" xml:space="preserve">
<style type="text/css">
	.st0{fill-rule:evenodd;clip-rule:evenodd;fill:#FFFFFF;}
	.st1{fill-rule:evenodd;clip-rule:evenodd;}
	.st2{fill:#373435;}
</style>
<path class="st0" d="M70.3,562l0.1-0.4c0.1-0.1,0.1-0.3,0.2-0.4c0.2-0.4,0.4-0.6,0.5-1c0.1-0.1,0.1-0.3,0.2-0.4
	C70.2,563.3,70.8,561.9,70.3,562z M78.2,537.9v-0.1v-1.1c0.4-0.8,0.5-1.7,0.5-2.6c0.1-0.4,0.3-0.8,0.4-1.3c0.1-0.1,0.1-0.3,0.2-0.4
	c0.1-0.2,0.2-0.4,0.3-0.6c0.2-0.1,0.4-0.4,0.5-0.6c0.6-0.6,1.2-1.2,1.5-2c0.3-0.3,0.6-0.6,0.9-0.9L78.2,537.9L78.2,537.9z"/>
<path class="st0" d="M552,471.5c-2.5-3.8,0.2-2.2-5.5-4.1c0.4,4-0.6,3.7,1.8,5C552.2,474.6,551.7,471.6,552,471.5z"/>
<path class="st0" d="M241.1,385.8c0-0.1,1.6-1.7,2-2.4c0.2-0.3,0.5-0.5,1.2-2.2l-5.3-0.6L241.1,385.8z"/>
<path class="st0" d="M278.9,639.5c2.4-3.9,2.8-1.9,0-6.4c-0.7,1.3-0.9,0.4-1.2,3.2C277.3,643.3,277.5,636.8,278.9,639.5z"/>
<path class="st0" d="M253.2,349.8c0.4-1.3,2.2,3.2,2.5-4l-3.3-0.4L253.2,349.8z"/>
<path class="st0" d="M266.5,581.5l1.1-4c-7.3,2.9-0.3-1.7-2.5,2.4C261.6,586.3,264.8,579.8,266.5,581.5z"/>
<path class="st0" d="M402.3,471.5l-2.8,4.8L402.3,471.5z"/>
<path class="st1" d="M348.1,636.5c0.4-1.9,0.9-3.8,1.7-5.5c2.3-8.7,8.5-15.9,16.6-19.5c1.7-0.9,31-8.6,32.4-8.6h9.6
	c4.4,0,8.5,0.9,12.2,2.7c2.7,0.4,5.3,1.1,7.8,2.2h5.1c3,0,5.8,0.4,8.4,1.2c2.4,0.1,4.8,0.5,7.1,1.2c16.8,0,31.8-4.8,44.2-17.7
	c2.7-2.8,1.9-7.8,8.6-16c0.6-2.7,1.7-5.2,3-7.6c0.3-0.6,0.6-1.3,0.9-1.9c0.6-2.3,1.5-4.5,2.7-6.5c1.6-3.6,3.9-6.8,6.8-9.5
	c2-2.2,4.4-4,7-5.5c1.9-1.4,4-2.7,6.1-3.7c0.7-0.4,1.5-0.8,2.3-1.2c0.2-0.1,0.4-0.3,0.6-0.4c0.4-0.9,0.8-1.7,1.3-2.5l0.1-0.3
	c0.5-3.8,1.7-7.3,3.5-10.5c0.7-1.7,1.6-3.2,2.6-4.7c0.6-1.7,1.3-3.3,2.2-4.9c1.3-2.9,13.4-20.7,15.9-23.4
	c7.5-15.8,5.5-11.7,5.5-29.4v-4.8c-0.8-2.7-1.8-7.8-0.8-10.6c0.4-1.9-1.3-3.2,1.4-6.1c3.9-4.1,7.8-5.4,11-10.4
	c5.4-8.3,5.5-11.5,6.8-21.1c1.4-10.5,1.9-21.5,2.5-32c0.6-9.9,1.2-19.2,1.4-29.1c0.2-14.9,0.6-22.4-2.7-37.3
	c-2.2-10.3-4.8-21.5-7.6-31.6c-7.4-26.4-19.7-39.5-35.1-60.7c-6-8.4-10.7-16.6-17.2-24.9c-7.6-9.6-13.5-16.9-22.3-25.6
	c-8.3-8.1-12.9-11.2-22.5-17.2c-6-3.8-11.5-6.6-17.5-10.7c-5.3-3.7-9.9-7.8-15.5-11.5c-8.3-5.5-16.3-9.6-24.9-14.5
	c-2.7-1.5-23.3-15.9-9.8-5.6c5.6,4.2,8.8,6.1,14.9,9.4c12,6.6,20.2,11.6,30.9,20.2c1,0.8,2,1.6,3.1,2.4c12.8,9,25.9,14.6,37.5,25.7
	c0.7,0.7,1.5,1.4,2.2,2.2c8.7,8.7,14.5,15.6,21.7,25.7c3.6,5,6.8,9.3,10,14.7l0.5,0.8c7.5,12.4,15.6,23.4,22.3,36.4
	c1.6,3,3.1,6,4.5,9.1c0.6,1.2,5.6,12.9,6,13c1.4,0.7-1.4-11,4.3,4.6c3,8.4,5.3,19.3,7.2,28.2c2,8.9,3.9,19.1,4.2,28.2
	c0.1,8.2-0.4,17.4-0.6,25.7c-0.2,7.1-0.9,13.7-1.5,20.7c-0.6,8.4-1.9,17.9-3.4,26.3c-1,5.8-2.4,11.3-5,16.6
	c-1.7,3.4-4.8,8.4-8.9,4.8l-0.5-0.4c-0.9-0.9-1.8-1.7-2.8-2.6c-2.7-2.3-5.2-4.3-7.6-6.8c-1.5-1.6-2.7-3-3.5-5.1
	c-0.5-1.4-0.6-2.5-0.3-4c-0.6-0.6-1.3-1.3-1.9-2c-1.2,5.5-0.8,8,3.1,12.4c3,3.2,6.9,6.8,10.2,9.9c1.8,1.9,2.3,2.6,4.9,3.3
	c1.2,0.4-1.1,0.9-3.2-0.1c-1-0.6-1.9-1.3-2.9-2c-6-4.2-12.7-8.2-20.4-6.8c-1.2,0.2,0,0.3,1.2,0.9c0.6,0.4-0.5,0.6-1.2,1.4
	c-0.6,0.7-1,1.6-1.4,2.5c-1.2,3.2-1.2,4.5-1.1,8c2.1,1.8,2,1.9,5.8,3.5c5.3,2.2,3.5,0,7.6,3.5c-2,2.2-0.5,1.1-3.5,3.1
	c-0.6,0.4-1.4,0.8-2,1.2c-0.3,0.1-0.9,0.5-1.2,0.6c-0.3,0.1-0.8,0.4-1.2,0.6l-6-6.6c1,6.2,0.4,0.8,2.7,6.2l1.5,5
	c2.1,6.5,1.6,4.4,6.9,8.5c-0.5,11.8-5.5,12.8-9.3,20.8c-1.9,4-0.7,4.3-2.3,8.1l-4.8,1.1c-5.3-6.3-10.6-30.2-16.1-33.9
	c-1.2,4,12,26.4,11.8,38.4c-13.2,0.3-5.3,1.1-11.9-14.8c-2.2-5.3-7.3-12.1-6.3-16.9c-3.5,2.4-3-1.7-2.4,3.6l5.8,13.5
	c1.9,5.7,5.6,13.8,5.9,18.8c-7.5,0.7-7.8-0.7-17.2,0.6c-1.6-1.7-3.2-3.3-4.8-5c-0.2-0.2-0.6-0.6-0.9-0.9c-18.7,3.8-11-1.4-22.7-14.5
	l3.2,12.5c-5.3-1.3-12.1-6.6-17.8-9.1c-7.1-3.1-11.7-3.5-19.1-3.2c-6.2,0.1-6-0.9-9.8-5c-2.2-2.5-0.6-2.7,2.2-3
	c12.1-1.2,22,0.2,23.6-15c0.3-5.3-0.4-6.9-3.5-11.3c-2.8-4-0.7-5.1,3.5-6.3c8.1-2.2,17.1-1.2,25.6-2.4c6.4-0.9,12.9-2.2,18.2-6
	c5.2-3.7-1.3-5.8-5-5.7c-1.7,0-4.9-0.9-7.1-1.1c-5.7-0.4-11,0.2-17.1-0.4c-9.9-0.9-8.4-0.3-16.8,3.2c-3.7,1.3-5,1.7-8.9,2
	c-11.2,1-13,14.1-28.1,9.8c-4.8-1.4-8-3.8-10.9-7.7c-1.7-2.3-4.8-7.9-7-9.1c-4.2-1.7-4.7,12.9-5.3,15.3c-0.4,2-1.1,3.4-1.9,5.2
	c-3.2,5.3-3.8-5.8-6.5-6.6l-0.6-0.1c-1.8,0.4-1.9,1.4-3.4-0.4c-0.6-1.3-1.2-3.9-1.5-5.3c3.7,0.1,5.5-1.9,7.8-4.5
	c6.2-7.1-1.3,2.4-7.4-0.9c-1.5-0.8-4-2.7-5.5-3.7c-6.8-3.7-2.3,2.7-6.1-4.5c3.1-1.2,4-0.9,5.3-1.6c0.4-0.1,0.8-0.4,1.2-0.6
	c5.6-0.5,9.2-0.9,14.8-2c-3-3-7.6-4-11.5-5.2c2.2-1.9-0.6-2.7,8.4-2.3l-4-6.6c7.6-1.6,12.8-4.4,12.8-13c-4.5,2.6-5,4.5-6.6,9.4
	l-10.9,1.5c0.2-17.5-6.9-17.9-6.4-37.3c-2.4-1.2,0.7,0.5-1.8-0.4c-4-1.8-2.4-0.5-2.1-3.1c0.2-2.2,2.1-1.9,4.2-2
	c3.6-0.1,4.5,0.5,7.8,1.6l-0.1-6.4c-4-0.2-6.2-0.1-10.2,0.6c0.8-14.3,3-24.2-5-37.2c-6-9.9-14.5-22.5-10-34.5
	c8.6-23.1,37.4-17.6,34.4-25c-7.8-19.3-20.3-3.6-33.1,13c-4.7,6.3-8.6,15.2-7.5,23.1c1.2,8.1,6,16.4,10.2,23.3l0.3,0.4
	c5.3,8.7,6.5,11.6,5.4,22c-0.6,6.1-2.5,9.2-5.9,14.2c-1.5,2.2-2.1,3.4-2.7,6c-6.1,2.2-15,6.4-21,2c-2.5-2.2-3.5-5.5-4.2-8.6
	c-0.9-4.2-0.9-8.6-0.8-12.9c0.2-5.4,0.2-7.1-1.9-11.4c-3.1-6.4-2.3-1.8-4.7-9.2c2.7-0.1,5.1-0.2,7.2-0.3c-4.3-3.6-7.6-8.4-9.2-14
	c-3.2-0.6-6.2-1.7-8.9-3.2c-0.8-0.4-1.6-0.8-2.4-1.2c-0.6-0.3-1.3-0.6-1.9-0.9c-4.2-1.2-8.9-3.7-12.8-5.8c-2.4-1-19.8-4.5-22.9-4.9
	c-7.3-0.9-15.6-1-23-1.2c-16.6-0.4-27.9,1.4-41.5,11.9c-5.7,4.4-13.5,8.8-16.7,15.4c-0.1,0.2-0.9,2.7-0.5,1.2
	c0.6-2.5-0.4,1.3-0.3,3.1c0.4-4-0.3,0.1,1.6-1.9c10.6-11.2,21-18.1,35.8-22.8c11.1-3.5,22.7-1.4,34-0.4c14,1,23.2,3.7,35.7,10.3
	c19.6,10.3,25.3,32.3,23.4,53c5.4,5.5,8.1,10.9,11.1,18.4l3,6.7c2.2,6,4.8,6.9,6.6,13.3c-8.6-2.7,0.2-2.2-8.5-3.2
	c-0.6,2.7-0.9,5.1-2,7.5c-2.3,4.8-1.4-0.5-3.5,6.8c2.2,1.8-1.3,1.8,5.9,2.4l-4.4,3.6l4.8,3.1c-10.4,9.8-0.7,8,1.2,22.2
	c9.9,3.7,3.7,3.4,15.5,2.6c9.6-0.6,8.6,2.8,11.5,9.3c-1.2,2.9-0.9,1.8-2.2,3.3c-2.4,3.1-0.9-0.7-2.2,3.1c2.1,1.7,2.4,1.2,7.3-0.6
	c0.6,7.3,1.5,5.3,5.5,9.3c4.3,4.4,1.4,1,0.9,3c-0.2,0.1-0.6,0.9-3.5,1.3l-16.8,2.3c-17.3,4.4-6.9,6-16.3,7.3
	c4.2,8.4-9.9,9.4-15.6,10.2c-0.9,5-1.6,5.3-3.8,8.9c2.7,4.5,1.3-2.2,2.4,6.4c-3.7-0.1-8.2,3.8-13.8,4.7l-0.6,4
	c-3.8,1.7-5.3,2.4-5.8,5.3c-7-0.4-6-0.2-12.5,0c-10.4-22.5-30.3-10.9-34.6-5.3c-8.6,11.7-9.5,30.7-13,46.2
	c-8.7,5.2-11.7,2.7-22.9-0.6c-5.3-1.6-22-3.5-25.9-1.5c-2.9,5.5-0.6,7.1-4.6,14.3l-9.2-1.5c3.7-12.1,3.2-2.2,9.4-29.3
	c-6.5,3.4-0.8,0.4-4.9,4.1c-1.7,1.5-3.2,2.4-4.5,3.2c-2.2,11.4,0.1,15-12.6,16.3c-11-11.8-1-12.5,0.9-26.3c-3.4-1.4-6.5-2.6-9.9-3.6
	c0.9,14.9,2.2,12.7-5.6,25.1c-12-0.1-12.2-7.3-8.4-16.7c2.9-7.1,3.5-7.6-1.7-12.7c-6.8,3.3-3.5,5.1-3,11.1
	c0.6,6.6-1.4,11.7-3.2,15.8l-14.5,0.2c0.9-3.8,0.9-11.7,2.3-15.3c2.5-6.6,7.2-2.9,4.9-12.7c-6,0.5-5.8,4.2-14.5,6.7
	c-4.9,1.4-1.3,0-5.8,2.9c2.2-4.3,2.1-3.5,4.8-7.1c-0.3-0.1-0.8-0.6-0.9-0.4l-3.7-0.9c-0.4-0.1-0.9-0.3-1.4-0.5l5.5-7.8l-4.4-1.4
	c2.5-7.3,8.9-20.9,3.5-28.4l-1.9,9.4c-0.1-0.4-0.4-1.4-0.5-1.1l-3.5-3.7c-2.6,7.9,0.1,16.7-5.3,24.5c-2.9-3.9-12.2-26.3-13-24.3
	l-8.9,1.4c-1.4,7.4-0.4,13.3,2.7,17.7c-6.6-0.2-4.2,0.1-9.2-2.4c-2.4-12,1.9-17.2,1.9-28.4s-3.8-18.7-1.9-30.2
	c1.7-10.3,8.4-13,9.1-22.5c0.6-9.6-5.8-18-1.6-27c5,1.9,2.7,0,5.1,6c1.7,4.2,2.8,4.7,3.8,8.9c1.2,4.9,1.2,19.4,0.6,24.9l-7.5,2.8
	l6.6,6.6c-2.9,6.6-10.3,20.2-7.1,26.9c2.2-3.2,0,0.4,1.8-4.2l3-4.8c2.4,4.3,1.2,2.7,1.7,7.8c0.8,9.1,0.8,5.8,3.2,8.3
	c1.3-12.6-1.2-21,6-27.7c10.4-9.8,6.8-13,8.6-26.8c8.5-4.8,16.5-5.4,24.9-9.5c-0.5,12.3-0.4,18.2,2.2,29.9c3,13.9,0.3,19.2,0.9,32.5
	l7.1,1.2c1.4-5.7,1.9-6.8,1.7-14c-0.3-8.9,1.2-7.6,2.4-15.3c6.6,5.4,5.1,10.5,16.3,11.9l1.1,5.8c9.9-8.6,5.7-44.7,7.9-62.1l-0.3-8.4
	c-0.1-0.2-0.4-0.6-0.6-0.9c-3.8,6.3-2,13.9-3.1,20.8c-1.2,7.4-2.1,4-4.1,4.2c-5.8-22.2,1-28.2,5.2-39.7c2.7-7.5,9.9-27.6,18-29.2
	c5,0.9,5.1,1.5,7.8,3.7c2,3.5-4.4,21.8,3,34.3c4.7,8,4.4-1.4,3,7.9c0.4,0,4.8,0.1,5.2,0.2c4.8,1.8-0.5-1.4,3.5,2.7l-4.7,1l16.8,12.1
	c4.2,2.9,5,1.8,8.2,3.5c2.4,1.2,18,16.2,22,19.2c6.3,4.8,25.9,10.2,27.6,12.4c6.8,9.2,3.3,10,15.8,19.1c0.4,0.3,1.6,1.2,1.9,1.4
	l2,1.8c-6.6,6-2.1,8.8-0.4,13c2.2,5.3-2.1,4.2,3.2,6.9c4.2-5.8-0.7-8.4-2.1-16.6l4.8-3.2c-4.5-4.6-7.5-3.3-12-11.7
	c-1.9-3.5-1.1-2.8-3.7-5.5l2.4-3.2c9-12.6-18.9-10.5-25.1-12.2c-17.4-4.6-14.3-8.8-25.4-15c1.2-0.8-2.8-5.4,6.8-0.5
	c21.3,10.9,36.9,10.1,55.7-3.5c4.1-3,10.3-5.1,12.6-8.1c1.8-2.4,5.1-14.4,5.3-17.1c0.6-7.3-0.2-14-0.3-20.9
	c-0.1-10.9,4.2-7.8,3.7-19.2c-3.7-4.5-7-9.1-9.6-16.2c-2-5.5-7.6-10.9-8-11.2c-2.8-1.9-1-0.9-5.3-1.1l1.7-6.3l-7.9,1.7l0.1-5.3
	c-6.5,3.5-8.7,2.3-8.3-5.8c-1.9,1.3-2.7,1.6-4.8,2.7l-0.6-4.9c-12.7,0.4-5.1,3.2-5.4,4.8c-3.9,2.4-0.4,1.5-6.4,1.5l-0.1-6.3l-6.2,5
	c0.8-5.7,1.8-4.2-0.2-7.9l-4.5,6.9c-4.6-7.5-5.2,3.2-6.3-7.3c-2.7,1.7-2.5,1.4-5,3.3c-0.4-1.5-0.6-3-1-4.5c-1.2,2-2.5,4-3.7,6.1
	c-1-2-2.1-4-3.2-6c-1.3,2.7-2.7,5.5-4.1,8.3c-0.1-2.9,0.2-6.2-1.4-8.7c-3.6,1.4-5.7,2-9.4,3.1c-7,2.1-19.9,11.9-26.1,11.2
	c-1.2-0.1-2.6-4.2-3.1-4.8c-1,1.6-1.6-0.1-1.8,1.4c-0.1,0.8,1.4,10.7,1.9,11.9c0.7,2.2,0.3,2.1,2.4,0.2c1.3-1.2,1.6-2.4,2.4-3.9
	c4.5,4.7,10.9,17.3,12.7,23.6c1.7,6.3,1.3,12,0,18.3c-5-0.1-2,1.2-6.4-1c-7.8-4-11.5-13.2-17.2-19.7c-1.8-2.1-5.6-4.1-8.7-4.5
	c0.9,3,2.2,3.6,4.2,5.8c-1.3,8.8-3.5,7.9-8,12.7c-6.4,6.8-11.2,18.4-14.8,26.9l-7.4,14.9c-2.7-1.7-2.1,0.1-4-4.2l-5.7-23.2
	c9.7-6.3,29.3-21.7,32.8-30c-8.4,2-1.1,4.5-11.1,7.8l2.2-14.5c-5.3-6.8-8.5-7-14.1-17.6c1.2-3.7,0.8-1.6,1.4-3.1
	c1.8-4.5-0.1-9-0.4-13.7c-0.1-1.4,0.8-1.6,2.2-2.6c6.3-4.2,12.4-6.1,19.2-9.3c4.8-1.8,9.4-2.7,13.9,0c3,1.8-3.8-1.8-4.1-1.9
	c-4.4-1.9-6.5-0.7-10.8,0.8c-1.6,0.6-3,1.2-4.7,1.7c-2.9,0.8-6,1.2-8.9,1.6c-2.5,0.4-9,1.3-10.7,3c-1.6,3-2.8,5-4.1,8.1l-0.6,1.5
	l-14.3-6.3c-0.4-0.1-0.7-0.4-1.1-0.5c-4.9-1.9-7.3-2.2-8.7,3c5,3.5,7.5,1.7,13.5,6.8c4.8,4,6.2,6.4,9,13.4c6.6-2.7,2.7,4.1,5.2-5.3
	c2.4,13.4,6.6,15.8,15,21.6c-0.9,6.6-2.9,8.6-3,17.9c-2.1,2.2-4.1,4.9-6,6.6c-4-4.9-3.5-5.3-1.4-11.4l-4.4,0.4l-0.2-6.4l-3.4,2.3
	c-0.1,0.1-0.6,0.6-0.9,0.9c-1-9.7-0.6-4.3-3-7.1l-3.5-5.6l-4.9,2.8c-11.9-10.2-9.9,2.8-18.1,0.3l-4-2l-2.7,8.4
	c-7.1-3.1-0.5-1.2-6.8-3.7l-0.4,8.1l-8.6,0.8l-2.4,7.1c-3.3-2.9-4.8-8.4-8-11.4c-0.6,1.2-3-0.4,0.5,7.5c2.4,5.5,2.8,4.6,2.6,10.4
	l-6.8-5.8c0.1,8.7,1.7,25.3-4.3,32.5c-10.8-20.2,0.9-40.9,11-55.9c4.7-7,7-12.1,9.9-20c1.5-4,2.7-6.2,4.8-9.9
	c1.2-2.2,2.6-6.6,5.4-6.8c3.2-0.1,3.6,0.9,7.4-0.6l0.5-0.2c2.7-1.2,5.3-2.3,8.1-3.4c-2.2-2.4,0.3-2.7-5.7-1.7
	c-2.7,0.4-4.2,1.2-6.7,0.1c2.6,0,4.8-1.7,7.6-2.7c1.1-0.4,2.1-0.6,3.2-0.9l0.6-0.1c3.2-0.9,6.4-1.6,9.7-2.3
	c-4.5-0.1-9.2-0.4-13.6,0.3c-1.7,0.6-3,0.6-4.5,1.2c-3.8,1.4-4.7-0.7-5.7-4.2c-1.7-6.2-2.9-21.1-3.4-27.9c-1.1-14.8-1.2-25.8,4.2-40
	c2.5-6.6,1.7-1.4,3.9-5.2c4.3-7.2,5.3-5.8,6-15.1c1.1-14.2,9.8-11.3,16.6-19.6c1.7-2,3.2-4.5,4.7-6.6c3.5-4.8,7.3-9.6,11.3-14.1
	l0.6-0.6l0.6-0.6c9.9-10.8,17.2-16.1,30.3-22.6c7.6-3.7,10.5-6.8,19.4-9.1c4.4-1.2,6.6-1.6,10.9-3.4c4.7-1.9,9.6-3.5,14.5-4.8
	c8.8-2.2,16.6-4.3,25.6-5.8c15-2.4,27.5-4.2,42.8-4.8c7.7-0.3,14.7-1.2,22.5-1.2c8.9,0,17.5-0.1,26.4-0.1c11.7-0.1,23,1,34.6,0.7
	c60.7-1.5,40-1.1,1.4-2c-10.3-0.2-21.5-1.2-31.8-1.9l-0.9-0.1c-2.4-0.1-8-0.8-10.2,0c-2.1,0.8-22.7,0.6-27.4,1.1
	c-6.8,0.6-12.8,1.2-19.7,1.5c-11.4,0.5-22.5,1.2-33.8,3c-7.3,1.2-13,2.2-20.2,4c-9.9,2.4-17.4,4.5-26.9,8.2
	c-8,3.1-13.5,4.3-21.3,8.6c-22.6,12.4-29.3,12.5-45.4,34.4c-3.2,4.5-11.4,17.4-15.6,19.6c-11.2,6-11,14-17.3,23.7
	c-7.6,11.7-12.5,25.4-13,39.5c-0.4,11.6,0.6,25.1,1.2,36.8c0.3,6.1,0.9,12.2,1.3,18.1c0.3,5.4-0.5,7.8-2.7,12.6
	c-3.7,7.7-7.7,16.1-12.2,23.3c-2.4,6.1-16.1,23.5-18.2,31.9c-0.1,0.5-0.5,2.7-0.8,3.5c-1.3,4.8,0.5,0-1,2.7v1.9
	c0.4,0.8,0.5,1.7,0.5,2.5v0.6c0.4,0.8,0.5,1.7,0.5,2.5v0.6c0.4,0.8,0.5,1.7,0.5,2.5v1.4l-1.1-1.1l0,0c0.7,0.9,1.2,1.9,1.4,3
	c0.2,0.5,0.4,1,0.5,1.5c0.1,0.1,0.1,0.3,0.2,0.4c0.2,0.3,0.4,0.6,0.5,1c0.2,0.4,0.4,0.6,0.5,1c0.2,0.4,0.4,0.6,0.5,1
	c0.2,0.4,0.4,0.6,0.5,1c0.2,0.4,0.4,0.6,0.5,1c0.2,0.3,0.4,0.6,0.5,1c0.2,0.4,0.4,0.6,0.5,1c0.5,0.9,0.9,1.8,0.9,2.9
	c0.3,0.6,0.4,1.3,0.5,2.1c0.2,0.5,0.4,1,0.4,1.5c0.5,0.7,0.8,1.5,1,2.4c0.4,0.9,0.6,1.9,0.6,2.8c0.3,0.6,0.4,1.3,0.5,2l0.1,0.2
	c0.4,0.6,0.7,1.4,0.9,2.2c0.4,0.9,0.6,1.8,0.6,2.8v1.1c0.4,0.8,0.5,1.7,0.5,2.5v13.9c0,1.2-0.4,2.4-0.9,3.4c-0.4,1-0.9,1.7-1.7,2.4
	c-0.4,0.9-0.9,1.4-1.6,2.1c-0.1,0.2-0.2,0.4-0.3,0.6c-0.1,0.1-0.1,0.3-0.2,0.4c-0.1,0.9-0.5,1.7-1,2.4c-0.1,0.5-0.2,1-0.4,1.4v6.2
	c0,0.9-0.2,1.7-0.5,2.5v1.6c0,0.9-0.2,1.7-0.5,2.5v20.1c0.1,0.2,0.1,0.4,0.2,0.6c2.3-0.9,0.4,2,0.9,2.3h-0.6v9.4
	c0,1.2-0.4,2.4-0.9,3.4c-0.1,0.1-0.1,0.3-0.2,0.4c-0.1,0.8-0.4,1.5-0.9,2.2l-0.1,1.2c0,0.9-0.2,1.7-0.5,2.5v1.1
	c0,0.9-0.2,1.7-0.5,2.5v0.6c0,0.9-0.2,1.8-0.5,2.6c-0.1,0.6-0.2,1.4-0.5,1.9c0.4,0.4,0.6,0.9,0.9,1.4c0.4,0.4,0.7,0.7,1,1.2
	c0.4,0.3,0.8,0.6,1.1,0.9c0.3,0.2,0.5,0.5,0.7,0.8c0.4,0.3,0.7,0.6,1,1c0.5,0.4,0.9,0.8,1.2,1.3c0.6,0.4,0.9,0.9,1.4,1.3
	c-0.1-0.6-0.3-1.2-0.4-1.9c10.1,3.6,8.1,1,17.2,0.7c-0.4,0.4-0.6,0.9-0.8,1.2c3.5,0.1,6.3,3,6.3,6.5c0,1.9-0.9,3.7-2.2,4.8l-4.5,9.7
	c0,0.9-0.2,1.9-0.6,2.7c-0.1,0.7-0.4,1.4-0.9,2.2l-0.1,0.2c-0.1,0.7-0.2,1.4-0.5,2.1c-0.1,0.6-0.2,1.4-0.5,2c0,1-0.2,1.9-0.6,2.8
	c-0.1,0.6-0.3,1.1-0.5,1.5c-0.1,0.4-0.2,0.9-0.4,1.3c-0.1,1-0.4,2-0.9,2.9c-0.1,0.4-0.3,0.7-0.5,1c-0.1,0.4-0.3,0.7-0.5,1
	c-0.1,0.1-0.1,0.3-0.2,0.4c-0.1,0.6-0.4,1.2-0.6,1.7c-1.1,3.5-0.5,2.1-1,2.2c-0.1,0.4-0.2,0.8-0.4,1.2c-0.1,0.6-0.3,1.1-0.5,1.5
	c-0.1,0.7-0.4,1.4-0.9,2.2c-0.1,0.4-0.3,0.7-0.5,1c-0.1,0.1-0.1,0.3-0.2,0.4c-0.1,0.9-0.5,1.7-1,2.4c-0.1,0.9-0.5,1.8-1,2.6
	c-0.1,0.5-0.2,1-0.4,1.4v2.6c0,0.9-0.1,1.7-0.5,2.5c0,0.5-0.1,1.1-0.2,1.6c0.3,1.4,0.5,2.7,0.5,4.1l-2.4,0.4v0.1
	c0.4,0.8,0.5,1.7,0.5,2.5v1.6c0.4,0.8,0.5,1.7,0.5,2.5v0.6l0.1,0.1c0.6,0.9,0.9,1.9,0.9,2.9c0.3,0.6,0.4,1.3,0.5,2.1
	c0.3,0.6,0.4,1.3,0.5,2.1c0.2,0.4,0.3,0.9,0.4,1.3c0.4,0.7,0.6,1.4,0.6,2.3c0.4,0.8,0.5,1.7,0.5,2.6v0.6c0.1,0.4,0.3,0.9,0.4,1.3
	c0.2,0.5,0.4,1,0.5,1.5c0.4,0.9,0.6,1.8,0.6,2.8v5.1c0,4.4-1.6,34.3-2.3,37.8c-4.2,21.2-21.5,31.2,31.2,39
	c18.6,2.8,7.3,9.5,59.6,8.2c15.3-0.4,15.3-5,33.6-12.2c5.1-3.5,29.1-12.5,38.3-14.9c3.5-1.4,7.2-2.2,11.2-2.2H261
	c18.9,0,29.2,11,50.5-3.2c1.4-1,3-1.9,4.7-2.6c20.7-11.5,10.4-17.4,26.2-26.3c0.4-0.3,0.7-0.6,1.2-0.9c1.1-1.5,2.2-2.9,3.5-4.2
	L348.1,636.5z M444.1,361.9c-0.6,0.2-1.3,0.4-1.9,0.7c-5,1.9-12.3,3.6-12.3-3.8c4.5,2.2,8.9,2.9,13.8-1
	C443.7,359.1,443.9,360.5,444.1,361.9z M217.9,661.9c3.8-2.2,22-0.9,25.5,1.7c-4,2.3-15.3,2.2-19.9,1.4
	C215,663.3,220,664,217.9,661.9z M128.2,668.2c2.2-1.9,1.4-2.6,8.2-3.2c12.2-1.2,51-1.4,58.8-3.5c5.7-1.6,3.8-3.5,14.9-1.4l4,1.2
	c0.3,0.1,0.7,0.5,1.2,0.8c-5.7,4.5-9.6,1-21.2,1.5C172.6,664.6,147,670.6,128.2,668.2L128.2,668.2z M278.8,633.1
	c2.8,4.5,2.4,2.5,0,6.4c-1.4-2.7-1.6,3.8-1.2-3.2C277.8,633.5,278.1,634.4,278.8,633.1z M251.1,590.4c1.5-8.1,0.4-16.3,9.7-8.5
	l-1.7,4.4C256.7,591.1,260.3,590.2,251.1,590.4L251.1,590.4z M267.6,577.5l-1.1,4c-1.7-1.7-5,4.9-1.4-1.7
	C267.2,575.9,260.3,580.4,267.6,577.5z M213.3,573.9l0.4-13.2c0.1,0,4.8-4.2,9.6,0c3,2.7,0-0.3,2.2,4.4
	C231.6,577.7,224.4,575.3,213.3,573.9L213.3,573.9z M245.4,573.9l-12.2,1.2c-0.7-9.1,2.4-5.5,0.1-17.7c8.6,0.1,6,1.7,14.1,2.1
	C244.2,565.4,245.7,566.9,245.4,573.9L245.4,573.9z M203.5,572.4c-6.5-0.7-2.5,1.9-5.8-4.8c-1.5-3.1-0.4-1.4-2-3.2
	c-3.8,6.8,0.2,2.6-4.8,5.4c-11.2-4.2-4.4-10.7,1-16.4l12.8,2.6L203.5,572.4z M490,553.3c-1.6-1.2-5.3,3.1-2.4-3.8
	c1.1-2.5,1.9-1.7,4-2.6L490,553.3z M94.6,553.5c2.2-8.7,4.2-17.7,13.5-20.2l-0.6,17.6L94.6,553.5z M408.5,543.4
	c-0.4,14.4,6.1,14.3,6.3,26.2l-5.8-4.3c-4-4-1.1-4.2-2.4-13.7C404.9,540.1,405.4,545.3,408.5,543.4L408.5,543.4z M496.2,542.2
	c-0.4-0.7-3.3,2.6-0.9-4.2c0.4-1.1,3-3.3,3.6-3.9C498.8,538,499.3,540.5,496.2,542.2L496.2,542.2z M414.6,540.7l-8.2-5.2
	c0.2-0.1,0.6-0.6,0.7-0.4c0.1,0.3,0.6-0.2,0.8-0.2l4.6,0.3l5-9.7c0.4,2.9,0.8,5.6,0.4,8.4L414.6,540.7L414.6,540.7z M493.3,534
	c-0.9-7.3-1.3-4.9,1.2-9.8c0.4,0.3,3.3-0.1,3.5,5.1C498,534.7,496.9,532.3,493.3,534z M85.1,554c7.3-7.5-2.3-14.5,12-16.8
	c-1.4,5.5-3.5,8.9-3.3,16.4c-7.3,2.4-8.4,4.5-15.2,6.6c-0.4-13,3.8-27.6,13.8-33l4.2,3.7C91.2,535.1,80.9,544.3,85.1,554L85.1,554z
	 M481.8,533.7c-5.6-5.6-3.1-12.5,3.4-15.6C485.9,531,482.2,522.5,481.8,533.7z M510.6,514.1c0.9,1.6,1.6,0.4,1.7,3.9
	c0.1,3.9,0.1,1-1,4c-0.8-0.6-3.7,1.2-3.9-4.2C507.1,512.6,506.3,515.4,510.6,514.1z M267.6,538.9c-5-4.6-0.3-2.7-6.8-5.5l2.2,8.6
	c-4.5,3.9-3-0.8-3.4,7.6l-9.1-12.5c-1.7,2.2-2.2-2.9-1.8,3.3c0.6,7.4,3.3-2.7,1.1,14c-5.9,0.4-6.1-0.7-13-0.9
	c0.2-9.8,1.5-19,4.1-26.9c3.6-10.9,6.9-13.5,13.8-17.3c6.7,3.2,6.6,4.5,10.7,10.7c3.6,5.3,4.8,7.6,5,15.4
	c-7.1-11.2-6.7-17.2-14.1-16.7C258.8,527.8,263,522.3,267.6,538.9L267.6,538.9z M486.6,513.1c8.1-0.2,12,6.3,4.8,11.5
	c-0.3-0.4-0.6-1.4-0.7-1.1L486.6,513.1L486.6,513.1z M513.8,504.5c4,3.7,1.3-4.5,3.2,5.8c-3.7-0.6-1.4,3-4-1.2
	C509.8,504.1,511.8,505.8,513.8,504.5L513.8,504.5z M342.7,590.3c-6.4,3-5.9,2.7-4.8,12.4c7.5-0.6,5-2.7,7.8,1.7l-9.2,1.8
	c2.9,6.4,1.9-1.2,2.2,5.5c0.1,3-0.4,4.9,1.4,6.9c-6.5,6.2-2.6,7.1-7,13.1c-4.2,5.8-21.4,25.7-28.8,28l-31.2-0.7
	c1.2-8.2,3.6-8.1,6.6-15c0.5,0.1,2.6,1.3,2.7,1.3c5.2-0.1-2.6,2.5,2.6-0.9c0.3-0.1,0.7-0.7,0.9-0.9c0.2-0.2,0.6-0.7,0.9-1.1
	c0.9,12.2-6.9,6-9.2,13.3c14.4,7.8,15.3-30.2,16.6-37.3c2.7-13.9,9.9-29.2,4-43c-0.1-0.4-0.3-0.7-0.4-1.1c-0.2-0.4-0.4-0.7-0.6-1
	c-1.9-2.9-0.6-0.9-3-2.9c0.2,4.4,0.9,7.1,0.1,11c-1.9,10.1-5.2,5.3-0.9,15c-5.6,5.8-3.2,8.1-7,14c-3.6,5.7-2.5,0.8-4.7,6.7
	c-2.5,6.8-5.2,17.1-10.8,22.6l-6.5,4.6c-1.9,2.4-2.4,3.7-4.7,6.5l4.9,1.6c-3.2,4.6-6,4.1-7.6,9l-5.5-4.2c3.3-2.6,5.1-4.2,6.6-8.4
	c-3.7,0.5-10.1,1-12.5,1.4c-4.6,0.8-5.5,2.5-11.4,0.3c-3.2,5.1-0.4,3.2-4.8,6.3c-2.8-4.6-0.6-4-3.9-8l-1.9,6.9
	c-6.1-2.3-5.6-3.8-6.3-8.1c-5.1,2-4.1,2.6-7.1,6.1l-3.2-4.3l-2.9,3.5c-4.3-2.4-2.4-0.5-4.4-4.4c-2.8,2.7-1.5-0.1-4,5.4
	c-5-1.5-0.9,0.9-4.8-2.6l-2.4,3.7c-0.1,0.2-0.5,0.7-0.8,1.1l-6.4-3.5l-3.2,5.5c-3.6-0.6-2.7-0.4-4.8-1.9l-3,3.9
	c-8.6-2.1-6.3,2.3-11.4-2.4l-4.8,4c-4.8-2.2-1.4,0.1-4.9-3.7c-5.8,5.4-5.8,0-19.7,2.1c-7.8,1.2-7.8-1.7-15.4-1.4l-21.7,1.1
	c-0.1,0-2.9-0.6-3.5-0.6c-0.4,6,0.4,5,2.2,8.9c-7,0.2-3.7-0.7-9.1-4.5c-2.6,5.1-0.6,3.2,0.9,9l-6.4-4.7l0.6,8.1l-4.5-4.4
	c-2.4,3.1-2.3,5-5.8,7c-3.6-11.2,3-15.3,5.9-25.8c3.5-12.7-0.5-20.2,3.9-31.6c3.7-9.8-4.8-17.4-7.3-24.9c-1.8-5.4-0.3-8.7,0.3-14.3
	c0.8-7.8-2.2-9.7,4.3-12.3c6.6,6.8-0.4,13,8.4,17.4c1-15-5.3-9.9,1.3-24l3.2,9.4c1.5,5.4,0.6,5.2,4.8,8c0.9-1.4,2.5,1.7,0.7-5.4
	c-1.4-5.7-1.5-0.2-1.9-7.5l9.4-3.9c0.1,4,0.4,7.6,1,10.7c1.2,5.5,0.6,5.5,6.1,5.7c-2.9-8.8-3.7-8.7,1.2-16.5
	c3.1-4.9-1.4-3.7,7.3-3.5c1.6,12-5.5,16.9-1.7,23.7l3.2-0.1c2.5-4.4,1.7-13.2,2.4-18.4l9.1-2.7c0.4,7.8-2.4,12.9-2.3,18
	c0.1,9.1-0.4,1.9,2,4.9c5-2.3,3.2-4.1,3.5-9.7c0.1-3.7,0.9-7.8,3-10.9l6.4-0.4c6.7,8.6,1.4,11.9,1.9,22.2l7.1-0.1
	c1.2-5.2-5.9-28.4,14.1-14.8l0.9,12.1l-10.3,1c3.4,2.3,3.1,5.3,15.3,6l-0.3-16.2c6.8-1.2,22.4,0.4,20,9.9c-1.4,5.3-1.3-0.2-2.4,7.3
	c7.2,6-0.1,2.8,7.3,4.8c0.9-3.3,1.8-9.2,2.4-15.8c4.5-1.9,7.8-2.2,13.8-0.6c3.3,11,4,13.9,2.4,24l5.5-0.4c3.4-10.6-0.9-9.1,5.6-17.9
	l18.1-0.6c-3.9,8.9-3,3.8-11.6,8.1c0.8,5.1-0.4,0.9,1.8,6c8.5-0.1,2.4-1.5,9.4-2.4c6-0.7,3.6,1.7,11.4-0.1
	c11.4-2.6,13.5-8.4,18.4-9.5c-3.4,16.7-15.6,22.2-18.3,31.2c10.2-3.1,22.3-22.9,25.6-32.8c0.4,0,1-0.3,1.2,0.1l4.5-0.5
	c1.8-13.9-5.5-51,0.1-59.8c9.9-0.1,7.1,3.5,8.7,11.3c0.3,1.3,2.2,5.8,2.4,7.2c0.9,6.6-0.2,0.2-1,7.6c3.8,4.4,13.3,23.3,18.4,25.3
	c-0.3-8.6-5.9-19-9.4-27.1c-2-4.8-1.7-9.3-3.9-13.8c-2.7-5.5-4.8-4.5-4.8-14.3l14.9-5.5c7.1,5,5.3,7.3,14.5,9.9l11.6-4.6
	c11-5.9,18.6-15.8,32.5-18.8c-3.8,22.1-12.7,27.1-19.2,38.4c-3.3,5.8-2.2,10.9-2.7,16.7c-0.4,5.5-1.9,4.1-2.7,11.5l-2,20.8V590.3z
	 M383.9,506.8c1.2,22.9,11.1,27.2,13.1,30.1c-6,0.1-4.1,1.1-6.9-3.7c-1.7-2.8-2.7-5.2-4.6-8.4c-4-6.9-2.5-9.8-3.7-13.5
	c-2.6-8.4,0.2-1.6-3-5.3c-0.3,16.7,2.4,17.7,5.3,29.2l-6.3-11.2c-3.1,4.4-1.3,4.2-2.8,8.3c-5.1-17.3,0.6-11.4,1.9-27.1
	c6.6-2.6,7.3-1.4,9-1.6c7.4-0.8-1.6,2.3,2.4-0.9C388.5,508.4,388,503.9,383.9,506.8L383.9,506.8z M518.6,499c6,0.4,5.1,0.1,6.2,6.1
	c0.9,5,1.7,8.3,2,13.2c-0.3-0.4-0.7-1.3-0.8-1.1l-3.7-7.7C520.3,504.7,519.9,503.8,518.6,499L518.6,499z M392.3,492.2
	c-4.4-0.3-4.4,1.7-10.4-3.5c14.7,0.9,18-5,26.1-15.4c10.2,1.8,12.6,7.1,21.1,11.6c9.1,0.1,14.4-3,23.3,0.1c5.5,1.9,14.8,9.1,23,12
	c3.9,1.4,6.8,0.9,10.8,2.2c4.5,1.6,3.7,3.5,8.4,3.8c4.3,0.3,5.4-1.4,12.8-0.9l1.9,8c-4.5,2.2-1.4,1.6-7.8,1.6l-1.5,6.8l-5.7-6.9
	c5.8-4.1,5.3-0.6,9.1-7c-9.7,0.9-27.6,8.1-29,18.6c-1,7.5,1.9,15.3,0.2,21.4c-2.2,7.8-6.4,4.8-9.7,14h-10.5l1.9-8.6
	c-11-1.2-4.4-0.2-15.8,6.4c-13.5,7.8-5.4,5.7-14,5.1c-1.1,5.7-0.5,4.3-3.7,7.8l-3.2-1.7c2.4-6.8,0.9,0.1,2.7-6.4
	c-4.8-4.7-10.6-5.5-10-13.8l10.7,4.5l2.2-8.9c6.8,4.2,3.3,4.9,13,5.3l-3-9.6c1-1.7,0.6-0.5,1.5-3.2c-4-4.6-9.5-10.9-7.8-16.3
	c6.8,7.6,1.5,6.7,8,10l0.4-4.8c0.1-0.3,0.2-0.7,0.3-1l2.2-3.9c2.6-3.5-1.9-0.2,3.6-3.4l0.1,17.3c22.9-3.1,15-48.9-11.4-41
	c-8.1,2.4-13.3,10.9-16.1,13.5c-5.8-8.1-0.6-10.9-6.6-19.4c-8.2-1.2-14.6,0.6-17.4,5.8L392.3,492.2z M343.9,477.9
	c6.3-5.8,17.3-6.1,26.5-2.3l1.4,10.2l-13.7-3.7C351.6,481,347.5,480.5,343.9,477.9z M399.4,476.4c0.9-1.7,1.9-3.3,3-4.9
	 M546.5,467.4c5.8,2,3,0.3,5.5,4.1c-0.3,0.1,0.1,3.2-3.7,0.9C546,471.1,547,471.3,546.5,467.4z M542.3,454c1.7-4.9,0.6-4.1,5-6.6
	c2.7,5.2,4.4,10.4,4.2,17.1C543,454.2,556.1,463.5,542.3,454L542.3,454z M358.3,443.5c10-2.2,11.5,1.3,19.7,5.3
	c3,1.9,2.3,3.1,3.9,6.2c2.2,4.2,1.9,4.2,0.4,8.6c-6.3-0.3-8.3,0.1-13.5-3.9c-2.3-2.2-3.4-3.2-6.4-4.8l-1.4-6.8
	c-0.1-0.4-0.3-0.7-0.4-1L358.3,443.5z M343.6,399.5l0.9,9.4c-9.7-10.4-5-11.8-2.2-19.8c1.1-3.1,1-5.5,2-8.4l4.3,5.8
	c-2.8,6.2-1.9-1.1-2.4,6.2c-0.4,5.7,1.4-1.2,0.2,3.2C344.9,401.3,350.7,391.8,343.6,399.5L343.6,399.5z M241.1,385.8l-2-5.1l5.3,0.6
	c-0.7,1.7-1,1.9-1.2,2.2C242.6,384.1,241.1,385.8,241.1,385.8z M351,369.4l-5.5-6.6c-0.2,0-1-0.2-1.3,0.6c-0.2,0.6-2.5,1.3-2.7,1.4
	c-2.3,1.6-2,2-2,2.1c-4-3-2.9-1.9-4.6-5.6c6.3-0.1,5.2,0.5,10-1.5c2-0.9,5.8-2.6,7.8-3c0.6,0.6-1.2,1,0.2,2.4
	C353.3,363,351,360.1,351,369.4L351,369.4z M253.2,349.9l-0.8-4.3l3.3,0.4C255.3,353.2,253.6,348.6,253.2,349.9z"/>
<path class="st1" d="M24.7,711.7v0.7c0.7-0.3,1.4-0.5,2.2-0.7H24.7z M131,711.3h-1.2l0.5,0.2L131,711.3z"/>
<path class="st1" d="M170.4,404.3l-1.9,1.7c-0.1,0.1-2.3,1.4-2.4,1.5c1.8,8.4,6.8,11.2,7,22.3c0.1,9.9-0.4,19.6,3.5,26.9
	c2.7-4,1.5-1.6,0.4-9.8c-2.1-15,6.6-30.5,0.4-38.4c-12.5-15.9-4.5-15.4-10.4-24.3C162.8,391,168.3,398.4,170.4,404.3L170.4,404.3z"
	/>
<path class="st1" d="M212.3,441.9c0,18.1-0.5,4.2-5.3,18.7c-6.8-2-0.9-1.8-7.6-3c1.2,3.9,8.6,14,13.4,14.9l-2.4-11.2
	c10.8-2.2,7.6-4,17.2-7.5l0.3-8.4c-3.6-3.5-4.5-3.5-8.1-6.1L212.3,441.9z"/>
<path class="st1" d="M173,501.3c-6.2,9.7-5.3,3.7-2.1,12.8l1.7,7.8c5-0.2,4.6-3.6,6.5-8c7.5,2.9,0.9-1.3,6.5,4.8
	c0.6-7.2,0.5-7.7-2.9-13.2c-3.8-6.3-2.7-6.2-7.7-9.6L173,501.3L173,501.3z"/>
<path class="st1" d="M94,460.3c7.3,5.8,7.8,6.6,15.9-1.6c-0.1-4.6-1-8.1-2.4-11l-9.5-0.4C96.1,452.4,94.3,454.6,94,460.3L94,460.3z"
	/>
<path class="st1" d="M138,598c0.4,3.9,1.4,10,1.5,13.5c0.1,6.5-1.7,3.1-2.3,9.9c7.2-0.3,6.8-4.7,8.1-11.4c0.4-2.4,0.8-6.8,1.2-8.1
	c1.8-4.9,1.6-2.1,5.4-5.6c-2.2-0.7-9.2,0.9-15-0.3c-8.5-1.7-4.9-4-14.5-4.2l6,4.6C130.9,597.3,134.2,597.7,138,598L138,598z"/>
<path class="st1" d="M331.1,554.3c-0.4-4.8-10.7-28.8-19.5-29.3c0.1,8.1,7.1,13.7,13.2,23.9C328,554.2,325.8,553.7,331.1,554.3z"/>
<path class="st1" d="M103,612.5c4.9-1.9,7.1-8.9,5.3-11.9c-5.5-9.2-2.1-5.8-6.9-7.6C98,598.5,100.1,608.1,103,612.5z"/>
<path class="st1" d="M393.2,351.4l16.1,1.9c0.3,0.9,5,5,11.2,1.4l-13.8-7.7c-3.9,0.4-4.3,0.6-8.1,1.6
	C392,350.1,396.1,346.9,393.2,351.4L393.2,351.4z"/>
<path class="st1" d="M189.9,447l1.7-0.9c0.1-0.1,0.7-0.5,0.9-0.6l2.7,8.1h6.3c-0.4-5.2-3.9-12.9-11.6-13.4L189.9,447z"/>
<path class="st1" d="M123.8,610.5l-0.4-11.8l-6.6-0.4c-0.4,2.7-1.2,6.3-0.4,8.6C118,612.1,118.4,610.3,123.8,610.5z"/>
<path class="st1" d="M331.6,610.6c4.5-2.4,2.9-1.6,3.2-19.4C327.3,595.1,330.4,608.3,331.6,610.6z"/>
<path class="st1" d="M162.1,614c3.3-1.8,2.7,2.8,2.7-11.3l3.2-4.1l-10.7-0.6C165.4,604.2,157.8,605.5,162.1,614L162.1,614z"/>
<path class="st1" d="M317,617.5c10.4-0.9,9.9-2.4,9.4-12.9c-1.7,1.2-0.2-0.2-2.2,2C317.8,613.6,318,611.6,317,617.5z"/>
<path class="st1" d="M83.8,608.8l-0.4-19.1c-3.5,2.4-4.4,4.3-4.1,9.6C80,611.1,83.4,608.6,83.8,608.8L83.8,608.8z"/>
<path class="st1" d="M195.7,488.1c-2.9,3.7,8.4,14.4,9.6,15.2l3.2-7.7C201.4,498,204,494.9,195.7,488.1z"/>
<path class="st1" d="M297.9,503.4c2.3-10.2,6.8,0.3,9.4-9.4c-7.7,0.5-13.3,4.2-15.5,10.7L297.9,503.4L297.9,503.4z"/>
<path class="st1" d="M410.2,378.3c5-0.1,2.4,2.9,7.8-5.9l1-1.7C413.8,368.3,410.8,375.8,410.2,378.3L410.2,378.3z"/>
<path class="st1" d="M378.4,354.5c4.3-0.4,9.5-3.7,11.7-6.2C383.9,345.7,380.2,349.7,378.4,354.5z"/>
<path class="st1" d="M367.4,343.9c-0.6-4.5-2-11.4-6.3-12.6c0.5,2.4,1.1,4.9,1.9,7.9C365,345.6,362.7,343.9,367.4,343.9L367.4,343.9
	z"/>
<path class="st1" d="M115.6,591.5c-1.9-4.2,1.7-0.9-3.7-4c-2.9-1.7-3.4-1.7-7.1-2C106.6,589.2,111.7,593,115.6,591.5z"/>
<path class="st1" d="M337.3,581.4c6.2-2.6,3-5,0.6-7L337.3,581.4z"/>
<path class="st1" d="M397.2,381.2c4.5-6.2,0.3-3.6,0-4C393.6,381.5,396.2,379.9,397.2,381.2z"/>
<path class="st1" d="M216.5,524.2c1.3-2.2,1.7-2,0-5c-2.1,2.2-0.9-0.6-1.2,3c0,0.1,0.4,1.2,0.4,1S216.3,523.9,216.5,524.2
	L216.5,524.2z"/>
<path class="st1" d="M305.4,100.6c-1.7,0.7,2.9,0.5,3.5,0.6c5.8,0.2,11.3,1,17-0.2c8.3-1.7,8.8-1.5,17-0.6c4,0.4,9.4-0.6,13.8-0.8
	c3.7-0.1,7.2,0,10.9,0.3c4.3,0.4,7.1,0.2,11.3,0.2c0.9,0,1.4,0,2.2,0.1c3,0.9,2.5,1.2,6.3,1.2c3.3-0.1,3.6-0.4,6.6-1.2
	c5.9-1.7,10.2,0.4,14.5,4.2c4.3,3.8,10.6,6.7,15.6,9.9c3.2,2,9.2,3.8,13,5.5l0.6,0.2c3,1.5,3.2,3,6,5.2c3.7,2.9,5.3,4.2,9.6,6.8
	c5,3,10,7.1,15,10.4c5.4,3.6,9.7,7,14.9,11c1.8,1.4,3.6,2.7,5.4,4c1.2,0.8,2.3,1.7,3.5,2.5c6.6,4.9,12.5,11.7,18.1,17.9
	c5.6,6.4,9.5,13,13.9,20.2c2.9,4.6,6.2,9,9.1,13.8c1.2,1.9,10.4,15.6,10.4,16.5c-0.1,0.9-3,1.1-0.6,1.2c-4.7,1-12.8-12.5-15-15.9
	c-4.4-6.5-7.5-9.8-10.7-17.2c-2.5-5.8-8.3-12.9-12.5-17.5c-8.1-8.8-11.2-12.7-22-18.6c-6.5-3.7-9.5-8.9-16.4-12.7
	c-6.5-3.7-9.1-4.5-15.1-9.6c-4.2-3.5-7.8-6.6-12.6-9.3l-1.4-0.8c-6.8-3.6-10.7-3.5-17.4-8.6c-3.8-3-4.8-3.2-8.9-5.3
	c-6.8-3.7-4.2-8.1-15.7-7.3c-4.2,0.4-6.8,0.8-11.4,0.7c-7.3-0.2-6.6-0.6-13.2-2.3c-8-2-12-0.9-19.7,0.8c-8.3,1.9-11.4-5.5-26.6,1.1
	c-2.6,1.2-4.2,1.9-7.1,1.7c-3.5-0.3-8.1-1.5-11.8-1.9c-8-0.9-17.4,0.9-25.6,1.6c-6,0.5-12.1,0.7-18.1,1.3c-9,0.8-14.5,3-23,4.8
	c-9.1,1.9-15-1.3-23.9,1c-2.8,0.7-23.5,7.2-8.6-0.1c10.4-5.1,12.2-4.8,23.5-4.8c8.1,0.1,17.2-3.9,25.6-5.3
	c7.2-1.2,15.2-1.4,22.5-2.3c4.5-0.5,8.9-1.1,13.4-1.8c4.2-0.7,11.2-1.5,15.5-0.9C307.3,100.2,305.7,100.6,305.4,100.6L305.4,100.6z"
	/>
<path d="M351.9,295.4c-0.4,1-1.6,1.5-2.6,1.1c-1-0.4-1.5-1.6-1.1-2.6c4-9.9,7.1-9.9,16.7-9.9c0.6,0-0.7,0,1.7,0c1.1,0,2,0.9,2,2
	c0,0.6,0.4-0.6,1-0.5c1.4,0.4,3.4,0.6,4.7,0.7c1.2-1.6,3.1-3.7,4.8-5.1c0.7-0.6,1.5-1.1,2.2-1.4c1.1-0.4,2.1-0.5,3,0l0,0
	c0.6,0.3,1,0.8,1.2,1.4c0.4,0.1,0.7,0.4,0.9,0.7c1-1.1,2.4-2.3,3.7-3.2c0.1,0,0.1-0.1,0.1-0.1c1.3-0.9,2.5-1.5,3.4-1.5
	c2.1,0,2.7,0.6,3.2,1.5l0,0l0,0c0.3,0.4,0.6,0.8,5,0.8c2.2,0,3.7-1.4,5.1-2.7c1.2-1.1,2.2-2,3.5-2.4c0.8-0.8,2-1.4,3.5-1.9
	c2.5-0.8,5.9-1.3,7.4-1.3c1.1,0,1.9,0.9,2,1.9c0.1,0,0.2,0.1,0.4,0.1c0.4,0,0.9-0.1,1.4-0.3s2.4-2.2,4.1-4.2c1.2-1.4,2.2-2.7,2.2-3
	c0-1.1,0.9-2,2-2c0.2,0,0.6-1.5,1.4-2.9c1.1-1.9,2-3.5,3.5-3.5c1.4,0,2.3,0.9,2.3,3.1c0,1.1-0.9,2-2,2c-0.1,0-0.2,0-0.3,0
	c0,0.1,0,0.3-0.1,0.4c-0.9,1.6-1.9,3.4-3.2,4.3c-0.5,1.2-1.6,2.7-2.7,4.1c-2,2.4-4.6,4.9-5.6,5.3c-1.1,0.4-2,0.6-2.9,0.6
	c-0.9,0-1.7-0.2-2.4-0.6c-0.6-0.4-1-0.8-1.4-1.3c-1.4,0.1-3.3,0.5-4.9,1c-0.9,0.3-1.5-0.5-1.5-0.1c0,1.1-0.9,2-2,2
	c-0.4,0-1.1,0.7-1.9,1.5c-1.9,1.7-4.1,3.7-7.8,3.7c-6.3,0-7.3-1.3-8.1-2.3c0,0,0,0.1-0.1,0.1c-0.1,0-0.5,0.4-1.2,0.8
	c-0.1,0-0.1,0.1-0.1,0.1c-1.6,1.1-3.5,1.5-3.5,1.6c0,1.1-0.9,2-2,2c-1.2,0-2-0.1-2.7-0.3c-0.5-0.1-0.9-0.3-1.2-0.6l-0.1-0.1
	c-0.3-0.2-0.6-0.4-0.8-0.8c-0.1,0.1-0.4,0.2-0.5,0.4c-2.2,1.7-4.7,3.9-4.7,4c0,1.1-0.9,2-2,2c-1.6,0-4.2-0.4-6.3-0.9
	c-1.2-0.3-2.2-0.8-2.9-1.4H365c-7.6,0-10.1,0-13,7.3L351.9,295.4z M393.6,281.2L393.6,281.2L393.6,281.2z"/>
<path d="M406.6,281.4c-1.1-0.1-1.8-1.2-1.7-2.3c0.1-1.1,1.2-1.8,2.3-1.7c6.7,1,8.6,2.8,10.2,4.3l0,0l0,0c1.3,1.2,2.4,2.2,8.4,2.2
	c1.4,0,2.1-0.7,2.9-1.5c1.7-1.7,3.8-3.7,9.6-3.7c1.1-0.4,5.1-1.5,9.3-1.5c1.1,0,2,0.9,2,2v0.1l0.1-0.3c0.1-0.3,0.1-0.6,0.2-0.5
	c2.2,1.1,5.8,2.7,6.3,7.6c1.4,1.2,1.7,3.5,1.7,5.8c0,0.4,0,0.9,0,1.4c0.2,0.1,0.4,0.4,0.6,0.8c0.1,0.3,0.2,0.5,0.2,0.7
	c0.9,0.4,1.2,1.2,1.2,2.3c0,1.6-1.6,3.4-3.5,5.5c-2.1,2.4-4.6,5.3-4.6,7.2c0,3.7-3.2,10.4-3.8,11.9l0,0l0,0c-0.3,0.8-1,1.4-1.9,1.4
	c0,0-2,3-4,6c-1.3,1.9-2.3,3.8-2.3,4.7c0,0.2,0,0.4-0.1,0.6c-0.1,0.5-0.6,2.9-0.6,4.7c0,0.3-0.1,0.8-0.2,1.7
	c-0.2,1.6-0.6,4.3-0.6,6.6c0,5.4-1.5,8.8-2.5,10.9c-0.3,0.6-0.5,1.1-0.5,1.2c0,1.1-0.9,2-2,2c-0.1,0-0.1,0-0.1,0l0.1,0.1
	c0.2,0.1,0.4,0.1,0.4,0.2c-0.7,1.2-1.6,2.6-3.3,3.2c-0.4,0.6-1,0.9-1.6,1.2c-0.2,0.1,0.4-0.1,1.1,1.5c0.4,0.9,0.6,1.8,0.6,2.7
	c0,1.3-0.4,2.4-1.1,3.5c-0.6,0.9-1.6,1.7-2.7,2.2l0,0c-0.3,0.1-0.6,0.2-0.9,0.3c-0.6,0.9-1.8,1.4-3.1,2c-1.1,0.4-2.3,1-1.8,2.2
	c0.8,1.9,0.9,1.9,0.9,1.9c0.4-0.1,0.7-0.3,1.2-0.3l0,0c1.7,0,2.5,0.9,2.5,4.5c0,1.1-0.9,2-2,2c-0.1,0-1.1,0.4-2.2,0.9
	c0.1,0.3,0.2,0.6,0.4,0.9c0.2,0.6,0.4,1.4,0.4,2.2c0,0.8-0.1,1.6-0.5,2.3c-0.6,1.4-1.9,2.7-4,3.2c0.5,1.3,1.5,1.9,2.5,2.4
	c2.1,1.2,4,2.2,4,5.6c0,1.7-1.2,3-2.4,4.3c0.4,0.2,0.7,0.6,0.9,1.1c0.1,0.4,0.6,1.8,0.6,3.2c0,1.9-0.6,3.7-3,4.4
	c0.8,1.3,0.9,3.3,0.9,5.3c0,0.6,0,1.6-0.1,2.3c0,0.4,0,0.7,0,1.2c0,1.1-0.9,2-2,2c-0.3,0,0.4,0.9,0.4,1.9c0,0.8,0,1.4,0.1,2l0,0
	c0,0.6,0.1,1.3,0.1,1.7c0,0.9-0.5,1.6-1.3,1.9c0.5,0.5,0.7,1.4,0.4,2.1l-0.7,1.9c-0.2,0.8-1,1.4-1.9,1.4c-1.1,0-2-0.9-2-2
	c0-0.9,0-2.4,0.2-3.7c0.2-1.2,0.6-2.2,1.2-2.8v-0.2l0,0l0,0c0-0.7-0.1-1.6-0.1-2.2c0-2.2,0.3-4.3,1.7-5.3c0-0.6,0.1-1.2,0.1-2.1
	c0-1.4,0.7-2.7,0.4-2.7c-1.1,0-2-0.9-2-2c0-0.9,0.1-1.7,0.3-2.2c0.1-0.3,0.1-0.5,0.3-0.7c0.2-0.3,0.4-0.5,0.6-0.6
	c0.4-0.4,0.9-0.7,1.5-0.7c0.6,0,0.8-0.3,0.8-0.6c0-0.2,0-0.5-0.1-0.7c-1.9-0.3-2.5-1.3-2.5-2.7c0-1.3,1-2.4,2.1-3.5
	c0.7-0.7,1.4-1.6,1.4-1.7c0-1.1-0.9-1.6-1.9-2.1c-2.3-1.2-4.9-2.6-4.9-7.6c0-1.1,0.9-2,2-2c1.6,0,2.3-0.5,2.6-1.1
	c0.1-0.2,0.1-0.5,0.1-0.8c0-0.3-0.1-0.6-0.1-0.9c-0.1-0.4-0.3-0.8-0.3-0.8l0,0c-0.5,0-1-0.2-1.4-0.6c-0.8-0.8-0.8-2,0-2.8
	c0.2-0.2,1.4-0.7,2.7-1.2c0.3-0.1,0.6-0.2,0.9-0.3c-0.8-0.6-1.6-1.8-2.4-3.8c-1.9-4.8,1.2-6.1,4-7.3c0.6-0.3,1.2,0.1,1.2-0.1
	c0-1.1,0.9-2,2-2c0.3,0,0.6-0.1,0.9-0.1l0,0l0,0c0.4-0.1,0.7-0.4,0.9-0.7c0.2-0.4,0.4-0.7,0.4-1.2c0-0.4-0.1-0.7-0.2-1.2
	c-2-4.9-0.8-5.8,0.6-6.6c0.2-0.9,1-1.5,1.9-1.5c0.6,0,1.1-0.8,1.5-1.4c0.4-0.7,0.8-1.3,1.3-1.7c0.1-0.4,0.4-0.9,0.6-1.4
	c0.8-1.8,2.2-4.7,2.2-9.2c0-2.4,0.4-5.4,0.6-7.1c0.1-0.6,0.1-1,0.1-1.1c0-2.2,0.6-4.8,0.8-5.5c0.1-1.7,1.4-4.2,3-6.6
	c1.7-2.5,3.8-5,5.4-6.6c0.1-0.1,0.1-0.3,0.2-0.4c0.6-1.3,3.5-7.4,3.5-10.2c0-3.3,3.1-6.9,5.6-9.9c0.7-0.9,1.4-1.6,1.9-2.2
	c-0.4-0.4-0.7-0.9-0.7-1.4c-0.4-0.4-0.7-0.9-0.7-1.6c0-0.1,0-0.6,0.1-1.2c0-0.5,0.1-1,0.1-1.9c0-1.2,0.8-2.5,0.4-2.5
	c-1.1,0-2-0.9-2-2c0-3.4-2.5-4.6-4.1-5.3c-0.6-0.3-1.2-0.6-1.7-0.9c-3.4,0.1-6.6,1.2-7.3,1.4l0,0l0,0c-0.3,0.1-0.4,0.1-0.7,0.1
	c-4.4,0-5.8,1.4-7.1,2.6c-1.4,1.4-2.7,2.7-5.7,2.7c-7.6,0-9.1-1.5-11.1-3.3l0,0c-1.2-1.2-2.7-2.4-8.1-3.3L406.6,281.4z M449.5,279.4
	c0,0.3,0.1,0,0.1-0.3L449.5,279.4z M447.9,321.9L447.9,321.9L447.9,321.9L447.9,321.9z M433.1,361.6c-0.1,0,0,0.1,0.1,0.1
	L433.1,361.6z M420.4,411.3C420.4,411.3,420.4,411.3,420.4,411.3C420.4,411.6,420.4,411.6,420.4,411.3z"/>
<path d="M455.9,288.7c-0.6,0.9-1.9,1.2-2.7,0.6c-0.9-0.6-1.2-1.9-0.6-2.7l0.4-0.5c2.7-4,3.7-5.6,4.8-6.3c1.3-0.9,2-0.7,3.2-0.3
	c0.4,0.1,0.9,0.3,1.7,0.3c0.9,0,1.3-0.4,1.7-0.9c1.2-1.4,2.5-2.8,6.6-2.8c1.1,0,2,0.9,2,2c0,0.4,0.1-0.4,0.3-0.4
	c0.4,0.1,0.8,0.1,1.2,0.1c0.4,0,0.9-0.1,1.4-0.2c1.1-0.3,2.1-0.9,2.1-1.7c0-0.9,0.6-1.7,1.4-1.9c0.6-1.1,2-2.3,8.1-2.3
	c0.9,0,2-0.4,3.1-0.7c1.3-0.4,2.4-0.9,3.7-0.9c3.4,0,5.7,2.4,5.7,12.6c0,0.3,0,0.6-0.1,0.9c0.4-0.1,0.9-0.1,1.3-0.1
	c2.4,0,4.4,0.9,5.9,2.5c1.4,1.4,2.4,3.5,3,5.7c0.3,1.2,0.4,2.4,0.4,3.7c0,1.2-0.1,2.3-0.3,3.4l0,0l0,0c-0.3,2.2-0.6,4.5,0.9,7.8
	c0.1,0.2,0.1,0.5,0.1,0.8l0,0v0.1c0,0.1,0,0.1,0,0.2c0,0.6,0.1,2.3,1,2.3c1.1,0,2,0.9,2,2c0,0.2,0.1-0.4,0.2-0.4
	c1.8,0,5-1.1,7.5-1.9c1.9-0.6,3.6-1.2,4.5-1.2c1.1,0,2,0.9,2,2c0,0.9,0.3,4.8,0.7,8.1c0.1,1.3,0.3,2.5,0.4,3.4
	c0.4-0.1,0.7-0.4,1.1-0.6c1.7-0.9,3.6-1.9,5.5-1.9c2.5,0,4.4,1.4,4.4,6c0,3.6-1.2,4.4-0.7,4.4c0.1,0,0-0.1,0.1-0.1
	c0.4-0.1,0.8-0.4,1.3-0.5c2.4-0.6,5.3,0.3,7.6,10c0.2,0.9,0.3,2.1,0.3,3.2c0,0.2,0,0.4,0,0.6c0.7-0.3,1.6-0.1,2.2,0.4
	c2.5,2.5,2.8,5.6,3,8.3c0.1,1.7,0.3,3.1,1.5,3.1c3.9,0,5,2.9,5.9,5.5c0.4,1,0.7,1.9,0.9,1.9c1,0,1.9,0.8,2,1.8l0,0l0,0
	c0.4,1.3,1.7,4.9,2.1,7.6c1.2,0.5,2.3,1.5,3.2,2.7c1.2,1.6,2.2,3.7,2.2,5.7c0,8.1,1.8,11.7,4,16.2c0.8,1.7,1.7,3.4,2.6,5.5l0,0
	c0,0.1,1.2,2.1,2.2,3.7c0.5,0.8,0.9,1.4,1,1.4c0.9,0.7,0.9,1.9,0.2,2.8c-0.7,0.9-1.9,0.9-2.8,0.2c-0.5-0.4-1.2-1.4-1.8-2.4
	c-0.9-1.4-1.9-3.4-2.3-4c-0.1-0.1-0.1-0.1-0.1-0.2v-0.1l0,0l0,0c-0.8-2-1.7-3.7-2.4-5.3c-2.4-5-4.5-8.9-4.5-17.9
	c0-1-0.6-2.2-1.3-3.2c-0.7-0.9-1.4-1.5-1.9-1.5c-1.1,0-2-0.9-2-2c0-1.7-1.2-5.4-1.8-7.3c-1.7-0.6-2.4-2.4-3.1-4.3
	c-0.5-1.4-1.1-2.9-2.2-2.9c-4.9,0-5.2-3-5.5-6.8c-0.1-1.4-0.3-3-0.9-4.4c-1.3,0.6-2.3,0.4-3.2-0.5c-1.1-1.1-1.1-2.8-1.2-4.7
	c0-0.9-0.1-1.9-0.2-2.4c-1.5-6.3-2.2-7.1-2.7-7c-0.1,0-0.4,0.1-0.6,0.2c-0.6,0.2-1.1,0.5-1.7,0.5c-2,0-3.2-1.5-3.2-8.4
	c0-1.5-0.1-2-0.4-2c-0.9,0-2.3,0.8-3.5,1.4c-0.7,0.4-1.4,0.7-2.1,1c-1.9,0.8-3.5,0.8-4.3-1.2l0,0l0,0c-0.3-0.7-0.6-3.1-0.9-5.7
	c-0.2-2-0.4-4.3-0.6-6c-0.4,0.1-0.9,0.3-1.4,0.5c-2.8,0.9-6.3,2.2-8.8,2.2c-1.9,0-3.3-0.5-3.9-1.9c-3-1-3.3-4.6-3.3-5.8
	c-1.7-4.2-1.3-6.8-1-9.5l0,0c0.1-0.9,0.2-1.9,0.2-3c0-1-0.1-1.9-0.3-2.8c-0.4-1.5-1-2.9-1.9-3.8c-0.8-0.8-1.8-1.3-3-1.3
	c-0.4,0-0.8,0.1-1.2,0.1c-3.4,0.8-4.6,0.6-5-1.2c-0.2-0.9,0.1-1.4,0.5-2.2c0.2-0.4,0.6-1,0.6-1.6c0-7-0.7-8.6-1.7-8.6
	c-0.6,0-1.5,0.3-2.4,0.6c-1.4,0.5-2.8,1-4.4,1c-4.5,0-4.6,0.3-4.7,0.4c-0.3,0.6-0.5,1.2-1.1,1.5c-0.7,2-2.6,3.3-4.8,3.9
	c-0.7,0.2-1.5,0.3-2.3,0.4c-0.8,0-1.5,0-2.2-0.1c-1.2-0.2-2.1-0.7-2.7-1.4c-1.3,0.2-1.9,0.8-2.3,1.4c-1.1,1.2-2,2.3-4.7,2.3
	c-1.3,0-2.2-0.2-2.8-0.4c-0.5,0.6-1.5,2.1-3.5,5l-0.4,0.5L455.9,288.7z M548.7,344.1L548.7,344.1
	C548.9,344.4,548.9,344.3,548.7,344.1z M564.3,363.9c0,0.1,0,0.1,0,0.2C564.3,364.4,564.3,364,564.3,363.9L564.3,363.9z"/>
<path d="M440.3,261.5c-0.5,1-1.7,1.4-2.7,0.9c-1-0.5-1.4-1.7-0.9-2.7c0.4-0.8,0.7-1.4,1.1-2.1c1.7-3.3,2.4-4.7,2.4-8.4
	c-1-1.1-2.2-2.7-3.1-4.4c-1.2-2.2-2.2-4.5-2.2-6c0-4.1,1.3-5.5,2.6-6.8c0.4-0.5,0.9-0.9,1.1-1.9c-0.4-0.4-0.9-0.8-1.4-1.3
	c-1.9-1.8-4.8-4.5-7.8-4.5c-3.5,0-6.6-2.2-9.3-4c-1.6-1.1-2.9-2-3.5-2c-0.9,0-1.7-0.6-1.9-1.4c-0.7-1.7-4.8-11,3.4-14.4
	c0.1-0.1,0.7-0.4,1.4-0.8c-1.4-1.6-3.5-3.7-5-5.8c-1.1-1.4-2-2.7-2.4-3.7c-1.6-1.1-3.5-3.4-5-5.9c-1.5-2.4-2.8-5.2-3.3-7.3
	c-0.6-0.4-0.9-0.9-0.9-1.8c0-1.3,0.9-1.9,2.2-2.7c0.8-0.5,1.9-1.2,2.7-1.9c0.6-0.6,0.9-1.3,0.1-2l-0.1-0.1l-0.3-0.3
	c-2-2-7.7-7.6-7.7-10c0-2.2,0.2-2.6,0.1-2.6c-0.2,0-0.5,0-0.8,0.1c-1.4,0.1-3.5,0.3-6.4-0.9c-1.1-0.4-1.7-1-2.2-1.7
	c-0.6-1.2-0.4-2.3,0.5-3.2c0.4-0.5,1.2-0.9,1.9-1.4c1.3-0.6,3-1.2,4.4-1.6c-0.2-1.2-0.7-1.4-1.2-1.7c-1.9-1.1-3.9-2.2-3.9-8.7v-0.1
	c-0.9-0.2-2-0.5-3.2-1l0,0l0,0c-0.1-0.1,0.1,0.1-0.1,0c-0.9-0.1-2.3-0.4-3.5-1.3c-2.1-1.5-3.2-4.2,0.5-9.3c1.9-2.7,1.9-2.9,1.7-3
	c-0.7-1.2-1.6-2.5,0.3-7.1c0.4-0.9,0.7-1.5,1.3-1.9c0-0.1,0.1-0.1,0.1-0.2c0.2-0.6,0.5-1.4,0.9-2.3l0,0l0,0c0.1-0.1,0.1-0.4,0.2-0.6
	c0.5-1.7,1.2-4,3.6-4.9c0.4-1.8,1.3-3.1,2-4.1c0.2-0.4,0.4-0.6,0.4-0.6c0.1-0.5-0.7,0.6-3,0.1c-1.1-0.2-1.8-1.3-1.5-2.4
	c0.2-1.1,1.3-1.8,2.4-1.5c5.3,1.2,6.5,2.4,6,4.6c-0.1,0.8-0.6,1.4-1.1,2.1c-0.6,0.9-1.4,1.9-1.4,3.5c0,1.1-0.9,2-2,2
	c-0.9,0-1.3,1.4-1.6,2.2c-0.1,0.4-0.2,0.7-0.4,1l0,0c0,0.1-0.1,0.1-0.4,0c0.4,0.5,0.5,1.2,0.5,2.2c0,1.1-0.9,2-2,2
	c-0.3,0-0.3-0.1-0.4-0.1c-0.1,0.1,0.1,0.1-0.1,0.4c-1.1,2.6-0.8,3-0.6,3.4c0.9,1.5,1.7,2.6-1.9,7.5c-1.8,2.5-1.8,3.4-1.4,3.7
	c0.4,0.4,1.4,0.5,1.9,0.6c0.4,0.1,0.6,0.1,0.9,0.2l0,0c1.2,0.5,2,0.8,2.6,0.9c0.1-0.1,0.1-0.2,0.2-0.3c1.7-1.9,3.5-1,4,0.7
	c0.3,0.9,0.1,2.2-1.1,3c0,0.1,0,0.4,0,0.5c0,4.2,0.9,4.8,1.9,5.3c1.7,1,3.4,1.9,3.4,6.8c0,1.1-0.9,2-2,2c-0.2,0-2.1,0.5-3.7,1.2
	c1.2,0.2,2.2,0.1,3,0.1c0.4,0,0.7-0.1,1.1-0.1c2.7,0,3.9,0.9,3.9,6.6c0,0.8,4.8,5.5,6.5,7.1l0,0l0.3,0.3c0.1,0,0.1,0.1,0.1,0.1
	c3,3,1.9,5.6-0.1,7.7c-0.9,0.9-2.1,1.7-3,2.3c0.1,1.4,1.4,4.1,3,6.6c1.5,2.5,3,4.6,3.3,4.6c1.1,0,2,0.9,2,2c0,0.1,0.8,1.3,1.9,2.7
	c2.2,2.8,5.5,6.2,6.5,7.2c0.8,0.8,0.8,2,0,2.8c-0.2,0.2-1.2,0.8-2,1.4c-0.9,0.6-2,1.2-2.4,1.3c-3.8,1.6-2.4,6.4-1.6,8.4
	c1.3,0.4,2.7,1.4,4.2,2.4c2.2,1.5,4.8,3.3,7.1,3.3c4.6,0,8.2,3.5,10.5,5.7c0.6,0.6,0.4,1.1,0.7,1.1c1.1,0,2,0.9,2,2
	c0,3.4-1.2,4.5-2.3,5.8c-0.7,0.7-1.4,1.5-1.4,4c0,0.8,0.7,2.4,1.7,4.1c1,1.9,1.4,3.7,1.6,3.7c1.1,0,2,0.9,2,2c0,5.1-0.8,6.7-3,10.9
	c-0.3,0.6-0.6,1.3-1,2L440.3,261.5z"/>
<path class="st2" d="M93.8,259.5c-1.1,0.3-2.2-0.3-2.5-1.3c-0.3-1.1,0.3-2.2,1.3-2.5c4.5-1.4,5.1-4.3,5.7-7.1
	c0.9-4.6,1.8-8.8,10.9-8.8c1.1,0,2,0.9,2,2c0,3.2,0.9,6,2.2,7.6c0.4,0.5,0.9,0.9,1.3,1c0.3,0.1,0.6,0.1,0.8-0.1
	c0.8-0.4,1.6-1.4,2.4-3.4c0.6-1.6,1.2-2.9,1.5-4c0.9-2.5,1.4-4,2.8-5c1.7-1.3,3.8-1.3,8.7-1.3h0.8l0,0c0.1,0,1.2-2.6,2.4-5.3
	c1.7-3.8,3.6-7.9,6-8.9c2.1-0.9,4-0.1,5.5,3.5c0.4,1.1,1.2,1.7,1.9,2c0.8,0.3,1.7,0.2,2.7-0.1c1.2-0.4,2.3-1.2,3.5-2.2
	c2.5-2.4,4.5-6.2,4.5-10.9c0-0.1,0.1-0.5,0.1-1.2l0,0l0,0c0.4-2.7,1.4-10.7,1.4-15.3c0-8.6,1.7-9.2,3.7-9.9
	c1.1-0.4,2.4-0.9,2.4-17.1c0-8.3-1.8-10.4-3-11.7c-2-2.3-3.1-3.6,0.1-11.5c1-2.4,2.6-2.9,4.1-3.4c0.9-0.3,1.7-0.5,1.7-3.4
	c0-1.1,0.9-2,2-2c0.9,0,1.2-0.1,1.2-0.2c0-0.4-0.1-0.9-0.1-1.4c-0.4-2.9-1-6.3,3.8-8.5l2.7-2.7c0.8-0.8,2-0.8,2.8,0
	c0.8,0.8,0.8,2,0,2.8l-3,3l0,0c-0.2,0.2-0.4,0.4-0.6,0.4c-2.4,1-2.1,2.8-1.8,4.4c0.1,0.7,0.2,1.4,0.2,2c0,2.1-0.6,3.6-3.2,4.1
	c-0.4,4.1-2.4,4.8-4.5,5.3c-0.6,0.2-1.3,0.4-1.6,1.1c-2.4,5.7-1.8,6.3-0.9,7.3c1.7,1.9,4,4.5,4,14.4c0,19-2.7,20-5,20.9
	c-0.6,0.2-1,0.4-1,6.1c0,4.6-1,12.9-1.4,15.8l0,0c-0.1,0.5-0.1,0.7-0.1,0.7c0,6-2.6,10.9-5.8,13.9c-1.5,1.4-3.2,2.4-4.9,3
	c-1.8,0.6-3.6,0.7-5.3,0.1c-1.9-0.6-3.5-2-4.4-4.3c-0.4-0.9-0.1-1.4-0.2-1.4c-0.9,0.4-2.4,3.7-3.9,6.9c-1.8,4-3.5,7.7-6,7.7l0,0
	h-0.8c-4,0-5.7,0-6.3,0.5c-0.4,0.4-0.8,1.4-1.5,3.2c-0.4,1.1-0.9,2.4-1.6,4.1c-1.2,2.9-2.7,4.6-4.2,5.4c-1.3,0.6-2.7,0.7-4,0.3
	c-1.2-0.4-2.2-1.2-3-2.3c-1.5-1.9-2.6-4.8-3-8c-4.1,0.5-4.6,2.9-5.1,5.5c-0.8,3.9-1.7,8.1-8.4,10.1L93.8,259.5z"/>
</svg>
