<?xml version='1.0' encoding='utf-8'?>
<svg xmlns="http://www.w3.org/2000/svg" width="13in" height="18in" version="1.1" style="shape-rendering:geometricPrecision; text-rendering:geometricPrecision; image-rendering:optimizeQuality; fill-rule:evenodd; clip-rule:evenodd" viewBox="0 0 13000 18000"> <defs> <style type="text/css">  .str0 {stroke:black;stroke-width:283.406;stroke-linecap:round;stroke-linejoin:round} .fil0 {fill:none} .fil1 {fill:#FBFFFF}  </style> </defs> <g id="Layer_x0020_1"> <metadata id="CorelCorpID_0Corel-Layer"/> <g id="_1106522928"> <g> <path class="fil0 str0" d="M9349 7289c-85,-25 -77,-125 -100,-211 -34,-126 -81,-139 -140,-204l20 -126c193,83 271,260 220,542zm-1652 -1618l8 64c-77,1 -76,12 -127,-18 -54,11 -42,7 -92,27 -58,23 -22,21 -93,41 84,180 345,34 352,403 -94,-48 -97,-85 -232,-139 -125,-50 -144,-104 -280,-107 -47,208 -94,119 -188,765 -40,270 -56,572 -60,892 -2,141 -24,180 -24,453l29 923c15,109 39,308 39,437 82,2 189,31 255,40 94,12 194,7 290,6 183,0 367,-46 545,-46l-119 -45c16,-201 -28,-609 -121,-781 -145,-266 -132,49 -297,-635 -34,-141 -64,-225 -143,-309 -46,-49 -176,-183 -167,-291 11,-132 126,-151 77,-386 -20,-96 -94,-214 -103,-245 -41,-137 -9,-69 11,-93l37 75c15,44 16,63 37,96 39,61 82,64 95,165 22,183 -112,240 -88,397 22,141 141,185 225,272 86,90 126,229 147,379 130,-9 257,-26 387,-31 129,-5 269,29 378,19l518 -696c-76,-213 -155,-72 -98,-499 36,-269 -170,-327 -454,-523 -55,-38 -140,-125 -176,-143 -157,-81 -407,29 -465,-207 223,71 326,90 584,92 84,115 18,124 151,209 611,390 421,275 469,641 79,609 535,580 619,871 -148,-89 -68,-106 -297,-146 -216,-38 -129,-69 -203,-216 -222,150 -444,443 -538,703 -322,-20 -1153,-180 -694,357 198,232 279,648 357,948 86,-33 323,-62 423,-86 127,-30 289,-87 415,-95 -50,-79 -41,-60 -49,-164l137 0 -18 119c95,-7 238,-62 323,-94 188,-70 226,-62 252,-156 40,-143 73,-596 18,-747 -66,-82 -357,-228 -464,-312l470 136 -113 -595c-136,-555 -343,-1178 -454,-1655 -292,0 -811,-194 -1485,-68z"/> <path id="1" class="fil1" d="M9349 7289c-85,-25 -77,-125 -100,-211 -34,-126 -81,-139 -140,-204l20 -126c193,83 271,260 220,542zm-1652 -1618l8 64c-77,1 -76,12 -127,-18 -54,11 -42,7 -92,27 -58,23 -22,21 -93,41 84,180 345,34 352,403 -94,-48 -97,-85 -232,-139 -125,-50 -144,-104 -280,-107 -47,208 -94,119 -188,765 -40,270 -56,572 -60,892 -2,141 -24,180 -24,453l29 923c15,109 39,308 39,437 82,2 189,31 255,40 94,12 194,7 290,6 183,0 367,-46 545,-46l-119 -45c16,-201 -28,-609 -121,-781 -145,-266 -132,49 -297,-635 -34,-141 -64,-225 -143,-309 -46,-49 -176,-183 -167,-291 11,-132 126,-151 77,-386 -20,-96 -94,-214 -103,-245 -41,-137 -9,-69 11,-93l37 75c15,44 16,63 37,96 39,61 82,64 95,165 22,183 -112,240 -88,397 22,141 141,185 225,272 86,90 126,229 147,379 130,-9 257,-26 387,-31 129,-5 269,29 378,19l518 -696c-76,-213 -155,-72 -98,-499 36,-269 -170,-327 -454,-523 -55,-38 -140,-125 -176,-143 -157,-81 -407,29 -465,-207 223,71 326,90 584,92 84,115 18,124 151,209 611,390 421,275 469,641 79,609 535,580 619,871 -148,-89 -68,-106 -297,-146 -216,-38 -129,-69 -203,-216 -222,150 -444,443 -538,703 -322,-20 -1153,-180 -694,357 198,232 279,648 357,948 86,-33 323,-62 423,-86 127,-30 289,-87 415,-95 -50,-79 -41,-60 -49,-164l137 0 -18 119c95,-7 238,-62 323,-94 188,-70 226,-62 252,-156 40,-143 73,-596 18,-747 -66,-82 -357,-228 -464,-312l470 136 -113 -595c-136,-555 -343,-1178 -454,-1655 -292,0 -811,-194 -1485,-68z"/> </g> <g> <path class="fil0 str0" d="M6370 7540c-121,-246 -58,19 -167,-275 -89,-33 -208,-97 -128,-234 55,15 30,-2 63,51l92 203c3,3 99,67 119,85 51,45 53,46 79,116 -40,66 14,17 -59,55zm-2228 -939c12,145 63,100 82,255 58,470 -79,406 -98,542 -10,71 47,151 66,245l42 -52c121,18 161,59 202,138l-121 -27c25,144 34,76 121,147 -24,100 -43,99 -5,195 41,104 86,134 -55,140l-36 -144c-15,103 -42,156 -34,285 237,102 30,-5 274,271 67,76 230,206 269,295 -158,-49 -306,-244 -409,-336 -68,-61 -105,-111 -218,-144 -107,-30 -216,-49 -323,-73 0,238 -6,453 109,580 208,231 1342,479 1614,485 15,-31 -39,-49 -84,-107 98,-136 130,-196 197,-383 52,-145 131,-279 194,-401 -38,-64 -65,-70 -103,-143 -41,-78 -22,-93 -88,-161 -51,-54 -67,-55 -126,-124 -48,-56 -79,-79 -136,-145 26,-91 65,-117 65,-227l-130 -50c99,-297 -211,-518 309,-705 -1,215 7,70 -100,187 -36,39 -78,117 -62,198 5,23 86,259 194,310l37 15c-29,70 41,-35 -68,55 -29,24 -15,-72 -52,85 -69,290 117,253 166,269 73,189 195,328 303,499 -84,141 -51,-31 -232,374 -72,161 -128,289 -142,487 144,0 276,43 410,45 -27,-66 -37,-58 -30,-146 176,24 87,43 159,142l50 4c24,-46 -24,-27 63,-38 139,-91 160,-35 196,-151 125,-404 95,-2800 -83,-3115 -127,47 -115,87 -201,178 -70,74 -131,66 -214,149 -186,185 -186,191 -182,550l-144 40c-116,-482 42,-496 137,-674 -117,-236 -241,-243 -327,-571 -109,-56 -127,-26 -227,-130 -66,-70 -96,-139 -180,-182 -310,19 -586,113 -755,287 -93,96 -135,202 -178,344 -39,127 -88,289 -116,434z"/> <path id="1" class="fil1" d="M6370 7540c-121,-246 -58,19 -167,-275 -89,-33 -208,-97 -128,-234 55,15 30,-2 63,51l92 203c3,3 99,67 119,85 51,45 53,46 79,116 -40,66 14,17 -59,55zm-2228 -939c12,145 63,100 82,255 58,470 -79,406 -98,542 -10,71 47,151 66,245l42 -52c121,18 161,59 202,138l-121 -27c25,144 34,76 121,147 -24,100 -43,99 -5,195 41,104 86,134 -55,140l-36 -144c-15,103 -42,156 -34,285 237,102 30,-5 274,271 67,76 230,206 269,295 -158,-49 -306,-244 -409,-336 -68,-61 -105,-111 -218,-144 -107,-30 -216,-49 -323,-73 0,238 -6,453 109,580 208,231 1342,479 1614,485 15,-31 -39,-49 -84,-107 98,-136 130,-196 197,-383 52,-145 131,-279 194,-401 -38,-64 -65,-70 -103,-143 -41,-78 -22,-93 -88,-161 -51,-54 -67,-55 -126,-124 -48,-56 -79,-79 -136,-145 26,-91 65,-117 65,-227l-130 -50c99,-297 -211,-518 309,-705 -1,215 7,70 -100,187 -36,39 -78,117 -62,198 5,23 86,259 194,310l37 15c-29,70 41,-35 -68,55 -29,24 -15,-72 -52,85 -69,290 117,253 166,269 73,189 195,328 303,499 -84,141 -51,-31 -232,374 -72,161 -128,289 -142,487 144,0 276,43 410,45 -27,-66 -37,-58 -30,-146 176,24 87,43 159,142l50 4c24,-46 -24,-27 63,-38 139,-91 160,-35 196,-151 125,-404 95,-2800 -83,-3115 -127,47 -115,87 -201,178 -70,74 -131,66 -214,149 -186,185 -186,191 -182,550l-144 40c-116,-482 42,-496 137,-674 -117,-236 -241,-243 -327,-571 -109,-56 -127,-26 -227,-130 -66,-70 -96,-139 -180,-182 -310,19 -586,113 -755,287 -93,96 -135,202 -178,344 -39,127 -88,289 -116,434z"/> </g> <g> <path class="fil0 str0" d="M2289 5943c8,193 50,182 228,224 130,31 277,36 417,39 -28,83 -54,68 -144,82 -63,10 -150,33 -205,31 -145,-5 -217,-149 -364,10 -44,177 -82,442 -108,619 -17,120 -32,212 -49,314 -16,95 -48,225 -46,314 94,168 190,79 369,129 57,16 268,152 332,189 267,151 533,176 884,163 0,-150 37,-292 58,-444 22,-156 44,-321 54,-467 22,-324 64,-635 43,-997 -68,-51 -362,-91 -456,-50 0,0 -177,173 -438,28 113,-111 231,-5 405,-85 143,-66 301,-6 471,9 0,-338 -55,-733 -347,-869 -75,-35 -231,-77 -328,-69 -736,60 -659,595 -777,833z"/> <path id="1" class="fil1" d="M2289 5943c8,193 50,182 228,224 130,31 277,36 417,39 -28,83 -54,68 -144,82 -63,10 -150,33 -205,31 -145,-5 -217,-149 -364,10 -44,177 -82,442 -108,619 -17,120 -32,212 -49,314 -16,95 -48,225 -46,314 94,168 190,79 369,129 57,16 268,152 332,189 267,151 533,176 884,163 0,-150 37,-292 58,-444 22,-156 44,-321 54,-467 22,-324 64,-635 43,-997 -68,-51 -362,-91 -456,-50 0,0 -177,173 -438,28 113,-111 231,-5 405,-85 143,-66 301,-6 471,9 0,-338 -55,-733 -347,-869 -75,-35 -231,-77 -328,-69 -736,60 -659,595 -777,833z"/> </g> <g> <path class="fil0 str0" d="M11261 6413c23,-178 -38,-211 36,-326 55,-85 110,-141 203,-182 -10,107 -41,176 -42,288 -5,552 14,128 -298,345 -80,55 -164,115 -247,142 27,202 117,173 89,334l-223 -210c117,-266 120,-377 483,-392zm-1127 1825c328,-42 996,-473 1278,-442 22,-174 56,-229 -6,-428 -62,-202 -127,-150 -219,-298 82,15 101,41 187,24 89,-215 -52,-341 -22,-521 1,7 81,209 100,251 77,170 82,60 74,277 -8,197 77,491 171,615 0,-81 4,-174 0,-253 -6,-103 -23,-107 -23,-227l91 0c-22,-41 -30,-47 -53,-83 -47,-71 -32,5 -39,-120l-21 -919c-23,-11 -38,-13 -68,-34 -57,-41 -22,-11 -50,-49l96 10 0 -120 -21 -23c-27,-73 -111,-170 -159,-228 -90,-109 -114,-98 -112,-271 -146,-74 -261,-129 -478,-139l-204 -21c-115,2 -124,24 -249,24 -49,92 -104,179 -163,268 -244,364 -274,412 -203,1051l71 1222c-1,152 23,257 23,435z"/> <path id="1" class="fil1" d="M11261 6413c23,-178 -38,-211 36,-326 55,-85 110,-141 203,-182 -10,107 -41,176 -42,288 -5,552 14,128 -298,345 -80,55 -164,115 -247,142 27,202 117,173 89,334l-223 -210c117,-266 120,-377 483,-392zm-1127 1825c328,-42 996,-473 1278,-442 22,-174 56,-229 -6,-428 -62,-202 -127,-150 -219,-298 82,15 101,41 187,24 89,-215 -52,-341 -22,-521 1,7 81,209 100,251 77,170 82,60 74,277 -8,197 77,491 171,615 0,-81 4,-174 0,-253 -6,-103 -23,-107 -23,-227l91 0c-22,-41 -30,-47 -53,-83 -47,-71 -32,5 -39,-120l-21 -919c-23,-11 -38,-13 -68,-34 -57,-41 -22,-11 -50,-49l96 10 0 -120 -21 -23c-27,-73 -111,-170 -159,-228 -90,-109 -114,-98 -112,-271 -146,-74 -261,-129 -478,-139l-204 -21c-115,2 -124,24 -249,24 -49,92 -104,179 -163,268 -244,364 -274,412 -203,1051l71 1222c-1,152 23,257 23,435z"/> </g> <g> <path class="fil0 str0" d="M5214 12758c328,16 158,50 363,113 56,-61 36,-78 95,-120 55,-39 94,-29 147,-81 82,-79 283,-474 318,-588 47,-151 -11,-276 114,-355l-69 527c34,10 42,8 82,31l75 64 -192 -27c-87,159 -85,281 -205,405 -117,120 -273,113 -322,292 175,139 200,28 415,289l319 294c54,56 15,7 44,58 -168,-34 -331,-216 -573,-392 -81,-59 -216,-138 -281,-195 -109,-96 -102,-156 -309,-162 0,145 39,381 62,500 36,186 72,286 142,428l91 -13c85,52 136,165 204,215l80 -1 -26 -146c40,7 114,20 150,34 80,31 57,1 59,88 87,-34 155,-50 237,-90 77,-38 145,-95 226,-114 0,-253 114,-1044 136,-1375l-258 23c84,-217 109,-42 253,-121 9,-76 22,-89 27,-160 4,-58 -2,-120 2,-179 9,-119 22,-210 21,-364 -67,-96 -105,-54 -166,-205 111,10 82,10 167,56 0,-130 25,-308 -45,-388 -61,84 7,290 -231,413 31,-180 64,-84 106,-182 27,-62 8,-186 11,-261 -109,-2 -261,-38 -371,-58 -143,-26 -245,-41 -389,-65 -802,-135 -669,107 -527,1434 8,74 17,104 19,209 2,91 17,140 0,171z"/> <path id="1" class="fil1" d="M5214 12758c328,16 158,50 363,113 56,-61 36,-78 95,-120 55,-39 94,-29 147,-81 82,-79 283,-474 318,-588 47,-151 -11,-276 114,-355l-69 527c34,10 42,8 82,31l75 64 -192 -27c-87,159 -85,281 -205,405 -117,120 -273,113 -322,292 175,139 200,28 415,289l319 294c54,56 15,7 44,58 -168,-34 -331,-216 -573,-392 -81,-59 -216,-138 -281,-195 -109,-96 -102,-156 -309,-162 0,145 39,381 62,500 36,186 72,286 142,428l91 -13c85,52 136,165 204,215l80 -1 -26 -146c40,7 114,20 150,34 80,31 57,1 59,88 87,-34 155,-50 237,-90 77,-38 145,-95 226,-114 0,-253 114,-1044 136,-1375l-258 23c84,-217 109,-42 253,-121 9,-76 22,-89 27,-160 4,-58 -2,-120 2,-179 9,-119 22,-210 21,-364 -67,-96 -105,-54 -166,-205 111,10 82,10 167,56 0,-130 25,-308 -45,-388 -61,84 7,290 -231,413 31,-180 64,-84 106,-182 27,-62 8,-186 11,-261 -109,-2 -261,-38 -371,-58 -143,-26 -245,-41 -389,-65 -802,-135 -669,107 -527,1434 8,74 17,104 19,209 2,91 17,140 0,171z"/> </g> <g> <path class="fil0 str0" d="M680 5223c257,-3 333,-161 560,-73l-63 24c-200,43 -349,96 -487,100 -72,156 -26,348 -28,520l-33 -72c-13,-31 -5,-21 -17,-46 -52,204 -91,612 -91,866 107,-26 129,-42 216,-87 70,-37 149,-46 207,-80 -48,-92 -172,-215 -84,-363 35,43 29,101 42,163 44,205 188,166 289,295 -160,41 -143,-117 -336,11 -41,27 -111,79 -152,98 -76,36 -115,18 -169,44l-14 453 22 23c76,94 128,12 277,109 53,34 144,131 189,174 79,76 110,111 169,216 112,198 94,81 153,194 -288,-75 -300,-517 -787,-610 23,55 20,85 37,151 15,58 34,107 53,150 38,84 88,199 159,248 36,-49 75,-90 113,-128 43,44 38,65 60,138 20,66 38,116 52,174l46 7 76 -11 12 49 117 0c209,-313 340,-697 340,-1095 -137,92 -205,218 -353,315 55,-262 363,-452 399,-535 -5,-394 158,-1095 136,-1542 -5,-104 -26,-118 -46,-205l-465 63c-189,28 -85,20 -131,-26 138,-48 392,-64 489,-104 -33,-53 -65,-50 -211,-47 -142,3 -601,89 -703,138 -17,72 -44,217 -45,300z"/> <path id="1" class="fil1" d="M680 5223c257,-3 333,-161 560,-73l-63 24c-200,43 -349,96 -487,100 -72,156 -26,348 -28,520l-33 -72c-13,-31 -5,-21 -17,-46 -52,204 -91,612 -91,866 107,-26 129,-42 216,-87 70,-37 149,-46 207,-80 -48,-92 -172,-215 -84,-363 35,43 29,101 42,163 44,205 188,166 289,295 -160,41 -143,-117 -336,11 -41,27 -111,79 -152,98 -76,36 -115,18 -169,44l-14 453 22 23c76,94 128,12 277,109 53,34 144,131 189,174 79,76 110,111 169,216 112,198 94,81 153,194 -288,-75 -300,-517 -787,-610 23,55 20,85 37,151 15,58 34,107 53,150 38,84 88,199 159,248 36,-49 75,-90 113,-128 43,44 38,65 60,138 20,66 38,116 52,174l46 7 76 -11 12 49 117 0c209,-313 340,-697 340,-1095 -137,92 -205,218 -353,315 55,-262 363,-452 399,-535 -5,-394 158,-1095 136,-1542 -5,-104 -26,-118 -46,-205l-465 63c-189,28 -85,20 -131,-26 138,-48 392,-64 489,-104 -33,-53 -65,-50 -211,-47 -142,3 -601,89 -703,138 -17,72 -44,217 -45,300z"/> </g> <g> <path class="fil0 str0" d="M6982 12519l9 45c-17,125 -7,258 -8,386 -1,166 23,236 24,385 1,494 -62,554 135,658l18 -43c38,40 39,53 72,89 108,-155 80,-316 25,-501 -50,-167 57,-287 -100,-376 -83,-47 -53,20 -83,-76 87,-46 216,12 247,113 19,60 60,285 73,359 146,-27 291,-75 435,-102 223,-42 326,1 490,62 0,-177 19,-282 23,-432 3,-125 24,-329 45,-439 -74,-69 -31,-125 -92,-206l34 -21c4,-3 26,-15 32,-19 49,-33 51,35 47,-153 -126,-66 -209,-110 -266,-231 -90,-189 -138,-108 -272,-226 -216,-191 8,-354 -102,-554 -32,-58 -50,-123 -83,-164 -208,2 -484,64 -703,64l-1 1383z"/> <path id="1" class="fil1" d="M6982 12519l9 45c-17,125 -7,258 -8,386 -1,166 23,236 24,385 1,494 -62,554 135,658l18 -43c38,40 39,53 72,89 108,-155 80,-316 25,-501 -50,-167 57,-287 -100,-376 -83,-47 -53,20 -83,-76 87,-46 216,12 247,113 19,60 60,285 73,359 146,-27 291,-75 435,-102 223,-42 326,1 490,62 0,-177 19,-282 23,-432 3,-125 24,-329 45,-439 -74,-69 -31,-125 -92,-206l34 -21c4,-3 26,-15 32,-19 49,-33 51,35 47,-153 -126,-66 -209,-110 -266,-231 -90,-189 -138,-108 -272,-226 -216,-191 8,-354 -102,-554 -32,-58 -50,-123 -83,-164 -208,2 -484,64 -703,64l-1 1383z"/> </g> <g> <path class="fil0 str0" d="M13276 6102c59,31 466,78 595,98 8,1 92,15 94,16 106,33 -23,-16 50,23l31 23c-178,20 -559,-78 -785,-99 0,253 55,528 118,728 52,164 191,460 358,504l-16 -108c62,43 34,38 106,73 648,-285 529,-1431 448,-2254 -110,-186 -307,-115 -368,-341 145,58 217,156 351,238 0,-143 -23,-235 -23,-404 -180,-70 -151,-101 -274,-194 -103,-78 -245,-90 -274,-214 82,36 195,100 255,142 94,66 141,110 269,144 -85,-200 -112,-323 -521,-323 -162,242 -266,520 -335,844 -48,226 -147,825 -83,1106z"/> <path id="1" class="fil1" d="M13276 6102c59,31 466,78 595,98 8,1 92,15 94,16 106,33 -23,-16 50,23l31 23c-178,20 -559,-78 -785,-99 0,253 55,528 118,728 52,164 191,460 358,504l-16 -108c62,43 34,38 106,73 648,-285 529,-1431 448,-2254 -110,-186 -307,-115 -368,-341 145,58 217,156 351,238 0,-143 -23,-235 -23,-404 -180,-70 -151,-101 -274,-194 -103,-78 -245,-90 -274,-214 82,36 195,100 255,142 94,66 141,110 269,144 -85,-200 -112,-323 -521,-323 -162,242 -266,520 -335,844 -48,226 -147,825 -83,1106z"/> </g> <g> <path class="fil0 str0" d="M-2177 4628c72,24 43,18 0,68l0 -68zm203 -658c7,137 60,176 95,291 51,169 -8,165 81,301l-116 26c15,-163 -37,-305 -128,-389 0,70 -32,230 -55,283 -36,84 -106,98 -195,145 212,402 -133,536 55,1079 45,129 110,188 172,283 159,-6 365,-100 504,-50 -119,43 -332,61 -408,140 137,36 153,134 380,115 131,-11 239,-144 276,-251 -125,-491 -385,-256 -557,-478 481,66 382,121 538,165 51,-59 101,-87 147,-140 62,-981 355,-1095 -110,-1973 -188,0 -347,26 -458,109 -151,114 -143,183 -223,344z"/> <path id="1" class="fil1" d="M-2177 4628c72,24 43,18 0,68l0 -68zm203 -658c7,137 60,176 95,291 51,169 -8,165 81,301l-116 26c15,-163 -37,-305 -128,-389 0,70 -32,230 -55,283 -36,84 -106,98 -195,145 212,402 -133,536 55,1079 45,129 110,188 172,283 159,-6 365,-100 504,-50 -119,43 -332,61 -408,140 137,36 153,134 380,115 131,-11 239,-144 276,-251 -125,-491 -385,-256 -557,-478 481,66 382,121 538,165 51,-59 101,-87 147,-140 62,-981 355,-1095 -110,-1973 -188,0 -347,26 -458,109 -151,114 -143,183 -223,344z"/> </g> <g> <path class="fil0 str0" d="M2108 11362c1,200 24,394 42,570 17,161 7,439 82,541 74,50 168,49 272,59 -81,31 -109,59 -237,59 53,87 110,195 203,268 379,300 702,227 786,-304l54 -898c-1,-187 24,-277 23,-453 -1,-169 0,-338 0,-507 -195,47 -119,112 -349,64 -93,-19 -373,-7 -447,33 -64,35 -62,76 -106,143 -56,84 -78,72 -109,138 -55,116 12,56 -102,148 -66,53 -74,52 -112,138z"/> <path id="1" class="fil1" d="M2108 11362c1,200 24,394 42,570 17,161 7,439 82,541 74,50 168,49 272,59 -81,31 -109,59 -237,59 53,87 110,195 203,268 379,300 702,227 786,-304l54 -898c-1,-187 24,-277 23,-453 -1,-169 0,-338 0,-507 -195,47 -119,112 -349,64 -93,-19 -373,-7 -447,33 -64,35 -62,76 -106,143 -56,84 -78,72 -109,138 -55,116 12,56 -102,148 -66,53 -74,52 -112,138z"/> </g> <g> <path class="fil0 str0" d="M-716 5104l-11 91c-8,115 -45,287 -61,392 -19,131 -55,298 -49,424 106,75 189,54 241,187 140,357 -456,625 403,746 34,-60 97,-118 146,-135 43,114 8,129 -136,271 -117,-20 -482,-171 -538,-139 90,180 302,364 561,385 150,-100 324,-344 340,-578l-239 23c-3,-130 48,-131 -37,-257 -51,-75 -92,-107 -142,-188 218,40 53,62 216,181 79,57 128,94 247,76 0,-550 -5,-1050 -25,-1592 -123,-151 -146,-130 -207,-382 -34,-143 2,-140 -131,-156 -129,-16 -158,-38 -273,-63 -140,141 -165,28 -227,283 -35,140 -47,273 -79,432z"/> <path id="1" class="fil1" d="M-716 5104l-11 91c-8,115 -45,287 -61,392 -19,131 -55,298 -49,424 106,75 189,54 241,187 140,357 -456,625 403,746 34,-60 97,-118 146,-135 43,114 8,129 -136,271 -117,-20 -482,-171 -538,-139 90,180 302,364 561,385 150,-100 324,-344 340,-578l-239 23c-3,-130 48,-131 -37,-257 -51,-75 -92,-107 -142,-188 218,40 53,62 216,181 79,57 128,94 247,76 0,-550 -5,-1050 -25,-1592 -123,-151 -146,-130 -207,-382 -34,-143 2,-140 -131,-156 -129,-16 -158,-38 -273,-63 -140,141 -165,28 -227,283 -35,140 -47,273 -79,432z"/> </g> <g> <path class="fil0 str0" d="M11869 6147c-22,114 46,705 66,852 20,145 37,254 64,389 22,108 77,287 85,394 83,73 166,207 272,246 223,-1 300,-32 430,-250 87,-146 167,-272 234,-446 83,-213 89,-295 120,-561 21,-179 -59,-439 -59,-626 -75,-12 -582,-100 -598,-97 -74,13 -594,85 -615,98z"/> <path id="1" class="fil1" d="M11869 6147c-22,114 46,705 66,852 20,145 37,254 64,389 22,108 77,287 85,394 83,73 166,207 272,246 223,-1 300,-32 430,-250 87,-146 167,-272 234,-446 83,-213 89,-295 120,-561 21,-179 -59,-439 -59,-626 -75,-12 -582,-100 -598,-97 -74,13 -594,85 -615,98z"/> </g> <g> <path class="fil0 str0" d="M8887 11984c349,-70 303,89 690,-113 144,-75 402,-197 557,-234 0,-207 50,-456 67,-661 9,-109 1,-249 1,-362 1,-145 -20,-233 -23,-340 -459,0 -940,96 -1138,359 -134,179 -83,368 -113,636 -24,213 -42,475 -42,715z"/> <path id="1" class="fil1" d="M8887 11984c349,-70 303,89 690,-113 144,-75 402,-197 557,-234 0,-207 50,-456 67,-661 9,-109 1,-249 1,-362 1,-145 -20,-233 -23,-340 -459,0 -940,96 -1138,359 -134,179 -83,368 -113,636 -24,213 -42,475 -42,715z"/> </g> <g> <path class="fil0 str0" d="M1456 11974c-18,-80 -52,-147 -99,-201 -80,-93 -67,-85 -104,-214 -83,-294 -126,-136 -278,-357 135,62 161,38 230,111l20 25c50,-58 101,-112 162,-176 65,-69 101,-105 202,-147 -61,187 -310,210 -237,446 35,113 186,367 282,425 47,-26 53,-32 113,-46l46 -997c-2,-479 18,-560 -29,-1020 -105,-103 -183,-89 -334,-79 -118,7 -301,-40 -397,11 -73,93 -97,521 -103,634 -12,220 -22,450 -22,704 -72,-49 -16,-37 -113,-45 63,94 119,81 136,204 99,708 173,608 227,839 127,-11 173,-87 300,-113z"/> <path id="1" class="fil1" d="M1456 11974c-18,-80 -52,-147 -99,-201 -80,-93 -67,-85 -104,-214 -83,-294 -126,-136 -278,-357 135,62 161,38 230,111l20 25c50,-58 101,-112 162,-176 65,-69 101,-105 202,-147 -61,187 -310,210 -237,446 35,113 186,367 282,425 47,-26 53,-32 113,-46l46 -997c-2,-479 18,-560 -29,-1020 -105,-103 -183,-89 -334,-79 -118,7 -301,-40 -397,11 -73,93 -97,521 -103,634 -12,220 -22,450 -22,704 -72,-49 -16,-37 -113,-45 63,94 119,81 136,204 99,708 173,608 227,839 127,-11 173,-87 300,-113z"/> </g> <g> <path class="fil0 str0" d="M9302 13198c-89,-24 -48,-20 -123,-64 -246,-145 -90,35 -234,-217 -37,-64 -4,-10 -18,-19 62,-11 62,2 105,40 148,133 179,38 269,259zm-437 -1077c0,147 -13,218 -23,330 -99,-2 -124,-23 -249,-23 62,128 -28,67 90,91 60,12 95,7 159,22 0,163 -23,244 -23,420l39 -23c46,190 99,68 90,281 -43,-55 -33,-63 -84,-108l-44 88c-13,41 -18,68 -25,113 19,51 4,19 37,54 15,16 44,36 63,50 58,43 72,56 134,93 760,461 819,-234 939,-929 24,-136 122,-669 115,-765 -100,-42 -23,83 -268,15 -44,96 15,50 -59,107 -21,16 -101,41 -131,51 -87,30 -163,64 -239,101 -363,182 -261,-113 -524,30z"/> <path id="1" class="fil1" d="M9302 13198c-89,-24 -48,-20 -123,-64 -246,-145 -90,35 -234,-217 -37,-64 -4,-10 -18,-19 62,-11 62,2 105,40 148,133 179,38 269,259zm-437 -1077c0,147 -13,218 -23,330 -99,-2 -124,-23 -249,-23 62,128 -28,67 90,91 60,12 95,7 159,22 0,163 -23,244 -23,420l39 -23c46,190 99,68 90,281 -43,-55 -33,-63 -84,-108l-44 88c-13,41 -18,68 -25,113 19,51 4,19 37,54 15,16 44,36 63,50 58,43 72,56 134,93 760,461 819,-234 939,-929 24,-136 122,-669 115,-765 -100,-42 -23,83 -268,15 -44,96 15,50 -59,107 -21,16 -101,41 -131,51 -87,30 -163,64 -239,101 -363,182 -261,-113 -524,30z"/> </g> <g> <path class="fil0 str0" d="M10878 11155l141 21 -2 139c-133,-34 -123,-16 -139,-160zm791 661c45,-67 32,-166 49,-321 18,-157 20,-945 -45,-1062l-47 -35c-52,128 -153,183 -247,256 57,63 62,31 87,123 -122,-33 -167,-100 -267,-140 -46,-18 -297,-62 -356,-63 -19,90 -22,212 -40,323 -46,282 114,476 -49,765 -51,91 -47,-16 -56,130 4,4 11,3 14,10l100 61c44,42 33,70 71,127 239,-5 117,-71 294,70l492 -245z"/> <path id="1" class="fil1" d="M10878 11155l141 21 -2 139c-133,-34 -123,-16 -139,-160zm791 661c45,-67 32,-166 49,-321 18,-157 20,-945 -45,-1062l-47 -35c-52,128 -153,183 -247,256 57,63 62,31 87,123 -122,-33 -167,-100 -267,-140 -46,-18 -297,-62 -356,-63 -19,90 -22,212 -40,323 -46,282 114,476 -49,765 -51,91 -47,-16 -56,130 4,4 11,3 14,10l100 61c44,42 33,70 71,127 239,-5 117,-71 294,70l492 -245z"/> </g> <g> <path class="fil0 str0" d="M4259 11470c95,48 61,18 102,110 25,57 41,74 66,137l-170 -42 2 -205zm473 1344c56,-89 37,-356 48,-457l26 -1493 -839 -1 -156 3c41,107 107,194 147,300 20,52 26,121 48,182 38,104 41,55 97,129 13,336 8,504 176,752 66,97 192,114 245,231 54,118 9,231 99,380l108 -25z"/> <path id="1" class="fil1" d="M4259 11470c95,48 61,18 102,110 25,57 41,74 66,137l-170 -42 2 -205zm473 1344c56,-89 37,-356 48,-457l26 -1493 -839 -1 -156 3c41,107 107,194 147,300 20,52 26,121 48,182 38,104 41,55 97,129 13,336 8,504 176,752 66,97 192,114 245,231 54,118 9,231 99,380l108 -25z"/> </g> <g> <path class="fil0 str0" d="M12257 11241c-130,0 -170,-38 -199,-157 126,34 158,40 199,157zm-240 -941c0,549 23,1022 23,1562l91 -6 23 -16 23 0c139,-35 263,-87 363,-159 51,-36 84,-72 130,-119 67,-68 67,-93 117,-154 -82,-204 -217,-199 -235,-533 73,71 128,282 282,365 39,-63 64,-397 68,-512 4,-118 23,-140 23,-272 0,-136 22,-180 22,-289 -71,67 -243,168 -395,189 -81,11 -155,-26 -233,-43 -100,-22 -200,-15 -302,-14z"/> <path id="1" class="fil1" d="M12257 11241c-130,0 -170,-38 -199,-157 126,34 158,40 199,157zm-240 -941c0,549 23,1022 23,1562l91 -6 23 -16 23 0c139,-35 263,-87 363,-159 51,-36 84,-72 130,-119 67,-68 67,-93 117,-154 -82,-204 -217,-199 -235,-533 73,71 128,282 282,365 39,-63 64,-397 68,-512 4,-118 23,-140 23,-272 0,-136 22,-180 22,-289 -71,67 -243,168 -395,189 -81,11 -155,-26 -233,-43 -100,-22 -200,-15 -302,-14z"/> </g> <g> <path class="fil0 str0" d="M11865 5966c76,45 205,-1 300,-13 197,-25 115,20 281,-62 192,92 344,143 589,179 0,-148 -45,-279 -74,-416 -21,-101 -83,-304 -85,-416 -43,17 -139,104 -181,139 -84,69 -78,96 -200,133 88,-124 285,-270 339,-384 -145,-461 -795,-320 -843,-250 -78,112 -160,852 -127,1089z"/> <path id="1" class="fil1" d="M11865 5966c76,45 205,-1 300,-13 197,-25 115,20 281,-62 192,92 344,143 589,179 0,-148 -45,-279 -74,-416 -21,-101 -83,-304 -85,-416 -43,17 -139,104 -181,139 -84,69 -78,96 -200,133 88,-124 285,-270 339,-384 -145,-461 -795,-320 -843,-250 -78,112 -160,852 -127,1089z"/> </g> <g> <path class="fil0 str0" d="M4225 13879c-63,-232 -16,-118 40,-293 42,-132 -61,-119 39,-322 162,-327 123,-213 23,-583 -55,-202 -113,-182 -300,-495 -179,-300 -85,-341 -126,-676l-128 -51c14,-109 44,-181 2,-290 -32,-81 -71,-162 -125,-217 0,309 24,551 22,840l46 838c9,297 8,543 21,841 9,200 308,372 486,407z"/> <path id="1" class="fil1" d="M4225 13879c-63,-232 -16,-118 40,-293 42,-132 -61,-119 39,-322 162,-327 123,-213 23,-583 -55,-202 -113,-182 -300,-495 -179,-300 -85,-341 -126,-676l-128 -51c14,-109 44,-181 2,-290 -32,-81 -71,-162 -125,-217 0,309 24,551 22,840l46 838c9,297 8,543 21,841 9,200 308,372 486,407z"/> </g> <g> <path class="fil0 str0" d="M-2245 3653c-79,-190 -410,-25 -605,-74 -79,-20 -281,-161 -332,-214 -41,-43 -30,-51 -84,-98 0,513 -33,890 268,1252 41,49 88,77 139,110 65,41 114,54 182,90 98,-205 344,-905 431,-1066z"/> <path id="1" class="fil1" d="M-2245 3653c-79,-190 -410,-25 -605,-74 -79,-20 -281,-161 -332,-214 -41,-43 -30,-51 -84,-98 0,513 -33,890 268,1252 41,49 88,77 139,110 65,41 114,54 182,90 98,-205 344,-905 431,-1066z"/> </g> <g> <path class="fil0 str0" d="M15847 3971c67,85 67,31 186,135l41 37c363,-43 -16,-240 572,-254l87 -236c-2,-114 1,-228 0,-341 -2,-130 -24,-171 -24,-317 -469,0 -628,221 -1043,499l181 476z"/> <path id="1" class="fil1" d="M15847 3971c67,85 67,31 186,135l41 37c363,-43 -16,-240 572,-254l87 -236c-2,-114 1,-228 0,-341 -2,-130 -24,-171 -24,-317 -469,0 -628,221 -1043,499l181 476z"/> </g> <g> <path class="fil0 str0" d="M14567 4492c43,21 105,-12 170,-24 73,114 159,210 256,288 157,126 197,93 434,125 -1,-115 -26,-137 81,-157 0,-153 -23,-202 -22,-346 -68,-88 -222,-122 -331,-195 159,-13 207,39 331,79 -36,-72 -15,-40 -25,-131 -9,-79 -14,-79 -31,-161 -103,-90 -113,-31 -192,-184 -57,-110 -100,-159 -206,-197 -68,47 -128,79 -198,137 -67,56 -110,106 -156,184 -85,142 -158,341 -111,581z"/> <path id="1" class="fil1" d="M14567 4492c43,21 105,-12 170,-24 73,114 159,210 256,288 157,126 197,93 434,125 -1,-115 -26,-137 81,-157 0,-153 -23,-202 -22,-346 -68,-88 -222,-122 -331,-195 159,-13 207,39 331,79 -36,-72 -15,-40 -25,-131 -9,-79 -14,-79 -31,-161 -103,-90 -113,-31 -192,-184 -57,-110 -100,-159 -206,-197 -68,47 -128,79 -198,137 -67,56 -110,106 -156,184 -85,142 -158,341 -111,581z"/> </g> <g> <path class="fil0 str0" d="M12029 10161c117,54 446,19 583,-18 154,-41 153,-45 284,-387 -394,-200 4,-284 -449,-638 -252,133 -516,589 -418,1043z"/> <path id="1" class="fil1" d="M12029 10161c117,54 446,19 583,-18 154,-41 153,-45 284,-387 -394,-200 4,-284 -449,-638 -252,133 -516,589 -418,1043z"/> </g> <g> <path class="fil0 str0" d="M10497 11720c154,-90 57,-85 116,-242 51,-134 102,-112 36,-290 -69,-187 -80,-452 -24,-673 80,-21 146,-12 226,-27 108,-19 108,-52 200,-84 1,106 -14,112 124,107 179,-7 198,-110 290,-176 66,-47 97,-36 144,-107 -104,-182 -227,-322 -467,-373 -107,-23 -276,-29 -389,-5 -123,26 -96,74 -124,307 -58,478 -132,1028 -132,1564z"/> <path id="1" class="fil1" d="M10497 11720c154,-90 57,-85 116,-242 51,-134 102,-112 36,-290 -69,-187 -80,-452 -24,-673 80,-21 146,-12 226,-27 108,-19 108,-52 200,-84 1,106 -14,112 124,107 179,-7 198,-110 290,-176 66,-47 97,-36 144,-107 -104,-182 -227,-322 -467,-373 -107,-23 -276,-29 -389,-5 -123,26 -96,74 -124,307 -58,478 -132,1028 -132,1564z"/> </g> <g> <path class="fil0 str0" d="M14691 5697l74 36c-24,37 -1,35 -37,52 37,170 108,314 244,385 -26,-274 -98,-188 -174,-400 82,-24 85,-68 152,-133 94,-92 61,-80 112,-206 30,-76 261,-234 357,-278 -41,-92 -43,-83 -78,-198 -228,0 -301,4 -423,-124 -117,-122 -116,-208 -364,-203 3,145 48,370 69,520 22,156 67,388 67,548z"/> <path id="1" class="fil1" d="M14691 5697l74 36c-24,37 -1,35 -37,52 37,170 108,314 244,385 -26,-274 -98,-188 -174,-400 82,-24 85,-68 152,-133 94,-92 61,-80 112,-206 30,-76 261,-234 357,-278 -41,-92 -43,-83 -78,-198 -228,0 -301,4 -423,-124 -117,-122 -116,-208 -364,-203 3,145 48,370 69,520 22,156 67,388 67,548z"/> </g> <g> <path class="fil0 str0" d="M18 10455c62,198 454,522 548,544 0,-345 166,-879 181,-1068 -224,-5 -363,-18 -567,-57 -63,73 -117,142 -104,256 29,246 30,143 -59,325z"/> <path id="1" class="fil1" d="M18 10455c62,198 454,522 548,544 0,-345 166,-879 181,-1068 -224,-5 -363,-18 -567,-57 -63,73 -117,142 -104,256 29,246 30,143 -59,325z"/> </g> <g> <path class="fil0 str0" d="M45 9616c49,78 163,141 295,159 101,13 134,-7 226,-8 82,-1 140,16 227,12 0,-249 85,-435 -84,-601 -109,-107 -338,-181 -529,-197 -44,164 -139,113 -136,635z"/> <path id="1" class="fil1" d="M45 9616c49,78 163,141 295,159 101,13 134,-7 226,-8 82,-1 140,16 227,12 0,-249 85,-435 -84,-601 -109,-107 -338,-181 -529,-197 -44,164 -139,113 -136,635z"/> </g> <g> <path class="fil0 str0" d="M2357 9978c-73,30 -170,177 -172,296 -1,72 26,117 59,158 39,49 89,104 127,123 11,5 373,71 402,74 8,1 371,-46 407,-54 53,-199 -116,-115 -7,-276 -4,-4 -10,-16 -11,-13 -2,4 -9,-10 -11,-12 -3,-3 -17,-18 -23,-24 -173,-24 -174,-60 -241,-158 -131,-26 -375,-186 -530,-114z"/> <path id="1" class="fil1" d="M2357 9978c-73,30 -170,177 -172,296 -1,72 26,117 59,158 39,49 89,104 127,123 11,5 373,71 402,74 8,1 371,-46 407,-54 53,-199 -116,-115 -7,-276 -4,-4 -10,-16 -11,-13 -2,4 -9,-10 -11,-12 -3,-3 -17,-18 -23,-24 -173,-24 -174,-60 -241,-158 -131,-26 -375,-186 -530,-114z"/> </g> <g> <path class="fil0 str0" d="M-250 9429c0,-211 173,-877 -49,-1123 -53,-59 -133,-107 -223,-97 -113,12 -49,-13 -91,40l63 -4c-79,64 -109,245 -135,367 -29,133 -63,298 -60,434 393,34 227,288 495,384z"/> <path id="1" class="fil1" d="M-250 9429c0,-211 173,-877 -49,-1123 -53,-59 -133,-107 -223,-97 -113,12 -49,-13 -91,40l63 -4c-79,64 -109,245 -135,367 -29,133 -63,298 -60,434 393,34 227,288 495,384z"/> </g> <g> <path class="fil0 str0" d="M10792 12904c256,22 379,-23 617,-289 208,-232 214,-570 266,-690 -263,73 -324,240 -521,280 -62,-49 -49,-164 -175,-70 -139,104 -249,458 21,603 -5,4 -14,2 -17,10 -3,8 -13,8 -17,10 -96,47 -120,21 -174,145z"/> <path id="1" class="fil1" d="M10792 12904c256,22 379,-23 617,-289 208,-232 214,-570 266,-690 -263,73 -324,240 -521,280 -62,-49 -49,-164 -175,-70 -139,104 -249,458 21,603 -5,4 -14,2 -17,10 -3,8 -13,8 -17,10 -96,47 -120,21 -174,145z"/> </g> <g> <path class="fil0 str0" d="M7855 11045c36,143 113,120 113,293 1,152 -56,244 34,365 78,105 170,80 251,157 91,86 31,158 181,227 0,-98 17,-154 23,-271 13,-238 67,-583 67,-817 -228,0 -418,45 -670,45z"/> <path id="1" class="fil1" d="M7855 11045c36,143 113,120 113,293 1,152 -56,244 34,365 78,105 170,80 251,157 91,86 31,158 181,227 0,-98 17,-154 23,-271 13,-238 67,-583 67,-817 -228,0 -418,45 -670,45z"/> </g> <g> <path class="fil0 str0" d="M10156 8483l1 91c462,0 1201,-41 1436,-468 34,-62 54,-132 83,-181 -85,11 -277,103 -369,144 -238,106 -202,49 -439,87 -103,16 -417,166 -542,225 -139,66 -126,39 -170,103z"/> <path id="1" class="fil1" d="M10156 8483l1 91c462,0 1201,-41 1436,-468 34,-62 54,-132 83,-181 -85,11 -277,103 -369,144 -238,106 -202,49 -439,87 -103,16 -417,166 -542,225 -139,66 -126,39 -170,103z"/> </g> <g> <path class="fil0 str0" d="M15323 5962l164 3c-21,90 -58,116 -133,156l-31 -160zm26 288l68 13c17,-66 68,-124 109,-256 86,-280 59,-811 5,-1065 -35,46 -18,13 -19,141 -2,208 -110,138 -233,246 -141,123 2,145 -272,383 28,148 149,265 198,459 29,16 12,37 135,-10l10 90z"/> <path id="1" class="fil1" d="M15323 5962l164 3c-21,90 -58,116 -133,156l-31 -160zm26 288l68 13c17,-66 68,-124 109,-256 86,-280 59,-811 5,-1065 -35,46 -18,13 -19,141 -2,208 -110,138 -233,246 -141,123 2,145 -272,383 28,148 149,265 198,459 29,16 12,37 135,-10l10 90z"/> </g> <g> <path class="fil0 str0" d="M2656 8551c-10,-106 4,-216 -11,-312 -30,-196 -13,-119 18,-307 -123,-23 -208,-67 -324,-110 -113,-42 -245,-71 -344,-100 -50,80 -70,420 135,581 201,158 355,173 526,248z"/> <path id="1" class="fil1" d="M2656 8551c-10,-106 4,-216 -11,-312 -30,-196 -13,-119 18,-307 -123,-23 -208,-67 -324,-110 -113,-42 -245,-71 -344,-100 -50,80 -70,420 135,581 201,158 355,173 526,248z"/> </g> <g> <path class="fil0 str0" d="M2784 8596c104,2 488,88 609,62 154,-33 106,-212 189,-507l-159 4c-45,67 -5,74 -68,107 -109,-36 -10,-16 -91,-118 -89,-6 -177,8 -261,-14 -82,-21 -135,-75 -233,-10l13 476z"/> <path id="1" class="fil1" d="M2784 8596c104,2 488,88 609,62 154,-33 106,-212 189,-507l-159 4c-45,67 -5,74 -68,107 -109,-36 -10,-16 -91,-118 -89,-6 -177,8 -261,-14 -82,-21 -135,-75 -233,-10l13 476z"/> </g> <g> <path class="fil0 str0" d="M13898 9932c63,-260 71,-683 0,-944 -67,64 -76,99 -153,158 -171,133 -66,58 -172,168 -107,111 -344,178 -299,359 83,93 191,48 324,107 107,47 196,117 300,152z"/> <path id="1" class="fil1" d="M13898 9932c63,-260 71,-683 0,-944 -67,64 -76,99 -153,158 -171,133 -66,58 -172,168 -107,111 -344,178 -299,359 83,93 191,48 324,107 107,47 196,117 300,152z"/> </g> <g> <path class="fil0 str0" d="M14193 8578c0,292 23,515 23,789 95,-25 145,-111 210,-176 420,-421 481,-325 402,-716 -76,35 -11,-42 -72,71 -23,43 -23,55 -34,109 -278,-10 -295,-6 -528,-76z"/> <path id="1" class="fil1" d="M14193 8578c0,292 23,515 23,789 95,-25 145,-111 210,-176 420,-421 481,-325 402,-716 -76,35 -11,-42 -72,71 -23,43 -23,55 -34,109 -278,-10 -295,-6 -528,-76z"/> </g> <g> <path class="fil0 str0" d="M7381 14128c236,45 376,20 561,-61 69,-30 145,-81 198,-119 90,-66 90,-107 135,-207 -151,-59 -196,-198 -401,-104 -220,100 -25,185 -381,104 -33,136 -86,203 -112,388z"/> <path id="1" class="fil1" d="M7381 14128c236,45 376,20 561,-61 69,-30 145,-81 198,-119 90,-66 90,-107 135,-207 -151,-59 -196,-198 -401,-104 -220,100 -25,185 -381,104 -33,136 -86,203 -112,388z"/> </g> <g> <path class="fil0 str0" d="M15920 4129l7 45c26,49 29,42 35,115l171 -6c-27,98 -77,122 -70,232 37,68 48,136 81,204 243,-117 495,-274 521,-590l-30 47c-149,-311 -352,75 -446,63l-128 -97c-45,-30 -111,-42 -166,-60l27 48z"/> <path id="1" class="fil1" d="M15920 4129l7 45c26,49 29,42 35,115l171 -6c-27,98 -77,122 -70,232 37,68 48,136 81,204 243,-117 495,-274 521,-590l-30 47c-149,-311 -352,75 -446,63l-128 -97c-45,-30 -111,-42 -166,-60l27 48z"/> </g> <g> <path class="fil0 str0" d="M-3236 3064c70,192 184,275 343,375 110,70 142,68 293,40 94,-18 229,-16 302,-52l-394 -279c-198,-117 -246,-151 -552,-151l6 68z"/> <path id="1" class="fil1" d="M-3236 3064c70,192 184,275 343,375 110,70 142,68 293,40 94,-18 229,-16 302,-52l-394 -279c-198,-117 -246,-151 -552,-151l6 68z"/> </g> <g> <path class="fil0 str0" d="M13838 10138c-78,-143 -388,-190 -575,-211 2,117 24,214 22,369 -2,187 -47,274 138,232 208,-48 336,-198 415,-391z"/> <path id="1" class="fil1" d="M13838 10138c-78,-143 -388,-190 -575,-211 2,117 24,214 22,369 -2,187 -47,274 138,232 208,-48 336,-198 415,-391z"/> </g> <g> <path class="fil0 str0" d="M6394 5921c-59,-39 -96,-79 -168,-127 -68,-45 -110,-73 -188,-106 -117,-49 -347,-126 -493,-129l52 48c281,219 93,38 226,274 106,189 151,110 209,388l104 -8c42,-15 1,-26 122,-68l13 -149c56,-35 33,-23 125,-21l-1 -102z"/> <path id="1" class="fil1" d="M6394 5921c-59,-39 -96,-79 -168,-127 -68,-45 -110,-73 -188,-106 -117,-49 -347,-126 -493,-129l52 48c281,219 93,38 226,274 106,189 151,110 209,388l104 -8c42,-15 1,-26 122,-68l13 -149c56,-35 33,-23 125,-21l-1 -102z"/> </g> <g> <path class="fil0 str0" d="M3913 8233c75,48 206,45 301,59 -31,-192 -12,-134 6,-309 12,-110 -23,-224 -27,-341l-84 -8c-169,-310 -32,-318 -12,-694 -65,60 -68,222 -80,298 -35,213 -141,832 -103,994z"/> <path id="1" class="fil1" d="M3913 8233c75,48 206,45 301,59 -31,-192 -12,-134 6,-309 12,-110 -23,-224 -27,-341l-84 -8c-169,-310 -32,-318 -12,-694 -65,60 -68,222 -80,298 -35,213 -141,832 -103,994z"/> </g> <g> <path class="fil0 str0" d="M1042 9579c254,20 438,-2 680,54 -63,-101 -99,-221 -177,-316 -90,-111 -198,-109 -390,-109 -56,117 -67,254 -113,371z"/> <path id="1" class="fil1" d="M1042 9579c254,20 438,-2 680,54 -63,-101 -99,-221 -177,-316 -90,-111 -198,-109 -390,-109 -56,117 -67,254 -113,371z"/> </g> <g> <path class="fil0 str0" d="M4511 13878c134,-96 210,-657 227,-894 -126,19 -102,39 -158,147 -120,231 -199,479 -212,749l142 -2z"/> <path id="1" class="fil1" d="M4511 13878c134,-96 210,-657 227,-894 -126,19 -102,39 -158,147 -120,231 -199,479 -212,749l142 -2z"/> </g> <g> <path class="fil0 str0" d="M14174 8460c69,52 228,72 330,84 76,-151 49,-193 256,-212 -18,-80 -1,-34 -45,-99 -239,-127 -246,-93 -544,-68l4 295z"/> <path id="1" class="fil1" d="M14174 8460c69,52 228,72 330,84 76,-151 49,-193 256,-212 -18,-80 -1,-34 -45,-99 -239,-127 -246,-93 -544,-68l4 295z"/> </g> <g> <path class="fil0 str0" d="M13286 9312c275,-181 377,-431 484,-532l27 -25c-374,-138 -511,240 -511,557z"/> <path id="1" class="fil1" d="M13286 9312c275,-181 377,-431 484,-532l27 -25c-374,-138 -511,240 -511,557z"/> </g> <g> <path class="fil0 str0" d="M10656 12769c77,-95 19,-187 35,-342 13,-136 69,-209 100,-316l-167 -54c-11,-105 -13,-206 -116,-150 -17,91 16,372 31,457 14,83 27,143 44,206 27,101 53,112 73,199z"/> <path id="1" class="fil1" d="M10656 12769c77,-95 19,-187 35,-342 13,-136 69,-209 100,-316l-167 -54c-11,-105 -13,-206 -116,-150 -17,91 16,372 31,457 14,83 27,143 44,206 27,101 53,112 73,199z"/> </g> <g> <path class="fil0 str0" d="M2085 11221c85,-75 100,-132 158,-245 69,-135 120,-116 136,-298 -109,-24 -227,-94 -316,-139 0,259 23,430 23,682z"/> <path id="1" class="fil1" d="M2085 11221c85,-75 100,-132 158,-245 69,-135 120,-116 136,-298 -109,-24 -227,-94 -316,-139 0,259 23,430 23,682z"/> </g> <g> <path class="fil0 str0" d="M-272 9594c-66,-94 -185,-74 -254,-178 -82,-123 -31,-163 -200,-231 55,106 122,208 186,314 72,119 110,201 222,276 11,-48 10,-48 19,-94l27 -87z"/> <path id="1" class="fil1" d="M-272 9594c-66,-94 -185,-74 -254,-178 -82,-123 -31,-163 -200,-231 55,106 122,208 186,314 72,119 110,201 222,276 11,-48 10,-48 19,-94l27 -87z"/> </g> <g> <path class="fil0 str0" d="M-804 6646c41,-225 192,-451 -59,-542 0,200 -13,221 16,412 17,113 -1,86 43,130z"/> <path id="1" class="fil1" d="M-804 6646c41,-225 192,-451 -59,-542 0,200 -13,221 16,412 17,113 -1,86 43,130z"/> </g> <g> <path class="fil0 str0" d="M12946 9527c0,-243 -123,-413 -322,-455 53,93 21,21 101,86 41,33 52,68 72,132 44,138 19,181 150,237z"/> <path id="1" class="fil1" d="M12946 9527c0,-243 -123,-413 -322,-455 53,93 21,21 101,86 41,33 52,68 72,132 44,138 19,181 150,237z"/> </g> <g> <path class="fil0 str0" d="M-318 4338l295 72c-47,-87 -101,-182 -181,-235 -39,59 -74,97 -113,163z"/> <path id="1" class="fil1" d="M-318 4338l295 72c-47,-87 -101,-182 -181,-235 -39,59 -74,97 -113,163z"/> </g> </g> </g> </svg>