<?xml version='1.0' encoding='utf-8'?>
<svg xmlns="http://www.w3.org/2000/svg" width="18in" height="13in" version="1.1" style="shape-rendering:geometricPrecision; text-rendering:geometricPrecision; image-rendering:optimizeQuality; fill-rule:evenodd; clip-rule:evenodd" viewBox="0 0 18000 13000"> <defs> <style type="text/css">  .fil0 {fill:black}  </style> </defs> <g id="Layer_x0020_1"> <metadata id="CorelCorpID_0Corel-Layer"/> <path class="fil0" d="M9786 -2774l41 -43 -41 43zm2197 -313c82,-50 44,-33 65,23 -124,0 -31,2 -65,-23zm-222 -45c-16,-43 19,6 19,6 7,41 -9,21 -19,-6zm3 -70l-15 -248c14,39 69,38 103,62 60,43 38,44 38,142 -38,-19 -33,-18 -91,-23l-35 66zm-1550 -67c-36,16 -24,-28 0,-32 33,-6 7,29 0,32zm835 74c-26,-61 3,-64 -82,-103l-33 -15c29,-45 29,-63 58,-107 30,14 -9,-4 42,12 151,48 30,43 16,213zm4849 -210l-11 42 -32 -23 43 -19zm-5113 -185l2 -99 78 -6c-133,73 -13,-7 -80,105zm4386 -178l0 0zm-3887 -52c-6,-71 3,-86 37,-128 68,52 20,-1 62,76l-99 52zm742 -82l0 0zm-1270 95l46 84 -80 56c-2,2 -6,8 -10,12 -33,-41 -55,-83 -46,-157 12,-97 59,-57 59,-57 5,0 13,4 17,5 127,23 -12,-39 217,-37l-204 95zm-317 -56c56,-26 110,-34 158,-60l35 56c-122,-18 -58,18 -193,4zm1588 -39l-67 -38c62,6 35,-5 67,38zm-635 -92c7,-303 380,-246 437,-73 36,109 -91,194 -167,207 -169,30 -220,-57 -270,-134zm-1557 -25c1,-8 49,-47 28,4 -10,25 -33,46 -28,-4zm-539 -11c50,17 10,-5 46,23 -32,-6 -21,-2 -46,-23zm4836 -54c88,0 141,-9 213,23l-412 -7c40,-46 24,-16 198,-16zm-2240 -21l36 36c-102,-11 -7,0 -36,-36zm1400 -69c68,-37 309,-39 381,6 -43,20 -249,78 -341,25 -69,-40 -11,-7 -40,-31zm864 -44c54,-1 74,-5 127,6l107 38c-51,-4 -79,-9 -128,-16l-105 -27zm-2132 3l234 23c-11,2 -39,24 -118,17 -48,-4 -87,-26 -117,-41zm-1128 -71l21 89 -76 55 8 -78c-45,19 -13,21 -52,57 -57,51 -41,35 -135,45 -14,-59 -27,-139 -40,-201l588 -42c67,80 11,24 89,71l-134 15c-94,-82 -145,-8 -179,-2 -1,0 -63,-8 -90,-8zm747 -431l58 32c4,2 11,8 16,11 46,-65 34,-44 128,-44 41,72 36,55 -1,134 -123,0 -144,-56 -201,-134zm-899 -61c109,-30 382,13 490,14 81,33 9,-31 62,91 123,-5 69,-24 164,-40l27 128c-126,4 -65,-11 -133,-50 -37,-21 -113,-34 -166,-38 -28,30 -21,1 -30,60l-176 -46c-313,-76 -161,72 -238,-119zm895 -30l51 65 -51 -65zm-963 -1c-13,88 -11,129 -122,226l-62 -186c91,-50 81,-66 185,-40zm1717 24c3,79 4,60 -51,112l-46 -22c-95,-28 -165,-38 -256,37 -59,-108 -64,-68 -127,-150 87,6 68,-12 89,67l81 -33c2,-2 7,-8 8,-10l137 22c1,-3 3,-12 4,-10l101 -92c58,-38 39,-39 122,-56l42 89 -104 46zm-1240 -103c101,-9 120,-41 178,34 -59,-24 -93,-26 -178,-34zm1872 -83l-18 71c-24,-12 5,-28 -45,-57l63 -13zm-1159 -19c42,-16 39,-8 69,-32 9,82 5,36 21,101 11,46 23,16 2,61 -3,-4 -7,-15 -8,-12 -1,3 -6,-10 -8,-13l-77 -106zm236 -90c-26,52 5,26 -45,36 24,-73 -11,2 45,-36zm1237 -29l-18 48c-37,-33 -20,-3 -45,-63l63 15zm-313 138c79,-38 3,3 41,-41l-31 -78c77,-41 26,18 69,-70 37,33 19,11 45,57 20,-7 52,-25 65,-26l15 3c57,45 1,9 0,22 -5,63 11,47 26,137 -96,21 -54,30 -74,-21l-154 17zm-3146 -82l166 72c83,44 19,37 152,37l-114 62 96 39c-4,1 -36,7 -42,7 -69,2 -36,-4 -102,-10 -59,-5 -6,12 -61,-16 -57,-29 -42,-24 -102,-37 70,-111 29,38 63,-61 -36,-4 -68,-6 -102,-14 -113,-27 53,-18 -90,-20 85,-29 13,-28 60,-86l62 -40 14 67zm-259 -64l78 29 -78 -29zm3719 8l107 -39c-53,38 -35,38 -107,39zm506 -37c16,-23 33,-34 49,-58l-49 58zm-3074 -105c45,-9 555,9 614,42 -92,80 -83,-7 -174,86 -1,-3 -2,-10 -2,-8 0,2 -3,-8 -3,-9 -1,-1 -4,-8 -4,-10l-96 8c-9,8 10,3 -30,16l-18 -37c-1,-2 -3,-8 -5,-12l-57 5c-115,-5 -107,-41 -190,-2l-34 -78zm-257 -12c72,29 51,34 137,48l-62 -59c118,-22 105,-20 114,62 9,85 40,70 10,178 -39,18 -69,35 -129,15 22,-53 -4,-103 -31,-151l46 0c-36,-54 -48,-48 -85,-92zm-138 -12l65 27 -65 -27zm1673 13c48,-57 100,-60 217,-126 30,189 54,177 122,308 -93,-19 -57,-23 -135,23l-23 -46c-109,12 -70,23 -158,-22 -53,24 -125,75 -172,45 40,-29 35,-14 67,-37 85,-61 -33,-18 131,-97 76,-37 -22,21 30,-14 27,-18 17,-15 31,-34 -39,-22 -61,-16 -109,-1zm-1534 -1l-78 -35 78 35zm2055 -66l-63 49 63 -49zm-3299 1c166,11 32,62 198,22 66,90 34,0 75,104 33,84 10,52 59,120 -191,-34 -246,21 -280,-25l-53 -100c-7,-11 -17,-27 -24,-35 40,-52 42,-35 26,-86zm4550 -41c141,-19 -8,-7 131,18 24,-21 32,-28 68,-45 16,52 15,43 -7,90l40 19c1,0 4,2 6,4l-238 -86zm-1000 38l75 -40 -75 40zm-250 2l81 -75c-32,68 -2,53 -81,75zm-2328 -117c27,18 35,25 54,39 -58,-3 -29,5 -54,-39zm1337 89l-59 -105 122 -3 -63 108zm-1285 -99c49,2 47,-3 78,15 32,18 40,32 53,44l-131 -59zm4274 -25c104,-7 24,-5 58,19 -58,20 -12,26 -58,-19zm-4008 -159l59 245c-66,-57 -66,-129 -59,-245zm493 221c-29,-25 -26,-24 -57,-57 -61,-64 -81,-154 13,-213 65,-41 134,-23 191,-2 47,144 64,171 -84,133 1,58 16,25 -9,79 -10,21 -42,47 -53,59zm1926 -108c41,-53 47,-60 133,-72l-133 72zm-19 -68c-4,3 -11,3 -13,10l-54 37c-45,28 -25,20 -75,39 41,-56 59,-69 141,-86zm-2718 150c-179,-44 -250,-33 -266,-123 43,33 27,23 81,36 -14,-51 -27,-69 -34,-136 129,20 212,60 245,182 -5,-4 -13,-15 -16,-11l-68 -46c22,59 31,65 58,98zm-406 -174c47,22 30,-27 62,63l-62 -63zm1733 -294c14,135 69,219 118,313l-226 -3c17,-66 29,-69 51,-150 14,-52 30,-111 58,-160zm1626 322c27,-20 7,-26 77,-59 -17,19 -12,20 -36,39 -21,17 -30,16 -41,21zm-235 -4c37,-47 -42,-5 31,-38 47,-21 21,-9 71,-7 -47,22 -62,30 -102,45zm-1114 20l24 -161c134,-70 244,-51 270,136 -21,31 -33,52 -68,91 -55,62 -16,48 -113,22 21,-42 59,-55 17,-115l-129 27zm787 -89c-47,50 -8,34 -86,60 -13,-18 -15,14 -18,-63 14,39 22,26 54,53l50 -50zm1935 183l-77 -8c-15,71 -13,63 -53,105l-17 -79c-87,8 -84,0 -152,-44 177,-89 85,83 179,-138l224 -88 95 43 -199 210zm-4892 -227l62 57c-87,-39 -45,-36 -62,-57zm5191 -6l45 -43c-11,32 58,-26 -12,22 -2,2 -12,8 -15,10 -3,2 -16,4 -18,10zm-5268 -61c78,36 22,2 49,46l-49 -46zm635 -55c31,77 39,46 6,121 -17,-49 -20,-35 -22,-74 -5,-100 -3,-9 16,-47zm-208 46c-48,-39 -26,-16 -28,-92l28 92zm-368 -11l69 44c44,39 36,29 64,82 -102,-59 -52,-77 -134,-126zm-1419 -14c70,25 40,2 74,58 -62,-26 -37,-10 -74,-58zm1818 -56c59,58 46,45 41,147l-41 -147zm-1818 56l-65 4c55,60 68,47 116,113 -83,-24 -8,-9 -78,-32 -58,-18 -83,6 -186,-109 103,-58 35,-3 83,-101 114,24 83,39 130,125zm6753 -86c62,20 35,-19 38,44l-38 -44zm-2211 151c-26,-10 -53,65 -23,-166l76 -4 8 138c-87,-67 46,-45 -72,-125l11 158zm-149 79l4 -251c21,42 52,205 -4,251zm-109 -185l49 -89c33,58 22,35 15,130 -29,-36 -13,-28 -64,-41zm-2604 -4c-6,-18 -14,-44 -8,-79 18,28 14,6 21,41 9,48 -5,23 -13,37zm2490 -107c4,3 9,8 14,10 5,3 11,5 16,8l86 24c-3,1 -8,1 -10,1l-40 -1c-57,16 -22,-10 -42,45 12,4 6,28 42,-22 28,124 16,74 70,90l1 115c-3,-5 -6,-12 -7,-15l-37 -83c-23,33 -35,-33 -23,96 -3,1 -7,3 -8,4l-18 8c-1,1 -9,8 -10,5 -1,-3 -7,4 -10,5 0,32 4,86 1,115 -12,125 6,19 -23,67 2,-163 26,-315 -41,-385l40 -89zm-4369 65c-100,-33 6,-16 -105,-31 53,-20 -48,18 39,-9 93,-28 -8,15 30,-15 21,46 -12,5 36,55zm5773 -68l-137 138 -70 -26 207 -112zm1336 -18l83 4c-37,66 -34,173 -148,97l66 -101zm-1336 18c35,-45 9,-28 69,-46 -34,45 -7,30 -69,46zm-4566 -38l57 38 -57 -38zm3813 361l29 -49c-18,-9 -18,-6 -35,-9l21 -48c-6,-23 13,-23 -23,-81l258 -131 21 41c72,-35 37,-12 84,-58 68,-65 5,-30 80,-56l-97 114c5,3 13,3 15,10l10 97c-100,39 -162,111 -245,154 -3,-13 12,-16 -32,-60 -38,70 3,33 -87,77zm250 -318c43,-54 24,-48 93,-74 -42,57 -22,47 -93,74zm572 -51l68 -35 -68 35zm-140 -47c-17,20 -7,13 -35,35 -32,24 40,-12 -34,13 33,-39 14,-29 69,-48zm0 0c31,-37 13,-28 70,-44l-23 45 -47 -1zm-43 -46c-30,41 -7,31 -71,40l71 -40zm-203 71l91 -67 -91 67zm91 -67c33,-40 10,-28 68,-44 -40,38 -18,24 -68,44zm-449 -201c26,67 59,211 27,305l-27 -305zm514 93l-74 30 74 -30zm-4314 -3c49,15 32,7 59,45l-59 -45zm-353 7c-34,-103 -17,-13 8,-64l20 -34c53,28 37,13 81,54 -84,60 15,80 -110,45zm-1576 -80l-42 -40 42 40zm8108 -38c-30,49 11,43 -48,24 21,-35 -37,-30 48,-24zm-7841 135c17,62 8,37 45,84 -40,26 -72,48 -115,71l-196 -252 48 -1 18 -40c84,53 102,103 201,138zm1516 -160l94 19c-32,18 48,37 -55,11 -80,-20 -12,-8 -39,-30zm4123 129c2,-51 1,-59 -4,-108l-1 -67c0,-7 4,-9 6,-14l25 124c33,27 54,-21 65,112 -33,-25 -37,-32 -91,-48zm242 -285c3,6 11,27 14,32l69 121c-5,-4 -12,-8 -16,-11 -4,-3 -12,-8 -16,-11l-48 -35c3,86 15,68 -14,122l11 -219zm1960 181c-5,-165 74,-191 151,-275 -31,112 -50,160 -117,242l-34 32zm-6600 -316c-6,65 -16,82 -70,122 -35,26 -47,23 -119,23l-31 -85 221 -60zm6955 -393c3,-4 9,-10 10,-13 2,-3 7,-10 9,-14 39,-76 10,-88 81,-167 37,107 -58,205 -96,260l-4 -67zm-7201 -364c8,95 28,62 -16,112 -1,-23 -4,-41 -2,-64 9,-84 4,-20 18,-48zm5662 -19c62,-21 1,87 137,-3 -24,71 -9,44 -62,92l62 68 -35 173c-19,35 -3,15 -28,20l-87 -64c-13,-16 -27,-36 -30,-38 78,-174 -27,-133 42,-248zm-5662 19c-23,-41 2,-20 -46,-43l-42 -70c-87,-45 -67,-13 -77,-111 -5,-47 -16,-131 -11,-206 39,75 2,75 43,161l36 -81 52 88c61,72 98,137 113,240 -41,13 -35,6 -68,23zm5889 -292c-216,-16 -41,-234 -32,-282 19,126 82,-41 32,282zm114 -1018c46,-20 14,0 41,-27l42 -81c1,-5 -7,-39 -8,-44 61,32 20,18 50,-22 45,251 -82,207 -82,652l-135 -27 49 -216c29,-10 8,-65 -3,-147 51,-34 -71,-38 90,-16l-44 -74zm-6245 -773c29,-40 -70,-14 46,-39l-46 39zm6401 -42c-45,52 -28,76 -36,105 14,-251 47,-308 -19,-413 -6,-9 -22,-41 -24,-44l30 -63c18,-55 -15,-14 24,-87 7,209 79,466 61,616l-36 -115zm-6315 -273c-21,-35 -21,39 -15,-57l27 -214c59,66 10,224 -12,272zm6230 -276c33,-89 24,14 29,-63 3,-41 7,-8 -22,-39 109,2 75,76 52,129 -38,-25 2,-6 -59,-26zm-37 -332c13,53 -1,34 33,109 -75,-34 -62,-56 -107,-112l16 -111 58 114zm-6080 -8c-8,-14 -14,3 -14,-36l98 -249c2,68 -56,236 -84,285zm96 -312c-1,-54 -10,-24 6,-80 22,-80 20,-38 37,-56l-43 136zm5740 -247l44 129 -97 -37 53 -92zm141 794c49,80 23,78 32,132l17 52c1,17 13,-3 -25,34 103,72 52,418 70,503 18,88 25,49 60,68 -58,95 -71,67 -148,118 -8,102 -60,478 -118,543 55,70 16,434 -6,533 -14,62 -18,104 -22,188 -4,3 -10,7 -12,8 -65,45 -66,36 -73,129 -79,-17 11,48 -40,213l-48 189c-114,-21 -29,-16 -116,-91 30,93 63,115 78,214l-28 -24c-14,80 -46,143 -46,200 0,97 21,46 -26,160 -61,147 -46,243 -46,430l-459 204c27,-141 -11,-108 -17,-229l-51 79c-13,-83 23,-44 -65,-20l7 -368c-42,19 -20,-31 -46,44l12 253c18,107 8,243 4,353 -33,-56 -18,-57 -29,-169 -24,-223 -8,-110 -36,-155 0,63 -5,152 1,212 5,47 20,107 8,174l-4 -106 -75 2 12 -191c-1,3 -3,8 -3,9l-44 51c-3,2 -9,5 -11,6 -54,21 -8,-8 -87,5 79,169 68,21 68,346l-38 16c-38,14 -4,11 -32,7l1 -74 -43 -243c-148,12 -70,44 -68,203 2,118 32,171 -20,224 1,-141 -21,-228 -25,-337 -47,72 -14,364 -11,375 -53,-16 10,23 -29,-22 -5,-6 2,-65 -70,-53 -86,14 -55,43 -55,124 -35,-58 -26,-38 -3,-107 -92,2 -112,19 -197,23l-26 -17c-353,-29 -420,-150 -492,-459l-45 0c12,281 117,192 91,386 62,-14 30,-11 81,-14 39,176 22,81 10,194 17,19 2,22 44,45l-44 79c60,-17 46,-17 52,-11l-23 245 -40 -188c-2,-7 -7,-8 -12,-11 0,-254 4,-169 -102,-194 -189,-45 -242,36 -439,33 -102,-174 -127,-554 -179,-750 -22,-83 7,-27 -36,-77 -58,48 -16,-18 -44,73 -11,35 -13,69 -27,110 -77,228 -112,350 -127,644 -67,-20 -77,-15 -153,-26 -39,-5 -83,-23 -123,-31 -92,-19 -205,-37 -265,-10 36,91 -28,3 85,69 -18,109 -80,82 -63,272 9,99 67,179 23,242 -77,-50 -88,-131 -91,-244 -65,22 -61,66 -58,67l-53 -265c-15,20 -29,-12 -27,86l47 267c-51,-71 -36,-142 -72,-264 -18,-61 1,-27 -43,-76l6 126 -42 -61c-32,-38 -4,-18 -55,-35 27,91 60,192 67,294 -46,-51 -52,-48 -121,-89l-6 -106c28,64 11,46 53,101 10,-88 -10,-192 -32,-268 74,-55 42,0 47,-55 -73,-21 -52,-27 -96,26 33,127 -23,111 -25,106 -1,-4 -10,0 -14,1 -2,105 46,90 -9,167 -5,-11 -41,-216 -42,-274l-52 3c-12,-65 22,-44 -70,-66l26 243c-44,-38 -53,-158 -56,-224l-259 -85c-4,-70 -19,-240 -41,-293 -66,85 10,128 -49,229 -6,-113 -24,-168 -23,-301 2,-125 13,-193 -50,-256 9,223 -13,408 50,595 -113,-75 -50,-30 -69,-179 -13,-104 -33,-95 -10,-220 21,-117 -11,-279 -11,-423 -110,99 57,426 -50,443 4,87 14,114 31,195 21,100 35,84 -4,161 27,16 38,20 67,46 86,74 -61,-60 23,23l-68 -2 -57 106c-3,3 -8,8 -12,10 -132,100 -108,-51 -117,-91 -8,-39 1,-12 -15,-44l142 -132c20,-47 29,-65 -3,-98 -49,-50 -15,-1 -27,0 -68,4 -114,-105 -245,-183 -48,-29 -101,-32 -141,-64 -58,-47 -31,-73 -59,-137l-27 134c85,59 53,12 84,97l-42 -3c-20,24 -13,-4 -36,58 -39,-43 -5,-11 -53,-36l-47 -23c18,-81 38,-104 5,-210 -29,-95 -9,-69 -3,-200 -35,2 -53,4 -60,2 -19,-176 -48,-126 24,-279l-66 38 -4 -264c-3,61 -3,34 -53,60 -24,-83 -62,-182 -33,-280 -52,-27 79,-7 -56,-2 -25,-93 -69,-183 -100,-286 -33,-109 -29,-218 -111,-273 107,-210 92,-107 96,-240l-39 62c-1,-3 -7,9 -10,14 -9,-22 -13,-52 -19,-68 -19,-47 -14,-31 -35,-58 1,149 27,117 -18,247l-121 -38c128,-106 35,-182 -27,-239 39,-87 33,-85 120,-140l37 144c6,-13 15,-14 16,-49 0,-5 -1,-12 -1,-17 -13,-212 -40,-207 -111,-254 13,-95 11,-150 -41,-208 23,-106 43,-90 -10,-204 79,0 74,-7 125,23 35,-108 -39,-25 59,-113 -21,-11 -45,-24 -61,-35 -27,87 35,25 -45,70 -112,-50 -58,-149 -65,-295 78,24 44,-7 84,59l39 80c1,-4 7,11 10,16 -7,-472 8,-221 21,-393l44 -387c5,-46 1,-115 7,-156 10,-64 116,-217 184,-537l124 -461c-50,20 -19,-2 -48,39l-92 155c-232,462 -221,624 -341,927 -36,90 -27,162 -57,260 -138,452 23,572 -142,567 96,92 95,77 69,381l-63 7 69 42c0,139 -16,211 -23,317 -8,115 18,197 20,293 -127,-28 -44,-27 -86,4l87 47 -1 177c-106,-16 -70,-22 -133,-89 31,86 78,112 158,133 0,125 13,124 -32,230 46,32 21,-43 32,65 3,29 -1,94 0,127 -131,-39 -35,-28 -133,-96 36,144 146,40 162,317l-42 31c90,52 67,94 92,203 22,99 50,153 56,250 -63,-19 -76,-27 -129,-52 37,41 73,46 153,62 40,281 222,236 108,369 81,15 155,75 192,146 41,79 89,121 152,165 -39,62 -37,43 -68,57l102 10c59,125 171,175 238,273l-77 0c63,38 77,25 77,25 220,37 289,131 421,232 67,52 21,16 91,46l527 357c107,62 302,131 364,223 -91,-24 -101,-53 -209,-84 -80,-24 -134,-31 -219,-54 -580,-155 -901,-512 -1157,-479 -1,3 -3,8 -3,9l-148 28c-31,135 -45,119 15,196l-185 -92c3,-2 18,-17 25,-20 -133,-45 -9,-42 -125,-84 73,7 52,7 104,37l1 -114c111,7 104,30 203,45 -28,-40 -31,-32 -54,-59 -23,-28 -30,-48 -43,-71 -29,32 -14,26 -62,40l-40 -28c-77,-54 -58,-39 -79,-99 -134,52 -142,-33 -223,-103l-15 45c-51,-54 -80,-56 -130,-97 -57,-46 -31,-69 -98,-123 -18,75 22,12 -33,58 -41,-88 -145,-146 -264,-85l-113 -50c-33,-48 -26,-53 -93,-80 -19,-59 21,-17 -55,-83 -135,-118 -399,-393 -489,-435l-88 57c-165,-208 -106,-210 -139,-288 -30,-70 -23,-18 -42,-94 102,74 119,257 249,296 -41,-73 -265,-500 -342,-538 -64,-31 -39,-137 -80,-195 -87,-125 -40,-55 -39,-212 -12,120 8,37 -35,104l-105 -212c-91,-4 -16,30 -145,-2l69 54c46,35 23,9 57,58 27,38 51,92 71,133l207 609c41,123 91,168 167,260 42,50 74,70 109,120 155,219 233,426 488,576 144,85 40,131 220,183l-30 68c61,-20 249,85 317,126 35,21 45,37 79,57l316 204c68,52 122,36 199,74l918 350 482 266c164,101 319,181 542,182 23,39 36,64 81,81 -60,44 -88,98 -158,120l73 26 -46 181c-185,161 -41,-9 -218,-26 114,-66 52,-3 75,-109 26,-120 29,-13 80,-120l-294 29c55,104 25,61 62,185l33 41c-23,20 -18,4 -36,37 -3,5 -4,11 -7,16l-30 87 -135 -163c43,-72 67,-80 67,-203 -105,4 -198,12 -241,102 -2,4 -5,10 -6,14 -40,107 5,-92 -6,22 -4,41 8,5 7,27 -5,141 -366,46 -453,36 36,-29 30,-16 46,-65 -56,12 -58,18 -125,23 30,-40 -26,-44 121,-45 51,0 109,-1 160,3 77,5 158,7 226,-22 -76,-98 -263,-16 -362,-67l-33 27c-4,2 -11,4 -16,5 -61,13 -124,-24 -163,-51 -23,50 -7,31 -76,46 -39,8 -39,6 -83,1 -82,-10 -136,-5 -219,-8 5,2 11,6 15,7 144,58 127,96 168,105l87 21c4,-6 12,9 18,7l-173 -5c47,34 112,24 173,31 -121,45 -72,-34 -103,63 -59,-67 -28,-48 -70,-43 -58,6 -96,38 -115,86 -49,-36 -6,-34 -58,-28 -6,1 -104,32 -146,-20 -84,-5 -80,-20 -130,-66 -63,24 1,-12 -65,29 -63,39 -23,15 -54,47 18,22 16,9 32,51 17,45 9,25 19,73l40 50c30,26 -8,5 47,21 -5,-88 -8,-128 -54,-173 -3,-3 -27,-13 -29,-21 -2,-8 -10,-6 -15,-10l99 0c51,96 43,83 45,227 -100,27 -74,-54 -113,46 140,-4 96,14 181,-72 19,57 -15,32 48,50l-30 89c54,-31 49,-38 105,-68 5,5 37,32 37,32l22 41c84,-69 98,-114 214,-26 103,-135 161,-82 326,-118 132,-29 407,-97 539,-57 104,31 -4,38 142,16 70,-10 128,-39 172,-36 57,5 102,27 166,29 -21,18 -10,10 -41,30 -93,60 -171,116 -230,224l-175 8c63,13 54,-4 115,32 0,16 41,-26 -16,39l-36 32c-60,41 -58,29 -142,30 37,25 29,10 44,57 -46,37 -62,58 -104,98 -43,40 -58,40 -102,90 235,-48 264,-214 419,-247 -29,62 -28,32 -22,106 5,61 2,37 16,95 -3,4 -8,9 -10,12 -2,3 -7,9 -9,12 -3,5 -12,22 -16,28 -77,160 -64,143 -187,198 -86,38 -6,13 -91,66 -6,-3 -40,-20 -44,-22l-155 -183c-224,77 -293,186 -419,336 -79,93 -96,19 -85,143 47,-7 85,-16 111,-17 75,-3 52,-8 93,40 -78,38 -99,-40 -225,68 8,76 20,69 48,111l63 0c80,-19 54,-17 115,-83 45,31 60,45 135,19 52,-18 77,-42 118,-67 77,-49 158,-94 222,-147l36 76c10,-150 -11,-133 84,-196l64 -49c45,-48 36,-69 155,-118 52,61 14,12 38,90l5 -112c60,-45 87,-76 164,-100 56,-17 -7,20 64,-34 165,-126 179,-60 263,-216l76 -124 181 -10c-27,153 -75,379 -43,548 19,99 3,86 83,100 -16,-42 -30,-73 -41,-123l-1 -96 69 -16c52,72 15,57 91,184 -68,-20 -18,3 -81,-38 6,64 -2,23 35,88l-66 40c151,193 532,43 445,-247 -54,73 -20,70 -108,81 -90,12 -78,25 -162,51 40,-93 70,-85 104,-218 24,-94 38,-140 38,-257 153,0 183,-72 172,131l-95 -29c-5,0 -12,-2 -17,-2 -4,0 -11,0 -14,1 -39,16 -27,110 -29,158 80,1 42,7 94,-11l71 -15 21 -210c117,23 105,0 193,10 -25,60 22,421 47,498 3,0 9,-1 10,-1l36 -38c1,-8 6,-10 5,-11l50 41c-16,81 7,-1 -15,52 -2,5 -16,24 -20,31 82,70 34,68 20,162 27,-65 28,-69 66,-131 49,53 15,37 95,34 62,-3 29,4 104,12 42,-10 256,-149 -19,-155 -1,1 -16,29 -55,37 -93,19 -74,-13 -82,-19 -77,-18 -132,-77 -161,-158l89 -92c68,116 91,175 160,182 3,-19 47,-158 56,-172 83,-118 64,115 85,-74 27,64 5,24 42,64 21,-38 -36,-41 47,-21 -35,-71 -22,-25 -30,-34 -59,-71 22,-46 -88,-104 -14,60 -9,48 -48,90l-42 -204c62,-14 43,2 87,-51l-36 -62c-170,12 -376,93 -363,-157 -34,13 -95,41 -135,66 25,29 1,8 36,32l92 78c-53,36 -84,67 -163,35 -77,-30 -35,-48 -35,-146l-23 24c-3,3 -8,9 -11,13 -138,158 -206,70 -308,32 19,110 47,62 -23,113 -2,-80 -21,-92 -15,-131 16,-102 25,-58 60,-73 43,153 227,115 228,-89 126,61 157,23 293,23l14 29c2,4 4,12 6,17 24,59 19,112 240,111l88 -7c5,3 63,23 67,24 164,38 149,-13 153,-16l-24 -23c-21,-22 -2,-14 -36,-32l-128 -58c74,6 80,23 157,19 -60,-55 -23,-34 -116,-51l78 -35c-60,-19 -36,-18 -110,-39l85 -5c-22,-38 -17,-8 -21,-50 -7,-83 1,-14 21,-42l113 69c87,-65 81,-15 45,-115 178,-29 94,-108 337,-80 153,18 176,27 346,25 79,-1 246,35 381,34 76,-1 120,-13 182,-24 295,-53 -109,-92 490,-34l-145 16c129,47 105,16 221,123 -20,-75 12,-30 -40,-82l108 43c65,1 92,15 113,15 135,2 75,-77 156,52 12,-95 -10,-46 37,-101 38,-45 34,-37 87,-57 -29,131 -11,9 -53,119 67,52 73,77 91,154 61,-77 66,-46 66,-46l47 44c38,49 3,-5 21,48 89,-89 137,40 221,49 106,12 101,-18 186,69l32 -18c67,-20 323,91 397,152 71,59 12,-34 160,63 44,29 103,68 159,69 98,1 10,1 50,-19 12,21 28,63 67,82 111,55 182,12 350,152 -47,-104 -17,-91 -121,-133 -165,-65 -272,-156 -436,-198 55,-48 93,-94 158,-134 111,34 240,123 375,105 -96,-52 -623,-245 -677,-225 -74,27 -61,54 -164,66 -130,15 -293,10 -370,-109 -44,-68 23,-9 -50,-65l47 7c-10,-83 5,-43 -34,-95 65,-19 39,21 56,-46l330 147c125,42 86,0 101,-11 -76,-7 -324,-140 -400,-192 -47,-32 -531,-279 -638,-216 -66,-97 -252,-146 -381,-167 -104,-17 -93,49 -195,-34 -45,54 -67,63 -227,65l13 -68c-30,37 -24,-49 -30,90 -174,-45 -162,20 -172,37l-7 -107c-161,123 -158,-31 -341,74l-68 -50c-113,69 -273,-3 -400,14 5,4 12,9 15,11 3,2 11,8 13,11l21 21c1,-3 5,7 7,7l-76 18c-61,-56 -60,-52 -131,-42 -48,118 -27,98 -105,189 -50,-39 -95,-41 -178,-50 -94,-10 -97,-2 -66,-63 -16,0 -96,6 -109,-37 -2,-8 -6,-10 -10,-14 -81,27 -95,42 -181,3l-73 47c-31,-58 13,-27 -63,-45 32,-117 -6,-87 68,-107l0 39c207,-53 210,53 294,-40l36 29c84,42 196,21 220,21 31,0 31,4 51,7 5,1 34,9 41,11 -52,-138 -152,-116 -256,-186l321 -87c5,-2 57,-27 77,-37 76,-37 -8,-13 94,-41 486,-134 225,32 837,-272 114,-56 69,-42 149,-102 72,-54 31,5 171,-78 123,-72 412,-169 544,-204 57,-15 119,-45 182,-66 185,-63 394,-253 351,-351 155,-33 27,-44 157,-32 21,-196 153,-121 302,-436 95,-201 438,-389 566,-1247 17,-113 46,-226 52,-312 -84,60 -122,226 -167,333 -40,96 -103,278 -106,392 -4,4 -9,10 -11,13 -83,115 -176,293 -147,418l-47 3 -3 -65c-15,10 -78,47 -87,56 -68,72 -102,202 -182,218l20 122c-109,-56 -107,90 -252,93 13,112 16,92 -69,131 -115,52 -29,13 -94,85 -34,38 -87,50 -140,65 -153,42 -113,2 -130,-18 -10,81 -4,43 -25,80 -129,-3 -65,0 -99,-32l-85 63c-72,21 -29,13 -81,-1 -68,142 -144,44 -344,288 -140,1 -221,8 -339,57l-26 -54 -53 109c-232,0 -634,181 -861,271 -76,30 -192,77 -282,95 87,-124 -31,-14 272,-151 675,-306 273,-374 802,-432l-133 -11c68,-98 181,-104 293,-155 144,79 125,18 144,-2 -146,-13 -52,23 -85,-45 77,-17 193,-77 238,-159l94 23c-60,-123 -18,35 59,-227l-123 62c-65,16 -37,9 -78,52 -5,-2 -12,-6 -15,-7 -88,-42 -26,-21 -75,-16 -60,7 8,42 -66,-12l-49 11c-10,-55 19,-12 -21,-44l-92 42 50 -70 -93 30c37,-39 45,-41 79,-81 -77,-9 -9,-19 -83,18 23,-25 13,-15 39,-38 163,-143 65,-125 154,-185l196 -81c5,-2 12,-3 17,-5 33,-13 31,-15 50,-32 -26,44 -47,52 -52,89 -6,45 27,82 29,86 77,-56 14,-47 112,-68 -70,93 -17,57 -44,158 70,-27 54,-18 104,-78l10 76c107,-113 -34,-113 63,-250 130,-184 104,-278 170,-558 26,-110 38,-176 137,-223l-84 19c13,-87 23,-90 40,-155 19,-72 -16,-22 2,-111 21,-103 31,-46 54,-123l31 -102c-54,-36 -17,-17 -72,-37 15,-78 31,-53 -15,-104 150,-28 20,-62 169,-125 0,0 -32,-25 -35,-28 -72,-71 83,-223 105,-240 -35,-83 -5,-339 82,-395 -93,-80 113,-433 44,-502 -2,-2 -8,-9 -11,-12l-69 -66c59,-23 25,14 32,-37 38,-284 -4,-638 -89,-905 -33,-106 24,-84 -74,-169 -6,-88 -56,-195 -92,-249 38,-61 67,-201 60,-294 -39,81 -13,161 -63,254l-120 -224c-39,-69 -61,-141 -104,-215 -39,-66 -84,-126 -133,-184 -74,-89 -70,-104 -77,-248 -55,119 33,88 -58,159l62 72c-32,133 5,104 51,245 16,49 -5,52 19,93 14,23 26,12 50,86 16,50 2,39 25,87 15,31 18,15 36,57l94 288c33,50 20,-1 47,67l63 237z"/> <path class="fil0" d="M10189 -6939l-4 344c2,-5 -3,-19 -4,-15l-32 -40c-85,-57 -77,117 -70,-152 6,-217 18,-182 92,-147l18 11zm361 49l6 267c-41,-30 -43,-198 -6,-267zm72 201c-65,-54 -32,8 -37,-113 -5,-111 -30,-79 37,-136 -1,134 11,148 0,249zm125 -138c-29,-28 -30,11 -32,-46 -3,-92 14,-48 22,-60l10 106zm-420 229c-8,-10 -57,-27 -40,-153 2,-18 21,-136 27,-165 41,42 27,-16 26,53 0,1 -12,65 -13,81 -4,55 0,126 0,183zm-68 0c-79,-77 -23,-66 -23,-317 90,36 19,-50 23,317zm1072 -566c-17,-33 15,8 15,8 6,23 1,25 -15,-8zm-211 0l61 -95c38,95 56,138 49,228 -42,-36 -78,-90 -109,-133zm659 75c-35,-93 -26,-81 2,-160l80 68 -81 92zm-726 -209l44 37c-90,-28 -10,-2 -44,-37zm455 -541c20,45 98,323 108,380l-113 120c-124,-316 -7,-234 5,-500zm-383 -236l6 34c2,5 9,29 12,35 24,40 39,34 64,48l-106 1 23 -118zm328 -90c-91,-21 -103,-4 -133,-84 38,23 97,54 133,84zm125 -125c2,-46 8,-13 40,-28l-15 68c-56,-35 -27,19 -25,-39zm161 -69c-12,16 -40,34 -11,2l11 -2zm-621 -96c15,16 52,30 34,81 -10,30 -31,34 -57,46l23 -127zm376 104c-76,-2 -77,-16 -125,-57 49,-61 100,23 125,57zm9 -137c-68,-91 6,-73 26,-79l-26 79zm116 31c-51,-61 -10,-72 -3,-84 9,14 33,5 3,84zm-387 -98c0,0 149,-235 269,-172 -4,3 -10,7 -13,9l-44 23c-66,33 -105,41 -149,122 -17,31 -37,91 -35,137 4,85 13,-24 11,72 -1,43 -8,31 -18,49 -20,-96 -24,-117 -21,-242zm450 -261c-66,-6 -63,-5 -107,14l-5 -70 203 31c-32,80 21,34 -92,25zm-429 -25c15,-9 13,-11 43,-23 132,-51 52,6 114,-62l-158 23c8,-83 188,-48 249,-34l-12 40c-6,49 -7,26 28,49 -178,3 12,-24 -266,6zm317 -68c19,-84 18,-28 1,-113 107,29 160,-3 248,69 -47,-1 -97,-12 -128,-14 -75,-5 -28,-27 -54,35 66,4 110,15 156,48l-223 -26zm-237 -85l-73 10c3,-20 49,-30 73,-10zm187 -6c-8,5 26,35 -71,13 -80,-18 -41,-21 -56,-31 76,-1 72,-13 127,19zm55 -68c32,-23 -60,-27 58,-20l-58 20zm-193 -8c107,4 104,-36 138,29l-274 2c41,-43 42,-34 136,-31zm114 -98c3,38 -8,-12 9,31 1,3 13,20 16,27l-305 17c31,-121 162,55 217,-81 -184,0 -222,29 -267,0 54,-32 55,-18 131,-27 151,-19 67,29 196,-10 30,50 0,7 2,44zm-356 -75c109,0 135,-26 383,-21 -18,10 -7,12 -45,19l-338 2zm90 -71c10,-1 56,-7 56,-7 34,-1 26,5 36,11 -62,36 -96,24 -207,20 60,-30 37,-15 115,-23zm561 31l-221 -50c39,0 97,-3 134,3 83,13 75,35 87,48zm-968 60c64,-25 15,22 56,-43l158 1c129,134 202,218 141,475 122,-1 187,-37 313,-12 -151,40 -230,19 -361,76 56,132 -55,-56 17,35l40 41c-86,95 -59,128 -55,169 -46,-15 -39,-1 -90,69l-61 -45c-19,166 -40,-13 -119,154 123,-18 106,7 183,-52 9,150 36,239 -12,267l20 24c1,2 8,9 10,11 1,2 6,7 10,11l-2 91c5,3 13,1 15,8 6,20 136,47 55,196 -70,-81 -26,-79 -61,-152 -23,92 -17,486 -51,583 -28,79 -129,257 -342,317 -98,28 -52,-15 -108,3l-44 20c-82,26 -70,9 -97,-20 -94,79 -110,32 -189,3 -5,-2 -11,-4 -17,-6 -7,-2 -28,-6 -35,-8 -86,-25 -153,-73 -211,-128 -26,17 -36,23 -60,45 50,29 10,24 60,-13 35,130 -13,-5 68,104 -4,76 -11,127 -9,204 3,109 32,82 -37,136 -30,-225 53,-158 -45,-211l-23 165c0,-160 -12,-203 -45,-251l-4 273c184,137 74,93 192,110 83,12 217,22 280,19l10 -329 111 -8 -2 302c-44,-94 -7,-148 -23,-207 -23,-82 1,-20 -43,-50l1 294c70,-17 72,-28 140,3 21,-92 18,-93 82,-61 79,-221 100,-50 190,-318 48,-143 93,-50 130,-188 101,64 47,123 55,193 14,123 24,9 39,279 45,-15 0,377 -4,418l-52 113c107,27 53,-9 77,71 52,-33 142,-30 230,-33 -8,-304 45,-813 185,-1012 92,131 190,272 218,447l91 611c166,2 24,-28 209,11 42,-85 24,-25 6,-110 -46,-217 38,-467 34,-694 -1,-68 -9,-84 12,-148 30,-94 48,-12 16,-97 163,-32 -25,-25 125,-49 -189,-224 -155,-35 -230,-506 -16,-97 15,-236 -7,-316 -55,-197 6,-166 17,-334 -22,-109 -25,-26 -34,-92 -7,-48 50,-10 -20,-103 -61,116 -38,153 -157,239 63,-117 81,-106 98,-277 -93,-97 -124,-193 -294,-197l-6 -45c163,7 303,91 323,236 53,-26 46,19 39,-45 0,0 -52,-136 -147,-173 50,-37 49,-30 55,-110 6,-91 -10,-30 29,-134 44,-117 105,-157 119,-271 -152,16 -37,-2 -72,59l-139 -18c5,6 13,5 15,13 9,36 11,5 27,21 29,29 5,-11 22,31 -46,-27 -31,-17 -106,-21 74,65 58,16 136,74 -57,26 -180,-14 -252,-42 -34,-13 -25,-13 -43,-26l121 11 -98 -79c90,8 45,17 136,23 48,-49 38,-39 99,-36l-36 -50 254 23c-25,-62 62,-51 -181,-51l0 -23c36,0 74,4 109,-6 5,-2 10,-5 15,-7 173,-66 7,-2 153,4 47,2 14,1 40,-14 -15,-11 -10,-14 -42,-27 -30,-12 -30,-10 -72,-20 -66,-15 -73,-19 -146,-21l40 43c1,1 2,6 3,8 -78,24 -26,21 -101,-6 -64,63 -71,42 -161,10l107 -5c2,0 7,-4 11,-5 -61,-34 -153,-45 -238,-45l57 -25 -93 -63 -39 47c-145,-14 -145,-51 -234,19l47 25c25,65 -53,33 78,39 92,4 81,27 116,-32l6 55 -424 -86 -230 133c-105,42 -71,14 -44,91z"/> <path class="fil0" d="M4789 -1703c24,-51 48,-85 75,-125 37,-54 47,-77 100,-104 -20,65 -42,83 -71,135 -44,78 -6,66 -104,94zm454 -513c41,91 1,92 -73,25l73 -25zm330 -196l-46 50c-33,48 -12,-10 -22,68 -144,5 -72,41 -178,64 43,-60 0,-20 65,-60 -4,-5 -9,-12 -11,-15 -2,-3 -8,-11 -9,-14l-14 -31c43,-33 57,-51 80,-98l100 -16c9,105 -9,15 35,52zm42 -111c10,-50 28,-47 72,-59l-72 59zm-42 111c50,-58 63,-71 127,-118 108,-79 81,-30 124,-108l-71 3c3,-3 9,-8 13,-11l55 -78c14,67 15,60 51,112l-298 199zm1038 -791c-40,69 12,38 -87,55 25,-27 2,-13 38,-37 48,-33 14,-7 49,-18zm515 -255c2,-4 9,6 14,8l-56 15 -15 -57c6,4 25,14 29,17l28 18zm416 -58c-15,30 -21,51 -54,62 -133,43 -82,-20 -94,-28l148 -33zm-385 -89c75,-22 244,-107 372,-81l80 29c-67,53 -122,47 -92,115 -246,28 -5,99 -315,156 0,-1 28,-44 29,-45 -141,-49 26,-79 -75,-174zm477 42c3,-128 9,-108 44,-129 1,2 1,6 1,7 0,1 1,7 2,7 26,36 31,15 79,48 -21,15 -93,50 -127,67zm455 -175c-52,39 -33,35 -116,39 37,-26 -39,-1 57,-33 65,-21 4,-2 59,-6zm314 -95c51,18 30,-17 37,37l-37 -37zm-314 95c27,-26 -9,-6 53,-41l164 -48c-54,37 -140,76 -216,89zm-1478 536c16,-116 25,-46 66,-128 -69,6 -176,55 -244,85 -47,21 -4,-1 -57,34 -134,90 -87,35 -172,77 -121,61 -311,179 -370,309 -110,9 -159,43 -222,95 -98,81 -68,61 -189,106 -2,53 10,95 -63,137l-166 70c102,0 35,-11 83,31 -108,58 -20,65 -162,108 -25,55 7,36 -53,107 -153,180 -123,215 -290,261l34 38c59,76 -9,-30 9,19 -17,35 -37,71 -58,101 -204,295 -211,607 -258,670l-45 29c-1,-3 -6,3 -12,6l12 217c54,-82 6,-146 99,-235 -10,121 -58,180 42,276 13,-177 -7,-170 56,-232 36,-68 45,-119 47,-210 46,64 -2,20 59,52l-11 -126c50,-28 28,-12 55,-63l27 138c9,-152 10,-234 84,-341l9 99c43,-52 10,61 40,-80 43,-203 -28,-25 87,-211l32 -76c69,-59 127,-116 189,-172l4 252c19,-157 46,-290 124,-373 31,7 30,10 43,15 85,30 -51,7 23,7 47,-65 32,-92 96,-155l64 77c19,-208 55,-87 127,-185 27,84 12,68 -6,150l174 -273c75,-62 233,-53 341,-110l32 58c2,-4 8,11 11,17 36,-95 -7,-73 74,-118 27,-15 79,-36 107,-51l-10 85c28,-30 61,-60 86,-99 101,-155 187,-109 286,-258 63,-1 51,-2 91,24 30,-119 73,-106 165,-165l34 31c61,-44 64,-83 121,-112l426 -187c40,33 18,-28 38,38 46,-86 -80,-26 176,-127l13 64c239,-199 561,-73 592,-477 -32,-21 -12,33 -43,-48 -1,-2 -6,-67 -7,-76 -44,-36 -56,-43 -134,-54 -96,-14 -56,-13 -136,-46 -82,111 -146,44 -305,34l76 36c-146,101 -52,38 -148,78 -220,93 38,85 -309,52l97 52c-90,83 -306,145 -400,187 -92,41 -75,85 -78,101 -69,-16 -25,-14 -83,9 -101,39 -70,11 -123,25l27 38c-105,72 -141,23 -161,142l93 -47c4,5 10,10 13,13l72 92c-23,19 -38,30 -65,52 11,45 1,42 20,84 -122,24 -56,23 -85,96 -3,-4 -8,-10 -9,-12l-51 -68c-1,-5 -4,-7 -7,-10 -85,36 0,14 -97,27 26,-50 15,-5 16,-63l-58 -12z"/> <path class="fil0" d="M14035 1262c9,-75 32,-108 71,-153 -4,83 -16,103 -71,153zm186 -482c-37,-53 -26,-42 18,-103 16,35 28,55 -18,103zm24 -311l25 -256c120,-62 54,-32 86,-82 8,95 -23,33 36,82 -100,107 -55,189 -148,257zm101 -435l3 -99c31,52 38,-60 22,53 -5,33 -7,21 -25,46zm146 -743l-12 134 -46 -51c-59,71 -24,25 -20,112l-57 -103 -1 181c-44,-79 -23,-95 -57,-171 -20,-46 3,27 -31,-55 3,-1 8,-6 8,-3l27 -14c1,-1 6,-4 9,-6l-23 -68 -57 37c-3,2 -7,9 -11,14 6,-110 67,-158 144,-157 68,2 76,82 126,149zm-190 -399l2 101c-25,-62 -43,-56 -2,-101zm-154 -864c8,41 4,64 -6,106l6 -106zm-426 -773c-18,55 23,44 -45,26 25,-31 -36,-26 45,-26zm-265 -257l-71 -15c16,-7 3,-13 34,-8 72,11 24,15 37,23zm-125 -66c-59,-13 -24,12 -60,-38 64,20 17,-16 60,38zm702 4332c-26,104 -24,93 -109,92 32,93 19,15 32,76 -1,1 -25,19 -35,28 -57,54 -5,11 -47,91 -60,113 -249,364 -267,438l46 1c33,-118 59,-99 101,-149l111 -184c78,69 -25,33 81,57 -54,-173 9,-186 37,-211l146 -238c30,-70 33,-58 64,-118l166 -361c30,-97 3,-73 1,-186 47,-48 28,1 62,-61 4,-8 22,-79 23,-91 10,-100 8,-131 25,-225l-68 -69c61,-57 45,-46 47,-158l-70 -124c-85,-1 -21,-36 -82,48l14 -218c-87,47 -9,39 -94,70l36 -102 136 -12 -9 -69 90 45c50,-119 105,-231 21,-342 -4,-59 -6,-269 -34,-304 -2,-2 -9,-10 -11,-12l-21 -44c8,-2 -10,-78 38,20l32 -111c-15,-33 -30,-61 -28,-111 4,-125 -19,-34 36,-83l-48 -51 -8 225c-58,-82 -43,-148 -147,-195 45,138 20,50 10,193 -58,-63 9,-17 -67,-45 -1,85 5,74 -25,112l13 -202c-18,-5 -13,-36 -54,32 26,-241 -12,-227 -91,-418 3,-1 7,-3 8,-3l19 -7c16,-7 -1,7 40,-21l22 77c90,-36 23,-17 45,-65l45 65c28,-15 24,-19 68,4l14 -84c1,-9 6,-10 9,-15 0,71 -8,125 50,129 89,5 -15,-106 83,-169 -102,-152 -31,-148 -67,-226 -23,-50 -28,-34 -50,-105 -14,-43 -22,-77 -39,-127 -21,36 -22,-39 -18,67 0,1 14,63 15,72 -72,-98 28,-8 -132,-224l-116 -134c-119,-162 -101,6 -112,-166 -62,22 -33,0 -78,38 -44,36 1,3 -12,28 -194,-123 -22,-169 -159,-174 -11,-10 13,-64 -90,-27 -3,-4 -5,-11 -6,-13l-21 -33c-22,-13 -20,-4 -63,4 34,-77 10,-30 -69,-113l90 0c-55,-41 -62,-21 -106,-75 52,-26 16,-1 61,-61 -4,-4 -9,-10 -11,-12 -97,-82 -151,-86 -214,-137 -53,29 -43,18 -87,54 -38,-34 -32,-24 -80,-56 -101,-65 -41,0 -59,-81 -83,27 -101,-2 -175,-25 94,-37 54,32 61,-85 -52,23 -30,15 -45,41 -97,-71 -112,4 -117,-53 -2,-25 55,-22 -43,-48 -49,-13 1,-51 -57,-81l-99 -45c-58,32 -106,69 -155,98 70,119 106,92 155,211 55,-40 4,-28 88,-27 46,53 20,39 94,67 14,5 24,5 50,16 32,14 23,14 40,27 50,-38 34,25 40,-40 43,66 3,39 84,73l-39 36c121,14 30,5 124,107 298,321 111,235 565,499l281 106c28,219 -16,518 116,789 98,200 14,248 97,650 11,51 6,30 24,69 85,177 -18,238 33,420l54 104c-62,112 -36,210 -104,349l35 12c10,162 60,153 26,298 -64,272 -9,130 -26,264l-80 418c-32,98 19,26 -76,84l19 71c3,38 5,16 -5,55 -22,79 0,34 -51,69l55 31z"/> <path class="fil0" d="M8468 557c-33,-62 -29,-65 0,-128 54,21 46,-32 41,81 -62,-111 -29,-22 -40,-18l-1 64zm83 -55c-4,-29 -10,-21 -8,-56 5,-115 -5,-22 19,-60l-11 116zm-39 -354c-57,-113 50,-300 34,-364 13,88 -11,95 -27,170 -7,37 -2,126 -7,194zm218 -1377c79,-55 56,-13 78,10l-78 -10zm-262 1786l26 99c65,-4 27,-19 73,8 6,3 18,18 22,23 68,78 -28,-56 20,29 40,71 -2,63 66,122 -10,-169 -81,-241 -64,-443l88 -53c2,-319 53,-109 73,-184 1,-5 9,-2 13,-5 -89,-146 -7,-398 -26,-585 -47,13 -33,6 -59,45 -9,-97 15,-64 -51,-115l56 156c2,-3 6,-8 7,-16 1,-8 4,-11 6,-16 -7,85 1,64 -24,115l-64 -18 -2 -203c-28,35 -19,3 -27,67 -1,4 2,67 2,75 -30,-57 -71,-163 -55,-243 14,-66 37,-172 59,-238 2,4 5,11 6,13l11 68c0,-3 2,8 4,12l82 -200c58,-28 46,-11 86,-12l22 81c-19,-22 -73,-45 -122,-61l43 214 82 -37c1,-6 7,-8 8,-12l11 426c18,10 11,3 30,14 67,42 49,64 121,142 -64,-337 -249,-131 -59,-755 23,-77 31,-187 53,-258l-130 -51c35,-25 26,-10 36,-53 -177,-59 -77,-178 -235,-156 63,102 -43,191 -89,237 39,-21 54,-31 83,-50l-98 474c-36,150 -74,329 -106,461 51,25 44,0 -3,136 -25,5 14,41 -39,-30 -8,138 -54,162 -75,277 -20,108 8,35 16,96 0,0 -19,460 78,627 31,-56 2,-45 3,-175l34 58c1,-4 6,11 10,16l-4 -125z"/> <path class="fil0" d="M9044 -2391c23,-83 1,-92 -7,-106 -41,30 -17,1 -42,50 -95,183 -102,277 -235,407 35,41 21,-57 30,64 4,58 -21,120 -62,152 103,247 -87,161 60,237 1,-120 -6,-212 113,-252l67 138c63,135 30,264 1,406 61,-23 39,3 75,-106 53,-163 100,-220 145,-333 101,-253 87,-229 79,-513 27,-32 37,-46 57,-89 -164,30 -180,48 -281,-54z"/> <path class="fil0" d="M10464 -8006l-23 101c-10,-22 -42,44 -12,-65 21,-76 9,-12 36,-36zm0 0c3,-50 12,-75 23,-109 11,-33 5,-19 19,-50 24,-55 12,-23 28,-48 -11,52 -16,71 -28,119 -10,40 1,15 -15,53 -12,28 -20,27 -27,36zm-303 -248c9,-5 35,-7 55,-29l-43 95 -11 -67zm210 -65c14,-67 22,-61 38,-126 9,13 82,-46 15,82 -8,15 -42,35 -52,44zm0 0c-12,55 -12,65 -45,105 -30,93 -46,92 -22,146l64 -119c30,-77 16,-65 71,-112 -15,40 -18,40 -31,85 -57,196 -42,104 -90,227 -68,-70 -44,-32 -78,-11 8,-127 2,-64 -28,-96 -12,84 -22,90 -68,137 7,-60 15,-76 35,-124 12,-30 12,-35 27,-62 17,-31 15,-20 30,-37 6,-88 87,-241 131,-295 -6,116 -34,58 -42,186 4,-3 28,-4 44,-29zm-176 -141c19,-17 -4,10 18,-19l17 -26c35,-41 -2,-19 51,-41 -38,77 -5,56 -67,117 53,70 23,1 45,87 -69,-40 -57,-57 -98,89l-125 214c-21,126 12,68 25,86 38,-113 0,-85 84,-185 -19,123 -76,131 -61,265 70,-94 89,26 273,45 118,12 25,14 76,-16l165 -407c-46,14 -36,6 -65,40l-11 -74c-73,128 -83,260 -170,349l69 -216c53,-153 76,-59 42,-243 23,22 14,48 91,70 35,10 11,-30 88,52 -48,103 -77,253 -129,356l155 -39 -26 -67 -66 74c40,-128 79,-232 116,-366l30 82c58,-91 14,-41 78,-61 -26,38 -24,29 -38,69l-15 54c-10,42 -6,16 -14,66l-39 -93c-21,42 -33,90 -51,129 20,12 9,7 39,18 80,28 -36,-34 17,5l-15 152c92,-64 12,-44 146,-84 -11,-124 19,-132 39,-227l-27 -11c-1,-1 -7,-5 -8,-6 -1,-1 -5,-4 -8,-6l22 -79c-36,-12 -76,-25 -96,-34l-52 -31c-60,-31 -71,12 -269,-92l-74 -46c-44,-38 -7,-9 -31,-36 -39,-45 -8,-33 -70,-53 -43,26 -65,10 -64,140z"/> <path class="fil0" d="M17708 -2679c30,-69 64,-28 14,-148 -173,22 47,-77 -370,-91 -132,-5 -82,3 -119,37 9,5 41,18 47,22 70,48 -4,28 107,95 225,137 413,194 441,352 1,-3 16,-33 17,-35 1,-2 9,-5 10,-12 1,-7 7,-8 11,-12 147,99 267,156 374,305 228,320 106,146 252,268 94,79 48,49 77,38 12,-30 -134,-251 -163,-293 -13,-19 -26,-32 -40,-52 -55,-72 -58,-23 -25,-104 -123,30 -180,-286 -478,-353 12,171 122,92 207,238 -79,-28 -220,-116 -274,-178 -32,-37 -55,-51 -88,-75z"/> <path class="fil0" d="M10293 -7614l161 5 -56 338c-2,-75 2,-91 9,-161 9,-91 28,-34 -31,-73l-25 272 -90 -45 34 -336zm-462 -22l-2 176c94,-85 10,-125 104,-308 14,89 -21,166 -33,242 -22,137 -51,181 -25,228 73,-42 35,-3 50,-114l63 -343c86,41 2,38 17,161 5,-4 11,-8 14,-11 2,-3 9,-9 12,-12l30 -65c99,61 100,22 199,86l-61 23 54 45c-28,57 -16,83 -16,168 -3,-6 -8,-12 -9,-16 -23,-74 -15,-54 -6,-130 -33,29 -16,-6 -38,38 -30,58 5,97 -36,166 0,-1 -13,-68 -13,-69 -4,-68 23,-34 -9,-88l-31 128c-53,-119 -4,-115 -22,-240 -55,95 -43,130 -38,259 56,33 51,48 125,68 -78,31 -34,48 -99,-7 37,101 18,-23 28,101 27,-39 -10,-46 79,-36 78,9 49,54 59,33 2,-4 7,8 11,13l0 -46c98,36 5,19 112,22 5,0 45,-16 67,30l184 -51 0 -184 -45 139c-41,-57 -23,-89 -23,-186 -83,47 -17,-26 -52,157l-16 29c-28,-51 -9,-103 1,-203 6,-60 17,-136 44,-179l16 111c33,-40 25,-6 35,-108 77,17 104,-7 129,-72 -310,-7 -371,56 -523,-43 -64,-42 -71,-37 -110,-97l-44 48 -23 -68c-39,44 -25,41 -91,19l-56 177c-1,-3 -7,9 -10,13z"/> <path class="fil0" d="M13022 -6622c-53,-29 -34,20 -46,-88 -5,-44 -5,-76 -13,-124 55,65 58,124 59,212zm17 -448l51 425c-42,-39 -30,-2 -45,-91l-45 -317c24,-30 -37,-44 40,-17zm0 0c25,-58 -12,-21 35,-50 52,127 60,166 67,349l-66 -243c-17,-49 -16,-34 -36,-55zm412 67c-47,10 -20,3 -46,17 -3,1 -11,15 -13,10 -2,-4 -8,8 -11,12 -6,-186 -43,-98 -98,-209l10 165c-38,25 -28,-8 -45,45l22 8c2,1 10,2 12,2l10 31c-54,26 -21,13 -39,47 -5,10 -15,27 -41,48l-100 -318 56 -80c45,2 25,-6 54,31 1,-29 -8,-98 -8,-98 2,-90 6,-33 41,-57 -14,121 -11,109 38,170 0,-108 -10,-214 -68,-283 -37,133 -72,205 -153,261 -76,52 44,6 -118,101 21,87 30,145 28,261l-31 -53c-33,-44 10,-6 -36,-36l29 317c-45,-13 -10,4 -57,-56l-45 44c1,-169 -49,-274 -69,-395 -6,15 -42,-30 2,146 78,304 -98,291 133,297 111,2 188,-3 279,-42l175 -136c-8,-116 -62,-156 6,-264l-6 169c77,-31 24,16 59,-82l31 -72z"/> <path class="fil0" d="M9621 -6366c-7,-141 -61,-552 2,-686 -4,-4 -9,-10 -11,-12 -2,-2 -10,-10 -12,-12l-24 -22c32,-12 -27,-23 72,1 -4,-136 -29,-184 23,-319 -4,-4 -10,-9 -13,-12 -2,-3 -9,-9 -12,-12 -37,-57 -8,-173 25,-225l-1 208c42,-67 23,-55 29,-116 3,-36 4,-53 20,-89 82,-185 54,-232 113,-384 52,-133 78,-74 52,-173 96,-34 41,13 92,-91 28,-57 43,-86 55,-148l-66 53c37,-161 115,-111 67,-219 -4,4 -9,10 -12,13 -2,3 -8,10 -11,13 -108,136 -48,109 -155,300 -141,252 -104,269 -135,337 2,5 6,12 7,15 1,2 5,11 6,14 2,4 8,17 9,22l-50 196c-6,-9 -56,7 18,-153 -63,19 -63,31 -79,115l-141 1084c2,101 4,36 21,61l3 -25c0,-3 0,-11 1,-14l60 289c-36,-48 -5,-27 -56,-56 -28,203 53,171 60,174l41 -130z"/> <path class="fil0" d="M10589 -6314c24,104 4,23 -12,54l-22 -112c30,37 12,-37 35,58zm-589 -127l32 271c-52,-62 -94,-204 -32,-271zm786 -118l-253 165 -17 198 -51 -173c-72,-34 -322,-4 -503,-155 -4,-3 -14,-15 -17,-17l-97 79 47 379c65,-79 4,-223 4,-384 102,137 -48,293 186,378 -7,-73 -19,-82 -25,-147 -5,-51 -3,-116 -3,-168 2,1 46,22 49,23 67,20 47,-31 87,57l49 -27 19 228c-55,-51 -40,-18 -45,-116 -70,47 -23,104 0,164l150 -11c-63,-42 -52,-47 -76,-103 90,65 -15,40 79,61l-17 -221c64,65 2,142 67,241 35,-39 42,36 20,-98 -9,-56 -17,-41 -16,-118 71,78 19,225 132,157l84 -77c81,-72 73,-15 86,-51 3,-7 10,-5 15,-8 25,-84 40,-161 48,-255z"/> <path class="fil0" d="M16754 -3044c-20,-34 2,-17 -29,-30 40,0 11,-15 29,30zm-34 -102c139,-24 185,61 377,104 -23,14 3,33 -91,5l-286 -109zm218 -54c-4,3 -24,99 -55,-6l55 6zm-283 -79c-37,31 -3,11 -53,24l53 -24zm99 235c58,25 159,52 196,83 67,55 29,80 169,73 11,-16 37,-42 38,-66 0,-44 -5,-28 -47,-64 122,0 35,16 77,-23 4,-223 -168,-91 -254,-214l126 10c-13,-8 -3,-7 -47,-28 -5,-2 -11,-5 -17,-7l-86 -28c-171,-55 -131,-1 -141,6 65,6 57,0 127,34l-184 -6c-45,-68 -135,-75 -228,-88 15,69 41,110 83,162 -29,33 -56,67 -77,91l53 35c5,2 11,4 16,6 22,10 50,25 60,30 71,33 -35,23 71,23 124,1 46,6 64,-29z"/> <path class="fil0" d="M12588 -7668c63,90 99,227 89,335 -43,-56 -84,-249 -89,-335zm117 141l-40 -74c-6,-21 -10,-57 -14,-82 19,22 35,-4 54,156zm-92 180c-91,-104 -33,-150 -107,-289 49,17 30,-6 49,52l58 236zm-303 -76c-37,-92 -41,-175 -76,-257 56,18 30,-48 53,65 82,-64 65,-31 188,-24l67 313c-72,-95 -12,-119 -87,-220 -31,48 6,153 23,201 -60,-43 -77,-161 -45,-225 6,-11 4,8 23,-49 -76,19 -37,26 -97,-5 8,94 26,145 31,228 -45,-65 -18,-114 -77,-192 -35,90 17,46 -2,166zm395 -103l37 34c2,-4 10,7 15,11 -7,-134 -42,-116 -48,-227 -136,3 -158,39 -307,8 -123,-25 -178,-72 -262,-74 -3,139 57,321 161,401 87,67 287,104 419,88 18,-99 -11,-159 -16,-242z"/> <path class="fil0" d="M12365 -8660l63 59c-82,-11 -35,-6 -63,-59zm-204 20c74,24 98,60 136,115 -73,-25 -101,-61 -136,-115zm226 -97c5,3 13,2 15,10 3,11 71,35 98,135l-90 -91c-1,-2 -22,-53 -23,-54zm-249 77c-78,-25 -59,-6 -82,-87l82 87zm158 -158c26,17 7,-32 46,45 -66,-17 -28,19 -46,-45zm46 251c-138,-99 -193,-188 -295,-206 4,-64 6,-47 10,-89 4,-53 -15,-15 12,-63 54,30 86,60 140,103 47,38 82,75 119,118 -130,-37 -77,-86 -220,-122 36,60 -15,-5 32,50 68,79 172,98 201,210zm-46 -251c-72,-19 -99,-59 -135,-114 43,17 60,24 89,48 61,51 33,37 47,67zm203 116c-64,-29 -157,-148 -208,-201l-88 -71 -81 -50c-123,46 -80,73 -150,160 12,58 13,66 17,97 18,142 32,121 77,179 34,44 25,39 46,86l321 24c41,-46 8,60 35,-62 78,25 68,18 126,-30 -55,-46 -71,-59 -95,-133z"/> <path class="fil0" d="M13360 -7237c54,92 -7,64 63,100l5 -114c91,1 33,-7 68,18l-46 231c15,20 17,-48 23,64l23 -46c2,-5 12,-21 13,-32 1,-8 4,-10 8,-16l6 121c41,92 21,164 28,235 28,-27 37,-34 58,-58 -22,-75 17,-12 -37,-68 5,-5 38,-43 40,-45 -25,-549 -93,-487 -157,-797 -64,-312 -69,-111 -83,-176l-54 -95 -70 71 67 204c22,-34 35,-27 6,-108 38,49 21,56 78,87 -49,48 -72,34 24,49 -52,48 -10,-6 -21,225 -25,-52 -43,-140 -44,-196l-71 -11 -33 75c51,68 16,5 37,82 17,61 -7,34 46,100 2,-139 -17,-126 -18,-210 24,42 -4,-31 21,39l21 117c8,76 -2,65 -3,155z"/> <path class="fil0" d="M12349 -8110c6,10 33,53 38,64 55,117 8,72 1,83 -42,-66 -39,-73 -39,-146zm-157 -44l45 101c-42,-33 -56,-26 -45,-101zm35 -55c95,81 64,125 115,229 -72,-32 -23,12 -67,-91 -21,-49 -32,-78 -48,-137zm221 72l-4 -106c62,41 18,4 59,84 25,-66 12,-5 -4,-93 19,18 26,11 48,21 16,108 80,197 86,294 -64,-62 -51,-125 -109,-198 3,86 29,122 44,201 -63,-31 -30,19 -45,-69 -56,19 -11,-29 -41,54 -1,2 -3,7 -5,11 -119,-137 -56,-268 -172,-285 -21,-3 -14,1 -30,-5 21,-12 -2,-14 45,-19 29,-3 36,0 62,2 22,33 46,76 66,110zm-221 -72c-12,-16 -8,9 -26,-37 -17,-43 1,-19 11,-30l15 67zm321 -23c54,-108 171,-101 157,-128 -27,-56 30,-43 -142,35 -305,137 -456,-142 -492,29 -64,306 476,471 588,362 37,-36 9,-72 8,-74 -3,-9 -29,-56 -39,-77l-45 -115c-25,-41 1,-11 -36,-31z"/> <path class="fil0" d="M10863 -8769c-44,-22 -44,44 -24,-49 52,32 12,-14 24,49zm61 -181l0 0zm-212 -50c74,-18 40,-20 118,-52l-95 97c-29,-24 -32,33 -22,-45zm135 -137l6 34c-71,16 -60,19 -119,34l-23 68c-77,23 -9,-11 -72,41 -30,25 -47,39 -75,63 -56,49 -88,83 -106,143 102,-32 98,-127 229,-188l-64 81c-27,34 -31,46 -57,77 -24,28 -40,49 -62,74 -12,13 -18,21 -33,33l-56 38c92,59 76,-32 114,91 45,-24 32,-13 66,-51 5,7 25,50 30,62 23,-56 28,-43 40,-55l85 36 -51 -105c-6,3 -14,2 -17,10l-84 35c30,-54 35,-43 55,-113 -78,37 -56,46 -122,91 28,-114 284,-384 430,-408 -78,83 -116,73 -199,164 -49,54 -32,24 -51,85l155 -125c-45,95 -132,144 -157,239 73,-45 47,-46 138,-23l15 -63 40 -108c85,-51 56,-40 98,-117l29 106c-39,51 -51,51 -75,114 126,-53 79,-81 140,-112 -57,-72 -47,-218 -188,-196l43 -70c-55,0 -52,7 -102,17z"/> <path class="fil0" d="M12122 -9024l58 5c18,15 12,24 23,45l65 2 162 160c-20,-83 9,-16 -26,-68 -33,-50 -12,-6 -35,-56 -20,-12 -30,-3 -47,-21 27,-28 -9,-8 41,-18l12 -40c52,26 12,13 32,40 128,30 71,76 172,-9 -84,-39 -163,-107 -217,-173 69,19 41,14 106,8 -9,72 -37,56 47,79 258,73 -72,-231 -263,-276 -6,17 -74,-18 12,40 -21,1 -47,-3 -47,-3 -3,0 -12,-1 -15,-1l88 69 -74 40c79,124 57,93 117,74 -3,2 -19,21 -22,24 -97,70 -66,-43 -93,57 -43,-39 -78,-114 -96,21z"/> <path class="fil0" d="M12520 -6784c-59,-47 -41,-15 -31,-128l31 128zm68 28c-1,48 -4,21 -22,45l-42 -259c3,6 7,13 9,17l54 197zm72 89c-79,-52 -72,-330 -72,-330 61,73 68,235 72,330zm-340 -430c28,37 -49,27 89,70 -48,191 82,240 106,388 6,37 -5,5 9,26 14,-25 15,-25 45,-50 64,34 92,34 163,59 -24,-59 6,-14 -42,-61 -10,-94 -28,-246 -29,-315 44,58 32,53 43,135 16,114 18,80 55,113l-35 -299c1,-9 3,-12 4,-19 -139,59 -288,-3 -408,-45z"/> <path class="fil0" d="M12841 -7517c49,84 41,75 41,144 -53,-68 -39,-37 -41,-144zm158 -374c14,13 24,228 14,286 -19,-47 -58,-178 -45,-231l22 -41c1,-8 6,-9 9,-14zm0 0c-69,21 -53,32 -110,71l24 21c3,3 9,8 11,11 47,61 54,228 57,309l-3 14c-51,-101 4,-113 -71,-214 13,121 31,124 17,257 -34,-97 -40,-178 -83,-248l2 137c-50,-64 -22,-105 -84,-149l41 223 -50 23c2,39 -3,42 9,80 24,74 22,36 37,56 110,-6 164,-83 249,-155 1,-138 36,-212 12,-397 -16,-120 -12,-73 -42,-103l-16 65z"/> <path class="fil0" d="M12618 -6187c44,-14 16,9 45,-26 -15,-37 -22,-74 -26,-136l22 -36c3,-42 -229,-54 -353,-200 -62,-73 -5,-55 -99,-81 29,116 32,53 84,119 45,58 17,64 52,131 115,223 76,113 159,227 38,-51 28,69 26,-88 28,33 16,26 67,45l-25 -144c45,68 38,62 49,190z"/> <path class="fil0" d="M10618 -9073c32,-36 13,-27 72,-41l-23 46 -50 -5zm72 -41l51 -35 -51 35zm23 -91c-4,4 -8,10 -10,13 -102,99 66,-25 -96,63 -163,89 -170,176 -278,241 -18,65 18,26 -43,48l-34 89c126,-52 184,-256 367,-322 -53,136 -301,229 -253,375l33 14c88,-5 17,1 50,-14l12 -56 -65 48c15,-145 273,-344 340,-362 31,-45 33,-69 113,-69 13,-17 -31,-13 59,-39l-81 -54c-47,14 -15,-2 -51,21l-62 4z"/> <path class="fil0" d="M8791 1873c-28,-159 29,-165 -57,-284l-21 -24c-59,-72 46,84 -18,-26 -68,-97 -128,-200 -50,-250 -60,-24 -46,-23 -62,-91 -51,-213 -34,-76 -78,-195 -20,-55 -3,-46 -31,-99 -6,130 10,181 40,293 26,95 63,140 83,238 21,99 46,138 83,233 17,44 32,68 49,109l60 97z"/> <path class="fil0" d="M12791 -6152l0 0zm-173 -35c-76,-2 -36,-14 -76,28 51,15 108,16 169,31 51,12 193,122 109,-155 -23,-75 -29,-102 -112,-111l-25 71c-27,34 -36,-62 -16,76 3,22 12,43 15,83l-64 -21z"/> <path class="fil0" d="M9784 -6302c51,-19 63,75 42,-227 -10,-145 28,-52 30,-205 7,-407 15,-213 30,-380 9,-97 26,-31 -35,-56 -1,119 -28,132 -42,212 -11,70 3,152 -5,222 -17,145 -17,263 -21,434z"/> <path class="fil0" d="M8791 1873c5,73 56,233 128,263 1,0 17,1 34,9l36 27c-2,-91 -61,-191 -90,-293 -24,-84 -45,-197 -82,-272 -29,106 37,166 36,308l-63 -42z"/> <path class="fil0" d="M10781 -7300c108,-107 23,-272 -12,-371 -72,60 -91,-41 17,144 -4,5 -7,13 -10,16l-46 43c-37,22 -34,121 -41,168 -67,35 -49,-55 -69,68 65,3 80,7 148,-56 3,-3 9,-8 12,-11z"/> <path class="fil0" d="M10374 -8999c70,-25 12,5 71,-42 29,-23 44,-37 75,-61 56,-42 112,-76 149,-123l43 21 45 -68c-115,-25 -109,-8 -207,65 -68,50 -118,74 -183,139l6 69z"/> <path class="fil0" d="M10194 -8679l78 -150c2,-2 9,-7 13,-10l43 -48 46 -112c-33,27 10,-16 -36,33l-123 124c24,-67 29,-40 39,-107 -35,20 -23,18 -50,51 -53,65 -130,106 -142,209 118,-27 7,-43 131,-130 -18,66 -24,48 -46,113 31,44 -10,11 47,27z"/> <path class="fil0" d="M13000 -6170c6,-42 1,-78 -1,-119 -82,-47 -43,-69 -157,-83l9 80c68,23 -2,-32 67,-14l-55 182 90 46c11,-12 35,-18 46,-92z"/> <path class="fil0" d="M9740 -6781c36,-45 48,-62 46,-158 -11,-398 41,-257 44,-499 -79,44 -34,31 -53,151 -5,29 -25,106 -32,149 -14,85 -8,266 -5,357z"/> <path class="fil0" d="M9671 -6865c40,-97 48,-342 48,-481 -14,16 -38,-3 -48,113l-18 256c-14,98 -1,80 18,112z"/> <path class="fil0" d="M9831 -7636c3,-67 27,-182 45,-253 45,-174 64,-110 5,-181l-120 463 69 -29z"/> <path class="fil0" d="M13931 -2751c64,-6 12,20 47,-19l-126 -148c-3,-3 -9,-7 -12,-10 -4,-4 -46,-32 -52,-37 -1,-1 -47,-24 -61,-32 -84,-47 -83,-81 -183,-49l98 40c47,23 73,36 115,66 54,38 141,124 174,190z"/> <path class="fil0" d="M9941 -8070c29,-51 21,-60 48,-115 6,-13 19,-37 24,-44 40,-57 15,-22 46,-44l7 -55c14,-81 6,-6 41,-38l-7 -77c-21,18 -17,8 -37,36l-75 130c-33,55 -66,140 -90,196l44 9z"/> <path class="fil0" d="M12819 -8030l54 -34c4,-2 10,-6 15,-8l111 -80c-18,-84 2,-23 -34,-91l-56 -89c18,65 21,97 45,146 -3,2 -9,-1 -10,3 -15,77 -10,0 -18,9 -12,13 -3,-12 -18,35l-70 -71 13 104c-5,31 -23,-6 -32,75z"/> <path class="fil0" d="M12919 -6944c2,-4 8,10 18,13l-30 -148 -112 49c84,134 12,110 68,209 37,-54 38,88 21,-89 -2,-21 -13,-61 -17,-99l52 65z"/> <path class="fil0" d="M8699 1242c-8,-221 34,-140 -25,-362 -2,5 -68,262 25,362z"/> <path class="fil0" d="M10126 -6358c-18,31 -13,-36 -26,75 -24,201 23,197 70,205 -20,-86 -17,-209 -43,-280z"/> <path class="fil0" d="M9941 -8070l-31 228c70,-51 96,-172 97,-256l-48 20c-3,-5 -12,5 -18,7z"/> <path class="fil0" d="M10735 -8661c23,28 25,30 39,68l211 -113c-4,-4 -9,-15 -11,-11 -2,4 -9,-9 -12,-11l-46 -24c-51,53 -40,82 -81,98 -109,41 60,-84 -100,-6z"/> <path class="fil0" d="M10694 -5988c147,-7 69,-96 214,-113 -2,-2 -26,-32 -27,-32 -22,-23 -17,-17 -40,-36l-44 62c-3,3 -10,7 -13,10l-24 23c-15,16 -56,71 -66,87z"/> <path class="fil0" d="M12158 -3478c105,74 14,34 117,149 28,-17 27,-13 68,-30l-159 -156c-32,20 -23,-37 -26,37z"/> <path class="fil0" d="M8694 1538c34,4 36,3 56,13 11,5 32,27 33,25 4,-5 11,11 17,16 -14,-68 -64,-212 -67,-250 -13,160 -41,-5 -39,197z"/> <path class="fil0" d="M10786 -6559l63 7c42,-92 125,-165 92,-251l-74 131c-28,48 -49,73 -81,113z"/> <path class="fil0" d="M13610 1988c-75,33 -71,62 -111,116 -50,68 -66,35 -63,128 65,-72 151,-140 174,-244z"/> <path class="fil0" d="M8990 2172c-36,180 -10,56 25,202 56,-64 11,-56 46,-136l-70 -66z"/> <path class="fil0" d="M10328 -7313l21 -273c-40,48 -60,142 -62,206 -2,98 -10,39 41,68z"/> <path class="fil0" d="M17399 -2974c-16,-54 7,-51 -68,-78 -113,-42 -86,7 -100,19 56,41 81,47 168,60z"/> <path class="fil0" d="M10667 -7346c0,-309 60,-185 -23,-230 -2,114 -25,121 -23,232l45 -2z"/> <path class="fil0" d="M12727 -8003l-14 45c94,-33 80,-43 106,-72 -55,-50 -21,-10 -53,-80 -2,-5 -20,-46 -21,-47 -34,-54 -21,-26 -44,-46 12,46 23,60 36,102 46,144 4,83 -10,99z"/> <path class="fil0" d="M12992 -8476c2,2 -12,20 -13,22 -4,36 -58,-25 10,17 22,79 1,34 37,89l42 -62c-34,-49 -22,-25 -55,-82 -48,-81 -20,-60 -78,-80l57 96z"/> <path class="fil0" d="M9716 -7369c68,-40 36,-28 61,-124 36,-143 1,-94 -19,-114l-41 237z"/> <path class="fil0" d="M8762 117c27,-46 1,43 25,-55 19,-74 34,-215 -7,-268l-18 323z"/> <path class="fil0" d="M10286 -5834c39,22 14,6 38,33 48,53 -18,6 49,52l3 -85 -26 -64c-84,49 -45,-4 -64,64z"/> <path class="fil0" d="M6441 -7913c-33,-92 -44,-146 -142,-158 32,68 84,123 142,158z"/> <path class="fil0" d="M9965 -7352c17,-20 8,0 23,-40 31,-82 27,-116 17,-176 -34,54 -76,154 -40,216z"/> <path class="fil0" d="M13203 -7881c-1,-29 3,-94 -25,-108 -88,-44 46,63 -45,7l-28 -32c21,137 47,101 50,103l49 30z"/> <path class="fil0" d="M11960 -2907l137 -18c-25,-70 39,-11 -36,-49 -71,53 -50,8 -138,9l37 58z"/> <path class="fil0" d="M13224 -6129c9,9 44,35 47,38l0 -194c-57,27 -37,-41 -37,81 0,43 6,27 -10,75z"/> <path class="fil0" d="M14567 -10907c18,-37 -10,27 17,-38 12,-30 14,-29 21,-72 15,-98 3,-125 -21,-165l-17 276z"/> <path class="fil0" d="M10007 -8098l52 -60c19,-36 26,-57 36,-95l-37 -19c-25,67 -47,82 -52,175z"/> <path class="fil0" d="M14333 -11334c36,-49 51,-94 32,-164 -25,-95 -12,-36 -31,-65l-1 229z"/> <path class="fil0" d="M8696 -4018c57,-15 19,17 50,-27 -92,-50 -30,-38 -101,-107 -22,68 -2,75 51,134z"/> <path class="fil0" d="M10108 -8365l-10 75c58,-40 84,-101 98,-171l-88 96z"/> <path class="fil0" d="M12499 -8703c104,75 28,55 123,88 -32,-76 -37,-56 -76,-114 -90,2 -9,-5 -47,26z"/> <path class="fil0" d="M10121 -6709l37 -109c10,-65 25,-27 -12,-93 -40,54 -24,135 -25,202z"/> <path class="fil0" d="M9716 -6592c51,-35 57,-100 27,-160 -41,64 -27,60 -27,160z"/> <path class="fil0" d="M8512 -8684c59,-50 27,-10 42,-78 29,-135 33,-58 -8,-115l-34 194z"/> <path class="fil0" d="M10570 -7404c49,-51 25,61 45,-91 14,-109 11,-30 -30,-67l-15 159z"/> <path class="fil0" d="M12682 -8811c5,-4 14,-17 16,-12l44 -25 -70 -66c-55,-10 -2,75 10,103z"/> <path class="fil0" d="M9987 -6916c8,-8 38,-3 33,-73 -6,-86 -38,-25 -40,-25 -21,67 -18,33 7,98z"/> <path class="fil0" d="M9239 -2477l-39 43c-3,-6 -5,18 -8,26 79,-22 32,26 114,-34l-67 -36z"/> <path class="fil0" d="M10193 -8636c-24,23 -13,0 -41,50 -8,14 -22,50 -29,62 97,-17 70,1 70,-112z"/> <path class="fil0" d="M13831 -2636c2,-2 77,24 13,-101 -52,43 -43,38 -13,101z"/> <path class="fil0" d="M12370 -8937c76,30 28,29 109,50 -28,-41 -44,-53 -71,-88l-44 -1 6 38z"/> <path class="fil0" d="M12721 -8411c133,-4 46,43 87,-81 -49,17 -57,33 -87,81z"/> <path class="fil0" d="M13931 -2751c-144,39 30,-42 -54,33 70,35 53,59 132,52 -81,-56 -51,-11 -78,-85z"/> <path class="fil0" d="M13360 -7237c-11,-8 -29,-12 -45,-25l23 142c28,-42 22,-29 22,-117z"/> <path class="fil0" d="M10084 -8576c70,-23 51,-18 63,-88 -64,33 -54,16 -63,88z"/> <path class="fil0" d="M12682 -8094c-10,-74 -2,-81 -67,-114 3,9 24,65 24,66 43,76 20,29 43,48z"/> <path class="fil0" d="M12907 -6738c2,-7 2,-39 2,-50 -66,26 -56,5 -27,100 24,-32 9,2 26,-50z"/> <path class="fil0" d="M12448 -8138l26 113c15,-24 39,43 17,-58 -19,-87 -20,-33 -43,-55z"/> <path class="fil0" d="M11892 -9454l-95 0c7,6 3,36 60,37 84,1 18,16 35,-37z"/> <path class="fil0" d="M13837 -3993c-98,4 -60,19 -66,22 13,1 97,4 150,-4 -35,-16 -32,-21 -85,-18z"/> <path class="fil0" d="M12976 -6350c5,5 -10,32 49,36 53,4 32,-21 43,-36l-93 0z"/> <path class="fil0" d="M10916 -6255c-15,18 -19,-7 -24,41 -10,95 -7,6 24,45 21,-46 31,-33 0,-86z"/> <path class="fil0" d="M10513 -5856c73,-30 35,37 65,-63 -67,16 -51,-11 -65,63z"/> <path class="fil0" d="M10496 -7833c8,1 -19,75 38,-6 26,-37 8,2 10,-48 -81,49 -46,-3 -47,54z"/> <path class="fil0" d="M10239 -8181l-2 77c27,-22 33,27 37,-39 4,-60 2,-21 -35,-38z"/> <path class="fil0" d="M12592 -8864c19,61 17,78 86,109 -7,-11 -21,-36 -32,-50 -40,-54 -2,-9 -54,-59z"/> <path class="fil0" d="M13192 -7013c1,-4 7,11 17,15l-31 -142c-33,48 14,127 14,126z"/> <path class="fil0" d="M10327 -8214c1,-136 2,-31 -22,-67 -7,15 -43,-12 -15,45 21,43 -11,6 37,22z"/> <path class="fil0" d="M12727 -8003c-1,-55 13,-65 -30,-85 -2,-1 -10,-3 -15,-6 11,64 8,49 45,91z"/> <path class="fil0" d="M13090 -7862c21,-50 2,-75 -17,-111 -9,62 -20,53 17,111z"/> <path class="fil0" d="M13231 -8002c20,-61 11,-33 -17,-106 -17,87 -18,52 17,106z"/> <path class="fil0" d="M12968 -8712c-21,-63 -41,-104 -95,-120l95 120z"/> <path class="fil0" d="M10690 -5745c42,53 -72,19 45,55l0 -53 -45 -1z"/> <path class="fil0" d="M9879 -5053c-42,-6 -36,-18 -35,18 5,3 14,3 16,9 9,22 58,-7 58,-7l-39 -20z"/> <path class="fil0" d="M13226 -6990c-46,41 -37,-85 -23,120l23 -120z"/> <path class="fil0" d="M14191 -11593c-5,-61 -25,-67 -57,-97 22,65 10,49 57,97z"/> <path class="fil0" d="M4647 -1022c-5,82 3,94 41,152l-41 -152z"/> <path class="fil0" d="M9176 -2477c-59,24 -13,-7 -36,25 -49,69 -4,-2 10,23 37,-21 43,64 26,-48z"/> <path class="fil0" d="M10641 -5102c95,0 24,16 61,-58 -108,59 -9,21 -61,58z"/> <path class="fil0" d="M12864 -3628c5,5 -3,16 35,52 22,21 27,19 60,37 -50,-80 -30,-18 -95,-89z"/> <path class="fil0" d="M9875 -6599c-1,2 -51,-18 -2,61 22,-34 36,17 2,-61z"/> <path class="fil0" d="M13011 -3370c-1,-8 -9,-8 -13,-12 11,106 -33,42 46,69l-33 -57z"/> <path class="fil0" d="M10056 -8485c24,-23 20,2 21,-53 -52,32 -70,-10 -21,53z"/> <path class="fil0" d="M10609 -5929c87,-1 31,23 58,-42 -64,34 -16,-10 -58,42z"/> <path class="fil0" d="M10808 -9353c90,9 44,24 89,-31l-89 31z"/> <path class="fil0" d="M9920 -6982c17,-29 26,-27 0,-69 -24,33 -19,29 0,69z"/> <path class="fil0" d="M14451 -5534c41,25 -9,35 63,2l-26 -16c-43,2 -13,-2 -37,14z"/> <path class="fil0" d="M10380 -7527c27,-25 62,19 16,-67l-16 67z"/> <polygon class="fil0" points="10193,-8636 10251,-8643 10194,-8679 "/> <path class="fil0" d="M14609 -8298c2,29 42,47 30,2 -6,-22 -32,-38 -30,-2z"/> <path class="fil0" d="M13156 -3336c3,45 26,25 31,1 4,-16 -34,-44 -31,-1z"/> <path class="fil0" d="M12562 -8778c-11,-54 11,-44 -50,-54 43,54 -2,7 50,54z"/> <path class="fil0" d="M14606 -10174c-22,-15 -41,-26 -62,-40l39 55c54,20 -2,6 23,-15z"/> <path class="fil0" d="M13815 -2814c58,62 -71,-18 44,59 -23,-59 14,-38 -44,-59z"/> <path class="fil0" d="M13212 -6327c3,54 15,53 22,6 4,-27 -23,-23 -22,-6z"/> <path class="fil0" d="M12827 -7695l7 -24c-5,-30 -15,-42 -17,-45l-8 29c5,24 11,23 17,41z"/> <path class="fil0" d="M12607 -8956c42,-22 17,0 49,-41 -113,21 -11,4 -49,41z"/> <path class="fil0" d="M12701 -8204l-9 -59c-45,27 9,59 9,59z"/> <path class="fil0" d="M12592 -8864c-12,-52 17,-24 -46,-46 21,26 -1,10 46,46z"/> <path class="fil0" d="M12200 -7119l46 26c1,-4 7,-3 11,-5 -28,-28 48,-24 -57,-22z"/> <path class="fil0" d="M10169 -6304c31,48 -39,0 23,42 20,-52 25,-20 -23,-42z"/> <path class="fil0" d="M10610 -8457c3,11 47,57 21,3 -5,-11 -30,-36 -21,-3z"/> <path class="fil0" d="M11055 -6647c-55,29 -36,4 -18,46l18 -46z"/> <path class="fil0" d="M14241 -11023c-25,-41 10,-26 -56,-57l56 57z"/> <path class="fil0" d="M12282 -5955c0,-3 -12,-16 -21,-21l14 53c13,-24 11,8 7,-31z"/> <path class="fil0" d="M13022 -3472c34,54 3,25 57,44l-57 -44z"/> <path class="fil0" d="M13226 -7083c44,50 -54,19 43,45l-43 -45z"/> <path class="fil0" d="M8358 901c0,0 31,-16 34,-66l-34 66z"/> <path class="fil0" d="M12279 -3176l41 -101c-36,70 -20,129 -34,86 -1,-3 -4,10 -7,15z"/> <path class="fil0" d="M12826 -8351l35 4c0,0 -2,-4 -2,-4 0,0 -7,-2 -7,-3 -50,-10 -20,-23 -25,3z"/> <path class="fil0" d="M12469 -8787c1,2 47,57 20,15 -6,-9 -23,-22 -20,-15z"/> <path class="fil0" d="M8776 -4321c43,16 10,2 60,24l-60 -24z"/> <polygon class="fil0" points="8979,-7411 8957,-7313 "/> <polygon class="fil0" points="8274,-7349 8216,-7392 "/> <polygon class="fil0" points="14627,-524 14678,-455 "/> <polygon class="fil0" points="4934,-2086 4831,-2023 "/> <polygon class="fil0" points="10184,-3843 10152,-3776 "/> <line class="fil0" x1="8202" y1="-4246" x2="8202" y2="-4246"/> </g> </svg>