<?xml version="1.0" encoding="utf-8"?>
<!-- Generator: Adobe Illustrator 23.0.1, SVG Export Plug-In . SVG Version: 6.00 Build 0)  -->
<svg version="1.1" id="Layer_1" xmlns="http://www.w3.org/2000/svg" xmlns:xlink="http://www.w3.org/1999/xlink" x="0px" y="0px"
	 viewBox="0 0 1296 936" style="enable-background:new 0 0 1296 936;" xml:space="preserve">
<style type="text/css">
	.st0{fill-rule:evenodd;clip-rule:evenodd;}
	.st1{fill:none;}
</style>
<g id="Layer_x0020_1">
	<path class="st0" d="M521.9,569.2l2.5-2.6L521.9,569.2z M653.9,550.4c4.9-3,2.6-2,3.9,1.4C650.4,551.8,655.9,551.9,653.9,550.4z
		 M640.6,547.7c-1-2.6,1.1,0.4,1.1,0.4C642.1,550.6,641.2,549.4,640.6,547.7z M640.7,543.5l-0.9-14.9c0.8,2.3,4.1,2.3,6.2,3.7
		c3.6,2.6,2.3,2.6,2.3,8.5c-2.3-1.1-2-1.1-5.5-1.4L640.7,543.5L640.7,543.5z M547.6,539.5c-2.2,1-1.4-1.7,0-1.9
		C549.6,537.2,548.1,539.3,547.6,539.5z M597.8,544c-1.6-3.7,0.2-3.8-4.9-6.2l-2-0.9c1.7-2.7,1.7-3.8,3.5-6.4
		c1.8,0.8-0.5-0.2,2.5,0.7C606,534,598.7,533.7,597.8,544L597.8,544z M889.1,531.3l-0.7,2.5l-1.9-1.4L889.1,531.3z M581.9,520.2
		l0.1-5.9l4.7-0.4C578.8,518.3,586,513.5,581.9,520.2z M845.4,509.5L845.4,509.5z M611.9,506.4c-0.4-4.3,0.2-5.2,2.2-7.7
		c4.1,3.1,1.2-0.1,3.7,4.6L611.9,506.4z M656.5,501.5L656.5,501.5z M580.2,507.2l2.8,5l-4.8,3.4c-0.1,0.1-0.4,0.5-0.6,0.7
		c-2-2.5-3.3-5-2.8-9.4c0.7-5.8,3.5-3.4,3.5-3.4c0.3,0,0.8,0.2,1,0.3c7.6,1.4-0.7-2.3,13-2.2L580.2,507.2L580.2,507.2z M561.2,503.8
		c3.4-1.6,6.6-2,9.5-3.6l2.1,3.4C565.4,502.5,569.3,504.7,561.2,503.8z M656.5,501.5l-4-2.3C656.2,499.6,654.6,498.9,656.5,501.5z
		 M618.4,496c0.4-18.2,22.8-14.8,26.2-4.4c2.2,6.5-5.5,11.7-10,12.4C624.5,505.8,621.4,500.6,618.4,496z M524.9,494.5
		c0.1-0.5,2.9-2.8,1.7,0.2C526,496.2,524.6,497.5,524.9,494.5z M492.5,493.8c3,1,0.6-0.3,2.8,1.4C493.3,494.8,494,495.1,492.5,493.8
		z M783,490.6c5.3,0,8.5-0.5,12.8,1.4l-24.7-0.4C773.4,488.8,772.5,490.6,783,490.6L783,490.6z M648.4,489.3l2.2,2.2
		C644.5,490.8,650.2,491.5,648.4,489.3z M732.5,485.2c4.1-2.2,18.6-2.3,22.9,0.4c-2.6,1.2-15,4.7-20.5,1.5
		C730.8,484.6,734.3,486.6,732.5,485.2z M784.4,482.5c3.2-0.1,4.4-0.3,7.6,0.4l6.4,2.3c-3.1-0.2-4.7-0.5-7.7-1L784.4,482.5
		L784.4,482.5z M656.4,482.7l14.1,1.4c-0.7,0.1-2.3,1.4-7.1,1C660.5,484.9,658.1,483.5,656.4,482.7L656.4,482.7z M588.6,478.4
		l1.3,5.3l-4.6,3.3l0.5-4.7c-2.7,1.1-0.8,1.3-3.1,3.4c-3.4,3.1-2.5,2.1-8.1,2.7c-0.8-3.5-1.6-8.3-2.4-12.1l35.3-2.5
		c4,4.8,0.7,1.4,5.3,4.3l-8,0.9c-5.6-4.9-8.7-0.5-10.8-0.1C594,479,590.2,478.5,588.6,478.4L588.6,478.4z M633.5,452.5l3.5,1.9
		c0.2,0.1,0.7,0.5,1,0.7c2.8-3.9,2-2.6,7.7-2.6c2.5,4.3,2.2,3.3-0.1,8C638.2,460.5,636.9,457.2,633.5,452.5L633.5,452.5z
		 M579.5,448.9c6.5-1.8,22.9,0.8,29.4,0.8c4.9,2,0.5-1.9,3.7,5.5c7.4-0.3,4.1-1.4,9.9-2.4l1.6,7.7c-7.6,0.2-3.9-0.7-8-3
		c-2.2-1.3-6.8-2-10-2.3c-1.7,1.8-1.3,0.1-1.8,3.6l-10.6-2.8C575,451.5,584.1,460.3,579.5,448.9z M633.2,447.1l3.1,3.9L633.2,447.1z
		 M575.4,447c-0.8,5.3-0.7,7.7-7.3,13.6l-3.7-11.2C569.8,446.4,569.2,445.4,575.4,447L575.4,447z M678.5,448.5
		c0.2,4.7,0.2,3.6-3.1,6.7l-2.8-1.3c-5.7-1.7-9.9-2.3-15.4,2.2c-3.5-6.5-3.8-4.1-7.6-9c5.2,0.4,4.1-0.7,5.3,4l4.9-2
		c0.1-0.1,0.4-0.5,0.5-0.6l8.2,1.3c0.1-0.2,0.2-0.7,0.2-0.6l6.1-5.5c3.5-2.3,2.3-2.3,7.3-3.4l2.5,5.3L678.5,448.5z M604,442.3
		c6.1-0.5,7.2-2.5,10.7,2C611.2,442.9,609.2,442.7,604,442.3z M716.5,437.3l-1.1,4.3c-1.4-0.7,0.3-1.7-2.7-3.4L716.5,437.3
		L716.5,437.3z M646.9,436.1c2.5-1,2.3-0.5,4.1-1.9c0.5,4.9,0.3,2.2,1.3,6.1c0.7,2.8,1.4,1,0.1,3.7c-0.2-0.2-0.4-0.9-0.5-0.7
		s-0.4-0.6-0.5-0.8L646.9,436.1L646.9,436.1z M661.1,430.7c-1.6,3.1,0.3,1.6-2.7,2.2C659.8,428.5,657.7,433,661.1,430.7z M735.4,429
		l-1.1,2.9c-2.2-2-1.2-0.2-2.7-3.8L735.4,429z M716.6,437.3c4.7-2.3,0.2,0.2,2.5-2.5l-1.9-4.7c4.6-2.5,1.6,1.1,4.1-4.2
		c2.2,2,1.1,0.7,2.7,3.4c1.2-0.4,3.1-1.5,3.9-1.6l0.9,0.2c3.4,2.7,0.1,0.5,0,1.3c-0.3,3.8,0.7,2.8,1.6,8.2c-5.8,1.3-3.2,1.8-4.4-1.3
		l-9.3,1H716.6z M527.6,432.4l10,4.3c5,2.6,1.1,2.2,9.1,2.2l-6.8,3.7l5.8,2.3c-0.2,0.1-2.2,0.4-2.5,0.4c-4.1,0.1-2.2-0.2-6.1-0.6
		c-3.5-0.3-0.4,0.7-3.7-1c-3.4-1.7-2.5-1.4-6.1-2.2c4.2-6.7,1.7,2.3,3.8-3.7c-2.2-0.2-4.1-0.4-6.1-0.8c-6.8-1.6,3.2-1.1-5.4-1.2
		c5.1-1.7,0.8-1.7,3.6-5.2l3.7-2.4L527.6,432.4z M512,428.5l4.7,1.7L512,428.5z M735.4,429l6.4-2.3
		C738.7,428.9,739.7,428.9,735.4,429z M765.8,426.8c1-1.4,2-2,2.9-3.5L765.8,426.8z M581.2,420.5c2.7-0.5,33.3,0.5,36.9,2.5
		c-5.5,4.8-5-0.4-10.5,5.2c-0.1-0.2-0.1-0.6-0.1-0.5c0,0.1-0.2-0.5-0.2-0.5c-0.1-0.1-0.2-0.5-0.2-0.6l-5.8,0.5
		c-0.5,0.5,0.6,0.2-1.8,1l-1.1-2.2c-0.1-0.1-0.2-0.5-0.3-0.7l-3.4,0.3c-6.9-0.3-6.4-2.5-11.4-0.1L581.2,420.5L581.2,420.5z
		 M565.7,419.7c4.3,1.7,3.1,2,8.2,2.9l-3.7-3.5c7.1-1.3,6.3-1.2,6.8,3.7c0.5,5.1,2.4,4.2,0.6,10.7c-2.3,1.1-4.1,2.1-7.7,0.9
		c1.3-3.2-0.2-6.2-1.9-9.1h2.8C568.7,422.1,567.9,422.4,565.7,419.7L565.7,419.7z M557.4,419l3.9,1.6L557.4,419z M657.9,419.8
		c2.9-3.4,6-3.6,13-7.6c1.8,11.4,3.2,10.6,7.3,18.5c-5.6-1.1-3.4-1.4-8.1,1.4l-1.4-2.8c-6.5,0.7-4.2,1.4-9.5-1.3
		c-3.2,1.4-7.5,4.5-10.3,2.7c2.4-1.7,2.1-0.8,4-2.2c5.1-3.7-2-1.1,7.9-5.8c4.6-2.2-1.3,1.3,1.8-0.8c1.6-1.1,1-0.9,1.9-2
		C662.2,418.5,660.9,418.8,657.9,419.8L657.9,419.8z M565.8,419.7l-4.7-2.1L565.8,419.7z M689.2,415.8l-3.8,2.9L689.2,415.8z
		 M491.1,415.8c10,0.7,1.9,3.7,11.9,1.3c4,5.4,2,0,4.5,6.2c2,5,0.6,3.1,3.5,7.2c-11.5-2-14.8,1.3-16.8-1.5l-3.2-6
		c-0.4-0.7-1-1.6-1.4-2.1C492,417.9,492.1,418.9,491.1,415.8L491.1,415.8z M764.4,413.4c8.5-1.1-0.5-0.4,7.9,1.1
		c1.4-1.3,1.9-1.7,4.1-2.7c1,3.1,0.9,2.6-0.4,5.4l2.4,1.1c0.1,0,0.2,0.1,0.4,0.2L764.4,413.4z M704.3,415.7l4.5-2.4L704.3,415.7z
		 M689.3,415.8l4.9-4.5C692.2,415.4,694,414.5,689.3,415.8z M549.4,408.7c1.6,1.1,2.1,1.5,3.2,2.3
		C549.2,410.9,550.9,411.4,549.4,408.7z M629.8,414.1l-3.5-6.3l7.3-0.2L629.8,414.1z M552.6,408.1c2.9,0.1,2.8-0.2,4.7,0.9
		c1.9,1.1,2.4,1.9,3.2,2.6L552.6,408.1z M809.3,406.6c6.2-0.4,1.4-0.3,3.5,1.1C809.3,409,812.1,409.3,809.3,406.6z M568.5,397.1
		l3.5,14.7C568.1,408.4,568.1,404.1,568.5,397.1z M598.2,410.4c-1.7-1.5-1.6-1.4-3.4-3.4c-3.7-3.8-4.9-9.3,0.8-12.8
		c3.9-2.5,8-1.4,11.5-0.1c2.8,8.6,3.8,10.3-5,8c0.1,3.5,1,1.5-0.5,4.7C600.8,408,598.9,409.6,598.2,410.4L598.2,410.4z M713.8,403.9
		c2.5-3.2,2.8-3.6,8-4.3L713.8,403.9z M712.7,399.8c-0.2,0.2-0.7,0.2-0.8,0.6l-3.2,2.2c-2.7,1.7-1.5,1.2-4.5,2.3
		C706.6,401.6,707.7,400.8,712.7,399.8L712.7,399.8z M549.4,408.8c-10.8-2.6-15-2-16-7.4c2.6,2,1.6,1.4,4.9,2.2
		c-0.8-3.1-1.6-4.1-2-8.2c7.7,1.2,12.7,3.6,14.7,10.9c-0.3-0.2-0.8-0.9-1-0.7l-4.1-2.8C547.3,406.5,547.8,406.8,549.4,408.8z
		 M525.1,398.4c2.8,1.3,1.8-1.6,3.7,3.8L525.1,398.4z M629.2,380.7c0.8,8.1,4.1,13.2,7.1,18.8l-13.6-0.2c1-4,1.7-4.1,3.1-9
		C626.6,387.2,627.5,383.6,629.2,380.7L629.2,380.7z M726.8,400c1.6-1.2,0.4-1.6,4.6-3.5c-1,1.1-0.7,1.2-2.2,2.3
		C728,399.9,727.5,399.8,726.8,400L726.8,400z M712.7,399.8c2.2-2.8-2.5-0.3,1.9-2.3c2.8-1.3,1.3-0.5,4.3-0.4
		C716,398.4,715.1,398.9,712.7,399.8z M645.8,401l1.4-9.7c8-4.2,14.7-3.1,16.2,8.2c-1.3,1.9-2,3.1-4.1,5.5c-3.3,3.7-1,2.9-6.8,1.3
		c1.3-2.5,3.5-3.3,1-6.9L645.8,401L645.8,401z M693.1,395.7c-2.8,3-0.5,2-5.2,3.6c-0.8-1.1-0.9,0.8-1.1-3.8c0.8,2.3,1.3,1.6,3.2,3.2
		L693.1,395.7z M809.3,406.6l-4.6-0.5c-0.9,4.3-0.8,3.8-3.2,6.3l-1-4.7c-5.2,0.5-5,0-9.1-2.6c10.6-5.3,5.1,5,10.8-8.3l13.5-5.3
		l5.7,2.6L809.3,406.6L809.3,406.6z M515.4,393l3.7,3.4C513.9,394.1,516.5,394.3,515.4,393z M827.3,392.7l2.7-2.6
		c-0.7,1.9,3.5-1.6-0.7,1.3c-0.1,0.1-0.7,0.5-0.9,0.6C828.2,392.1,827.4,392.2,827.3,392.7L827.3,392.7z M510.8,389
		c4.7,2.2,1.3,0.1,2.9,2.8L510.8,389z M549,385.7c1.9,4.6,2.3,2.8,0.4,7.3c-1-2.9-1.2-2.1-1.3-4.4C547.7,382.5,547.8,388,549,385.7z
		 M536.5,388.4c-2.9-2.3-1.6-1-1.7-5.5L536.5,388.4z M514.4,387.8l4.1,2.6c2.6,2.3,2.2,1.7,3.8,4.9
		C516.2,391.8,519.2,390.7,514.4,387.8L514.4,387.8z M429.1,386.9c4.2,1.5,2.4,0.1,4.4,3.5C429.9,388.9,431.4,389.8,429.1,386.9z
		 M538.3,383.6c3.5,3.5,2.8,2.7,2.5,8.8L538.3,383.6z M429.1,386.9l-3.9,0.2c3.3,3.6,4.1,2.8,7,6.8c-5-1.4-0.5-0.5-4.7-1.9
		c-3.5-1.1-5,0.4-11.2-6.5c6.2-3.5,2.1-0.2,5-6.1C428.2,380.9,426.3,381.8,429.1,386.9z M834.8,381.8c3.7,1.2,2.1-1.1,2.3,2.6
		L834.8,381.8z M702,390.8c-1.6-0.6-3.2,3.9-1.4-10l4.6-0.2l0.5,8.3c-5.2-4,2.8-2.7-4.3-7.5L702,390.8L702,390.8z M693,395.6
		l0.2-15.1C694.5,383,696.4,392.8,693,395.6z M686.5,384.5l2.9-5.3c2,3.5,1.3,2.1,0.9,7.8C688.6,384.8,689.5,385.3,686.5,384.5z
		 M530,384.2c-0.4-1.1-0.8-2.6-0.5-4.7c1.1,1.7,0.8,0.4,1.3,2.5C531.4,384.8,530.5,383.3,530,384.2L530,384.2z M679.6,377.8
		c0.2,0.2,0.5,0.5,0.8,0.6c0.3,0.2,0.7,0.3,1,0.5l5.2,1.4c-0.2,0.1-0.5,0.1-0.6,0.1l-2.4-0.1c-3.4,1-1.3-0.6-2.5,2.7
		c0.7,0.2,0.4,1.7,2.5-1.3c1.7,7.4,1,4.4,4.2,5.4l0.1,6.9c-0.2-0.3-0.4-0.7-0.4-0.9l-2.2-5c-1.4,2-2.1-2-1.4,5.8
		c-0.2,0.1-0.4,0.2-0.5,0.2l-1.1,0.5c-0.1,0.1-0.5,0.5-0.6,0.3s-0.4,0.2-0.6,0.3c0,1.9,0.2,5.2,0.1,6.9c-0.7,7.5,0.4,1.1-1.4,4
		c0.1-9.8,1.6-18.9-2.5-23.1l2.4-5.3L679.6,377.8z M417.2,381.7c-6-2,0.4-1-6.3-1.9c3.2-1.2-2.9,1.1,2.3-0.5
		c5.6-1.7-0.5,0.9,1.8-0.9C416.3,381.2,414.3,378.7,417.2,381.7z M763.9,377.6l-8.2,8.3l-4.2-1.6L763.9,377.6z M844.2,376.6l5,0.2
		c-2.2,4-2,10.4-8.9,5.8L844.2,376.6L844.2,376.6z M763.9,377.6c2.1-2.7,0.5-1.7,4.1-2.8C766,377.6,767.7,376.7,763.9,377.6z
		 M489.7,375.4l3.4,2.3L489.7,375.4z M718.7,397l1.7-2.9c-1.1-0.5-1.1-0.4-2.1-0.5l1.3-2.9c-0.4-1.4,0.8-1.4-1.4-4.9l15.5-7.9
		l1.3,2.5c4.3-2.1,2.2-0.7,5-3.5c4.1-3.9,0.3-1.8,4.8-3.4l-5.8,6.8c0.3,0.2,0.8,0.2,0.9,0.6l0.6,5.8c-6,2.3-9.7,6.7-14.7,9.3
		c-0.2-0.8,0.7-1-1.9-3.6C721.6,396.7,724.1,394.5,718.7,397L718.7,397z M733.7,377.9c2.6-3.2,1.4-2.9,5.6-4.4
		C736.8,376.9,738,376.3,733.7,377.9z M768.1,374.9l4.1-2.1L768.1,374.9z M759.7,372c-1,1.2-0.4,0.8-2.1,2.1c-1.9,1.4,2.4-0.7-2,0.8
		C757.5,372.6,756.4,373.2,759.7,372z M759.7,372c1.9-2.2,0.8-1.7,4.2-2.6l-1.4,2.7L759.7,372z M757.1,369.3
		c-1.8,2.5-0.4,1.9-4.3,2.4L757.1,369.3z M744.9,373.5l5.5-4L744.9,373.5z M750.4,369.5c2-2.4,0.6-1.7,4.1-2.6
		C752.1,369.2,753.4,368.3,750.4,369.5z M723.4,357.5c1.6,4,3.5,12.7,1.6,18.3L723.4,357.5z M754.3,363l-4.4,1.8L754.3,363z
		 M495.1,362.9c2.9,0.9,1.9,0.4,3.5,2.7L495.1,362.9z M473.9,363.3c-2-6.2-1-0.8,0.5-3.8l1.2-2c3.2,1.7,2.2,0.8,4.9,3.2
		C475.4,364.2,481.4,365.4,473.9,363.3L473.9,363.3z M379.3,358.5l-2.5-2.4L379.3,358.5z M866.3,356.2c-1.8,2.9,0.7,2.6-2.9,1.4
		C864.7,355.5,861.2,355.8,866.3,356.2z M395.3,364.3c1,3.7,0.5,2.2,2.7,5c-2.4,1.6-4.3,2.9-6.9,4.3l-11.8-15.1l2.9-0.1l1.1-2.4
		C388.3,359.2,389.4,362.2,395.3,364.3L395.3,364.3z M486.4,354.7l5.6,1.1c-1.9,1.1,2.9,2.2-3.3,0.7
		C483.9,355.3,488,356,486.4,354.7z M734,362.4c0.1-3.1,0.1-3.5-0.2-6.5l-0.1-4c0-0.4,0.2-0.5,0.4-0.8l1.5,7.4
		c2,1.6,3.2-1.3,3.9,6.7C737.5,363.8,737.3,363.3,734,362.4L734,362.4z M748.6,345.3c0.2,0.4,0.7,1.6,0.8,1.9l4.1,7.3
		c-0.3-0.2-0.7-0.5-1-0.7c-0.2-0.2-0.7-0.5-1-0.7l-2.9-2.1c0.2,5.2,0.9,4.1-0.8,7.3L748.6,345.3L748.6,345.3z M866.3,356.2
		c-0.3-9.9,4.4-11.5,9.1-16.5c-1.9,6.7-3,9.6-7,14.5L866.3,356.2L866.3,356.2z M469.9,337.2c-0.4,3.9-1,4.9-4.2,7.3
		c-2.1,1.6-2.8,1.4-7.1,1.4l-1.9-5.1L469.9,337.2L469.9,337.2z M887.6,313.6c0.2-0.2,0.5-0.6,0.6-0.8c0.1-0.2,0.4-0.6,0.5-0.8
		c2.3-4.6,0.6-5.3,4.9-10c2.2,6.4-3.5,12.3-5.8,15.6L887.6,313.6L887.6,313.6z M455.1,291.7c0.5,5.7,1.7,3.7-1,6.7
		c-0.1-1.4-0.2-2.5-0.1-3.8C454.5,289.6,454.2,293.4,455.1,291.7z M795.2,290.6c3.7-1.3,0.1,5.2,8.2-0.2c-1.4,4.3-0.5,2.6-3.7,5.5
		l3.7,4.1l-2.1,10.4c-1.1,2.1-0.2,0.9-1.7,1.2l-5.2-3.8c-0.8-1-1.6-2.2-1.8-2.3C797.3,295,791,297.5,795.2,290.6L795.2,290.6z
		 M455.1,291.7c-1.4-2.5,0.1-1.2-2.8-2.6l-2.5-4.2c-5.2-2.7-4-0.8-4.6-6.7c-0.3-2.8-1-7.9-0.7-12.4c2.3,4.5,0.1,4.5,2.6,9.7l2.2-4.9
		l3.1,5.3c3.7,4.3,5.9,8.2,6.8,14.4C456.7,291.2,457.1,290.8,455.1,291.7L455.1,291.7z M808.8,274.2c-13-1-2.5-14.1-1.9-16.9
		C808,264.8,811.8,254.8,808.8,274.2z M815.7,213c2.8-1.2,0.8,0,2.5-1.6l2.5-4.9c0.1-0.3-0.4-2.3-0.5-2.6c3.7,1.9,1.2,1.1,3-1.3
		c2.7,15.1-4.9,12.4-4.9,39.2l-8.1-1.6l2.9-13c1.7-0.6,0.5-3.9-0.2-8.8c3.1-2-4.3-2.3,5.4-1l-2.6-4.4V213z M440.5,166.6
		c1.7-2.4-4.2-0.8,2.8-2.3L440.5,166.6z M825,164.1c-2.7,3.1-1.7,4.6-2.2,6.3c0.8-15.1,2.8-18.5-1.1-24.8c-0.4-0.5-1.3-2.5-1.4-2.6
		l1.8-3.8c1.1-3.3-0.9-0.8,1.4-5.2c0.4,12.6,4.7,28,3.7,37L825,164.1L825,164.1z M445.7,147.7c-1.3-2.1-1.3,2.3-0.9-3.4l1.6-12.9
		C450,135.4,447,144.9,445.7,147.7L445.7,147.7z M819.9,131.1c2-5.3,1.4,0.8,1.7-3.8c0.2-2.5,0.4-0.5-1.3-2.3
		c6.5,0.1,4.5,4.6,3.1,7.7C821.2,131.2,823.6,132.4,819.9,131.1L819.9,131.1z M817.7,111.2c0.8,3.2-0.1,2,2,6.5
		c-4.5-2-3.7-3.4-6.4-6.7l1-6.7L817.7,111.2z M452.5,110.7c-0.5-0.8-0.8,0.2-0.8-2.2l5.9-15C457.7,97.7,454.2,107.8,452.5,110.7z
		 M458.3,92c-0.1-3.2-0.6-1.4,0.4-4.8c1.3-4.8,1.2-2.3,2.2-3.4L458.3,92z M803,77.1l2.6,7.7l-5.8-2.2L803,77.1z M811.5,124.8
		c2.9,4.8,1.4,4.7,1.9,7.9l1,3.1c0.1,1,0.8-0.2-1.5,2c6.2,4.3,3.1,25.1,4.2,30.2c1.1,5.3,1.5,2.9,3.6,4.1c-3.5,5.7-4.3,4-8.9,7.1
		c-0.5,6.1-3.6,28.7-7.1,32.6c3.3,4.2,1,26.1-0.4,32c-0.8,3.7-1.1,6.2-1.3,11.3c-0.2,0.2-0.6,0.4-0.7,0.5c-3.9,2.7-4,2.2-4.4,7.7
		c-4.7-1,0.7,2.9-2.4,12.8l-2.9,11.4c-6.8-1.3-1.7-1-7-5.5c1.8,5.6,3.8,6.9,4.7,12.9l-1.7-1.4c-0.8,4.8-2.8,8.6-2.8,12
		c0,5.8,1.3,2.8-1.6,9.6c-3.7,8.8-2.8,14.6-2.8,25.8l-27.6,12.3c1.6-8.5-0.7-6.5-1-13.8l-3.1,4.7c-0.8-5,1.4-2.6-3.9-1.2l0.4-22.1
		c-2.5,1.1-1.2-1.9-2.8,2.6l0.7,15.2c1.1,6.4,0.5,14.6,0.2,21.2c-2-3.4-1.1-3.4-1.7-10.2c-1.4-13.4-0.5-6.6-2.2-9.3
		c0,3.8-0.3,9.1,0.1,12.7c0.3,2.8,1.2,6.4,0.5,10.5l-0.2-6.4l-4.5,0.1l0.7-11.5c-0.1,0.2-0.2,0.5-0.2,0.5l-2.6,3.1
		c-0.2,0.1-0.5,0.3-0.7,0.4c-3.2,1.3-0.5-0.5-5.2,0.3c4.7,10.2,4.1,1.3,4.1,20.8l-2.3,1c-2.3,0.8-0.2,0.7-1.9,0.4l0.1-4.4l-2.6-14.6
		c-8.9,0.7-4.2,2.6-4.1,12.2c0.1,7.1,1.9,10.3-1.2,13.5c0.1-8.5-1.3-13.7-1.5-20.2c-2.8,4.3-0.8,21.9-0.7,22.5
		c-3.2-1,0.6,1.4-1.7-1.3c-0.3-0.4,0.1-3.9-4.2-3.2c-5.2,0.8-3.3,2.6-3.3,7.4c-2.1-3.5-1.6-2.3-0.2-6.4c-5.5,0.1-6.7,1.1-11.8,1.4
		l-1.6-1c-21.2-1.7-25.2-9-29.6-27.6h-2.7c0.7,16.9,7,11.5,5.5,23.2c3.7-0.8,1.8-0.7,4.9-0.8c2.3,10.6,1.3,4.9,0.6,11.7
		c1,1.1,0.1,1.3,2.6,2.7l-2.6,4.7c3.6-1,2.8-1,3.1-0.7l-1.4,14.7l-2.4-11.3c-0.1-0.4-0.4-0.5-0.7-0.7c0-15.3,0.2-10.2-6.1-11.7
		c-11.4-2.7-14.5,2.2-26.4,2c-6.1-10.5-7.6-33.3-10.8-45.1c-1.3-5,0.4-1.6-2.2-4.6c-3.5,2.9-1-1.1-2.6,4.4c-0.7,2.1-0.8,4.1-1.6,6.6
		c-4.6,13.7-6.7,21-7.6,38.7c-4-1.2-4.6-0.9-9.2-1.6c-2.3-0.3-5-1.4-7.4-1.9c-5.5-1.1-12.3-2.2-15.9-0.6c2.2,5.5-1.7,0.2,5.1,4.1
		c-1.1,6.5-4.8,4.9-3.8,16.3c0.5,5.9,4,10.8,1.4,14.5c-4.6-3-5.3-7.9-5.5-14.7c-3.9,1.3-3.7,4-3.5,4l-3.2-15.9
		c-0.9,1.2-1.7-0.7-1.6,5.2l2.8,16c-3.1-4.3-2.2-8.5-4.3-15.9c-1.1-3.7,0.1-1.6-2.6-4.6l0.4,7.6l-2.5-3.7c-1.9-2.3-0.2-1.1-3.3-2.1
		c1.6,5.5,3.6,11.5,4,17.7c-2.8-3.1-3.1-2.9-7.3-5.3l-0.4-6.4c1.7,3.8,0.7,2.8,3.2,6.1c0.6-5.3-0.6-11.5-1.9-16.1
		c4.4-3.3,2.5,0,2.8-3.3c-4.4-1.3-3.1-1.6-5.8,1.6c2,7.6-1.4,6.7-1.5,6.4c-0.1-0.2-0.6,0-0.8,0.1c-0.1,6.3,2.8,5.4-0.5,10
		c-0.3-0.7-2.5-13-2.5-16.5l-3.1,0.2c-0.7-3.9,1.3-2.6-4.2-4l1.6,14.6c-2.6-2.3-3.2-9.5-3.4-13.5l-15.6-5.1
		c-0.2-4.2-1.1-14.4-2.5-17.6c-4,5.1,0.6,7.7-2.9,13.8c-0.4-6.8-1.4-10.1-1.4-18.1c0.1-7.5,0.8-11.6-3-15.4
		c0.5,13.4-0.8,24.5,3,35.7c-6.8-4.5-3-1.8-4.1-10.8c-0.8-6.2-2-5.7-0.6-13.2c1.3-7-0.7-16.8-0.7-25.4c-6.6,5.9,3.4,25.6-3,26.6
		c0.2,5.2,0.8,6.8,1.9,11.7c1.3,6,2.1,5-0.2,9.7c1.6,1,2.3,1.2,4,2.8c5.2,4.4-3.7-3.6,1.4,1.4L515,379l-3.4,6.4
		c-0.2,0.2-0.5,0.5-0.7,0.6c-7.9,6-6.5-3.1-7-5.5c-0.5-2.3,0.1-0.7-0.9-2.6l8.5-7.9c1.2-2.8,1.7-3.9-0.2-5.9c-2.9-3-0.9-0.1-1.6,0
		c-4.1,0.2-6.8-6.3-14.7-11c-2.9-1.7-6.1-1.9-8.5-3.8c-3.5-2.8-1.9-4.4-3.5-8.2l-1.6,8c5.1,3.5,3.2,0.7,5,5.8l-2.5-0.2
		c-1.2,1.4-0.8-0.2-2.2,3.5c-2.3-2.6-0.3-0.7-3.2-2.2l-2.8-1.4c1.1-4.9,2.3-6.2,0.3-12.6c-1.7-5.7-0.5-4.1-0.2-12
		c-2.1,0.1-3.2,0.2-3.6,0.1c-1.1-10.6-2.9-7.6,1.4-16.8l-4,2.3l-0.2-15.9c-0.2,3.7-0.2,2-3.2,3.6c-1.4-5-3.7-10.9-2-16.8
		c-3.1-1.6,4.7-0.4-3.4-0.1c-1.5-5.6-4.1-11-6-17.2c-2-6.5-1.7-13.1-6.7-16.4c6.4-12.6,5.5-6.4,5.8-14.4l-2.3,3.7
		c-0.1-0.2-0.4,0.5-0.6,0.8c-0.5-1.3-0.8-3.1-1.1-4.1c-1.1-2.8-0.8-1.9-2.1-3.5c0.1,9,1.6,7-1.1,14.8l-7.3-2.3
		c7.7-6.4,2.1-10.9-1.6-14.4c2.3-5.2,2-5.1,7.2-8.4l2.2,8.6c0.4-0.8,0.9-0.8,1-2.9c0-0.3-0.1-0.7-0.1-1c-0.8-12.7-2.4-12.4-6.7-15.3
		c0.8-5.7,0.7-9-2.5-12.5c1.4-6.4,2.6-5.4-0.6-12.3c4.7,0,4.4-0.4,7.5,1.4c2.1-6.5-2.3-1.5,3.5-6.8c-1.3-0.7-2.7-1.4-3.7-2.1
		c-1.6,5.2,2.1,1.5-2.7,4.2c-6.7-3-3.5-9-3.9-17.7c4.7,1.4,2.6-0.4,5,3.5l2.3,4.8c0.1-0.2,0.4,0.7,0.6,1
		c-0.4-28.4,0.5-13.3,1.3-23.6l2.6-23.2c0.3-2.8,0.1-6.9,0.4-9.4c0.6-3.8,7-13,11.1-32.3L470,62c-3,1.2-1.1-0.1-2.9,2.3l-5.5,9.3
		c-13.9,27.8-13.3,37.5-20.5,55.7c-2.2,5.4-1.6,9.7-3.4,15.6c-8.3,27.2,1.4,34.4-8.5,34.1c5.8,5.5,5.7,4.6,4.1,22.9l-3.8,0.4
		l4.1,2.5c0,8.3-1,12.7-1.4,19c-0.5,6.9,1.1,11.8,1.2,17.6c-7.6-1.7-2.6-1.6-5.2,0.2l5.2,2.8l-0.1,10.6c-6.4-1-4.2-1.3-8-5.3
		c1.9,5.2,4.7,6.7,9.5,8c0,7.5,0.8,7.4-1.9,13.8c2.8,1.9,1.3-2.6,1.9,3.9c0.2,1.7-0.1,5.6,0,7.6c-7.9-2.3-2.1-1.7-8-5.8
		c2.2,8.6,8.8,2.4,9.7,19l-2.5,1.9c5.4,3.1,4,5.6,5.5,12.2c1.3,5.9,3,9.2,3.4,15c-3.8-1.1-4.6-1.6-7.7-3.1c2.2,2.5,4.4,2.8,9.2,3.7
		c2.4,16.9,13.3,14.2,6.5,22.2c4.9,0.9,9.3,4.5,11.5,8.8c2.5,4.7,5.3,7.3,9.1,9.9c-2.3,3.7-2.2,2.6-4.1,3.4l6.1,0.6
		c3.5,7.5,10.3,10.5,14.3,16.4h-4.6c3.8,2.3,4.6,1.5,4.6,1.5c13.2,2.2,17.4,7.9,25.3,13.9c4,3.1,1.3,1,5.5,2.8l31.7,21.4
		c6.4,3.7,18.1,7.9,21.9,13.4c-5.5-1.4-6.1-3.2-12.6-5c-4.8-1.4-8-1.9-13.2-3.2c-34.8-9.3-54.1-30.8-69.5-28.8
		c-0.1,0.2-0.2,0.5-0.2,0.5l-8.9,1.7c-1.9,8.1-2.7,7.1,0.9,11.8l-11.1-5.5c0.2-0.1,1.1-1,1.5-1.2c-8-2.7-0.5-2.5-7.5-5
		c4.4,0.4,3.1,0.4,6.2,2.2l0.1-6.8c6.7,0.4,6.2,1.8,12.2,2.7c-1.7-2.4-1.9-1.9-3.2-3.5c-1.4-1.7-1.8-2.9-2.6-4.3
		c-1.7,1.9-0.8,1.6-3.7,2.4l-2.4-1.7c-4.6-3.2-3.5-2.3-4.7-5.9c-8,3.1-8.5-2-13.4-6.2l-0.9,2.7c-3.1-3.2-4.8-3.4-7.8-5.8
		c-3.4-2.8-1.9-4.1-5.9-7.4c-1.1,4.5,1.3,0.7-2,3.5c-2.5-5.3-8.7-8.8-15.9-5.1l-6.8-3c-2-2.9-1.6-3.2-5.6-4.8c-1.1-3.5,1.3-1-3.3-5
		c-8.1-7.1-24-23.6-29.4-26.1l-5.3,3.4c-9.9-12.5-6.4-12.6-8.3-17.3c-1.8-4.2-1.4-1.1-2.5-5.6c6.1,4.4,7.1,15.4,15,17.8
		c-2.5-4.4-15.9-30-20.5-32.3c-3.8-1.9-2.3-8.2-4.8-11.7c-5.2-7.5-2.4-3.3-2.3-12.7c-0.7,7.2,0.5,2.2-2.1,6.2l-6.3-12.7
		c-5.5-0.2-1,1.8-8.7-0.1l4.1,3.2c2.8,2.1,1.4,0.5,3.4,3.5c1.6,2.3,3.1,5.5,4.3,8l12.4,36.6c2.5,7.4,5.5,10.1,10,15.6
		c2.5,3,4.4,4.2,6.5,7.2c9.3,13.2,14,25.6,29.3,34.6c8.6,5.1,2.4,7.9,13.2,11l-1.8,4.1c3.7-1.2,15,5.1,19,7.6
		c2.1,1.3,2.7,2.2,4.7,3.4l19,12.3c4.1,3.1,7.3,2.2,12,4.4l55.1,21l29,16c9.9,6.1,19.2,10.9,32.6,10.9c1.4,2.3,2.2,3.8,4.9,4.9
		c-3.6,2.6-5.3,5.9-9.5,7.2l4.4,1.6l-2.8,10.9c-11.1,9.7-2.5-0.5-13.1-1.6c6.8-4,3.1-0.2,4.5-6.5c1.6-7.2,1.7-0.8,4.8-7.2l-17.7,1.7
		c3.3,6.2,1.5,3.7,3.7,11.1l2,2.5c-1.4,1.2-1.1,0.2-2.2,2.2c-0.2,0.3-0.2,0.7-0.4,1l-1.8,5.2l-8.1-9.8c2.6-4.3,4-4.8,4-12.2
		c-6.3,0.2-11.9,0.7-14.5,6.1c-0.1,0.2-0.3,0.6-0.4,0.8c-2.4,6.4,0.3-5.5-0.4,1.3c-0.2,2.5,0.5,0.3,0.4,1.6
		c-0.3,8.5-22,2.8-27.2,2.2c2.2-1.7,1.8-1,2.8-3.9c-3.4,0.7-3.5,1.1-7.5,1.4c1.8-2.4-1.6-2.6,7.3-2.7c3.1,0,6.5-0.1,9.6,0.2
		c4.6,0.3,9.5,0.4,13.6-1.3c-4.6-5.9-15.8-1-21.7-4l-2,1.6c-0.2,0.1-0.7,0.2-1,0.3c-3.7,0.8-7.4-1.4-9.8-3.1c-1.4,3-0.4,1.9-4.6,2.8
		c-2.3,0.5-2.3,0.4-5,0.1c-4.9-0.6-8.2-0.3-13.2-0.5c0.3,0.1,0.7,0.4,0.9,0.4c8.6,3.5,7.6,5.8,10.1,6.3l5.2,1.3
		c0.2-0.4,0.7,0.5,1.1,0.4l-10.4-0.3c2.8,2,6.7,1.4,10.4,1.9c-7.3,2.7-4.3-2-6.2,3.8c-3.5-4-1.7-2.9-4.2-2.6
		c-3.5,0.4-5.8,2.3-6.9,5.2c-2.9-2.2-0.4-2-3.5-1.7c-0.4,0.1-6.2,1.9-8.8-1.2c-5-0.3-4.8-1.2-7.8-4c-3.8,1.4,0.1-0.7-3.9,1.7
		c-3.8,2.3-1.4,0.9-3.2,2.8c1.1,1.3,1,0.5,1.9,3.1c1,2.7,0.5,1.5,1.1,4.4l2.4,3c1.8,1.6-0.5,0.3,2.8,1.3c-0.3-5.3-0.5-7.7-3.2-10.4
		c-0.2-0.2-1.6-0.8-1.7-1.3c-0.1-0.5-0.6-0.4-0.9-0.6h5.9c3.1,5.8,2.6,5,2.7,13.6c-6,1.6-4.4-3.2-6.8,2.8c8.4-0.2,5.8,0.8,10.9-4.3
		c1.1,3.4-0.9,1.9,2.9,3l-1.8,5.3c3.2-1.9,2.9-2.3,6.3-4.1c0.3,0.3,2.2,1.9,2.2,1.9l1.3,2.5c5-4.1,5.9-6.8,12.9-1.6
		c6.2-8.1,9.7-4.9,19.6-7.1c7.9-1.7,24.4-5.8,32.4-3.4c6.2,1.9-0.2,2.3,8.5,1c4.2-0.6,7.7-2.3,10.3-2.2c3.4,0.3,6.1,1.6,10,1.7
		c-1.3,1.1-0.6,0.6-2.5,1.8c-5.6,3.6-10.3,7-13.8,13.5l-10.5,0.5c3.8,0.8,3.2-0.2,6.9,1.9c0,1,2.5-1.6-1,2.3l-2.2,1.9
		c-3.6,2.5-3.5,1.7-8.5,1.8c2.2,1.5,1.7,0.6,2.6,3.4c-2.8,2.2-3.7,3.5-6.2,5.9c-2.6,2.4-3.5,2.4-6.1,5.4
		c14.1-2.9,15.9-12.9,25.2-14.8c-1.7,3.7-1.7,1.9-1.3,6.4c0.3,3.7,0.1,2.2,1,5.7c-0.2,0.2-0.5,0.5-0.6,0.7c-0.1,0.2-0.4,0.5-0.5,0.7
		c-0.2,0.3-0.7,1.3-1,1.7c-4.6,9.6-3.8,8.6-11.2,11.9c-5.2,2.3-0.4,0.8-5.5,4c-0.4-0.2-2.4-1.2-2.6-1.3l-9.3-11
		c-13.5,4.6-17.6,11.2-25.2,20.2c-4.7,5.6-5.8,1.1-5.1,8.6c2.8-0.4,5.1-1,6.7-1c4.5-0.2,3.1-0.5,5.6,2.4c-4.7,2.3-5.9-2.4-13.5,4.1
		c0.5,4.6,1.2,4.1,2.9,6.7h3.8c4.8-1.1,3.2-1,6.9-5c2.7,1.9,3.6,2.7,8.1,1.1c3.1-1.1,4.6-2.5,7.1-4c4.6-2.9,9.5-5.6,13.3-8.8
		l2.2,4.6c0.6-9-0.7-8,5-11.8l3.8-2.9c2.7-2.9,2.2-4.1,9.3-7.1c3.1,3.7,0.8,0.7,2.3,5.4l0.3-6.7c3.6-2.7,5.2-4.6,9.9-6
		c3.4-1-0.4,1.2,3.8-2c9.9-7.6,10.8-3.6,15.8-13l4.6-7.4l10.9-0.6c-1.6,9.2-4.5,22.8-2.6,32.9c1.1,5.9,0.2,5.2,5,6
		c-1-2.5-1.8-4.4-2.5-7.4l-0.1-5.8l4.1-1c3.1,4.3,0.9,3.4,5.5,11.1c-4.1-1.2-1.1,0.2-4.9-2.3c0.4,3.8-0.1,1.4,2.1,5.3l-4,2.4
		c9.1,11.6,32,2.6,26.7-14.8c-3.2,4.4-1.2,4.2-6.5,4.9c-5.4,0.7-4.7,1.5-9.7,3.1c2.4-5.6,4.2-5.1,6.2-13.1c1.4-5.6,2.3-8.4,2.3-15.4
		c9.2,0,11-4.3,10.3,7.9l-5.7-1.7c-0.3,0-0.7-0.1-1-0.1c-0.2,0-0.7,0-0.8,0.1c-2.3,1-1.6,6.6-1.7,9.5c4.8,0.1,2.5,0.4,5.6-0.7
		l4.3-0.9l1.3-12.6c7,1.4,6.3,0,11.6,0.6c-1.5,3.6,1.3,25.3,2.8,29.9c0.2,0,0.5-0.1,0.6-0.1l2.2-2.3c0.1-0.5,0.4-0.6,0.3-0.7l3,2.5
		c-1,4.9,0.4-0.1-0.9,3.1c-0.1,0.3-1,1.4-1.2,1.9c4.9,4.2,2,4.1,1.2,9.7c1.6-3.9,1.7-4.1,4-7.9c2.9,3.2,0.9,2.2,5.7,2
		c3.7-0.2,1.7,0.2,6.2,0.7c2.5-0.6,15.4-9-1.1-9.3c-0.1,0.1-1,1.7-3.3,2.2c-5.6,1.1-4.4-0.8-4.9-1.1c-4.6-1.1-7.9-4.6-9.7-9.5
		l5.3-5.5c4.1,7,5.5,10.5,9.6,10.9c0.2-1.1,2.8-9.5,3.4-10.3c5-7.1,3.8,6.9,5.1-4.4c1.6,3.8,0.3,1.4,2.5,3.8
		c1.3-2.3-2.2-2.5,2.8-1.3c-2.1-4.3-1.3-1.5-1.8-2c-3.5-4.3,1.3-2.8-5.3-6.2c-0.8,3.6-0.5,2.9-2.9,5.4l-2.5-12.3
		c3.7-0.8,2.6,0.1,5.2-3.1l-2.2-3.7c-10.2,0.7-22.6,5.6-21.8-9.4c-2,0.8-5.7,2.5-8.1,4c1.5,1.7,0.1,0.5,2.2,1.9l5.5,4.7
		c-3.2,2.2-5,4-9.8,2.1c-4.6-1.8-2.1-2.9-2.1-8.8l-1.4,1.4c-0.2,0.2-0.5,0.5-0.7,0.8c-8.3,9.5-12.4,4.2-18.5,1.9
		c1.1,6.6,2.8,3.7-1.4,6.8c-0.1-4.8-1.3-5.5-0.9-7.9c1-6.1,1.5-3.5,3.6-4.4c2.6,9.2,13.6,6.9,13.7-5.3c7.6,3.7,9.4,1.4,17.6,1.4
		l0.8,1.7c0.1,0.2,0.2,0.7,0.4,1c1.4,3.5,1.1,6.7,14.4,6.7l5.3-0.4c0.3,0.2,3.8,1.4,4,1.4c9.9,2.3,9-0.8,9.2-1l-1.4-1.4
		c-1.3-1.3-0.1-0.8-2.2-1.9l-7.7-3.5c4.4,0.4,4.8,1.4,9.4,1.1c-3.6-3.3-1.4-2-7-3.1l4.7-2.1c-3.6-1.1-2.2-1.1-6.6-2.3l5.1-0.3
		c-1.3-2.3-1-0.5-1.3-3c-0.4-5,0.1-0.8,1.3-2.5l6.8,4.1c5.2-3.9,4.9-0.9,2.7-6.9c10.7-1.7,5.6-6.5,20.2-4.8
		c9.2,1.1,10.6,1.6,20.8,1.5c4.7-0.1,14.8,2.1,22.9,2c4.6-0.1,7.2-0.8,10.9-1.4c17.7-3.2-6.5-5.5,29.4-2l-8.7,1
		c7.7,2.8,6.3,1,13.3,7.4c-1.2-4.5,0.7-1.8-2.4-4.9l6.5,2.6c3.9,0.1,5.5,0.9,6.8,0.9c8.1,0.1,4.5-4.6,9.4,3.1
		c0.7-5.7-0.6-2.8,2.2-6.1c2.3-2.7,2-2.2,5.2-3.4c-1.7,7.9-0.7,0.5-3.2,7.1c4,3.1,4.4,4.6,5.5,9.3c3.7-4.6,4-2.8,4-2.8l2.8,2.6
		c2.3,2.9,0.2-0.3,1.3,2.9c5.3-5.3,8.2,2.4,13.3,2.9c6.4,0.7,6.1-1.1,11.2,4.1l1.9-1.1c4-1.2,19.4,5.5,23.8,9.1
		c4.3,3.5,0.7-2,9.6,3.8c2.6,1.7,6.2,4.1,9.6,4.1c5.9,0.1,0.6,0.1,3-1.1c0.7,1.3,1.7,3.8,4,4.9c6.7,3.3,10.9,0.7,21,9.1
		c-2.8-6.2-1-5.5-7.3-8c-9.9-3.9-16.3-9.4-26.2-11.9c3.3-2.9,5.6-5.6,9.5-8c6.7,2,14.4,7.4,22.5,6.3c-5.8-3.1-37.4-14.7-40.7-13.5
		c-4.4,1.6-3.7,3.2-9.9,4c-7.8,0.9-17.6,0.6-22.2-6.5c-2.6-4.1,1.4-0.5-3-3.9l2.8,0.4c-0.6-5,0.3-2.6-2-5.7c3.9-1.1,2.3,1.3,3.4-2.8
		l19.8,8.8c7.5,2.5,5.2,0,6.1-0.7c-4.6-0.4-19.5-8.4-24-11.5c-2.8-1.9-31.9-16.8-38.3-13c-4-5.8-15.1-8.8-22.9-10
		c-6.2-1-5.6,2.9-11.7-2c-2.7,3.2-4,3.8-13.6,3.9l0.8-4.1c-1.8,2.2-1.4-2.9-1.8,5.4c-10.5-2.7-9.7,1.2-10.3,2.2l-0.4-6.4
		c-9.7,7.4-9.5-1.9-20.5,4.4l-4.1-3c-6.8,4.1-16.4-0.2-24,0.8c0.3,0.2,0.7,0.5,0.9,0.7c0.2,0.1,0.7,0.5,0.8,0.7l1.3,1.3
		c0.1-0.2,0.3,0.4,0.4,0.4l-4.6,1.1c-3.7-3.4-3.6-3.1-7.9-2.5c-2.9,7.1-1.6,5.9-6.3,11.4c-3-2.3-5.7-2.5-10.7-3
		c-5.6-0.6-5.8-0.1-4-3.8c-1,0-5.8,0.4-6.5-2.2c-0.1-0.5-0.4-0.6-0.6-0.8c-4.9,1.6-5.7,2.5-10.9,0.2l-4.4,2.8
		c-1.9-3.5,0.8-1.6-3.8-2.7c1.9-7-0.4-5.2,4.1-6.4v2.3c12.4-3.2,12.6,3.2,17.7-2.4l2.2,1.7c5,2.5,11.8,1.3,13.2,1.3
		c1.9,0,1.9,0.2,3.1,0.4c0.3,0.1,2,0.5,2.5,0.7c-3.1-8.3-9.1-7-15.4-11.2l19.3-5.2c0.3-0.1,3.4-1.6,4.6-2.2c4.6-2.2-0.5-0.8,5.6-2.5
		c29.2-8,13.5,1.9,50.3-16.3c6.8-3.4,4.1-2.5,9-6.1c4.3-3.2,1.9,0.3,10.3-4.7c7.4-4.3,24.7-10.2,32.7-12.3c3.4-0.9,7.1-2.7,10.9-4
		c11.1-3.8,23.7-15.2,21.1-21.1c9.3-2,1.6-2.6,9.4-1.9c1.3-11.8,9.2-7.3,18.1-26.2c5.7-12.1,26.3-23.4,34-74.9
		c1-6.8,2.8-13.6,3.1-18.7c-5,3.6-7.3,13.6-10,20c-2.4,5.8-6.2,16.7-6.4,23.5c-0.2,0.2-0.5,0.6-0.7,0.8c-5,6.9-10.6,17.6-8.8,25.1
		l-2.8,0.2l-0.2-3.9c-0.9,0.6-4.7,2.8-5.2,3.4c-4.1,4.3-6.1,12.1-10.9,13.1l1.2,7.3c-6.5-3.4-6.4,5.4-15.1,5.6
		c0.8,6.7,1,5.5-4.1,7.9c-6.9,3.1-1.7,0.8-5.6,5.1c-2,2.3-5.2,3-8.4,3.9c-9.2,2.5-6.8,0.1-7.8-1.1c-0.6,4.9-0.2,2.6-1.5,4.8
		c-7.7-0.2-3.9,0-5.9-1.9l-5.1,3.8c-4.3,1.3-1.7,0.8-4.9-0.1c-4.1,8.5-8.6,2.6-20.7,17.3c-8.4,0.1-13.3,0.5-20.4,3.4l-1.6-3.2
		l-3.2,6.5c-13.9,0-38.1,10.9-51.7,16.3c-4.6,1.8-11.5,4.6-16.9,5.7c5.2-7.4-1.9-0.8,16.3-9.1c40.5-18.4,16.4-22.5,48.2-25.9l-8-0.7
		c4.1-5.9,10.9-6.2,17.6-9.3c8.6,4.7,7.5,1.1,8.6-0.1c-8.8-0.8-3.1,1.4-5.1-2.7c4.6-1,11.6-4.6,14.3-9.6l5.6,1.4
		c-3.6-7.4-1.1,2.1,3.5-13.6l-7.4,3.7c-3.9,1-2.2,0.5-4.7,3.1c-0.3-0.1-0.7-0.4-0.9-0.4c-5.3-2.5-1.6-1.3-4.5-1
		c-3.6,0.4,0.5,2.5-4-0.7l-2.9,0.7c-0.6-3.3,1.1-0.7-1.3-2.6l-5.5,2.5l3-4.2l-5.6,1.8c2.2-2.3,2.7-2.5,4.7-4.9
		c-4.6-0.5-0.5-1.1-5,1.1c1.4-1.5,0.8-0.9,2.3-2.3c9.8-8.6,3.9-7.5,9.3-11.1l11.8-4.9c0.3-0.1,0.7-0.2,1-0.3c2-0.8,1.9-0.9,3-1.9
		c-1.6,2.6-2.8,3.1-3.1,5.3c-0.4,2.7,1.6,4.9,1.7,5.2c4.6-3.4,0.8-2.8,6.7-4.1c-4.2,5.6-1,3.4-2.6,9.5c4.2-1.6,3.2-1.1,6.2-4.7
		l0.6,4.6c6.4-6.8-2-6.8,3.8-15c7.8-11.1,6.2-16.7,10.2-33.5c1.6-6.6,2.3-10.6,8.2-13.4l-5,1.1c0.8-5.2,1.4-5.4,2.4-9.3
		c1.1-4.3-1-1.3,0.1-6.7c1.3-6.2,1.9-2.8,3.2-7.4l1.9-6.1c-3.2-2.2-1-1-4.3-2.2c0.9-4.7,1.9-3.2-0.9-6.2c9-1.7,1.2-3.7,10.2-7.5
		c0,0-1.9-1.5-2.1-1.7c-4.3-4.3,5-13.4,6.3-14.4c-2.1-5-0.3-20.4,4.9-23.7c-5.6-4.8,6.8-26,2.6-30.2c-0.1-0.1-0.5-0.5-0.7-0.7
		l-4.1-4c3.5-1.4,1.5,0.8,1.9-2.2c2.3-17.1-0.2-38.3-5.3-54.4c-2-6.4,1.4-5-4.4-10.2c-0.4-5.3-3.4-11.7-5.5-15
		c2.3-3.7,4-12.1,3.6-17.7c-2.3,4.9-0.8,9.7-3.8,15.3l-7.2-13.5c-2.3-4.1-3.7-8.5-6.2-12.9c-2.3-4-5-7.6-8-11.1
		c-4.4-5.3-4.2-6.2-4.6-14.9c-3.3,7.1,2,5.3-3.5,9.6l3.7,4.3c-1.9,8,0.3,6.2,3.1,14.7c1,2.9-0.3,3.1,1.1,5.6c0.8,1.4,1.6,0.7,3,5.2
		c1,3,0.1,2.3,1.5,5.2c0.9,1.9,1.1,0.9,2.2,3.4l5.6,17.3c2,3,1.2-0.1,2.8,4l3.8,14.2H811.5z"/>
	<path class="st0" d="M546.1,319.1l-0.2,20.7c0.1-0.3-0.2-1.1-0.2-0.9l-1.9-2.4c-5.1-3.4-4.6,7-4.2-9.1c0.4-13,1.1-10.9,5.5-8.8
		L546.1,319.1L546.1,319.1z M567.8,322l0.4,16C565.7,336.2,565.6,326.2,567.8,322z M572.2,334.1c-3.9-3.2-1.9,0.5-2.2-6.8
		c-0.3-6.7-1.8-4.7,2.2-8.2C572.1,327.2,572.8,328,572.2,334.1z M579.7,325.8c-1.7-1.7-1.8,0.7-1.9-2.8c-0.2-5.5,0.8-2.9,1.3-3.6
		L579.7,325.8z M554.4,339.6c-0.5-0.6-3.4-1.6-2.4-9.2c0.1-1.1,1.3-8.2,1.6-9.9c2.5,2.5,1.6-1,1.6,3.2c0,0.1-0.7,3.9-0.8,4.9
		C554.2,331.8,554.4,336.1,554.4,339.6L554.4,339.6z M550.3,339.6c-4.7-4.6-1.4-4-1.4-19C554.4,322.7,550.1,317.5,550.3,339.6z
		 M614.7,305.6c-1-2,0.9,0.5,0.9,0.5C616,307.4,615.7,307.5,614.7,305.6z M602.1,305.6l3.7-5.7c2.3,5.7,3.4,8.3,2.9,13.7
		C606.1,311.4,604,308.1,602.1,305.6L602.1,305.6z M641.6,310.1c-2.1-5.6-1.6-4.9,0.1-9.6l4.8,4.1L641.6,310.1L641.6,310.1z
		 M598,297.5l2.6,2.2C595.3,298,600.1,299.6,598,297.5z M625.4,265c1.2,2.7,5.9,19.4,6.5,22.8l-6.8,7.2
		C617.6,276.1,624.6,281,625.4,265z M602.4,250.8l0.4,2c0.1,0.3,0.5,1.7,0.7,2.1c1.4,2.4,2.3,2,3.8,2.9l-6.4,0.1L602.4,250.8
		L602.4,250.8z M622.1,245.4c-5.5-1.3-6.2-0.2-8-5C616.4,241.8,619.9,243.6,622.1,245.4z M629.6,237.9c0.1-2.8,0.5-0.8,2.4-1.7
		l-0.9,4.1C627.7,238.2,629.5,241.5,629.6,237.9L629.6,237.9z M639.2,233.8c-0.7,1-2.4,2-0.7,0.1L639.2,233.8z M601.9,228
		c0.9,1,3.1,1.8,2,4.9c-0.6,1.8-1.9,2-3.4,2.8L601.9,228z M624.5,234.3c-4.6-0.1-4.6-1-7.5-3.4C620,227.2,623,232.2,624.5,234.3z
		 M625.1,226c-4.1-5.5,0.4-4.4,1.6-4.7L625.1,226z M632,227.9c-3.1-3.7-0.6-4.3-0.2-5C632.4,223.7,633.8,223.1,632,227.9z
		 M608.8,222c0,0,9-14.1,16.2-10.3c-0.2,0.2-0.6,0.4-0.8,0.5l-2.6,1.4c-4,2-6.3,2.5-9,7.3c-1,1.9-2.2,5.5-2.1,8.2
		c0.2,5.1,0.8-1.4,0.7,4.3c-0.1,2.6-0.5,1.9-1.1,2.9c-1.2-5.8-1.4-7-1.3-14.5V222z M635.8,206.3c-4-0.4-3.8-0.3-6.4,0.8l-0.3-4.2
		l12.2,1.9C639.4,209.6,642.5,206.9,635.8,206.3L635.8,206.3z M610.1,204.8c0.9-0.5,0.8-0.7,2.6-1.4c7.9-3.1,3.1,0.4,6.8-3.7
		l-9.5,1.4c0.5-5,11.3-2.9,15-2l-0.7,2.4c-0.4,2.9-0.4,1.6,1.7,2.9c-10.7,0.2,0.7-1.4-16,0.4L610.1,204.8z M629.1,200.7
		c1.1-5,1.1-1.7,0.1-6.8c6.4,1.7,9.6-0.2,14.9,4.1c-2.8-0.1-5.8-0.7-7.7-0.8c-4.5-0.3-1.7-1.6-3.2,2.1c4,0.2,6.6,0.9,9.4,2.9
		L629.1,200.7L629.1,200.7z M614.9,195.6l-4.4,0.6C610.7,195,613.4,194.4,614.9,195.6z M626.1,195.3c-0.5,0.3,1.6,2.1-4.3,0.8
		c-4.8-1.1-2.5-1.3-3.4-1.9C623,194.1,622.8,193.4,626.1,195.3L626.1,195.3z M629.4,191.2c1.9-1.4-3.6-1.6,3.5-1.2L629.4,191.2z
		 M617.8,190.7c6.4,0.2,6.2-2.2,8.3,1.7l-16.5,0.1C612.1,190,612.2,190.5,617.8,190.7z M624.6,184.8c0.2,2.3-0.5-0.7,0.5,1.9
		c0.1,0.2,0.8,1.2,1,1.6l-18.3,1c1.9-7.3,9.7,3.3,13-4.9c-11.1,0-13.3,1.7-16,0c3.2-1.9,3.3-1.1,7.9-1.6c9.1-1.1,4,1.7,11.8-0.6
		C626.3,185.2,624.5,182.7,624.6,184.8L624.6,184.8z M603.3,180.3c6.5,0,8.1-1.6,23-1.3c-1.1,0.6-0.4,0.7-2.7,1.1L603.3,180.3z
		 M608.7,176c0.6-0.1,3.4-0.4,3.4-0.4c2-0.1,1.6,0.3,2.2,0.7c-3.7,2.2-5.8,1.4-12.4,1.2C605.4,175.7,604,176.6,608.7,176L608.7,176z
		 M642.4,177.9l-13.3-3c2.3,0,5.8-0.2,8,0.2C642.1,175.9,641.6,177.2,642.4,177.9L642.4,177.9z M584.2,181.5
		c3.8-1.5,0.9,1.3,3.4-2.6l9.5,0.1c7.7,8,12.1,13.1,8.5,28.5c7.3-0.1,11.2-2.2,18.8-0.7c-9.1,2.4-13.8,1.1-21.7,4.6
		c3.4,7.9-3.3-3.4,1,2.1l2.4,2.5c-5.2,5.7-3.5,7.7-3.3,10.2c-2.8-0.9-2.3-0.1-5.4,4.1l-3.7-2.7c-1.1,10-2.4-0.8-7.1,9.3
		c7.4-1.1,6.4,0.4,11-3.1c0.5,9,2.2,14.4-0.7,16l1.2,1.4c0.1,0.1,0.5,0.5,0.6,0.7c0.1,0.1,0.4,0.4,0.6,0.7l-0.1,5.5
		c0.3,0.2,0.8,0.1,0.9,0.5c0.4,1.2,8.2,2.8,3.3,11.8c-4.2-4.9-1.6-4.7-3.7-9.1c-1.4,5.5-1,29.2-3.1,35c-1.7,4.7-7.7,15.4-20.5,19
		c-5.9,1.7-3.1-0.9-6.5,0.2l-2.6,1.2c-4.9,1.6-4.2,0.5-5.8-1.2c-5.6,4.7-6.6,1.9-11.4,0.2c-0.3-0.1-0.7-0.2-1-0.4
		c-0.4-0.1-1.7-0.4-2.1-0.5c-5.2-1.5-9.2-4.4-12.7-7.7c-1.6,1-2.2,1.4-3.6,2.7c3,1.7,0.6,1.4,3.6-0.8c2.1,7.8-0.8-0.3,4.1,6.2
		c-0.2,4.6-0.7,7.6-0.5,12.3c0.2,6.5,1.9,4.9-2.2,8.2c-1.8-13.5,3.2-9.5-2.7-12.7l-1.4,9.9c0-9.6-0.7-12.2-2.7-15.1l-0.2,16.4
		c11.1,8.2,4.4,5.6,11.5,6.6c5,0.7,13,1.3,16.8,1.1l0.6-19.8l6.7-0.5l-0.1,18.1c-2.6-5.6-0.4-8.9-1.4-12.4c-1.4-4.9,0.1-1.2-2.6-3
		l0.1,17.7c4.2-1,4.3-1.7,8.4,0.2c1.3-5.5,1.1-5.6,4.9-3.7c4.7-13.3,6-3,11.4-19.1c2.9-8.6,5.6-3,7.8-11.3c6.1,3.8,2.8,7.4,3.3,11.6
		c0.8,7.4,1.4,0.5,2.3,16.8c2.7-0.9,0,22.6-0.2,25.1l-3.1,6.8c6.4,1.6,3.2-0.5,4.6,4.3c3.1-2,8.5-1.8,13.8-2
		c-0.5-18.3,2.7-48.8,11.1-60.8c5.5,7.9,11.4,16.3,13.1,26.9l5.5,36.7c10,0.1,1.4-1.7,12.6,0.7c2.5-5.1,1.4-1.5,0.4-6.6
		c-2.8-13,2.3-28.1,2-41.7c-0.1-4.1-0.5-5,0.7-8.9c1.8-5.6,2.9-0.7,1-5.8c9.8-1.9-1.5-1.5,7.5-2.9c-11.4-13.5-9.3-2.1-13.8-30.4
		c-1-5.8,0.9-14.2-0.4-19c-3.3-11.8,0.4-10,1-20.1c-1.3-6.5-1.5-1.6-2-5.5c-0.4-2.9,3-0.6-1.2-6.2c-3.7,7-2.3,9.2-9.4,14.4
		c3.8-7,4.9-6.4,5.9-16.6c-5.6-5.8-7.4-11.6-17.7-11.8l-0.4-2.7c9.8,0.4,18.2,5.5,19.4,14.2c3.2-1.6,2.8,1.1,2.3-2.7
		c0,0-3.1-8.2-8.8-10.4c3-2.2,2.9-1.8,3.3-6.6c0.4-5.5-0.6-1.8,1.7-8c2.6-7,6.3-9.4,7.1-16.3c-9.1,1-2.2-0.1-4.3,3.5l-8.3-1.1
		c0.3,0.4,0.8,0.3,0.9,0.8c0.5,2.2,0.7,0.3,1.6,1.3c1.7,1.7,0.3-0.7,1.3,1.9c-2.8-1.6-1.9-1-6.4-1.3c4.4,3.9,3.5,1,8.2,4.4
		c-3.4,1.6-10.8-0.8-15.1-2.5c-2-0.8-1.5-0.8-2.6-1.6l7.3,0.7l-5.9-4.7c5.4,0.5,2.7,1,8.2,1.4c2.9-2.9,2.3-2.3,5.9-2.2l-2.2-3
		l15.3,1.4c-1.5-3.7,3.7-3.1-10.9-3.1v-1.4c2.2,0,4.4,0.2,6.5-0.4c0.3-0.1,0.6-0.3,0.9-0.4c10.4-4,0.4-0.1,9.2,0.2
		c2.8,0.1,0.8,0.1,2.4-0.8c-0.9-0.7-0.6-0.8-2.5-1.6c-1.8-0.7-1.8-0.6-4.3-1.2c-4-0.9-4.4-1.1-8.8-1.3l2.4,2.6
		c0.1,0.1,0.1,0.4,0.2,0.5c-4.7,1.4-1.6,1.3-6.1-0.4c-3.8,3.8-4.3,2.5-9.7,0.6l6.4-0.3c0.1,0,0.4-0.2,0.7-0.3
		c-3.7-2-9.2-2.7-14.3-2.7l3.4-1.5l-5.6-3.8l-2.3,2.8c-8.7-0.8-8.7-3.1-14.1,1.1l2.8,1.5c1.5,3.9-3.2,2,4.7,2.3
		c5.5,0.2,4.9,1.6,7-1.9l0.4,3.3l-25.5-5.2l-13.8,8c-6.3,2.5-4.3,0.8-2.6,5.5H584.2z"/>
	<path class="st0" d="M221.8,633.6c1.4-3.1,2.9-5.1,4.5-7.5c2.2-3.2,2.8-4.6,6-6.2c-1.2,3.9-2.5,5-4.3,8.1
		C225.4,632.6,227.7,631.9,221.8,633.6z M249,602.8c2.5,5.5,0.1,5.5-4.4,1.5L249,602.8z M268.9,591l-2.8,3c-2,2.9-0.7-0.6-1.3,4.1
		c-8.6,0.3-4.3,2.5-10.7,3.8c2.6-3.6,0-1.2,3.9-3.6c-0.2-0.3-0.5-0.7-0.7-0.9c-0.1-0.2-0.5-0.7-0.5-0.8l-0.8-1.9
		c2.6-2,3.4-3.1,4.8-5.9l6-1C267.3,594.2,266.2,588.8,268.9,591z M271.4,584.3c0.6-3,1.7-2.8,4.3-3.5L271.4,584.3z M268.9,591
		c3-3.5,3.8-4.3,7.6-7.1c6.5-4.7,4.9-1.8,7.4-6.5l-4.3,0.2c0.2-0.2,0.5-0.5,0.8-0.7l3.3-4.7c0.8,4,0.9,3.6,3.1,6.7L268.9,591
		L268.9,591z M331.2,543.5c-2.4,4.1,0.7,2.3-5.2,3.3c1.5-1.6,0.1-0.8,2.3-2.2C331.2,542.6,329.1,544.1,331.2,543.5z M362.2,528.2
		c0.1-0.2,0.5,0.4,0.8,0.5l-3.4,0.9l-0.9-3.4c0.4,0.2,1.5,0.8,1.7,1L362.2,528.2L362.2,528.2z M387.1,524.7
		c-0.9,1.8-1.3,3.1-3.2,3.7c-8,2.6-4.9-1.2-5.6-1.7L387.1,524.7L387.1,524.7z M364,519.3c4.5-1.3,14.7-6.4,22.3-4.9l4.8,1.7
		c-4,3.2-7.3,2.8-5.5,6.9c-14.8,1.7-0.3,5.9-18.9,9.4c0-0.1,1.7-2.6,1.7-2.7C360,526.8,370,525,364,519.3L364,519.3z M392.7,521.9
		c0.2-7.7,0.5-6.5,2.6-7.7c0.1,0.1,0.1,0.4,0.1,0.4c0,0.1,0.1,0.4,0.1,0.4c1.6,2.2,1.9,0.9,4.7,2.9
		C399,518.7,394.7,520.8,392.7,521.9L392.7,521.9z M420,511.3c-3.1,2.3-2,2.1-7,2.3c2.2-1.6-2.3-0.1,3.4-2
		C420.4,510.4,416.7,511.6,420,511.3z M438.9,505.6c3.1,1.1,1.8-1,2.2,2.2L438.9,505.6z M420,511.3c1.6-1.6-0.5-0.4,3.2-2.5l9.9-2.9
		C429.8,508.2,424.6,510.6,420,511.3L420,511.3z M331.2,543.5c1-7,1.5-2.8,4-7.7c-4.1,0.4-10.6,3.3-14.7,5.1c-2.8,1.3-0.2-0.1-3.4,2
		c-8,5.4-5.2,2.1-10.3,4.6c-7.3,3.7-18.7,10.8-22.2,18.6c-6.6,0.5-9.6,2.6-13.3,5.7c-5.9,4.9-4.1,3.7-11.4,6.4
		c-0.1,3.2,0.6,5.7-3.8,8.2l-10,4.2c6.1,0,2.1-0.7,5,1.9c-6.5,3.5-1.2,3.9-9.7,6.5c-1.5,3.3,0.4,2.2-3.2,6.4
		c-9.2,10.8-7.4,12.9-17.4,15.7l2,2.3c3.5,4.6-0.5-1.8,0.5,1.1c-1,2.1-2.2,4.3-3.5,6.1c-12.3,17.7-12.7,36.5-15.5,40.2l-2.7,1.7
		c-0.1-0.2-0.4,0.2-0.7,0.4l0.7,13c3.2-4.9,0.4-8.8,5.9-14.1c-0.6,7.3-3.5,10.8,2.5,16.6c0.8-10.6-0.4-10.2,3.4-13.9
		c2.2-4.1,2.7-7.1,2.8-12.6c2.8,3.8-0.1,1.2,3.5,3.1l-0.7-7.6c3-1.7,1.7-0.7,3.3-3.8l1.6,8.3c0.5-9.1,0.6-14.1,5-20.5l0.5,5.9
		c2.6-3.1,0.6,3.7,2.4-4.8c2.6-12.2-1.7-1.5,5.2-12.7l1.9-4.6c4.1-3.5,7.6-7,11.4-10.3l0.2,15.1c1.1-9.4,2.8-17.4,7.4-22.4
		c1.9,0.4,1.8,0.6,2.6,0.9c5.1,1.8-3.1,0.4,1.4,0.4c2.8-3.9,1.9-5.5,5.8-9.3l3.8,4.6c1.1-12.5,3.3-5.2,7.6-11.1c1.6,5,0.7,4.1-0.4,9
		l10.5-16.4c4.5-3.7,14-3.2,20.5-6.6l1.9,3.5c0.1-0.2,0.5,0.7,0.7,1c2.2-5.7-0.4-4.4,4.4-7.1c1.6-0.9,4.7-2.2,6.4-3.1l-0.6,5.1
		c1.7-1.8,3.7-3.6,5.2-5.9c6.1-9.3,11.2-6.5,17.2-15.5c3.8-0.1,3.1-0.1,5.5,1.4c1.8-7.1,4.4-6.4,9.9-9.9l2,1.9
		c3.7-2.6,3.8-5,7.3-6.7l25.6-11.2c2.4,2,1.1-1.7,2.3,2.3c2.8-5.2-4.8-1.6,10.6-7.6l0.8,3.8c14.4-12,33.7-4.4,35.6-28.7
		c-1.9-1.3-0.7,2-2.6-2.9c-0.1-0.1-0.4-4-0.4-4.6c-2.6-2.2-3.4-2.6-8-3.2c-5.8-0.8-3.4-0.8-8.2-2.8c-4.9,6.7-8.8,2.6-18.3,2l4.6,2.2
		c-8.8,6.1-3.1,2.3-8.9,4.7c-13.2,5.6,2.3,5.1-18.6,3.1l5.8,3.1c-5.4,5-18.4,8.7-24,11.2c-5.5,2.5-4.5,5.1-4.7,6.1
		c-4.1-1-1.5-0.8-5,0.5c-6.1,2.3-4.2,0.7-7.4,1.5l1.6,2.3c-6.3,4.3-8.5,1.4-9.7,8.5l5.6-2.8c0.2,0.3,0.6,0.6,0.8,0.8l4.3,5.5
		c-1.4,1.1-2.3,1.8-3.9,3.1c0.7,2.7,0.1,2.5,1.2,5c-7.3,1.4-3.4,1.4-5.1,5.8c-0.2-0.2-0.5-0.6-0.5-0.7l-3.1-4.1
		c-0.1-0.3-0.2-0.4-0.4-0.6c-5.1,2.2,0,0.8-5.8,1.6c1.6-3,0.9-0.3,1-3.8l-3.5-0.7L331.2,543.5z"/>
	<path class="st0" d="M777.2,811.7c0.5-4.5,1.9-6.5,4.3-9.2C781.2,807.5,780.5,808.7,777.2,811.7z M788.3,782.7
		c-2.2-3.2-1.6-2.5,1.1-6.2C790.4,778.6,791.1,779.8,788.3,782.7z M789.8,764l1.5-15.4c7.2-3.7,3.2-1.9,5.2-4.9
		c0.5,5.7-1.4,2,2.2,4.9C792.6,755.1,795.3,760,789.8,764L789.8,764z M795.8,737.9l0.2-5.9c1.9,3.1,2.3-3.6,1.3,3.2
		C797,737.1,796.9,736.4,795.8,737.9z M804.6,693.3l-0.7,8l-2.8-3.1c-3.5,4.3-1.4,1.5-1.2,6.7l-3.4-6.2l-0.1,10.9
		c-2.6-4.7-1.4-5.7-3.4-10.3c-1.2-2.8,0.2,1.6-1.9-3.3c0.2-0.1,0.5-0.4,0.5-0.2l1.6-0.8c0.1-0.1,0.4-0.2,0.5-0.4l-1.4-4.1l-3.4,2.2
		c-0.2,0.1-0.4,0.5-0.7,0.8c0.4-6.6,4-9.5,8.6-9.4C801.1,684.4,801.5,689.2,804.6,693.3L804.6,693.3z M793.2,669.3l0.1,6.1
		C791.8,671.7,790.7,672,793.2,669.3z M783.9,617.4c0.5,2.5,0.2,3.8-0.4,6.4L783.9,617.4z M758.4,571c-1.1,3.3,1.4,2.6-2.7,1.6
		C757.2,570.7,753.5,571,758.4,571z M742.4,555.6l-4.3-0.9c1-0.4,0.2-0.8,2-0.5C744.5,554.8,741.7,555.1,742.4,555.6z M734.9,551.6
		c-3.5-0.8-1.4,0.7-3.6-2.3C735.2,550.5,732.4,548.3,734.9,551.6z M777.1,811.8c-1.6,6.2-1.4,5.6-6.5,5.5c1.9,5.6,1.1,0.9,1.9,4.6
		c-0.1,0.1-1.5,1.1-2.1,1.7c-3.4,3.2-0.3,0.7-2.8,5.5c-3.6,6.8-15,21.9-16,26.3l2.8,0.1c2-7.1,3.5-5.9,6.1-9l6.7-11.1
		c4.7,4.1-1.5,2,4.9,3.4c-3.2-10.4,0.5-11.2,2.2-12.7l8.8-14.3c1.8-4.2,2-3.5,3.8-7.1l10-21.7c1.8-5.8,0.2-4.4,0.1-11.2
		c2.8-2.9,1.7,0.1,3.7-3.7c0.2-0.5,1.3-4.7,1.4-5.5c0.6-6,0.5-7.9,1.5-13.5l-4.1-4.1c3.7-3.4,2.7-2.8,2.8-9.5l-4.2-7.4
		c-5.1-0.1-1.3-2.2-4.9,2.9l0.8-13.1c-5.2,2.8-0.5,2.3-5.6,4.2l2.2-6.1l8.2-0.7l-0.5-4.1l5.4,2.7c3-7.1,6.3-13.9,1.3-20.5
		c-0.2-3.5-0.4-16.2-2-18.3c-0.1-0.1-0.5-0.6-0.7-0.7l-1.3-2.6c0.5-0.1-0.6-4.7,2.3,1.2l1.9-6.7c-0.9-2-1.8-3.7-1.7-6.7
		c0.2-7.5-1.1-2,2.2-5l-2.9-3.1l-0.5,13.5c-3.5-4.9-2.6-8.9-8.8-11.7c2.7,8.3,1.2,3,0.6,11.6c-3.5-3.8,0.5-1-4-2.7
		c-0.1,5.1,0.3,4.4-1.5,6.7l0.8-12.1c-1.1-0.3-0.8-2.2-3.2,1.9c1.6-14.5-0.7-13.6-5.5-25.1c0.2-0.1,0.4-0.2,0.5-0.2l1.1-0.4
		c1-0.4-0.1,0.4,2.4-1.3l1.3,4.6c5.4-2.2,1.4-1,2.7-3.9l2.7,3.9c1.7-0.9,1.4-1.1,4.1,0.2l0.8-5c0.1-0.5,0.4-0.6,0.5-0.9
		c0,4.3-0.5,7.5,3,7.7c5.3,0.3-0.9-6.4,5-10.2c-6.1-9.1-1.9-8.9-4-13.6c-1.4-3-1.7-2-3-6.3c-0.8-2.6-1.3-4.6-2.3-7.6
		c-1.3,2.2-1.3-2.3-1.1,4c0,0.1,0.8,3.8,0.9,4.3c-4.3-5.9,1.7-0.5-7.9-13.5l-7-8c-7.1-9.7-6.1,0.4-6.7-10c-3.7,1.3-2,0-4.7,2.3
		c-2.6,2.2,0.1,0.2-0.7,1.7c-11.7-7.4-1.3-10.2-9.6-10.5c-0.7-0.6,0.8-3.8-5.4-1.6c-0.2-0.2-0.3-0.7-0.4-0.8l-1.3-2
		c-1.3-0.8-1.2-0.2-3.8,0.2c2-4.6,0.6-1.8-4.1-6.8h5.4c-3.3-2.5-3.7-1.3-6.4-4.5c3.1-1.6,1-0.1,3.7-3.7c-0.2-0.2-0.5-0.6-0.7-0.7
		c-5.8-4.9-9.1-5.2-12.9-8.2c-3.2,1.7-2.6,1.1-5.2,3.2c-2.3-2-1.9-1.4-4.8-3.4c-6.1-3.9-2.5,0-3.5-4.9c-5,1.6-6.1-0.1-10.5-1.5
		c5.6-2.2,3.2,1.9,3.7-5.1c-3.1,1.4-1.8,0.9-2.7,2.5c-5.8-4.3-6.7,0.2-7-3.2c-0.1-1.5,3.3-1.3-2.6-2.9c-2.9-0.8,0.1-3.1-3.4-4.9
		l-5.9-2.7c-3.5,1.9-6.4,4.1-9.3,5.9c4.2,7.1,6.4,5.5,9.3,12.7c3.3-2.4,0.2-1.7,5.3-1.6c2.8,3.2,1.2,2.3,5.6,4c0.8,0.3,1.4,0.3,3,1
		c1.9,0.8,1.4,0.8,2.4,1.6c3-2.3,2,1.5,2.4-2.4c2.6,4,0.2,2.3,5,4.4l-2.3,2.2c7.3,0.8,1.8,0.3,7.4,6.4c17.9,19.3,6.7,14.1,33.9,30
		l16.9,6.4c1.7,13.2-1,31.1,7,47.4c5.9,12,0.8,14.9,5.8,39c0.7,3.1,0.4,1.8,1.4,4.1c5.1,10.6-1.1,14.3,2,25.2l3.2,6.2
		c-3.7,6.7-2.2,12.6-6.2,21l2.1,0.7c0.6,9.7,3.6,9.2,1.6,17.9c-3.8,16.3-0.5,7.8-1.6,15.9l-4.8,25.1c-1.9,5.9,1.1,1.6-4.6,5l1.1,4.3
		c0.2,2.3,0.3,1-0.3,3.3c-1.3,4.7,0,2-3.1,4.1l3.3,1.9L777.1,811.8z"/>
	<path class="st0" d="M442.8,769.3c-2-3.7-1.7-3.9,0-7.7c3.2,1.3,2.8-1.9,2.5,4.9c-3.7-6.7-1.7-1.3-2.4-1.1L442.8,769.3L442.8,769.3
		z M447.8,766c-0.2-1.7-0.6-1.3-0.5-3.4c0.3-6.9-0.3-1.3,1.1-3.6L447.8,766z M445.4,744.8c-3.4-6.8,3-18,2-21.9
		c0.8,5.3-0.7,5.7-1.6,10.2C445.4,735.3,445.7,740.7,445.4,744.8z M458.5,662.1c4.7-3.3,3.4-0.8,4.7,0.6L458.5,662.1z M442.8,769.3
		l1.6,5.9c3.9-0.2,1.6-1.1,4.4,0.5c0.4,0.2,1.1,1.1,1.3,1.4c4.1,4.7-1.7-3.4,1.2,1.7c2.4,4.3-0.1,3.8,4,7.3
		c-0.6-10.2-4.9-14.5-3.8-26.6l5.3-3.2c0.1-19.2,3.2-6.5,4.4-11.1c0.1-0.3,0.5-0.1,0.8-0.3c-5.3-8.8-0.4-23.9-1.6-35.1
		c-2.8,0.8-2,0.4-3.5,2.7c-0.5-5.8,0.9-3.8-3.1-6.9l3.4,9.4c0.1-0.2,0.4-0.5,0.4-1c0.1-0.5,0.2-0.7,0.4-1c-0.4,5.1,0.1,3.8-1.4,6.9
		l-3.8-1.1l-0.1-12.2c-1.7,2.1-1.1,0.2-1.6,4c-0.1,0.2,0.1,4,0.1,4.5c-1.8-3.4-4.3-9.8-3.3-14.6c0.8-4,2.2-10.3,3.5-14.3
		c0.1,0.2,0.3,0.7,0.4,0.8l0.7,4.1c0-0.2,0.1,0.5,0.2,0.7l4.9-12c3.5-1.7,2.8-0.7,5.2-0.7l1.3,4.9c-1.1-1.3-4.4-2.7-7.3-3.7
		l2.6,12.9l4.9-2.2c0.1-0.4,0.4-0.5,0.5-0.7l0.7,25.6c1.1,0.6,0.7,0.2,1.8,0.8c4,2.5,2.9,3.8,7.3,8.5c-3.8-20.2-15-7.9-3.5-45.4
		c1.4-4.6,1.9-11.2,3.2-15.5l-7.8-3.1c2.1-1.5,1.6-0.6,2.2-3.2c-10.6-3.5-4.6-10.7-14.1-9.4c3.8,6.1-2.6,11.5-5.3,14.2
		c2.3-1.3,3.2-1.9,5-3l-5.9,28.5c-2.2,9-4.4,19.8-6.4,27.7c3.1,1.5,2.6,0-0.2,8.2c-1.5,0.3,0.8,2.5-2.3-1.8
		c-0.5,8.3-3.2,9.7-4.5,16.6c-1.2,6.5,0.5,2.1,1,5.8c0,0-1.1,27.6,4.7,37.7c1.9-3.4,0.1-2.7,0.2-10.5l2,3.5c0.1-0.2,0.4,0.7,0.6,1
		l-0.2-7.5L442.8,769.3z"/>
	<path class="st0" d="M477.4,592.3c1.4-5,0.1-5.5-0.4-6.4c-2.5,1.8-1,0.1-2.5,3c-5.7,11-6.1,16.6-14.1,24.4c2.1,2.5,1.3-3.4,1.8,3.8
		c0.2,3.5-1.3,7.2-3.7,9.1c6.2,14.8-5.2,9.7,3.6,14.2c0.1-7.2-0.4-12.7,6.8-15.1l4,8.3c3.8,8.1,1.8,15.9,0.1,24.4
		c3.7-1.4,2.3,0.2,4.5-6.4c3.2-9.8,6-13.2,8.7-20c6.1-15.2,5.2-13.8,4.7-30.8c1.6-1.9,2.2-2.8,3.4-5.3
		C484.4,597.4,483.4,598.4,477.4,592.3L477.4,592.3z"/>
	<path class="st0" d="M562.7,255l-1.4,6.1c-0.6-1.3-2.5,2.6-0.7-3.9C561.8,252.6,561.1,256.4,562.7,255L562.7,255z M562.7,255
		c0.2-3,0.7-4.5,1.4-6.5c0.7-2,0.3-1.1,1.1-3c1.4-3.3,0.7-1.4,1.7-2.9c-0.7,3.1-1,4.3-1.7,7.1c-0.6,2.4,0.1,0.9-0.9,3.2
		C563.6,254.6,563.1,254.5,562.7,255L562.7,255z M544.5,240.1c0.5-0.3,2.1-0.4,3.3-1.7l-2.6,5.7L544.5,240.1L544.5,240.1z
		 M557.1,236.2c0.8-4,1.3-3.7,2.3-7.6c0.5,0.8,4.9-2.8,0.9,4.9C559.8,234.4,557.7,235.6,557.1,236.2L557.1,236.2z M557.1,236.2
		c-0.7,3.3-0.7,3.9-2.7,6.3c-1.8,5.6-2.8,5.5-1.3,8.8l3.8-7.1c1.8-4.6,1-3.9,4.3-6.7c-0.9,2.4-1.1,2.4-1.9,5.1
		c-3.4,11.8-2.5,6.2-5.4,13.6c-4.1-4.2-2.6-1.9-4.7-0.7c0.5-7.6,0.1-3.8-1.7-5.8c-0.7,5-1.3,5.4-4.1,8.2c0.4-3.6,0.9-4.6,2.1-7.4
		c0.7-1.8,0.7-2.1,1.6-3.7c1-1.9,0.9-1.2,1.8-2.2c0.4-5.3,5.2-14.5,7.9-17.7c-0.4,7-2,3.5-2.5,11.2c0.2-0.2,1.7-0.2,2.6-1.7
		L557.1,236.2z M546.5,227.7c1.1-1-0.2,0.6,1.1-1.1l1-1.6c2.1-2.5-0.1-1.1,3.1-2.5c-2.3,4.6-0.3,3.4-4,7c3.2,4.2,1.4,0.1,2.7,5.2
		c-4.1-2.4-3.4-3.4-5.9,5.3L537,253c-1.3,7.6,0.7,4.1,1.5,5.2c2.3-6.8,0-5.1,5-11.1c-1.1,7.4-4.6,7.9-3.7,15.9
		c4.2-5.6,5.3,1.6,16.4,2.7c7.1,0.7,1.5,0.8,4.6-1l9.9-24.4c-2.8,0.8-2.2,0.4-3.9,2.4l-0.7-4.4c-4.4,7.7-5,15.6-10.2,21l4.1-13
		c3.2-9.2,4.6-3.5,2.5-14.6c1.4,1.3,0.8,2.9,5.5,4.2c2.1,0.6,0.7-1.8,5.3,3.1c-2.9,6.2-4.6,15.2-7.7,21.4l9.3-2.3l-1.6-4l-4,4.4
		c2.4-7.7,4.7-13.9,7-22l1.8,4.9c3.5-5.5,0.8-2.5,4.7-3.7c-1.6,2.3-1.4,1.7-2.3,4.1l-0.9,3.2c-0.6,2.5-0.4,1-0.8,4l-2.3-5.6
		c-1.3,2.5-2,5.4-3.1,7.7c1.2,0.7,0.5,0.4,2.3,1.1c4.8,1.7-2.2-2,1,0.3l-0.9,9.1c5.5-3.8,0.7-2.6,8.8-5c-0.7-7.4,1.1-7.9,2.3-13.6
		l-1.6-0.7c-0.1-0.1-0.4-0.3-0.5-0.4c-0.1-0.1-0.3-0.2-0.5-0.4l1.3-4.7c-2.2-0.7-4.6-1.5-5.8-2l-3.1-1.9c-3.6-1.9-4.3,0.7-16.2-5.5
		l-4.4-2.8c-2.6-2.3-0.4-0.5-1.9-2.2c-2.3-2.7-0.5-2-4.2-3.2c-2.6,1.6-3.9,0.6-3.8,8.4L546.5,227.7z"/>
	<path class="st0" d="M997.8,575c1.8-4.1,3.8-1.7,0.8-8.9c-10.4,1.3,2.8-4.6-22.2-5.5c-7.9-0.3-4.9,0.2-7.1,2.2
		c0.5,0.3,2.5,1.1,2.8,1.3c4.2,2.9-0.2,1.7,6.4,5.7c13.5,8.2,24.8,11.7,26.5,21.1c0.1-0.2,1-2,1-2.1c0.1-0.1,0.5-0.3,0.6-0.7
		s0.4-0.5,0.7-0.7c8.8,5.9,16,9.4,22.5,18.3c13.7,19.2,6.4,8.8,15.1,16.1c5.6,4.7,2.9,2.9,4.6,2.3c0.7-1.8-8-15.1-9.8-17.6
		c-0.8-1.1-1.6-1.9-2.4-3.1c-3.3-4.3-3.5-1.4-1.5-6.2c-7.4,1.8-10.8-17.2-28.7-21.2c0.7,10.3,7.3,5.5,12.4,14.3
		c-4.7-1.7-13.2-7-16.5-10.7c-1.9-2.2-3.3-3.1-5.3-4.5V575z"/>
	<path class="st0" d="M552.4,278.5l9.7,0.3l-3.4,20.3c-0.1-4.5,0.1-5.5,0.5-9.7c0.5-5.5,1.7-2-1.9-4.4l-1.5,16.3l-5.4-2.7l2-20.2
		H552.4z M524.6,277.2l-0.1,10.6c5.6-5.1,0.6-7.5,6.2-18.5c0.8,5.3-1.3,10-2,14.5c-1.3,8.2-3.1,10.9-1.5,13.7c4.4-2.5,2.1-0.2,3-6.8
		l3.8-20.6c5.2,2.5,0.1,2.3,1,9.7c0.3-0.2,0.7-0.5,0.8-0.7c0.1-0.2,0.5-0.5,0.7-0.7l1.8-3.9c5.9,3.7,6,1.3,12,5.2l-3.7,1.4l3.2,2.7
		c-1.7,3.4-1,5-1,10.1c-0.2-0.4-0.5-0.7-0.5-1c-1.4-4.4-0.9-3.2-0.4-7.8c-2,1.7-1-0.4-2.3,2.3c-1.8,3.5,0.3,5.8-2.2,10
		c0-0.1-0.8-4.1-0.8-4.1c-0.2-4.1,1.4-2-0.5-5.3l-1.9,7.7c-3.2-7.1-0.2-6.9-1.3-14.4c-3.3,5.7-2.6,7.8-2.3,15.6
		c3.4,2,3.1,2.9,7.5,4.1c-4.7,1.9-2,2.9-5.9-0.4c2.2,6.1,1.1-1.4,1.7,6.1c1.6-2.3-0.6-2.8,4.7-2.2c4.7,0.5,2.9,3.2,3.5,2
		c0.1-0.2,0.4,0.5,0.7,0.8v-2.8c5.9,2.2,0.3,1.1,6.7,1.3c0.3,0,2.7-1,4,1.8l11.1-3.1v-11.1l-2.7,8.3c-2.5-3.4-1.4-5.3-1.4-11.2
		c-5,2.8-1-1.6-3.1,9.4l-1,1.7c-1.7-3.1-0.5-6.2,0.1-12.2c0.4-3.6,1-8.2,2.6-10.8l1,6.7c2-2.4,1.5-0.4,2.1-6.5
		c4.6,1,6.2-0.4,7.7-4.3c-18.6-0.4-22.3,3.4-31.4-2.6c-3.8-2.5-4.3-2.2-6.6-5.8l-2.6,2.9l-1.4-4.1c-2.3,2.6-1.5,2.5-5.5,1.1
		l-3.4,10.6c-0.1-0.2-0.4,0.5-0.6,0.8L524.6,277.2z"/>
	<path class="st0" d="M716.3,338.1c-3.2-1.7-2,1.2-2.8-5.3c-0.3-2.6-0.3-4.6-0.8-7.4C716.1,329.3,716.3,332.8,716.3,338.1z
		 M717.3,311.2l3.1,25.5c-2.5-2.3-1.8-0.1-2.7-5.5l-2.7-19C716.4,310.4,712.8,309.6,717.3,311.2L717.3,311.2z M717.3,311.2
		c1.5-3.5-0.7-1.3,2.1-3c3.1,7.6,3.6,10,4,21l-4-14.6C718.5,311.6,718.5,312.5,717.3,311.2L717.3,311.2z M742.1,315.2
		c-2.8,0.6-1.2,0.2-2.8,1c-0.2,0.1-0.7,0.9-0.8,0.6c-0.1-0.2-0.5,0.5-0.7,0.7c-0.4-11.2-2.6-5.9-5.9-12.6l0.6,9.9
		c-2.3,1.5-1.7-0.5-2.7,2.7l1.3,0.5c0.1,0.1,0.6,0.1,0.7,0.1l0.6,1.9c-3.2,1.6-1.3,0.8-2.3,2.8c-0.3,0.6-0.9,1.6-2.5,2.9l-6-19.1
		l3.4-4.8c2.7,0.1,1.5-0.4,3.2,1.9c0.1-1.7-0.5-5.9-0.5-5.9c0.1-5.4,0.4-2,2.5-3.4c-0.8,7.3-0.7,6.5,2.3,10.2c0-6.5-0.6-12.9-4.1-17
		c-2.2,8-4.3,12.3-9.2,15.7c-4.6,3.1,2.6,0.4-7.1,6.1c1.3,5.2,1.8,8.7,1.7,15.7l-1.9-3.2c-2-2.6,0.6-0.4-2.2-2.2l1.7,19
		c-2.7-0.8-0.6,0.2-3.4-3.4l-2.7,2.6c0.1-10.2-2.9-16.5-4.1-23.7c-0.4,0.9-2.5-1.8,0.1,8.8c4.7,18.3-5.9,17.5,8,17.8
		c6.7,0.1,11.3-0.2,16.8-2.5l10.5-8.2c-0.5-7-3.7-9.4,0.4-15.9l-0.4,10.2c4.6-1.9,1.4,1,3.5-4.9L742.1,315.2L742.1,315.2z"/>
	<path class="st0" d="M512,353.5c-0.4-8.5-3.7-33.2,0.1-41.2c-0.2-0.2-0.5-0.6-0.7-0.7c-0.1-0.1-0.6-0.6-0.7-0.7l-1.4-1.3
		c1.9-0.7-1.6-1.4,4.3,0.1c-0.2-8.2-1.7-11.1,1.4-19.2c-0.2-0.2-0.6-0.5-0.8-0.7c-0.1-0.2-0.5-0.5-0.7-0.7
		c-2.2-3.4-0.5-10.4,1.5-13.5L515,288c2.5-4,1.4-3.3,1.7-7c0.2-2.2,0.2-3.2,1.2-5.3c4.9-11.1,3.2-13.9,6.8-23.1
		c3.1-8,4.7-4.4,3.1-10.4c5.8-2,2.5,0.8,5.5-5.5c1.7-3.4,2.6-5.2,3.3-8.9l-4,3.2c2.2-9.7,6.9-6.7,4-13.2c-0.2,0.2-0.5,0.6-0.7,0.8
		c-0.1,0.2-0.5,0.6-0.7,0.8c-6.5,8.2-2.9,6.5-9.3,18c-8.5,15.1-6.2,16.2-8.1,20.2c0.1,0.3,0.4,0.7,0.4,0.9c0.1,0.1,0.3,0.7,0.4,0.8
		c0.1,0.2,0.5,1,0.5,1.3l-3,11.8c-0.4-0.5-3.4,0.4,1.1-9.2c-3.8,1.1-3.8,1.9-4.7,6.9l-8.5,65.1c0.1,6.1,0.2,2.2,1.3,3.7l0.2-1.5
		c0-0.2,0-0.7,0.1-0.8l3.6,17.4c-2.2-2.9-0.3-1.6-3.4-3.4c-1.7,12.2,3.2,10.3,3.6,10.5l2.5-7.8L512,353.5z"/>
	<path class="st0" d="M570.2,356.6c1.4,6.2,0.2,1.4-0.7,3.2l-1.3-6.7C569.9,355.3,568.8,350.9,570.2,356.6L570.2,356.6z M534.8,349
		l1.9,16.3C533.6,361.5,531.1,353,534.8,349z M582,341.9l-15.2,9.9l-1,11.9l-3.1-10.4c-4.3-2-19.3-0.2-30.2-9.3
		c-0.2-0.2-0.8-0.9-1-1l-5.8,4.7l2.8,22.8c3.9-4.7,0.2-13.4,0.2-23.1c6.1,8.2-2.9,17.6,11.2,22.7c-0.4-4.4-1.1-4.9-1.5-8.8
		c-0.3-3.1-0.2-7-0.2-10.1c0.1,0.1,2.8,1.3,2.9,1.4c4,1.2,2.8-1.9,5.2,3.4l2.9-1.6l1.1,13.7c-3.3-3.1-2.4-1.1-2.7-7
		c-4.2,2.8-1.4,6.2,0,9.9l9-0.7c-3.8-2.5-3.1-2.8-4.6-6.2c5.4,3.9-0.9,2.4,4.7,3.7l-1-13.3c3.8,3.9,0.1,8.5,4,14.5
		c2.1-2.3,2.5,2.2,1.2-5.9c-0.5-3.4-1-2.5-1-7.1c4.3,4.7,1.1,13.5,7.9,9.4l5-4.6c4.9-4.3,4.4-0.9,5.2-3.1c0.2-0.4,0.6-0.3,0.9-0.5
		c1.5-5,2.4-9.7,2.9-15.3L582,341.9z"/>
	<path class="st0" d="M940.5,553c-1.2-2,0.1-1-1.7-1.8C941.1,551.2,939.4,550.3,940.5,553z M938.4,546.9c8.3-1.4,11.1,3.7,22.6,6.2
		c-1.4,0.8,0.2,2-5.5,0.3L938.4,546.9z M951.5,543.7c-0.2,0.2-1.4,5.9-3.3-0.4L951.5,543.7z M934.5,538.9c-2.2,1.9-0.2,0.7-3.2,1.4
		L934.5,538.9z M940.5,553c3.5,1.5,9.6,3.1,11.8,5c4,3.3,1.7,4.8,10.2,4.4c0.7-1,2.2-2.5,2.3-4c0-2.6-0.3-1.7-2.8-3.8
		c7.3,0,2.1,1,4.6-1.4c0.2-13.4-10.1-5.5-15.3-12.9l7.6,0.6c-0.8-0.5-0.2-0.4-2.8-1.7c-0.3-0.1-0.7-0.3-1-0.4l-5.2-1.7
		c-10.3-3.3-7.9-0.1-8.5,0.4c3.9,0.4,3.4,0,7.6,2l-11.1-0.4c-2.7-4.1-8.1-4.5-13.7-5.3c0.9,4.1,2.5,6.6,5,9.7c-1.7,2-3.4,4-4.6,5.5
		l3.2,2.1c0.3,0.1,0.7,0.2,1,0.4c1.3,0.6,3,1.5,3.6,1.8c4.3,2-2.1,1.4,4.3,1.4C944,554.8,939.3,555.1,940.5,553L940.5,553z"/>
	<path class="st0" d="M690.2,275.3c3.8,5.4,5.9,13.6,5.3,20.1C693,292,690.5,280.4,690.2,275.3z M697.3,283.7l-2.4-4.4
		c-0.4-1.3-0.6-3.4-0.8-4.9C695.2,275.7,696.1,274.1,697.3,283.7z M691.7,294.6c-5.5-6.2-2-9-6.4-17.4c2.9,1,1.8-0.4,2.9,3.1
		L691.7,294.6L691.7,294.6z M673.5,290c-2.2-5.5-2.5-10.5-4.6-15.4c3.4,1.1,1.8-2.9,3.2,3.9c4.9-3.8,3.9-1.9,11.3-1.4l4,18.8
		c-4.3-5.7-0.7-7.1-5.2-13.2c-1.9,2.9,0.4,9.2,1.4,12.1c-3.6-2.6-4.6-9.7-2.7-13.5c0.4-0.7,0.2,0.5,1.4-2.9
		c-4.6,1.1-2.2,1.6-5.8-0.3c0.5,5.6,1.6,8.7,1.9,13.7c-2.7-3.9-1.1-6.8-4.6-11.5C671.6,285.5,674.7,282.8,673.5,290L673.5,290z
		 M697.3,283.8l2.2,2c0.1-0.2,0.6,0.4,0.9,0.7c-0.4-8-2.5-7-2.9-13.6c-8.2,0.2-9.5,2.3-18.4,0.5c-7.4-1.5-10.7-4.3-15.7-4.4
		c-0.2,8.3,3.4,19.3,9.7,24.1c5.2,4,17.2,6.2,25.2,5.3C699.3,292.3,697.5,288.7,697.3,283.8L697.3,283.8z"/>
	<path class="st0" d="M676.8,215.7l3.8,3.5C675.7,218.6,678.5,218.9,676.8,215.7z M664.6,216.9c4.4,1.4,5.9,3.6,8.2,6.9
		C668.4,222.3,666.7,220.1,664.6,216.9z M678.2,211.1c0.3,0.2,0.8,0.1,0.9,0.6c0.2,0.7,4.3,2.1,5.9,8.1l-5.4-5.5
		C679.5,214.2,678.2,211.1,678.2,211.1z M663.2,215.7c-4.7-1.5-3.5-0.4-4.9-5.2L663.2,215.7z M672.7,206.2c1.6,1,0.4-1.9,2.8,2.7
		C671.5,207.9,673.8,210,672.7,206.2z M675.5,221.3c-8.3-5.9-11.6-11.3-17.7-12.4c0.2-3.8,0.4-2.8,0.6-5.3c0.2-3.2-0.9-0.9,0.7-3.8
		c3.2,1.8,5.2,3.6,8.4,6.2c2.8,2.3,4.9,4.5,7.1,7.1c-7.8-2.2-4.6-5.2-13.2-7.3c2.2,3.6-0.9-0.3,1.9,3
		C667.4,213.5,673.7,214.6,675.5,221.3L675.5,221.3z M672.7,206.2c-4.3-1.1-5.9-3.5-8.1-6.8c2.6,1,3.6,1.4,5.3,2.9
		C673.6,205.3,671.9,204.5,672.7,206.2L672.7,206.2z M684.9,213.2c-3.8-1.7-9.4-8.9-12.5-12.1l-5.3-4.3l-4.9-3
		c-7.4,2.8-4.8,4.4-9,9.6c0.7,3.5,0.8,4,1,5.8c1.1,8.5,1.9,7.3,4.6,10.8c2,2.6,1.5,2.3,2.8,5.2l19.3,1.4c2.5-2.8,0.5,3.6,2.1-3.7
		c4.7,1.5,4.1,1.1,7.6-1.8C687.3,218.3,686.3,217.6,684.9,213.2L684.9,213.2z"/>
	<path class="st0" d="M736.6,301.2c3.2,5.5-0.4,3.8,3.8,6l0.3-6.8c5.5,0.1,2-0.4,4.1,1.1l-2.8,13.9c0.9,1.2,1-2.9,1.4,3.8l1.4-2.8
		c0.1-0.3,0.7-1.3,0.8-1.9c0.1-0.5,0.2-0.6,0.5-1l0.4,7.3c2.5,5.5,1.3,9.9,1.7,14.1c1.7-1.6,2.2-2,3.5-3.5c-1.3-4.5,1-0.7-2.2-4.1
		c0.3-0.3,2.3-2.6,2.4-2.7c-1.5-33-5.6-29.3-9.4-47.9c-3.8-18.7-4.1-6.7-5-10.6l-3.2-5.7l-4.2,4.3l4,12.3c1.3-2,2.1-1.6,0.4-6.5
		c2.3,2.9,1.3,3.4,4.7,5.2c-2.9,2.9-4.3,2,1.4,2.9c-3.1,2.9-0.6-0.4-1.3,13.5c-1.5-3.1-2.6-8.4-2.6-11.8l-4.3-0.7l-2,4.5
		c3.1,4.1,1,0.3,2.2,4.9c1,3.7-0.4,2,2.8,6c0.1-8.3-1-7.6-1.1-12.6c1.4,2.5-0.2-1.9,1.3,2.3l1.3,7c0.5,4.6-0.1,3.9-0.2,9.3
		L736.6,301.2z"/>
	<path class="st0" d="M675.9,248.7c0.4,0.6,2,3.2,2.3,3.8c3.3,7,0.5,4.3,0.1,5C675.7,253.6,675.9,253.2,675.9,248.7L675.9,248.7z
		 M666.5,246.1l2.7,6.1C666.6,250.2,665.8,250.6,666.5,246.1z M668.6,242.8c5.7,4.9,3.8,7.5,6.9,13.8c-4.3-1.9-1.4,0.7-4-5.5
		C670.2,248.1,669.5,246.4,668.6,242.8L668.6,242.8z M681.8,247.1l-0.2-6.4c3.7,2.5,1.1,0.2,3.5,5c1.5-4,0.7-0.3-0.2-5.6
		c1.1,1.1,1.6,0.7,2.9,1.3c1,6.5,4.8,11.8,5.2,17.7c-3.8-3.7-3.1-7.5-6.5-11.9c0.2,5.2,1.7,7.3,2.6,12.1c-3.8-1.9-1.8,1.1-2.7-4.1
		c-3.4,1.1-0.7-1.7-2.5,3.2c-0.1,0.1-0.2,0.4-0.3,0.7c-7.1-8.2-3.4-16.1-10.3-17.1c-1.3-0.2-0.8,0.1-1.8-0.3
		c1.3-0.7-0.1-0.8,2.7-1.1c1.7-0.2,2.2,0,3.7,0.1c1.3,2,2.8,4.6,4,6.6V247.1z M668.6,242.8c-0.7-1-0.5,0.5-1.6-2.2
		c-1-2.6,0.1-1.1,0.7-1.8L668.6,242.8z M687.8,241.4c3.2-6.5,10.3-6.1,9.4-7.7c-1.6-3.4,1.8-2.6-8.5,2.1
		c-18.3,8.2-27.4-8.5-29.6,1.7c-3.8,18.4,28.6,28.3,35.3,21.7c2.2-2.2,0.5-4.3,0.5-4.4c-0.2-0.5-1.7-3.4-2.3-4.6l-2.7-6.9
		C688.4,240.9,690,242.7,687.8,241.4L687.8,241.4z"/>
	<path class="st0" d="M586.6,209.1c-2.6-1.3-2.6,2.6-1.4-2.9C588.3,208.1,585.9,205.4,586.6,209.1z M590.3,198.3L590.3,198.3z
		 M577.6,195.3c4.4-1.1,2.4-1.2,7.1-3.1l-5.7,5.8C577.2,196.5,577,200,577.6,195.3L577.6,195.3z M585.7,187l0.4,2
		c-4.3,1-3.6,1.1-7.1,2l-1.4,4.1c-4.6,1.4-0.5-0.7-4.3,2.5c-1.8,1.5-2.8,2.3-4.5,3.8c-3.4,2.9-5.3,5-6.4,8.6
		c6.1-1.9,5.9-7.6,13.8-11.3l-3.8,4.9c-1.6,2-1.9,2.8-3.4,4.6c-1.4,1.7-2.4,2.9-3.7,4.4c-0.7,0.8-1.1,1.3-2,2l-3.4,2.3
		c5.5,3.5,4.6-1.9,6.8,5.5c2.7-1.4,1.9-0.8,4-3.1c0.3,0.4,1.5,3,1.8,3.7c1.4-3.4,1.7-2.6,2.4-3.3l5.1,2.2l-3.1-6.3
		c-0.4,0.2-0.8,0.1-1,0.6l-5,2.1c1.8-3.2,2.1-2.6,3.3-6.8c-4.7,2.2-3.4,2.8-7.3,5.5c1.7-6.8,17.1-23.1,25.8-24.5
		c-4.7,5-7,4.4-12,9.9c-2.9,3.2-1.9,1.4-3.1,5.1l9.3-7.5c-2.7,5.7-7.9,8.6-9.4,14.4c4.4-2.7,2.8-2.8,8.3-1.4l0.9-3.8l2.4-6.5
		c5.1-3.1,3.4-2.4,5.9-7l1.7,6.4c-2.3,3.1-3.1,3.1-4.5,6.8c7.6-3.2,4.7-4.9,8.4-6.7c-3.4-4.3-2.8-13.1-11.3-11.8l2.6-4.2
		c-3.3,0-3.1,0.4-6.1,1V187z"/>
	<path class="st0" d="M662.3,193.8l3.5,0.3c1.1,0.9,0.7,1.4,1.4,2.7l3.9,0.1l9.7,9.6c-1.2-5,0.5-1-1.6-4.1c-2-3-0.7-0.4-2.1-3.4
		c-1.2-0.7-1.8-0.2-2.8-1.3c1.6-1.7-0.5-0.5,2.5-1.1l0.7-2.4c3.1,1.6,0.7,0.8,1.9,2.4c7.7,1.8,4.3,4.6,10.3-0.5
		c-5-2.3-9.8-6.4-13-10.4c4.1,1.1,2.5,0.8,6.4,0.5c-0.5,4.3-2.2,3.4,2.8,4.7c15.5,4.4-4.3-13.9-15.8-16.6c-0.4,1-4.4-1.1,0.7,2.4
		c-1.3,0.1-2.8-0.2-2.8-0.2c-0.2,0-0.7-0.1-0.9-0.1l5.3,4.1l-4.4,2.4c4.7,7.4,3.4,5.6,7,4.4c-0.2,0.1-1.1,1.3-1.3,1.4
		c-5.8,4.2-4-2.6-5.6,3.4C665.4,190.2,663.3,185.7,662.3,193.8L662.3,193.8z"/>
	<path class="st0" d="M686.2,328.4c-3.5-2.8-2.5-0.9-1.9-7.7L686.2,328.4z M690.2,330.1c-0.1,2.9-0.2,1.3-1.3,2.7l-2.5-15.6
		c0.2,0.4,0.4,0.8,0.5,1L690.2,330.1L690.2,330.1z M694.6,335.4c-4.7-3.1-4.3-19.8-4.3-19.8C693.9,320,694.3,329.7,694.6,335.4z
		 M674.1,309.6c1.7,2.2-2.9,1.6,5.3,4.2c-2.9,11.5,4.9,14.4,6.4,23.3c0.4,2.2-0.3,0.3,0.5,1.6c0.8-1.5,0.9-1.5,2.7-3
		c3.8,2,5.5,2,9.8,3.5c-1.4-3.5,0.4-0.8-2.5-3.7c-0.6-5.6-1.7-14.8-1.7-18.9c2.6,3.5,1.9,3.2,2.6,8.1c1,6.8,1.1,4.8,3.3,6.8l-2.1-18
		c0.1-0.5,0.2-0.7,0.2-1.1c-8.3,3.5-17.3-0.2-24.5-2.7V309.6z"/>
	<path class="st0" d="M705.4,284.3c2.9,5,2.5,4.5,2.5,8.6C704.7,288.9,705.6,290.8,705.4,284.3z M714.9,261.9
		c0.8,0.8,1.4,13.7,0.8,17.2c-1.1-2.8-3.5-10.7-2.7-13.9l1.3-2.5C714.5,262.2,714.8,262.2,714.9,261.9z M714.9,261.9
		c-4.1,1.3-3.2,1.9-6.6,4.3l1.4,1.3c0.2,0.2,0.5,0.5,0.7,0.7c2.8,3.7,3.2,13.7,3.4,18.6l-0.2,0.8c-3.1-6.1,0.2-6.8-4.3-12.9
		c0.8,7.3,1.9,7.4,1,15.4c-2-5.8-2.4-10.7-5-14.9l0.1,8.2c-3-3.8-1.3-6.3-5-9l2.5,13.4l-3,1.4c0.1,2.3-0.2,2.5,0.5,4.8
		c1.4,4.4,1.3,2.2,2.2,3.4c6.6-0.4,9.9-5,15-9.3c0.1-8.3,2.2-12.7,0.7-23.8c-1-7.2-0.7-4.4-2.5-6.2L714.9,261.9L714.9,261.9z"/>
	<path class="st0" d="M692,364.2c2.6-0.8,1,0.5,2.7-1.6c-0.9-2.2-1.3-4.4-1.6-8.2l1.3-2.2c0.2-2.5-13.8-3.2-21.2-12
		c-3.7-4.4-0.3-3.3-5.9-4.9c1.7,7,1.9,3.2,5,7.1c2.7,3.5,1,3.8,3.1,7.9c6.9,13.4,4.6,6.8,9.6,13.6c2.3-3.1,1.7,4.1,1.6-5.3
		c1.7,2,1,1.6,4,2.7l-1.5-8.6C691.9,357,691.4,356.6,692,364.2L692,364.2z"/>
	<path class="st0" d="M571.9,190.9c1.9-2.2,0.8-1.6,4.3-2.5l-1.4,2.8L571.9,190.9L571.9,190.9z M576.2,188.4l3.1-2.1L576.2,188.4z
		 M577.6,183c-0.2,0.2-0.5,0.6-0.6,0.8c-6.1,5.9,4-1.5-5.8,3.8c-9.8,5.3-10.2,10.6-16.7,14.5c-1.1,3.9,1.1,1.6-2.6,2.9l-2,5.3
		c7.6-3.1,11.1-15.4,22-19.3c-3.2,8.2-18.1,13.8-15.2,22.5l2,0.8c5.3-0.3,1,0.1,3-0.8l0.7-3.4l-3.9,2.9c0.9-8.7,16.4-20.7,20.4-21.7
		c1.9-2.7,2-4.1,6.8-4.1c0.8-1-1.9-0.8,3.5-2.3l-4.9-3.2c-2.8,0.8-0.9-0.1-3.1,1.3L577.6,183L577.6,183z"/>
	<path class="st0" d="M462.2,848.4c-1.7-9.6,1.7-9.9-3.4-17.1l-1.3-1.4c-3.5-4.3,2.8,5-1.1-1.6c-4.1-5.8-7.7-12-3-15
		c-3.6-1.4-2.8-1.4-3.7-5.5c-3.1-12.8-2-4.6-4.7-11.7c-1.2-3.3-0.2-2.8-1.9-5.9c-0.4,7.8,0.6,10.9,2.4,17.6c1.6,5.7,3.8,8.4,5,14.3
		c1.3,5.9,2.8,8.3,5,14c1,2.6,1.9,4.1,2.9,6.5l3.6,5.8L462.2,848.4z"/>
	<path class="st0" d="M702.4,366.3L702.4,366.3z M692,364.2c-4.6-0.1-2.2-0.8-4.6,1.7c3.1,0.9,6.5,1,10.2,1.9
		c3.1,0.7,11.6,7.3,6.5-9.3c-1.4-4.5-1.7-6.1-6.7-6.7l-1.5,4.3c-1.6,2-2.2-3.7-1,4.6c0.2,1.3,0.7,2.6,0.9,5l-3.8-1.3V364.2z"/>
	<path class="st0" d="M521.8,357.3c3.1-1.1,3.8,4.5,2.5-13.6c-0.6-8.7,1.7-3.1,1.8-12.3c0.4-24.4,0.9-12.8,1.8-22.8
		c0.5-5.8,1.6-1.9-2.1-3.4c-0.1,7.1-1.7,7.9-2.5,12.7c-0.7,4.2,0.2,9.1-0.3,13.3C522,340,522,347.1,521.8,357.3L521.8,357.3z"/>
	<path class="st0" d="M462.2,848.4c0.3,4.4,3.4,14,7.7,15.8c0.1,0,1,0.1,2,0.5l2.2,1.6c-0.1-5.5-3.7-11.5-5.4-17.6
		c-1.4-5-2.7-11.8-4.9-16.3c-1.7,6.4,2.2,10,2.2,18.5L462.2,848.4L462.2,848.4z"/>
	<path class="st0" d="M581.7,297.4c6.5-6.4,1.4-16.3-0.7-22.3c-4.3,3.6-5.5-2.5,1,8.6c-0.2,0.3-0.4,0.8-0.6,1l-2.8,2.6
		c-2.2,1.3-2,7.3-2.5,10.1c-4,2.1-2.9-3.3-4.1,4.1c3.9,0.2,4.8,0.4,8.9-3.4C581.1,297.9,581.5,297.6,581.7,297.4L581.7,297.4z"/>
	<path class="st0" d="M557.3,195.3c4.2-1.5,0.7,0.3,4.3-2.5c1.7-1.4,2.6-2.2,4.5-3.7c3.4-2.5,6.7-4.6,9-7.4l2.6,1.3l2.7-4.1
		c-6.9-1.5-6.5-0.5-12.4,3.9c-4.1,3-7.1,4.4-11,8.3L557.3,195.3L557.3,195.3z"/>
	<path class="st0" d="M546.4,214.6l4.7-9c0.1-0.1,0.5-0.4,0.8-0.6l2.6-2.9l2.8-6.7c-2,1.6,0.6-1-2.2,2l-7.4,7.4
		c1.4-4,1.7-2.4,2.3-6.4c-2.1,1.2-1.4,1.1-3,3.1c-3.2,3.9-7.8,6.4-8.5,12.6c7.1-1.6,0.4-2.6,7.9-7.8c-1.1,4-1.4,2.9-2.8,6.8
		C545.5,215.6,543,213.6,546.4,214.6z"/>
	<path class="st0" d="M715,365.3c0.4-2.5,0.1-4.7-0.1-7.1c-4.9-2.8-2.6-4.1-9.4-5l0.5,4.8c4.1,1.4-0.1-1.9,4-0.8l-3.3,10.9l5.4,2.8
		C712.8,370.1,714.3,369.7,715,365.3L715,365.3z"/>
	<path class="st0" d="M519.2,328.6c2.2-2.7,2.9-3.7,2.8-9.5c-0.7-23.9,2.5-15.4,2.6-30c-4.7,2.6-2,1.9-3.2,9.1
		c-0.3,1.7-1.5,6.4-1.9,9C518.6,312.2,519,323.1,519.2,328.6z"/>
	<path class="st0" d="M515,323.5c2.4-5.8,2.9-20.5,2.9-28.9c-0.8,1-2.3-0.2-2.9,6.8l-1.1,15.4C513.1,322.7,513.9,321.6,515,323.5z"
		/>
	<path class="st0" d="M524.6,277.2c0.2-4,1.6-10.9,2.7-15.2c2.7-10.5,3.8-6.6,0.3-10.9l-7.2,27.8L524.6,277.2L524.6,277.2z"/>
	<path class="st0" d="M770.9,570.6c3.8-0.4,0.7,1.2,2.8-1.1l-7.6-8.9c-0.2-0.2-0.5-0.4-0.7-0.6c-0.2-0.2-2.8-1.9-3.1-2.2
		c-0.1-0.1-2.8-1.4-3.7-1.9c-5-2.8-5-4.9-11-2.9l5.9,2.4c2.8,1.4,4.4,2.2,6.9,4C763.7,561.6,768.9,566.7,770.9,570.6L770.9,570.6z"
		/>
	<path class="st0" d="M531.2,251.1c1.7-3.1,1.3-3.6,2.9-6.9c0.4-0.8,1.1-2.2,1.4-2.6c2.4-3.4,0.9-1.3,2.8-2.6l0.4-3.3
		c0.8-4.9,0.4-0.4,2.5-2.3l-0.4-4.6c-1.3,1.1-1,0.5-2.2,2.2l-4.5,7.8c-2,3.3-4,8.4-5.4,11.8l2.6,0.5L531.2,251.1z"/>
	<path class="st0" d="M704.1,253.5l3.2-2c0.2-0.1,0.6-0.4,0.9-0.5l6.7-4.8c-1.1-5,0.1-1.4-2-5.5l-3.4-5.3c1.1,3.9,1.3,5.8,2.7,8.8
		c-0.2,0.1-0.5-0.1-0.6,0.2c-0.9,4.6-0.6,0-1.1,0.5c-0.7,0.8-0.2-0.7-1.1,2.1l-4.2-4.3l0.8,6.2C705.7,250.8,704.7,248.6,704.1,253.5
		L704.1,253.5z"/>
	<path class="st0" d="M710.1,318.8c0.1-0.2,0.5,0.6,1.1,0.8l-1.8-8.9l-6.7,2.9c5,8,0.7,6.6,4.1,12.6c2.2-3.2,2.3,5.3,1.3-5.3
		c-0.1-1.3-0.8-3.7-1-5.9L710.1,318.8z"/>
	<path class="st0" d="M456.6,810.5c-0.5-13.3,2-8.4-1.5-21.7C455,789,451.1,804.5,456.6,810.5z"/>
	<path class="st0" d="M542.4,354c-1.1,1.9-0.8-2.2-1.6,4.5c-1.4,12.1,1.4,11.8,4.2,12.3C543.8,365.6,544,358.2,542.4,354L542.4,354z
		"/>
	<path class="st0" d="M531.2,251.1l-1.9,13.7c4.2-3.1,5.8-10.3,5.8-15.4l-2.9,1.2C532.1,250.4,531.6,251,531.2,251.1L531.2,251.1z"
		/>
	<path class="st0" d="M578.9,215.6c1.4,1.7,1.5,1.8,2.3,4.1l12.7-6.8c-0.2-0.2-0.5-0.9-0.7-0.7c-0.1,0.2-0.5-0.5-0.7-0.7l-2.8-1.4
		c-3.1,3.2-2.4,4.9-4.9,5.9C578.4,218.5,588.5,211,578.9,215.6L578.9,215.6z"/>
	<path class="st0" d="M576.5,376.2c8.8-0.4,4.1-5.8,12.9-6.8c-0.1-0.1-1.6-1.9-1.6-1.9c-1.3-1.4-1-1-2.4-2.2l-2.6,3.7
		c-0.2,0.2-0.6,0.4-0.8,0.6l-1.4,1.4C579.5,372,577.1,375.3,576.5,376.2L576.5,376.2z"/>
	<path class="st0" d="M664.4,527c6.3,4.4,0.8,2,7,9c1.7-1,1.6-0.8,4.1-1.8l-9.6-9.4C664.1,525.9,664.6,522.5,664.4,527z"/>
	<path class="st0" d="M456.3,828.3c2,0.2,2.2,0.2,3.4,0.8c0.7,0.3,1.9,1.6,2,1.5c0.2-0.3,0.7,0.7,1,1c-0.8-4.1-3.8-12.7-4-15
		C457.9,826.1,456.2,816.2,456.3,828.3L456.3,828.3z"/>
	<path class="st0" d="M582,341.9l3.8,0.4c2.5-5.5,7.5-9.9,5.5-15.1l-4.4,7.9C585.2,338,583.9,339.5,582,341.9z"/>
	<path class="st0" d="M751.6,855.3c-4.5,2-4.3,3.7-6.7,7c-3,4.1-4,2.1-3.8,7.7C745.1,865.6,750.3,861.5,751.6,855.3z"/>
	<path class="st0" d="M474.1,866.3c-2.2,10.8-0.6,3.4,1.5,12.1c3.4-3.8,0.7-3.4,2.8-8.2L474.1,866.3L474.1,866.3z"/>
	<path class="st0" d="M554.5,296.6l1.3-16.4c-2.4,2.9-3.6,8.5-3.7,12.4C551.9,298.5,551.4,294.9,554.5,296.6L554.5,296.6z"/>
	<path class="st0" d="M979.2,557.2c-1-3.2,0.4-3.1-4.1-4.7c-6.8-2.5-5.2,0.4-6,1.1C972.5,556.2,974,556.5,979.2,557.2L979.2,557.2z"
		/>
	<path class="st0" d="M574.9,294.6c0-18.6,3.6-11.1-1.4-13.8c-0.1,6.8-1.5,7.3-1.4,13.9L574.9,294.6L574.9,294.6z"/>
	<path class="st0" d="M698.6,255.2l-0.8,2.7c5.6-2,4.8-2.6,6.4-4.3c-3.3-3-1.3-0.6-3.2-4.8c-0.1-0.3-1.2-2.8-1.3-2.8
		c-2-3.2-1.3-1.6-2.6-2.8c0.7,2.8,1.4,3.6,2.2,6.1C702,257.9,699.4,254.3,698.6,255.2L698.6,255.2z"/>
	<path class="st0" d="M714.5,226.7c0.1,0.1-0.7,1.2-0.8,1.3c-0.2,2.2-3.5-1.5,0.6,1c1.3,4.7,0.1,2,2.2,5.3l2.5-3.7
		c-2-2.9-1.3-1.5-3.3-4.9c-2.9-4.9-1.2-3.6-4.7-4.8L714.5,226.7z"/>
	<path class="st0" d="M517.7,293.2c4.1-2.4,2.2-1.7,3.7-7.4c2.2-8.6,0.1-5.6-1.1-6.8L517.7,293.2L517.7,293.2z"/>
	<path class="st0" d="M460.4,742.9c1.6-2.8,0.1,2.6,1.5-3.3c1.1-4.4,2-12.9-0.4-16.1L460.4,742.9z"/>
	<path class="st0" d="M552,385.4c2.3,1.3,0.8,0.4,2.3,2c2.9,3.2-1.1,0.4,2.9,3.1l0.2-5.1l-1.6-3.8
		C550.8,384.5,553.1,381.4,552,385.4z"/>
	<path class="st0" d="M321,260.6c-2-5.5-2.6-8.8-8.5-9.5C314.4,255.2,317.5,258.5,321,260.6z"/>
	<path class="st0" d="M532.7,294.3c1-1.2,0.5,0,1.4-2.4c1.9-4.9,1.6-7,1-10.6C533,284.5,530.5,290.5,532.7,294.3z"/>
	<path class="st0" d="M727.2,262.5c-0.1-1.7,0.2-5.6-1.5-6.5c-5.3-2.6,2.8,3.8-2.7,0.4l-1.7-1.9c1.3,8.2,2.8,6.1,3,6.2L727.2,262.5
		L727.2,262.5z"/>
	<path class="st0" d="M652.5,561.3l8.2-1.1c-1.5-4.2,2.3-0.7-2.2-2.9c-4.3,3.2-3,0.5-8.3,0.5L652.5,561.3z"/>
	<path class="st0" d="M728.4,367.7c0.5,0.5,2.6,2.1,2.8,2.3v-11.7c-3.4,1.6-2.2-2.5-2.2,4.9C729,365.8,729.4,364.8,728.4,367.7z"/>
	<path class="st0" d="M809.1,80.7c1.1-2.2-0.6,1.6,1-2.3c0.7-1.8,0.8-1.7,1.3-4.3c0.9-5.9,0.2-7.5-1.3-9.9L809.1,80.7L809.1,80.7z"
		/>
	<path class="st0" d="M535.2,249.4l3.1-3.6c1.1-2.2,1.6-3.4,2.2-5.7l-2.2-1.1C536.8,243,535.4,243.9,535.2,249.4L535.2,249.4z"/>
	<path class="st0" d="M795.1,55.1c2.2-2.9,3.1-5.6,1.9-9.9c-1.5-5.7-0.7-2.2-1.9-3.9L795.1,55.1z"/>
	<path class="st0" d="M456.5,494.5c3.4-0.9,1.1,1,3-1.6c-5.5-3-1.8-2.3-6.1-6.4C452.1,490.6,453.3,491,456.5,494.5z"/>
	<path class="st0" d="M541.3,233.4l-0.6,4.5c3.5-2.4,5-6.1,5.9-10.3L541.3,233.4z"/>
	<path class="st0" d="M684.9,213.1c6.2,4.5,1.7,3.3,7.4,5.3c-1.9-4.6-2.2-3.4-4.6-6.8C682.3,211.7,687.2,211.2,684.9,213.1z"/>
	<path class="st0" d="M542.1,332.9l2.2-6.5c0.6-3.9,1.5-1.6-0.7-5.6C541.2,324,542.1,328.9,542.1,332.9z"/>
	<path class="st0" d="M517.7,339.9c3.1-2.1,3.4-6,1.6-9.6C516.9,334.1,517.7,333.9,517.7,339.9z"/>
	<path class="st0" d="M445.4,214.2c3.5-3,1.6-0.6,2.5-4.7c1.7-8.1,2-3.5-0.5-6.9L445.4,214.2L445.4,214.2z"/>
	<path class="st0" d="M569,291.1c2.9-3.1,1.5,3.7,2.7-5.5c0.8-6.5,0.7-1.8-1.8-4L569,291.1L569,291.1z"/>
	<path class="st0" d="M695.9,206.6c0.3-0.2,0.8-1,1-0.7l2.6-1.5l-4.2-4C692,199.8,695.2,204.9,695.9,206.6z"/>
	<path class="st0" d="M534,320.4c0.5-0.5,2.3-0.2,2-4.4c-0.4-5.2-2.3-1.5-2.4-1.5C532.3,318.6,532.5,316.5,534,320.4z"/>
	<path class="st0" d="M489.1,587.1l-2.3,2.6c-0.2-0.4-0.3,1.1-0.5,1.6c4.7-1.3,1.9,1.6,6.8-2L489.1,587.1L489.1,587.1z"/>
	<path class="st0" d="M546.4,217.1c-1.4,1.4-0.8,0-2.5,3c-0.5,0.8-1.3,3-1.7,3.7C548,222.8,546.4,223.9,546.4,217.1z"/>
	<path class="st0" d="M764.9,577.5c0.1-0.1,4.6,1.4,0.8-6.1C762.6,574.1,763.1,573.8,764.9,577.5z"/>
	<path class="st0" d="M677.1,199.1c4.6,1.8,1.7,1.7,6.5,3c-1.7-2.5-2.6-3.2-4.3-5.3l-2.6-0.1L677.1,199.1L677.1,199.1z"/>
	<path class="st0" d="M698.2,230.6c8-0.2,2.8,2.6,5.2-4.9C700.5,226.8,700,227.8,698.2,230.6z"/>
	<path class="st0" d="M770.9,570.6c-8.6,2.3,1.8-2.5-3.2,2c4.2,2.1,3.2,3.5,7.9,3.1C770.7,572.4,772.5,575.1,770.9,570.6z"/>
	<path class="st0" d="M736.6,301.2c-0.7-0.5-1.7-0.7-2.7-1.5l1.4,8.5C737,305.7,736.6,306.5,736.6,301.2z"/>
	<path class="st0" d="M539.8,220.7c4.2-1.4,3.1-1.1,3.8-5.3C539.8,217.4,540.4,216.4,539.8,220.7z"/>
	<path class="st0" d="M695.9,249.7c-0.6-4.4-0.1-4.9-4-6.8c0.2,0.5,1.4,3.9,1.4,4C695.9,251.4,694.5,248.5,695.9,249.7z"/>
	<path class="st0" d="M709.4,331.1c0.1-0.4,0.1-2.3,0.1-3c-4,1.6-3.4,0.3-1.6,6C709.3,332.2,708.4,334.3,709.4,331.1L709.4,331.1z"
		/>
	<path class="st0" d="M681.8,247l1.6,6.8c0.9-1.4,2.3,2.6,1-3.5C683.3,245.1,683.2,248.4,681.8,247z"/>
	<path class="st0" d="M648.4,168h-5.7c0.4,0.4,0.2,2.2,3.6,2.2C651.4,170.3,647.4,171.2,648.4,168z"/>
	<path class="st0" d="M765.3,496c-5.9,0.2-3.6,1.1-4,1.3c0.8,0.1,5.8,0.2,9-0.2C768.2,496.1,768.4,495.8,765.3,496L765.3,496z"/>
	<path class="st0" d="M713.5,354.4c0.3,0.3-0.6,1.9,2.9,2.2c3.2,0.2,1.9-1.3,2.6-2.2H713.5L713.5,354.4z"/>
	<path class="st0" d="M589.8,360.2c-0.9,1.1-1.1-0.4-1.4,2.5c-0.6,5.7-0.4,0.4,1.4,2.7C591.1,362.6,591.7,363.3,589.8,360.2z"/>
	<path class="st0" d="M565.6,384.1c4.4-1.8,2.1,2.2,3.9-3.8C565.5,381.3,566.4,379.7,565.6,384.1z"/>
	<path class="st0" d="M564.6,265.4c0.5,0.1-1.1,4.5,2.3-0.4c1.6-2.2,0.5,0.1,0.6-2.9C562.6,265.1,564.7,261.9,564.6,265.4
		L564.6,265.4z"/>
	<path class="st0" d="M549.1,244.5l-0.1,4.6c1.6-1.3,2,1.6,2.2-2.3C551.5,243.1,551.4,245.5,549.1,244.5z"/>
	<path class="st0" d="M690.5,203.4c1.1,3.7,1,4.7,5.2,6.5c-0.4-0.7-1.3-2.2-1.9-3C691.3,203.7,693.6,206.4,690.5,203.4z"/>
	<path class="st0" d="M726.5,314.6c0.1-0.2,0.4,0.7,1,0.9l-1.9-8.5C723.7,309.9,726.5,314.6,726.5,314.6L726.5,314.6z"/>
	<path class="st0" d="M554.4,242.5c0.1-8.2,0.1-1.9-1.3-4c-0.4,0.9-2.6-0.7-0.9,2.7C553.5,243.7,551.5,241.5,554.4,242.5z"/>
	<path class="st0" d="M698.6,255.2c-0.1-3.3,0.8-3.9-1.8-5.1c-0.1-0.1-0.6-0.2-0.9-0.4C696.6,253.5,696.4,252.6,698.6,255.2z"/>
	<path class="st0" d="M720.4,263.6c1.3-3,0.1-4.5-1-6.7C718.8,260.7,718.2,260.1,720.4,263.6z"/>
	<path class="st0" d="M728.9,255.2c1.2-3.7,0.7-2-1-6.4C726.8,254.1,726.8,252,728.9,255.2z"/>
	<path class="st0" d="M713.1,212.6c-1.3-3.8-2.5-6.2-5.7-7.2L713.1,212.6z"/>
	<path class="st0" d="M576.2,390.8c2.5,3.2-4.3,1.1,2.7,3.3v-3.2L576.2,390.8L576.2,390.8z"/>
	<path class="st0" d="M527.5,432.4c-2.5-0.4-2.2-1.1-2.1,1.1c0.3,0.2,0.8,0.2,1,0.5c0.5,1.3,3.5-0.4,3.5-0.4L527.5,432.4z"/>
	<path class="st0" d="M728.6,316c-2.8,2.5-2.2-5.1-1.4,7.2L728.6,316z"/>
	<path class="st0" d="M786.5,39.5c-0.3-3.7-1.5-4-3.4-5.8C784.4,37.6,783.7,36.6,786.5,39.5z"/>
	<path class="st0" d="M213.2,674.5c-0.3,4.9,0.2,5.6,2.5,9.1L213.2,674.5z"/>
	<path class="st0" d="M485.3,587.1c-3.5,1.4-0.8-0.4-2.2,1.5c-2.9,4.1-0.2-0.1,0.6,1.4C486,588.7,486.3,593.8,485.3,587.1z"/>
	<path class="st0" d="M573.3,429.4c5.7,0,1.4,1,3.7-3.5C570.5,429.5,576.4,427.2,573.3,429.4z"/>
	<path class="st0" d="M706.8,518c0.3,0.3-0.2,1,2.1,3.1c1.3,1.3,1.6,1.1,3.6,2.2C709.5,518.5,710.7,522.2,706.8,518z"/>
	<path class="st0" d="M527.3,339.5c-0.1,0.1-3.1-1.1-0.1,3.7C528.5,341.1,529.3,344.2,527.3,339.5z"/>
	<path class="st0" d="M715.7,533.4c-0.1-0.5-0.5-0.5-0.8-0.7c0.7,6.4-2,2.5,2.8,4.1L715.7,533.4z"/>
	<path class="st0" d="M538.2,226.2c1.4-1.4,1.2,0.1,1.3-3.2C536.3,224.9,535.2,222.4,538.2,226.2z"/>
	<path class="st0" d="M571.4,379.7c5.2-0.1,1.9,1.4,3.5-2.5C571,379.3,573.9,376.6,571.4,379.7z"/>
	<path class="st0" d="M583.3,174.1c5.4,0.5,2.6,1.4,5.3-1.9L583.3,174.1z"/>
	<path class="st0" d="M530,316.5c1-1.7,1.6-1.6,0-4.1C528.5,314.3,528.8,314.1,530,316.5z"/>
	<path class="st0" d="M802.1,403.5c2.5,1.5-0.5,2.1,3.8,0.1l-1.6-1C801.8,402.7,803.6,402.5,802.1,403.5z"/>
	<path class="st0" d="M557.6,283.7c1.6-1.5,3.7,1.1,1-4L557.6,283.7z"/>
	<polygon class="st0" points="546.4,217.1 549.9,216.7 546.4,214.6 	"/>
	<path class="st0" d="M811.6,237.4c0.1,1.7,2.5,2.8,1.8,0.1C813.1,236.2,811.5,235.3,811.6,237.4z"/>
	<path class="st0" d="M724.4,535.5c0.2,2.7,1.6,1.5,1.9,0.1C726.5,534.6,724.2,532.9,724.4,535.5z"/>
	<path class="st0" d="M688.7,208.6c-0.7-3.2,0.7-2.6-3-3.2C688.3,208.6,685.6,205.8,688.7,208.6z"/>
	<path class="st0" d="M811.5,124.7c-1.3-0.9-2.5-1.6-3.7-2.4l2.3,3.3C813.3,126.9,810,126,811.5,124.7z"/>
	<path class="st0" d="M763.9,566.8c3.5,3.7-4.3-1.1,2.6,3.5C765.2,566.8,767.4,568.1,763.9,566.8z"/>
	<path class="st0" d="M727.7,355.8c0.2,3.2,0.9,3.2,1.3,0.4C729.3,354.6,727.7,354.8,727.7,355.8z"/>
	<path class="st0" d="M704.6,273.7l0.4-1.4c-0.3-1.8-0.9-2.5-1-2.7l-0.5,1.7C703.8,272.7,704.2,272.6,704.6,273.7L704.6,273.7z"/>
	<path class="st0" d="M691.4,197.9c2.5-1.3,1,0,2.9-2.5C687.5,196.7,693.7,195.7,691.4,197.9z"/>
	<path class="st0" d="M697,243.1l-0.5-3.5C693.8,241.2,697,243.1,697,243.1z"/>
	<path class="st0" d="M690.5,203.4c-0.7-3.1,1-1.4-2.8-2.8C689,202.2,687.7,201.3,690.5,203.4z"/>
	<path class="st0" d="M666.9,308.3l2.8,1.6c0.1-0.2,0.4-0.2,0.7-0.3C668.7,307.8,673.2,308.1,666.9,308.3L666.9,308.3z"/>
	<path class="st0" d="M544.9,357.2c1.9,2.9-2.3,0,1.4,2.5C547.5,356.6,547.8,358.5,544.9,357.2z"/>
	<path class="st0" d="M571.4,227.9c0.2,0.7,2.8,3.4,1.3,0.2C572.4,227.4,570.9,225.9,571.4,227.9z"/>
	<path class="st0" d="M598.2,336.6c-3.3,1.7-2.2,0.2-1.1,2.8L598.2,336.6z"/>
	<path class="st0" d="M789.5,73.8c-1.5-2.5,0.6-1.6-3.4-3.4L789.5,73.8z"/>
	<path class="st0" d="M671.9,378.2c0-0.2-0.7-1-1.3-1.3l0.8,3.2C672.2,378.7,672.1,380.6,671.9,378.2L671.9,378.2z"/>
	<path class="st0" d="M716.3,527.3c2,3.2,0.2,1.5,3.4,2.6L716.3,527.3z"/>
	<path class="st0" d="M728.6,310.4c2.6,3-3.2,1.1,2.6,2.7L728.6,310.4z"/>
	<path class="st0" d="M436.2,790c0,0,1.9-1,2-4L436.2,790z"/>
	<path class="st0" d="M671.7,545.1l2.5-6.1c-2.2,4.2-1.2,7.7-2,5.2C672,544,671.9,544.8,671.7,545.1z"/>
	<path class="st0" d="M704.5,234.3l2.1,0.2l-0.1-0.2c0,0-0.4-0.1-0.4-0.2C703.1,233.5,704.9,232.7,704.5,234.3L704.5,234.3z"/>
	<path class="st0" d="M683.1,208.1c0.1,0.1,2.8,3.4,1.2,0.9C683.9,208.4,682.9,207.6,683.1,208.1z"/>
	<path class="st0" d="M461.3,476.3c2.6,1,0.6,0.1,3.6,1.4L461.3,476.3z"/>
	<path class="st0" d="M473.5,290.7l-1.3,5.9L473.5,290.7z"/>
	<path class="st0" d="M431.1,294.4l-3.5-2.6L431.1,294.4z"/>
	<path class="st0" d="M812.7,704.4l3.1,4.1L812.7,704.4z"/>
	<path class="st0" d="M230.5,610.6l-6.2,3.8L230.5,610.6z"/>
	<path class="st0" d="M545.8,505l-1.9,4L545.8,505z"/>
	<line class="st1" x1="426.8" y1="480.8" x2="426.8" y2="480.8"/>
</g>
</svg>
