<?xml version='1.0' encoding='utf-8'?>
<svg xmlns="http://www.w3.org/2000/svg" width="13in" height="18in" version="1.1" style="shape-rendering:geometricPrecision; text-rendering:geometricPrecision; image-rendering:optimizeQuality; fill-rule:evenodd; clip-rule:evenodd" viewBox="0 0 13000 18000"> <defs> <style type="text/css">  .fil0 {fill:black}  </style> </defs> <g id="Layer_x0020_1"> <metadata id="CorelCorpID_0Corel-Layer"/> <path class="fil0" d="M5995 12610c24,37 23,33 9,59l-9 -59zm-418 -158l5 -91c47,27 24,30 26,105 59,2 8,-6 29,28 -16,6 8,-22 -25,20l-36 -62zm414 -69c107,43 36,126 111,192 65,57 78,79 131,163l-285 1c-31,-42 -47,-82 -49,-152 36,45 27,61 59,113l131 7c-16,-53 -31,-128 -41,-174 -15,-71 -32,-90 -58,-150zm-141 102c2,-3 6,-13 7,-10l27 -57 10 90c-5,3 -10,8 -11,9 -1,1 -5,5 -6,6 -1,1 -6,5 -7,6 -1,1 -5,5 -8,7l4 112c-37,-74 -76,-326 -3,-384 30,35 35,48 12,91 -34,62 -33,39 -25,130zm-61 -254l-8 -78 40 2c-14,44 -19,18 -32,77zm1184 -339l55 -30c24,46 20,27 39,58 -90,39 -262,155 -296,65 40,0 95,-3 131,-18 0,0 104,-51 113,-56l-41 -19zm-149 -7c11,-16 20,-35 59,-49 95,-34 89,6 89,6l-148 43zm-27 -70c30,-31 91,-37 114,-28 -32,24 -15,5 -57,19 -29,10 -7,24 -57,9zm2 -76c29,-18 44,-17 71,6l-71 -6zm-1081 -85c39,-7 17,-16 27,15 -22,-6 -13,-1 -27,-15zm-159 -209c76,-4 151,-9 223,-15 82,-7 126,11 219,11 27,39 5,30 42,63l39 -34 21 58 47 6c-18,42 -16,15 -56,54 -29,28 -25,39 -51,67 -60,4 -207,20 -245,-7 64,-54 91,42 120,-56 -72,-26 -23,53 -153,2 -41,-16 -128,3 -199,-1l-8 -149zm1210 92c18,-54 97,-52 156,-89 66,-41 96,-67 183,-69l-254 135c-31,13 -46,37 -84,23zm1077 -282c39,-14 28,-23 89,30 22,19 11,-4 23,30 -158,-21 -97,-41 -112,-60zm43 -65c81,3 94,-6 98,62 -32,-16 -22,-14 -47,-26l-38 -18c-3,-2 -9,-15 -13,-17zm-138 -34c38,14 47,46 51,79 -34,-35 -21,-4 -48,-35 -19,-22 -16,-23 -3,-44zm-56 -98c47,60 1,37 0,39 -7,-12 -34,-11 0,-39zm2320 -116c35,23 31,18 14,54 -9,-5 -16,5 -23,-18 -16,-54 3,-29 9,-36zm-1898 0c92,-55 157,-18 271,0 109,17 164,63 240,109 112,68 98,51 165,168 32,57 81,212 55,267 -64,-30 -90,-153 -174,-229 -71,-64 -85,-78 -118,-38 -63,-7 -75,-22 -130,-38 -53,-15 -104,-12 -162,-14 -24,-20 -32,-29 -57,-44 -49,-30 -44,-5 -45,-54 79,-6 43,85 329,99 -66,-61 -131,-46 -220,-81 -78,-30 -136,-133 -154,-146zm-1881 -42c18,-17 -23,-6 22,-19 44,-13 25,3 29,5 -4,4 -11,16 -19,19 -56,18 -15,5 -33,-5zm1607 -74c35,34 9,21 4,26l-4 -26zm2094 28c2,-45 12,-46 36,-81 17,39 2,34 -36,81zm-1880 -106c5,-2 6,-38 56,0 -12,8 -5,34 -56,0zm468 -69c7,-3 -19,-37 77,12 35,18 50,14 55,47 -34,-2 -31,-12 -53,-24 -20,-11 -18,-8 -40,-16l-31 -13c-2,-1 -6,-4 -9,-6zm-162 -12c73,-2 37,-12 55,29 -88,-7 -38,-16 -55,-29zm-236 12c37,-25 126,-16 166,0 -32,23 -23,17 -81,14l-66 -5c-3,-1 -8,-3 -10,-4 -2,-1 -6,-3 -9,-5zm2805 -42c3,5 36,6 -2,56 -12,-28 -12,3 -9,-29 2,-29 -4,-11 11,-27zm-2887 25c8,-37 -9,-28 32,-31 -15,48 -8,16 -32,31zm-246 -144l29 -12 -29 12zm-1465 -40c3,4 27,-19 0,30 -1,-1 -28,4 0,-30zm2016 -49c25,-13 27,-6 36,0 -61,40 -28,4 -36,0zm-188 4c92,-9 116,-59 157,29 -80,-10 -68,13 -137,16l-20 -45zm-2171 -62c10,-10 30,-27 35,-40 9,-22 -4,-104 128,-86 90,12 119,86 103,179 -41,40 -51,17 -88,48 -21,18 -31,53 -57,78 -77,-22 -133,-74 -121,-179zm2667 34c97,-24 49,-4 122,17 16,-14 16,-43 88,-26 -4,31 0,20 -94,37 -78,15 -89,-2 -116,-27zm-155 -4c25,-38 33,-17 40,-14 -17,29 -1,32 -40,14zm-634 54l91 -111 27 30c34,42 -36,47 -42,48 -82,17 -14,11 -77,33zm1080 -77c47,5 47,1 50,46 -9,-7 -15,-12 -25,-21 -1,-1 -23,-24 -24,-26zm-633 -5c-4,2 -14,6 -16,6 -24,2 -6,1 -21,-6 32,-49 26,-12 37,0zm-3446 -21c115,-9 76,-47 168,-57 -7,66 -10,21 -121,119 -63,56 -250,183 -342,168 -113,-18 -116,34 -209,25l-2 -51c56,14 45,17 94,-3 63,-25 53,-10 121,-21 25,-4 72,-10 100,-23l63 -33c16,-12 7,-6 22,-20 -96,6 -193,53 -240,66 -33,9 -72,4 -107,6 18,-43 16,-33 73,-43l1 -63c100,-24 359,-126 421,-126l-41 56zm3206 -97c-2,45 6,33 -46,29l46 -29zm62 -45l-35 3c1,-4 16,-11 16,-12 25,-8 8,-1 19,8zm47 34c3,-37 81,-157 181,-107 -19,72 -87,99 -181,107zm359 -35c84,-27 26,-61 102,-80 -9,61 -29,43 -58,84 -31,44 -8,58 -60,87 16,-56 26,-10 16,-91zm-419 90c146,-8 157,-9 243,-85 34,-29 159,-79 178,-108 -14,59 -156,122 -209,160l-259 127c11,-55 16,-65 46,-94zm682 -260l-4 97c86,-19 36,-63 213,43 44,26 68,69 78,126 -117,-16 -163,-7 -274,17l-123 27c-62,11 -45,46 -114,55 11,-32 7,-18 29,-41l100 -138c150,-213 -18,-151 95,-185zm-386 43c16,-38 89,-65 94,-66 55,-7 6,-2 30,11 -10,45 0,37 -60,54 -40,11 -36,16 -64,1zm1129 -35c-14,-54 -15,-25 20,-55l-20 55zm-188 -191c83,54 92,211 64,309l19 14c4,4 16,-31 24,63 50,-6 28,-10 52,5 -27,92 -2,88 21,153 -117,-17 -96,-109 -181,-108 -53,122 205,178 260,194 135,39 294,20 443,17 -10,57 -89,74 -141,97 -99,44 -76,56 -203,20 -71,-20 -128,-37 -191,-58 -37,-12 -67,-9 -100,-24 -310,-141 -153,-189 -295,-329 -171,-168 -246,-132 -319,-192l60 -132c20,-21 112,-30 152,-42 60,-18 268,-10 335,11zm-729 66c25,-77 15,-29 61,-77 38,-39 5,-36 72,-53l-30 81c72,137 -17,114 -49,126 -44,16 5,4 -44,27 5,-94 40,-54 59,-123l-68 19zm-398 -184c64,10 122,36 167,43l186 18c-1,21 -39,85 -67,110 -40,35 -92,25 -158,36 52,31 35,0 44,40 -52,34 -32,0 -79,53 -30,34 -29,38 -88,52 11,-108 131,-114 103,-277l-183 25c-5,-64 29,-67 75,-99zm-3324 210c98,-103 -64,-128 224,-169 -7,37 -7,49 -32,75 -24,26 -21,11 -61,34 -46,27 -66,66 -132,59zm4166 -176c-23,9 -9,10 -31,-4l31 4zm227 -6c-45,-8 -17,5 -33,-37 40,18 25,-9 33,37zm125 -9c-144,-15 -110,-42 -114,-64 58,-28 317,24 420,26l75 38c2,-3 6,4 9,6l-122 157 55 -156c-61,25 -66,56 -95,103 -26,42 -17,22 -43,53 -40,49 -26,72 -39,39 -1,-2 -5,0 -8,1 -24,-23 -19,6 -28,-70 -11,-102 1,-119 -111,-131zm-2875 729c-92,-103 -53,-48 -177,-49 -11,-112 -37,-195 -120,-225 -156,-56 -178,-17 -258,52 -135,117 -101,191 12,304 42,42 49,66 125,68 -14,88 -3,24 14,47 46,-17 67,-64 101,-91 23,50 47,149 104,114 22,-20 42,14 -10,-69 -28,-44 -24,-39 -13,-93 89,-5 47,-15 109,-48 46,27 8,4 38,34 2,2 5,5 7,7l17 49c-39,49 -71,58 -96,113 -20,44 -81,123 -146,109 -91,-18 16,-112 -270,31 -114,57 -145,44 -214,74 66,48 126,-14 192,-32 69,-19 132,-58 204,-49 -1,52 -12,47 -35,81l39 24c-28,18 -24,9 -41,17 -40,20 -13,-2 -32,28 9,6 -4,51 93,-7 20,-12 18,-16 41,-20 55,-11 46,8 53,13l-70 32c-26,10 -39,20 -85,23l-166 -41c26,-16 -5,-9 36,-9l52 -5c-32,-135 -206,70 -411,-23l-166 -141c-65,-44 -148,-61 -232,-75 -81,-14 -191,-18 -280,-29 -88,-10 -227,-44 -299,5 26,17 -18,1 32,19 31,12 7,5 46,10 32,4 65,3 97,3 84,0 111,14 181,20 60,5 150,-3 203,11 51,14 247,90 281,132 47,58 29,79 65,143 35,64 217,109 306,114l175 183c36,28 46,21 53,78 -39,-16 -48,-32 -75,-42 -47,-17 -47,-1 -99,-26 -78,-37 -126,-16 -208,-3 -157,25 -332,26 -480,-2l-24 44c-133,-13 -161,-78 -284,-105l53 63c41,26 55,16 90,33 32,15 43,32 79,47 65,26 34,-7 71,52 141,0 46,-23 158,38 86,47 67,20 111,112 36,74 38,75 56,164 14,70 14,146 -10,206l70 21 8 102c-36,-38 -59,-149 -281,-161 -97,-5 -383,-21 -313,-140 20,-33 6,-1 21,-35 -89,-87 -89,-76 -209,-38 -34,-31 -16,-17 -39,-49 -47,-64 -76,-101 -106,-185 -27,-76 -21,-63 -75,-107 -33,-27 -48,-77 -76,-117 -74,-104 -142,-167 -254,-218 -16,-7 -38,-19 -63,-27l-109 -38c-41,-24 -15,-11 -30,-27 17,-25 -3,-23 47,-36 126,-34 435,-17 566,-16 140,1 253,73 371,126 85,38 23,50 110,69 -12,-91 -85,-107 -169,-138 -62,-23 -140,-74 -203,-87 -138,-27 -475,27 -573,3l-13 -60c27,-26 24,-45 71,-28l6 -101c162,-30 75,-86 218,-111 18,20 11,3 28,41 203,-14 430,-223 528,-314 119,-110 209,-215 279,-360 32,-67 32,-106 57,-168 66,-22 67,-21 122,-46 61,23 54,32 137,14 68,-15 87,-17 169,-19 223,-4 500,-31 722,-60 111,-15 237,-26 356,-21 28,96 -84,113 -159,426 -17,73 -36,154 -70,222 -25,49 -92,145 -140,166zm2675 -814c9,-76 4,-65 61,-91 3,67 26,78 -61,91zm-977 -21c39,-23 92,25 114,50 -41,-3 -87,-24 -114,-50zm804 -14c-1,-39 14,-9 17,-1 5,15 -16,14 -17,1zm638 -41c-24,30 -5,34 -36,10l36 -10zm-218 -42c24,-13 26,-10 63,-15 61,-8 26,-19 44,15 -47,23 -77,23 -107,0zm-388 28c21,-37 27,-42 84,-37 -14,37 -33,52 -84,37zm630 -56c-21,13 -5,26 -47,0 10,-8 9,-63 47,0zm125 -45c9,10 35,14 35,49 -32,-3 -41,-8 -35,-49zm150 -20l-29 9 29 -9zm-638 70c39,-6 30,7 19,-59l-97 -8 55 -33c37,11 58,22 96,29 124,22 59,5 80,28l-79 2c-16,19 -14,7 -28,44l-47 -3zm734 -111c5,-13 4,-19 34,-33 46,-21 30,-4 35,-1 -53,21 -25,4 -69,33zm-1229 387c-57,-19 -41,-18 -19,-79 51,-142 42,-61 120,-129l206 -183c41,-53 62,-90 118,-121 5,48 -23,68 -51,89 4,53 38,59 -114,137 -168,86 -81,97 -136,142 -26,21 -44,2 -97,84l-28 59zm-111 -607c52,16 56,78 149,131 10,71 -12,161 -35,210 -143,29 -264,-161 -238,-334l124 -7zm1494 138c31,-21 48,-35 97,-42 -30,19 -52,46 -97,42zm-1281 48c25,-51 62,-90 135,-111 -25,54 -56,93 -135,111zm1389 24c62,-25 28,-47 110,-76 79,-28 338,-160 393,-149 -20,46 -190,92 -244,116 -58,26 -206,108 -259,108zm-1426 -203c6,-20 35,-24 43,-27 -12,33 -14,42 -43,27zm1777 106c101,-43 232,-130 344,-153 -27,46 -269,152 -329,180 -63,29 -319,130 -354,124l340 -151zm-394 -71c56,-33 69,-66 158,-58 -42,32 -92,57 -158,58zm-2706 159c13,-32 29,-37 38,-82 6,-30 4,-80 4,-112l-55 -42c37,-23 65,-21 100,-27l78 54c-14,57 17,7 -69,77 89,-2 53,-66 157,-45 -6,29 13,22 -64,53 -43,17 -54,14 -89,45 117,-2 113,-53 234,-63 -10,69 1,55 -1,109l-51 18 63 21c-34,29 -106,30 -161,76 29,13 -40,25 41,9l101 -37c14,2 101,75 107,132 -93,-1 -194,-17 -295,-2 -97,14 -198,23 -265,-20 35,-184 131,-117 189,-123 2,3 4,7 5,9l36 50c28,-13 3,27 28,-39l76 -12 0 -69c-100,16 -86,35 -132,-6 -50,35 -9,22 -77,26zm-1321 -240c-3,14 28,10 -28,12l28 -12zm2615 11c10,-36 3,-25 33,-24l-33 24zm187 3c4,-30 16,-28 43,-34l-43 34zm-3374 -30l-53 -7c5,-3 8,-60 53,7zm5197 -10l-63 -20c0,0 44,-14 60,-16 14,23 10,24 48,40 -45,31 -31,4 -44,-3zm-426 -25c43,-39 107,-15 149,13 -48,2 -117,15 -149,-13zm-939 149c4,-93 68,-136 146,-180 -9,70 -106,159 -146,180zm-27 -196c24,12 43,21 65,32 -8,46 -23,69 -64,101 -23,18 -29,0 -44,41 -20,56 39,17 -40,79 -14,11 -18,13 -32,25 -26,22 -31,31 -78,28 47,-98 108,-14 142,-181 -41,17 -18,21 -61,4l113 -130zm1197 46c66,-55 78,-14 79,-14 -1,1 1,43 -79,14zm-1738 0c19,-19 -7,-37 51,-11 0,0 14,14 38,17 -34,23 -30,14 -57,3l-17 -7c-2,-1 -11,-2 -15,-3zm-3041 -69l13 -8c48,-12 -12,-10 14,14l-27 -7zm3183 327c57,-71 25,-34 41,-89 12,-42 39,-48 51,-88 26,-83 -21,-177 77,-185 2,74 -17,24 -30,102 59,-22 21,-24 73,-38 27,120 -125,250 -214,298zm677 -316c168,17 136,-45 270,-60 -19,62 -1,35 -66,59 -38,14 -37,17 -76,33 -76,31 -79,28 -169,41 -51,50 -7,50 -82,75 9,-58 10,-55 53,-89 31,-24 39,-37 71,-60zm-1042 -57c21,33 4,19 -6,26l6 -26zm869 5c37,-22 56,-10 99,-21 48,-12 28,-36 62,7 -46,36 -121,35 -161,14zm-1591 69c-18,-40 22,-11 -38,-85l16 -18c35,8 15,11 54,18 40,7 29,-9 63,16 -15,30 -35,43 -95,69zm654 -99c-59,86 -145,184 -159,334 -7,77 10,168 53,203l145 82c2,-3 6,5 8,8 -37,23 51,19 -48,16 -48,-2 -55,-43 -124,-42 27,89 60,3 78,102l70 -1c-48,42 -42,-6 -39,80 -16,1 -53,6 -70,3 -37,-6 -10,-2 -30,-19 3,-2 7,-5 10,-6 95,-41 32,37 61,-34l-5 -24c-56,-9 -172,8 -227,-7 -152,-41 -155,-126 -210,-30 -137,-57 -216,-404 -116,-527 11,-14 47,-50 61,-63 32,-29 35,-31 84,-31 86,126 42,60 24,160 -6,33 6,67 3,109 -54,28 -84,24 -99,94 80,-14 28,-36 111,-45 47,63 14,92 75,78l3 -28c-3,-14 -63,-69 -23,-228 79,25 87,135 183,83 -10,-45 7,-30 -53,-46 -38,-10 -38,-7 -64,-18 15,-61 58,-78 136,-96l26 -86 134 -20zm2724 82c78,-2 72,-68 115,-115l133 -98c92,36 114,118 194,167 35,-6 148,-45 162,-59 -16,45 -18,75 -51,102 -24,-45 10,-36 -47,-29 -44,40 -13,31 -26,101l-655 -47c-5,-85 25,-38 84,-79 25,-17 62,-47 86,-69 2,46 12,48 26,73 -23,32 -12,-4 -22,53zm-3479 -39c2,78 -11,50 16,111 -42,36 -48,18 -98,-7 -86,-42 -190,-120 -202,-203l265 3c14,34 19,45 20,96zm3911 -84c14,-24 43,-29 71,-14 -30,20 -41,25 -71,14zm-3169 -28c32,-35 60,-53 114,-28 -4,60 -16,61 -74,65l-40 -37zm195 14c22,-24 3,-13 38,-28 63,-28 86,-32 121,-14 -35,81 -124,46 -159,42zm2623 13c18,-39 36,-54 51,-64 -11,39 -22,43 -51,64zm-197 20c12,-11 25,-39 49,-55 47,-31 30,-9 62,-58l-51 69c-19,21 -34,35 -61,45zm504 -75c-27,-43 -4,-23 -47,-48l36 16c214,-1 227,-113 241,25 -105,-18 -131,-18 -230,7zm-326 -36c13,-41 13,-49 59,-27l-59 27zm-1869 -49c12,-54 -2,-29 39,-38 -18,32 -4,18 -39,38zm-117 -4c28,-19 17,-27 53,-42 -4,38 -18,40 -53,42zm2439 11c6,-58 1,-59 41,-87l23 41 -63 47zm-58 -7c-5,-9 -45,27 29,-80 1,107 -28,79 -29,80zm-1849 -52c62,8 39,31 109,11 135,-39 39,-31 77,-12 -27,41 13,14 -52,36 -53,18 -157,47 -211,45l76 -80zm2944 -27c41,37 13,-3 30,44 -57,-3 -72,-5 -70,-65 29,6 22,4 41,21zm-2048 40c-31,21 -141,55 -182,69 -84,27 -269,189 -304,229 -134,155 -62,110 -268,244 -70,46 -75,69 -158,107 -79,36 -123,48 -203,64 -81,16 -21,8 -114,5 -29,-1 -49,3 -70,3 -74,-2 -14,4 -46,-12 6,-8 -12,-36 76,-29 31,2 58,17 81,14 59,-7 2,-16 70,-29 103,-20 18,42 137,-41l-76 -58c-26,-18 -2,1 -23,-24l78 -16c32,1 35,5 61,10 153,33 110,2 124,-8 -26,-29 21,-9 -38,-26 -4,-1 -41,-4 -53,-6 -37,-7 -40,-17 -85,-26 66,-31 107,33 249,26 -33,-39 -139,-68 -208,-88 -56,-1 -138,76 -139,76l-70 -10c-40,29 -19,19 -67,41 -149,67 33,133 34,134 -59,-4 -133,-30 -150,-94l171 -110c81,-37 184,-46 254,-95 130,-92 40,-18 133,-70 61,-34 103,-72 181,-91 29,23 40,35 91,39 -18,-57 9,-26 -45,-57 96,-50 225,-113 296,-168 -142,-1 -319,165 -390,157 12,-47 42,-59 75,-91 70,-69 71,-52 80,-91 -79,7 -105,74 -160,122 -62,53 -89,94 -169,127 -44,-22 -49,-34 -101,-39 -61,-6 -61,6 -114,-21 34,-21 26,-15 76,-17 165,-7 231,-100 373,-178 147,-81 442,-56 528,-13 -62,58 -54,-19 -92,69 68,-6 97,-72 155,-28zm2964 -56c19,-41 -26,-12 116,-57 -18,49 -66,84 -116,57zm-272 -38c-15,-51 -5,2 16,-16l2 42c-41,-27 -8,10 -18,-26zm-532 24c38,-25 151,-61 210,-58 -36,56 -98,92 -158,79l-52 -21zm-2811 0c11,-43 53,-36 101,-50 -14,19 -72,61 -101,50zm-23 -48l-92 27 92 -27zm3052 134c36,-50 72,-67 108,-94 38,-29 51,-85 96,-62 -63,52 -126,43 -94,149l-111 8zm386 -64c6,-65 152,-151 254,-124 28,7 23,15 26,18 -27,39 65,-40 -35,28 -66,45 -60,64 -132,72 30,-70 26,-16 35,-65 1,-8 4,-9 6,-14 -127,14 -82,80 -154,85zm-1839 1c-17,-39 39,-95 50,-123l-50 123zm-148 -14c4,-59 35,-145 73,-195 41,-55 -9,-26 61,-31 -11,48 7,31 26,79 -20,98 -45,38 -46,190 -33,27 -112,55 -147,56 -62,2 -28,-5 -39,-13 96,-29 172,-15 176,-230 -90,112 -24,137 -103,145zm-1734 -3c33,-42 48,-135 174,-133 128,1 197,-54 242,-26 -30,23 -160,33 -222,74 -62,42 -36,19 -104,50 -70,31 -12,41 -89,36zm-331 8c-23,-108 38,-181 136,-214 -22,89 16,12 -48,60 -71,52 -46,79 -28,142l-59 12zm1913 47c8,-82 42,-148 65,-212 29,-82 29,-143 155,-107 -5,38 -54,128 -74,162 -16,27 -21,42 -33,75l-35 78 -78 4zm1231 -196c191,-17 169,-136 319,-162 9,67 -45,62 -74,113 -32,58 -3,76 -68,111 -72,39 -217,54 -303,50 -19,-43 -12,-23 -28,-40 -107,53 39,37 -227,50 77,-64 90,-55 171,-42 42,-22 68,-47 106,-74 -15,72 3,22 19,40 67,-7 52,-2 83,-46zm-1540 365c3,-72 78,-85 103,-141 15,-34 15,-168 26,-223 14,-71 18,-140 77,-170 66,-34 148,-32 193,40 -11,28 -22,24 -38,55 -15,30 -31,138 -85,242 -26,-33 -15,46 -21,-47 -3,-42 66,-137 77,-261 -73,35 -58,72 -69,145 -15,97 -42,82 -53,144 43,88 -11,-19 16,26 14,23 -3,-18 15,30 -3,3 -7,6 -9,8 -51,37 -62,27 -131,26 -28,82 -48,67 -101,128zm1582 -494c18,-44 43,-65 78,-93 -18,33 -44,69 -78,93zm234 -113c21,-15 31,-25 48,-35 106,-65 104,-20 104,-19l-198 104 46 -50zm-285 92c10,-43 51,-68 79,-105 27,-36 44,-67 99,-86 -30,98 -37,11 -178,191zm220 -184c63,27 74,-10 119,-32 152,-71 41,-34 114,-68 21,14 26,19 37,32 -61,29 -240,124 -301,134l31 -67zm335 -87l50 -4 38 63 -89 24c16,-31 -19,-13 24,-27 -11,-61 17,-20 -23,-55zm-7077 6233l88 0 7 -42c-29,-21 42,-37 -50,-14 -12,-41 -23,-65 -24,-111l48 -28c-25,-59 -45,-13 -79,-112 -49,-142 -179,-221 -205,-377 -1,-7 -9,-182 -8,-192 5,-75 51,-82 22,-157 -19,-51 -51,-56 -69,-122 -16,-59 -25,-117 -27,-184l28 29c47,69 67,162 142,200l-103 -212c-82,-124 -36,-105 -51,-251 305,-39 351,126 460,77l53 -31c-71,-109 -159,-47 -227,-197 -19,-43 -43,-53 -76,-77 -81,-57 -18,-90 -95,-182 -26,-32 -39,-40 -66,-72 -33,-39 -44,-40 -82,-67 -1,-66 9,-129 38,-181l18 -39c1,-3 4,-8 5,-10 1,-2 4,-6 6,-9 57,13 73,34 141,52 49,13 95,37 156,57 42,14 103,26 141,52 41,28 48,85 89,114 42,-93 -145,-183 -222,-200 -47,-11 -77,-28 -115,-38 -111,-29 -28,-25 -218,-90 -41,-14 -45,-26 -108,-45 -61,-19 -36,-32 -134,-27 17,46 43,42 92,57 42,13 70,22 115,36 16,97 -12,82 -33,149 -14,44 -28,110 -57,138 -6,-9 -36,15 10,-113 15,-42 39,-72 49,-124l-16 -14c-8,-6 -17,-12 -25,-16 -24,-13 -33,-15 -54,-20l39 48 -17 82c-32,-22 -52,-52 -68,-95 -33,-87 -21,-43 -105,-58l-54 -217c203,-58 629,11 832,117 79,41 261,135 297,188 52,77 34,104 61,189 32,103 -38,161 56,202 44,-126 -20,-208 -39,-312 145,8 215,21 247,-128 63,-6 58,1 79,-51 16,-40 27,-57 31,-94l-96 -60c-72,-57 -177,-81 -265,-110 -68,-22 -27,6 -44,-42 128,-35 233,76 337,125l102 39c3,2 7,5 9,6 24,16 86,-6 114,-10l47 67c88,-39 119,-83 143,-161 -47,-29 -63,-51 -129,-48 0,72 40,60 15,106l-125 -132c-73,-8 -171,-12 -234,12 52,68 183,13 242,56 -26,54 -168,11 -217,4 -52,-7 -160,-67 -180,-115 49,-27 155,-98 184,-106 75,-20 59,9 117,-38 61,-50 66,-6 85,-65l-89 -56c3,-2 -12,-23 46,-9 14,3 31,15 47,24 42,24 48,39 93,59 76,33 89,8 123,84 29,65 -1,27 47,41 46,-71 -27,-133 -104,-165 -137,-56 -88,-26 -179,-117 64,-45 24,-44 22,-47 -10,-4 -161,-29 -192,-8 34,19 18,4 49,13l47 29c-19,44 -63,47 -103,82 -171,151 -57,73 -241,146 -188,75 19,87 -354,76 -70,-2 -169,-8 -189,57 66,45 239,-67 312,-10l92 14c-16,54 -27,37 -90,33 -3,-4 -13,-19 -15,-21 -25,-25 -53,-21 -89,-20 -32,53 -16,-5 -33,59 45,105 198,75 296,64 -40,63 -36,37 -118,44 -74,6 -75,11 -153,3 -106,-11 -186,46 -276,-13 66,-29 45,19 120,0l101 -56c-28,-83 -167,-38 -247,-60 78,-140 81,-115 -70,-249 -65,-57 -100,-154 -176,-200 -27,-17 -58,-41 -76,-49 -46,-22 -172,-21 -190,-67l230 -33c28,5 154,144 384,-1 72,-46 187,17 135,-92 -17,-37 -18,-4 -21,-67 30,-26 254,-107 307,-114l114 -38c-99,-6 -212,45 -288,38 53,-57 130,-49 172,-138 112,-6 103,-31 178,-74 32,-18 64,-21 88,-34l274 -243c36,-46 24,-25 67,-58 6,55 -21,60 -34,120 73,-12 39,-32 104,-105 176,-195 362,-163 398,-247 -136,-10 -227,75 -332,132 -63,34 -42,58 -96,62l33 -97c-132,16 -137,136 -213,205 -20,19 -52,38 -79,61 -74,65 -219,217 -325,219 1,-101 63,-91 97,-171 32,-77 57,-53 95,-114 48,-76 -1,-61 -3,-64 -215,110 -88,131 -210,269 -69,78 -151,182 -242,231l213 -329c84,-115 33,-84 71,-207l104 -326c33,-79 69,-87 119,-160 134,-199 222,-11 402,-318l86 6 -2 -63c-78,5 -144,65 -195,112 -44,40 -145,84 -198,121 -119,84 -107,33 -252,56 -86,14 -217,7 -313,10 -196,7 -364,38 -563,53l-437 30c-39,1 -74,0 -101,16l-16 14c-2,2 -5,6 -7,9 -25,-11 -35,-14 -75,-10 4,48 33,38 43,90 -37,-10 -36,-3 -66,12 16,101 83,80 -92,298 -78,97 -72,95 -199,143 -19,-43 15,42 -3,-16 0,-2 -2,-6 -2,-8l-8 -19c-66,19 -187,93 -297,130 -54,19 -72,48 -120,-1 126,-52 152,-34 333,-123 19,-10 28,-13 44,-24l46 -49c-80,23 -88,43 -149,70 -52,23 -107,36 -160,58 15,-93 132,-32 383,-227 29,-22 3,2 28,-27 3,-3 10,-12 12,-15l12 -16c37,-44 106,-78 114,-143 -43,11 -10,-14 -42,34 -65,101 -253,251 -383,251 36,-123 191,-138 270,-225 39,-43 47,-43 86,-79 34,-32 42,-64 72,-95 75,-78 168,-187 286,-201 -5,61 -33,51 -7,105 98,-11 12,-7 71,-82 29,-37 61,-32 66,-95 -117,-19 -287,57 -358,136 -115,128 -114,99 -248,125 -51,10 -60,28 -104,17 -4,-71 -10,-90 3,-158 12,-64 34,-70 38,-142 73,-65 138,-70 247,-97 97,-24 220,24 319,22 31,-62 79,-92 175,-96l570 -21c111,-4 148,-28 264,-19 73,-36 126,-53 225,-70 50,-9 87,-20 126,-27 46,-9 100,-5 144,-14 154,-30 125,-18 270,-28 87,-6 185,-42 255,22 -21,58 -93,79 -156,100 -62,20 -39,20 -77,46 -22,15 -60,21 -88,35l-5 67c149,-59 210,-127 276,-120l-19 91 31 23c-3,3 -50,51 -51,52 -34,39 -118,152 -89,216l46 45c-7,200 -106,271 -102,380 60,-9 38,18 114,-145 29,-63 49,-126 69,-193l588 -22c-16,83 -81,127 -112,188 -49,7 -60,8 -104,22 -38,12 -77,29 -93,53 88,6 78,-27 169,-17l25 42c57,-8 109,-39 178,-35 -4,121 -202,306 -302,352 -98,45 -64,30 -98,125 -56,15 -70,13 -118,49 -63,47 -41,20 -118,49 -62,23 -195,43 -215,110l97 12c-16,51 -35,16 -14,106 -139,-1 -417,-106 -548,-21l335 14c44,4 111,13 152,30 47,19 99,32 153,39l18 -17c18,-15 1,-3 18,-14l161 48c-7,28 -12,52 -29,78 -49,-56 -12,-70 -107,-83 6,103 23,88 50,158 29,76 -26,77 -41,139l67 25 1 88c39,25 43,20 56,82 31,146 -97,193 -153,264l-78 2 10 64c86,17 115,-40 166,-80l125 -130c70,21 71,24 152,37 2,-151 -136,-26 -164,-146 129,-6 192,129 252,156 17,-48 5,-16 5,-63 0,-77 5,-13 13,-57 11,-55 -6,-35 -9,-66 -6,-55 -6,-11 15,-58 57,16 125,155 160,215 -17,62 -43,-4 -19,54 15,35 33,17 63,10 40,-80 -27,-138 -64,-190l-85 -138c-18,-24 -18,-2 -28,-42l-52 18c-3,2 -13,11 -17,13l-72 -32c13,-23 -2,-10 27,-36 -100,-11 -68,25 -197,-26 -8,-48 -13,-38 7,-75 37,11 3,-15 19,11l9 28c87,1 107,0 184,27 100,35 70,13 143,78 89,80 205,74 314,117 137,54 239,87 318,208 30,46 20,26 52,60 41,42 31,83 86,139l79 -20c-29,-62 -39,-25 -64,-66 -62,-99 108,-262 -255,-551 -62,-49 -124,-70 -204,-86 -43,-8 -40,-17 -84,-30 -120,-36 -253,-57 -361,0l-81 -24c48,-30 171,-13 209,-15 44,-3 -10,3 37,-13 36,-13 69,-10 110,-9 -32,-32 -44,-32 -97,-33 11,-28 128,-37 170,-36 9,26 14,26 28,42 81,-5 90,-25 155,-37 80,-15 84,22 137,37 46,-33 50,-26 69,-64 -49,-109 -123,-39 -160,-139 47,-34 147,-21 188,-56 -14,-35 -36,-23 -97,-13 -62,9 -175,46 -245,38 -137,-14 -75,36 -212,-9 -26,-9 -16,-6 -29,-16 55,-74 179,1 289,-16l-9 -41c-3,-4 -18,-11 -23,-17l171 -18c-22,37 -67,21 -105,63l346 -40c26,-40 12,-37 67,-60l61 105c40,110 98,248 209,305 -27,-79 -110,-134 -109,-231 39,31 141,184 175,240 26,43 30,50 72,80 78,57 155,182 266,168 50,-6 92,-13 146,-14 62,76 58,32 198,111 45,25 12,8 46,39 68,61 155,35 251,54l-23 63c36,42 110,90 176,102 -17,-35 -24,-44 -59,-66 -61,-38 -45,0 -55,-55 125,-17 163,32 253,29 -49,-48 -51,-39 -129,-57 42,-54 181,-40 307,-127 61,-42 131,-67 203,-101 51,-24 46,3 65,-41 -110,-30 -196,61 -263,105 -144,95 -495,142 -660,82 -34,-12 -93,-54 -118,-75l-108 -95c-112,5 -222,-8 -316,-52 -45,-21 -82,-57 -111,-84 -129,-120 -133,-100 -252,-317l-83 -110c-26,-31 -27,-61 -25,-95 0,-4 1,-14 1,-17l65 -25c39,46 109,111 153,163 49,60 156,83 247,93 20,45 0,35 64,51 35,9 75,10 109,18 120,28 113,16 230,21 -2,96 -86,149 -47,239 30,69 152,98 219,113 5,-87 -29,-130 1,-209 26,-69 57,-48 118,-91 30,14 92,52 121,43 -13,-41 20,-6 -38,-42 4,-1 9,-8 11,-4l42 -3c117,27 261,189 253,312 119,15 70,-120 29,-179 -51,-74 -70,-94 -152,-141 -218,-124 -318,16 -495,2 -11,-95 67,-59 130,-115 21,-19 35,-52 54,-72 36,-37 53,-12 37,-72 72,-18 134,-63 231,-64 100,-1 209,-10 306,9 80,40 108,217 93,328 -11,81 -24,35 -46,117 90,-17 144,-87 210,-138 65,-50 -86,-256 -202,-327 -115,-71 -340,-56 -473,-15 -250,77 -710,-52 -772,-235 266,-215 143,18 367,-387 220,15 593,18 797,67 184,44 599,82 731,140 -12,43 -6,19 -41,52 -56,51 -81,156 -112,221 -42,86 -54,75 -92,131 -35,53 -72,93 -76,156 119,-10 107,-115 155,-203l64 -73c-12,94 -27,29 -36,117 69,-9 47,-4 66,-75 11,-41 34,-61 -2,-77 32,-82 47,-139 105,-218 65,-5 109,23 347,-4 124,-14 214,-57 319,-71 243,-31 409,-82 648,-129 269,-53 976,-148 1229,-137 58,2 91,60 119,-6 -208,-15 -65,-10 -298,-75 -50,-14 -108,-56 -288,-101l-220 -24c3,2 7,2 9,7 9,26 443,86 496,160 -3,1 -7,1 -8,5l-1023 86c-142,12 -344,98 -473,79 -92,-14 -420,27 -507,53 -185,56 -331,-22 -515,-36 -83,-6 -130,-42 -223,-50 -442,-37 -865,-113 -1320,-110 11,-28 -8,-14 24,-29 10,-5 43,-8 57,-11 98,-20 57,-54 164,-10 136,56 481,32 610,3 185,-42 342,-104 518,-160 78,-25 42,4 57,-42 -69,-31 -240,77 -336,84 49,-44 357,-175 445,-224 46,-25 33,-10 47,-57 -93,-4 -289,139 -393,182 -40,17 -98,51 -139,29 63,-29 47,0 110,-43 150,-103 273,-83 283,-179 -63,-28 -87,17 -155,57 -102,59 -394,199 -514,217 39,-22 106,-44 153,-65l302 -155c50,-29 120,-51 145,-95 -11,-10 0,-12 -27,-20 -33,-10 10,-3 -34,-1 34,-27 -45,-20 46,-23 51,-2 72,29 150,27 103,-2 646,76 684,57 22,-25 33,-44 68,-65 146,-86 80,-183 179,-270 4,7 33,5 7,66 -34,79 -77,72 -85,210 65,-32 71,-127 138,-170 227,-148 177,-60 326,-105l407 -36c110,90 127,0 135,156 81,-33 77,9 163,44 33,14 62,15 100,25 133,38 281,141 411,152 107,9 32,2 60,-27 -122,-27 -82,-33 -158,-56 -81,-25 -163,-71 -244,-113 -123,-62 -134,-6 -283,-132 -21,-17 -70,-39 -81,-66 113,-23 183,18 301,10 322,-19 152,-146 522,106 41,28 73,38 118,63 74,40 25,53 141,46l-54 -56c48,-21 156,11 157,-57 0,-12 -5,-28 -5,-29 1,-29 9,-20 14,-74 -102,23 -35,114 -172,100 -28,-59 22,-41 -14,-110 -49,12 -56,15 -65,74 -94,-81 -83,54 -101,-158l62 -34c30,-16 22,-23 56,-7 -39,34 -24,11 -50,55l127 -32c-37,47 -64,22 -88,90 56,-8 232,-13 270,38 21,53 26,72 52,111 76,8 192,-25 220,39 -94,17 -103,-27 -195,2 -1,55 14,136 -54,151 -87,20 -43,-19 -99,19 75,-1 73,-4 134,18 -7,1 -25,4 -30,6 -35,16 -14,3 -28,24 47,5 136,6 166,-9 -7,-69 25,-12 -41,-56 97,-224 380,-81 405,-35 8,67 -15,76 -39,125 91,2 110,-6 147,-62 -30,-57 -1,-7 -36,-38 -48,-42 -57,-91 -125,-124 -77,-38 -143,-62 -219,-100 -158,-79 -57,-19 -195,-122 -127,-95 -246,-184 -401,-238 -115,-40 -165,-26 -277,-44 -250,-40 -267,67 -539,87 0,-85 138,-316 139,-317 113,-25 123,31 194,-46 151,-165 119,-172 332,-278 36,-18 54,-24 72,-55 -15,-36 -30,-60 -71,-75 -62,68 -92,106 -202,111l-28 54c-4,-2 -8,-9 -10,-6l-37 -8c-21,-1 -46,5 -64,9 -54,13 -69,25 -96,67 67,0 64,-21 145,-27l-41 80c-75,-26 22,-14 -56,-27 -53,-9 -105,29 -154,29 -83,1 -37,-43 -158,8 -32,14 -52,28 -63,49 -109,0 -50,-5 -124,27 12,-32 14,-29 29,-57 -58,17 -194,130 -240,181 -37,41 -30,60 -54,98 -17,-41 25,-113 57,-152l197 -163c48,-36 16,-33 54,-70l179 -80c17,20 12,7 28,41 67,-59 30,7 75,-81 51,-11 69,-31 84,29l162 -92c50,-25 122,-40 175,-61 24,-9 55,-27 79,-33 41,-10 71,-2 110,-14 159,-47 66,-14 210,-30 -3,-3 -6,-12 -8,-9l-37 -22c-147,-52 -281,23 -314,33 -43,13 -69,1 -131,23 -37,13 -87,16 -115,38 -28,21 4,12 -35,36l-283 108c-34,14 -63,36 -94,41 -147,27 -109,15 -179,127 -20,33 -192,148 -246,213 -21,25 -49,58 -45,102 2,24 12,29 16,50 26,124 -146,2 -332,270l32 6c4,-1 28,-10 39,-14l-52 91c36,18 28,11 72,5 55,-7 385,-137 484,-86 48,25 38,33 40,73 -32,1 -103,-1 -151,4 -79,8 -59,36 -151,26 -164,-18 -162,36 -293,52 -29,-23 -34,-29 -75,-42l30 -79c-76,13 -72,38 -108,120 -30,68 -20,84 -78,135 8,-77 25,-71 46,-138 -78,-92 -49,-77 -94,-192 -20,-51 -78,-166 -102,-190 -4,-4 -153,-120 -156,-121 -38,-16 -84,-9 -125,-16 -131,-23 -230,-75 -302,57 -31,58 -59,156 -63,227 -9,137 -23,114 -70,209 -38,77 -102,110 -97,194l65 20c-52,17 -518,9 -611,7 28,-45 28,-41 80,-61 77,-28 48,-21 77,-77 40,-3 167,-10 195,-1 69,22 86,51 177,14 74,-320 -397,-314 -644,-326l-17 -103c65,-49 36,5 56,-63 -172,3 -314,63 -476,109l-28 -41c-41,46 -36,70 -49,98 -71,16 -124,52 -188,61 11,-34 92,-160 119,-185 36,-33 49,-35 89,-63 59,-41 8,-51 103,-58 -10,57 -23,66 -28,111l130 -70c-9,-33 -5,-12 -8,-53 140,-109 123,-130 332,-154 98,-11 201,-38 290,-80 44,-21 31,-24 65,-61 142,-150 191,-74 332,-153 125,-71 188,-16 298,-76 38,-21 55,-23 65,-56 -48,-29 -67,8 -106,30 -54,4 -153,-6 -195,11 -73,30 -55,37 -159,65 -57,15 -105,16 -160,45 -62,33 -174,180 -429,220 -71,11 -132,22 -183,43 -55,23 -83,58 -147,72 23,-50 44,-58 50,-109 -44,16 -75,67 -132,90 33,-58 59,-118 109,-158 90,-72 176,-14 212,-109 12,-32 -7,-8 15,-38 26,-36 39,3 31,-78 -3,-1 -8,-6 -9,-3l-49 -3 -1 74c-434,64 -256,269 -439,402 -34,25 -136,93 -139,136 -71,2 -39,-9 -84,-7 -29,1 -27,12 -70,19 10,-375 34,-169 43,-300 3,-44 4,-83 2,-126 -109,0 -80,103 -96,183 -9,47 -27,98 -33,137 -19,126 57,142 -40,263 -54,67 -83,136 -137,195 -34,37 -55,36 -86,80 -26,37 -5,18 -37,47 -12,10 -31,25 -45,31 -47,-53 -42,-69 -132,-111 -156,-72 -153,2 -260,-30 -51,-15 -69,-5 -121,-2 -150,11 -70,-50 -194,33 -73,4 -134,14 -139,-51 -88,-6 -35,-10 -95,23 10,-57 25,-12 11,-85l-111 -9c-11,46 -26,62 -75,76 -43,12 -130,15 -175,11 -64,-86 -58,-220 -116,-316 -39,-65 -36,-35 -85,-67 -70,-47 -41,-152 -95,-198 -214,-184 -116,-86 -268,-173 -310,-178 -137,-66 -309,-139 -78,-33 -76,-85 -174,-114 -100,-29 -200,-17 -258,33l0 67c57,29 84,17 138,-11l48 22c0,-32 0,-16 -11,-29 -18,-23 -14,-5 -30,-40 149,18 96,6 195,70 194,125 322,61 576,298 42,39 88,180 135,240 101,130 66,214 86,287 16,59 40,13 48,105 -45,20 -190,44 -241,19 -73,-36 -240,-224 -230,-342 4,-43 50,-99 21,-150 -29,19 -34,55 -56,79l-25 -247 100 9c-67,-144 -271,-98 -361,-198 -37,-41 -50,-70 -131,-65 55,84 211,140 302,214 96,77 16,244 110,417 31,56 97,181 114,236 -199,12 -411,21 -610,24 -95,1 -221,-10 -313,7 -284,52 -605,25 -894,65 -124,17 -152,-17 -269,20 -85,27 -191,24 -252,75l24 12c14,2 26,3 40,2 115,-7 238,-14 355,6 39,7 89,6 112,35 -47,17 -133,6 -190,15 -76,11 -101,34 -156,48 -89,23 -124,-9 -205,6 -78,14 -80,55 -153,67 -89,-88 15,-131 90,-171l-2 -93c-88,17 -121,5 -156,103 -33,93 23,-4 -51,66 -3,3 -7,7 -10,11 28,19 27,57 34,102 231,138 65,235 36,389l37 42c-9,218 -47,295 -147,428 -26,35 -113,77 -157,120 -61,59 -82,97 -138,154 -51,52 -97,70 -149,129 -73,83 -153,123 -234,196l-176 115c-46,21 -66,22 -88,66 11,5 0,24 59,3 172,-62 66,-33 214,1 -6,-58 -19,-32 -52,-60 21,-34 21,-30 42,-53l68 30 0 -75c5,-1 11,-6 13,-2 2,4 20,-4 24,-4 36,0 22,13 50,15 2,0 6,0 8,-1 0,0 36,-10 47,-11 -9,89 -38,83 -116,111l4 70c-50,8 -81,2 -122,20 -74,31 -37,24 -115,13 -77,-11 -232,-28 -280,26 40,32 115,7 169,7 117,0 185,37 295,75 41,14 107,27 138,42 289,135 250,236 300,337 19,38 22,16 35,45 -48,4 -91,-58 -148,-98 -49,-34 -50,-9 -80,-57 -25,-40 -3,-46 -92,-66 9,76 47,97 102,137 34,25 98,64 138,84 74,38 61,59 115,108 48,43 79,53 119,104l176 267c102,176 -3,239 -36,357 101,-38 130,-131 124,-244 -6,-118 -78,-160 -109,-245 46,100 165,148 257,190 50,23 78,3 119,41 -6,36 -6,8 -13,62 -38,-11 -37,-10 -50,-6 11,94 98,95 46,171 -18,27 -19,24 -33,52 -18,37 -24,76 -37,114 -52,152 -90,368 -14,518 88,172 -10,150 19,251 105,-135 41,-279 -2,-460 -30,-130 34,-415 117,-483 69,45 35,183 30,249 93,-43 15,-254 20,-308l107 -31c23,-70 -6,-58 47,-95 18,37 2,20 -25,63l52 143c36,70 38,75 13,158 -14,47 -23,132 -39,167 -127,274 -39,120 -96,320 -19,65 -51,53 -75,136 -56,195 -161,145 -184,226 61,4 46,-12 82,-39 26,-19 53,-26 76,-47 44,-41 39,-116 83,-181 36,-52 122,-307 141,-373 205,5 150,148 241,87 -11,-32 -46,-61 -78,-91 -34,-32 -71,-32 -138,-43 -10,-40 -3,-37 11,-73l20 53c36,3 -6,8 30,1 3,-1 9,-1 12,-2 3,-1 8,-3 10,-4 29,-8 34,-63 35,-92l11 -110c38,48 -4,116 28,169 25,-40 24,-140 56,-181 41,65 -10,321 111,455 -59,412 70,435 100,541 0,83 -34,173 -31,292 3,108 58,159 110,222 139,169 120,252 180,485z"/> <path class="fil0" d="M-4406 13146c77,-73 89,-1 90,0 -6,5 16,21 -45,20 -88,-2 -20,-1 -45,-20zm-441 -660c16,-75 36,-91 102,-112 488,-156 293,-81 705,-337 38,-24 90,-64 161,-39 134,47 115,77 119,105 82,-7 186,20 275,45 140,39 119,49 203,115 177,141 -8,200 86,372 27,50 41,54 38,119 -54,39 -127,22 -311,144 -154,102 -246,89 -294,164l-145 23c8,-91 31,-151 -21,-185 -45,67 6,94 -56,215 -13,-18 -23,37 -11,-36 9,-53 7,8 21,-50l-1 -267c-13,-51 -37,-57 -82,-64 10,80 88,215 0,429 -85,9 -431,-95 -479,-134l141 6c-26,-63 -18,-26 -18,-104 -62,8 -27,12 -70,-9l-36 46 -28 -53c-15,28 -33,58 -40,78l-5 -95 -53 29c-3,2 -6,6 -10,8 -8,-63 1,-30 -23,-44 -28,27 -38,32 -37,93l65 -30 -2 55 -130 -3c-55,-49 -95,-149 -94,-255 2,-181 36,-127 128,-217 125,41 211,94 303,138l142 79c41,19 144,-1 186,-27 -23,-25 -12,-28 -89,-43l-38 45c-84,-9 -458,-261 -504,-255l-97 52zm1845 20l-65 28c-40,-78 -35,-97 -32,-183l123 -6c30,-40 -5,-17 41,-26 22,44 63,148 -14,152 -14,-172 13,-66 -22,-108 -52,43 -27,46 -30,143zm156 -75c-14,-189 -13,-92 28,-158 19,-31 8,-37 24,-70 11,65 0,70 -5,126 -6,72 21,95 -47,102zm-365 -193c34,-4 35,0 53,12 26,18 30,21 34,61 -54,-11 -64,-44 -87,-73zm80 -37c42,-33 67,-47 113,-24 -35,20 -93,39 -113,24zm258 -104c36,30 40,30 52,75 -99,-40 -30,-38 -162,-39 34,-33 47,-38 111,-36zm118 0l52 2c28,82 56,179 39,268l-38 35c-17,-59 -8,-113 -10,-174 -2,-65 -27,-80 -42,-131zm771 -141c29,34 27,107 -14,139l-20 -75c-1,-57 -10,-47 34,-63zm-562 203l-15 194c-40,-31 -17,-18 -37,-95 -18,-69 31,-226 -204,-198 74,-36 146,-72 216,47 2,3 3,7 4,10l10 19c17,24 8,9 25,22zm643 -266c11,12 22,-15 27,57 3,44 -14,61 -25,76l-18 -62c1,-25 10,-54 16,-72zm-711 81c85,16 35,76 158,130 0,59 11,151 -14,194 -15,-28 -15,-45 -22,-85l-27 -98c-35,-119 -37,-53 -95,-141zm839 -75c30,34 29,40 0,79 -5,-9 -13,18 -11,-40 1,-36 4,-23 11,-38zm-389 8l27 58c15,25 29,23 35,58 8,49 7,119 -17,143 -19,-36 -7,-81 -25,-136 -21,-61 -51,-67 -19,-124zm-355 50c44,-1 65,21 87,52 64,91 -3,31 85,66 4,60 7,154 -6,186 -51,1 -18,-6 -15,-61 3,-52 -16,-78 -38,-105l-39 -46c-56,-68 -14,-41 -74,-93zm117 -74c126,-20 114,81 191,151 -3,39 -13,69 -15,111 -3,65 11,60 -39,86l-7 -261c-25,-22 -26,-31 -57,-51 -24,-15 -48,-20 -73,-37zm1506 -62l41 -13 -41 13zm-1192 -70c74,11 32,-12 68,40 28,40 28,28 37,84 -52,-21 -28,-14 -60,-47 -55,-56 -26,10 -46,-76zm-81 43c41,-4 15,-9 29,16 -16,-11 -23,-14 -29,-16zm3136 -3c3,-26 30,-64 49,-101 68,32 20,106 -49,101zm-2623 -57c46,1 18,-6 26,14l-26 -14zm1946 -20l84 -5c-12,11 -9,14 -38,15 -81,3 -21,6 -46,-11zm-176 -52c-11,39 1,24 14,40l80 0c-4,11 2,52 -91,33 -18,-4 -33,-12 -37,-25 -12,-50 33,-48 34,-48zm463 15l-1 58c6,2 11,1 13,6l60 29 -42 22c-2,1 -7,4 -10,6 52,6 64,16 93,61 107,-6 109,-44 168,-55 -17,68 -134,85 -214,48 -110,-50 -128,-74 -125,-221 29,-97 185,-119 285,-120l2 132 -228 35zm-2216 -66l8 23 -8 -23zm2088 19c-16,12 -1,30 -64,5 31,-31 -38,-27 34,-25 44,2 14,3 29,19zm-291 -22c111,0 -11,-9 99,68l-55 4 -44 -72zm706 -47c28,39 26,57 0,99 -2,-3 -6,-11 -7,-9l-15 -43c-7,-60 0,-38 22,-47zm-861 79c-6,-8 -29,1 -2,-65 66,9 19,-1 41,28 -3,4 -7,13 -11,17 -17,17 -12,12 -28,20zm-1444 -106c133,-18 1144,-6 1208,41 -17,58 -30,39 -40,44 -99,44 47,-35 -28,12l54 42 23 -47c8,5 12,5 13,12l34 68c35,-15 28,17 40,-48 8,-41 -8,-36 15,-79 65,23 22,-3 15,53 -7,65 -5,47 26,68 21,-22 10,10 18,-28 10,-44 -14,-49 19,-89l8 104c6,4 30,-4 65,14 -33,43 -25,17 -160,31 -73,8 -103,-3 -172,-5 -119,-4 -255,29 -375,31 -67,1 -122,-12 -193,-6 -73,6 -113,25 -196,24 -148,-2 -240,25 -378,19 -3,-44 2,-90 9,-135 12,-82 -9,-63 -5,-126zm-634 61c5,-20 -5,-19 15,-28 50,-22 45,8 46,8l-62 20zm2438 -60c62,-6 82,-15 131,12 -21,31 -16,35 -72,26 -49,-8 -51,-31 -59,-38zm-2540 12l77 36c-41,139 -254,48 -328,101 -130,93 142,24 -235,210 -50,25 -105,39 -159,62 -84,36 -414,209 -466,208 -76,-23 -135,-52 -223,-74 -72,-18 -181,-32 -212,-85l88 -41c122,-40 148,-26 305,-112l766 -345c54,-35 126,-56 193,-85 38,-16 67,-20 101,-36 31,-15 55,-32 92,-43 90,94 38,104 1,204zm1707 -292c11,13 20,-22 16,28 -3,36 2,6 -15,25 -17,-20 -32,2 -1,-52zm-1677 -11c1,-48 6,-80 53,-96 19,35 -3,81 -53,96zm1473 -10c-38,-22 -24,-80 -3,-110l3 110zm-416 -104c53,-32 27,-6 36,1l-36 -1zm-1160 42c8,-55 8,-62 46,-102l69 46c-2,17 -14,48 -25,71 -35,72 2,27 -44,55 -19,-35 -6,-18 -5,-66 -56,25 -32,1 -41,-4zm1491 -119c17,20 29,-3 1,46l-1 -46zm-43 51c31,37 33,5 40,68l-78 -8 -17 -128c78,48 3,8 54,69zm-1558 31c3,-69 11,-78 41,-124l75 38 -66 120c-9,-63 1,-39 9,-95l-40 46c-2,2 -8,10 -9,7 -2,-3 -7,5 -10,8zm1120 -74c43,-29 32,-46 71,-49 -9,15 -15,24 -31,40 -25,25 31,43 -41,9zm-1213 28c-6,-27 16,-76 31,-105 17,-34 10,-18 25,-35 25,9 40,6 50,38 25,78 -61,77 -62,77l-44 25zm1351 -83l-31 -55c87,-12 49,7 84,54 36,49 33,5 47,91 -35,-17 -18,0 -42,-28 -11,-13 -11,-26 -15,-38l-16 21c-23,35 -58,97 -104,46l50 -7c7,-34 15,-61 27,-83zm48 -69c2,-1 -16,-31 42,-5 22,10 9,8 16,21 78,139 127,87 99,164 -72,-12 -39,-38 -69,-96 -31,-59 -18,-11 -88,-84zm122 21c-20,-17 -26,-18 -48,-35l13 -35c34,21 73,64 82,101 -35,-14 -25,-13 -47,-32zm-1545 60c8,-50 19,-85 52,-119 24,42 12,33 -13,68 -15,21 -23,30 -39,52zm3784 -108c15,-8 -17,-39 30,0l-30 0zm-2937 -34c5,-40 -15,-23 37,-27l-37 27zm-892 21c-24,-36 -22,-46 0,-83 18,8 35,-18 30,38 -2,19 -24,39 -30,45zm593 -67c7,-65 14,-62 77,-61 -21,34 -4,16 -35,38 -32,23 8,-1 -42,23zm-642 -59c-6,32 6,11 -20,40 -2,-2 -6,-5 -7,-6 -46,-45 -30,-35 -36,-71l63 37zm591 -41c60,-3 35,-10 73,13 -15,11 -4,7 -31,17 -60,21 -42,-30 -42,-30zm-751 -56c11,-5 -30,-40 44,0 37,20 12,9 29,28 -21,61 -8,12 -28,47 -13,24 -9,22 -17,45 -32,-11 -36,-11 -36,-57 52,29 43,13 54,-35l-47 -28zm-75 -77c-28,-14 -27,-61 -56,2l-13 -41 -90 -80c-27,-33 -63,-44 -53,-104 44,10 51,38 115,112 11,12 16,22 25,32l36 30c2,2 5,5 7,7 34,32 22,9 27,41zm-83 -194c68,-1 321,144 457,198l288 155c80,90 17,22 132,91 61,37 261,113 325,128 63,-48 205,-138 278,-141 139,-6 128,-35 271,-15 173,24 49,20 1,99 -41,68 -80,50 -120,89 -63,61 13,69 -124,92l-12 54c-59,-14 -26,-23 -70,7 34,44 70,37 90,79 -104,6 -73,-72 -148,-38 25,41 172,148 197,28 -4,-32 -9,-34 -10,-69 42,-24 95,-48 144,-26 9,4 38,32 42,44 4,12 7,62 11,85l74 34c3,-7 7,-18 7,-15l5 -20c-2,-22 -6,-10 -11,-9 41,-18 40,-2 76,-30 64,-50 -10,-56 120,-47l-19 70c36,-7 59,-24 88,-13 79,29 -112,111 -135,119 36,-68 1,-30 -4,-47 -2,-9 1,-33 0,-47 -71,30 -99,35 -123,84 64,41 22,-20 58,42 -35,56 -21,-1 -44,56 65,29 94,-9 147,-30 34,-14 53,-9 82,-18 43,-14 28,-21 61,-47 121,-21 408,32 512,71 78,29 131,52 223,70 44,9 87,11 132,19 81,15 57,21 99,37 -66,9 -520,-39 -688,-36 -182,3 -380,-21 -528,-22 -87,-1 -94,-21 -153,-49 -84,3 -75,17 -170,8 -60,-5 -109,33 -163,34 -58,1 -184,-106 -273,-127 -6,-14 -13,-34 -19,-64 -59,-11 -37,-19 -93,-31l-18 -56c-68,12 -57,15 -107,-4 -36,-85 25,-56 -67,-137 -35,-31 -17,-23 -43,-53 -40,-45 -24,-14 -81,-33 -41,-14 -256,-219 -286,-240 -29,-20 -41,-24 -69,-43 -58,-39 -305,-237 -340,-284zm909 327c-123,8 -66,-30 -156,-54l-126 -68c-90,-45 -444,-160 -522,-254 12,-8 -19,-34 55,-2l336 166c76,39 325,160 411,173l2 40zm-1309 -362c-2,-71 -13,-216 16,-251 27,-33 186,-72 224,-56 42,34 85,100 71,183l-29 -2c-27,-1 -11,-3 -43,2 -12,98 -28,76 -39,128 -9,44 18,79 20,141 -143,-32 -171,-58 -220,-144zm94 -409c-57,-47 -122,-96 -166,-21 19,11 89,29 115,56 -11,36 -54,76 -94,95l-21 -46c-16,-26 -7,-14 -35,-28 -23,23 -41,57 -25,99 15,40 25,26 36,89 19,104 -6,117 2,211 42,24 107,54 133,88 39,53 141,112 199,34 23,43 60,66 93,104 79,92 80,110 177,199 35,32 44,64 77,104 62,77 305,348 314,426 -69,40 -179,75 -258,107 -200,82 -977,457 -1137,470 -63,5 -71,-23 -146,-5l-472 238c-139,87 -421,124 -482,228 -96,165 -89,477 -18,568 106,138 343,144 502,205 139,52 135,62 312,53 236,-13 101,-9 271,-79 54,-22 220,-82 256,-106 55,-38 33,-54 100,-80 39,-15 86,-28 124,-42 127,-46 365,-154 446,-263 100,-134 337,-147 464,-244 54,-41 167,-78 240,-121 373,-215 258,-109 500,-208 52,-21 74,-27 115,-67 38,-37 49,-40 109,-55 62,-16 245,-61 306,-60 146,3 921,-72 960,-67 59,8 110,0 165,-12 120,-26 56,-7 153,1 64,6 114,-16 167,-17 333,-9 89,78 362,153 99,27 199,5 248,-54 89,-4 119,-9 179,-46 39,-24 33,-14 49,-63 36,-107 38,-77 -5,-184 -108,-32 -93,-61 -151,-41 -24,-53 3,-15 -40,-47l-38 -37c-263,-20 -349,24 -607,-69 -100,-36 -182,-29 -279,-68 -59,-23 -95,-16 -155,-26 -85,-15 -95,-9 -122,-46 20,-35 -19,-11 49,-35l162 -78c117,34 150,-42 247,-83 176,-74 339,-112 520,-175 90,-31 157,-85 261,-82 77,84 42,60 167,105l0 87 67 -24c113,87 84,12 160,31 23,6 55,21 97,29 120,25 304,-24 593,43 88,20 55,42 108,-6 -18,-4 -38,-12 -55,-17l-153 -44c55,-15 159,19 239,22 128,153 103,37 238,101 134,64 128,59 260,46 -42,31 -66,26 -119,37l-126 37c204,7 160,20 323,-59 156,-76 156,21 327,-8 22,-37 44,-61 52,-105 -44,-23 -69,-41 -141,-34l-11 70 -73 -4c16,-61 51,-56 86,-102 -33,4 -34,8 -58,19l-50 19c25,-87 80,-79 107,-205 22,-107 84,-179 62,-222 -22,58 -84,120 -121,166 36,34 10,-3 40,42 -44,98 -45,93 -117,164 -48,47 -63,125 -122,150 -35,4 -32,-20 -88,-12 -111,16 -168,-35 -283,-84 -371,-156 -562,-42 -857,-144 -55,-19 -30,-27 -75,-48 -82,-38 -216,-29 -243,-128 70,-27 145,-36 216,-59 68,-23 107,-59 191,-76 71,-15 131,-31 201,-60 109,-45 111,-30 205,-58 133,-38 280,-90 416,-126 137,-36 362,-55 345,-184 -88,-43 -134,17 -208,28 -130,21 -49,-12 -216,34 -66,18 -135,34 -209,53 -76,20 -117,42 -184,68 -2,52 6,30 -17,63 -49,2 -43,3 -50,-19l-8 -89c21,-118 126,-39 147,-169l-152 48c-50,126 -9,98 -20,216l-47 22c-20,6 -34,9 -54,14 -112,26 -396,96 -476,152 -68,48 -1104,363 -1326,454 -55,22 -120,39 -182,67 -58,26 -117,76 -191,53l-149 -59c-55,-27 -108,-95 -151,-155 -47,-66 -82,-55 -152,-99 -96,-60 -22,-70 -173,-77 23,-73 141,-72 199,-111 21,-14 10,-8 23,-26 -113,8 -165,60 -264,89 -90,27 -220,15 -297,36 -159,42 -105,41 -268,-8l-485 -193c-173,-77 -398,-197 -578,-253 -70,-22 -83,-3 -152,-16 -12,-105 14,-102 -39,-184 -168,-256 -124,-35 -290,-170z"/> <path class="fil0" d="M-425 9745l41 -5c-40,28 -29,12 -41,5zm-179 -241c6,13 6,11 13,24 -24,-9 -11,13 -13,-24zm-833 -189c41,-35 88,-23 111,14 -35,30 -13,18 -54,6 -1,0 -55,-19 -57,-20zm-465 27c-46,-7 -88,-3 -134,-7 -24,-28 -44,-61 -39,-109 26,5 206,117 436,100 3,2 6,5 8,7l34 30c72,-17 16,-21 90,-32l-21 66c-155,18 -319,-45 -375,-54zm655 -94c12,-52 19,-71 81,-72l14 78c-44,-25 -6,12 -42,-37 -24,14 -23,16 -53,31zm153 -110c-62,-13 -47,3 -57,-44 53,-28 47,-4 57,44zm122 -253c14,19 30,8 0,50 -36,-38 0,-49 0,-50zm-46 -117c11,31 26,3 25,56 -25,-17 -28,-18 -25,-56zm-542 -515c73,-2 94,15 132,17 58,4 38,-32 117,-4 35,110 -12,66 104,284 28,53 53,67 77,116 60,122 79,209 103,248l135 306c30,63 8,113 45,163 57,68 -3,-50 140,138 18,24 42,64 59,80 43,40 159,104 231,215 104,161 177,106 113,267 -139,-85 -93,-57 -154,-131 -90,-109 -50,-19 -223,-263 -40,-57 -37,-45 -91,-90 -38,-32 -62,-62 -91,-103 -50,-72 -126,-130 -134,-252 -12,-187 -20,-151 -87,-290 -16,-33 -25,-34 -38,-59 -12,-24 -9,-42 -22,-74 -33,-83 -203,-255 -315,-463 -33,-62 -27,-43 -68,-72 -28,-21 -12,-6 -35,-33zm-1079 -451c80,17 142,96 270,64 275,-68 241,-38 542,126 289,157 128,254 304,376 80,55 50,121 115,203 91,115 139,106 196,262 33,91 5,39 55,107 -1,174 -89,180 -148,291l-166 25 -24 -45c-118,4 -192,81 -319,14 -57,-30 -79,-25 -141,-40 -98,-23 -53,-17 -155,-17l-58 -86c-67,4 -62,28 -107,51 -19,10 -121,34 -142,38 -74,13 -219,37 -250,100 16,29 123,101 126,101 62,-3 49,-6 92,-36 41,-29 57,-18 75,-63 -86,-7 -114,40 -161,12 52,-34 200,-49 250,-48 -37,94 139,125 230,146 131,30 164,-30 303,44 122,64 -34,234 -32,288l32 56c-18,39 -67,159 -52,190 76,-48 2,-61 128,-141 3,-96 6,-112 44,-183 30,-57 37,-124 62,-160 42,-17 38,-1 82,-13l331 -157c76,-53 4,-74 75,-112 17,24 9,119 153,326 51,73 119,90 246,255 61,79 378,444 519,466 -10,-27 -71,-106 -115,-109l72 -146c26,2 14,-9 45,7 36,19 17,8 30,42 -12,8 10,-1 -31,16 -24,11 -1,-2 -29,11 13,52 11,42 39,71 41,43 138,144 186,151 37,5 58,-12 88,-20 64,-18 46,2 90,2l171 -70c-74,-2 -121,25 -199,-11 -37,-17 -32,-26 -66,-44 -35,-19 -49,-11 -84,-26 -50,-22 -57,-81 -93,-116 -37,-36 -91,-62 -125,-97 -35,-37 -50,-74 -89,-119l-214 -217c-43,-41 -10,-17 -37,-74 -11,-22 -28,-38 -43,-68 -33,-66 -144,-308 -180,-348 -88,-99 -48,-51 -105,-227 -28,-88 -89,-175 -112,-323 -23,-148 -74,-218 -96,-335 -23,-12 -53,-28 -76,-47 -25,-21 -28,-37 -58,-63 -32,-1 -53,5 -83,-1 -69,-14 14,-22 -78,-14 -37,4 -85,-13 -132,-32 -93,-37 -60,-199 -225,-100 36,77 42,34 105,83 25,20 91,121 233,102 42,-6 116,1 131,42 -27,20 -157,36 -198,26 -131,-32 -87,-45 -165,-88 -139,-75 -81,-107 -199,-163 -58,-27 -24,-28 -74,-50 -112,-48 -259,-146 -370,-115 -110,30 -61,59 -252,43 -88,-8 -49,-20 -91,-33 -92,-29 -29,-2 -48,19z"/> <path class="fil0" d="M12873 10999c18,-23 0,-9 32,-31 80,-54 80,-45 105,-18 -26,13 -103,44 -137,49zm597 -46c-63,-6 -55,-24 -119,-28 -49,-3 -100,-4 -149,-7 75,-13 241,-54 268,35zm-1025 -108c18,-34 6,-29 33,-41 47,-20 69,10 69,10l-102 31zm-1125 -39c37,-79 54,-59 139,-102 160,-79 504,32 578,89 91,71 -21,31 153,84l181 69c206,73 262,0 433,24 -22,77 -16,-2 -52,65 70,107 214,-41 307,0 -13,43 22,12 -30,39 -18,9 -37,11 -54,15 -43,10 -67,20 -106,34 -141,51 -331,61 -471,-11 -186,-97 -193,-26 -399,-169 -60,-42 -34,4 -79,-59 -26,-37 -35,-54 -70,-69l-388 -34c-62,0 -71,21 -140,25zm733 -110c-12,45 -3,31 -44,29 11,-17 21,-22 44,-29zm319 11l79 5c-17,18 2,10 -41,22l-120 42c12,-50 3,-9 39,-38 26,-21 9,-6 30,-30 -56,9 -116,30 -152,64l42 35c37,26 -4,5 45,30l160 -91c66,-22 59,12 64,16 -24,12 -55,23 -87,37 -44,19 -64,17 -80,56 140,86 153,-34 276,-28 23,22 30,36 62,51 5,2 40,14 40,14 31,21 10,-1 29,39 -144,1 -154,17 -190,-30 -2,-2 -4,-7 -6,-8 -1,-2 -3,-6 -5,-8 -79,19 -67,84 -255,-21 -40,-22 -29,-16 -80,-33 -49,-16 -40,-21 -69,-58l26 -50c2,-2 6,-6 8,-10 -35,11 -57,22 -82,39 5,-56 65,-72 117,-90 125,-44 53,-18 165,6 -8,14 -10,26 -16,40zm-471 -18c27,-37 71,-47 109,-63 -5,35 -3,24 -43,55 -27,20 3,14 -35,19 -33,4 -17,-4 -31,-11zm-1194 278c45,26 34,14 102,16 222,6 64,30 287,-33 52,-15 30,14 74,-10 126,-70 -42,-31 228,-76 57,-10 51,6 93,11 60,6 51,-11 97,-20 60,-12 115,23 171,36 164,39 160,71 283,137 46,25 101,56 152,69 382,98 244,202 840,28 96,-28 120,-111 290,-124 45,81 274,110 220,-28 -59,-148 -83,-139 -415,-125 -237,10 -177,103 -450,-25l-175 -147c-36,-32 -83,-62 -137,-86 -150,-66 -209,-46 -387,-33 -110,8 -89,21 -160,60 -54,30 -112,-14 -177,-9 -146,10 -196,64 -308,123 -68,36 -55,61 -122,99l-220 101c-208,42 -240,-37 -286,37z"/> <path class="fil0" d="M9404 7792l-83 -71c5,-5 9,-12 10,-9l60 -35 5 -70c-77,26 -38,41 -102,57 6,-83 24,-110 31,-198 1,-3 89,-117 145,-141 164,-70 7,-90 223,-192 78,-37 151,-81 251,-82l-160 479c-32,57 -274,258 -380,262zm659 -1816c-38,11 -62,23 -105,38 -97,33 -88,47 -173,114 -17,13 -17,16 -40,31 -20,13 -28,16 -48,33 -77,63 -222,329 -109,396 11,-210 10,-281 168,-409 283,-230 140,-94 268,-162 92,-49 105,-82 147,-185 26,-64 25,-88 81,-118 1,2 23,-7 10,44 -4,17 -25,16 -48,119 -77,344 -68,205 -110,333 -42,130 9,24 -83,154 -102,145 -114,235 -279,400 -42,42 -103,64 -74,148 -45,-25 -41,62 -33,-52 7,-100 116,-391 116,-391 -46,28 -56,40 -83,97 -49,104 -45,158 -69,261 -15,66 1,107 10,155 -30,21 -74,141 -92,184 -23,54 9,19 -41,48 -17,-111 -29,-218 -50,-322 -28,-137 149,-314 -69,-391 -144,-50 -407,237 -156,332l25 -72 -65 -33 -4 -79c32,-31 50,-53 105,-65l14 79c54,-21 18,-9 45,-66l68 21c14,73 -2,139 -26,192l-112 3c17,127 82,-6 112,117l-75 -26c7,94 21,99 109,104 -18,106 14,121 16,213 3,3 8,3 10,8l36 19c-7,78 -34,51 -153,179 -41,44 -66,185 -71,265 85,162 -4,71 6,191 75,4 30,0 74,-58 72,3 94,89 201,-24 34,-35 12,-36 61,-64l170 -91c211,-130 183,-233 261,-380 21,-40 32,-32 55,-70 154,-252 490,-156 534,-254 -55,-58 -294,-16 -368,4 -94,25 -137,100 -151,113 -45,40 -58,36 -111,155l-60 162c-12,25 -10,16 -22,31 15,-118 55,-207 106,-282 60,-89 85,-131 193,-179 131,-57 353,-56 499,-70 125,-13 63,36 148,34l-6 -92c42,-35 18,-1 33,-41 -12,-6 -94,-24 -106,-24 -59,5 -33,38 -27,80 -161,1 -470,1 -590,91 -131,99 -165,81 -244,104 -42,12 -96,15 -136,28 -52,18 -65,34 -122,45l4 -65c19,-96 26,-54 63,-116 42,-70 5,-42 101,-163 80,-101 115,-96 220,-307 15,-30 23,-60 36,-88l143 -261c35,-74 40,-120 57,-208 16,-81 66,-127 40,-213 -140,-3 -206,197 -233,299z"/> <path class="fil0" d="M-3036 8982l87 12c-39,26 -52,12 -87,-12zm327 -320c8,4 15,1 27,16 20,25 9,0 9,33 -23,2 -41,37 -36,-50zm162 -47c37,19 119,136 75,200 -34,-23 -22,-51 -25,-104 -38,-29 -53,-33 -50,-97zm103 2c1,2 46,-7 0,45 -21,-26 -23,-26 0,-45zm-287 18l41 -4c-10,10 6,36 -41,4zm135 -8c-31,-30 -11,-26 4,-41l-4 41zm-725 40c13,-66 -4,-35 31,-58 13,31 13,48 -31,58zm140 -211c86,48 -27,-28 256,-68 164,-23 130,-54 310,-10 83,21 204,55 267,94 52,33 165,124 162,182 -34,-51 -99,-104 -187,-118 -53,-9 -106,5 -152,-13 -58,-23 -15,-47 -132,-47 29,27 43,26 61,59 -52,16 -118,41 -165,54 -125,-49 -182,-19 -319,-24l-47 -64c-129,-5 -122,-20 -196,55 -47,48 -107,82 -72,183 8,2 -21,44 59,-19 39,-31 25,-12 50,-30 45,-32 18,-63 108,-74l320 -14c74,44 54,51 101,99 53,55 44,-6 92,112 18,45 42,88 72,123 60,74 107,10 123,88 -139,-9 -251,4 -384,-35 -46,-13 -231,-148 -301,3l389 78c63,10 95,-3 98,58 -128,23 -148,-27 -277,41 -44,23 -82,21 -123,42 -144,73 -168,91 -374,66 -55,-7 -110,1 -166,0 -114,-4 -78,-48 -148,-7 17,31 -4,23 75,45l323 30c138,4 245,-70 345,-120 157,-77 260,-23 384,-72 44,-17 31,-30 145,-76 68,-27 144,-18 201,-12 11,-18 21,-38 36,-53 130,2 80,74 192,76l9 -62c-73,-36 -113,-79 -216,-83 -134,-5 -155,-10 -259,-47 -26,-48 -59,-93 -61,-155 31,22 7,0 30,28l23 31c26,44 13,97 78,48 82,-62 -1,-88 67,-156l-1 -98 48 2c7,68 -38,46 4,104 52,-14 11,34 42,-49 85,25 -11,65 132,99 78,243 108,155 128,377 89,-54 66,-105 52,-224 -188,-119 -31,-152 -168,-318 -105,-127 -106,-151 -284,-217 -93,-35 -314,-92 -425,-67 -104,23 -363,61 -327,152z"/> <path class="fil0" d="M3959 9716c-39,-9 -18,21 -39,-39 57,9 36,-12 39,39zm-117 -68c-32,19 -78,8 -125,7 8,-26 93,-28 125,-7zm-326 -28l-20 110c71,72 73,53 158,23 44,32 62,68 228,-2 111,-47 74,28 289,-127 52,-37 72,-61 147,-69 -6,62 -40,103 -65,150 -12,22 -23,45 -33,77 -44,137 -18,62 -307,126 -173,38 -464,129 -634,157 -95,15 -49,31 -111,58l-136 -89c-78,-37 -58,-1 -65,3 3,3 7,3 9,9 12,37 104,1 181,169 26,56 26,74 57,124 36,59 19,76 41,138 40,111 -48,341 -104,418 -36,49 -59,31 -99,107 74,-14 82,-40 166,-124 105,-106 110,-315 64,-454 -12,-35 -20,-73 -30,-110 -17,-61 -35,-58 -43,-111 81,-43 843,-237 946,-242 70,114 -21,-26 28,86 86,-13 52,-111 121,-322 19,-57 52,-90 77,-143 61,-130 64,-68 80,-141 -149,68 -80,14 -230,61 -68,22 -139,63 -208,83 -49,14 -161,-29 -257,-24 -79,4 -187,32 -249,59z"/> <path class="fil0" d="M5674 8156c-51,36 -10,52 -9,59l204 17c-49,26 -125,9 -184,19 -103,17 -239,161 -454,58 -138,-66 -47,-86 -226,-164 -82,-36 -51,-25 -88,-106 -35,-77 -59,-54 -87,-112 14,-12 -11,-10 35,-22 36,-10 73,6 137,-19 72,-27 67,-21 211,51 32,16 106,97 196,109 -32,-73 -56,-15 -70,-91 36,-27 218,-42 274,-33 130,21 219,97 431,159 50,15 60,29 104,45 61,22 77,0 115,23 -53,112 -483,-68 -588,7zm-1225 102c59,15 26,19 138,-35 23,-11 16,-11 25,-32 1,-3 35,-83 110,-84 63,19 133,62 189,91 59,31 129,40 196,81 116,71 229,168 402,90 213,-96 170,-49 338,-74 57,-8 63,-37 99,-42 23,-3 84,10 124,8 84,-4 274,-59 330,-96 -7,-22 27,-35 -109,-52 -136,-16 -276,-76 -401,-130 -49,-21 -194,-92 -250,-99 -128,-15 -363,32 -467,-18 -141,-68 -104,-71 -274,-27 -82,21 -71,12 -122,60 -83,78 -132,24 -197,151 -35,68 -131,149 -131,209z"/> <path class="fil0" d="M8414 5252c18,28 21,13 13,77 -2,17 -14,68 -19,83 -27,-62 -42,-102 6,-159zm-104 42c26,26 26,24 39,67 -34,-20 -41,-12 -39,-67zm-839 -1087c129,60 163,174 243,315 48,84 99,46 176,104l208 220c37,53 93,230 101,319 11,120 134,269 197,354 -46,-16 -84,-83 -128,-106 -43,-23 -64,-8 -103,-23 -40,-15 -32,-33 -82,-44 -76,-16 -151,-2 -194,-55 -32,-40 -29,-107 -83,-159 -28,57 25,30 27,135 -59,-88 -47,-32 -154,-211 -23,-39 -55,-57 -88,-92 -20,-21 -51,-79 -69,-110 -120,-210 -27,-398 -52,-646zm1044 1443c7,-96 -53,-71 -40,-208 7,-77 27,-237 -33,-327l-204 -204 -46 39c-64,-97 -100,-191 -222,-309 -38,-37 -36,-18 -74,-35 -68,-30 2,-36 -92,-74 -54,-22 -53,-24 -99,-126 -28,-63 -37,-61 -75,-92 -72,-59 -83,-151 -186,-165 -70,55 -8,129 -22,261 -19,176 39,391 103,551 41,103 64,51 139,192 96,181 11,54 146,188 65,64 151,71 260,72 88,1 44,23 120,50 38,14 88,15 121,44 56,50 115,131 203,143z"/> <path class="fil0" d="M6805 6229c-11,-59 -32,-71 -26,-135 9,-96 13,-68 84,-69 33,-27 64,-55 114,-80 60,-30 110,-8 173,-23 100,-24 49,-20 157,-3 37,6 171,2 210,-1 41,-3 45,-14 82,-18 39,-4 57,4 96,0 405,-38 447,-135 473,-141l112 7c33,-35 20,-37 55,-67 31,21 102,77 152,64 57,-15 30,-7 33,-57 -20,-10 2,-4 -34,-11 -85,-18 -23,0 -100,-41 -65,-35 -73,-25 -149,-32 -25,-35 -34,-54 -62,-75l-82 -26c-2,1 -7,4 -10,5 53,60 129,52 93,160 -48,10 -138,-22 -197,6 34,16 13,5 50,9 48,5 25,-5 63,19 -27,53 24,13 -121,66 -60,22 -69,39 -149,40 -85,1 -120,19 -181,20 -36,1 -55,-6 -95,2 -36,8 -39,20 -69,25 -42,7 -135,-3 -185,-6 -71,-5 -130,11 -195,8 -108,-4 -200,26 -273,100 -4,-35 -11,-18 42,-99 16,-24 58,-58 88,-77 89,-56 149,-32 220,-113 144,-164 202,-109 347,-151 99,-28 43,-22 102,-67 69,-9 98,24 195,25 67,1 40,-12 99,-11 41,1 66,6 112,4 -3,-3 -6,-12 -8,-9l-32 -25c-87,-61 -433,-47 -530,-9 -232,90 -377,244 -432,264 -42,16 -61,23 -97,42 -51,27 -121,76 -156,122 -65,84 -105,207 -54,305 21,41 30,53 82,53z"/> <path class="fil0" d="M8500 13257c26,-22 -5,-26 63,-9l133 36c54,13 37,6 58,47 -78,4 -76,3 -141,-21 -22,-8 -37,-12 -61,-20 -72,-26 -27,-17 -51,-33zm-941 -792c61,6 63,34 86,82 12,25 14,27 32,51 29,37 5,2 31,53 26,52 128,133 181,162 153,81 99,-18 196,138 48,78 154,89 173,182l-49 21c-27,6 2,-10 -34,7 22,57 67,13 123,22l15 25c-78,54 -377,-37 -387,-42 -62,-29 -100,-45 -117,-119 -20,-89 -35,-118 -54,-197 -99,-34 -136,-20 -210,-92 -16,-116 56,-188 13,-293zm158 170c-18,-34 -17,-58 -31,-90 -16,-37 -33,-36 -55,-71 -48,-79 -1,-108 -136,-128 0,66 -9,66 -26,119 65,139 -132,345 201,411 4,185 51,153 93,201 79,90 15,79 157,136 107,43 316,95 422,22 42,-29 -21,-14 49,-20 15,43 -1,40 31,67l213 78c56,11 209,27 247,-32 41,-63 -4,-67 -4,-67 -35,29 -19,25 -56,46 -30,-26 -13,-16 -37,-51 -86,-10 -62,-1 -115,-34 -50,6 -73,6 -122,-12 -102,-37 -131,-4 -261,-114l-140 -124c-158,-238 -141,-101 -296,-217 -43,-32 -108,-77 -132,-122z"/> <path class="fil0" d="M1769 11262c-56,-13 -37,15 -52,-40 35,3 32,10 52,40zm320 -41c-30,-14 -16,-7 -30,-25l30 25zm-588 -61c70,-2 23,3 40,15 -40,24 -36,29 -83,0 8,-4 -19,-13 43,-15zm-663 -221c142,177 397,192 468,226 32,-14 63,-18 113,-12 -56,25 -41,-10 -76,37l167 74c103,54 87,8 166,28 200,51 227,125 297,160 -15,-36 -36,-57 -62,-77 -22,-16 -22,-13 -42,-23 -45,-22 47,26 -19,-9 -2,-1 -8,-2 -9,-7 -2,-5 -6,-5 -9,-8l47 -11c0,0 50,0 53,0 13,-47 -12,-20 39,-35 142,-41 89,63 212,62l-38 -119c-11,-32 -34,-53 -56,-77 -139,10 -16,19 -160,-5l-52 48c-357,-76 -106,-85 -570,-99 -262,-8 -346,-121 -369,-131 -25,-11 -82,-28 -99,-22z"/> <path class="fil0" d="M3855 7892c3,0 8,-2 9,0 25,59 -5,4 40,-19 160,85 129,111 189,226 48,92 93,38 39,265 -42,174 -5,330 99,465 -15,75 6,-20 -22,56 61,89 86,166 215,175 -6,-64 -35,-118 -71,-161l15 -88c-84,-62 -89,-112 -105,-144 -52,-106 -73,27 6,-225 40,-128 123,-173 -28,-200 -138,-255 -124,-262 -337,-425 -57,-44 -92,-113 -138,-125 13,51 4,8 35,62 3,5 7,18 13,29 29,56 22,33 43,109z"/> <path class="fil0" d="M7941 4369c-27,56 -15,92 21,138 3,-2 8,-10 10,-7 1,3 13,-11 17,-14 50,-28 45,47 48,87l110 97c50,55 4,93 71,151 56,49 68,17 115,93 55,90 58,61 96,126 107,184 58,299 108,530 21,100 46,74 31,163l36 35c23,33 35,95 77,131 235,197 85,207 59,264 51,63 101,-2 190,2 44,34 31,41 107,49 -34,-103 -54,-20 -106,-93 -34,-48 -25,-66 -71,-111 -48,-48 -47,-51 -73,-110 -42,-95 -60,-27 -100,-91 -61,-97 -43,-78 -41,-123 2,-75 -33,-47 -58,-123 -32,-98 -26,-224 -42,-330 -45,-300 -137,-295 -187,-360 -40,-53 -43,-60 -91,-104l-232 -326c-9,-20 -27,-69 -57,-80 -55,-20 -37,3 -40,4z"/> <path class="fil0" d="M4818 8354l-15 201c48,20 93,41 138,70 79,50 -40,-2 129,90 -9,97 -10,19 -69,140 -50,-11 -127,-45 -187,-59 -110,-25 -357,61 -325,-300 2,-18 5,-37 2,-56 -9,-49 -17,-35 -31,-46 -46,28 -38,10 -36,77 12,415 238,341 398,385 -16,108 -40,20 -149,173 -64,89 -158,27 -242,74 35,85 47,18 168,29 0,76 -63,187 -105,226 40,18 62,-79 149,-203 181,-256 139,-151 190,-198l33 -63c55,-1 61,19 106,42l151 -104 4 -119 -191 -137c-28,-18 -59,-30 -79,-45 -6,-69 43,-171 -3,-233 -5,-7 -119,-98 -208,-100 38,75 32,26 96,72 23,17 60,69 75,85z"/> <path class="fil0" d="M8503 11967c162,-9 246,-10 339,-103 43,-43 40,-37 23,-94 -181,-27 5,125 -719,-27 -47,-10 -82,1 -117,5 -58,7 -66,-18 -94,24 34,26 166,-8 233,1 45,6 42,16 97,24 246,33 351,91 561,26 -16,48 -23,47 -93,69l-245 61c-63,0 -72,-8 -114,28 28,45 23,12 48,56 -102,63 -366,57 -477,0 -56,-28 -111,-87 -179,-95 -68,-9 -176,9 -177,100 310,3 514,148 766,69 155,-49 99,-39 120,-100l28 -43z"/> <path class="fil0" d="M6442 14354l55 0c21,-98 57,-175 60,-277 4,-112 -19,-188 -7,-303 10,-92 57,-169 56,-281 -2,-104 -31,-239 -114,-282 -145,-75 -132,-120 -211,-178 -95,-70 -186,-33 -223,-110 -24,-49 7,-46 -43,-77 -74,59 6,143 52,164 78,35 107,22 178,86l132 131c131,175 48,25 104,165l60 17c8,36 -16,207 -27,251 -37,142 -8,100 -9,224 -4,395 20,142 -63,469z"/> <path class="fil0" d="M3047 12860c-20,48 -4,40 -60,47 -30,-51 -11,-60 -61,-101 -24,183 53,71 3,312 -36,169 -46,163 -101,171 -28,-96 20,-150 24,-258 -52,61 -59,147 -81,233 -32,124 -102,96 -118,189 62,-1 91,-43 121,-91l79 -6c90,-138 111,-217 123,-383 97,-56 92,-28 128,-156 56,-200 141,-474 97,-678 -13,-61 -20,-30 -35,-102 -7,-36 -18,-76 -34,-104 -29,-50 -47,-34 -70,-70 -19,-30 -11,-52 -38,-83l-143 -123c-223,-118 -158,-67 -294,-46 -48,7 -53,20 -63,68 241,14 110,45 256,72 -38,-97 -92,-66 -107,-127 56,-11 125,37 179,62 57,27 119,73 140,111 45,81 73,95 105,145 23,37 14,55 31,92 55,121 62,92 42,326 -8,96 -44,101 -46,205 -1,94 -2,132 -36,212 -17,38 -24,45 -40,86z"/> <path class="fil0" d="M4816 5622c-51,50 -114,36 -145,131 -16,50 -4,80 -8,133 -4,57 -24,71 -26,126 29,47 70,86 148,88 -13,-107 -78,-45 -89,-115 9,-47 23,-48 31,-84 8,-39 -5,-81 4,-121 16,-74 81,-51 129,-118 92,-127 17,-33 134,-102 36,-21 37,-36 69,-57 51,-34 47,3 84,-46 -19,-13 9,-17 -31,-15 -50,4 -145,90 -197,106 -35,-42 -45,-121 -12,-173 20,-31 70,-98 106,-115 53,-25 29,12 72,-41 24,-31 12,-32 54,-56 32,-18 49,-17 82,-30 53,-21 33,-18 73,-40 88,0 14,18 92,-4 256,-74 124,-41 365,-48 -53,-75 -398,10 -476,38 -68,24 -96,7 -165,40 -66,32 -177,116 -224,180 -38,52 -74,71 -77,131 -4,75 32,87 9,193z"/> <path class="fil0" d="M-4386 9014c-6,56 36,134 127,71l300 -24c10,25 10,0 -7,64l55 15 -13 55 -137 -14c19,-49 32,-11 53,-82 -56,-18 -81,-16 -115,35 40,108 189,151 246,111 25,-32 13,-20 29,-54 33,-6 74,-20 101,-23 47,-6 71,5 121,-2 67,-28 -18,-58 313,-132 5,-1 18,-4 23,-6 23,-9 24,-13 35,-20 -18,-14 1,-16 -36,-23 -19,-4 -23,-1 -41,1 -72,10 -193,59 -279,89l-80 32c-57,14 -108,20 -166,17l-50 -58c35,-12 71,16 141,18 99,3 86,-27 173,-13 23,-53 -24,-25 107,-76 127,-50 98,0 122,-56 -103,-42 -276,135 -449,100l-575 -26z"/> <path class="fil0" d="M9367 6423c-25,-38 -2,2 -20,-47 -1,-3 -2,-7 -4,-10 -92,-229 -173,-157 -201,-368 -28,-214 -11,-407 21,-618 76,-6 71,44 77,117 4,47 65,263 50,374 -7,50 -44,122 -24,167 35,-9 15,13 34,-22l35 -147c4,-21 -6,-212 -11,-232 -10,-39 -37,-42 -46,-84 -8,-38 30,-189 -80,-290 -45,21 -21,10 -46,51 -21,34 -23,24 -44,52 -55,72 -8,111 -13,171 -13,151 -48,180 -23,364 24,179 23,171 123,282 41,45 62,114 111,195 32,54 4,41 64,46z"/> <path class="fil0" d="M6671 10856c36,-18 68,-14 110,-28 78,-27 86,-63 193,-60 18,1 47,2 62,10 46,28 10,-1 29,45 -261,-11 -321,98 -393,33zm2 97c17,-26 176,-98 286,-99 -21,18 -42,19 -62,53l222 -19 -16 -107c-120,-66 -168,-30 -271,3 -55,18 -91,10 -139,28 -44,17 -75,30 -125,51 -14,145 -40,64 -38,159 128,91 408,168 489,125 -14,-80 -50,-50 -126,-60 -68,-9 -70,-16 -154,-13 -21,-29 -30,-37 -42,-65 40,-22 70,-25 108,-45 95,-52 73,-8 95,-72 -86,7 -189,83 -225,61z"/> <path class="fil0" d="M8717 6674c-13,-304 247,-231 270,-163 12,35 -77,198 -93,225 -89,16 -141,-16 -177,-63zm271 55c65,43 55,70 92,134 32,54 31,18 58,53 23,29 4,39 31,78 128,-35 -57,-141 -94,-251 -12,-36 2,-24 -8,-61 -6,-25 -14,-21 -24,-60 25,-52 53,-81 18,-142 -33,-57 -62,-45 -135,-62 -144,-33 -168,-5 -236,102 -51,79 -99,196 26,250 153,66 202,33 272,-41z"/> <path class="fil0" d="M8175 6919c34,34 -42,14 63,32 112,19 47,-2 180,61 193,92 74,-20 315,157 32,24 15,18 39,43 22,23 25,19 47,37 36,30 33,47 61,91 42,65 33,37 33,134 40,18 28,10 51,46 21,32 26,38 32,69 -68,-32 -36,-60 -115,-32 -17,99 42,14 124,115 18,22 22,24 38,43 30,1 16,0 33,-2 1,0 10,-3 34,-5 80,125 -4,126 55,189 2,-1 -2,36 23,-19 34,-74 -21,-198 -73,-234 -179,-125 -41,-276 -383,-533 -165,-124 -132,-67 -348,-178 -57,-29 -158,-49 -212,-13z"/> <path class="fil0" d="M10949 11409c50,49 4,156 -25,188 -43,5 -88,11 -132,10 -76,-1 -77,4 -80,-58l98 6c-13,-51 -57,-107 8,-132 62,-23 29,15 102,-9l28 -5zm-343 16c45,29 13,17 106,14 -27,41 -54,42 -107,48 14,30 14,95 59,124 28,18 81,33 110,43 122,42 142,2 233,-41l21 -192c-51,-53 -101,-86 -196,-54 -186,63 -185,-37 -226,58z"/> <path class="fil0" d="M1994 9639c79,3 106,3 171,-23 155,-62 71,-41 290,-87 116,-24 -6,-15 171,-27l23 -40c255,6 324,-58 524,-103 25,-6 39,-3 62,-8 38,-8 27,-16 60,-23 48,-11 77,2 138,-14 55,-14 65,-29 112,-37 45,-8 45,-2 95,-28 33,-18 13,-6 29,-19 -127,-15 -681,135 -855,178 -27,7 -80,10 -107,18l-663 179c-74,31 -21,5 -48,33z"/> <path class="fil0" d="M8347 12664c-71,-99 -238,-66 -353,-121 -23,-75 -27,-98 -74,-133 -61,-45 -51,-61 -97,-111 -27,-29 -288,-151 -257,-36 70,31 83,-18 163,33 260,168 201,273 270,309 91,48 227,-73 422,192 123,167 47,110 102,204 19,33 44,74 56,100 21,46 16,62 57,84 -26,-137 -113,-333 -210,-434 -41,-43 -37,-30 -78,-87z"/> <path class="fil0" d="M4142 11285l14 42c0,0 22,29 23,31 244,292 173,160 306,237 120,69 136,123 180,250 51,147 197,136 156,276 -20,67 -82,50 -144,62 -19,130 260,35 173,-136 -25,-50 -63,-100 -97,-150 -41,-60 -39,-99 -73,-163 -45,-87 -20,-95 -117,-135 -89,-36 -87,-67 -159,-91 -86,-29 -96,-53 -144,-106 -51,-57 -58,-110 -117,-118z"/> <path class="fil0" d="M7855 8266c24,90 57,46 144,80 194,77 193,201 412,253l11 58 90 9c45,76 184,142 189,143 48,11 48,-27 54,-55l-104 10c-25,-41 -29,-58 -83,-72 10,-34 9,-21 10,-50 -29,-12 -78,-32 -96,-44 -34,-23 -28,-33 -80,-59 -263,-131 -165,-119 -238,-177 -23,-18 -60,-15 -102,-38 -58,-31 -132,-97 -206,-57z"/> <path class="fil0" d="M3650 11522c3,2 7,6 9,7 70,28 74,-5 173,37 65,28 72,54 168,37l10 20c1,3 3,7 4,10l52 55c-43,24 -27,7 -78,-17 -87,-42 -79,-5 -97,12 153,76 425,96 604,92 -20,-16 -2,-12 -37,-23 -3,-1 -25,-3 -28,-3 -42,-5 -110,-4 -163,-28 91,-15 65,33 168,0 -57,-48 -11,-9 -89,-30 -149,-39 -177,-13 -270,-37 -8,-160 -86,-70 -191,-102 -69,-21 -153,-68 -236,-30z"/> <path class="fil0" d="M7911 8114c139,-12 560,-137 677,21 -2,3 -6,4 -7,9 -6,31 -10,-3 -30,47 22,11 -3,11 34,13 19,1 30,-5 46,-7 43,-6 57,-4 99,5 57,13 114,40 182,52 -44,-72 -135,-86 -227,-108 -116,-28 -88,-119 -196,-137 -77,-12 -236,13 -320,17 -54,2 -91,15 -153,19 -70,5 -83,10 -104,70z"/> <path class="fil0" d="M7287 12008c51,-23 142,96 171,141 29,44 27,45 2,85 -26,-41 -16,-53 -29,-85 -36,-85 -119,-95 -144,-141zm6 -106c-165,43 -95,-60 -141,37l180 170c63,50 28,183 160,193 64,-125 17,-134 -46,-237 -54,-87 -61,-102 -152,-163z"/> <path class="fil0" d="M3815 8080c0,-3 -3,-42 -4,-42 -14,-51 -3,-12 -15,-33 61,-86 -9,-200 -49,-269 -22,-36 -33,-70 -54,-100 -32,-45 -38,-58 -99,-63 35,90 45,36 72,118 20,59 -18,221 42,291 95,110 29,81 106,97z"/> <path class="fil0" d="M4501 10090c112,-19 139,-319 169,-412 28,-85 32,-78 39,-172l42 -21c3,-42 17,-161 0,-190 -86,42 -53,96 -74,183 -15,63 -59,120 -67,198 -14,124 4,103 -40,221 -23,61 -70,134 -69,193z"/> <path class="fil0" d="M9381 5123c2,24 3,38 7,59l7 38c1,3 4,7 5,9 1,2 4,5 6,8 12,-20 7,2 15,-32 20,-90 -12,-86 41,-103 37,73 -38,218 -50,248l-56 -10c-10,43 -18,116 -23,158 -3,27 -5,56 3,83 13,49 15,32 42,39 32,-48 -30,-111 89,-256 67,-82 70,-200 25,-313 -59,12 -82,33 -110,71z"/> <path class="fil0" d="M-382 11098c135,-12 220,-71 333,-112 55,-20 121,-27 168,-54 81,-46 364,-139 460,-178 38,-15 97,-41 149,-62 57,-23 101,-38 139,-78 -96,7 -97,24 -175,59 -40,18 -126,56 -149,61 -196,42 -79,34 -158,59l-468 173c-93,44 -150,51 -234,85l-65 46z"/> <path class="fil0" d="M2919 12717c2,-106 -52,-221 -91,-302 -85,-177 -356,-463 -401,-569 -7,-17 -8,-26 -13,-42 -1,-4 -5,-15 -6,-19l-8 -73c62,-8 44,3 84,-23 -79,-84 -311,-41 149,494 200,234 61,80 168,249 73,115 87,236 120,285z"/> <path class="fil0" d="M6392 4928c73,56 30,45 228,14 -27,33 -3,23 -48,37 -41,13 -86,10 -129,33 53,39 73,6 130,-14 64,-23 100,-5 151,-27 -34,-30 -26,-12 -56,-23 -30,-11 -16,-5 -35,-20l118 -3c20,67 79,32 139,27 78,-7 117,27 187,27 -9,-13 -5,-28 -61,-51 -225,-95 -435,2 -624,2z"/> <path class="fil0" d="M11339 7741c37,-7 51,-23 79,-37 26,-13 74,-23 106,-30 66,-14 157,7 207,38 -10,63 -35,9 -80,76 73,148 306,-38 72,-152 -151,-74 -363,57 -384,105z"/> <path class="fil0" d="M5605 4342c67,44 40,-5 95,59l-6 14c-21,33 -44,54 -24,122 9,30 53,93 71,111 53,54 157,111 257,94 -79,-38 -283,-159 -283,-258 20,-53 33,-42 33,-116 -103,-73 -79,-41 -109,-131 -44,27 -38,45 -34,104z"/> <path class="fil0" d="M6393 5725c7,-15 28,28 6,-40 0,-1 -23,-37 -28,-49 20,-67 65,-70 90,-152 -54,11 -56,35 -88,76 -60,77 -7,66 -52,123 -48,-44 -23,-72 -2,-134 73,-218 20,-141 222,-277l33 -29c-115,1 -333,197 -316,392 6,70 57,126 136,89z"/> <path class="fil0" d="M7291 7012c196,14 213,-36 423,12 99,22 111,-24 277,-60l80 -34c-172,-10 -265,73 -393,30 -111,-37 -93,0 -188,5 -71,4 -89,-13 -154,18l-44 30z"/> <path class="fil0" d="M8167 7483c78,45 291,5 377,8 62,2 112,30 154,47 162,70 156,-6 159,-13 -46,-34 -30,-14 -83,-24 -20,-4 -124,-56 -244,-57 -56,0 -102,18 -180,15 -36,-2 -59,-4 -96,0 -4,0 -44,8 -45,8l-41 17z"/> <path class="fil0" d="M3133 9823c-12,39 11,78 34,129 67,6 39,11 84,-40 31,-35 94,9 143,-10 116,-44 -15,-118 -129,-107l-132 28z"/> <path class="fil0" d="M6357 5032c-20,-42 39,-11 -84,-56 -124,-45 -161,-106 -270,-132 -35,-8 -77,-7 -108,-17 -33,-11 -50,-36 -92,-48 -44,-13 -55,-9 -99,-39 -49,-33 -20,-38 -74,-59 17,43 14,29 51,68 26,28 34,44 75,64l199 66c183,42 208,148 402,154z"/> <path class="fil0" d="M7496 11998c71,-2 42,5 85,-36 25,-24 34,-31 65,-47 51,-26 139,-73 193,-35 18,12 3,4 24,18 147,-65 168,68 247,14 -56,-52 -151,-69 -185,-91 -41,-26 3,-12 -48,-35 -88,29 -135,42 -206,84 -155,91 -162,49 -175,129z"/> <path class="fil0" d="M2788 10984c13,-14 11,17 26,-36 19,-65 -60,-92 -135,-230 -89,-165 12,-219 1,-322 -100,81 -115,193 -57,335 58,141 115,68 164,251z"/> <path class="fil0" d="M3890 8014c23,39 6,23 0,33 -2,-2 -5,-9 -5,-7 0,5 -16,-11 5,-27zm-63 24l72 59c46,29 31,1 63,62 39,75 43,128 139,135 -3,-73 -13,-48 -49,-99 -26,-36 -23,-62 -43,-95l-82 -127c-34,-37 -19,-23 -59,-28l-42 92z"/> <path class="fil0" d="M4193 10300c-14,-59 38,-211 -156,-175 74,58 -52,-5 45,40 23,11 10,-11 44,23 46,47 54,193 -22,295 -77,102 -211,225 -233,282 93,-27 36,-35 94,-98 29,-32 61,-39 90,-76 21,-27 16,-35 38,-59 25,-27 16,-6 44,-38 42,-50 30,-42 81,-84 4,-84 -13,-53 -26,-110z"/> <path class="fil0" d="M3870 9159c10,28 -41,29 50,45 23,4 65,-1 93,4 272,45 65,50 229,-41l70 -43c22,-16 11,-8 23,-19l-465 54z"/> <path class="fil0" d="M4029 8606c-43,-204 -20,-200 -96,-252 -5,-115 15,-34 -34,-186 -6,-18 3,-7 -13,-28 -11,-14 -21,-15 -23,-17 -36,45 11,246 24,265 30,45 20,-26 65,115 14,45 40,87 78,101z"/> <path class="fil0" d="M5316 11231c-28,-24 -161,-87 -190,-103 -21,25 -13,-24 -24,55 -43,-25 -26,-4 -52,-56 -23,-45 -16,-50 -72,-45 21,62 3,40 -6,55 -22,-38 -39,-76 -92,-81 -7,83 109,97 181,145 74,49 132,64 218,46 39,-8 15,-3 37,-16z"/> <path class="fil0" d="M1924 12403c16,-52 107,31 107,-77 -69,8 -102,33 -135,76 -56,71 -88,180 -124,295 -34,111 -17,50 5,143 -36,8 -49,3 -69,7 -41,7 -17,-2 -43,24l123 -5c22,-38 81,-413 135,-462z"/> <path class="fil0" d="M1830 13081c60,-30 97,-92 139,-147 100,-128 210,-469 202,-642 -44,47 -47,119 -70,217 -43,181 -58,283 -152,403 -21,27 -38,49 -61,78 -38,46 -40,24 -57,91z"/> <path class="fil0" d="M2490 11494c-35,-18 -56,-16 -92,-37 -222,-127 -48,-169 -161,-211 -34,34 -31,62 -34,123 49,40 33,12 70,61 52,67 176,175 218,64z"/> <path class="fil0" d="M10079 11069c11,78 19,68 112,85 120,22 182,-15 290,-53 68,-24 88,-5 108,-71 -149,-11 -123,45 -239,80 -134,41 -167,-28 -272,-41z"/> <path class="fil0" d="M8930 8524c-73,23 -98,-8 -111,69 20,10 -5,9 29,11 0,0 30,-5 41,-5 19,21 20,29 56,42 23,-17 39,-11 42,-59 5,-88 -29,-90 35,-186 68,-102 14,-77 7,-87l-28 2c-19,36 -9,44 -9,62 -1,37 6,25 -11,60l-51 91z"/> <path class="fil0" d="M3168 11161c201,-9 251,-76 375,-89 25,-3 32,-2 56,-9 17,-5 16,-5 30,-12l20 -15c-13,-10 -7,-28 -76,-21 -84,9 -129,43 -185,60 -71,21 -186,22 -220,87z"/> <path class="fil0" d="M6981 12849c7,-109 -185,-333 -307,-272 18,26 -29,28 95,65 183,55 96,201 212,206z"/> <path class="fil0" d="M9109 9882c16,78 89,95 157,239 21,45 12,58 55,86 -7,-44 -16,-52 -30,-87 -15,-37 -11,-55 -21,-88l-18 -36c-27,-67 13,-43 20,-132 -102,38 -59,15 -163,18z"/> <path class="fil0" d="M6679 12503c-126,-86 -572,-78 -567,-388 -42,13 -49,-27 -48,46 0,31 131,184 217,234 73,42 305,107 398,107z"/> <path class="fil0" d="M10545 8467c92,7 87,-17 79,-57 241,-29 73,81 241,60 -29,-115 -180,-129 -275,-93 -48,18 -56,27 -45,91z"/> <path class="fil0" d="M4473 10994c-13,25 -42,3 48,79 48,41 38,25 99,55 67,33 71,120 191,133 -32,-61 -35,-30 -81,-78 -38,-40 -19,-60 -64,-89 -43,-28 -64,-12 -101,-51 -49,-52 -30,-89 -91,-49z"/> <path class="fil0" d="M5059 5585c91,-40 151,-92 298,-136 64,-19 95,-29 154,-52 85,-33 115,-34 143,-79l-241 78c-37,15 -42,26 -77,36 -273,80 -113,40 -228,89 -49,21 -45,7 -49,64z"/> <path class="fil0" d="M6200 13221c-96,-30 -27,-63 -110,-123 -2,51 33,63 82,154l64 -10c35,69 35,117 130,129 -7,-73 -43,-108 -97,-146 -66,-47 -37,-66 -68,-99 -21,-23 -12,-11 -36,-15 -1,54 20,42 35,110z"/> <path class="fil0" d="M6427 4756c-20,-35 -154,-136 -200,-162 -77,-43 -147,-120 -247,-134 20,43 -4,32 99,86 34,18 98,45 119,61 63,50 114,134 229,148z"/> <path class="fil0" d="M8828 6247l22 14c113,28 59,-39 197,68 95,73 114,120 173,123 -19,-89 -64,-60 -113,-127 -44,-61 -91,-57 -147,-111l-99 16c-25,9 -20,9 -33,18z"/> <path class="fil0" d="M2308 11550c-15,-36 -70,-114 -97,-135 3,81 59,115 37,173 -15,38 -34,-5 -47,165 50,1 84,-3 110,-91 -36,-63 -14,6 -37,-69 70,-96 19,22 31,-36 1,-3 3,-4 5,-6z"/> <path class="fil0" d="M-3868 13029c92,8 142,-114 103,-214 -46,27 -21,14 -40,59 -37,-57 1,-31 -54,-33 -12,69 6,66 4,115 -4,83 -19,-9 -12,73z"/> <path class="fil0" d="M4279 8590c98,-8 63,-98 145,-228 62,-97 16,-52 7,-68 -46,15 -47,7 -100,131 -19,45 -48,118 -53,165z"/> <path class="fil0" d="M10858 7732c33,24 143,31 185,32 40,1 76,-8 113,-7 16,1 58,8 58,8 78,-3 21,0 47,-19 -20,-25 28,-25 -92,-28 -102,-3 -250,-23 -311,14z"/> <path class="fil0" d="M-4577 12714c3,-63 16,-47 -6,-83 -47,29 -44,56 -67,101l-16 -98c-34,45 -36,71 -25,134l158 -9 25 -94c-60,10 -41,7 -68,50z"/> <path class="fil0" d="M7133 7219c41,31 42,16 110,26 165,25 161,116 280,80 -33,-68 -24,-18 -177,-89 -42,-19 -36,-31 -93,-33 -43,-2 -86,-1 -120,17z"/> <path class="fil0" d="M5675 9629c75,2 27,-49 150,-73 60,-12 87,-34 130,-77 25,-25 9,-12 24,-29 -91,12 -186,66 -261,105 -67,35 -38,5 -48,41 -19,65 -1,11 6,33z"/> <path class="fil0" d="M11766 9776l-14 -32 -170 25c-67,27 -18,1 -39,44 266,-65 107,2 250,-3 84,-3 177,-76 231,-88 -74,-2 -64,3 -119,24 -43,17 -93,24 -140,29z"/> <path class="fil0" d="M1177 13446c51,-9 103,-59 194,-125 51,-37 35,-22 75,-78 32,-46 40,-46 46,-116 -24,23 -131,179 -234,235 -51,28 -62,11 -79,84z"/> <path class="fil0" d="M8817 12223c85,-17 21,-16 83,-52 27,-16 71,-17 102,-25 49,-12 118,-50 117,-102 -118,-39 22,64 -173,66 -86,1 -113,41 -129,113z"/> <path class="fil0" d="M-2822 9403c55,16 36,-15 101,-20 54,-3 66,13 105,-27 -48,-44 -141,-81 -199,-24 -48,48 -7,70 -7,71z"/> <path class="fil0" d="M3712 11607c-34,-35 -101,-36 -209,-56 -72,-13 -171,-69 -217,4 59,13 139,1 214,26 66,22 116,30 213,26z"/> <path class="fil0" d="M7117 4998c24,87 -19,21 54,55 24,11 35,23 67,24 11,0 67,-11 79,-14 14,-4 20,-3 33,-10 51,-26 9,1 33,-32 -171,-10 -31,22 -194,-31 -2,-1 -4,-31 -71,6z"/> <path class="fil0" d="M8452 6004c2,-3 5,-12 6,-10 8,21 0,-15 33,-54 35,72 42,143 126,184l-171 -300c-10,15 -12,7 -18,35 -14,62 4,105 25,145z"/> <path class="fil0" d="M-632 10584c103,-4 150,-45 239,-72l193 -80c1,-5 5,-6 8,-9 -86,3 -140,50 -230,68 -90,18 -150,21 -209,92z"/> <path class="fil0" d="M5519 4113c-8,59 16,49 -5,93 -25,53 -44,29 -24,108 45,-42 31,-39 61,-98 38,-75 65,-29 70,-105l-50 -31 -53 34z"/> <path class="fil0" d="M2530 9912c59,28 87,-13 164,0 49,8 97,40 162,52 -24,-77 -60,-82 -147,-86 -51,-2 -170,-10 -179,34z"/> <path class="fil0" d="M2181 12051c85,13 94,-33 84,-115 -33,-19 -30,-23 -83,-23 -20,43 -29,88 -1,139z"/> <path class="fil0" d="M2827 10078c45,45 16,10 72,45l7 96c-33,24 -40,15 -60,54 167,-10 98,-201 44,-213 -74,-17 -59,14 -64,17z"/> <path class="fil0" d="M831 10053c62,2 370,-103 409,-124 16,-9 11,-7 23,-16 -55,-1 -364,93 -407,119 -20,12 -13,8 -26,21z"/> <path class="fil0" d="M6963 12635c5,8 35,67 36,71 13,38 1,46 14,84 7,19 25,33 34,58 15,42 1,37 26,81l68 -47c-24,-27 -89,-94 -101,-118 -31,-62 -16,-106 -77,-129z"/> <path class="fil0" d="M10683 9662c62,39 187,-38 260,-48 -19,-17 37,-44 -76,-24 -18,3 -49,14 -71,20 -136,34 -99,21 -113,52z"/> <path class="fil0" d="M6466 9329c23,14 -3,20 91,13 -4,75 -5,24 28,41l72 -98c-102,-2 -147,-26 -191,44z"/> <path class="fil0" d="M9689 7783l16 61c3,61 -61,60 -99,149 95,-20 35,-28 110,-86 25,-19 29,-20 40,-46 33,-76 -18,-96 -67,-78z"/> <path class="fil0" d="M2404 10122c47,-46 19,-38 -3,-99 16,-62 27,-51 45,-99 -105,14 -145,173 -43,198z"/> <path class="fil0" d="M-4806 12641c-68,55 -62,165 -18,221 35,-42 26,-22 28,-104 3,-113 26,-63 -10,-116z"/> <path class="fil0" d="M-3451 12833c55,-16 25,12 52,-32 16,-26 20,-116 -3,-165 -71,15 -32,32 -49,197z"/> <path class="fil0" d="M-864 11661c3,2 9,0 10,4l51 26c71,57 103,7 95,-40 -12,-71 -18,-32 -36,-39 -30,32 13,-72 -17,53 0,2 -2,6 -3,9 -50,-14 -7,2 -42,-67 -46,15 -43,10 -59,54z"/> <path class="fil0" d="M-3536 12879c56,0 58,-34 59,-93 1,-64 0,-95 -56,-108l-3 201z"/> <path class="fil0" d="M9466 8015c85,-24 149,-90 169,-179 -84,35 -130,90 -169,179z"/> <path class="fil0" d="M-3611 12910c10,-5 36,22 50,-99 8,-71 -1,-82 -52,-97 -6,55 -16,160 2,197z"/> <path class="fil0" d="M9196 8127l78 -14c-3,-5 -8,-15 -9,-12 -2,3 -7,-7 -9,-9 -20,-14 -37,-7 -59,-54 -29,-61 3,-61 -56,-88 -26,58 18,132 56,177z"/> <path class="fil0" d="M6263 13858c-19,-36 -5,-20 -40,-40 -6,13 -12,8 -13,39 -1,26 25,62 38,83 25,40 31,63 70,79 1,-79 -15,-86 -55,-161z"/> <path class="fil0" d="M4146 9044c15,-48 -3,-44 -57,-66 -24,-10 -22,-49 -22,-51 -6,-41 -8,-95 -63,-137 18,99 48,269 142,255z"/> <path class="fil0" d="M4787 5852c66,-17 21,29 59,-52 25,-53 34,-64 96,-97 66,-35 31,11 52,-62 -61,20 -77,50 -129,82 -60,37 -61,38 -78,128z"/> <path class="fil0" d="M5093 8898c7,9 -1,51 105,18 62,-19 70,-26 87,-78 -60,7 -142,26 -192,60z"/> <path class="fil0" d="M7013 7243l0 -55c36,-3 45,-5 67,-5 -16,-50 16,-6 -39,-46 10,-35 6,-17 17,-54 -44,17 -58,27 -81,72 -31,61 -30,81 36,89z"/> <path class="fil0" d="M14218 7774l-25 124c41,-10 28,2 53,-33 33,-47 57,-140 -65,-150 22,59 -2,3 37,59z"/> <path class="fil0" d="M7831 5609l184 45c89,-3 38,8 64,-31l-23 -12c-64,-16 -175,-34 -225,-2z"/> <path class="fil0" d="M1553 9804c86,-2 143,-30 222,-63 48,-20 35,-3 48,-52 -49,3 -225,83 -269,115z"/> <path class="fil0" d="M5715 5267c78,-23 153,-90 182,-153 -82,8 -155,81 -182,153z"/> <path class="fil0" d="M-3658 12776c-17,-40 -1,-13 -36,-23 -33,56 -4,48 -6,100 -2,49 -8,-4 -8,45 -1,88 -8,10 15,45 67,-25 37,-163 36,-166z"/> <path class="fil0" d="M5972 9540c71,5 100,-6 145,-24 64,-27 91,-32 127,-69 -71,5 -225,47 -272,93z"/> <path class="fil0" d="M7573 7344c175,-46 192,41 289,54 -27,-25 -30,-21 -64,-45 -60,-42 -27,-70 -159,-54 -2,0 -38,6 -38,7 -38,19 -14,-7 -28,38z"/> <path class="fil0" d="M11405 8578c43,-52 19,-59 40,-100 29,-57 41,3 48,-99 -67,9 -54,20 -81,82 -22,50 -39,69 -6,117z"/> <path class="fil0" d="M10630 10593c21,30 41,38 58,63 41,59 -12,43 68,65 22,-81 -36,-149 -127,-128z"/> <path class="fil0" d="M14217 9013c0,1 -63,11 22,67 42,28 55,22 95,9l-6 -27c-31,-42 -61,-58 -111,-49z"/> <path class="fil0" d="M9458 12151c-60,37 -42,61 -29,111 15,57 -2,97 50,100 -21,-83 10,-147 -21,-211z"/> <path class="fil0" d="M1497 13112c53,-36 39,-42 70,-108 26,-56 40,-57 51,-125 -71,34 -108,144 -122,233z"/> <path class="fil0" d="M3910 11083c21,40 -13,19 47,40 119,41 65,42 128,122 9,-12 22,25 15,-41 -3,-31 -41,-60 -64,-77 -35,-27 -69,-50 -126,-44z"/> <path class="fil0" d="M-4764 12778c54,-32 29,-35 46,-97 44,-156 28,-61 9,-94 -26,21 -46,57 -58,90 0,1 -12,53 -12,54 0,65 4,30 15,48z"/> <path class="fil0" d="M6044 9358c44,47 69,23 184,4 2,0 35,-6 36,-6 24,-7 17,-5 30,-13 -7,-19 38,-56 -106,-7 -66,22 -73,13 -144,22z"/> <path class="fil0" d="M10117 9128c-111,-56 -102,-11 -106,-8l21 29c3,3 15,8 19,10 1,1 38,15 38,15 43,11 81,6 125,5l-97 -50z"/> <path class="fil0" d="M-3358 12781c39,-27 55,-83 46,-136 -11,-63 1,-27 -35,-43 -24,48 -28,123 -11,179z"/> <path class="fil0" d="M6648 5282c4,-3 9,-12 11,-9l121 -122c43,-30 27,4 56,-42 -45,-17 -83,32 -108,59 -61,63 -114,22 -79,114z"/> <path class="fil0" d="M7976 8607c42,82 70,18 79,-42 56,0 88,-3 128,-28 -69,-34 -161,22 -207,69z"/> <path class="fil0" d="M2993 11453c-29,-35 -91,-50 -122,-62 -88,-36 -67,-62 -124,-33 30,14 89,38 131,65 32,20 67,62 115,30z"/> <path class="fil0" d="M2036 12264c75,-13 136,-115 104,-168 -17,23 -34,56 -53,80 -35,46 -35,18 -51,88z"/> <path class="fil0" d="M4902 11242c-55,-184 -207,-108 -48,-16 26,15 14,13 48,16z"/> <path class="fil0" d="M6890 6188c26,-56 -11,-105 -80,-91 1,60 15,103 80,91z"/> <path class="fil0" d="M9365 6318c6,-56 -43,-181 -62,-206 -15,-20 -9,-9 -24,-21 -29,59 11,41 56,173l30 54z"/> <path class="fil0" d="M-3264 12694c28,-36 44,-92 15,-137 -1,0 -74,-9 -39,97 17,53 13,24 24,40z"/> <path class="fil0" d="M10983 10777c55,0 66,-7 109,-27 67,-31 47,-2 65,-65 -56,13 -51,24 -92,40 -12,5 -52,13 -54,14 -56,30 -6,-7 -28,37z"/> <path class="fil0" d="M3176 11433c35,83 -10,35 159,48 86,7 49,40 172,29l-331 -78z"/> <path class="fil0" d="M7564 10183c75,-9 60,-35 194,-99l62 -45c-72,8 -239,115 -256,144z"/> <path class="fil0" d="M4353 10782l231 -65c-21,-13 4,-16 -47,-10 -78,10 -147,23 -184,75z"/> <path class="fil0" d="M5154 8089c17,-45 -2,-121 -42,-153 -7,9 -56,-30 2,87 14,28 25,47 40,66z"/> <path class="fil0" d="M6525 5434c95,-6 116,-47 117,-133 -27,27 -31,42 -51,64 -43,47 -36,0 -66,69z"/> <path class="fil0" d="M-981 11678c51,25 37,15 81,6l19 -72c-68,25 -35,26 -99,12l-2 54z"/> <path class="fil0" d="M-4346 12478c15,65 41,59 101,36 -9,-40 6,-40 -33,-52 -25,-7 -59,7 -68,16z"/> <path class="fil0" d="M8688 8596c-18,-41 -56,-76 -107,-88 -5,84 20,80 107,88z"/> <path class="fil0" d="M7236 10882c28,62 12,35 68,48 43,10 22,12 77,23 -21,-57 -76,-74 -145,-72z"/> <path class="fil0" d="M3001 10662c33,-25 29,-31 58,-68 31,-38 33,-14 28,-103 -23,16 -8,-9 -36,39l-49 132z"/> <path class="fil0" d="M3507 10981c-17,-42 -72,3 -103,17 -112,52 -83,18 -94,62l197 -79z"/> <path class="fil0" d="M9329 7280l52 16 -14 -135 -34 57c-20,48 -21,10 -4,63z"/> <path class="fil0" d="M7798 8214l70 12 2 -84c-52,14 -75,16 -73,72z"/> <path class="fil0" d="M5599 4637c-1,-48 -2,-44 -15,-82 -20,-59 -2,-40 -41,-53 -22,51 21,112 56,135z"/> <path class="fil0" d="M10175 9035c4,10 -21,32 63,41l79 -3c2,0 7,0 9,-4 1,-3 5,-3 7,-5 -42,-16 -112,-38 -158,-30z"/> <path class="fil0" d="M11188 10639c50,-27 83,-76 64,-123 -31,16 -47,12 -64,123z"/> <path class="fil0" d="M12881 9343c54,32 94,45 167,45 -38,-52 -144,-60 -167,-45z"/> <path class="fil0" d="M-2684 7741c-7,-58 -15,-75 -32,-113 -3,3 -47,-26 -25,64 8,30 32,36 57,49z"/> <path class="fil0" d="M8886 12401c94,-1 91,-77 82,-165l-14 99 -71 33 3 32z"/> <path class="fil0" d="M2879 11981l-20 -124c-13,-27 -7,-15 -29,-34l32 206c12,-14 6,9 14,-23 1,-4 2,-20 3,-25z"/> <path class="fil0" d="M9327 12133c-45,-28 -24,-17 -84,-20 3,35 -2,51 38,60 53,11 35,2 46,-39z"/> <path class="fil0" d="M11268 9646c51,34 86,50 134,16l13 -10c-106,-4 -35,-1 -93,-31l-53 25z"/> <path class="fil0" d="M2936 11295c-28,-17 -29,-15 -54,-18 -13,69 44,62 98,70 -15,-33 6,-22 -44,-52z"/> <path class="fil0" d="M8477 9370c-51,-51 3,10 -87,-38 -33,-17 33,0 -40,-18 12,32 43,71 82,74 81,5 24,-2 45,-17z"/> <path class="fil0" d="M8723 9398l87 1c-10,-24 -22,-61 -30,-78 -24,10 -21,4 -57,77z"/> <path class="fil0" d="M9811 8364l2 -97c-69,34 -93,71 -2,97z"/> <path class="fil0" d="M9270 11943c17,35 7,37 23,66 14,25 10,15 28,26 55,-82 -15,-85 -51,-92z"/> <path class="fil0" d="M13400 7927c9,14 11,69 91,14 -13,-28 28,-20 -31,-32 -43,-9 -52,12 -60,18z"/> <path class="fil0" d="M10098 9093c5,5 7,22 43,31 28,8 49,3 78,1 -35,-38 -65,-65 -121,-33z"/> <path class="fil0" d="M10340 9010c-38,-37 -28,-34 -90,-20 15,39 -16,37 43,42 68,6 45,-21 47,-22z"/> <path class="fil0" d="M-1336 11697c23,-39 30,-62 3,-106 0,0 -28,11 -30,56 -1,39 7,34 27,50z"/> <path class="fil0" d="M6948 10939c38,19 98,20 139,5 -16,-17 24,-33 -68,-22 -23,3 -57,12 -72,17z"/> <path class="fil0" d="M10475 11494c87,-4 43,48 104,-22 -111,-36 -93,3 -104,22z"/> <path class="fil0" d="M6824 11018c65,-1 57,-7 74,-61 -64,6 -74,-2 -74,61z"/> <path class="fil0" d="M14005 9166c24,25 3,50 104,17 -34,-32 41,-21 -52,-29 -10,-1 -47,9 -52,12z"/> <path class="fil0" d="M558 10136c34,16 28,16 76,3 54,-14 48,-18 67,-39 -63,-2 -95,19 -143,36z"/> <path class="fil0" d="M10891 9662c102,-3 90,6 139,-41 -54,-2 -96,5 -139,41z"/> <path class="fil0" d="M3113 11494c25,43 33,43 101,46 -31,-48 -59,-64 -101,-46z"/> <path class="fil0" d="M1476 13299c0,0 -7,34 58,8 52,-21 28,-22 40,-40 -53,2 -63,1 -99,32z"/> <path class="fil0" d="M8664 6174c-5,12 -29,-20 -4,26 19,35 63,34 94,35 -33,-49 0,-4 -50,-39 -19,-14 -16,-25 -40,-22z"/> <path class="fil0" d="M-3714 12224l7 -60c-40,-1 -50,-12 -54,25 -4,38 17,35 47,35z"/> <path class="fil0" d="M10302 8087c1,1 -13,45 58,17 20,-8 32,-38 34,-42 -64,3 -45,12 -92,24z"/> <path class="fil0" d="M9304 7052c14,55 -13,40 59,42 -1,-54 -7,-70 -59,-42z"/> <path class="fil0" d="M4768 10394c17,-2 35,2 52,-6 63,-31 11,1 37,-41 -46,4 -77,-2 -89,48z"/> <path class="fil0" d="M4607 10421c8,6 19,51 95,-3l17 -14c2,-2 6,-5 9,-8l-121 25z"/> <path class="fil0" d="M6983 12921c8,61 12,67 61,48 -19,-42 -8,-29 -61,-48z"/> <path class="fil0" d="M1721 13160c1,0 -13,40 43,2 27,-18 19,-21 31,-46 -44,12 -47,17 -75,44z"/> <path class="fil0" d="M7903 9995c43,1 52,-2 72,-41 -51,-1 -63,-9 -72,41z"/> <path class="fil0" d="M-666 11712c0,-1 20,-7 23,-36 1,-15 -5,-28 -9,-40 -1,1 -57,10 -14,76z"/> <path class="fil0" d="M4780 11369c33,28 49,28 82,64 20,-41 -55,-69 -59,-70 -48,-12 -3,-2 -23,6z"/> <path class="fil0" d="M5828 4429c11,5 -4,9 37,13 68,7 43,-6 54,-13 -18,-10 -50,-29 -92,0z"/> <path class="fil0" d="M-1904 9147c26,-16 65,-40 2,-62 -22,34 -14,34 -2,62z"/> <path class="fil0" d="M-362 11686c24,-39 32,-34 1,-76 -27,32 -29,40 -1,76z"/> <path class="fil0" d="M12462 9259c39,22 52,15 103,7 -36,-21 -63,-30 -103,-7z"/> <path class="fil0" d="M-1579 11258c43,48 34,27 69,30 -54,-84 -69,-30 -69,-30z"/> <path class="fil0" d="M-1792 11091c33,-12 24,2 36,-22 20,-40 -7,-41 -8,-42 -31,29 -20,2 -28,64z"/> <path class="fil0" d="M11352 9731c54,47 48,20 67,-16 -74,0 -64,13 -67,16z"/> <path class="fil0" d="M4034 9754c48,0 58,-11 78,-50 -51,16 -52,15 -78,50z"/> <path class="fil0" d="M2005 11617c60,0 43,8 50,-40 -56,6 -37,-3 -50,40z"/> <path class="fil0" d="M-574 9773c18,13 -7,19 32,15 54,-5 13,-3 31,-15 -6,-5 14,-45 -62,0z"/> <path class="fil0" d="M14057 7774c20,41 3,41 56,18 -22,-39 -15,-36 -56,-18z"/> <path class="fil0" d="M9894 6300c29,-11 68,-30 77,-77 -43,29 -53,41 -77,77z"/> <path class="fil0" d="M5257 8072c-3,-51 9,-34 -20,-72 -38,26 -5,49 20,72z"/> <path class="fil0" d="M10027 7996c7,3 -24,39 27,10 31,-18 8,-1 27,-44 -24,11 -40,11 -55,34z"/> <path class="fil0" d="M7188 10473c-27,8 -6,2 -15,22 36,19 30,19 50,-14 -5,-3 18,-25 -35,-8z"/> <path class="fil0" d="M8783 8498c-21,-41 -14,-37 -61,-46 20,31 -4,10 19,28 25,20 -11,1 42,18z"/> <path class="fil0" d="M-3867 12542c12,-9 39,6 18,-29 -21,-37 10,0 -34,-25l15 54z"/> <path class="fil0" d="M9386 12188c-18,-28 50,-18 -36,-25 7,20 2,71 36,25z"/> <path class="fil0" d="M11482 10064l24 15c72,-7 -12,24 31,-15 -18,-14 36,-47 -55,0z"/> <path class="fil0" d="M9202 7968c31,15 33,4 47,-26 -74,-4 -31,6 -47,26z"/> <path class="fil0" d="M-352 9995c8,5 -19,49 47,0 -17,-17 15,-10 -27,-14l-21 14z"/> <path class="fil0" d="M2043 11536c12,-21 17,-2 0,-55 -5,2 -9,7 -11,9 -1,2 -7,7 -8,9l-2 17c0,3 20,17 22,19z"/> <path class="fil0" d="M-498 9842l45 17 -13 -45c-64,20 -8,4 -32,28z"/> <path class="fil0" d="M7299 10647c22,16 -4,11 34,14 3,0 9,-1 11,-5 2,-5 7,-6 11,-9 -26,-17 -26,-18 -55,0z"/> <path class="fil0" d="M3038 11397c35,21 -45,11 35,16 58,4 5,2 28,-18l-63 2z"/> <path class="fil0" d="M5433 11244c33,19 11,14 63,9 0,0 -31,-15 -31,-15 -52,-11 -9,-9 -32,6z"/> <path class="fil0" d="M-1478 11314c53,36 -17,13 35,13 67,-1 -31,36 21,-20 -29,-9 -1,-7 -35,-4 -3,0 -9,8 -11,5 -2,-4 -7,4 -11,7z"/> <path class="fil0" d="M8932 6560c18,-27 12,-13 -1,-50 -6,13 -17,1 -8,39 8,35 0,4 9,11z"/> <path class="fil0" d="M9543 12181c-1,0 -53,-18 0,35l7 -25c0,-6 -5,-7 -7,-10z"/> <path class="fil0" d="M-2849 8513c46,-12 20,5 38,-38 -77,35 -6,11 -38,38z"/> <path class="fil0" d="M7765 10364c39,-51 0,-32 0,-33 -15,24 -27,13 0,33z"/> <path class="fil0" d="M8932 8717l7 -21c0,-1 -5,-6 -7,-9 -1,2 -57,26 0,30z"/> <path class="fil0" d="M13980 7860c43,-12 15,6 29,-35 -80,31 3,6 -29,35z"/> <path class="fil0" d="M9366 8728l47 -27c-32,-3 -43,-4 -47,27z"/> <path class="fil0" d="M12659 9281c43,37 31,10 38,6l-38 -6z"/> <path class="fil0" d="M10214 8367l30 -4c-13,-10 -27,-10 -30,4z"/> <polygon class="fil0" points="-445,11674 -424,11627 "/> <path class="fil0" d="M4599 9131c14,17 0,0 -41,-50 -972,13 -2906,571 -5707,1678 65,24 97,36 97,36 2803,-1096 4687,-1651 5651,-1665z"/> <path class="fil0" d="M13906 9599c-47,14 -71,21 -71,21 -152,-97 -785,-240 -1898,-429 39,-25 65,-44 77,-57 1129,233 1760,388 1892,465z"/> </g> </svg>