<?xml version="1.0" encoding="utf-8"?>
<!-- Generator: Adobe Illustrator 23.0.1, SVG Export Plug-In . SVG Version: 6.00 Build 0)  -->
<svg version="1.1" id="Layer_1" xmlns="http://www.w3.org/2000/svg" xmlns:xlink="http://www.w3.org/1999/xlink" x="0px" y="0px"
	 viewBox="0 0 936 598.5" style="enable-background:new 0 0 936 598.5;" xml:space="preserve">
<style type="text/css">
	.st0{fill-rule:evenodd;clip-rule:evenodd;}
</style>
<g id="Layer_x0020_1">
	<path class="st0" d="M508.4,460.1c1.1,1.7,1,1.5,0.4,2.6L508.4,460.1z M489.7,453l0.2-4.1c2.1,1.2,1.1,1.3,1.2,4.7
		c2.6,0.1,0.4-0.3,1.3,1.2c-0.7,0.3,0.4-1-1.1,0.9L489.7,453L489.7,453z M508.2,450c4.8,1.9,1.6,5.6,5,8.6c2.9,2.5,3.5,3.5,5.8,7.3
		l-12.7,0c-1.4-1.9-2.1-3.7-2.2-6.8c1.6,2,1.2,2.7,2.6,5l5.8,0.3c-0.7-2.4-1.4-5.7-1.8-7.8C510.1,453.5,509.3,452.6,508.2,450
		L508.2,450z M501.9,454.5c0.1-0.1,0.3-0.6,0.3-0.4l1.2-2.5l0.4,4c-0.2,0.1-0.4,0.4-0.5,0.4c0,0-0.2,0.2-0.3,0.3
		c0,0-0.3,0.2-0.3,0.3s-0.2,0.2-0.4,0.3l0.2,5c-1.7-3.3-3.4-14.6-0.1-17.1c1.3,1.6,1.6,2.1,0.5,4.1
		C501.5,451.5,501.6,450.4,501.9,454.5z M499.2,443.2l-0.4-3.5l1.8,0.1C500,441.7,499.8,440.6,499.2,443.2L499.2,443.2z M552.1,428
		l2.5-1.3c1.1,2.1,0.9,1.2,1.7,2.6c-4,1.7-11.7,6.9-13.2,2.9c1.8,0,4.2-0.1,5.8-0.8c0,0,4.6-2.3,5-2.5L552.1,428L552.1,428z
		 M545.4,427.7c0.5-0.7,0.9-1.6,2.6-2.2c4.2-1.5,4,0.3,4,0.3L545.4,427.7z M544.2,424.6c1.3-1.4,4.1-1.7,5.1-1.2
		c-1.4,1.1-0.7,0.2-2.5,0.8C545.5,424.6,546.4,425.3,544.2,424.6z M544.3,421.2c1.3-0.8,2-0.8,3.2,0.3L544.3,421.2z M496,417.4
		c1.7-0.3,0.8-0.7,1.2,0.7C496.3,417.8,496.7,418,496,417.4z M488.9,408.1c3.4-0.2,6.7-0.4,10-0.7c3.7-0.3,5.6,0.5,9.8,0.5
		c1.2,1.7,0.2,1.3,1.9,2.8l1.7-1.5l0.9,2.6l2.1,0.3c-0.8,1.9-0.7,0.7-2.5,2.4c-1.3,1.2-1.1,1.7-2.3,3c-2.7,0.2-9.2,0.9-10.9-0.3
		c2.9-2.4,4.1,1.9,5.4-2.5c-3.2-1.2-1,2.4-6.8,0.1c-1.8-0.7-5.7,0.1-8.9,0L488.9,408.1L488.9,408.1z M543,412.2c0.8-2.4,4.3-2.3,7-4
		c2.9-1.8,4.3-3,8.2-3.1l-11.3,6C545.4,411.7,544.7,412.8,543,412.2L543,412.2z M591,399.6c1.7-0.6,1.2-1,4,1.3c1,0.8,0.5-0.2,1,1.3
		C589,401.3,591.7,400.4,591,399.6z M593,396.7c3.6,0.1,4.2-0.3,4.4,2.8c-1.4-0.7-1-0.6-2.1-1.2l-1.7-0.8
		C593.4,397.4,593.1,396.8,593,396.7L593,396.7z M586.8,395.2c1.7,0.6,2.1,2.1,2.3,3.5c-1.5-1.6-0.9-0.2-2.1-1.6
		C586.1,396.2,586.2,396.1,586.8,395.2z M584.3,390.8c2.1,2.7,0,1.7,0,1.7C584,392,582.8,392.1,584.3,390.8z M687.9,385.6
		c1.6,1,1.4,0.8,0.6,2.4c-0.4-0.2-0.7,0.2-1-0.8C686.7,384.8,687.6,385.9,687.9,385.6z M603.1,385.6c4.1-2.5,7-0.8,12.1,0
		c4.9,0.8,7.3,2.8,10.7,4.9c5,3,4.4,2.3,7.4,7.5c1.4,2.5,3.6,9.5,2.5,11.9c-2.9-1.3-4-6.8-7.8-10.2c-3.2-2.9-3.8-3.5-5.3-1.7
		c-2.8-0.3-3.3-1-5.8-1.7c-2.4-0.7-4.6-0.5-7.2-0.6c-1.1-0.9-1.4-1.3-2.5-2c-2.2-1.3-2-0.2-2-2.4c3.5-0.3,1.9,3.8,14.7,4.4
		c-2.9-2.7-5.8-2.1-9.8-3.6C606.5,390.8,603.9,386.2,603.1,385.6L603.1,385.6z M519.2,383.8c0.8-0.8-1-0.3,1-0.8
		c2-0.6,1.1,0.1,1.3,0.2c-0.2,0.2-0.5,0.7-0.8,0.8C518.1,384.8,519.9,384.2,519.2,383.8L519.2,383.8z M590.9,380.4
		c1.6,1.5,0.4,0.9,0.2,1.2L590.9,380.4z M684.4,381.7c0.1-2,0.5-2.1,1.6-3.6C686.7,379.8,686.1,379.6,684.4,381.7z M600.5,377
		c0.2-0.1,0.3-1.7,2.5,0C602.4,377.3,602.7,378.5,600.5,377z M621.3,373.9c0.3-0.1-0.8-1.7,3.4,0.5c1.6,0.8,2.2,0.6,2.5,2.1
		c-1.5-0.1-1.4-0.5-2.4-1.1c-0.9-0.5-0.8-0.4-1.8-0.7l-1.4-0.6C621.6,374.1,621.4,374,621.3,373.9L621.3,373.9z M614.1,373.3
		c3.3-0.1,1.7-0.5,2.5,1.3C612.6,374.3,614.9,373.9,614.1,373.3z M603.6,373.9c1.7-1.1,5.6-0.7,7.4,0c-1.4,1-1,0.8-3.6,0.6l-2.9-0.2
		c-0.1,0-0.4-0.1-0.4-0.2C603.9,374.1,603.7,374,603.6,373.9z M728.8,372c0.1,0.2,1.6,0.3-0.1,2.5c-0.5-1.2-0.5,0.1-0.4-1.3
		C728.4,371.9,728.1,372.7,728.8,372z M599.9,373.1c0.4-1.7-0.4-1.2,1.4-1.4C600.7,373.9,601,372.5,599.9,373.1z M588.9,366.7
		l1.3-0.5L588.9,366.7z M523.5,364.9c0.1,0.2,1.2-0.8,0,1.3C523.5,366.2,522.3,366.4,523.5,364.9z M613.5,362.7
		c1.1-0.6,1.2-0.3,1.6,0C612.4,364.5,613.9,362.9,613.5,362.7z M605.1,362.9c4.1-0.4,5.2-2.6,7,1.3c-3.6-0.4-3,0.6-6.1,0.7
		L605.1,362.9z M508.2,360.1c0.4-0.4,1.3-1.2,1.6-1.8c0.4-1-0.2-4.6,5.7-3.8c4,0.5,5.3,3.8,4.6,8c-1.8,1.8-2.3,0.8-3.9,2.1
		c-0.9,0.8-1.4,2.4-2.5,3.5C510.2,367.1,507.7,364.8,508.2,360.1z M627.3,361.7c4.3-1.1,2.2-0.2,5.4,0.8c0.7-0.6,0.7-1.9,3.9-1.2
		c-0.2,1.4,0,0.9-4.2,1.7C629,363.6,628.5,362.8,627.3,361.7L627.3,361.7z M620.4,361.5c1.1-1.7,1.5-0.8,1.8-0.6
		C621.4,362.1,622.1,362.3,620.4,361.5z M592.1,363.9l4.1-5l1.2,1.3c1.5,1.9-1.6,2.1-1.9,2.1C591.8,363.2,594.8,362.9,592.1,363.9
		L592.1,363.9z M640.3,360.4c2.1,0.2,2.1,0,2.2,2.1c-0.4-0.3-0.7-0.5-1.1-0.9C641.3,361.5,640.4,360.5,640.3,360.4L640.3,360.4z
		 M612,360.2c-0.2,0.1-0.6,0.3-0.7,0.3c-1.1,0.1-0.3,0-0.9-0.3C611.8,358,611.5,359.7,612,360.2z M458.2,359.3
		c5.1-0.4,3.4-2.1,7.5-2.5c-0.3,2.9-0.4,0.9-5.4,5.3c-2.8,2.5-11.2,8.2-15.3,7.5c-5-0.8-5.2,1.5-9.3,1.1l-0.1-2.3
		c2.5,0.6,2,0.8,4.2-0.1c2.8-1.1,2.4-0.4,5.4-0.9c1.1-0.2,3.2-0.4,4.5-1l2.8-1.5c0.7-0.5,0.3-0.3,1-0.9c-4.3,0.3-8.6,2.4-10.7,2.9
		c-1.5,0.4-3.2,0.2-4.8,0.3c0.8-1.9,0.7-1.5,3.3-1.9l0-2.8c4.5-1.1,16-5.6,18.8-5.6L458.2,359.3L458.2,359.3z M601.3,355
		c-0.1,2,0.3,1.5-2.1,1.3L601.3,355z M604.1,352.9l-1.6,0.1c0-0.2,0.7-0.5,0.7-0.5C604.3,352.2,603.6,352.5,604.1,352.9L604.1,352.9
		z M606.2,354.5c0.1-1.7,3.6-7,8.1-4.8C613.4,352.9,610.4,354.1,606.2,354.5z M622.2,352.9c3.7-1.2,1.2-2.7,4.6-3.6
		c-0.4,2.7-1.3,1.9-2.6,3.7c-1.4,2-0.4,2.6-2.7,3.9C622.2,354.5,622.6,356.5,622.2,352.9z M603.5,356.9c6.5-0.4,7-0.4,10.8-3.8
		c1.5-1.3,7.1-3.5,7.9-4.8c-0.6,2.6-7,5.4-9.3,7.1l-11.6,5.7C601.9,358.7,602.1,358.2,603.5,356.9L603.5,356.9z M633.9,345.3
		l-0.2,4.3c3.8-0.8,1.6-2.8,9.5,1.9c2,1.2,3,3.1,3.5,5.6c-5.2-0.7-7.3-0.3-12.2,0.8l-5.5,1.2c-2.8,0.5-2,2.1-5.1,2.5
		c0.5-1.4,0.3-0.8,1.3-1.8l4.5-6.2C636.4,344.1,628.9,346.9,633.9,345.3L633.9,345.3z M616.7,347.2c0.7-1.7,4-2.9,4.2-2.9
		c2.5-0.3,0.3-0.1,1.3,0.5c-0.4,2,0,1.7-2.7,2.4C617.8,347.7,617.9,347.9,616.7,347.2z M667.1,345.7c-0.6-2.4-0.7-1.1,0.9-2.5
		L667.1,345.7z M658.7,337.1c3.7,2.4,4.1,9.4,2.9,13.8l0.8,0.6c0.2,0.2,0.7-1.4,1.1,2.8c2.2-0.3,1.2-0.4,2.3,0.2
		c-1.2,4.1-0.1,3.9,0.9,6.8c-5.2-0.8-4.3-4.9-8.1-4.8c-2.4,5.4,9.2,7.9,11.6,8.7c6,1.7,13.1,0.9,19.8,0.8c-0.4,2.5-4,3.3-6.3,4.3
		c-4.4,2-3.4,2.5-9.1,0.9c-3.2-0.9-5.7-1.7-8.5-2.6c-1.7-0.5-3-0.4-4.5-1.1c-13.8-6.3-6.8-8.4-13.2-14.7c-7.6-7.5-11-5.9-14.2-8.6
		l2.7-5.9c0.9-0.9,5-1.3,6.8-1.9C646.4,335.8,655.7,336.1,658.7,337.1L658.7,337.1z M626.2,340.1c1.1-3.4,0.7-1.3,2.7-3.4
		c1.7-1.7,0.2-1.6,3.2-2.4l-1.3,3.6c3.2,6.1-0.8,5.1-2.2,5.6c-2,0.7,0.2,0.2-2,1.2c0.2-4.2,1.8-2.4,2.6-5.5L626.2,340.1L626.2,340.1
		z M608.4,331.9c2.9,0.4,5.4,1.6,7.5,1.9l8.3,0.8c0,0.9-1.7,3.8-3,4.9c-1.8,1.6-4.1,1.1-7.1,1.6c2.3,1.4,1.6,0,2,1.8
		c-2.3,1.5-1.4,0-3.5,2.4c-1.3,1.5-1.3,1.7-3.9,2.3c0.5-4.8,5.8-5.1,4.6-12.4l-8.2,1.1C604.8,333.5,606.3,333.4,608.4,331.9
		L608.4,331.9z M460,341.3c4.4-4.6-2.9-5.7,10-7.5c-0.3,1.7-0.3,2.2-1.4,3.3c-1.1,1.2-0.9,0.5-2.7,1.5
		C463.8,339.8,462.9,341.5,460,341.3L460,341.3z M646,333.4c-1,0.4-0.4,0.4-1.4-0.2L646,333.4z M656.1,333.1c-2-0.4-0.8,0.2-1.5-1.7
		C656.4,332.3,655.8,331.1,656.1,333.1z M661.7,332.7c-6.4-0.7-4.9-1.9-5.1-2.9c2.6-1.2,14.2,1.1,18.7,1.2l3.3,1.7
		c0.1-0.1,0.3,0.2,0.4,0.3l-5.4,7l2.5-7c-2.7,1.1-2.9,2.5-4.2,4.6c-1.2,1.9-0.8,1-1.9,2.4c-1.8,2.2-1.2,3.2-1.7,1.7
		c0-0.1-0.2,0-0.4,0c-1.1-1-0.8,0.3-1.2-3.1C666.1,334.1,666.7,333.4,661.7,332.7L661.7,332.7z M533.4,365.3
		c-4.1-4.6-2.4-2.1-7.9-2.2c-0.5-5-1.7-8.7-5.4-10c-7-2.5-7.9-0.8-11.5,2.3c-6,5.2-4.5,8.5,0.5,13.6c1.9,1.9,2.2,2.9,5.6,3
		c-0.6,3.9-0.1,1.1,0.6,2.1c2.1-0.8,3-2.9,4.5-4.1c1,2.2,2.1,6.7,4.6,5.1c1-0.9,1.9,0.6-0.4-3.1c-1.2-2-1.1-1.7-0.6-4.2
		c4-0.2,2.1-0.7,4.9-2.1c2.1,1.2,0.4,0.2,1.7,1.5c0.1,0.1,0.2,0.2,0.3,0.3l0.8,2.2c-1.7,2.2-3.2,2.6-4.3,5c-0.9,2-3.6,5.5-6.5,4.9
		c-4.1-0.8,0.7-5-12.1,1.4c-5.1,2.5-6.5,2-9.6,3.3c2.9,2.1,5.6-0.6,8.6-1.4c3.1-0.8,5.9-2.6,9.1-2.2c0,2.3-0.5,2.1-1.6,3.6l1.7,1.1
		c-1.2,0.8-1.1,0.4-1.8,0.8c-1.8,0.9-0.6-0.1-1.4,1.2c0.4,0.3-0.2,2.3,4.2-0.3c0.9-0.5,0.8-0.7,1.8-0.9c2.5-0.5,2.1,0.4,2.4,0.6
		l-3.1,1.4c-1.2,0.4-1.7,0.9-3.8,1l-7.4-1.8c1.2-0.7-0.2-0.4,1.6-0.4l2.3-0.2c-1.4-6-9.2,3.1-18.3-1l-7.4-6.3
		c-2.9-2-6.6-2.7-10.4-3.3c-3.6-0.6-8.5-0.8-12.5-1.3c-3.9-0.4-10.1-2-13.3,0.2c1.2,0.8-0.8,0,1.4,0.8c1.4,0.5,0.3,0.2,2.1,0.4
		c1.4,0.2,2.9,0.1,4.3,0.1c3.7,0,5,0.6,8.1,0.9c2.7,0.2,6.7-0.1,9.1,0.5c2.3,0.6,11,4,12.5,5.9c2.1,2.6,1.3,3.5,2.9,6.4
		c1.6,2.9,9.7,4.9,13.7,5.1l7.8,8.2c1.6,1.2,2.1,0.9,2.4,3.5c-1.7-0.7-2.1-1.4-3.3-1.9c-2.1-0.8-2.1,0-4.4-1.2
		c-3.5-1.7-5.6-0.7-9.3-0.1c-7,1.1-14.8,1.2-21.4-0.1l-1.1,2c-5.9-0.6-7.2-3.5-12.7-4.7l2.4,2.8c1.8,1.2,2.5,0.7,4,1.5
		c1.4,0.7,1.9,1.4,3.5,2.1c2.9,1.2,1.5-0.3,3.2,2.3c6.3,0,2.1-1,7.1,1.7c3.8,2.1,3,0.9,5,5c1.6,3.3,1.7,3.3,2.5,7.3
		c0.6,3.1,0.6,6.5-0.4,9.2l3.1,0.9l0.4,4.6c-1.6-1.7-2.6-6.7-12.5-7.2c-4.3-0.2-17.1-0.9-14-6.2c0.9-1.5,0.3,0,0.9-1.6
		c-4-3.9-4-3.4-9.3-1.7c-1.5-1.4-0.7-0.8-1.7-2.2c-2.1-2.9-3.4-4.5-4.7-8.3c-1.2-3.4-0.9-2.8-3.3-4.8c-1.5-1.2-2.1-3.4-3.4-5.2
		c-3.3-4.6-6.3-7.5-11.3-9.7c-0.7-0.3-1.7-0.8-2.8-1.2l-4.9-1.7c-1.8-1.1-0.7-0.5-1.3-1.2c0.8-1.1-0.1-1,2.1-1.6
		c5.6-1.5,19.4-0.8,25.3-0.7c6.2,0,11.3,3.3,16.6,5.6c3.8,1.7,1,2.2,4.9,3.1c-0.5-4.1-3.8-4.8-7.5-6.2c-2.8-1-6.2-3.3-9.1-3.9
		c-6.2-1.2-21.2,1.2-25.6,0.1l-0.6-2.7c1.2-1.2,1.1-2,3.2-1.2l0.3-4.5c7.2-1.3,3.3-3.8,9.7-5c0.8,0.9,0.5,0.1,1.2,1.8
		c9.1-0.6,19.2-10,23.6-14c5.3-4.9,9.3-9.6,12.5-16.1c1.4-3,1.4-4.7,2.5-7.5c2.9-1,3-0.9,5.4-2.1c2.7,1,2.4,1.4,6.1,0.6
		c3-0.7,3.9-0.8,7.5-0.8c10-0.2,22.3-1.4,32.2-2.7c5-0.7,10.6-1.2,15.9-0.9c1.2,4.3-3.7,5-7.1,19c-0.8,3.3-1.6,6.9-3.1,9.9
		c-1.1,2.2-4.1,6.5-6.2,7.4L533.4,365.3z M652.8,328.9c0.4-3.4,0.2-2.9,2.7-4.1C655.6,327.9,656.7,328.4,652.8,328.9z M609.2,328
		c1.7-1,4.1,1.1,5.1,2.2C612.4,330.1,610.4,329.2,609.2,328z M645,327.4c0-1.7,0.6-0.4,0.8,0C646,328,645.1,327.9,645,327.4z
		 M673.5,325.5c-1.1,1.3-0.2,1.5-1.6,0.4L673.5,325.5z M663.8,323.7c1.1-0.6,1.2-0.4,2.8-0.7c2.7-0.4,1.2-0.8,2,0.7
		C666.5,324.7,665.1,324.7,663.8,323.7z M646.5,324.9c0.9-1.7,1.2-1.9,3.7-1.7C649.6,324.9,648.8,325.6,646.5,324.9z M674.6,322.4
		c-0.9,0.6-0.2,1.2-2.1,0C672.9,322.1,672.9,319.6,674.6,322.4z M680.2,320.4c0.4,0.4,1.6,0.6,1.6,2.2
		C680.3,322.5,679.9,322.2,680.2,320.4z M686.9,319.5l-1.3,0.4L686.9,319.5z M658.4,322.6c1.7-0.3,1.3,0.3,0.8-2.6l-4.3-0.4l2.5-1.5
		c1.7,0.5,2.6,1,4.3,1.3c5.5,1,2.6,0.2,3.6,1.2l-3.5,0.1c-0.7,0.8-0.6,0.3-1.3,2L658.4,322.6L658.4,322.6z M691.2,317.7
		c0.2-0.6,0.2-0.8,1.5-1.5c2.1-0.9,1.3-0.2,1.6,0C691.9,317.1,693.1,316.3,691.2,317.7L691.2,317.7z M636.3,335
		c-2.5-0.8-1.8-0.8-0.8-3.5c2.3-6.3,1.9-2.7,5.4-5.8l9.2-8.2c1.8-2.4,2.8-4,5.3-5.4c0.2,2.1-1,3-2.3,4c0.2,2.4,1.7,2.6-5.1,6.1
		c-7.5,3.8-3.6,4.3-6.1,6.3c-1.2,0.9-2,0.1-4.3,3.7L636.3,335L636.3,335z M631.3,307.9c2.3,0.7,2.5,3.5,6.7,5.8
		c0.4,3.2-0.5,7.2-1.6,9.4c-6.4,1.3-11.8-7.2-10.6-14.9L631.3,307.9z M698,314c1.4-0.9,2.1-1.6,4.3-1.9C701,313,700,314.2,698,314z
		 M640.9,316.2c1.1-2.3,2.8-4,6-5C645.8,313.6,644.4,315.4,640.9,316.2z M702.9,317.2c2.8-1.1,1.2-2.1,4.9-3.4
		c3.5-1.2,15.1-7.1,17.5-6.7c-0.9,2.1-8.5,4.1-10.9,5.2C711.8,313.5,705.2,317.2,702.9,317.2L702.9,317.2z M639.2,308.2
		c0.3-0.9,1.6-1.1,1.9-1.2C640.6,308.4,640.5,308.8,639.2,308.2z M718.5,312.9c4.5-1.9,10.4-5.8,15.4-6.8c-1.2,2.1-12,6.8-14.7,8
		c-2.8,1.3-14.2,5.8-15.8,5.5L718.5,312.9L718.5,312.9z M700.9,309.7c2.5-1.5,3.1-2.9,7.1-2.6C706.1,308.6,703.9,309.7,700.9,309.7z
		 M580.1,316.8c0.6-1.4,1.3-1.7,1.7-3.7c0.3-1.3,0.2-3.6,0.2-5l-2.5-1.9c1.7-1,2.9-0.9,4.5-1.2l3.5,2.4c-0.6,2.5,0.8,0.3-3.1,3.4
		c4-0.1,2.4-2.9,7-2c-0.3,1.3,0.6,1-2.9,2.4c-1.9,0.8-2.4,0.6-4,2c5.2-0.1,5-2.4,10.4-2.8c-0.4,3.1,0,2.5,0,4.9l-2.3,0.8l2.8,0.9
		c-1.5,1.3-4.7,1.3-7.2,3.4c1.3,0.6-1.8,1.1,1.8,0.4l4.5-1.7c0.6,0.1,4.5,3.3,4.8,5.9c-4.2,0-8.7-0.8-13.2-0.1
		c-4.3,0.6-8.8,1-11.8-0.9c1.6-8.2,5.8-5.2,8.4-5.5c0.1,0.1,0.2,0.3,0.2,0.4l1.6,2.2c1.3-0.6,0.1,1.2,1.3-1.7l3.4-0.5v-3.1
		c-4.5,0.7-3.8,1.6-5.9-0.3C581.3,317.2,583.1,316.7,580.1,316.8L580.1,316.8z M521.2,306.1c-0.1,0.6,1.2,0.4-1.3,0.5L521.2,306.1z
		 M637.9,306.6c0.4-1.6,0.1-1.1,1.5-1.1L637.9,306.6z M646.3,306.7c0.2-1.3,0.7-1.2,1.9-1.5L646.3,306.7z M495.6,305.4l-2.4-0.3
		C493.5,305,493.6,302.4,495.6,305.4z M727.6,305l-2.8-0.9c0,0,2-0.6,2.7-0.7c0.6,1,0.4,1.1,2.1,1.8
		C727.6,306.5,728.3,305.3,727.6,305L727.6,305z M708.6,303.8c1.9-1.7,4.8-0.7,6.7,0.6C713.1,304.5,710,305.1,708.6,303.8z
		 M666.7,310.5c0.2-4.2,3-6.1,6.5-8C672.8,305.6,668.5,309.6,666.7,310.5z M665.5,301.7c1.1,0.5,1.9,0.9,2.9,1.4
		c-0.4,2.1-1,3.1-2.9,4.5c-1,0.8-1.3,0-2,1.8c-0.9,2.5,1.7,0.8-1.8,3.5c-0.6,0.5-0.8,0.6-1.4,1.1c-1.2,1-1.4,1.4-3.5,1.2
		c2.1-4.4,4.8-0.6,6.3-8.1c-1.8,0.8-0.8,0.9-2.7,0.2L665.5,301.7L665.5,301.7z M718.9,303.8c2.9-2.5,3.5-0.6,3.5-0.6
		C722.4,303.2,722.5,305.1,718.9,303.8z M641.3,303.8c0.8-0.8-0.3-1.7,2.3-0.5c0,0,0.6,0.6,1.7,0.8c-1.5,1-1.3,0.6-2.5,0.1l-0.8-0.3
		C641.9,303.8,641.5,303.8,641.3,303.8L641.3,303.8z M505.6,300.7l0.6-0.4c2.1-0.5-0.5-0.4,0.6,0.6L505.6,300.7L505.6,300.7z
		 M647.7,315.3c2.5-3.2,1.1-1.5,1.8-4c0.5-1.9,1.7-2.1,2.3-3.9c1.2-3.7-0.9-7.9,3.4-8.3c0.1,3.3-0.8,1.1-1.3,4.6
		c2.6-1,0.9-1.1,3.3-1.7C658.4,307.4,651.6,313.2,647.7,315.3L647.7,315.3z M677.9,301.2c7.5,0.8,6.1-2,12.1-2.7
		c-0.8,2.8,0,1.6-2.9,2.6c-1.7,0.6-1.7,0.8-3.4,1.5c-3.4,1.4-3.5,1.2-7.5,1.8c-2.3,2.2-0.3,2.2-3.7,3.3c0.4-2.6,0.4-2.5,2.4-4
		C676.2,302.8,676.5,302.2,677.9,301.2L677.9,301.2z M631.4,298.7c0.9,1.5,0.2,0.8-0.3,1.2L631.4,298.7z M670.2,298.9
		c1.7-1,2.5-0.4,4.4-0.9c2.1-0.5,1.2-1.6,2.8,0.3C675.3,299.9,672,299.8,670.2,298.9z M599.2,302c-0.8-1.8,1-0.5-1.7-3.8l0.7-0.8
		c1.6,0.4,0.7,0.5,2.4,0.8c1.8,0.3,1.3-0.4,2.8,0.7C602.7,300.2,601.8,300.8,599.2,302z M628.4,297.5c-2.6,3.8-6.5,8.2-7.1,14.9
		c-0.3,3.4,0.4,7.5,2.4,9.1l6.5,3.7c0.1-0.1,0.3,0.2,0.4,0.4c-1.7,1,2.3,0.8-2.1,0.7c-2.1-0.1-2.5-1.9-5.5-1.9
		c1.2,4,2.7,0.1,3.5,4.6l3.1,0c-2.1,1.9-1.9-0.3-1.7,3.6c-0.7,0-2.4,0.3-3.1,0.1c-1.7-0.3-0.4-0.1-1.3-0.8c0.1-0.1,0.3-0.2,0.4-0.3
		c4.2-1.8,1.4,1.7,2.7-1.5l-0.2-1.1c-2.5-0.4-7.7,0.4-10.1-0.3c-6.8-1.8-6.9-5.6-9.4-1.3c-6.1-2.5-9.6-18-5.2-23.5
		c0.5-0.6,2.1-2.2,2.7-2.8c1.4-1.3,1.6-1.4,3.7-1.4c3.8,5.6,1.9,2.7,1.1,7.1c-0.3,1.5,0.3,3,0.1,4.9c-2.4,1.2-3.7,1.1-4.4,4.2
		c3.6-0.6,1.3-1.6,5-2c2.1,2.8,0.6,4.1,3.3,3.5l0.1-1.2c-0.1-0.6-2.8-3.1-1-10.2c3.5,1.1,3.9,6,8.2,3.7c-0.4-2,0.3-1.3-2.4-2.1
		c-1.7-0.4-1.7-0.3-2.9-0.8c0.7-2.7,2.6-3.5,6.1-4.3l1.2-3.8L628.4,297.5L628.4,297.5z M750,301.2c3.5-0.1,3.2-3,5.1-5.1l5.9-4.4
		c4.1,1.6,5.1,5.3,8.7,7.5c1.6-0.3,6.6-2,7.2-2.6c-0.7,2-0.8,3.3-2.3,4.6c-1.1-2,0.4-1.6-2.1-1.3c-2,1.8-0.6,1.4-1.2,4.5l-29.2-2.1
		c-0.2-3.8,1.1-1.7,3.7-3.5c1.1-0.8,2.8-2.1,3.8-3.1c0.1,2.1,0.5,2.1,1.2,3.3C749.9,300.3,750.4,298.7,750,301.2L750,301.2z
		 M594.6,299.5c0.1,3.5-0.5,2.2,0.7,5c-1.9,1.6-2.1,0.8-4.4-0.3c-3.8-1.9-8.5-5.4-9-9.1l11.8,0.1
		C594.4,296.7,594.6,297.2,594.6,299.5L594.6,299.5z M769.2,295.7c0.6-1.1,1.9-1.3,3.2-0.6C771.1,296,770.6,296.2,769.2,295.7z
		 M627.8,294.5c1.4-1.6,2.7-2.4,5.1-1.2c-0.2,2.7-0.7,2.7-3.3,2.9L627.8,294.5z M636.5,295.1c1-1.1,0.1-0.6,1.7-1.2
		c2.8-1.2,3.8-1.4,5.4-0.6C642,296.8,638,295.3,636.5,295.1z M753.6,295.7c0.8-1.7,1.6-2.4,2.3-2.9
		C755.4,294.6,754.9,294.7,753.6,295.7z M744.8,296.6c0.5-0.5,1.1-1.7,2.2-2.5c2.1-1.4,1.3-0.4,2.8-2.6l-2.3,3.1
		C746.6,295.5,745.9,296.2,744.8,296.6L744.8,296.6z M767.3,293.2c-1.2-1.9-0.2-1-2.1-2.1l1.6,0.7c9.6,0,10.1-5,10.8,1.1
		C772.9,292.1,771.7,292.1,767.3,293.2z M752.7,291.6c0.6-1.8,0.6-2.2,2.6-1.2L752.7,291.6z M669.3,289.4c0.5-2.4-0.1-1.3,1.7-1.7
		C670.2,289.2,670.8,288.5,669.3,289.4z M664.1,289.2c1.2-0.8,0.8-1.2,2.4-1.9C666.3,289.1,665.6,289.2,664.1,289.2z M772.9,289.7
		c0.3-2.6,0-2.6,1.8-3.9l1,1.8L772.9,289.7L772.9,289.7z M770.4,289.4c-0.2-0.4-2,1.2,1.3-3.6C771.7,290.6,770.4,289.4,770.4,289.4z
		 M687.8,287.1c2.8,0.4,1.7,1.4,4.9,0.5c6-1.7,1.7-1.4,3.4-0.5c-1.2,1.8,0.6,0.6-2.3,1.6c-2.4,0.8-7,2.1-9.4,2L687.8,287.1
		L687.8,287.1z M819.2,285.9c1.8,1.7,0.6-0.1,1.3,2c-2.5-0.1-3.2-0.2-3.1-2.9C818.7,285.2,818.4,285.1,819.2,285.9L819.2,285.9z
		 M727.8,287.7c-1.4,0.9-6.3,2.5-8.1,3.1c-3.7,1.2-12,8.4-13.6,10.2c-6,6.9-2.8,4.9-12,10.9c-3.1,2.1-3.3,3.1-7.1,4.8
		c-3.5,1.6-5.5,2.1-9.1,2.9c-3.6,0.7-0.9,0.4-5.1,0.2c-1.3,0-2.2,0.1-3.1,0.1c-3.3-0.1-0.6,0.2-2.1-0.5c0.3-0.4-0.5-1.6,3.4-1.3
		c1.4,0.1,2.6,0.8,3.6,0.6c2.6-0.3,0.1-0.7,3.1-1.3c4.6-0.9,0.8,1.9,6.1-1.8l-3.4-2.6c-1.2-0.8-0.1,0-1-1.1l3.5-0.7
		c1.4,0,1.6,0.2,2.7,0.4c6.8,1.5,4.9,0.1,5.5-0.4c-1.2-1.3,0.9-0.4-1.7-1.2c-0.2,0-1.8-0.2-2.4-0.3c-1.7-0.3-1.8-0.8-3.8-1.2
		c2.9-1.4,4.8,1.5,11.1,1.2c-1.5-1.7-6.2-3-9.3-3.9c-2.5,0-6.2,3.4-6.2,3.4l-3.1-0.4c-1.8,1.3-0.8,0.8-3,1.8c-6.7,3,1.5,5.9,1.5,6
		c-2.6-0.2-5.9-1.3-6.7-4.2l7.6-4.9c3.6-1.7,8.2-2.1,11.3-4.2c5.8-4.1,1.8-0.8,5.9-3.1c2.7-1.5,4.6-3.2,8.1-4.1
		c1.3,1,1.8,1.6,4.1,1.7c-0.8-2.5,0.4-1.2-2-2.5c4.3-2.2,10-5,13.2-7.5c-6.3,0-14.2,7.4-17.4,7c0.5-2.1,1.9-2.6,3.3-4.1
		c3.1-3.1,3.2-2.3,3.6-4.1c-3.5,0.3-4.7,3.3-7.1,5.4c-2.8,2.4-4,4.2-7.5,5.7c-2-1-2.2-1.5-4.5-1.7c-2.7-0.3-2.7,0.3-5.1-0.9
		c1.5-0.9,1.2-0.7,3.4-0.8c7.4-0.3,10.3-4.5,16.7-7.9c6.6-3.6,19.7-2.5,23.6-0.6c-2.8,2.6-2.4-0.8-4.1,3.1
		C723.8,288.7,725.1,285.7,727.8,287.7L727.8,287.7z M860.1,285.2c0.8-1.8-1.2-0.5,5.2-2.5C864.5,284.8,862.4,286.4,860.1,285.2z
		 M848,283.5c-0.7-2.3-0.2,0.1,0.7-0.7l0.1,1.9C847,283.4,848.4,285.1,848,283.5z M824.2,284.6c1.7-1.1,6.7-2.7,9.4-2.6
		c-1.6,2.5-4.4,4.1-7.1,3.5L824.2,284.6z M698.8,284.6c0.5-1.9,2.4-1.6,4.5-2.2C702.6,283.2,700,285,698.8,284.6z M697.7,282.4
		l-4.1,1.2L697.7,282.4z M834,288.4c1.6-2.2,3.2-3,4.8-4.2c1.7-1.3,2.3-3.8,4.3-2.8c-2.8,2.3-5.6,1.9-4.2,6.7L834,288.4L834,288.4z
		 M851.2,285.5c0.3-2.9,6.8-6.7,11.3-5.5c1.2,0.3,1,0.7,1.2,0.8c-1.2,1.7,2.9-1.8-1.6,1.2c-2.9,2-2.7,2.9-5.9,3.2
		c1.3-3.1,1.2-0.7,1.6-2.9c0-0.4,0.2-0.4,0.3-0.6C852.4,282.4,854.4,285.3,851.2,285.5z M769.1,285.6c-0.8-1.7,1.7-4.2,2.2-5.5
		L769.1,285.6z M762.5,285c0.2-2.6,1.6-6.5,3.3-8.7c1.8-2.5-0.4-1.2,2.7-1.4c-0.5,2.1,0.3,1.4,1.2,3.5c-0.9,4.4-2,1.7-2.1,8.5
		c-1.5,1.2-5,2.5-6.6,2.5c-2.8,0.1-1.2-0.2-1.7-0.6c4.3-1.3,7.7-0.7,7.9-10.3C763.1,283.5,766.1,284.6,762.5,285L762.5,285z
		 M685.1,284.8c1.5-1.9,2.1-6,7.8-5.9c5.7,0,8.8-2.4,10.8-1.2c-1.3,1-7.1,1.5-9.9,3.3c-2.8,1.9-1.6,0.8-4.6,2.2
		C686,284.6,688.6,285.1,685.1,284.8L685.1,284.8z M670.3,285.2c-1-4.8,1.7-8.1,6.1-9.6c-1,4,0.7,0.5-2.1,2.7
		c-3.2,2.3-2.1,3.5-1.2,6.3L670.3,285.2L670.3,285.2z M755.7,287.3c0.4-3.7,1.9-6.6,2.9-9.5c1.3-3.7,1.3-6.4,6.9-4.8
		c-0.2,1.7-2.4,5.7-3.3,7.2c-0.7,1.2-0.9,1.9-1.5,3.3l-1.6,3.5L755.7,287.3z M810.7,278.5c8.5-0.8,7.5-6.1,14.2-7.2
		c0.4,3-2,2.8-3.3,5c-1.4,2.6-0.1,3.4-3,5c-3.2,1.7-9.7,2.4-13.5,2.2c-0.8-1.9-0.5-1-1.3-1.8c-4.8,2.4,1.7,1.7-10.1,2.2
		c3.4-2.9,4-2.5,7.6-1.9c1.9-1,3-2.1,4.7-3.3c-0.7,3.2,0.1,1,0.8,1.8C809.9,280.3,809.2,280.5,810.7,278.5L810.7,278.5z
		 M741.9,294.8c0.1-3.2,3.5-3.8,4.6-6.3c0.7-1.5,0.7-7.5,1.2-10c0.6-3.2,0.8-6.2,3.4-7.6c2.9-1.5,6.6-1.4,8.6,1.8
		c-0.5,1.2-1,1.1-1.7,2.5c-0.7,1.3-1.4,6.2-3.8,10.8c-1.2-1.5-0.7,2.1-0.9-2.1c-0.1-1.9,2.9-6.1,3.4-11.7c-3.3,1.6-2.6,3.2-3.1,6.5
		c-0.7,4.3-1.9,3.7-2.4,6.4c1.9,3.9-0.5-0.8,0.7,1.2c0.6,1-0.1-0.8,0.7,1.3c-0.1,0.1-0.3,0.3-0.4,0.4c-2.3,1.7-2.8,1.2-5.8,1.2
		C745.2,292.9,744.3,292.2,741.9,294.8L741.9,294.8z M812.5,272.8c0.8-2,1.9-2.9,3.5-4.2C815.2,270.1,814.1,271.7,812.5,272.8z
		 M823,267.7c0.9-0.7,1.4-1.1,2.1-1.6c4.7-2.9,4.6-0.9,4.6-0.8l-8.8,4.6L823,267.7z M810.3,271.8c0.4-1.9,2.3-3,3.5-4.7
		c1.2-1.6,2-3,4.4-3.8C816.9,267.7,816.6,263.8,810.3,271.8z M820.1,263.6c2.8,1.2,3.3-0.4,5.3-1.4c6.8-3.2,1.8-1.5,5.1-3
		c0.9,0.6,1.2,0.8,1.7,1.4c-2.7,1.3-10.7,5.5-13.4,6L820.1,263.6L820.1,263.6z M835,259.7l2.2-0.2l1.7,2.8l-4,1.1
		c0.7-1.4-0.8-0.6,1.1-1.2C835.6,259.5,836.8,261.3,835,259.7L835,259.7z M519.1,538h3.9l0.3-1.9c-1.3-0.9,1.9-1.7-2.2-0.6
		c-0.5-1.8-1-2.9-1.1-5l2.1-1.2c-1.1-2.6-2-0.6-3.5-5c-2.2-6.3-8-9.9-9.2-16.8c0-0.3-0.4-8.1-0.4-8.6c0.2-3.3,2.3-3.7,1-7
		c-0.8-2.3-2.3-2.5-3.1-5.4c-0.7-2.6-1.1-5.2-1.2-8.2l1.2,1.3c2.1,3.1,3,7.2,6.3,8.9l-4.6-9.5c-3.7-5.5-1.6-4.7-2.3-11.2
		c13.6-1.7,15.7,5.6,20.5,3.4l2.4-1.4c-3.2-4.9-7.1-2.1-10.1-8.8c-0.8-1.9-1.9-2.4-3.4-3.4c-3.6-2.5-0.8-4-4.2-8.1
		c-1.2-1.4-1.7-1.8-2.9-3.2c-1.5-1.7-2-1.8-3.7-3c0-2.9,0.4-5.8,1.7-8.1l0.8-1.7c0-0.1,0.2-0.4,0.2-0.4c0-0.1,0.2-0.3,0.3-0.4
		c2.5,0.6,3.3,1.5,6.3,2.3c2.2,0.6,4.2,1.7,7,2.5c1.9,0.6,4.6,1.2,6.3,2.3c1.8,1.2,2.1,3.8,4,5.1c1.9-4.2-6.5-8.2-9.9-8.9
		c-2.1-0.5-3.4-1.2-5.1-1.7c-5-1.3-1.2-1.1-9.7-4c-1.8-0.6-2-1.2-4.8-2c-2.7-0.8-1.6-1.4-6-1.2c0.8,2.1,1.9,1.9,4.1,2.5
		c1.9,0.6,3.1,1,5.1,1.6c0.7,4.3-0.5,3.7-1.5,6.7c-0.6,2-1.2,4.9-2.5,6.2c-0.3-0.4-1.6,0.7,0.4-5c0.7-1.9,1.7-3.2,2.2-5.5l-0.7-0.6
		c-0.4-0.3-0.8-0.5-1.1-0.7c-1.1-0.6-1.5-0.7-2.4-0.9l1.7,2.1l-0.8,3.7c-1.4-1-2.3-2.3-3-4.2c-1.5-3.9-0.9-1.9-4.7-2.6l-2.4-9.7
		c9.1-2.6,28.1,0.5,37.1,5.2c3.5,1.8,11.7,6,13.3,8.4c2.3,3.4,1.5,4.6,2.7,8.4c1.4,4.6-1.7,7.2,2.5,9c2-5.6-0.9-9.3-1.7-13.9
		c6.5,0.4,9.6,0.9,11-5.7c2.8-0.3,2.6,0,3.5-2.3c0.7-1.8,1.2-2.5,1.4-4.2l-4.3-2.7c-3.2-2.5-7.9-3.6-11.8-4.9c-3-1-1.2,0.3-2-1.9
		c5.7-1.6,10.4,3.4,15,5.6l4.6,1.7c0.1,0.1,0.3,0.2,0.4,0.3c1.1,0.7,3.8-0.3,5.1-0.4l2.1,3c3.9-1.7,5.3-3.7,6.4-7.2
		c-2.1-1.3-2.8-2.3-5.8-2.1c0,3.2,1.8,2.7,0.7,4.7l-5.6-5.9c-3.3-0.4-7.6-0.5-10.4,0.5c2.3,3,8.2,0.6,10.8,2.5
		c-1.2,2.4-7.5,0.5-9.7,0.2c-2.3-0.3-7.1-3-8-5.1c2.2-1.2,6.9-4.4,8.2-4.7c3.3-0.9,2.6,0.4,5.2-1.7c2.7-2.2,2.9-0.3,3.8-2.9l-4-2.5
		c0.1-0.1-0.5-1,2.1-0.4c0.6,0.1,1.4,0.7,2.1,1.1c1.9,1.1,2.1,1.7,4.2,2.6c3.4,1.5,4,0.4,5.5,3.7c1.3,2.9,0,1.2,2.1,1.8
		c2.1-3.2-1.2-5.9-4.6-7.4c-6.1-2.5-3.9-1.2-8-5.2c2.9-2,1.1-2,1-2.1c-0.4-0.2-7.2-1.3-8.6-0.4c1.5,0.8,0.8,0.2,2.2,0.6l2.1,1.3
		c-0.8,2-2.8,2.1-4.6,3.7c-7.6,6.7-2.5,3.3-10.8,6.5c-8.4,3.3,0.8,3.9-15.8,3.4c-3.1-0.1-7.5-0.4-8.4,2.5c2.9,2,10.7-3,13.9-0.4
		l4.1,0.6c-0.7,2.4-1.2,1.7-4,1.5c-0.1-0.2-0.6-0.8-0.7-0.9c-1.1-1.1-2.4-0.9-4-0.9c-1.4,2.4-0.7-0.2-1.5,2.6
		c2,4.7,8.8,3.3,13.2,2.9c-1.8,2.8-1.6,1.7-5.3,2c-3.3,0.3-3.3,0.5-6.8,0.1c-4.7-0.5-8.3,2.1-12.3-0.6c2.9-1.3,2,0.8,5.4,0l4.5-2.5
		c-1.2-3.7-7.5-1.7-11-2.7c3.5-6.2,3.6-5.1-3.1-11.1c-2.9-2.5-4.5-6.9-7.9-8.9c-1.2-0.8-2.6-1.8-3.4-2.2c-2.1-1-7.7-0.9-8.5-3
		l10.3-1.5c1.2,0.2,6.9,6.4,17.1,0c3.2-2.1,8.3,0.8,6-4.1c-0.8-1.7-0.8-0.2-0.9-3c1.3-1.2,11.3-4.8,13.7-5.1l5.1-1.7
		c-4.4-0.3-9.5,2-12.9,1.7c2.4-2.5,5.8-2.2,7.7-6.2c5-0.3,4.6-1.4,7.9-3.3c1.4-0.8,2.9-0.9,3.9-1.5l12.2-10.8c1.6-2.1,1.1-1.1,3-2.6
		c0.3,2.5-0.9,2.7-1.5,5.4c3.3-0.5,1.7-1.4,4.6-4.7c7.9-8.7,16.2-7.3,17.8-11c-6.1-0.4-10.1,3.3-14.8,5.9c-2.8,1.5-1.9,2.6-4.3,2.8
		l1.5-4.3c-5.9,0.7-6.1,6.1-9.5,9.2c-0.9,0.8-2.3,1.7-3.5,2.7c-3.3,2.9-9.8,9.7-14.5,9.8c0-4.5,2.8-4.1,4.3-7.6
		c1.4-3.4,2.5-2.4,4.2-5.1c2.1-3.4,0-2.7-0.1-2.9c-9.6,4.9-3.9,5.8-9.4,12c-3.1,3.5-6.7,8.1-10.8,10.3l9.5-14.7
		c3.7-5.1,1.5-3.7,3.2-9.2l4.6-14.6c1.5-3.5,3.1-3.9,5.3-7.1c6-8.9,9.9-0.5,17.9-14.2l3.8,0.3l-0.1-2.8c-3.5,0.2-6.4,2.9-8.7,5
		c-2,1.8-6.5,3.7-8.8,5.4c-5.3,3.7-4.8,1.5-11.2,2.5c-3.8,0.6-9.7,0.3-14,0.4c-8.7,0.3-16.2,1.7-25.1,2.4l-19.5,1.3
		c-1.7,0-3.3,0-4.5,0.7l-0.7,0.6c-0.1,0.1-0.2,0.3-0.3,0.4c-1.1-0.5-1.6-0.6-3.3-0.4c0.2,2.1,1.5,1.7,1.9,4
		c-1.7-0.4-1.6-0.1-2.9,0.5c0.7,4.5,3.7,3.6-4.1,13.3c-3.5,4.3-3.2,4.2-8.9,6.4c-0.8-1.9,0.7,1.9-0.1-0.7c0-0.1-0.1-0.3-0.1-0.4
		l-0.4-0.8c-2.9,0.8-8.3,4.2-13.3,5.8c-2.4,0.8-3.2,2.1-5.4,0c5.6-2.3,6.8-1.5,14.9-5.5c0.8-0.4,1.2-0.6,2-1.1l2.1-2.2
		c-3.6,1-3.9,1.9-6.7,3.1c-2.3,1-4.8,1.6-7.1,2.6c0.7-4.2,5.9-1.4,17.1-10.1c1.3-1,0.1,0.1,1.2-1.2c0.1-0.1,0.4-0.5,0.5-0.7l0.5-0.7
		c1.7-2,4.7-3.5,5.1-6.4c-1.9,0.5-0.4-0.6-1.9,1.5c-2.9,4.5-11.3,11.2-17.1,11.2c1.6-5.5,8.5-6.2,12.1-10c1.7-1.9,2.1-1.9,3.8-3.5
		c1.5-1.4,1.9-2.9,3.2-4.2c3.3-3.5,7.5-8.3,12.8-9c-0.2,2.7-1.5,2.3-0.3,4.7c4.4-0.5,0.5-0.3,3.2-3.7c1.3-1.7,2.7-1.4,2.9-4.2
		c-5.2-0.8-12.8,2.5-16,6.1c-5.1,5.7-5.1,4.4-11.1,5.6c-2.3,0.4-2.7,1.2-4.6,0.8c-0.2-3.2-0.4-4,0.1-7.1c0.5-2.9,1.5-3.1,1.7-6.3
		c3.3-2.9,6.2-3.1,11-4.3c4.3-1.1,9.8,1.1,14.2,1c1.4-2.8,3.5-4.1,7.8-4.3l25.4-0.9c5-0.2,6.6-1.2,11.8-0.8c3.3-1.6,5.6-2.4,10-3.1
		c2.2-0.4,3.9-0.9,5.6-1.2c2.1-0.4,4.5-0.2,6.4-0.6c6.9-1.3,5.6-0.8,12.1-1.2c3.9-0.3,8.3-1.9,11.4,1c-0.9,2.6-4.2,3.5-7,4.5
		c-2.8,0.9-1.7,0.9-3.4,2.1c-1,0.7-2.7,0.9-3.9,1.6l-0.2,3c6.7-2.6,9.4-5.7,12.3-5.4l-0.8,4.1l1.4,1c-0.1,0.1-2.2,2.3-2.3,2.3
		c-1.5,1.7-5.3,6.8-4,9.6l2.1,2c-0.3,8.9-4.7,12.1-4.6,17c2.7-0.4,1.7,0.8,5.1-6.5c1.3-2.8,2.2-5.6,3.1-8.6l26.2-1
		c-0.7,3.7-3.6,5.7-5,8.4c-2.2,0.3-2.7,0.4-4.6,1c-1.7,0.5-3.4,1.3-4.2,2.4c3.9,0.3,3.5-1.2,7.5-0.8l1.1,1.9
		c2.5-0.4,4.9-1.7,7.9-1.6c-0.2,5.4-9,13.7-13.5,15.7c-4.4,2-2.9,1.3-4.4,5.6c-2.5,0.7-3.1,0.6-5.3,2.2c-2.8,2.1-1.8,0.9-5.3,2.2
		c-2.8,1-8.7,1.9-9.6,4.9l4.3,0.5c-0.7,2.3-1.6,0.7-0.6,4.7c-6.2,0-18.6-4.7-24.5-0.9l15,0.6c2,0.2,5,0.6,6.8,1.3
		c2.1,0.8,4.4,1.4,6.8,1.7l0.8-0.8c0.8-0.7,0-0.1,0.8-0.6l7.2,2.1c-0.3,1.2-0.5,2.3-1.3,3.5c-2.2-2.5-0.5-3.1-4.8-3.7
		c0.3,4.6,1,3.9,2.2,7.1c1.3,3.4-1.2,3.4-1.8,6.2l3,1.1l0,3.9c1.7,1.1,1.9,0.9,2.5,3.7c1.4,6.5-4.3,8.6-6.8,11.8l-3.5,0.1l0.4,2.9
		c3.8,0.8,5.1-1.8,7.4-3.6l5.6-5.8c3.1,0.9,3.2,1.1,6.8,1.7c0.1-6.7-6.1-1.2-7.3-6.5c5.8-0.3,8.6,5.8,11.2,7
		c0.8-2.1,0.2-0.7,0.2-2.8c0-3.4,0.2-0.6,0.6-2.5c0.5-2.5-0.3-1.6-0.4-2.9c-0.3-2.5-0.3-0.5,0.7-2.6c2.5,0.7,5.6,6.9,7.1,9.6
		c-0.8,2.8-1.9-0.2-0.8,2.4c0.7,1.6,1.5,0.8,2.8,0.4c1.8-3.6-1.2-6.2-2.9-8.5l-3.8-6.2c-0.8-1.1-0.8-0.1-1.2-1.9l-2.3,0.8
		c-0.1,0.1-0.6,0.5-0.8,0.6l-3.2-1.4c0.6-1-0.1-0.4,1.2-1.6c-4.5-0.5-3,1.1-8.8-1.2c-0.4-2.1-0.6-1.7,0.3-3.3
		c1.7,0.5,0.1-0.7,0.8,0.5l0.4,1.2c3.9,0,4.8,0,8.2,1.2c4.5,1.6,3.1,0.6,6.4,3.5c4,3.6,9.2,3.3,14,5.2c6.1,2.4,10.7,3.9,14.2,9.3
		c1.3,2.1,0.9,1.2,2.3,2.7c1.8,1.9,1.4,3.7,3.8,6.2l3.5-0.9c-1.3-2.8-1.7-1.1-2.9-2.9c-2.8-4.4,4.8-11.7-11.4-24.6
		c-2.8-2.2-5.5-3.1-9.1-3.8c-1.9-0.4-1.8-0.8-3.7-1.3c-5.4-1.6-11.3-2.5-16.1,0l-3.6-1.1c2.1-1.3,7.6-0.6,9.3-0.7
		c2-0.1-0.4,0.1,1.7-0.6c1.6-0.6,3.1-0.4,4.9-0.4c-1.4-1.4-2-1.4-4.3-1.5c0.5-1.2,5.7-1.7,7.6-1.6c0.4,1.2,0.6,1.2,1.2,1.9
		c3.6-0.2,4-1.1,6.9-1.7c3.6-0.7,3.7,1,6.1,1.7c2.1-1.5,2.2-1.2,3.1-2.9c-2.2-4.9-5.5-1.7-7.1-6.2c2.1-1.5,6.6-0.9,8.4-2.5
		c-0.6-1.6-1.6-1-4.3-0.6c-2.8,0.4-7.8,2.1-10.9,1.7c-6.1-0.6-3.3,1.6-9.5-0.4c-1.2-0.4-0.7-0.3-1.3-0.7c2.5-3.3,8,0,12.9-0.7
		l-0.4-1.8c-0.1-0.2-0.8-0.5-1-0.8l7.6-0.8c-1,1.7-3,0.9-4.7,2.8l15.4-1.8c1.2-1.8,0.5-1.7,3-2.7l2.7,4.7c1.8,4.9,4.4,11.1,9.3,13.6
		c-1.2-3.5-4.9-6-4.9-10.3c1.7,1.4,6.3,8.2,7.8,10.7c1.2,1.9,1.3,2.2,3.2,3.6c3.5,2.5,6.9,8.1,11.9,7.5c2.2-0.3,4.1-0.6,6.5-0.6
		c2.8,3.4,2.6,1.4,8.8,5c2,1.1,0.5,0.4,2.1,1.7c3,2.7,6.9,1.6,11.2,2.4l-1,2.8c1.6,1.9,4.9,4,7.9,4.6c-0.8-1.6-1.1-2-2.6-2.9
		c-2.7-1.7-2,0-2.5-2.5c5.6-0.8,7.3,1.4,11.3,1.3c-2.2-2.1-2.3-1.7-5.8-2.5c1.9-2.4,8.1-1.8,13.7-5.7c2.7-1.9,5.8-3,9.1-4.5
		c2.3-1.1,2.1,0.1,2.9-1.8c-4.9-1.3-8.7,2.7-11.7,4.7c-6.4,4.2-22.1,6.3-29.5,3.7c-1.5-0.5-4.2-2.4-5.3-3.3l-4.8-4.2
		c-5,0.2-9.9-0.4-14.1-2.3c-2-0.9-3.7-2.5-5-3.7c-5.8-5.4-5.9-4.5-11.2-14.2l-3.7-4.9c-1.2-1.4-1.2-2.7-1.1-4.2c0-0.2,0-0.6,0-0.8
		l2.9-1.1c1.7,2.1,4.9,5,6.8,7.3c2.2,2.7,7,3.7,11,4.2c0.9,2,0,1.6,2.9,2.3c1.6,0.4,3.3,0.4,4.9,0.8c5.4,1.2,5,0.7,10.3,0.9
		c-0.1,4.3-3.8,6.7-2.1,10.7c1.3,3.1,6.8,4.4,9.8,5c0.2-3.9-1.3-5.8,0-9.3c1.2-3.1,2.5-2.1,5.3-4.1c1.3,0.6,4.1,2.3,5.4,1.9
		c-0.6-1.8,0.9-0.3-1.7-1.9c0.2,0,0.4-0.4,0.5-0.2l1.9-0.1c5.2,1.2,11.7,8.4,11.3,13.9c5.3,0.7,3.1-5.4,1.3-8
		c-2.3-3.3-3.1-4.2-6.8-6.3c-9.7-5.5-14.2,0.7-22.1,0.1c-0.5-4.2,3-2.6,5.8-5.1c0.9-0.8,1.6-2.3,2.4-3.2c1.6-1.7,2.4-0.5,1.7-3.2
		c3.2-0.8,6-2.8,10.3-2.9c4.5,0,9.3-0.4,13.7,0.4c3.6,1.8,4.8,9.7,4.2,14.6c-0.5,3.6-1.1,1.6-2.1,5.2c4-0.8,6.4-3.9,9.4-6.2
		c2.9-2.2-3.8-11.4-9-14.6c-5.1-3.2-15.2-2.5-21.1-0.7c-11.2,3.4-31.7-2.3-34.5-10.5c11.9-9.6,6.4,0.8,16.4-17.3
		c9.8,0.7,26.5,0.8,35.6,3c8.2,2,26.7,3.7,32.6,6.2c-0.5,1.9-0.3,0.8-1.8,2.3c-2.5,2.3-3.6,7-5,9.9c-1.9,3.8-2.4,3.3-4.1,5.8
		c-1.6,2.4-3.2,4.2-3.4,7c5.3-0.4,4.8-5.1,6.9-9.1l2.9-3.3c-0.5,4.2-1.2,1.3-1.6,5.2c3.1-0.4,2.1-0.2,2.9-3.3
		c0.5-1.8,1.5-2.7-0.1-3.4c1.4-3.7,2.1-6.2,4.7-9.7c2.9-0.2,4.9,1,15.5-0.2c5.5-0.6,9.6-2.5,14.2-3.2c10.8-1.4,18.3-3.7,28.9-5.8
		c12-2.4,43.6-6.6,54.9-6.1c2.6,0.1,4.1,2.7,5.3-0.3c-9.3-0.7-2.9-0.4-13.3-3.3c-2.2-0.6-4.8-2.5-12.9-4.5l-9.8-1.1
		c0.1,0.1,0.3,0.1,0.4,0.3c0.4,1.2,19.8,3.8,22.1,7.1c-0.1,0-0.3,0-0.4,0.2l-45.7,3.8c-6.3,0.5-15.4,4.4-21.1,3.5
		c-4.1-0.6-18.7,1.2-22.6,2.4c-8.3,2.5-14.8-1-23-1.6c-3.7-0.3-5.8-1.9-10-2.2c-19.7-1.7-38.6-5-58.9-4.9c0.5-1.2-0.4-0.6,1.1-1.3
		c0.4-0.2,1.9-0.4,2.5-0.5c4.4-0.9,2.5-2.4,7.3-0.4c6.1,2.5,21.5,1.4,27.2,0.1c8.3-1.9,15.3-4.6,23.1-7.1c3.5-1.1,1.9,0.2,2.5-1.9
		c-3.1-1.4-10.7,3.4-15,3.7c2.2-2,15.9-7.8,19.9-10c2.1-1.1,1.5-0.4,2.1-2.5c-4.2-0.2-12.9,6.2-17.5,8.1c-1.8,0.8-4.4,2.3-6.2,1.3
		c2.8-1.3,2.1,0,4.9-1.9c6.7-4.6,12.2-3.7,12.6-8c-2.8-1.2-3.9,0.8-6.9,2.5c-4.6,2.6-17.6,8.9-22.9,9.7c1.7-1,4.7-2,6.8-2.9L732,310
		c2.2-1.3,5.4-2.3,6.5-4.2c-0.5-0.4,0-0.5-1.2-0.9c-1.5-0.4,0.4-0.1-1.5,0c1.5-1.2-2-0.9,2.1-1c2.3-0.1,3.2,1.3,6.7,1.2
		c4.6-0.1,28.8,3.4,30.5,2.5c1-1.1,1.5-2,3-2.9c6.5-3.8,3.6-8.2,8-12.1c0.2,0.3,1.5,0.2,0.3,2.9c-1.5,3.5-3.4,3.2-3.8,9.4
		c2.9-1.4,3.2-5.7,6.2-7.6c10.1-6.6,7.9-2.7,14.6-4.7l18.2-1.6c4.9,4,5.7,0,6,7c3.6-1.5,3.4,0.4,7.3,2c1.5,0.6,2.8,0.7,4.5,1.1
		c5.9,1.7,12.5,6.3,18.3,6.8c4.8,0.4,1.4,0.1,2.7-1.2c-5.4-1.2-3.7-1.5-7.1-2.5c-3.6-1.1-7.3-3.2-10.9-5c-5.5-2.8-6-0.3-12.6-5.9
		c-0.9-0.8-3.1-1.7-3.6-2.9c5-1,8.2,0.8,13.4,0.4c14.4-0.8,6.8-6.5,23.3,4.7c1.8,1.2,3.3,1.7,5.3,2.8c3.3,1.8,1.1,2.4,6.3,2.1
		l-2.4-2.5c2.1-0.9,7,0.5,7-2.5c0-0.5-0.2-1.2-0.2-1.3c0-1.3,0.4-0.9,0.6-3.3c-4.6,1-1.6,5.1-7.7,4.5c-1.2-2.6,1-1.8-0.6-4.9
		c-2.2,0.5-2.5,0.7-2.9,3.3c-4.2-3.6-3.7,2.4-4.5-7.1l2.8-1.5c1.3-0.7,1-1,2.5-0.3c-1.7,1.5-1.1,0.5-2.2,2.5l5.7-1.4
		c-1.7,2.1-2.9,1-3.9,4c2.5-0.4,10.4-0.6,12.1,1.7c0.9,2.4,1.2,3.2,2.3,5c3.4,0.4,8.6-1.1,9.8,1.7c-4.2,0.8-4.6-1.2-8.7,0.1
		c0,2.5,0.6,6.1-2.4,6.7c-3.9,0.9-1.9-0.8-4.4,0.8c3.3,0,3.3-0.2,6,0.8c-0.3,0-1.1,0.2-1.3,0.3c-1.6,0.7-0.6,0.1-1.2,1.1
		c2.1,0.2,6.1,0.3,7.4-0.4c-0.3-3.1,1.1-0.5-1.8-2.5c4.3-10,17-3.6,18.1-1.6c0.4,3-0.7,3.4-1.7,5.6c4.1,0.1,4.9-0.3,6.6-2.8
		c-1.3-2.5,0-0.3-1.6-1.7c-2.1-1.9-2.5-4.1-5.6-5.5c-3.4-1.7-6.4-2.8-9.8-4.5c-7.1-3.5-2.5-0.8-8.7-5.4c-5.7-4.2-11-8.2-17.9-10.6
		c-5.1-1.8-7.4-1.2-12.4-2c-11.2-1.8-11.9,3-24.1,3.9c0-3.8,6.2-14.1,6.2-14.2c5-1.1,5.5,1.4,8.7-2.1c6.7-7.4,5.3-7.7,14.8-12.4
		c1.6-0.8,2.4-1.1,3.2-2.5c-0.7-1.6-1.3-2.7-3.2-3.3c-2.8,3-4.1,4.7-9,5l-1.3,2.4c-0.2-0.1-0.4-0.4-0.4-0.3l-1.7-0.4
		c-0.9,0-2.1,0.2-2.9,0.4c-2.4,0.6-3.1,1.1-4.3,3c3,0,2.9-0.9,6.5-1.2l-1.8,3.6c-3.3-1.2,1-0.6-2.5-1.2c-2.4-0.4-4.7,1.3-6.9,1.3
		c-3.7,0-1.7-1.9-7.1,0.4c-1.4,0.6-2.3,1.2-2.8,2.2c-4.9,0-2.2-0.2-5.5,1.2c0.5-1.4,0.6-1.3,1.3-2.5c-2.6,0.8-8.7,5.8-10.7,8.1
		c-1.7,1.8-1.3,2.7-2.4,4.4c-0.8-1.8,1.1-5,2.5-6.8l8.8-7.3c2.1-1.6,0.7-1.5,2.4-3.1l8-3.6c0.8,0.9,0.5,0.3,1.2,1.8
		c3-2.6,1.3,0.3,3.3-3.6c2.3-0.5,3.1-1.4,3.7,1.3l7.2-4.1c2.2-1.1,5.4-1.8,7.8-2.7c1.1-0.4,2.5-1.2,3.5-1.5c1.8-0.4,3.2-0.1,4.9-0.6
		c7.1-2.1,2.9-0.6,9.4-1.3c-0.1-0.1-0.3-0.5-0.4-0.4l-1.7-1c-6.6-2.3-12.5,1-14,1.5c-1.9,0.6-3.1,0-5.8,1c-1.7,0.6-3.9,0.7-5.1,1.7
		c-1.2,0.9,0.2,0.5-1.6,1.6l-12.6,4.8c-1.5,0.6-2.8,1.6-4.2,1.8c-6.6,1.2-4.9,0.7-8,5.7c-0.9,1.5-8.6,6.6-11,9.5
		c-0.9,1.1-2.2,2.6-2,4.6c0.1,1.1,0.5,1.3,0.7,2.2c1.2,5.5-6.5,0.1-14.8,12.1l1.4,0.3c0.2,0,1.3-0.4,1.7-0.6l-2.3,4.1
		c1.6,0.8,1.2,0.5,3.2,0.2c2.5-0.3,17.2-6.1,21.6-3.8c2.1,1.1,1.7,1.5,1.8,3.3c-1.4,0-4.6,0-6.7,0.2c-3.5,0.4-2.6,1.6-6.7,1.2
		c-7.3-0.8-7.2,1.6-13.1,2.3c-1.3-1-1.5-1.3-3.3-1.9l1.3-3.5c-3.4,0.6-3.2,1.7-4.8,5.4c-1.3,3-0.9,3.7-3.5,6
		c0.4-3.4,1.1-3.2,2.1-6.2c-3.5-4.1-2.2-3.4-4.2-8.6c-0.9-2.3-3.5-7.4-4.6-8.5c-0.2-0.2-6.8-5.4-7-5.4c-1.7-0.7-3.7-0.4-5.6-0.7
		c-5.8-1-10.3-3.3-13.5,2.5c-1.4,2.6-2.6,7-2.8,10.1c-0.4,6.1-1,5.1-3.1,9.3c-1.7,3.4-4.6,4.9-4.3,8.7l2.9,0.9
		c-2.3,0.8-23.1,0.4-27.3,0.3c1.2-2,1.2-1.8,3.6-2.7c3.4-1.2,2.1-0.9,3.4-3.4c1.8-0.1,7.5-0.4,8.7,0c3.1,1,3.8,2.3,7.9,0.6
		c3.3-14.3-17.7-14-28.7-14.6l-0.8-4.6c2.9-2.2,1.6,0.2,2.5-2.8c-7.7,0.1-14,2.8-21.2,4.9l-1.2-1.8c-1.8,2.1-1.6,3.1-2.2,4.4
		c-3.2,0.7-5.5,2.3-8.4,2.7c0.5-1.5,4.1-7.1,5.3-8.3c1.6-1.5,2.2-1.6,4-2.8c2.6-1.8,0.4-2.3,4.6-2.6c-0.4,2.5-1,2.9-1.3,5l5.8-3.1
		c-0.4-1.5-0.2-0.5-0.4-2.4c6.2-4.9,5.5-5.8,14.8-6.9c4.4-0.5,9-1.7,12.9-3.6c2-0.9,1.4-1.1,2.9-2.7c6.3-6.7,8.5-3.3,14.8-6.8
		c5.6-3.2,8.4-0.7,13.3-3.4c1.7-0.9,2.5-1,2.9-2.5c-2.1-1.3-3,0.4-4.7,1.3c-2.4,0.2-6.8-0.3-8.7,0.5c-3.3,1.3-2.5,1.7-7.1,2.9
		c-2.5,0.7-4.7,0.7-7.1,2c-2.8,1.5-7.8,8-19.2,9.8c-3.2,0.5-5.9,1-8.2,1.9c-2.5,1-3.7,2.6-6.6,3.2c1-2.2,2-2.6,2.2-4.9
		c-2,0.7-3.3,3-5.9,4c1.5-2.6,2.6-5.3,4.9-7.1c4-3.2,7.9-0.6,9.5-4.9c0.5-1.4-0.3-0.4,0.7-1.7c1.2-1.6,1.7,0.1,1.4-3.5
		c-0.1,0-0.4-0.3-0.4-0.1l-2.2-0.1l0,3.3c-19.4,2.9-11.4,12-19.6,17.9c-1.5,1.1-6.1,4.2-6.2,6.1c-3.2,0.1-1.7-0.4-3.7-0.3
		c-1.3,0-1.2,0.5-3.1,0.8c0.4-16.7,1.5-7.5,1.9-13.4c0.1-2,0.2-3.7,0.1-5.6c-4.9,0-3.6,4.6-4.3,8.2c-0.4,2.1-1.2,4.4-1.5,6.1
		c-0.8,5.6,2.5,6.3-1.8,11.7c-2.4,3-3.7,6.1-6.1,8.7c-1.5,1.7-2.5,1.6-3.8,3.6c-1.2,1.7-0.2,0.8-1.7,2.1c-0.5,0.4-1.4,1.1-2,1.4
		c-2.1-2.4-1.9-3.1-5.9-5c-7-3.2-6.8,0.1-11.6-1.3c-2.3-0.7-3.1-0.2-5.4-0.1c-6.7,0.5-3.1-2.2-8.7,1.5c-3.3,0.2-6,0.6-6.2-2.3
		c-3.9-0.3-1.6-0.4-4.2,1c0.4-2.5,1.1-0.5,0.5-3.8l-5-0.4c-0.5,2.1-1.2,2.8-3.3,3.4c-1.9,0.5-5.8,0.7-7.8,0.5
		c-2.9-3.8-2.6-9.8-5.2-14.1c-1.7-2.9-1.6-1.6-3.8-3c-3.1-2.1-1.8-6.8-4.2-8.8c-9.6-8.2-5.2-3.8-12-7.7c-13.8-7.9-6.1-2.9-13.8-6.2
		c-3.5-1.5-3.4-3.8-7.8-5.1c-4.5-1.3-8.9-0.8-11.5,1.5v3c2.5,1.3,3.7,0.8,6.2-0.5l2.1,1c0-1.4,0-0.7-0.5-1.3c-0.8-1-0.6-0.2-1.3-1.8
		c6.7,0.8,4.3,0.3,8.7,3.1c8.7,5.6,14.4,2.7,25.7,13.3c1.9,1.7,3.9,8,6,10.7c4.5,5.8,2.9,9.6,3.8,12.8c0.7,2.6,1.8,0.6,2.1,4.7
		c-2,0.9-8.5,2-10.8,0.8c-3.3-1.6-10.7-10-10.3-15.3c0.2-1.9,2.2-4.4,0.9-6.7c-1.3,0.8-1.5,2.5-2.5,3.5l-1.1-11l4.5,0.4
		c-3-6.4-12.1-4.4-16.1-8.8c-1.7-1.8-2.2-3.1-5.8-2.9c2.5,3.7,9.4,6.2,13.5,9.6c4.3,3.4,0.7,10.9,4.9,18.6c1.4,2.5,4.3,8.1,5.1,10.5
		c-8.9,0.5-18.3,0.9-27.2,1.1c-4.2,0-9.9-0.4-14,0.3c-12.7,2.3-27,1.1-39.9,2.9c-5.5,0.8-6.8-0.8-12,0.9c-3.8,1.2-8.5,1.1-11.2,3.3
		l1.1,0.5c0.6,0.1,1.2,0.1,1.8,0.1c5.1-0.3,10.6-0.6,15.8,0.3c1.7,0.3,4,0.3,5,1.6c-2.1,0.8-5.9,0.3-8.5,0.7c-3.4,0.5-4.5,1.5-7,2.1
		c-4,1-5.5-0.4-9.2,0.3c-3.5,0.6-3.6,2.5-6.8,3c-4-3.9,0.7-5.8,4-7.6L464,297c-3.9,0.8-5.4,0.2-7,4.6c-1.5,4.2,1-0.2-2.3,2.9
		c-0.1,0.1-0.3,0.3-0.4,0.5c1.2,0.8,1.2,2.5,1.5,4.6c10.3,6.2,2.9,10.5,1.6,17.4l1.7,1.9c-0.4,9.7-2.1,13.2-6.6,19.1
		c-1.2,1.6-5,3.4-7,5.4c-2.7,2.6-3.7,4.3-6.2,6.9c-2.3,2.3-4.3,3.1-6.7,5.8c-3.3,3.7-6.8,5.5-10.4,8.7l-7.9,5.1
		c-2.1,0.9-2.9,1-3.9,2.9c0.5,0.2,0,1.1,2.6,0.1c7.7-2.8,2.9-1.5,9.6,0c-0.3-2.6-0.8-1.4-2.3-2.7c0.9-1.5,0.9-1.3,1.9-2.4l3,1.3
		v-3.3c0.2,0,0.5-0.3,0.6-0.1c0.1,0.2,0.9-0.2,1.1-0.2c1.6,0,1,0.6,2.2,0.7c0.1,0,0.3,0,0.4,0c0,0,1.6-0.4,2.1-0.5
		c-0.4,4-1.7,3.7-5.2,5l0.2,3.1c-2.2,0.4-3.6,0.1-5.4,0.9c-3.3,1.4-1.7,1.1-5.1,0.6c-3.4-0.5-10.4-1.2-12.5,1.2
		c1.8,1.4,5.1,0.3,7.5,0.3c5.2,0,8.3,1.7,13.2,3.3c1.8,0.6,4.8,1.2,6.2,1.9c12.9,6,11.2,10.5,13.4,15c0.8,1.7,1,0.7,1.6,2
		c-2.1,0.2-4.1-2.6-6.6-4.4c-2.2-1.5-2.2-0.4-3.6-2.5c-1.1-1.8-0.1-2.1-4.1-2.9c0.4,3.4,2.1,4.3,4.6,6.1c1.5,1.1,4.4,2.9,6.2,3.7
		c3.3,1.7,2.7,2.6,5.1,4.8c2.1,1.9,3.5,2.4,5.3,4.6l7.9,11.9c4.6,7.9-0.1,10.7-1.6,15.9c4.5-1.7,5.8-5.8,5.5-10.9
		c-0.3-5.3-3.5-7.1-4.9-10.9c2.1,4.5,7.4,6.6,11.5,8.5c2.2,1,3.5,0.1,5.3,1.8c-0.3,1.6-0.3,0.4-0.6,2.8c-1.7-0.5-1.7-0.4-2.2-0.3
		c0.5,4.2,4.4,4.2,2.1,7.6c-0.8,1.2-0.8,1.1-1.5,2.3c-0.8,1.7-1.1,3.4-1.7,5.1c-2.3,6.8-4,16.4-0.6,23.1c3.9,7.7-0.4,6.7,0.8,11.2
		c4.7-6,1.8-12.5-0.1-20.5c-1.3-5.8,1.5-18.5,5.2-21.6c3.1,2,1.6,8.2,1.3,11.1c4.2-1.9,0.7-11.3,0.9-13.7l4.8-1.4
		c1-3.1-0.3-2.6,2.1-4.2c0.8,1.7,0.1,0.9-1.1,2.8l2.3,6.4c1.6,3.1,1.7,3.3,0.6,7.1c-0.6,2.1-1,5.9-1.7,7.5
		c-5.7,12.2-1.7,5.4-4.3,14.3c-0.8,2.9-2.3,2.4-3.3,6.1c-2.5,8.7-7.2,6.5-8.2,10.1c2.7,0.2,2.1-0.5,3.7-1.7c1.2-0.8,2.4-1.2,3.4-2.1
		c2-1.8,1.7-5.2,3.7-8.1c1.6-2.3,5.4-13.7,6.3-16.7c9.2,0.2,6.7,6.6,10.8,3.9c-0.5-1.4-2.1-2.7-3.5-4.1c-1.5-1.4-3.2-1.4-6.2-1.9
		c-0.4-1.8-0.1-1.7,0.5-3.3l0.9,2.4c1.6,0.1-0.3,0.4,1.3,0c0.1,0,0.4,0,0.5-0.1s0.4-0.1,0.4-0.2c1.3-0.4,1.5-2.8,1.6-4.1l0.5-4.9
		c1.7,2.1-0.2,5.2,1.2,7.5c1.1-1.8,1.1-6.2,2.5-8.1c1.8,2.9-0.4,14.3,5,20.3c-2.6,18.4,3.1,19.4,4.5,24.2c0,3.7-1.5,7.7-1.4,13
		c0.1,4.8,2.6,7.1,4.9,9.9c6.2,7.5,5.4,11.2,8,21.7L519.1,538z"/>
	<path class="st0" d="M44.1,484c3.4-3.3,4,0,4,0c-0.3,0.2,0.7,0.9-2,0.9C42.2,484.8,45.2,484.9,44.1,484z M24.4,454.6
		c0.7-3.3,1.6-4.1,4.6-5c21.8-7,13.1-3.6,31.5-15c1.7-1.1,4-2.9,7.2-1.7c6,2.1,5.1,3.4,5.3,4.7c3.7-0.3,8.3,0.9,12.3,2
		c6.2,1.7,5.3,2.2,9.1,5.1c7.9,6.3-0.4,8.9,3.8,16.6c1.2,2.2,1.8,2.4,1.7,5.3c-2.4,1.7-5.7,1-13.9,6.4c-6.9,4.6-11,4-13.1,7.3
		l-6.5,1c0.4-4.1,1.4-6.7-0.9-8.3c-2,3,0.3,4.2-2.5,9.6c-0.6-0.8-1,1.7-0.5-1.6c0.4-2.4,0.3,0.4,0.9-2.2l0-11.9
		c-0.6-2.3-1.7-2.5-3.7-2.9c0.4,3.6,3.9,9.6,0,19.2c-3.8,0.4-19.2-4.2-21.4-6l6.3,0.3c-1.2-2.8-0.8-1.2-0.8-4.6
		c-2.8,0.4-1.2,0.5-3.1-0.4l-1.6,2.1l-1.2-2.4c-0.7,1.2-1.5,2.6-1.8,3.5l-0.2-4.2l-2.4,1.3c-0.1,0.1-0.3,0.3-0.4,0.4
		c-0.4-2.8,0-1.3-1-2c-1.2,1.2-1.7,1.4-1.7,4.2l2.9-1.3l-0.1,2.5l-5.8-0.1c-2.5-2.2-4.2-6.7-4.2-11.4c0.1-8.1,1.6-5.7,5.7-9.7
		c5.6,1.8,9.4,4.2,13.5,6.2l6.3,3.5c1.8,0.8,6.4,0,8.3-1.2c-1-1.1-0.5-1.2-4-1.9l-1.7,2c-3.7-0.4-20.4-11.7-22.5-11.4L24.4,454.6
		L24.4,454.6z M106.8,455.4l-2.9,1.2c-1.8-3.5-1.6-4.3-1.4-8.2l5.5-0.3c1.3-1.8-0.2-0.8,1.8-1.2c1,2,2.8,6.6-0.6,6.8
		c-0.6-7.7,0.6-2.9-1-4.8C105.8,451,106.9,451.1,106.8,455.4L106.8,455.4z M113.7,452.1c-0.6-8.4-0.6-4.1,1.2-7.1
		c0.8-1.4,0.4-1.7,1.1-3.1c0.5,2.9,0,3.1-0.2,5.6C115.6,450.8,116.8,451.8,113.7,452.1z M97.4,443.5c1.5-0.2,1.6,0,2.4,0.5
		c1.2,0.8,1.3,0.9,1.5,2.7C98.9,446.2,98.5,444.8,97.4,443.5z M101,441.8c1.9-1.5,3-2.1,5-1.1C104.5,441.6,101.9,442.5,101,441.8z
		 M112.5,437.2c1.6,1.3,1.8,1.3,2.3,3.3c-4.4-1.8-1.3-1.7-7.2-1.7C109.1,437.3,109.7,437.1,112.5,437.2L112.5,437.2z M117.8,437.2
		l2.3,0.1c1.2,3.7,2.5,8,1.7,12l-1.7,1.6c-0.8-2.6-0.4-5-0.4-7.8C119.6,440.1,118.5,439.5,117.8,437.2L117.8,437.2z M152.2,430.9
		c1.3,1.5,1.2,4.8-0.6,6.2l-0.9-3.3C150.6,431.2,150.2,431.7,152.2,430.9L152.2,430.9z M127.1,440l-0.7,8.7
		c-1.8-1.4-0.8-0.8-1.7-4.2c-0.8-3.1,1.4-10.1-9.1-8.8c3.3-1.6,6.5-3.2,9.6,2.1c0.1,0.1,0.1,0.3,0.2,0.4l0.4,0.8
		C126.7,440,126.3,439.3,127.1,440L127.1,440z M155.8,428.1c0.5,0.5,1-0.7,1.2,2.5c0.1,2-0.6,2.7-1.1,3.4l-0.8-2.8
		C155.2,430.1,155.6,428.8,155.8,428.1L155.8,428.1z M124.1,431.7c3.8,0.7,1.6,3.4,7.1,5.8c0,2.6,0.5,6.7-0.6,8.7
		c-0.7-1.2-0.7-2-1-3.8l-1.2-4.4C126.8,432.7,126.7,435.6,124.1,431.7z M161.5,428.3c1.3,1.5,1.3,1.8,0,3.5
		c-0.2-0.4-0.6,0.8-0.5-1.8C161.1,428.5,161.2,429.1,161.5,428.3L161.5,428.3z M144.2,428.7l1.2,2.6c0.7,1.1,1.3,1,1.6,2.6
		c0.4,2.2,0.3,5.3-0.8,6.4c-0.8-1.6-0.3-3.6-1.1-6.1C144.1,431.5,142.8,431.2,144.2,428.7L144.2,428.7z M128.3,430.9
		c2,0,2.9,0.9,3.9,2.3c2.9,4.1-0.1,1.4,3.8,2.9c0.2,2.7,0.3,6.9-0.3,8.3c-2.3,0-0.8-0.3-0.7-2.7c0.1-2.3-0.7-3.5-1.7-4.7l-1.7-2.1
		C129.1,432,131,433.2,128.3,430.9L128.3,430.9z M133.5,427.6c5.6-0.9,5.1,3.6,8.5,6.7c-0.1,1.7-0.6,3.1-0.7,5
		c-0.1,2.9,0.5,2.7-1.7,3.8l-0.3-11.7c-1.1-1-1.2-1.4-2.5-2.3C135.7,428.6,134.7,428.3,133.5,427.6L133.5,427.6z M200.8,424.9
		l1.8-0.6L200.8,424.9z M147.6,421.7c3.3,0.5,1.4-0.5,3,1.8c1.2,1.8,1.2,1.2,1.7,3.7c-2.3-0.9-1.2-0.6-2.7-2.1
		C147.1,422.7,148.4,425.6,147.6,421.7L147.6,421.7z M144,423.7c1.8-0.2,0.7-0.4,1.3,0.7C144.5,423.9,144.2,423.7,144,423.7z
		 M283.9,423.5c0.1-1.2,1.3-2.9,2.2-4.5C289.2,420.4,287,423.7,283.9,423.5z M166.9,421c2.1,0,0.8-0.3,1.2,0.6L166.9,421z
		 M253.7,420.1l3.7-0.2c-0.5,0.5-0.4,0.6-1.7,0.7C252.2,420.7,254.8,420.8,253.7,420.1L253.7,420.1z M245.9,417.8
		c-0.5,1.7,0,1.1,0.6,1.8h3.6c-0.2,0.5,0.1,2.3-4.1,1.5c-0.8-0.2-1.5-0.5-1.7-1.1C243.8,417.7,245.8,417.8,245.9,417.8z
		 M266.5,418.4l0,2.6c0.3,0.1,0.5,0,0.6,0.3l2.7,1.3l-1.9,1c-0.1,0-0.3,0.2-0.4,0.3c2.3,0.3,2.9,0.7,4.2,2.7c4.8-0.3,4.9-2,7.5-2.5
		c-0.8,3-6,3.8-9.6,2.1c-4.9-2.2-5.7-3.3-5.6-9.9c1.3-4.3,8.3-5.3,12.7-5.4l0.1,5.9L266.5,418.4L266.5,418.4z M167.6,415.5l0.4,1
		L167.6,415.5z M260.8,416.3c-0.7,0.5,0,1.3-2.9,0.2c1.4-1.4-1.7-1.2,1.5-1.1C261.4,415.5,260.1,415.6,260.8,416.3L260.8,416.3z
		 M247.8,415.4c5,0-0.5-0.4,4.4,3l-2.5,0.2L247.8,415.4z M279.3,413.3c1.2,1.7,1.2,2.5,0,4.4c-0.1-0.1-0.3-0.5-0.3-0.4l-0.7-1.9
		C278.1,412.7,278.4,413.7,279.3,413.3z M240.9,416.8c-0.3-0.4-1.3,0-0.1-2.9c2.9,0.4,0.8,0,1.8,1.2c-0.1,0.2-0.3,0.6-0.5,0.8
		C241.4,416.7,241.6,416.4,240.9,416.8z M176.4,412.1c5.9-0.8,51.1-0.3,53.9,1.8c-0.8,2.6-1.3,1.7-1.8,2c-4.4,2,2.1-1.6-1.2,0.5
		l2.4,1.9l1-2.1c0.4,0.2,0.5,0.2,0.6,0.5l1.5,3c1.6-0.7,1.2,0.8,1.8-2.1c0.4-1.8-0.4-1.6,0.7-3.5c2.9,1,1-0.1,0.7,2.4
		c-0.3,2.9-0.2,2.1,1.2,3c0.9-1,0.4,0.4,0.8-1.2c0.4-2-0.6-2.2,0.8-4l0.4,4.6c0.3,0.2,1.3-0.2,2.9,0.6c-1.5,1.9-1.1,0.8-7.1,1.4
		c-3.3,0.4-4.6-0.1-7.7-0.2c-5.3-0.2-11.4,1.3-16.7,1.4c-3,0-5.4-0.5-8.6-0.3c-3.3,0.3-5,1.1-8.7,1.1c-6.6-0.1-10.7,1.1-16.9,0.8
		c-0.1-2,0.1-4,0.4-6C177.2,414,176.3,414.9,176.4,412.1z M148.1,414.8c0.2-0.9-0.2-0.8,0.7-1.2c2.2-1,2,0.4,2.1,0.4L148.1,414.8
		L148.1,414.8z M257,412.1c2.8-0.3,3.7-0.7,5.8,0.5c-0.9,1.4-0.7,1.6-3.2,1.2C257.4,413.4,257.3,412.4,257,412.1z M143.6,412.6
		l3.4,1.6c-1.8,6.2-11.3,2.1-14.6,4.5c-5.8,4.2,6.3,1.1-10.5,9.4c-2.2,1.1-4.7,1.7-7.1,2.8c-3.7,1.6-18.5,9.3-20.8,9.3
		c-3.4-1-6-2.3-10-3.3c-3.2-0.8-8.1-1.4-9.5-3.8l3.9-1.8c5.4-1.8,6.6-1.2,13.6-5l34.2-15.4c2.4-1.6,5.6-2.5,8.6-3.8
		c1.7-0.7,3-0.9,4.5-1.6c1.4-0.7,2.5-1.4,4.1-1.9C147.6,407.7,145.2,408.2,143.6,412.6z M219.8,399.6c0.5,0.6,0.9-1,0.7,1.2
		c-0.1,1.6,0.1,0.3-0.7,1.1C219.1,401.1,218.4,402.1,219.8,399.6L219.8,399.6z M144.9,399.1c0-2.1,0.3-3.6,2.4-4.3
		C148.1,396.4,147.2,398.4,144.9,399.1z M210.7,398.7c-1.7-1-1.1-3.6-0.1-4.9L210.7,398.7z M192.1,394c2.4-1.4,1.2-0.3,1.6,0
		L192.1,394z M140.3,395.9c0.4-2.5,0.4-2.8,2.1-4.6l3.1,2.1c-0.1,0.8-0.6,2.1-1.1,3.2c-1.6,3.2,0.1,1.2-2,2.5
		c-0.8-1.6-0.3-0.8-0.2-2.9C139.7,397.2,140.7,396.1,140.3,395.9z M206.9,390.6c0.8,0.9,1.3-0.1,0,2.1L206.9,390.6z M205,392.9
		c1.4,1.7,1.5,0.2,1.8,3l-3.5-0.4l-0.8-5.7C206,392,202.7,390.2,205,392.9L205,392.9z M135.4,394.2c0.1-3.1,0.5-3.5,1.8-5.5l3.3,1.7
		l-2.9,5.4c-0.4-2.8,0-1.7,0.4-4.2l-1.8,2.1c-0.1,0.1-0.4,0.4-0.4,0.3C135.8,393.7,135.6,394.1,135.4,394.2z M185.4,390.9
		c1.9-1.3,1.4-2.1,3.2-2.2c-0.4,0.7-0.7,1.1-1.4,1.8C186.1,391.7,188.6,392.5,185.4,390.9L185.4,390.9z M131.3,392.2
		c-0.3-1.2,0.7-3.4,1.4-4.7c0.8-1.5,0.4-0.8,1.1-1.6c1.1,0.4,1.8,0.3,2.2,1.7c1.1,3.5-2.7,3.4-2.8,3.4L131.3,392.2z M191.6,388.5
		l-1.4-2.5c3.9-0.5,2.2,0.3,3.7,2.4c1.6,2.2,1.5,0.2,2.1,4.1c-1.6-0.8-0.8,0-1.9-1.2c-0.5-0.6-0.5-1.2-0.7-1.7l-0.7,0.9
		c-1,1.6-2.6,4.3-4.6,2.1l2.2-0.3C190.7,390.7,191,389.5,191.6,388.5L191.6,388.5z M193.7,385.4c0.1,0-0.7-1.4,1.9-0.2
		c1,0.4,0.4,0.4,0.7,0.9c3.5,6.2,5.7,3.9,4.4,7.3c-3.2-0.5-1.7-1.7-3.1-4.3C196.3,386.5,196.9,388.7,193.7,385.4z M199.2,386.3
		c-0.9-0.8-1.2-0.8-2.1-1.6l0.6-1.6c1.5,0.9,3.3,2.9,3.7,4.5C199.7,387.1,200.2,387.1,199.2,386.3L199.2,386.3z M130.2,389
		c0.4-2.2,0.8-3.8,2.3-5.3c1.1,1.9,0.5,1.5-0.6,3C131.3,387.7,130.9,388.1,130.2,389L130.2,389z M299.1,384.2c0.7-0.4-0.8-1.7,1.3,0
		H299.1z M168,382.7c0.2-1.8-0.7-1,1.7-1.2L168,382.7z M128.2,383.6c-1.1-1.6-1-2.1,0-3.7c0.8,0.4,1.6-0.8,1.3,1.7
		C129.4,382.5,128.5,383.3,128.2,383.6z M154.7,380.6c0.3-2.9,0.6-2.8,3.4-2.7c-0.9,1.5-0.2,0.7-1.6,1.7
		C155.1,380.6,156.9,379.6,154.7,380.6z M126,378c-0.3,1.4,0.3,0.5-0.9,1.8c-0.1-0.1-0.3-0.2-0.3-0.3c-2.1-2-1.3-1.6-1.6-3.2
		L126,378z M152.4,376.2c2.7-0.1,1.6-0.4,3.3,0.6c-0.7,0.5-0.2,0.3-1.4,0.8C151.6,378.4,152.4,376.2,152.4,376.2z M118.9,373.7
		c0.5-0.2-1.3-1.8,2,0c1.7,0.9,0.5,0.4,1.3,1.2c-0.9,2.7-0.4,0.5-1.2,2.1c-0.6,1.1-0.4,1-0.8,2c-1.4-0.5-1.6-0.5-1.6-2.5
		c2.3,1.3,1.9,0.6,2.4-1.6L118.9,373.7L118.9,373.7z M115.5,370.2c-1.2-0.6-1.2-2.7-2.5,0.1l-0.6-1.8l-4-3.6c-1.2-1.5-2.8-2-2.4-4.6
		c2,0.4,2.3,1.7,5.1,5c0.5,0.5,0.7,1,1.1,1.4l1.6,1.3c0.1,0.1,0.2,0.2,0.3,0.3C115.7,369.8,115.2,368.8,115.5,370.2L115.5,370.2z
		 M111.8,361.6c3,0,14.3,6.4,20.4,8.8l12.9,6.9c3.6,4,0.8,1,5.9,4.1c2.7,1.7,11.7,5,14.5,5.7c2.8-2.1,9.2-6.2,12.4-6.3
		c6.2-0.3,5.7-1.6,12.1-0.7c7.7,1.1,2.2,0.9,0,4.4c-1.8,3-3.6,2.2-5.4,4c-2.8,2.7,0.6,3.1-5.5,4.1l-0.5,2.4c-2.6-0.6-1.2-1-3.1,0.3
		c1.5,2,3.1,1.7,4,3.5c-4.6,0.3-3.3-3.2-6.6-1.7c1.1,1.8,7.7,6.6,8.8,1.2c-0.2-1.4-0.4-1.5-0.4-3.1c1.9-1.1,4.2-2.1,6.4-1.2
		c0.4,0.2,1.7,1.4,1.9,2c0.2,0.5,0.3,2.8,0.5,3.8l3.3,1.5c0.1-0.3,0.3-0.8,0.3-0.7l0.2-0.9c-0.1-1-0.3-0.4-0.5-0.4
		c1.8-0.8,1.8-0.1,3.4-1.3c2.9-2.2-0.4-2.5,5.4-2.1l-0.8,3.1c1.6-0.3,2.6-1.1,3.9-0.6c3.5,1.3-5,5-6,5.3c1.6-3,0-1.3-0.2-2.1
		c-0.1-0.4,0-1.5,0-2.1c-3.2,1.3-4.4,1.6-5.5,3.7c2.9,1.8,1-0.9,2.6,1.9c-1.6,2.5-0.9,0-2,2.5c2.9,1.3,4.2-0.4,6.6-1.3
		c1.5-0.6,2.4-0.4,3.7-0.8c1.9-0.6,1.2-0.9,2.7-2.1c5.4-0.9,18.2,1.4,22.9,3.2c3.5,1.3,5.8,2.3,10,3.1c2,0.4,3.9,0.5,5.9,0.8
		c3.6,0.7,2.5,0.9,4.4,1.7c-2.9,0.4-23.2-1.7-30.7-1.6c-8.1,0.1-17-0.9-23.6-1c-3.9,0-4.2-0.9-6.8-2.2c-3.7,0.1-3.3,0.8-7.6,0.4
		c-2.7-0.2-4.9,1.5-7.3,1.5c-2.6,0-8.2-4.7-12.2-5.7c-0.3-0.6-0.6-1.5-0.8-2.9c-2.6-0.5-1.7-0.8-4.2-1.4l-0.8-2.5
		c-3,0.5-2.5,0.7-4.8-0.2c-1.6-3.8,1.1-2.5-3-6.1c-1.6-1.4-0.8-1-1.9-2.4c-1.8-2-1.1-0.6-3.6-1.5c-1.8-0.6-11.4-9.8-12.8-10.7
		c-1.3-0.9-1.8-1.1-3.1-1.9C124.5,372.6,113.5,363.8,111.8,361.6L111.8,361.6z M152.4,376.2c-5.5,0.4-2.9-1.3-7-2.4l-5.6-3
		c-4-2-19.8-7.1-23.3-11.3c0.5-0.4-0.8-1.5,2.5-0.1l15,7.4c3.4,1.7,14.5,7.1,18.3,7.7L152.4,376.2L152.4,376.2z M94,360
		c-0.1-3.2-0.6-9.6,0.7-11.2c1.2-1.5,8.3-3.2,10-2.5c1.9,1.5,3.8,4.5,3.2,8.2l-1.3-0.1c-1.2,0-0.5-0.1-1.9,0.1
		c-0.5,4.4-1.2,3.4-1.7,5.7c-0.4,2,0.8,3.5,0.9,6.3C97.4,365,96.1,363.9,94,360L94,360z M98.1,341.7c-2.5-2.1-5.4-4.3-7.4-0.9
		c0.8,0.5,4,1.3,5.1,2.5c-0.5,1.6-2.4,3.4-4.2,4.2l-0.9-2.1c-0.7-1.2-0.3-0.6-1.6-1.2c-1,1-1.8,2.5-1.1,4.4c0.7,1.8,1.1,1.2,1.6,4
		c0.8,4.6-0.3,5.2,0.1,9.4c1.9,1.1,4.8,2.4,5.9,3.9c1.7,2.4,6.3,5,8.9,1.5c1,1.9,2.7,2.9,4.2,4.6c3.5,4.1,3.6,4.9,7.9,8.9
		c1.6,1.4,2,2.9,3.4,4.6c2.8,3.4,13.6,15.5,14,19c-3.1,1.8-8,3.3-11.5,4.8c-8.9,3.7-43.6,20.4-50.8,21c-2.8,0.2-3.2-1-6.5-0.2
		l-21.1,10.6c-6.2,3.9-18.8,5.5-21.5,10.2c-4.3,7.4-4,21.3-0.8,25.4c4.7,6.2,15.3,6.4,22.4,9.2c6.2,2.3,6,2.8,13.9,2.4
		c10.5-0.6,4.5-0.4,12.1-3.5c2.4-1,9.8-3.7,11.4-4.7c2.5-1.7,1.5-2.4,4.5-3.6c1.7-0.7,3.8-1.2,5.5-1.9c5.7-2.1,16.3-6.9,19.9-11.7
		c4.5-6,15-6.6,20.7-10.9c2.4-1.8,7.5-3.5,10.7-5.4c16.7-9.6,11.5-4.9,22.3-9.3c2.3-0.9,3.3-1.2,5.1-3c1.7-1.7,2.2-1.8,4.9-2.5
		c2.8-0.7,10.9-2.7,13.7-2.7c6.5,0.1,41.1-3.2,42.9-3c2.6,0.4,4.9,0,7.4-0.5c5.4-1.2,2.5-0.3,6.8,0c2.9,0.3,5.1-0.7,7.5-0.8
		c14.9-0.4,4,3.5,16.2,6.8c4.4,1.2,8.9,0.2,11.1-2.4c4-0.2,5.3-0.4,8-2.1c1.7-1.1,1.5-0.6,2.2-2.8c1.6-4.8,1.7-3.4-0.2-8.2
		c-4.8-1.4-4.2-2.7-6.7-1.8c-1.1-2.4,0.1-0.7-1.8-2.1l-1.7-1.7c-11.7-0.9-15.6,1.1-27.1-3.1c-4.5-1.6-8.1-1.3-12.5-3
		c-2.6-1-4.2-0.7-6.9-1.2c-3.8-0.7-4.2-0.4-5.4-2.1c0.9-1.6-0.8-0.5,2.2-1.6l7.2-3.5c5.2,1.5,6.7-1.9,11-3.7
		c7.9-3.3,15.1-5,23.2-7.8c4-1.4,7-3.8,11.7-3.7c3.4,3.7,1.9,2.7,7.5,4.7v3.9l3-1.1c5,3.9,3.7,0.5,7.1,1.4c1,0.3,2.5,0.9,4.3,1.3
		c5.4,1.1,13.6-1.1,26.5,1.9c3.9,0.9,2.5,1.9,4.8-0.3c-0.8-0.2-1.7-0.5-2.5-0.8l-6.8-2c2.5-0.7,7.1,0.8,10.7,1
		c5.7,6.8,4.6,1.7,10.6,4.5c6,2.9,5.7,2.6,11.6,2.1c-1.9,1.4-2.9,1.2-5.3,1.7l-5.6,1.7c9.1,0.3,7.1,0.9,14.4-2.6
		c7-3.4,7,0.9,14.6-0.4c1-1.7,2-2.7,2.3-4.7c-2-1-3.1-1.8-6.3-1.5l-0.5,3.1l-3.3-0.2c0.7-2.7,2.3-2.5,3.8-4.6
		c-1.5,0.2-1.5,0.4-2.6,0.8l-2.2,0.8c1.1-3.9,3.6-3.5,4.8-9.2c1-4.8,3.7-8,2.8-9.9c-1,2.6-3.7,5.4-5.4,7.4c1.6,1.5,0.4-0.1,1.8,1.9
		c-2,4.4-2,4.2-5.2,7.3c-2.1,2.1-2.8,5.6-5.4,6.7c-1.6,0.2-1.4-0.9-3.9-0.5c-5,0.7-7.5-1.6-12.6-3.7c-16.6-7-25.1-1.9-38.3-6.4
		c-2.5-0.8-1.3-1.2-3.3-2.1c-3.7-1.7-9.6-1.3-10.8-5.7c3.1-1.2,6.5-1.6,9.6-2.6c3-1,4.8-2.6,8.5-3.4c3.2-0.7,5.8-1.4,9-2.7
		c4.9-2,5-1.3,9.2-2.6c5.9-1.7,12.5-4,18.6-5.6c6.1-1.6,16.2-2.5,15.4-8.2c-3.9-1.9-6,0.8-9.3,1.2c-5.8,0.9-2.2-0.5-9.6,1.5
		c-2.9,0.8-6,1.5-9.3,2.4c-3.4,0.9-5.2,1.9-8.2,3c-0.1,2.3,0.3,1.3-0.8,2.8c-2.2,0.1-1.9,0.1-2.2-0.8l-0.4-4
		c0.9-5.3,5.6-1.7,6.6-7.5l-6.8,2.1c-2.2,5.6-0.4,4.4-0.9,9.6l-2.1,1c-0.9,0.3-1.5,0.4-2.4,0.6c-5,1.2-17.7,4.3-21.2,6.8
		c-3,2.1-49.3,16.2-59.2,20.3c-2.5,1-5.4,1.7-8.1,3c-2.6,1.2-5.2,3.4-8.5,2.4l-6.7-2.6c-2.5-1.2-4.8-4.2-6.7-6.9
		c-2.1-2.9-3.7-2.5-6.8-4.4c-4.3-2.7-1-3.1-7.7-3.4c1-3.3,6.3-3.2,8.9-5c0.9-0.6,0.4-0.4,1-1.2c-5,0.4-7.4,2.7-11.8,4
		c-4,1.2-9.8,0.7-13.3,1.6c-7.1,1.9-4.7,1.8-12-0.4l-21.7-8.6c-7.7-3.4-17.8-8.8-25.8-11.3c-3.1-1-3.7-0.1-6.8-0.7
		c-0.5-4.7,0.6-4.6-1.7-8.2C103.6,337.9,105.6,347.8,98.1,341.7L98.1,341.7z"/>
	<path class="st0" d="M221.8,332.2l1.8-0.2C221.8,333.2,222.3,332.5,221.8,332.2z M213.8,321.4c0.3,0.6,0.3,0.5,0.6,1.1
		C213.3,322.1,213.9,323.1,213.8,321.4z M176.6,313c1.8-1.6,3.9-1,5,0.6c-1.6,1.3-0.6,0.8-2.4,0.3C179.1,313.9,176.7,313,176.6,313z
		 M155.9,314.2c-2.1-0.3-3.9-0.1-6-0.3c-1.1-1.2-2-2.7-1.7-4.9c1.2,0.2,9.2,5.2,19.5,4.5c0.1,0.1,0.3,0.2,0.4,0.3l1.5,1.3
		c3.2-0.8,0.7-0.9,4-1.4l-0.9,2.9C165.6,317.5,158.3,314.6,155.9,314.2L155.9,314.2z M185.1,310c0.5-2.3,0.8-3.2,3.6-3.2l0.6,3.5
		c-2-1.1-0.3,0.5-1.9-1.7C186.4,309.2,186.4,309.3,185.1,310z M191.9,305.1c-2.8-0.6-2.1,0.1-2.5-2
		C191.8,301.9,191.5,302.9,191.9,305.1z M197.4,293.8c0.6,0.8,1.3,0.4,0,2.2C195.8,294.3,197.4,293.8,197.4,293.8z M195.3,288.6
		c0.5,1.4,1.2,0.1,1.1,2.5C195.3,290.3,195.2,290.3,195.3,288.6z M171.1,265.6c3.3-0.1,4.2,0.7,5.9,0.8c2.6,0.2,1.7-1.4,5.2-0.2
		c1.6,4.9-0.5,2.9,4.6,12.7c1.2,2.4,2.4,3,3.4,5.2c2.7,5.4,3.5,9.3,4.6,11.1l6,13.7c1.3,2.8,0.4,5,2,7.3c2.5,3-0.1-2.2,6.2,6.2
		c0.8,1.1,1.9,2.9,2.6,3.6c1.9,1.8,7.1,4.6,10.3,9.6c4.6,7.2,7.9,4.7,5,11.9c-6.2-3.8-4.2-2.5-6.9-5.8c-4-4.9-2.2-0.8-10-11.7
		c-1.8-2.5-1.7-2-4.1-4c-1.7-1.4-2.8-2.8-4.1-4.6c-2.2-3.2-5.6-5.8-6-11.2c-0.5-8.3-0.9-6.7-3.9-12.9c-0.7-1.5-1.1-1.5-1.7-2.6
		c-0.5-1.1-0.4-1.9-1-3.3c-1.5-3.7-9.1-11.4-14.1-20.7c-1.5-2.8-1.2-1.9-3-3.2C171.4,266.1,172.1,266.8,171.1,265.6L171.1,265.6z
		 M123,245.5c3.6,0.8,6.3,4.3,12.1,2.9c12.3-3,10.8-1.7,24.2,5.6c12.9,7,5.7,11.3,13.6,16.8c3.6,2.5,2.2,5.4,5.1,9.1
		c4.1,5.1,6.2,4.7,8.7,11.7c1.5,4.1,0.2,1.7,2.5,4.8c0,7.8-4,8-6.6,13l-7.4,1.1l-1.1-2c-5.3,0.2-8.6,3.6-14.2,0.6
		c-2.5-1.3-3.5-1.1-6.3-1.8c-4.4-1-2.4-0.8-6.9-0.8l-2.6-3.8c-3,0.2-2.8,1.2-4.8,2.3c-0.8,0.4-5.4,1.5-6.3,1.7
		c-3.3,0.6-9.8,1.7-11.2,4.5c0.7,1.3,5.5,4.5,5.6,4.5c2.8-0.1,2.2-0.3,4.1-1.6c1.8-1.3,2.5-0.8,3.3-2.8c-3.8-0.3-5.1,1.8-7.2,0.5
		c2.3-1.5,8.9-2.2,11.2-2.1c-1.7,4.2,6.2,5.6,10.3,6.5c5.8,1.3,7.3-1.3,13.5,2c5.4,2.9-1.5,10.4-1.4,12.9l1.4,2.5
		c-0.8,1.7-3,7.1-2.3,8.5c3.4-2.1,0.1-2.7,5.7-6.3c0.1-4.3,0.3-5,2-8.2c1.3-2.5,1.7-5.5,2.8-7.1c1.9-0.8,1.7,0,3.7-0.6l14.8-7
		c3.4-2.4,0.2-3.3,3.3-5c0.8,1.1,0.4,5.3,6.8,14.6c2.3,3.3,5.3,4,11,11.4c2.7,3.5,16.9,19.8,23.2,20.8c-0.4-1.2-3.2-4.7-5.1-4.9
		l3.2-6.5c1.2,0.1,0.6-0.4,2,0.3c1.6,0.8,0.8,0.4,1.3,1.9c-0.5,0.4,0.4,0-1.4,0.7c-1.1,0.5,0-0.1-1.3,0.5c0.6,2.3,0.5,1.9,1.7,3.2
		c1.8,1.9,6.2,6.4,8.3,6.7c1.7,0.2,2.6-0.5,3.9-0.9c2.9-0.8,2.1,0.1,4,0.1l7.6-3.1c-3.3-0.1-5.4,1.1-8.9-0.5c-1.7-0.8-1.4-1.2-2.9-2
		c-1.6-0.8-2.2-0.5-3.7-1.2c-2.2-1-2.5-3.6-4.2-5.2c-1.7-1.6-4.1-2.8-5.6-4.3c-1.6-1.7-2.2-3.3-4-5.3l-9.6-9.7
		c-1.9-1.8-0.4-0.8-1.7-3.3c-0.5-1-1.2-1.7-1.9-3c-1.5-2.9-6.4-13.7-8-15.5c-3.9-4.4-2.1-2.3-4.7-10.1c-1.2-3.9-4-7.8-5-14.4
		c-1-6.6-3.3-9.7-4.3-15c-1-0.5-2.4-1.2-3.4-2.1c-1.1-0.9-1.2-1.7-2.6-2.8c-1.4,0-2.4,0.2-3.7,0c-3.1-0.6,0.6-1-3.5-0.6
		c-1.7,0.2-3.8-0.6-5.9-1.4c-4.2-1.7-2.7-8.9-10-4.5c1.6,3.4,1.9,1.5,4.7,3.7c1.1,0.9,4.1,5.4,10.4,4.6c1.9-0.3,5.2,0,5.8,1.9
		c-1.2,0.9-7,1.6-8.8,1.2c-5.8-1.4-3.9-2-7.4-3.9c-6.2-3.3-3.6-4.8-8.9-7.3c-2.6-1.2-1.1-1.2-3.3-2.2c-5-2.1-11.6-6.5-16.5-5.1
		c-4.9,1.3-2.7,2.6-11.2,1.9c-3.9-0.4-2.2-0.9-4.1-1.5C120.9,243.3,123.7,244.5,123,245.5L123,245.5z"/>
	<path class="st0" d="M815.4,388.2c0.8-1,0-0.4,1.4-1.4c3.6-2.4,3.6-2,4.7-0.8C820.4,386.6,817,387.9,815.4,388.2z M842.1,386.1
		c-2.8-0.3-2.5-1.1-5.3-1.2c-2.2-0.1-4.5-0.2-6.7-0.3C833.5,384,840.9,382.1,842.1,386.1z M796.3,381.3c0.8-1.5,0.3-1.3,1.5-1.8
		c2.1-0.9,3.1,0.4,3.1,0.4L796.3,381.3z M746.1,379.6c1.7-3.5,2.4-2.6,6.2-4.6c7.1-3.5,22.5,1.4,25.8,4c4.1,3.2-0.9,1.4,6.8,3.7
		l8.1,3.1c9.2,3.3,11.7,0,19.3,1.1c-1,3.4-0.7-0.1-2.3,2.9c3.1,4.8,9.6-1.8,13.7,0c-0.6,1.9,1,0.5-1.3,1.7c-0.8,0.4-1.7,0.5-2.4,0.7
		c-1.9,0.4-3,0.9-4.7,1.5c-6.3,2.3-14.8,2.7-21-0.5c-8.3-4.3-8.6-1.2-17.8-7.5c-2.7-1.9-1.5,0.2-3.5-2.6c-1.2-1.7-1.6-2.4-3.1-3.1
		l-17.3-1.5C749.7,378.4,749.3,379.4,746.1,379.6L746.1,379.6z M778.8,374.6c-0.5,2-0.1,1.4-2,1.3
		C777.4,375.2,777.8,375,778.8,374.6z M793.1,375.1l3.5,0.2c-0.8,0.8,0.1,0.4-1.8,1l-5.4,1.9c0.5-2.2,0.1-0.4,1.7-1.7
		c1.2-0.9,0.4-0.3,1.3-1.3c-2.5,0.4-5.2,1.3-6.8,2.9l1.9,1.6c1.7,1.2-0.2,0.2,2,1.3l7.1-4.1c2.9-1,2.6,0.5,2.9,0.7
		c-1.1,0.5-2.5,1-3.9,1.7c-2,0.8-2.9,0.8-3.6,2.5c6.2,3.8,6.8-1.5,12.3-1.2c1,1,1.3,1.6,2.8,2.3c0.2,0.1,1.8,0.6,1.8,0.6
		c1.4,0.9,0.4,0,1.3,1.7c-6.4,0-6.9,0.8-8.5-1.3c-0.1-0.1-0.2-0.3-0.3-0.4c0-0.1-0.1-0.3-0.2-0.4c-3.5,0.8-3,3.7-11.4-0.9
		c-1.8-1-1.3-0.7-3.6-1.5c-2.2-0.7-1.8-0.9-3.1-2.6l1.2-2.2c0.1-0.1,0.3-0.3,0.4-0.4c-1.6,0.5-2.5,1-3.7,1.7c0.2-2.5,2.9-3.2,5.2-4
		c5.6-2,2.4-0.8,7.4,0.3C793.4,374,793.3,374.6,793.1,375.1L793.1,375.1z M772.1,374.3c1.2-1.7,3.2-2.1,4.9-2.8
		c-0.2,1.6-0.1,1.1-1.9,2.5c-1.2,0.9,0.1,0.6-1.6,0.8C772,375,772.7,374.6,772.1,374.3z M718.7,386.7c2,1.2,1.5,0.6,4.6,0.7
		c9.9,0.3,2.9,1.3,12.8-1.5c2.3-0.7,1.3,0.6,3.3-0.4c5.6-3.1-1.9-1.4,10.2-3.4c2.5-0.4,2.3,0.3,4.2,0.5c2.7,0.3,2.3-0.5,4.3-0.9
		c2.7-0.5,5.1,1,7.6,1.6c7.3,1.7,7.1,3.2,12.6,6.1c2.1,1.1,4.5,2.5,6.8,3.1c17.1,4.4,10.9,9,37.5,1.2c4.3-1.2,5.4-5,12.9-5.5
		c2,3.6,12.2,4.9,9.8-1.2c-2.6-6.6-3.7-6.2-18.5-5.6c-10.6,0.4-7.9,4.6-20.1-1.1l-7.8-6.6c-1.6-1.4-3.7-2.8-6.1-3.8
		c-6.7-2.9-9.3-2.1-17.3-1.5c-4.9,0.4-4,0.9-7.1,2.7c-2.4,1.3-5-0.6-7.9-0.4c-6.5,0.4-8.7,2.9-13.7,5.5c-3,1.6-2.5,2.7-5.4,4.4
		l-9.8,4.5C722.2,387,720.8,383.5,718.7,386.7L718.7,386.7z"/>
	<path class="st0" d="M660.6,245l-3.7-3.2c0.2-0.2,0.4-0.5,0.4-0.4l2.7-1.6l0.2-3.1c-3.4,1.2-1.7,1.8-4.6,2.5
		c0.3-3.7,1.1-4.9,1.4-8.8c0-0.1,4-5.2,6.5-6.3c7.3-3.1,0.3-4,10-8.6c3.5-1.7,6.7-3.6,11.2-3.7l-7.1,21.4
		C676.1,235.9,665.3,244.8,660.6,245z M690,163.9c-1.7,0.5-2.8,1-4.7,1.7c-4.3,1.5-3.9,2.1-7.7,5.1c-0.8,0.6-0.8,0.7-1.8,1.4
		c-0.9,0.6-1.2,0.7-2.1,1.5c-3.4,2.8-9.9,14.7-4.9,17.7c0.5-9.4,0.4-12.5,7.5-18.3c12.6-10.3,6.2-4.2,12-7.2
		c4.1-2.2,4.7-3.7,6.6-8.3c1.2-2.9,1.1-3.9,3.6-5.3c0,0.1,1-0.3,0.4,2c-0.2,0.8-1.1,0.7-2.1,5.3c-3.4,15.4-3,9.2-4.9,14.9
		c-1.9,5.8,0.4,1.1-3.7,6.9c-4.6,6.5-5.1,10.5-12.5,17.9c-1.9,1.9-4.6,2.9-3.3,6.6c-2-1.1-1.8,2.8-1.5-2.3
		c0.3-4.5,5.2-17.5,5.2-17.5c-2.1,1.2-2.5,1.8-3.7,4.3c-2.2,4.6-2,7.1-3.1,11.7c-0.7,2.9,0,4.8,0.4,6.9c-1.3,0.9-3.3,6.3-4.1,8.2
		c-1,2.4,0.4,0.8-1.8,2.1c-0.8-5-1.3-9.7-2.2-14.4c-1.2-6.1,6.7-14-3.1-17.5c-6.4-2.2-18.2,10.6-7,14.8l1.1-3.2l-2.9-1.5l-0.2-3.5
		c1.4-1.4,2.2-2.4,4.7-2.9l0.6,3.5c2.4-0.9,0.8-0.4,2-2.9l3,0.9c0.6,3.3-0.1,6.2-1.2,8.6l-5,0.1c0.8,5.7,3.7-0.3,5,5.2l-3.3-1.2
		c0.3,4.2,0.9,4.4,4.9,4.6c-0.8,4.7,0.6,5.4,0.7,9.5c0.1,0.1,0.4,0.1,0.4,0.4l1.6,0.8c-0.3,3.5-1.5,2.3-6.8,8
		c-1.8,2-2.9,8.3-3.2,11.8c3.8,7.2-0.2,3.2,0.3,8.5c3.3,0.2,1.3,0,3.3-2.6c3.2,0.1,4.2,4,9-1.1c1.5-1.6,0.5-1.6,2.7-2.9l7.6-4.1
		c9.4-5.8,8.2-10.4,11.7-17c0.9-1.8,1.4-1.4,2.5-3.1c6.9-11.2,21.9-7,23.8-11.3c-2.5-2.6-13.1-0.7-16.4,0.2c-4.2,1.1-6.1,4.5-6.7,5
		c-2,1.8-2.6,1.6-5,6.9l-2.7,7.2c-0.5,1.1-0.4,0.7-1,1.4c0.7-5.3,2.5-9.2,4.7-12.6c2.7-4,3.8-5.8,8.6-8c5.8-2.5,15.8-2.5,22.3-3.1
		c5.6-0.6,2.8,1.6,6.6,1.5l-0.3-4.1c1.9-1.6,0.8,0,1.5-1.8c-0.5-0.3-4.2-1.1-4.7-1.1c-2.6,0.2-1.5,1.7-1.2,3.6c-7.2,0-21,0-26.3,4.1
		c-5.8,4.4-7.4,3.6-10.9,4.6c-1.9,0.5-4.3,0.7-6.1,1.2c-2.3,0.8-2.9,1.5-5.4,2l0.2-2.9c0.8-4.3,1.2-2.4,2.8-5.2
		c1.9-3.1,0.2-1.9,4.5-7.3c3.6-4.5,5.1-4.3,9.8-13.7c0.7-1.3,1-2.7,1.6-3.9l6.4-11.7c1.6-3.3,1.8-5.4,2.5-9.3
		c0.7-3.6,2.9-5.7,1.8-9.5c-6.2-0.1-9.2,8.8-10.4,13.3L690,163.9z"/>
	<path class="st0" d="M105.2,298.1l3.9,0.5C107.4,299.8,106.8,299.2,105.2,298.1z M119.8,283.8c0.4,0.2,0.7,0,1.2,0.7
		c0.9,1.1,0.4,0,0.4,1.5C120.4,286.1,119.6,287.7,119.8,283.8L119.8,283.8z M127.1,281.7c1.7,0.8,5.3,6.1,3.3,8.9
		c-1.5-1-1-2.3-1.1-4.6C127.6,284.7,126.9,284.6,127.1,281.7L127.1,281.7z M131.7,281.8c0,0.1,2.1-0.3,0,2
		C130.7,282.7,130.6,282.7,131.7,281.8z M118.9,282.6l1.8-0.2C120.2,282.9,121,284.1,118.9,282.6z M124.9,282.3
		c-1.4-1.3-0.5-1.2,0.2-1.8L124.9,282.3z M92.5,284.1c0.6-2.9-0.2-1.6,1.4-2.6C94.5,282.9,94.5,283.6,92.5,284.1z M98.8,274.6
		c3.8,2.1-1.2-1.2,11.4-3c7.3-1,5.8-2.4,13.8-0.4c3.7,0.9,9.1,2.5,11.9,4.2c2.3,1.5,7.4,5.5,7.2,8.1c-1.5-2.3-4.4-4.6-8.3-5.3
		c-2.4-0.4-4.7,0.2-6.8-0.6c-2.6-1-0.7-2.1-5.9-2.1c1.3,1.2,1.9,1.2,2.7,2.6c-2.3,0.7-5.3,1.8-7.4,2.4c-5.6-2.2-8.1-0.8-14.2-1.1
		l-2.1-2.9c-5.8-0.2-5.4-0.9-8.7,2.5c-2.1,2.1-4.8,3.7-3.2,8.2c0.4,0.1-0.9,2,2.6-0.8c1.7-1.4,1.1-0.5,2.2-1.3
		c2-1.4,0.8-2.8,4.8-3.3l14.3-0.6c3.3,2,2.4,2.3,4.5,4.4c2.4,2.5,2-0.3,4.1,5c0.8,2,1.9,3.9,3.2,5.5c2.7,3.3,4.8,0.4,5.5,3.9
		c-6.2-0.4-11.2,0.2-17.1-1.6c-2.1-0.6-10.3-6.6-13.4,0.1l17.4,3.5c2.8,0.4,4.2-0.1,4.4,2.6c-5.7,1-6.6-1.2-12.4,1.8
		c-2,1-3.7,0.9-5.5,1.9c-6.4,3.3-7.5,4.1-16.7,2.9c-2.5-0.3-4.9,0-7.4,0c-5.1-0.2-3.5-2.1-6.6-0.3c0.8,1.4-0.2,1,3.3,2l14.4,1.3
		c6.2,0.2,10.9-3.1,15.4-5.4c7-3.4,11.6-1,17.1-3.2c2-0.8,1.4-1.3,6.5-3.4c3-1.2,6.4-0.8,9-0.5c0.5-0.8,0.9-1.7,1.6-2.4
		c5.8,0.1,3.6,3.3,8.6,3.4l0.4-2.8c-3.3-1.6-5-3.5-9.6-3.7c-6-0.2-6.9-0.4-11.6-2.1c-1.2-2.1-2.6-4.2-2.7-6.9c1.4,1,0.3,0,1.3,1.2
		l1,1.4c1.2,2,0.6,4.3,3.5,2.1c3.7-2.8,0-3.9,3-7l0-4.4l2.1,0.1c0.3,3-1.7,2.1,0.2,4.6c2.3-0.6,0.5,1.5,1.9-2.2
		c3.8,1.1-0.5,2.9,5.9,4.4c3.5,10.8,4.8,6.9,5.7,16.8c4-2.4,2.9-4.7,2.3-10c-8.4-5.3-1.4-6.8-7.5-14.2c-4.7-5.7-4.7-6.7-12.7-9.7
		c-4.2-1.6-14-4.1-19-3c-4.6,1-16.2,2.7-14.6,6.8L98.8,274.6z"/>
	<path class="st0" d="M417.5,330.9c-1.7-0.4-0.8,0.9-1.7-1.7C418.3,329.6,417.4,328.6,417.5,330.9z M412.3,327.9
		c-1.4,0.8-3.5,0.4-5.6,0.3C407.1,327,410.9,326.9,412.3,327.9z M397.7,326.6l-0.9,4.9c3.2,3.2,3.3,2.4,7.1,1c2,1.4,2.8,3,10.2-0.1
		c5-2.1,3.3,1.2,12.9-5.7c2.3-1.7,3.2-2.7,6.6-3.1c-0.3,2.8-1.8,4.6-2.9,6.7c-0.5,1-1,2-1.5,3.4c-2,6.1-0.8,2.8-13.7,5.6
		c-7.7,1.7-20.7,5.8-28.3,7c-4.2,0.7-2.2,1.4-5,2.6l-6.1-4c-3.5-1.7-2.6,0-2.9,0.1c0.1,0.1,0.3,0.1,0.4,0.4c0.5,1.7,4.6,0,8.1,7.5
		c1.2,2.5,1.2,3.3,2.5,5.5c1.6,2.6,0.8,3.4,1.8,6.2c1.8,5-2.1,15.2-4.6,18.7c-1.6,2.2-2.6,1.4-4.4,4.8c3.3-0.6,3.7-1.8,7.4-5.5
		c4.7-4.7,4.9-14.1,2.9-20.3c-0.5-1.6-0.9-3.3-1.3-4.9c-0.8-2.7-1.6-2.6-1.9-5c3.6-1.9,37.6-10.6,42.2-10.8c3.1,5.1-0.9-1.2,1.2,3.8
		c3.8-0.6,2.3-5,5.4-14.4c0.8-2.5,2.3-4,3.4-6.4c2.7-5.8,2.9-3,3.6-6.3c-6.7,3-3.6,0.6-10.3,2.7c-3,1-6.2,2.8-9.3,3.7
		c-2.2,0.6-7.2-1.3-11.5-1.1C405.4,324.2,400.5,325.4,397.7,326.6L397.7,326.6z"/>
	<path class="st0" d="M494.1,261.3c-2.3,1.6-0.4,2.3-0.4,2.6l9.1,0.8c-2.2,1.2-5.6,0.4-8.2,0.8c-4.6,0.8-10.7,7.2-20.3,2.6
		c-6.2-2.9-2.1-3.8-10.1-7.3c-3.7-1.6-2.3-1.1-3.9-4.7c-1.6-3.4-2.6-2.4-3.9-5c0.6-0.5-0.5-0.4,1.6-1c1.6-0.4,3.3,0.3,6.1-0.8
		c3.2-1.2,3-0.9,9.4,2.3c1.4,0.7,4.7,4.3,8.7,4.9c-1.4-3.3-2.5-0.7-3.1-4.1c1.6-1.2,9.7-1.9,12.2-1.5c5.8,0.9,9.8,4.3,19.2,7.1
		c2.2,0.7,2.7,1.3,4.6,2c2.7,1,3.4,0,5.1,1C518,265.9,498.8,257.9,494.1,261.3L494.1,261.3z M439.4,265.8c2.6,0.7,1.2,0.8,6.2-1.6
		c1-0.5,0.7-0.5,1.1-1.4c0-0.1,1.6-3.7,4.9-3.7c2.8,0.8,5.9,2.8,8.4,4.1c2.6,1.4,5.8,1.8,8.7,3.6c5.2,3.2,10.2,7.5,17.9,4
		c9.5-4.3,7.6-2.2,15.1-3.3c2.5-0.4,2.8-1.7,4.4-1.9c1-0.1,3.7,0.4,5.5,0.4c3.7-0.2,12.2-2.6,14.7-4.3c-0.3-1,1.2-1.6-4.9-2.3
		c-6.1-0.7-12.3-3.4-17.9-5.8c-2.2-0.9-8.7-4.1-11.2-4.4c-5.7-0.7-16.2,1.4-20.8-0.8c-6.3-3-4.6-3.2-12.2-1.2
		c-3.7,0.9-3.2,0.5-5.4,2.7c-3.7,3.5-5.9,1.1-8.8,6.7C443.7,259.6,439.4,263.2,439.4,265.8L439.4,265.8z"/>
	<path class="st0" d="M616.4,131.6c0.8,1.2,0.9,0.6,0.6,3.4c-0.1,0.8-0.6,3-0.8,3.7C614.9,136,614.2,134.2,616.4,131.6L616.4,131.6z
		 M611.7,133.5c1.2,1.2,1.2,1.1,1.7,3C612,135.6,611.7,135.9,611.7,133.5z M574.3,85c5.8,2.7,7.3,7.8,10.8,14.1
		c2.1,3.7,4.4,2.1,7.9,4.6l9.3,9.8c1.7,2.4,4.2,10.3,4.5,14.2c0.5,5.4,6,12,8.8,15.8c-2.1-0.7-3.7-3.7-5.7-4.7c-1.9-1-2.9-0.4-4.6-1
		c-1.8-0.7-1.4-1.5-3.7-2c-3.4-0.7-6.7-0.1-8.7-2.5c-1.4-1.8-1.3-4.8-3.7-7.1c-1.2,2.5,1.1,1.3,1.2,6c-2.6-3.9-2.1-1.4-6.9-9.4
		c-1-1.7-2.5-2.5-3.9-4.1c-0.9-0.9-2.3-3.5-3.1-4.9C571.2,104.5,575.4,96.1,574.3,85L574.3,85z M620.9,149.4
		c0.3-4.3-2.4-3.2-1.8-9.3c0.3-3.4,1.2-10.6-1.5-14.6l-9.1-9.1l-2.1,1.7c-2.9-4.3-4.5-8.5-9.9-13.8c-1.7-1.7-1.6-0.8-3.3-1.6
		c-3-1.3,0.1-1.6-4.1-3.3c-2.4-1-2.4-1.1-4.4-5.6c-1.2-2.8-1.7-2.7-3.3-4.1c-3.2-2.6-3.7-6.7-8.3-7.4c-3.1,2.5-0.4,5.8-1,11.7
		c-0.8,7.9,1.7,17.5,4.6,24.6c1.8,4.6,2.9,2.3,6.2,8.6c4.3,8.1,0.5,2.4,6.5,8.4c2.9,2.9,6.7,3.2,11.6,3.2c3.9,0,2,1,5.4,2.2
		c1.7,0.6,3.9,0.7,5.4,2C614.3,145.2,616.9,148.8,620.9,149.4L620.9,149.4z"/>
	<path class="st0" d="M544.6,175.2c-0.5-2.6-1.4-3.2-1.2-6c0.4-4.3,0.6-3,3.7-3.1c1.5-1.2,2.9-2.5,5.1-3.6c2.7-1.3,4.9-0.4,7.7-1
		c4.5-1.1,2.2-0.9,7-0.1c1.7,0.3,7.6,0.1,9.4,0c1.8-0.1,2-0.6,3.7-0.8c1.7-0.2,2.5,0.2,4.3,0c18.1-1.7,20-6,21.1-6.3l5,0.3
		c1.5-1.6,0.9-1.7,2.5-3c1.4,0.9,4.6,3.4,6.8,2.9c2.5-0.7,1.3-0.3,1.5-2.5c-0.9-0.4,0.1-0.2-1.5-0.5c-3.8-0.8-1,0-4.5-1.8
		c-2.9-1.6-3.3-1.1-6.7-1.4c-1.1-1.6-1.5-2.4-2.8-3.3l-3.7-1.2c-0.1,0-0.3,0.2-0.4,0.2c2.4,2.7,5.8,2.3,4.2,7.1
		c-2.1,0.4-6.2-1-8.8,0.3c1.5,0.7,0.6,0.2,2.2,0.4c2.1,0.2,1.1-0.2,2.8,0.8c-1.2,2.4,1.1,0.6-5.4,2.9c-2.7,1-3.1,1.7-6.7,1.8
		c-3.8,0-5.4,0.8-8.1,0.9c-1.6,0-2.5-0.3-4.2,0.1c-1.6,0.4-1.7,0.9-3.1,1.1c-1.9,0.3-6-0.1-8.3-0.3c-3.2-0.2-5.8,0.5-8.7,0.4
		c-4.8-0.2-8.9,1.2-12.2,4.5c-0.2-1.6-0.5-0.8,1.9-4.4c0.7-1.1,2.6-2.6,3.9-3.4c4-2.5,6.7-1.4,9.8-5c6.4-7.3,9-4.9,15.5-6.7
		c4.4-1.2,1.9-1,4.6-3c3.1-0.4,4.4,1.1,8.7,1.1c3,0,1.8-0.5,4.4-0.5c1.8,0,2.9,0.3,5,0.2c-0.1-0.1-0.3-0.5-0.4-0.4l-1.4-1.1
		c-3.9-2.7-19.3-2.1-23.7-0.4c-10.4,4-16.8,10.9-19.3,11.8c-1.9,0.7-2.7,1-4.3,1.9c-2.3,1.2-5.4,3.4-7,5.4
		c-2.9,3.7-4.7,9.2-2.4,13.6c0.9,1.8,1.3,2.4,3.7,2.4H544.6z"/>
	<path class="st0" d="M620.2,489c1.2-1-0.2-1.2,2.8-0.4l5.9,1.6c2.4,0.6,1.7,0.3,2.6,2.1c-3.5,0.2-3.4,0.1-6.3-0.9
		c-1-0.4-1.7-0.5-2.7-0.9C619.3,489.3,621.3,489.7,620.2,489L620.2,489z M578.2,453.6c2.7,0.3,2.8,1.5,3.8,3.7
		c0.5,1.1,0.6,1.2,1.4,2.3c1.3,1.7,0.2,0.1,1.4,2.4c1.2,2.3,5.7,5.9,8.1,7.2c6.8,3.6,4.4-0.8,8.7,6.2c2.1,3.5,6.9,4,7.7,8.1
		l-2.2,0.9c-1.2,0.3,0.1-0.4-1.5,0.3c1,2.5,3,0.6,5.5,1l0.7,1.1c-3.5,2.4-16.8-1.7-17.3-1.9c-2.8-1.3-4.5-2-5.2-5.3
		c-0.9-4-1.6-5.3-2.4-8.8c-4.4-1.5-6.1-0.9-9.4-4.1C576.9,461.5,580.1,458.3,578.2,453.6L578.2,453.6z M585.3,461.2
		c-0.8-1.5-0.8-2.6-1.4-4c-0.7-1.7-1.5-1.6-2.5-3.2c-2.1-3.5,0-4.8-6.1-5.7c0,2.9-0.4,2.9-1.2,5.3c2.9,6.2-5.9,15.4,9,18.3
		c0.2,8.3,2.3,6.8,4.2,9c3.5,4,0.7,3.5,7,6.1c4.8,1.9,14.1,4.2,18.8,1c1.9-1.3-0.9-0.6,2.2-0.9c0.7,1.9,0,1.8,1.4,3l9.5,3.5
		c2.5,0.5,9.3,1.2,11-1.4c1.8-2.8-0.2-3-0.2-3c-1.6,1.3-0.8,1.1-2.5,2.1c-1.3-1.2-0.6-0.7-1.7-2.3c-3.8-0.4-2.8,0-5.1-1.5
		c-2.2,0.3-3.3,0.3-5.4-0.5c-4.6-1.7-5.8-0.2-11.7-5.1l-6.2-5.5c-7.1-10.6-6.3-4.5-13.2-9.7C589.3,465.1,586.4,463.1,585.3,461.2
		L585.3,461.2z"/>
	<path class="st0" d="M319.7,399.9c-2.5-0.6-1.7,0.7-2.3-1.8C319,398.3,318.9,398.6,319.7,399.9z M334,398.1
		c-1.3-0.6-0.7-0.3-1.3-1.1L334,398.1z M307.8,395.4c3.1-0.1,1,0.1,1.8,0.7c-1.8,1.1-1.6,1.3-3.7,0
		C306.2,395.8,305,395.4,307.8,395.4z M278.2,385.5c6.3,7.9,17.7,8.6,20.9,10.1c1.4-0.6,2.8-0.8,5-0.5c-2.5,1.1-1.8-0.4-3.4,1.7
		l7.5,3.3c4.6,2.4,3.9,0.4,7.4,1.2c8.9,2.3,10.1,5.6,13.3,7.1c-0.7-1.6-1.6-2.5-2.8-3.4c-1-0.7-1-0.6-1.9-1c-2-1,2.1,1.2-0.8-0.4
		c-0.1,0-0.4-0.1-0.4-0.3c-0.1-0.2-0.3-0.2-0.4-0.4l2.1-0.5c0,0,2.2,0,2.4,0c0.6-2.1-0.5-0.9,1.7-1.6c6.3-1.8,4,2.8,9.5,2.8
		l-1.7-5.3c-0.5-1.4-1.5-2.4-2.5-3.4c-6.2,0.4-0.7,0.8-7.1-0.2l-2.3,2.1c-15.9-3.4-4.7-3.8-25.4-4.4c-11.7-0.4-15.4-5.4-16.5-5.8
		C281.5,386,279,385.2,278.2,385.5L278.2,385.5z"/>
	<path class="st0" d="M412.9,249.5c0.1,0,0.4-0.1,0.4,0c1.1,2.6-0.2,0.2,1.8-0.8c7.1,3.8,5.8,5,8.4,10.1c2.1,4.1,4.2,1.7,1.7,11.8
		c-1.9,7.8-0.2,14.7,4.4,20.8c-0.7,3.3,0.3-0.9-1,2.5c2.7,4,3.8,7.4,9.6,7.8c-0.3-2.9-1.6-5.3-3.2-7.2l0.7-3.9c-3.7-2.8-4-5-4.7-6.4
		c-2.3-4.7-3.3,1.2,0.3-10c1.8-5.7,5.5-7.7-1.2-8.9c-6.2-11.4-5.5-11.7-15-19c-2.5-2-4.1-5-6.2-5.6c0.6,2.3,0.2,0.4,1.6,2.8
		c0.1,0.2,0.3,0.8,0.6,1.3C412.3,247.1,412,246.1,412.9,249.5L412.9,249.5z"/>
	<path class="st0" d="M595.3,92.2c-1.2,2.5-0.7,4.1,0.9,6.2c0.1-0.1,0.4-0.4,0.4-0.3c0,0.1,0.6-0.5,0.8-0.6c2.2-1.2,2,2.1,2.1,3.9
		l4.9,4.3c2.2,2.5,0.2,4.2,3.2,6.7c2.5,2.2,3,0.8,5.1,4.2c2.5,4,2.6,2.7,4.3,5.6c4.8,8.2,2.6,13.3,4.8,23.7c0.9,4.5,2.1,3.3,1.4,7.3
		l1.6,1.6c1,1.5,1.6,4.2,3.4,5.8c10.5,8.8,3.8,9.2,2.6,11.8c2.3,2.8,4.5-0.1,8.5,0.1c2,1.5,1.4,1.8,4.8,2.2
		c-1.5-4.6-2.4-0.9-4.7-4.2c-1.5-2.1-1.1-2.9-3.2-5c-2.1-2.1-2.1-2.3-3.3-4.9c-1.9-4.2-2.7-1.2-4.5-4.1c-2.7-4.3-1.9-3.5-1.8-5.5
		c0.1-3.3-1.5-2.1-2.6-5.5c-1.4-4.4-1.2-10-1.9-14.7c-2-13.4-6.1-13.2-8.3-16.1c-1.8-2.4-1.9-2.7-4.1-4.6l-10.4-14.6
		c-0.4-0.9-1.2-3.1-2.5-3.6C594.5,91,595.3,92.1,595.3,92.2L595.3,92.2z"/>
	<path class="st0" d="M455.9,270.1l-0.7,9c2.1,0.9,4.2,1.8,6.2,3.1c3.5,2.2-1.8-0.1,5.8,4c-0.4,4.3-0.4,0.8-3.1,6.2
		c-2.2-0.5-5.7-2-8.3-2.6c-4.9-1.1-15.9,2.7-14.5-13.4c0.1-0.8,0.2-1.7,0.1-2.5c-0.4-2.2-0.8-1.6-1.4-2.1c-2.1,1.2-1.7,0.4-1.6,3.4
		c0.5,18.5,10.6,15.2,17.8,17.2c-0.7,4.8-1.8,0.9-6.7,7.7c-2.9,4-7.1,1.2-10.8,3.3c1.6,3.8,2.1,0.8,7.5,1.3c0,3.4-2.8,8.3-4.7,10.1
		c1.8,0.8,2.8-3.5,6.7-9.1c8.1-11.4,6.2-6.7,8.5-8.8l1.5-2.8c2.5,0,2.7,0.8,4.7,1.9l6.7-4.6l0.2-5.3l-8.5-6.1
		c-1.2-0.8-2.6-1.3-3.5-2c-0.3-3.1,1.9-7.6-0.1-10.4c-0.2-0.3-5.3-4.4-9.3-4.5c1.7,3.3,1.4,1.2,4.3,3.2
		C453.5,267.1,455.1,269.4,455.9,270.1L455.9,270.1z"/>
	<path class="st0" d="M620.4,431.4c7.2-0.4,11-0.4,15.1-4.6c1.9-1.9,1.8-1.7,1-4.2c-8.1-1.2,0.2,5.6-32.1-1.2
		c-2.1-0.4-3.7,0-5.2,0.2c-2.6,0.3-2.9-0.8-4.2,1.1c1.5,1.2,7.4-0.4,10.4,0c2,0.3,1.9,0.7,4.3,1.1c11,1.5,15.7,4.1,25,1.2
		c-0.7,2.1-1,2.1-4.2,3.1l-10.9,2.7c-2.8,0-3.2-0.4-5.1,1.2c1.2,2,1,0.5,2.1,2.5c-4.6,2.8-16.3,2.5-21.3,0c-2.5-1.2-5-3.9-8-4.2
		c-3-0.4-7.9,0.4-7.9,4.5c13.8,0.1,22.9,6.6,34.2,3.1c6.9-2.2,4.4-1.7,5.4-4.5L620.4,431.4L620.4,431.4z"/>
	<path class="st0" d="M528.4,537.9h2.5c0.9-4.4,2.5-7.8,2.7-12.4c0.2-5-0.8-8.4-0.3-13.5c0.4-4.1,2.5-7.5,2.5-12.5
		c-0.1-4.6-1.4-10.7-5.1-12.6c-6.5-3.3-5.9-5.4-9.4-7.9c-4.2-3.1-8.3-1.5-10-4.9c-1.1-2.2,0.3-2.1-1.9-3.4c-3.3,2.6,0.3,6.4,2.3,7.3
		c3.5,1.6,4.8,1,7.9,3.8l5.9,5.8c5.8,7.8,2.1,1.1,4.6,7.4l2.7,0.8c0.4,1.6-0.7,9.2-1.2,11.2c-1.7,6.3-0.4,4.5-0.4,10
		C531,534.6,532.1,523.3,528.4,537.9L528.4,537.9z"/>
	<path class="st0" d="M376.8,471.2c-0.9,2.1-0.2,1.8-2.7,2.1c-1.3-2.3-0.5-2.7-2.7-4.5c-1.1,8.2,2.4,3.2,0.1,13.9
		c-1.6,7.5-2.1,7.3-4.5,7.6c-1.2-4.3,0.9-6.7,1.1-11.5c-2.3,2.7-2.6,6.6-3.6,10.4c-1.4,5.5-4.6,4.3-5.3,8.4c2.8,0,4.1-1.9,5.4-4.1
		l3.5-0.3c4-6.2,5-9.7,5.5-17.1c4.3-2.5,4.1-1.2,5.7-7c2.5-8.9,6.3-21.2,4.3-30.3c-0.6-2.7-0.9-1.3-1.6-4.6
		c-0.3-1.6-0.8-3.4-1.5-4.6c-1.3-2.2-2.1-1.5-3.1-3.1c-0.8-1.3-0.5-2.3-1.7-3.7l-6.4-5.5c-10-5.3-7.1-3-13.1-2.1
		c-2.1,0.3-2.4,0.9-2.8,3c10.8,0.6,4.9,2,11.4,3.2c-1.7-4.3-4.1-2.9-4.8-5.7c2.5-0.5,5.6,1.7,8,2.8c2.5,1.2,5.3,3.3,6.2,5
		c2,3.6,3.3,4.2,4.7,6.5c1,1.7,0.6,2.5,1.4,4.1c2.5,5.4,2.8,4.1,1.9,14.6c-0.4,4.3-2,4.5-2.1,9.2c0,4.2-0.1,5.9-1.6,9.5
		c-0.8,1.7-1.1,2-1.8,3.8L376.8,471.2z"/>
	<path class="st0" d="M455.8,148.1c-2.3,2.2-5.1,1.6-6.5,5.8c-0.7,2.2-0.2,3.6-0.4,5.9c-0.2,2.5-1.1,3.2-1.2,5.6
		c1.3,2.1,3.1,3.8,6.6,3.9c-0.6-4.8-3.5-2-4-5.1c0.4-2.1,1-2.1,1.4-3.7c0.4-1.7-0.2-3.6,0.2-5.4c0.7-3.3,3.6-2.3,5.8-5.3
		c4.1-5.7,0.8-1.5,6-4.6c1.6-0.9,1.7-1.6,3.1-2.5c2.3-1.5,2.1,0.1,3.7-2.1c-0.8-0.6,0.4-0.8-1.4-0.7c-2.2,0.2-6.5,4-8.8,4.7
		c-1.6-1.9-2-5.4-0.5-7.7c0.9-1.4,3.1-4.4,4.7-5.1c2.4-1.1,1.3,0.5,3.2-1.8c1.1-1.4,0.5-1.4,2.4-2.5c1.4-0.8,2.2-0.8,3.7-1.3
		c2.4-0.9,1.5-0.8,3.3-1.8c3.9,0,0.6,0.8,4.1-0.2c11.4-3.3,5.5-1.8,16.3-2.1c-2.4-3.3-17.8,0.4-21.2,1.7c-3,1.1-4.3,0.3-7.4,1.8
		c-2.9,1.4-7.9,5.2-10,8c-1.7,2.3-3.3,3.2-3.4,5.8C455.3,142.9,456.9,143.4,455.8,148.1L455.8,148.1z"/>
	<path class="st0" d="M45,299.6c-0.3,2.5,1.6,6,5.7,3.2l13.4-1.1c0.4,1.1,0.4,0-0.3,2.9l2.5,0.7l-0.6,2.5l-6.1-0.6
		c0.8-2.2,1.4-0.5,2.4-3.7c-2.5-0.8-3.6-0.7-5.1,1.6c1.8,4.8,8.4,6.7,11,5c1.1-1.4,0.6-0.9,1.3-2.4c1.5-0.3,3.3-0.9,4.5-1
		c2.1-0.3,3.2,0.2,5.4-0.1c3-1.2-0.8-2.6,14-5.9c0.2,0,0.8-0.2,1-0.3c1-0.4,1.1-0.6,1.6-0.9c-0.8-0.6,0-0.7-1.6-1
		c-0.8-0.2-1,0-1.8,0c-3.2,0.4-8.6,2.6-12.5,4l-3.6,1.4c-2.5,0.6-4.8,0.9-7.4,0.8l-2.2-2.6c1.6-0.5,3.2,0.7,6.3,0.8
		c4.4,0.1,3.8-1.2,7.7-0.6c1-2.4-1.1-1.1,4.8-3.4c5.7-2.2,4.4,0,5.4-2.5c-4.6-1.9-12.3,6-20,4.5L45,299.6L45,299.6z"/>
	<path class="st0" d="M658.9,183.9c-1.1-1.7-0.1,0.1-0.9-2.1c0-0.1-0.1-0.3-0.2-0.4c-4.1-10.2-7.7-7-9-16.4
		c-1.3-9.6-0.5-18.2,0.9-27.6c3.4-0.3,3.2,2,3.4,5.2c0.2,2.1,2.9,11.7,2.2,16.7c-0.3,2.2-2,5.4-1.1,7.5c1.6-0.4,0.7,0.6,1.5-1
		l1.6-6.6c0.2-0.9-0.3-9.5-0.5-10.4c-0.4-1.7-1.7-1.9-2.1-3.7c-0.4-1.7,1.3-8.4-3.6-12.9c-2,0.9-0.9,0.4-2.1,2.3
		c-0.9,1.5-1,1.1-2,2.3c-2.5,3.2-0.4,5-0.6,7.6c-0.6,6.7-2.1,8-1,16.2c1.1,8,1,7.6,5.5,12.6c1.8,2,2.8,5.1,5,8.7
		c1.4,2.4,0.2,1.8,2.9,2.1L658.9,183.9z"/>
	<path class="st0" d="M538.6,381.8c1.6-0.8,3-0.6,4.9-1.2c3.5-1.2,3.8-2.8,8.6-2.7c0.8,0,2.1,0.1,2.8,0.4c2.1,1.2,0.4,0,1.3,2
		C544.5,379.8,541.8,384.7,538.6,381.8L538.6,381.8z M538.7,386.1c0.8-1.2,7.9-4.4,12.8-4.4c-0.9,0.8-1.9,0.8-2.8,2.4l9.9-0.8
		l-0.7-4.8c-5.4-2.9-7.5-1.3-12.1,0.1c-2.5,0.8-4.1,0.4-6.2,1.2c-2,0.8-3.3,1.3-5.6,2.3c-0.6,6.5-1.8,2.9-1.7,7.1
		c5.7,4.1,18.2,7.5,21.8,5.6c-0.6-3.6-2.2-2.2-5.6-2.7c-3-0.4-3.1-0.7-6.9-0.6c-0.9-1.3-1.3-1.7-1.9-2.9c1.8-1,3.1-1.1,4.8-2
		c4.2-2.3,3.3-0.4,4.2-3.2C545,383.7,540.4,387.1,538.7,386.1L538.7,386.1z"/>
	<path class="st0" d="M629.9,195.1c-0.6-13.6,11-10.3,12.1-7.3c0.5,1.6-3.4,8.8-4.2,10C633.8,198.6,631.5,197.2,629.9,195.1
		L629.9,195.1z M642,197.6c2.9,1.9,2.5,3.1,4.1,6c1.4,2.4,1.4,0.8,2.6,2.4c1,1.3,0.2,1.7,1.4,3.5c5.7-1.6-2.5-6.3-4.2-11.2
		c-0.5-1.6,0.1-1.1-0.4-2.7c-0.3-1.1-0.6-0.9-1.1-2.7c1.1-2.3,2.4-3.6,0.8-6.3c-1.5-2.5-2.8-2-6-2.8c-6.4-1.5-7.5-0.2-10.5,4.6
		c-2.3,3.5-4.4,8.7,1.2,11.2C636.7,202.3,638.9,200.9,642,197.6z"/>
	<path class="st0" d="M605.7,206c1.5,1.5-1.9,0.6,2.8,1.4c5,0.8,2.1-0.1,8,2.7c8.6,4.1,3.3-0.9,14.1,7c1.4,1.1,0.7,0.8,1.7,1.9
		c1,1,1.1,0.8,2.1,1.7c1.6,1.3,1.5,2.1,2.7,4.1c1.9,2.9,1.5,1.7,1.5,6c1.8,0.8,1.2,0.4,2.3,2.1c0.9,1.4,1.2,1.7,1.4,3.1
		c-3-1.4-1.6-2.7-5.1-1.4c-0.8,4.4,1.9,0.6,5.5,5.1c0.8,1,1,1.1,1.7,1.9c1.3,0,0.7,0,1.5-0.1c0,0,0.4-0.1,1.5-0.2
		c3.6,5.6-0.2,5.6,2.5,8.4c0.1,0-0.1,1.6,1-0.8c1.5-3.3-0.9-8.8-3.3-10.4c-8-5.6-1.8-12.3-17.1-23.8c-7.4-5.5-5.9-3-15.5-7.9
		c-2.5-1.3-7.1-2.2-9.5-0.6L605.7,206z"/>
	<path class="st0" d="M729.6,406.5c2.2,2.2,0.2,7-1.1,8.4c-1.9,0.2-3.9,0.5-5.9,0.4c-3.4,0-3.4,0.2-3.6-2.6l4.4,0.3
		c-0.6-2.3-2.5-4.8,0.4-5.9c2.8-1,1.3,0.7,4.6-0.4L729.6,406.5L729.6,406.5z M714.2,407.2c2,1.3,0.6,0.8,4.7,0.6
		c-1.2,1.8-2.4,1.9-4.8,2.1c0.6,1.3,0.6,4.2,2.6,5.5c1.2,0.8,3.6,1.5,4.9,1.9c5.4,1.9,6.3,0.1,10.4-1.8l0.9-8.6
		c-2.3-2.4-4.5-3.8-8.7-2.4C716,407.4,716.1,402.9,714.2,407.2z"/>
	<path class="st0" d="M329.8,327.5c3.5,0.1,4.7,0.1,7.6-1c6.9-2.8,3.2-1.8,12.9-3.9c5.2-1.1-0.3-0.7,7.6-1.2l1-1.8
		c11.4,0.3,14.5-2.6,23.4-4.6c1.1-0.3,1.7-0.1,2.8-0.4c1.7-0.4,1.2-0.7,2.7-1c2.1-0.5,3.4,0.1,6.2-0.6c2.5-0.6,2.9-1.3,5-1.7
		c2-0.4,2-0.1,4.2-1.2c1.5-0.8,0.6-0.3,1.3-0.8c-5.7-0.7-30.4,6-38.2,7.9c-1.2,0.3-3.6,0.4-4.8,0.8l-29.6,8
		C328.7,327.3,331.1,326.2,329.8,327.5L329.8,327.5z"/>
	<path class="st0" d="M613.4,462.5c-3.2-4.4-10.6-2.9-15.8-5.4c-1-3.3-1.2-4.4-3.3-5.9c-2.7-2-2.3-2.7-4.3-5
		c-1.2-1.3-12.9-6.7-11.5-1.6c3.1,1.4,3.7-0.8,7.3,1.5c11.6,7.5,9,12.2,12.1,13.8c4.1,2.1,10.1-3.3,18.8,8.6
		c5.5,7.5,2.1,4.9,4.6,9.1c0.8,1.5,2,3.3,2.5,4.5c0.9,2.1,0.7,2.8,2.5,3.7c-1.2-6.1-5-14.9-9.4-19.4
		C615.1,464.5,615.3,465,613.4,462.5L613.4,462.5z"/>
	<path class="st0" d="M425.7,400.9l0.6,1.9c0,0,1,1.3,1,1.4c10.9,13,7.7,7.1,13.7,10.6c5.4,3.1,6.1,5.5,8,11.2
		c2.3,6.6,8.8,6.1,7,12.3c-0.9,3-3.7,2.2-6.4,2.8c-0.8,5.8,11.6,1.6,7.7-6.1c-1.1-2.2-2.8-4.5-4.3-6.7c-1.8-2.7-1.7-4.4-3.3-7.3
		c-2-3.9-0.9-4.2-5.2-6c-4-1.6-3.9-3-7.1-4.1c-3.8-1.3-4.3-2.4-6.4-4.7C428.7,403.6,428.4,401.2,425.7,400.9L425.7,400.9z"/>
	<path class="st0" d="M591.4,266.2c1.1,4,2.5,2.1,6.4,3.6c8.7,3.4,8.6,9,18.4,11.3l0.5,2.6l4,0.4c2,3.4,8.2,6.3,8.4,6.4
		c2.1,0.5,2.1-1.2,2.4-2.5l-4.6,0.4c-1.1-1.8-1.3-2.6-3.7-3.2c0.4-1.5,0.4-0.9,0.4-2.2c-1.3-0.5-3.5-1.4-4.3-2
		c-1.5-1-1.2-1.5-3.6-2.6c-11.7-5.8-7.4-5.3-10.6-7.9c-1-0.8-2.7-0.7-4.6-1.7C598.1,267.4,594.8,264.4,591.4,266.2L591.4,266.2z"/>
	<path class="st0" d="M403.7,411.5c0.1,0.1,0.3,0.3,0.4,0.3c3.1,1.2,3.3-0.2,7.7,1.7c2.9,1.2,3.2,2.4,7.5,1.7l0.4,0.9
		c0,0.1,0.1,0.3,0.2,0.4l2.3,2.5c-1.9,1.1-1.2,0.3-3.5-0.8c-3.9-1.9-3.5-0.2-4.3,0.5c6.8,3.4,19,4.3,27,4.1c-0.9-0.7-0.1-0.5-1.7-1
		c-0.1,0-1.1-0.1-1.2-0.1c-1.9-0.2-4.9-0.2-7.3-1.2c4.1-0.7,2.9,1.5,7.5,0c-2.5-2.1-0.5-0.4-4-1.3c-6.7-1.7-7.9-0.6-12.1-1.7
		c-0.4-7.1-3.8-3.1-8.5-4.6C411.1,411.9,407.4,409.8,403.7,411.5L403.7,411.5z"/>
	<path class="st0" d="M593.9,259.4c6.2-0.5,25-6.1,30.2,0.9c-0.1,0.1-0.3,0.2-0.3,0.4c-0.3,1.4-0.4-0.1-1.3,2.1
		c1,0.5-0.1,0.5,1.5,0.6c0.8,0,1.3-0.2,2.1-0.3c1.9-0.3,2.5-0.2,4.4,0.2c2.5,0.6,5.1,1.8,8.1,2.3c-2-3.2-6-3.8-10.1-4.8
		c-5.2-1.2-3.9-5.3-8.7-6.1c-3.4-0.5-10.5,0.6-14.3,0.8c-2.4,0.1-4.1,0.7-6.8,0.8C595.5,256.5,594.9,256.7,593.9,259.4L593.9,259.4z
		"/>
	<path class="st0" d="M566.1,433.2c2.3-1,6.3,4.3,7.6,6.3c1.3,2,1.2,2,0.1,3.8c-1.2-1.8-0.7-2.4-1.3-3.8
		C570.9,435.7,567.2,435.3,566.1,433.2z M566.3,428.5c-7.4,1.9-4.2-2.7-6.3,1.7l8,7.6c2.8,2.2,1.2,8.2,7.1,8.6
		c2.9-5.6,0.8-6-2.1-10.6C570.8,431.9,570.5,431.2,566.3,428.5L566.3,428.5z"/>
	<path class="st0" d="M411.1,257.9c0-0.1-0.1-1.9-0.2-1.9c-0.6-2.3-0.1-0.5-0.7-1.5c2.7-3.8-0.4-8.9-2.2-12c-1-1.6-1.5-3.1-2.4-4.5
		c-1.4-2-1.7-2.6-4.4-2.8c1.6,4,2,1.6,3.2,5.3c0.9,2.6-0.8,9.9,1.9,13C410.5,258.4,407.6,257.1,411.1,257.9L411.1,257.9z"/>
	<path class="st0" d="M441.7,347.6c5-0.8,6.2-14.2,7.5-18.4c1.2-3.8,1.4-3.5,1.7-7.7l1.9-0.9c0.1-1.9,0.8-7.2,0-8.5
		c-3.8,1.9-2.4,4.3-3.3,8.2c-0.7,2.8-2.6,5.4-3,8.8c-0.6,5.5,0.2,4.6-1.8,9.9C443.8,341.7,441.7,345,441.7,347.6z"/>
	<path class="st0" d="M659.6,125.9c0.1,1.1,0.1,1.7,0.3,2.6l0.3,1.7c0,0.1,0.2,0.3,0.2,0.4c0,0.1,0.2,0.2,0.3,0.4
		c0.5-0.9,0.3,0.1,0.7-1.4c0.9-4-0.5-3.8,1.8-4.6c1.7,3.3-1.7,9.7-2.2,11.1l-2.5-0.4c-0.4,1.9-0.8,5.2-1,7.1
		c-0.1,1.2-0.2,2.5,0.1,3.7c0.6,2.2,0.7,1.4,1.9,1.7c1.4-2.1-1.3-5,4-11.4c3-3.7,3.1-8.9,1.1-14
		C661.9,123.2,660.9,124.1,659.6,125.9L659.6,125.9z"/>
	<path class="st0" d="M223.7,392.6c6-0.5,9.8-3.2,14.9-5c2.5-0.9,5.4-1.2,7.5-2.4c3.6-2.1,16.2-6.2,20.5-7.9
		c1.7-0.7,4.3-1.8,6.7-2.8c2.5-1,4.5-1.7,6.2-3.5c-4.3,0.3-4.3,1.1-7.8,2.6c-1.8,0.8-5.6,2.5-6.7,2.7c-8.7,1.9-3.5,1.5-7.1,2.6
		l-20.9,7.7c-4.2,2-6.7,2.3-10.4,3.8L223.7,392.6L223.7,392.6z"/>
	<path class="st0" d="M371.1,464.9c0.1-4.7-2.3-9.9-4.1-13.5c-3.8-7.9-15.9-20.7-17.9-25.4c-0.3-0.8-0.4-1.2-0.6-1.9
		c0-0.2-0.2-0.7-0.3-0.8l-0.4-3.3c2.8-0.4,2,0.1,3.7-1c-3.5-3.7-13.9-1.8,6.7,22.1c8.9,10.4,2.7,3.6,7.5,11.1
		C369.1,457.3,369.7,462.7,371.1,464.9L371.1,464.9z"/>
	<path class="st0" d="M526.1,117.2c3.3,2.5,1.3,2,10.2,0.6c-1.2,1.5-0.1,1-2.1,1.7c-1.8,0.6-3.8,0.4-5.8,1.5
		c2.4,1.7,3.3,0.3,5.8-0.6c2.9-1,4.5-0.2,6.7-1.2c-1.5-1.3-1.2-0.5-2.5-1s-0.7-0.2-1.6-0.9l5.3-0.1c0.9,3,3.5,1.4,6.2,1.2
		c3.5-0.3,5.2,1.2,8.3,1.2c-0.4-0.6-0.2-1.2-2.7-2.3C543.9,112.9,534.6,117.2,526.1,117.2L526.1,117.2z"/>
	<path class="st0" d="M747,242.7c1.7-0.3,2.3-1,3.5-1.7c1.2-0.6,3.3-1,4.7-1.3c2.9-0.6,7,0.3,9.2,1.7c-0.4,2.8-1.6,0.4-3.6,3.4
		c3.3,6.6,13.7-1.7,3.2-6.8C757.4,234.7,747.9,240.6,747,242.7z"/>
	<path class="st0" d="M491,91c3,2,1.8-0.2,4.2,2.6l-0.3,0.6c-0.9,1.5-2,2.4-1.1,5.4c0.4,1.3,2.4,4.2,3.2,5c2.4,2.4,7,5,11.5,4.2
		c-3.5-1.7-12.6-7.1-12.6-11.5c0.9-2.4,1.5-1.9,1.5-5.2c-4.6-3.3-3.5-1.8-4.9-5.8C490.5,87.5,490.8,88.3,491,91L491,91z"/>
	<path class="st0" d="M526.2,152.7c0.3-0.7,1.3,1.2,0.3-1.8c0,0-1-1.7-1.2-2.2c0.9-3,2.9-3.1,4-6.8c-2.4,0.5-2.5,1.6-3.9,3.4
		c-2.7,3.4-0.3,2.9-2.3,5.5c-2.1-2-1-3.2-0.1-6c3.3-9.7,0.9-6.3,9.9-12.4l1.5-1.3c-5.1,0-14.9,8.8-14.1,17.5
		C520.4,151.8,522.7,154.3,526.2,152.7L526.2,152.7z"/>
	<path class="st0" d="M566.3,210.2c8.7,0.6,9.5-1.6,18.9,0.5c4.4,1,5-1.1,12.4-2.7l3.6-1.5c-7.7-0.4-11.8,3.3-17.5,1.3
		c-5-1.7-4.2,0-8.4,0.2c-3.2,0.2-4-0.6-6.9,0.8L566.3,210.2L566.3,210.2z"/>
	<path class="st0" d="M605.4,231.2c3.5,2,13,0.2,16.8,0.4c2.8,0.1,5,1.3,6.9,2.1c7.2,3.1,7-0.3,7.1-0.6c-2.1-1.5-1.3-0.6-3.7-1.1
		c-0.9-0.2-5.5-2.5-10.9-2.5c-2.5,0-4.6,0.8-8,0.7c-1.6-0.1-2.6-0.2-4.3,0c-0.2,0-2,0.4-2,0.4L605.4,231.2L605.4,231.2z"/>
	<path class="st0" d="M380.6,335.7c-0.5,1.7,0.5,3.5,1.5,5.8c3,0.3,1.7,0.5,3.7-1.8c1.4-1.6,4.2,0.4,6.4-0.4c5.2-2-0.7-5.3-5.8-4.8
		L380.6,335.7z"/>
	<path class="st0" d="M524.6,121.8c-0.9-1.9,1.7-0.5-3.7-2.5c-5.5-2-7.2-4.7-12.1-5.9c-1.6-0.4-3.4-0.3-4.8-0.8
		c-1.5-0.5-2.2-1.6-4.1-2.1c-2-0.6-2.5-0.4-4.4-1.7c-2.2-1.5-0.9-1.7-3.3-2.6c0.8,1.9,0.6,1.3,2.3,3c1.2,1.2,1.5,2,3.3,2.9l8.9,2.9
		C514.8,116.8,515.9,121.6,524.6,121.8L524.6,121.8z"/>
	<path class="st0" d="M575.4,432.8c3.2-0.1,1.9,0.2,3.8-1.6c1.1-1.1,1.5-1.4,2.9-2.1c2.3-1.2,6.2-3.3,8.6-1.6
		c0.8,0.5,0.1,0.2,1.1,0.8c6.6-2.9,7.5,3,11,0.6c-2.5-2.3-6.7-3.1-8.3-4.1c-1.8-1.2,0.1-0.5-2.1-1.6c-3.9,1.3-6,1.9-9.2,3.7
		C576.3,431.1,576,429.2,575.4,432.8L575.4,432.8z"/>
	<path class="st0" d="M365.2,387.5c0.6-0.6,0.5,0.8,1.2-1.6c0.8-2.9-2.7-4.1-6-10.3c-4-7.4,0.5-9.8,0-14.4c-4.5,3.6-5.1,8.6-2.5,15
		C360.5,382.5,363,379.2,365.2,387.5L365.2,387.5z"/>
	<path class="st0" d="M414.4,254.9c1,1.7,0.3,1,0,1.5c-0.1-0.1-0.2-0.4-0.2-0.3C414.2,256.3,413.5,255.6,414.4,254.9L414.4,254.9z
		 M411.6,256l3.2,2.6c2.1,1.3,1.4,0,2.8,2.8c1.7,3.3,1.9,5.7,6.2,6c-0.1-3.3-0.6-2.1-2.2-4.4c-1.2-1.6-1-2.8-1.9-4.2l-3.7-5.7
		c-1.5-1.7-0.8-1-2.6-1.2L411.6,256L411.6,256z"/>
	<path class="st0" d="M428,357c-0.6-2.6,1.7-9.4-7-7.8c3.3,2.6-2.3-0.2,2,1.8c1,0.5,0.4-0.5,2,1c2.1,2.1,2.4,8.6-1,13.2
		c-3.4,4.6-9.4,10-10.4,12.6c4.2-1.2,1.6-1.6,4.2-4.4c1.3-1.4,2.7-1.7,4-3.4c0.9-1.2,0.7-1.6,1.7-2.6c1.1-1.2,0.7-0.3,2-1.7
		c1.9-2.2,1.3-1.9,3.6-3.7C429.3,358.1,428.5,359.5,428,357L428,357z"/>
	<path class="st0" d="M413.5,306c0.4,1.2-1.8,1.3,2.2,2c1,0.2,2.9,0,4.2,0.2c12.1,2,2.9,2.2,10.2-1.8l3.1-1.9c1-0.7,0.5-0.4,1-0.8
		L413.5,306z"/>
	<path class="st0" d="M420.6,281.3c-1.9-9.1-0.9-8.9-4.3-11.2c-0.2-5.1,0.7-1.5-1.5-8.3c-0.3-0.8,0.1-0.3-0.6-1.2
		c-0.5-0.6-0.9-0.7-1-0.8c-1.6,2,0.5,11,1.1,11.8c1.3,2,0.9-1.2,2.9,5.1C417.8,278.8,419,280.6,420.6,281.3L420.6,281.3z"/>
	<path class="st0" d="M478.1,398.5c-1.2-1.1-7.2-3.9-8.5-4.6c-0.9,1.1-0.6-1.1-1.1,2.5c-1.9-1.1-1.2-0.2-2.3-2.5c-1-2-0.7-2.2-3.2-2
		c0.9,2.8,0.1,1.8-0.3,2.5c-1-1.7-1.7-3.4-4.1-3.6c-0.3,3.7,4.9,4.3,8.1,6.5c3.3,2.2,5.9,2.9,9.7,2.1
		C478.2,398.9,477.1,399.1,478.1,398.5z"/>
	<path class="st0" d="M326.7,450.8c0.7-2.3,4.8,1.4,4.8-3.4c-3.1,0.4-4.6,1.5-6,3.4c-2.5,3.2-3.9,8-5.5,13.2c-1.5,5-0.8,2.2,0.2,6.4
		c-1.6,0.4-2.2,0.1-3.1,0.3c-1.8,0.3-0.8-0.1-1.9,1.1l5.5-0.2C321.6,469.8,324.2,453.1,326.7,450.8L326.7,450.8z"/>
	<path class="st0" d="M322.5,481.1c2.7-1.3,4.3-4.1,6.2-6.6c4.5-5.7,9.4-20.9,9-28.7c-2,2.1-2.1,5.3-3.1,9.7
		c-1.9,8.1-2.6,12.6-6.8,18c-0.9,1.2-1.7,2.2-2.7,3.5C323.4,479.1,323.3,478.1,322.5,481.1L322.5,481.1z"/>
	<path class="st0" d="M351.9,410.3c-1.6-0.8-2.5-0.7-4.1-1.7c-9.9-5.7-2.1-7.5-7.2-9.4c-1.5,1.5-1.4,2.8-1.5,5.5
		c2.2,1.8,1.5,0.5,3.1,2.7C344.6,410.4,350.1,415.2,351.9,410.3L351.9,410.3z"/>
	<path class="st0" d="M690.7,391.3c0.5,3.5,0.8,3,5,3.8c5.4,1,8.1-0.7,12.9-2.4c3-1.1,3.9-0.2,4.8-3.2c-6.7-0.5-5.5,2-10.7,3.6
		C696.8,395,695.4,391.9,690.7,391.3L690.7,391.3z"/>
	<path class="st0" d="M639.4,277.7c-3.3,1-4.4-0.4-5,3.1c0.9,0.4-0.2,0.4,1.3,0.5c0,0,1.3-0.2,1.8-0.2c0.8,0.9,0.9,1.3,2.5,1.9
		c1-0.8,1.7-0.5,1.9-2.6c0.2-3.9-1.3-4,1.6-8.3c3-4.6,0.6-3.4,0.3-3.9l-1.2,0.1c-0.8,1.6-0.4,2-0.4,2.8c0,1.7,0.3,1.1-0.5,2.7
		L639.4,277.7z"/>
	<path class="st0" d="M382.2,395.4c9-0.4,11.2-3.4,16.7-4c1.1-0.1,1.4-0.1,2.5-0.4c0.8-0.2,0.7-0.2,1.3-0.5l0.9-0.7
		c-0.6-0.4-0.3-1.2-3.4-0.9c-3.7,0.4-5.8,1.9-8.3,2.7C388.9,392.5,383.7,392.5,382.2,395.4L382.2,395.4z"/>
	<path class="st0" d="M552.4,470.8c0.3-4.9-8.3-14.9-13.7-12.1c0.8,1.2-1.3,1.2,4.2,2.9C551.1,464,547.2,470.5,552.4,470.8
		L552.4,470.8z"/>
	<path class="st0" d="M647.4,338.3c0.7,3.5,4,4.2,7,10.7c0.9,2,0.5,2.6,2.5,3.8c-0.3-2-0.7-2.3-1.3-3.9c-0.7-1.7-0.5-2.5-0.9-3.9
		l-0.8-1.6c-1.2-3,0.6-1.9,0.9-5.9C650.1,339.2,652.1,338.2,647.4,338.3z"/>
	<path class="st0" d="M538.9,455.3c-5.6-3.8-25.5-3.5-25.3-17.3c-1.9,0.6-2.2-1.2-2.1,2.1c0,1.4,5.8,8.2,9.7,10.4
		C524.4,452.4,534.8,455.3,538.9,455.3L538.9,455.3z"/>
	<path class="st0" d="M711.5,275.1c4.1,0.3,3.9-0.8,3.5-2.5c10.8-1.3,3.3,3.6,10.8,2.7c-1.3-5.1-8-5.8-12.3-4.2
		C711.4,271.9,711,272.3,711.5,275.1L711.5,275.1z"/>
	<path class="st0" d="M440.5,387.9c-0.6,1.1-1.9,0.1,2.1,3.5c2.1,1.8,1.7,1.1,4.4,2.5c3,1.5,3.2,5.4,8.5,5.9
		c-1.4-2.7-1.6-1.3-3.6-3.5c-1.7-1.8-0.8-2.7-2.9-4c-1.9-1.2-2.9-0.5-4.5-2.3C442.4,387.8,443.2,386.2,440.5,387.9L440.5,387.9z"/>
	<path class="st0" d="M466.6,146.5c4.1-1.8,6.7-4.1,13.3-6.1c2.9-0.8,4.2-1.3,6.9-2.3c3.8-1.5,5.1-1.5,6.4-3.5l-10.8,3.5
		c-1.7,0.7-1.9,1.2-3.4,1.6c-12.2,3.6-5,1.8-10.2,4C466.6,144.6,466.8,143.9,466.6,146.5z"/>
	<path class="st0" d="M517.6,487.4c-4.3-1.3-1.2-2.8-4.9-5.5c-0.1,2.3,1.5,2.8,3.7,6.9l2.9-0.4c1.6,3.1,1.6,5.2,5.8,5.8
		c-0.3-3.3-1.9-4.8-4.3-6.5c-2.9-2.1-1.7-2.9-3-4.4c-0.9-1-0.5-0.5-1.6-0.7C515.9,484.9,516.9,484.3,517.6,487.4z"/>
	<path class="st0" d="M527.7,109.5c-0.9-1.6-6.9-6.1-8.9-7.2c-3.4-1.9-6.6-5.4-11-6c0.9,1.9-0.2,1.4,4.4,3.8c1.5,0.8,4.4,2,5.3,2.7
		C520.3,105.1,522.6,108.8,527.7,109.5L527.7,109.5z"/>
	<path class="st0" d="M634.9,176l1,0.6c5,1.2,2.6-1.7,8.8,3c4.2,3.3,5.1,5.4,7.7,5.5c-0.8-4-2.9-2.7-5-5.7c-2-2.7-4.1-2.5-6.6-5
		l-4.4,0.7C635.2,175.7,635.4,175.7,634.9,176L634.9,176z"/>
	<path class="st0" d="M343.8,412.8c-0.7-1.6-3.1-5.1-4.3-6c0.1,3.6,2.6,5.1,1.7,7.7c-0.7,1.7-1.5-0.2-2.1,7.4c2.2,0,3.7-0.1,4.9-4.1
		c-1.6-2.8-0.6,0.3-1.7-3.1c3.1-4.3,0.8,1,1.4-1.6C343.7,412.9,343.8,412.9,343.8,412.8L343.8,412.8z"/>
	<path class="st0" d="M68.1,478.8c4.1,0.4,6.3-5.1,4.6-9.6c-2.1,1.2-0.9,0.6-1.8,2.6c-1.7-2.5,0-1.4-2.4-1.5
		c-0.5,3.1,0.3,2.9,0.2,5.1C68.5,479.2,67.8,475.1,68.1,478.8L68.1,478.8z"/>
	<path class="st0" d="M431.8,280.6c4.4-0.4,2.8-4.4,6.5-10.2c2.8-4.3,0.7-2.3,0.3-3c-2.1,0.7-2.1,0.3-4.5,5.8
		C433.3,275.3,432,278.5,431.8,280.6L431.8,280.6z"/>
	<path class="st0" d="M725.5,242.3c1.5,1.1,6.4,1.4,8.3,1.4c1.8,0,3.4-0.4,5-0.3c0.7,0,2.6,0.4,2.6,0.4c3.5-0.1,0.9,0,2.1-0.8
		c-0.9-1.1,1.2-1.1-4.1-1.2C734.8,241.6,728.2,240.7,725.5,242.3z"/>
	<path class="st0" d="M36.5,464.7c0.1-2.8,0.7-2.1-0.3-3.7c-2.1,1.3-2,2.5-3,4.5l-0.7-4.4c-1.5,2-1.6,3.2-1.1,6l7.1-0.4l1.1-4.2
		C36.9,463,37.7,462.9,36.5,464.7L36.5,464.7z"/>
	<path class="st0" d="M559.2,219.4c1.8,1.4,1.9,0.7,4.9,1.2c7.4,1.1,7.2,5.2,12.5,3.6c-1.5-3-1.1-0.8-7.9-4
		c-1.9-0.8-1.6-1.4-4.2-1.5C562.6,218.6,560.7,218.7,559.2,219.4L559.2,219.4z"/>
	<path class="st0" d="M494.1,327c3.3,0.1,1.2-2.2,6.7-3.3c2.7-0.5,3.9-1.5,5.8-3.4c1.1-1.1,0.4-0.5,1.1-1.3
		c-4.1,0.5-8.3,2.9-11.7,4.7c-3,1.6-1.7,0.2-2.1,1.8C493,328.4,493.8,326,494.1,327L494.1,327z"/>
	<path class="st0" d="M766,333.6l-0.6-1.4l-7.6,1.1c-3,1.2-0.8,0-1.7,2c11.9-2.9,4.8,0.1,11.2-0.1c3.7-0.1,7.9-3.4,10.3-3.9
		c-3.3-0.1-2.9,0.1-5.3,1.1C770.3,333,768.1,333.3,766,333.6L766,333.6z"/>
	<path class="st0" d="M293.3,497.4c2.3-0.4,4.6-2.6,8.7-5.6c2.3-1.7,1.6-1,3.3-3.5c1.4-2.1,1.8-2.1,2.1-5.2c-1.1,1-5.8,8-10.4,10.5
		C294.7,494.9,294.2,494.1,293.3,497.4L293.3,497.4z"/>
	<path class="st0" d="M634.4,442.8c3.8-0.8,0.9-0.7,3.7-2.3c1.2-0.7,3.2-0.8,4.6-1.1c2.2-0.5,5.3-2.2,5.2-4.6
		c-5.3-1.7,1,2.9-7.7,2.9C636.3,437.8,635.1,439.6,634.4,442.8z"/>
	<path class="st0" d="M114.8,316.9c2.5,0.7,1.6-0.7,4.5-0.9c2.4-0.1,2.9,0.6,4.7-1.2c-2.1-2-6.3-3.6-8.9-1.1
		C113,315.9,114.8,316.9,114.8,316.9z"/>
	<path class="st0" d="M406.5,415.3c-1.5-1.6-4.5-1.6-9.3-2.5c-3.2-0.6-7.6-3.1-9.7,0.2c2.6,0.6,6.2,0,9.6,1.2
		C400,415.1,402.2,415.5,406.5,415.3L406.5,415.3z"/>
	<path class="st0" d="M558.5,120.3c1.1,3.9-0.8,0.9,2.4,2.5c1.1,0.5,1.6,1,3,1.1c0.5,0,3-0.5,3.5-0.6c0.6-0.2,0.9-0.1,1.5-0.4
		c2.3-1.2,0.4,0,1.5-1.4c-7.6-0.4-1.4,1-8.7-1.4C561.6,119.9,561.5,118.5,558.5,120.3L558.5,120.3z"/>
	<path class="st0" d="M618.1,165.2c0.1-0.1,0.2-0.5,0.3-0.4c0.4,0.9,0-0.7,1.5-2.4c1.6,3.2,1.9,6.4,5.6,8.2l-7.6-13.4
		c-0.4,0.7-0.5,0.3-0.8,1.6C616.4,161.5,617.2,163.4,618.1,165.2L618.1,165.2z"/>
	<path class="st0" d="M212.6,369.6c4.6-0.2,6.7-2,10.7-3.2l8.6-3.6c0-0.2,0.2-0.3,0.4-0.4c-3.8,0.1-6.2,2.2-10.3,3
		C217.9,366.3,215.2,366.4,212.6,369.6L212.6,369.6z"/>
	<path class="st0" d="M487.2,80.8c-0.4,2.6,0.7,2.2-0.2,4.2c-1.1,2.4-2,1.3-1.1,4.8c2-1.9,1.4-1.7,2.7-4.4c1.7-3.3,2.9-1.3,3.1-4.7
		l-2.2-1.4L487.2,80.8L487.2,80.8z"/>
	<path class="st0" d="M353.7,339.6c2.6,1.2,3.9-0.6,7.3,0c2.2,0.4,4.3,1.8,7.2,2.3c-1.1-3.4-2.7-3.7-6.6-3.8
		C359.4,338,354.1,337.7,353.7,339.6z"/>
	<path class="st0" d="M338.1,435.1c3.8,0.6,4.2-1.5,3.7-5.1c-1.5-0.8-1.3-1-3.7-1C337.3,430.9,336.9,432.9,338.1,435.1L338.1,435.1z
		"/>
	<path class="st0" d="M367,347.1c2,2,0.7,0.4,3.2,2l0.3,4.3c-1.5,1.1-1.8,0.7-2.7,2.4c7.5-0.4,4.4-9,2-9.5
		C366.5,345.5,367.2,346.9,367,347.1L367,347.1z"/>
	<path class="st0" d="M277.9,345.9c2.8,0.1,16.5-4.6,18.3-5.5c0.7-0.4,0.5-0.3,1-0.7c-2.5,0-16.2,4.2-18.2,5.3
		C278.1,345.5,278.4,345.4,277.9,345.9L277.9,345.9z"/>
	<path class="st0" d="M551.6,461.2c0.2,0.4,1.6,3,1.6,3.2c0.6,1.7,0,2.1,0.6,3.7c0.3,0.8,1.1,1.5,1.5,2.6c0.7,1.9,0,1.7,1.2,3.6
		l3-2.1c-1.1-1.2-4-4.2-4.5-5.3C553.7,464.2,554.3,462.2,551.6,461.2z"/>
	<path class="st0" d="M717.7,328.5c2.8,1.7,8.3-1.7,11.6-2.1c-0.8-0.8,1.7-2-3.4-1.1c-0.8,0.1-2.2,0.6-3.2,0.9
		C716.7,327.7,718.3,327.1,717.7,328.5z"/>
	<path class="st0" d="M529.4,313.6c1,0.6-0.1,0.9,4.1,0.6c-0.2,3.3-0.2,1.1,1.2,1.8l3.2-4.4C533.4,311.6,531.4,310.5,529.4,313.6z"
		/>
	<path class="st0" d="M673.3,244.6l0.7,2.7c0.1,2.7-2.7,2.7-4.4,6.7c4.2-0.9,1.6-1.2,4.9-3.8c1.1-0.8,1.3-0.9,1.8-2.1
		C677.8,244.7,675.5,243.8,673.3,244.6z"/>
	<path class="st0" d="M348.1,349c2.1-2.1,0.8-1.7-0.1-4.4c0.7-2.8,1.2-2.3,2-4.4C345.3,340.8,343.5,347.9,348.1,349L348.1,349z"/>
	<path class="st0" d="M26.2,461.5c-3,2.5-2.8,7.4-0.8,9.9c1.6-1.9,1.2-1,1.2-4.6C26.8,461.6,27.8,463.9,26.2,461.5L26.2,461.5z"/>
	<path class="st0" d="M86.7,470c2.5-0.7,1.1,0.5,2.3-1.4c0.7-1.2,0.9-5.2-0.1-7.4C85.7,461.9,87.5,462.7,86.7,470z"/>
	<path class="st0" d="M202.2,417.7c0.1,0.1,0.4,0,0.4,0.2l2.3,1.2c3.2,2.5,4.6,0.3,4.2-1.8c-0.5-3.2-0.8-1.4-1.6-1.7
		c-1.3,1.4,0.6-3.2-0.8,2.4c0,0.1-0.1,0.3-0.1,0.4c-2.2-0.6-0.3,0.1-1.9-3C202.7,416,202.9,415.8,202.2,417.7L202.2,417.7z"/>
	<path class="st0" d="M82.9,472.1c2.5,0,2.6-1.5,2.6-4.2c0-2.9,0-4.2-2.5-4.8L82.9,472.1z"/>
	<path class="st0" d="M663.3,255c3.8-1.1,6.7-4,7.5-8C667.1,248.5,665.1,251,663.3,255z"/>
	<path class="st0" d="M79.6,473.5c0.4-0.2,1.6,1,2.2-4.4c0.4-3.2,0-3.7-2.3-4.3C79.2,467.2,78.8,471.9,79.6,473.5L79.6,473.5z"/>
	<path class="st0" d="M651.3,260l3.5-0.6c-0.1-0.2-0.4-0.7-0.4-0.5c-0.1,0.1-0.3-0.3-0.4-0.4c-0.9-0.6-1.7-0.3-2.6-2.4
		c-1.3-2.7,0.1-2.7-2.5-3.9C647.7,254.6,649.6,258,651.3,260L651.3,260z"/>
	<path class="st0" d="M520.4,515.8c-0.8-1.6-0.2-0.9-1.8-1.8c-0.3,0.6-0.5,0.4-0.6,1.7c0,1.2,1.1,2.8,1.7,3.7
		c1.1,1.8,1.4,2.8,3.1,3.5C522.9,519.5,522.2,519.1,520.4,515.8z"/>
	<path class="st0" d="M425.9,300.9c0.7-2.1-0.1-2-2.5-2.9c-1.1-0.4-1-2.2-1-2.3c-0.3-1.8-0.4-4.2-2.8-6.1
		C420.3,294,421.7,301.6,425.9,300.9L425.9,300.9z"/>
	<path class="st0" d="M454.5,158.4c2.9-0.8,0.9,1.3,2.6-2.3c1.1-2.4,1.5-2.9,4.3-4.3c2.9-1.6,1.4,0.5,2.3-2.8
		c-2.7,0.9-3.4,2.2-5.8,3.7C455.3,154.3,455.2,154.3,454.5,158.4L454.5,158.4z"/>
	<path class="st0" d="M468.1,294.4c0.3,0.4,0,2.3,4.7,0.8c2.8-0.8,3.1-1.2,3.9-3.5C474,292,470.4,292.9,468.1,294.4z"/>
	<path class="st0" d="M553.8,220.5V218c1.6-0.1,2-0.2,3-0.2c-0.7-2.2,0.7-0.3-1.7-2.1c0.4-1.6,0.3-0.8,0.8-2.4
		c-2,0.8-2.6,1.2-3.6,3.2C550.9,219.3,550.9,220.2,553.8,220.5L553.8,220.5z"/>
	<path class="st0" d="M875.5,244.2l-1.1,5.5c1.8-0.4,1.2,0.1,2.4-1.5c1.5-2.1,2.5-6.2-2.9-6.7C874.8,244.2,873.7,241.7,875.5,244.2z
		"/>
	<path class="st0" d="M590.4,147.6l8.2,2c4-0.1,1.7,0.4,2.9-1.4l-1-0.5C597.5,146.9,592.6,146.1,590.4,147.6z"/>
	<path class="st0" d="M310.1,334.8c3.8-0.1,6.4-1.3,9.9-2.8c2.1-0.9,1.6-0.1,2.1-2.3C320,329.8,312.1,333.4,310.1,334.8L310.1,334.8
		z"/>
	<path class="st0" d="M495.9,132.3c3.5-1,6.8-4,8.1-6.8C500.4,125.8,497.1,129.1,495.9,132.3z"/>
	<path class="st0" d="M77.5,467.5c-0.8-1.8,0-0.6-1.6-1c-1.5,2.5-0.2,2.1-0.3,4.5c-0.1,2.2-0.4-0.2-0.4,2c0,3.9-0.4,0.4,0.7,2
		C78.9,473.8,77.6,467.7,77.5,467.5L77.5,467.5z"/>
	<path class="st0" d="M507.4,323c3.2,0.2,4.5-0.3,6.5-1.1c2.9-1.2,4.1-1.4,5.7-3.1C516.3,319.1,509.5,321,507.4,323z"/>
	<path class="st0" d="M578.8,225c7.8-2.1,8.6,1.8,12.9,2.4c-1.2-1.1-1.3-0.9-2.9-2c-2.7-1.9-1.2-3.1-7.1-2.4c-0.1,0-1.7,0.3-1.7,0.3
		C578.4,224.2,579.5,223,578.8,225z"/>
	<path class="st0" d="M749.9,280.1c1.9-2.3,0.8-2.6,1.8-4.5c1.3-2.5,1.8,0.1,2.1-4.4c-3,0.4-2.4,0.9-3.6,3.7
		C749.2,277.1,748.5,278,749.9,280.1L749.9,280.1z"/>
	<path class="st0" d="M715.3,370c0.9,1.3,1.8,1.7,2.6,2.8c1.8,2.6-0.5,1.9,3,2.9C721.9,372.1,719.3,369.1,715.3,370L715.3,370z"/>
	<path class="st0" d="M875.4,299.5c0,0-2.8,0.5,1,3c1.9,1.2,2.5,1,4.2,0.4l-0.3-1.2C879,299.8,877.7,299.1,875.4,299.5z"/>
	<path class="st0" d="M663,439.6c-2.7,1.7-1.9,2.7-1.3,5c0.7,2.5-0.1,4.3,2.2,4.5C663,445.3,664.4,442.5,663,439.6z"/>
	<path class="st0" d="M307.6,482.5c2.4-1.6,1.7-1.9,3.1-4.8c1.2-2.5,1.8-2.5,2.3-5.6C309.8,473.6,308.2,478.5,307.6,482.5
		L307.6,482.5z"/>
	<path class="st0" d="M415.3,391.9c0.9,1.8-0.6,0.8,2.1,1.8c5.3,1.8,2.9,1.9,5.7,5.4c0.4-0.5,1,1.1,0.7-1.8
		c-0.1-1.4-1.8-2.7-2.9-3.4C419.4,392.7,417.9,391.7,415.3,391.9z"/>
	<path class="st0" d="M28.1,467.6c2.4-1.4,1.3-1.6,2.1-4.3c2-7,1.2-2.7,0.4-4.2c-1.2,0.9-2.1,2.5-2.6,4c0,0-0.5,2.4-0.5,2.4
		C27.4,468.4,27.6,466.8,28.1,467.6L28.1,467.6z"/>
	<path class="st0" d="M510.6,314.9c2,2.1,3.1,1,8.2,0.2c0.1,0,1.6-0.3,1.6-0.3c1.1-0.3,0.8-0.2,1.3-0.6c-0.3-0.8,1.7-2.5-4.7-0.3
		C514.1,314.9,513.8,314.5,510.6,314.9z"/>
	<path class="st0" d="M692.4,304.6c-5-2.5-4.6-0.5-4.7-0.4l0.9,1.3c0.1,0.1,0.7,0.4,0.8,0.4c0,0,1.7,0.7,1.7,0.7
		c1.9,0.5,3.6,0.3,5.6,0.2L692.4,304.6L692.4,304.6z"/>
	<path class="st0" d="M90.9,467.7c1.7-1.2,2.5-3.7,2.1-6.1c-0.5-2.8,0-1.2-1.6-1.9C90.3,461.9,90.1,465.2,90.9,467.7z"/>
	<path class="st0" d="M537.6,133c0.2-0.1,0.4-0.5,0.5-0.4l5.4-5.4c1.9-1.3,1.2,0.2,2.5-1.9c-2-0.8-3.7,1.4-4.8,2.6
		C538.4,130.7,536,128.8,537.6,133L537.6,133z"/>
	<path class="st0" d="M596.8,281.4c1.9,3.7,3.1,0.8,3.5-1.9c2.5,0,3.9-0.1,5.7-1.2C603,276.7,598.9,279.2,596.8,281.4L596.8,281.4z"
		/>
	<path class="st0" d="M374.4,408.4c-1.3-1.6-4.1-2.2-5.4-2.8c-3.9-1.6-3-2.8-5.5-1.5c1.3,0.6,4,1.7,5.8,2.9
		C370.7,408,372.2,409.9,374.4,408.4z"/>
	<path class="st0" d="M331.7,444.6c3.3-0.6,6.1-5.1,4.6-7.5c-0.8,1-1.5,2.5-2.4,3.6C332.4,442.8,332.4,441.5,331.7,444.6z"/>
	<path class="st0" d="M459.6,399c-2.5-8.2-9.2-4.8-2.1-0.7C458.6,399,458.1,398.9,459.6,399z"/>
	<path class="st0" d="M548.4,173.4c1.2-2.5-0.5-4.7-3.6-4.1C544.8,172,545.5,173.9,548.4,173.4z"/>
	<path class="st0" d="M658.8,179.2c0.3-2.5-1.9-8.1-2.8-9.2c-0.7-0.9-0.4-0.4-1.1-0.9c-1.3,2.6,0.5,1.8,2.5,7.7L658.8,179.2z"/>
	<path class="st0" d="M95.1,463.8c1.2-1.6,2-4.1,0.7-6.1c0,0-3.3-0.4-1.7,4.3C94.8,464.4,94.6,463.1,95.1,463.8z"/>
	<path class="st0" d="M731.1,378.3c2.5,0,2.9-0.3,4.9-1.2c3-1.4,2.1-0.1,2.9-2.9c-2.5,0.6-2.3,1.1-4.1,1.8c-0.5,0.2-2.3,0.6-2.4,0.6
		C729.8,377.9,732.1,376.3,731.1,378.3L731.1,378.3z"/>
	<path class="st0" d="M382.6,407.5c1.6,3.7-0.4,1.6,7.1,2.1c3.8,0.3,2.2,1.8,7.7,1.3L382.6,407.5L382.6,407.5z"/>
	<path class="st0" d="M578.4,351.7c3.3-0.4,2.7-1.6,8.7-4.4l2.8-2C586.7,345.7,579.2,350.4,578.4,351.7z"/>
	<path class="st0" d="M435.1,378.5l10.3-2.9c-0.9-0.6,0.2-0.7-2.1-0.4C439.8,375.6,436.8,376.2,435.1,378.5z"/>
	<path class="st0" d="M470.9,258.3c0.8-2-0.1-5.4-1.9-6.8c-0.3,0.4-2.5-1.3,0.1,3.9C469.7,256.6,470.2,257.4,470.9,258.3z"/>
	<path class="st0" d="M532.1,139.7c4.2-0.3,5.2-2.1,5.2-5.9c-1.2,1.2-1.4,1.9-2.3,2.9C533.1,138.8,533.4,136.7,532.1,139.7z"/>
	<path class="st0" d="M197,418.5c2.3,1.1,1.7,0.7,3.6,0.3l0.8-3.2c-3,1.1-1.6,1.2-4.4,0.5L197,418.5L197,418.5z"/>
	<path class="st0" d="M46.8,454.2c0.7,2.9,1.8,2.6,4.5,1.6c-0.4-1.8,0.3-1.8-1.5-2.3C48.7,453.2,47.2,453.8,46.8,454.2z"/>
	<path class="st0" d="M628.6,280.9c-0.8-1.8-2.5-3.4-4.8-3.9C623.6,280.7,624.7,280.5,628.6,280.9z"/>
	<path class="st0" d="M563.8,382.9c1.2,2.8,0.5,1.6,3,2.1c1.9,0.4,1,0.5,3.4,1C569.3,383.6,566.9,382.8,563.8,382.9L563.8,382.9z"/>
	<path class="st0" d="M374.7,373.1c1.5-1.1,1.3-1.4,2.6-3c1.4-1.7,1.5-0.6,1.2-4.6c-1,0.7-0.4-0.4-1.6,1.7L374.7,373.1L374.7,373.1z
		"/>
	<path class="st0" d="M397.3,387.4c-0.8-1.9-3.2,0.1-4.6,0.8c-5,2.3-3.7,0.8-4.2,2.8L397.3,387.4z"/>
	<path class="st0" d="M657.2,222.1l2.3,0.7l-0.6-6l-1.5,2.5C656.5,221.5,656.5,219.8,657.2,222.1L657.2,222.1z"/>
	<path class="st0" d="M588.9,263.8l3.1,0.5l0.1-3.7C589.8,261.3,588.8,261.3,588.9,263.8L588.9,263.8z"/>
	<path class="st0" d="M490.7,104.2c0-2.1-0.1-2-0.7-3.7c-0.9-2.6-0.1-1.8-1.8-2.4C487.2,100.4,489.2,103.1,490.7,104.2z"/>
	<path class="st0" d="M695,300.5c0.2,0.4-0.9,1.4,2.8,1.8l3.5-0.1c0.1,0,0.3,0,0.4-0.2c0-0.1,0.2-0.1,0.3-0.2
		C700.2,301.1,697.1,300.1,695,300.5L695,300.5z"/>
	<path class="st0" d="M740.2,372.1c2.2-1.2,3.7-3.4,2.9-5.5C741.7,367.3,741,367.1,740.2,372.1z"/>
	<path class="st0" d="M815.8,314.2c2.4,1.4,4.2,2,7.5,2C821.6,313.9,816.8,313.6,815.8,314.2z"/>
	<path class="st0" d="M121,242.7c-0.3-2.6-0.7-3.3-1.4-5c-0.1,0.1-2.1-1.2-1.1,2.9C118.8,241.9,119.8,242.1,121,242.7z"/>
	<path class="st0" d="M637.5,450.8c4.2,0,4.1-3.4,3.7-7.4l-0.6,4.4l-3.2,1.5L637.5,450.8L637.5,450.8z"/>
	<path class="st0" d="M369.3,432l-0.9-5.5c-0.6-1.2-0.3-0.7-1.3-1.5l1.4,9.2c0.5-0.6,0.3,0.4,0.6-1
		C369.2,432.9,369.3,432.2,369.3,432z"/>
	<path class="st0" d="M657.1,438.8c-2-1.2-1.1-0.8-3.7-0.9c0.1,1.6-0.1,2.3,1.7,2.7C657.5,441.1,656.7,440.7,657.1,438.8
		L657.1,438.8z"/>
	<path class="st0" d="M743.8,327.8c2.3,1.5,3.8,2.2,6,0.7l0.6-0.4c-4.7-0.2-1.6,0-4.2-1.4L743.8,327.8L743.8,327.8z"/>
	<path class="st0" d="M371.8,401.4c-1.2-0.8-1.3-0.7-2.4-0.8c-0.6,3.1,2,2.8,4.4,3.1C373.1,402.2,374.1,402.7,371.8,401.4z"/>
	<path class="st0" d="M619.2,315.4c-2.3-2.3,0.1,0.4-3.9-1.7c-1.5-0.8,1.5,0-1.8-0.8c0.5,1.4,1.9,3.2,3.7,3.3
		C620.8,316.5,618.3,316.2,619.2,315.4L619.2,315.4z"/>
	<path class="st0" d="M630.2,316.7l3.9,0c-0.4-1.1-1-2.7-1.3-3.5C631.7,313.7,631.8,313.4,630.2,316.7z"/>
	<path class="st0" d="M678.8,270.5l0.1-4.3C675.8,267.7,674.7,269.4,678.8,270.5z"/>
	<path class="st0" d="M654.6,430.3c0.8,1.6,0.3,1.7,1,2.9c0.6,1.1,0.4,0.7,1.2,1.2C659.3,430.8,656.2,430.6,654.6,430.3z"/>
	<path class="st0" d="M839,251c0.4,0.6,0.5,3.1,4.1,0.6c-0.6-1.2,1.3-0.9-1.4-1.4C839.7,249.8,839.3,250.8,839,251z"/>
	<path class="st0" d="M691.6,303.1c0.2,0.2,0.3,1,1.9,1.4c1.3,0.4,2.2,0.1,3.5,0C695.4,302.8,694.1,301.6,691.6,303.1L691.6,303.1z"
		/>
	<path class="st0" d="M702.4,299.4c-1.7-1.7-1.2-1.5-4-0.9c0.7,1.7-0.7,1.7,1.9,1.9C703.3,300.6,702.3,299.4,702.4,299.4z"/>
	<path class="st0" d="M181.1,419.3c1-1.7,1.3-2.8,0.1-4.7c0,0-1.2,0.5-1.3,2.5C179.9,418.8,180.2,418.6,181.1,419.3z"/>
	<path class="st0" d="M550.9,385.5c1.7,0.8,4.4,0.9,6.2,0.2c-0.7-0.8,1.1-1.5-3-1C553.1,384.9,551.6,385.3,550.9,385.5L550.9,385.5z
		"/>
	<path class="st0" d="M708.4,410.3c3.9-0.2,1.9,2.1,4.6-1C708.1,407.7,708.9,409.4,708.4,410.3z"/>
	<path class="st0" d="M545.4,389c2.9,0,2.5-0.3,3.3-2.7C545.9,386.6,545.4,386.2,545.4,389z"/>
	<path class="st0" d="M866,306.3c1.1,1.1,0.1,2.2,4.6,0.8c-1.5-1.4,1.8-0.9-2.3-1.3C867.9,305.8,866.2,306.2,866,306.3z"/>
	<path class="st0" d="M265.7,349.6c1.5,0.7,1.2,0.7,3.4,0.1c2.4-0.6,2.1-0.8,3-1.7C269.3,347.9,267.8,348.9,265.7,349.6z"/>
	<path class="st0" d="M727,328.5c4.6-0.1,4,0.3,6.2-1.8C730.8,326.6,728.9,326.9,727,328.5z"/>
	<path class="st0" d="M379.7,410.3c1.1,1.9,1.5,1.9,4.5,2.1C382.9,410.2,381.6,409.5,379.7,410.3z"/>
	<path class="st0" d="M306.7,490.8c0,0-0.3,1.5,2.6,0.4c2.3-0.9,1.2-1,1.8-1.8C308.7,489.5,308.2,489.5,306.7,490.8L306.7,490.8z"/>
	<path class="st0" d="M627.5,172.8c-0.2,0.5-1.3-0.9-0.2,1.2c0.8,1.6,2.8,1.5,4.2,1.6c-1.5-2.2,0-0.2-2.2-1.7
		C628.5,173.1,628.6,172.6,627.5,172.8z"/>
	<path class="st0" d="M75,442.9l0.3-2.7c-1.8,0-2.2-0.5-2.4,1.1C72.7,443,73.6,442.9,75,442.9z"/>
	<path class="st0" d="M700.7,258.2c0,0-0.6,2,2.6,0.8c0.9-0.4,1.4-1.7,1.5-1.9C701.9,257.2,702.8,257.6,700.7,258.2L700.7,258.2z"/>
	<path class="st0" d="M656.1,212c0.6,2.5-0.6,1.8,2.6,1.9C658.7,211.4,658.4,210.7,656.1,212z"/>
	<path class="st0" d="M453.6,361.2c0.8-0.1,1.6,0.1,2.3-0.3c2.8-1.4,0.5,0,1.7-1.8C455.5,359.2,454.2,359,453.6,361.2L453.6,361.2z"
		/>
	<path class="st0" d="M446.4,362.4c0.4,0.3,0.8,2.3,4.2-0.1l0.8-0.6c0.1-0.1,0.3-0.2,0.4-0.4L446.4,362.4z"/>
	<path class="st0" d="M552.5,474c0.4,2.7,0.5,3,2.7,2.1C554.4,474.2,554.9,474.8,552.5,474z"/>
	<path class="st0" d="M317.6,484.6c0,0-0.6,1.8,1.9,0.1c1.2-0.8,0.8-0.9,1.4-2.1C318.9,483.2,318.8,483.4,317.6,484.6L317.6,484.6z"
		/>
	<path class="st0" d="M593.6,343.4c1.9,0,2.3-0.1,3.2-1.8C594.5,341.5,594,341.1,593.6,343.4z"/>
	<path class="st0" d="M211,420c0,0,0.9-0.3,1-1.6c0-0.7-0.2-1.2-0.4-1.8C211.6,416.7,209.1,417.1,211,420z"/>
	<path class="st0" d="M454.2,404.7c1.5,1.2,2.2,1.2,3.7,2.9c0.9-1.8-2.5-3.1-2.6-3.1C453,403.9,455.1,404.3,454.2,404.7z"/>
	<path class="st0" d="M500.9,94.9c0.5,0.2-0.2,0.4,1.7,0.6c3,0.3,1.9-0.3,2.4-0.6C504.2,94.4,502.8,93.6,500.9,94.9L500.9,94.9z"/>
	<path class="st0" d="M155.8,305.5c1.2-0.7,2.9-1.8,0.1-2.8C154.9,304.2,155.2,304.2,155.8,305.5z"/>
	<path class="st0" d="M224.6,418.8c1.1-1.7,1.4-1.5,0-3.4C223.5,416.9,223.4,417.2,224.6,418.8z"/>
	<path class="st0" d="M797.1,310.5c1.7,1,2.3,0.7,4.6,0.3C800.1,309.9,798.9,309.5,797.1,310.5z"/>
	<path class="st0" d="M170.3,399.7c1.9,2.1,1.5,1.2,3.1,1.3C171,397.3,170.3,399.7,170.3,399.7z"/>
	<path class="st0" d="M160.8,392.3c1.5-0.5,1.1,0.1,1.6-1c0.9-1.8-0.3-1.8-0.4-1.9C160.6,390.7,161.1,389.5,160.8,392.3z"/>
	<path class="st0" d="M747.5,331.6c2.4,2.1,2.1,0.9,3-0.7C747.2,330.9,747.7,331.4,747.5,331.6z"/>
	<path class="st0" d="M420.9,332.6c2.1,0,2.6-0.5,3.5-2.2C422.1,331.1,422,331,420.9,332.6z"/>
	<path class="st0" d="M330.3,415.8c2.7,0,1.9,0.4,2.2-1.8C330,414.2,330.9,413.8,330.3,415.8z"/>
	<path class="st0" d="M215.2,333.4c0.8,0.6-0.3,0.8,1.4,0.7c2.4-0.2,0.6-0.1,1.4-0.7C217.7,333.2,218.6,331.4,215.2,333.4
		L215.2,333.4z"/>
	<path class="st0" d="M868.3,244.2c0.9,1.8,0.1,1.8,2.5,0.8C869.8,243.3,870.1,243.4,868.3,244.2z"/>
	<path class="st0" d="M682.5,178.4c1.3-0.5,3-1.3,3.4-3.4C684,176.3,683.5,176.8,682.5,178.4z"/>
	<path class="st0" d="M475.5,257.5c-0.1-2.3,0.4-1.5-0.9-3.2C472.9,255.5,474.3,256.5,475.5,257.5z"/>
	<path class="st0" d="M688.4,254.1c0.3,0.1-1.1,1.7,1.2,0.4c1.4-0.8,0.4,0,1.2-2C689.7,253.1,689,253.1,688.4,254.1L688.4,254.1z"/>
	<path class="st0" d="M561.7,364.7c-1.2,0.4-0.3,0.1-0.7,1c1.6,0.8,1.3,0.8,2.2-0.6C563,364.9,564,363.9,561.7,364.7z"/>
	<path class="st0" d="M632.9,276.5c-0.9-1.8-0.6-1.7-2.7-2.1c0.9,1.4-0.2,0.4,0.8,1.2C632.1,276.6,630.5,275.8,632.9,276.5z"/>
	<path class="st0" d="M68.1,457.1c0.5-0.4,1.7,0.3,0.8-1.3c-0.9-1.7,0.4,0-1.5-1.1L68.1,457.1L68.1,457.1z"/>
	<path class="st0" d="M659.8,441.2c-0.8-1.2,2.2-0.8-1.6-1.1C658.5,441,658.3,443.3,659.8,441.2z"/>
	<path class="st0" d="M753.3,346.4l1.1,0.7c3.2-0.3-0.5,1.1,1.4-0.7C755,345.8,757.4,344.3,753.3,346.4z"/>
	<path class="st0" d="M651.6,252.9c1.4,0.7,1.5,0.2,2.1-1.2C650.4,251.5,652.3,252,651.6,252.9z"/>
	<path class="st0" d="M225.1,343.4c0.4,0.2-0.8,2.2,2.1,0c-0.8-0.8,0.7-0.4-1.2-0.6L225.1,343.4L225.1,343.4z"/>
	<path class="st0" d="M332,412.1c0.5-0.9,0.8-0.1,0-2.5c-0.2,0.1-0.4,0.3-0.5,0.4c0,0.1-0.3,0.3-0.4,0.4l-0.1,0.8
		C331,411.4,331.9,412,332,412.1L332,412.1z"/>
	<path class="st0" d="M218.5,336.5l2,0.8l-0.6-2C217.1,336.2,219.6,335.4,218.5,336.5z"/>
	<path class="st0" d="M566.6,372.5c1,0.7-0.2,0.5,1.5,0.6c0.1,0,0.4,0,0.5-0.2c0.1-0.2,0.3-0.3,0.5-0.4
		C568,371.7,568,371.7,566.6,372.5L566.6,372.5z"/>
	<path class="st0" d="M376.4,405.9c1.6,0.9-2,0.5,1.6,0.7c2.6,0.2,0.2,0.1,1.2-0.8L376.4,405.9z"/>
	<path class="st0" d="M483.3,399.1c1.5,0.8,0.5,0.6,2.8,0.4l-1.4-0.7C482.4,398.3,484.3,398.4,483.3,399.1z"/>
	<path class="st0" d="M174.8,402.2c2.4,1.6-0.8,0.6,1.6,0.6c3,0-1.4,1.6,0.9-0.9c-1.3-0.4,0-0.3-1.6-0.2c-0.1,0-0.4,0.4-0.5,0.2
		C175.2,401.8,174.9,402.1,174.8,402.2L174.8,402.2z"/>
	<path class="st0" d="M639.5,190c0.8-1.2,0.5-0.6,0-2.2c-0.3,0.6-0.8,0-0.4,1.7C639.5,191.1,639.1,189.7,639.5,190z"/>
	<path class="st0" d="M666.8,440.9c0,0-2.4-0.8,0,1.6l0.3-1.1C667.1,441.1,666.9,441.1,666.8,440.9z"/>
	<path class="st0" d="M113.6,277.2c2.1-0.5,0.9,0.2,1.7-1.7C111.9,277.1,115,276,113.6,277.2z"/>
	<path class="st0" d="M587.4,359.8c1.7-2.3,0-1.4,0-1.5C586.7,359.4,586.2,358.9,587.4,359.8z"/>
	<path class="st0" d="M639.5,286.3l0.3-0.9c0,0-0.2-0.3-0.3-0.4C639.5,285,637,286.1,639.5,286.3z"/>
	<path class="st0" d="M864.9,248c1.9-0.5,0.7,0.3,1.3-1.6C862.6,247.9,866.3,246.7,864.9,248z"/>
	<path class="st0" d="M658.9,286.8l2.1-1.2C659.6,285.5,659.1,285.4,658.9,286.8z"/>
	<path class="st0" d="M805.9,311.5c1.9,1.7,1.4,0.4,1.7,0.3L805.9,311.5z"/>
	<path class="st0" d="M696.7,270.7l1.3-0.2C697.5,270,696.9,270,696.7,270.7z"/>
	<path class="st0" d="M220.9,418.3l0.9-2.1L220.9,418.3z"/>
	<path class="st0" d="M446.1,304.8c0.6,0.8,0,0-1.8-2.2c-43.4,0.6-129.7,25.5-254.8,74.9c2.9,1.1,4.3,1.6,4.3,1.6
		C318.9,330.1,403,305.4,446.1,304.8L446.1,304.8z"/>
	<path class="st0" d="M861.6,325.7c-2.1,0.6-3.2,0.9-3.2,0.9c-6.8-4.3-35-10.7-84.7-19.2c1.7-1.1,2.9-2,3.4-2.5
		C827.5,315.3,855.7,322.2,861.6,325.7z"/>
</g>
</svg>
