<?xml version="1.0" encoding="utf-8"?>
<!-- Generator: Adobe Illustrator 23.0.1, SVG Export Plug-In . SVG Version: 6.00 Build 0)  -->
<svg version="1.1"
	 id="Layer_1" shape-rendering="geometricPrecision" image-rendering="optimizeQuality" text-rendering="geometricPrecision"
	 xmlns="http://www.w3.org/2000/svg" xmlns:xlink="http://www.w3.org/1999/xlink" x="0px" y="0px" viewBox="0 0 936 755.7"
	 style="enable-background:new 0 0 936 755.7;" xml:space="preserve">
<style type="text/css">
	.st0{fill-rule:evenodd;clip-rule:evenodd;}
</style>
<path class="st0" d="M182.5,626.5c12.4,0.6,20.7,2.2,21.1,10.5C192.7,643.7,189.1,631.6,182.5,626.5z M460.5,584
	c5,1.3,2.8-0.7,6.2,3c2.7,3.1,2.2,4.3,3,8.4C460.4,592.8,461.4,591.9,460.5,584z M470.7,571.4c9,0.1,8.7,4,7.7,12.2
	C471.5,581.3,468.2,580.7,470.7,571.4z M463,555.9c1.3,1.2,4.1-2.7,3.7,5.5c-0.3,5.9-1.2,2.8-3.7,4.9
	C462.3,565.1,454.9,567.6,463,555.9z M186.5,552.3c0.3,0.4,0.9,0.4,1,1.2c0.3,0.7,1,1,1.3,1.2c8.6,8.4,6,2.1,6,10.5l-16.4,0.4
	C179.4,559.8,182.6,557.1,186.5,552.3z M227.2,546.2c7.5,1,9,4.7,10.2,10.6C227.2,557.6,227.2,556.7,227.2,546.2z M467.6,537.2
	c8.9,3.1,9.6,7.8,7.8,14.2c-5.9,0.6-5.2,2.5-8.3-2.8C464.5,544.1,465.3,540.5,467.6,537.2z M195.9,537.2c8.6,3,12.1,7.5,13.6,15.6
	C198.1,547.7,195.6,548.7,195.9,537.2z M236.3,537.2c8.4,2.1,2.2-0.9,5,5C234.6,539.1,239.9,541.5,236.3,537.2z M173.1,528.7
	c6.2,3.7,5,4.4,9.4,10.3c-1.3,7.1-0.6,9.4-7.2,13.6C172.5,545.9,170.7,534.1,173.1,528.7z M205.1,525.6l5.5-7.4l12.2,21.7
	c-7.1,1.8-7.5,3.4-12.7-1.9C206,533.5,205.8,527.2,205.1,525.6z M229.7,529.3c2.1-4.7,5.5-9.3,10-12.7
	C239.6,525,239.3,528.1,229.7,529.3z M424.3,514.4c9.7,4.3,9.1,7.4,14.8,13.6c0.3,0.3,0.9,0.7,1.2,1c0.4,0.4,1.9,1.5,2.4,1.9
	c4.1,5,3,0.9,2.2,10.2c-6.3-3-1.9-2.2-11.7-3.2c0.9,9.1,2.4,10.6,3.7,21.4c11.4,1.8,6,0,11.2,8.3c6.9,11.1,6.6-0.6,6,14.2
	c-9.4-0.6-6.3-1.6-12.2-7.7c-3.7-3.8-8.7-5.8-13.3-9L424.3,514.4z M177.2,507.6c10,1.8,17.7,15.6,15.2,24.8
	c-5.5-1.8-10.8-8.9-13.7-14.6C175.1,510.7,176.5,515.4,177.2,507.6z M193.4,503.4c9.3,0.1,8.4,0.7,10.6,8.9l-5.2,5.6
	C194.9,512.6,193.7,512.1,193.4,503.4z M220,518.9c-2.8-2.5-4.9-2.7-4.6-8.3c0.1-2.1,2.8-8.7,3.7-11.5l10.2-1.8
	C230.3,506.4,225.9,514.4,220,518.9z M198.7,464.2l-2.8,25.1l-9.4,1.8c1.3-6.2,2.4-8.7,4.6-14.8
	C194.2,467.3,191.5,469.5,198.7,464.2z M174.2,474.1c0.9,1.9,1.2,3.1,0.9,4.4c-2.2,7.4,0,1.3-2.2,4.6L174.2,474.1z M144.3,443.3
	c3,5.5,3.2,4.7-0.3,10.2C141.1,448.1,142.4,450.2,144.3,443.3z M458.6,445.8l4,7.7c-3.2-0.9-3.5,0.1-4.7-3
	C454.6,442.8,458.3,446.1,458.6,445.8z M444.2,395.3c2.7,4.6,3.1,3.5,3.2,11.4c-2.2-1-4-0.3-5.5-3
	C436.1,393,442.5,396.4,444.2,395.3z M419.2,396.6c10.2,1.9,11.9,12.1,17.7,18.7c8.3,9.3,12.7,9.7,15.3,24.6
	c-11.1-4.9-16.7-14.5-22.1-24.2c-1-1.9-2.2-4.1-4.1-7.2C423.1,404,421.5,400.5,419.2,396.6z M393.7,393.1c6.8,4.6,1.2-2.7,6.3,7.5
	c-3-1.2-1,1.6-3.8-2.1L393.7,393.1z M168.9,414.3l5.3-7.4C170.6,417.3,174.5,410.1,168.9,414.3z M405.2,373.5c5.3,2.7,4.9,1.3,5.8,9
	C406.3,379.4,406.7,379.8,405.2,373.5z M241.8,458.3c-5.6-12.7,14.8-76.8,22.7-94.4c2.4,4.6-14.9,76.4-20.7,90l-1.3,3
	C242.4,457.1,241.9,457.7,241.8,458.3z M417.3,368.2c0.3,0,9.7-1.6,10,14C421.2,376.6,421.6,373.8,417.3,368.2z M362.7,360.5
	c-0.4,5.2,37.6,61.8,44.5,71.4l17.3,32.2c4.3,10.8,0.4,8.1,0.6,16.2c-7.7-3.8-4.4-4.1-10.6-13.1c-3.4-4.7-5-8.9-8.6-16.2
	c-8-16.8-16.2-22.4-25.1-44c-5.2-12.7-4.4-3.8-11.7-23.7C365.1,371.6,351.2,358.3,362.7,360.5z M371.6,354.5
	c6.5,3.2,18,26.3,20.5,34.2l-18-26.3C370.6,356.5,369.2,357.1,371.6,354.5z M206.5,475.7c-3.8-11.8,24.2-101,34.5-122.9
	c1.3,5.9-6,26.7-9.1,37.2c-1,3.2-1.9,6.5-2.5,8.9C226.2,415.1,213.6,468.2,206.5,475.7z M400.8,349.2c-0.6-3.4,3.2-1.9,3.1,0.6
	l-0.1,0.3C400.2,350.9,402.3,356.4,400.8,349.2z M353.5,330.9c11.7,3.2,4.9,1.3,8,5.6C348.3,334.7,359.5,336.9,353.5,330.9z
	 M342.7,326.4v4.6C341.8,329.7,336.8,334.1,342.7,326.4z M657.2,302.5l2.7,3.7c0.7,1,2.2,2.8,3,3.8c4,6,2.5,3.1,3.7,13.1
	c-6-4.7-3.8-3-7.1-9.6C656.7,308.1,653.8,305.2,657.2,302.5z M327.1,343.8c-2.7-3.1-2.2,5.8-2.4-5.9c-0.1-9.6,13.3-44.3,16.7-52.4
	c1.6,7.8-2.5,19.5-5.6,29.8C334,321.1,329.4,340.2,327.1,343.8z M406.4,341.8c-2.8-5.6-0.9-2.4-5-6c0.3-11.9,3.2-53.1,13.6-61.7
	C415.4,279.2,408,338.1,406.4,341.8z M201.8,317.1c2.2-10.3,0-1.9,3.5-9.7l11.7-24.9C216.9,291.8,208.3,311.7,201.8,317.1z
	 M259.6,423.5c12.8-44.5,5.9-34.4,25.4-89.5c5.6-15.5,9.7-27.1,15.6-42.3c3.5-9.4,15-33.8,20.7-39.1c-1.5,9.4-11.4,32.2-15.2,42.5
	c-6.6,18-28.6,104.3-33.3,111.5c-2.1,3.2-4.1,5.9-5.6,8.4C260.5,425.7,267.2,418.8,259.6,423.5z M175.6,438.1
	c-0.7-25.8,52.7-172.3,82.9-199.1c-1.5,14.3,2.1,1.8-5.6,11.4c-3.5,4.6-3.5,6.5-6.2,11.8c-11.9,24.5-23.6,47.8-32.5,74.6
	c-4.7,14.3-15,38.5-17.8,51.3l-10.6,44C183.7,439.3,184.6,438.5,175.6,438.1z M222.2,482.1c-2.1-6.3,5.3-19.2,7.2-32.3
	c1.8-13,2.5-28.3,5.3-39.2c9.9-39.1,51.6-177,84.1-191.6c-5.6,19.5-26.3,48.4-36.7,76.4l-12.8,32c-2.1,5.8-3.8,10-6.3,15.8
	c-7.8,18.4-17.3,47.8-21.4,68.1c-2.5,11.9-7.5,22.9-10,35.3C226.2,473.1,231.2,479.5,222.2,482.1z M203.2,446.1l-6.2-5.9
	c-0.1-0.1-0.7-0.3-0.9-0.4c-11.2-6,6.6,6.3-2.7-1.2c6.3-18.3,16.7-66.4,27.3-93.1c12.8-32.6,30.8-82,53-108
	c7.2-8.4,7.7-15.6,19.8-22l-35.5,75.1C240,322.6,201.4,424.4,203.2,446.1z M616,199c11.8,5.8,1.8-0.1,11.7,14.2l-10.2-10
	C617.2,202.4,616.4,199.7,616,199z M312.3,93.2c-13.9,10.6-12.1,4-12.5,24l11.1,5.8c-0.1,14.2-3.7,27.9-3.5,42.9
	c0.3,19.9,3.2,26.1-7.1,40c-9.9-2.2,0.6-1.9-11.2-3.4c-6.6,5.5-10.5,9.9-13.1,14.9c-5.5-1.5-7.5-2.8-14.9-3.4
	c-1.5,4.3,2.5-0.7-2.7,5.5c-5.3,6.2-0.7,1.9-8.4,6c5.5-21.8-4-18.3-11.7-5l-41.6,83.2c-7.7,15.8-38.6,112.8-40.6,115.6
	c-5.5,8.7-6.3,2.4-6.3,2.4c-10-20.5,55.2-178.5,70.4-188.4c8.1-5.3,3.2,2.7,10-8.1c5.2-8.1,6.5-14.6-2.4-13.3
	c-0.4,0.1-1.2,0.3-1.6,0.4c-0.4,0.1-1.2,0.4-1.6,0.6c-9.6,3.2-13.7,12.7-19.3,20.5c-6.5,8.9-7.2,6.2-11.5,15.9
	c-30.1,67.9-45.9,110.8-64.6,185.6c-6.2,24.5-24,56.2-23.2,79.8c0.6,13.3,9.9,9,13.6,4.1c6.5-8.6-1.5-5.9,10-12.2l4.9,55.8
	c1.6,17-0.9,45.6,2.7,60.9c-35.7-3-19.2-18.3-42.2-15.2l3,14.6c-12.4-1.5-6.9-4.1-17.4,0.1c-2.1,15.9,17.1,31.7,29.4,37.6
	c4.9,2.4,11.2,2.1,14.8-0.1c0.4-0.3,0.9-0.9,1.3-1.2l20.8,2.8c12.2,0.7,1.3,1.2,6.8-2.4c6.9-7.8-13-13.7-17.7-23.6l49,18.9
	c7.8,3.8,30.4,16.7,30.8,3c0.3-8.7-2.4-5-5.2-8.6c-0.4-0.4-0.9-1.3-1.3-1.8c-0.3-0.4-0.7-1.2-1.2-1.9c15,1.8,5.5,4.9,17.6,4.1
	c10.6-21.8-42.5-35.3-45.6-35.3c-4.1,0-2.1-0.4-6,0.9c-3.4,1.2-3,1.8-4.4,2.8c-0.6,4-1.6,4.4-0.1,9.7c2.1,8,1.9,1.8,5,10.2
	c-8-1.5-15.8-4.6-23-7.7c1.8-14.3-1.3-26.8-3.2-40c6.9-4.1,8.6-1.2,12.1-9.9l-10.8,5c1-16.1-8.9-45.6-0.3-61.7
	c4-7.2,1.9-12.5,8.4-14.9c2.1,4.7,1.8,53.2,5.8,68.9c6.9-0.9,11.1-3.5,18.6-2.7c12.1,1.5,2.2,6.5,18,6.2c6.9-4.3,5.6-8.6,13.9-11.1
	c7.1-2.1,15.9,0.7,26,0.1c2.1,14.9,1,34.7,2.8,51.2l4.9,42c0.3,0.6,0.6,1.2,0.7,1.8l1.8,4c10.5-3,4.9,1.9,10.3-9.7
	c5.2,0.6,17.8,3.2,22.7,4.4c6.6,1.6,14,4.1,21.4-0.1c-6.2-14-33.6-1.3-43.4-14c-1.2-1.5-0.9-1.8-2.2-4.3c-0.3-0.4-0.6-1-0.7-1.5
	c-0.1-0.3-0.6-0.9-0.7-1.3s-0.6-0.9-0.7-1.3c-2.2-4.7-2.2-6.5-3.2-12.2L249,492.2c3.5-8.7,14.9-31.1,19.6-37.9
	c4.7-6.8,6.5-11.4,11.7-17.8L290,422c16.5-15.8,27.4-40.3,43.7-57.1c3.5-3.5,4.3-5.3,7.5-9.7l49.6,84.5
	c9.9,15.5,24.3,36.9,28.6,54.6c-16.2,11.1-4.1,18.9-3,42.5c1.6,34.1,11.2,81.4,8.1,115.3c-13.9,2.2-29.6-3-42.8,1.8
	c0.1,9.6,1,6.3,7.7,7.7c0.6,0.1,1.2,0.1,1.8,0.3c0.6,0.1,1.2,0.3,1.8,0.3l11.9,1.5c6-0.3,9.1-2.2,15.9-2.1c3.4,0,6.8,1,9.3,0.9
	c14.3-1.2,4-2.7,0.4-41.6c-1-11.1-1.6-36.4-0.6-47.5c0.3,0.3,0.7,0.3,0.9,0.9l6.3,6.8c3.2,3.7,4.1,4.3,7.4,7.8
	c7.7,8.3,4.4,10,15.9,15.6l-1.6,11.7c7.7-0.4,17.6-10.8,22-16.8l12.8-29.1l-13.3-5.5c3.2-16.7,11.5-9,12.4-29.1
	c-13.3,1-13.7,2.7-19-10.2c4.7-7.1,7.4-6.9,9.1-15.9l-14.3-3.1c-0.1-0.4-0.7-1.2-1-1.9c-13.1,4.9-3.5,1.5-14.5,1.2
	c-2.8,9.3,0.7,11.7,1.2,21.7c-11.5-2.8-17.4-12.1-19.6-26c7.5,0.4,12.1-3,19-5.2c2.4-18,0.4-10.6,7.1-23.7
	c8,4.6,12.1,13.9,14.2,23.3l16.1,1.9c4.4-8.3-0.4-38.9-2.2-50.4c-6.9-8.9-8.9-5.2-8.1-22.3c1.9-43.7,9.6-67.7,17.8-107.2
	c3.7-17.6,17.7-53.8,27.6-67.3c-1.3,15.9-10.5,35.7-13.4,52.1c-7.7,42.5-24,141.3-12.5,179.2c10.6-1.2,9.7-2.2,17.6-6.5
	c6.6-50.2,5.3-108.9,21.5-157.2c7.7-22.7,14.3-45.3,21.2-68.1l15.3-40.1c2.1-3.4,1.6-2.2,3.7-7.2c3.4-8,3.5-9,8.4-14.5l3.7,3.1
	c0.1,0.3,0.7,0.9,1,1.3c0.4,0.4,3.8,4.9,3.8,4.9c3.8,6.5,1.6,8,3.4,17c7.4,8.6,6,1.8,12.7,14l27.3,55.8c-4.7,8.3-2.5-0.4-4.7,9.3
	l15.9,28.8c1.5,4.3,12.4,24,16.4,29.8c7.1,10.2,22.3,53.8,34.4,56.2c3.5-6.6-0.9-10.2-4.3-19c-2.7-7.2-4.1-17.6-5.6-22.6
	c7.4,2.4,2.2-0.3,5.9,6.3c3,5.2,3.1,3.8,5.2,8.7c2.2-2.5,7.4-2.1,4.9-14.2c-0.9-4.9-3.2-8.3-4.9-13l-7.1-19.2
	c-1.5-9.1,0.9-5.6,1.5-6.9c0.3,0.3,1,0.4,1.2,1.2l4.1,5.5c6,11.8,19,49.9,20.2,61.4c-5.9-2.4-9.1-6.6-12.2-13.9
	c-0.7,0.7-13.9-4.4,9,26.7c2.2,3-1.6,1.2,3.8,3.7c6.3,3,9.4,0.4,9.4-7.7c0-4.3-1.8-6.3-3-10.6c-6.2-21.2-11.9-42.9-24-60.9
	c-8.4-12.4-14.2-34.4-31.4-58.1c-5.3-7.2-1.8-8.7-7.8-16.5c-5.8-7.5-4.6-6.2-9-15.5l-40.1-60.5c-2.5-4-7.2-10.5-10.5-14.2
	c-6-6.9-6.8-9.7-18.3-11.1L566,208.3c-11.4,22.6-10.5,12.5-24.9,51.2l-9.1,29.2c-4.7,17.3-17.7,84.5-21.8,91.9
	c-0.6-20.7,1.9-33.9,6.2-52.1c6.3-27.6,12.1-63.7,26.6-89.4c13.9-24.6,31-41.9,9.4-51.2C532.1,199,517.8,244,508.5,267l-15.2,38.6
	c-1.9,6.2-1.3,8.1-3.8,14.3c-3,7.5-5.3,18-6.6,24.5l-3.8,20.7c-1.3,6-1.3,4.4-2.5,6c-1.9-6.2,4.9-39.2,7.8-47.6
	c10.8-29.9,17.6-64.2,33.3-91.7c5.9-10.3,18.4-30.1,18-42.3l-8.1-1.6l-32.2,72.7c-3.1,7.5-7.1,18.9-9.1,27.1
	c-4.4,17.3-12.2,35.4-14.8,54.4l-7.8,61.5c-0.1,0.3-0.4,0.9-0.6,1.3c-13-18.3,5.8-98.8,13.9-120.1c7.1-18.7,13.1-32.5,21.2-50.3
	l17.7-35.8c3.2-9.3,2.8-7.8-3.7-10.9c-8.7,6.8-37.8,77.7-41.3,88.5c-13,39.2-16.5,65.2-20.2,110.2c-28-6.8-3.5-90.9-1.2-104.6
	c1-6.8,0-8,2.2-13.4l14.8-36.7c8.6-20.8,23.6-35.8,24.2-46.3c-11.2,0.1-13.3,4.4-17.4,13.4c-9.3,19.8-20.5,37.9-26,61.1
	c-7.2,30.1-14.3,55.9-16.7,87l-3.2,11.1c-28.6-9.4,2.1-104.9,14.5-126.3c3.8-6.5,7.4-10,11.7-15.3c5.9-7.5,10.3-8.4,12.5-17.4
	c-14.6-0.9-18.1,6.6-24.5,16.5c-6,9.3,2.7,3.1-8.7,7.5c2.1-6.6,3.5-11.1,7.7-17.3c2.8-4.4,11.2-9,7.7-13.6
	c-3.5-4.6-10.2-1.6-15.2,6.2c-2.8,4.3-1.5,2.8-3.5,7.2c-2.5,5.2-2.1,3.1-4.9,9.1c-5.3,11.9-9.9,22.3-14,35.1
	c-7.7,24.6-15.6,56.1-17.3,83.6l-12.2-0.9c-3.8-31.4,17.7-88.8,34.1-114.9c0.1-0.3,0.6-0.9,0.9-1.3l8.6-13.3c3.4-6.8,5.5-9.9,5-19
	c-12.2,1.3-14,15.9-20.5,25.8l-15.9,32.7l-0.4,1.8l-19.2,71.8c-6.3-6.9-6.6-1-5.5-16.2c0.6-7.7,2.4-10.5,4.3-17.1
	c3.7-12.8,9-23,12.2-34.8s8.7-22.1,13.3-31.3c4.6-9.1,14.9-25.7,5-32.3c-4.6,3.4-23.6,53.1-26.8,61.8L356,316.7l-12.2,2.5
	c-0.1-19,15.9-60,25.2-77.7c5.3-10.3,21.1-31.7,21.2-42c-4.6-1.8-13.4-2.4-18.1,0c-8.9,4.3-32.3,64.9-34.2,71.4
	c-2.5,8.7-1.2,2.7-3.1,8c-1.6,4.3-1.2,6.2-3,10.8c-7.2,18.1-18.6,41.7-16.2,64c-6.8,8.3-14.9,22.1-24.6,27c1-9,4.3-15.5,6-25.7
	c6.5-37.3,23.5-82.6,41-115.5c4.7-9,22.4-33,18-42.9c-8.1,2.2-9.9,7.4-13.6,16.4c-7.2-2.2-1.9-1.2-8.7-3.8l-8.9,5.2
	c-0.6-0.3-1.3-1.3-1.5-0.9l-4.4-3c-2.7-1.9-3.5-2.7-5.5-4.3c7.5-13.1,26-8.4,30.5-21.4c6.9-19.6,5.6-47.8,5-68.6l14.8-6.8V95.7
	c-14.5-4.3-13.1,3.2-17.1-12.1c-1.8-6.5-3.2-13.7-8.6-18c-8.4,3.2-5.6,4.1-6.6,8.4c-4-4-11.1-17-16.2-7.7
	C314.4,67.9,312.9,89.3,312.3,93.2z"/>
<path class="st0" d="M610.4,614.8c10.9,11.8,2.7,9,0,10.3c-4.6-5.6-1.5,5.9-2.2-5C607.5,609.9,609.2,616.6,610.4,614.8z
	 M663.1,622.5c2.1-3.8,16.8-8.6,21.4-9.1l5.5,7.8C683.1,624.1,672.4,624.4,663.1,622.5z M633.1,618.6c7.2-12.1,3.8-0.7,5.2-7.2
	c0.1-0.7,0.7-0.9,1-1.3C639.5,610.2,648.5,614.9,633.1,618.6z M656,614.5c0.6-9.9,7.4-11.5,14.2-14.9l4.4,6.5
	C669.3,611.6,664.1,613.8,656,614.5z M630.8,596.5c2.7,8.4,3.5,4.6-1.3,10.9C617.3,622.5,610,597.8,630.8,596.5z M688,594.9
	c-5.3,6.5-4,5.5-9.7,0.7c1.9-2.5,1.2-2.2,5.6-2.5C693.4,592.4,684.6,592.5,688,594.9z M646.8,605.7c0.7-7.7,0.6-4.4,6-10.6
	c6.9-8,1.9-6.6,10-5.8C661.4,594.6,652.4,603.4,646.8,605.7z M630.6,465.4c-3.5,21.7-11.4,34.4-15.8,51.6
	c-3.8,15.5-7.2,41.6-6.8,58.6c5.8,3.8,8.6,5.2,11.8,12.7c-4.3,7.7-4.7,4.3-9.6,10.8L593,579.3l6.9-4.1c7.4-5.5,3.7-14.8,3.5-22.7
	C603.3,535.4,620,479.4,630.6,465.4z M581,581.9c2.7-33.8-0.1-59.4,11.2-90.4c9.1-25.2,10-22,21.7-42.9
	c-0.4,9.9-14.9,49.9-18.7,64.3c-6.8,25.1-8.4,61.4-9.4,64.3C583.1,584,588.1,578.8,581,581.9z M630.6,465.4
	c1.5-9.9,4.4-13.1,7.2-22.3c1.9-5.9,3.7-11.7,5.3-19.5c-8.9-0.3-6.2,0-10.3,6.8c-5.5,9.1-5,5-7.2,4.4c-2.1-3.2-1.5,0.7-1.6-4.7
	c0-8.3,4.9-3.2-0.3-13.6c-9.7,4.1-17.6,20.1-21.8,29.4c-3.1,6.9-4.6,10.2-8.4,15.3c-20.4,28.5-20.1,71.5-24.2,102.4
	c-6.5,4-3.5,0.1-8.4,6.6c4.3,8.7-0.6-0.7,4.1,5.5c1.6,2.1,1.6,0.4,2.8,4.1c1.9,6-0.3,7.2,0.1,13c0.9,10,5,5.2,3.8,22.1
	c-0.7,13.4-1.3,30.2,5.2,39.7c14.9-1.2,13.1-15.5,10.6-27.3c-3.2-16.1-3.2-26.7-5.3-42.9c12.4,4.1,4.1,0,9.3,5.3l10.6,16.4
	c-5.2,9.9-7.2,25.5-3.4,29.2c5.2,4.7,49.4-0.3,56.1-1c47.2-5.3,34.5,2.4,49.3,5.8c3.5-3,6.9-4.4,5.9-10.8c-0.9-5.6-2.7-0.3-2.8-14
	c-1-67.9-1.5-94.8,29.8-157.1c3.2-6.2,3.4-4.6,7.2-11.4c2.4-4,7.5-14.3,7.2-19.3c-0.4-5.2-1-3-2.8-5.2c-5.9,5-7.1,15.9-11.4,22.4
	c-13.6,20.5-4.7,8.9-11.1,20.5c-25.1,45.6-20.9,70.4-28.3,96.5c-3.7,13.1,6.9,36.7-0.1,53.7c-6.5-2.8-4.7-2.2-8.9-6.9
	c1.8-10.2,3.8-5.8,6.5-15.8c-7.4-4.4-4.6,1-8.1-7.5c-4.1-9.9,1.5-28.8,4.6-38.6c11.9-36.9,6.6-28.9,23.6-67.7l18.9-41.4
	c4.6-9.7,6.8-16.5,1-24.5l-8.6,19.8c-13.1,25.5-47.8,110.8-45,133.6c-5.8-3.5-6.8,9.7-5.2-11.2l6.9-27.6
	c10-42.3,37.8-90.9,38.2-97.6c-10.2-0.7-10.6,4.3-22.3,28.5c-4.3,9.1-11.4,27-13.9,35.1c-4.3,14.2-9.1,28.9-11.5,39.7
	c-3.4,16.1-6.3,26-6.2,44.8l8.1,4.7l-5.5,2.8c-10.3-14.9-9.1-7.2-12.2-14.3c-11.8-27.9,48.1-129.2,41.3-140.7
	c-12.7,7.4-47.1,95.9-50.2,133.2v19.8c-3.7,4.6-7.2,11.7-13.7,7.1c1-0.6,2.1-1,3.8-1.9l4.7-2.4c2.4-5.5,2.2-29.4,5.2-42
	c4.3-18.6,18.1-59.9,26.3-76.3c4.4-9.1,13.4-26.4,6-33.2c-8.4,6.8-22.4,53.1-28,67.4c-17.1,42.6-15.8,68-19.5,77.1
	c-8.9,3.4-13.4-4-17-11.2c-1.6-7.1,5-40.4,7.5-52.7l0.6-3.5c3.4-14.2-3.4,10.8,1-3.5l18-49c7.5-18.1,15.2-22.4,8.3-32.3
	C643.9,432,636.2,456.4,630.6,465.4z"/>
<path class="st0" d="M700.7,668.6c4.6-1.9,1.6-1.8,5.8-0.1c4.4,1.9,4.4,3.1,6,4.7C702.4,672.9,704.7,674.1,700.7,668.6z
	 M480.7,639.6c8.1-4.9,19-2.5,29.6-2.2c-0.7,9.3-0.7,6.8-5.3,13.1C485.3,652.4,483.6,643.1,480.7,639.6z M756.3,678.5
	c0.6-17.4-4.6-40.9-6.5-60c-2.1-21.5-2.4-45.6-3.4-65.9c-1.6-35,13.7-54.7,21.5-83.5l8.6-18.4c2.5-3.5,0.9-1.2,4-3.5l16.8,23
	l22.7,57.8c11.7,30.5,1.5,24.6,17.3,25.2c-2.8-13.6-21.7-69.8-28-81.3c-12.8-23.5-8-30.8-26.4-34.1c-1.2-8.4,1-4.1-3.5-7.5l-6.8-3
	c0.9-10.3,1.6-8.9-1.5-13.7c-6.6,3.5-3.2,1-6.8,9.3c-1.6,3.8-2.5,5.9-4.3,9.1c-20.4,37-28.6,56.2-38.9,99.6
	c-3.7,15.2-12.7,38.9,0.9,43.1c5-8,0.4-7.5,0.3-17.7c0-9.4,10.2-41.6,13.1-51.5c3.5-11.7,7.8-21.8,11.7-30.2
	c6-12.7,7.8-17.3,17.3-25.2c-0.6,12.4-9.6,31.4-13.3,44.4c-2.1,7.7-9.6,34.7-15,40.1c0.7,12.7-2.5,27.9-0.4,37.6
	c5.3,25.8,4.4,70.5,7.8,104.4c-24.2-2.2-26.8-17.8-48.2-21.1c-8.3,3.7-5.6,6.6-15.5,7.7c-33.6,3-28.9,9.7-63.9,5.2
	c-34.5-4.6-32.2,3.1-61.8-8.1c-11.5-4.4-2.4-6-17.4-2.4l-10.3-63.6c-6.3-34.8,3.5-78-5-94.1c-6.6,2.7-2.8-1.5-5.3,5.2l-1,56.1
	c-0.7,22.4,2.2,44.7,1.8,68c-35.1-11.4-43.5,9.7-53.4,12.8c-10.6,3.2-9.9,1-10.5,13c9.4,5.2,13.7,16.5,28.2,17.4l2.5-3.8
	c0-0.1,1.3-3.1,2.1-4.4c6.3,1.3,4.7,1.8,9.4,2.2c3.1,0.1,8.6-1.2,9.6-1.3l7.5-14.5c0.3-0.1,0.9-0.6,1.2-0.9c5.9-4,0.6-1,6.2-3.7
	c1.9,14.6-4.3,22.3-1.6,29.8c3.1,8.6,9.6,12.7,18.4,11.9l5-10.8c12.7,1.5,13,5.3,22.9,10l10.6-7.5c4.7,4.1,7.5,6,12.4,10.2
	c7.4,6,6.2,6.8,15.5,8.3c-0.7-7.7,0.3-8.6-4.4-12.5c34.1-4.9,59.4-4,92.6,0.3c10.9,1.3,18.3,5.8,26.7,7.5c7.8-3.1,2.5-3.2,9.1-4.6
	c6.3-1.2,6.8,1.2,13.1,0C747.4,687.2,741.4,687.5,756.3,678.5z"/>
<path class="st0" d="M340.9,583.4c4.6,4.6,3,3.8,4.7,7.4c-32.2-7.2-32.6-6.9-32.6-18.9c5.3,1.3,13.9,3.7,19.6,6.2
	C335.6,579.4,338.4,581,340.9,583.4z M334.4,570.3c3.4-2.4-5.6-1.9,5.9-1.6c7.5,0.1,8.1,4.7,18-1.9c-2.7-7.2-0.6-4.7-10.5-10.3
	l-3.1-2.1c14.2-6.2,8.6-6.3,17-10.2c-0.3,7.7,1.3,13.7,0.7,19.2l-6.5,14.8L334.4,570.3z M312,541.3c0-5.5,1.9-2.5,2.5-0.1
	C315.5,544.7,312,542.7,312,541.3z M301.5,570.4c3.5,29.1,5.3,44.4,4.9,74c0,10-3.1,16.2,6.3,16.8c31,1.6,33.9,12.8,42.8-1.9
	l8.1-16.4c-0.4,20.4-4.7,26.8,3.8,34.2l4.1,2.1c8.7-11.1,0.9-55.9,0.3-75.4c-1-28.6,1.3-51.5-3.7-79.7c-10.3-2.7-5.5,1.3-16.7,0.7
	c-8.3-0.3-3-2.5-17.7-2.2c-5.8,0.1-30.8,4.3-32.9,5.2l-1,3c-0.1,0.4-0.3,1.2-0.3,1.8c-0.1,1.6,0.1,4.6,0.1,6.5
	c0.1,5.3,0.3,6.8-0.4,12.2c-0.9,6.2-1.8,5.9-0.4,11.2C300.9,570.8,300.2,559.5,301.5,570.4z"/>
<path class="st0" d="M835.6,558.8c-9.4,2.5-8.4,1.8-8,15.9c1.3,36.1-0.9,23.9,5.3,58.3l-9.4,7.7c-2.7,2.1-6.6,4.9-13.9,6.8
	c1.6-26.1,3.2-68.9-5.5-88.2c-12.5,0.7-10.3-3.7-20.8-0.9c-1.6,18.7-3.4,35.8-3.7,54.4c-0.3,19.8,1.9,35.5,2.7,54.1
	c-3.8,2.2-7.8,5.8-12.4,9.4c-5.6,4.4-7.8,4.6-8,14.6c8-2.1,13-6.9,20.1-13.3l27.1-2.2c4-12.4-5-13.4,22-29.4
	c0.3,0.6,0.7,1.2,0.9,1.6l1.3,3.7c8.6,35.5-4.6,5.8,4.6,16.4c10.2-4.4,0.7-43.1-0.6-52.7C835.3,600.9,835.8,574.2,835.6,558.8z"/>
<path class="st0" d="M631.9,574.4c2.1-7.8,0.3-13.7,1-22l4-17.8c3.2-21.4,13-46.6,22.9-66.1c4-7.7,15.5-22.9,8.6-32.7
	c-10.3,3.8-3.4,3.8-9.9,15l-15.3,34.1c-15.5,33.2-13.9,47.9-18.9,77.3C622.5,572.5,622.5,574.7,631.9,574.4z"/>
<path class="st0" d="M592.6,288.8c-7.4,7.7-3.5,26.3-3,31.6c1.9,16.4,2.7,26,20.8,23.9c7.1-11.9,3.1-30.8,2.1-49.4l-11.7,1.3
	c0.1-10.5,2.1-6.3-3.8-9.6C592.8,287.9,594.5,286.9,592.6,288.8z"/>
<path class="st0" d="M851.9,538.5c-3-9.7-2.7-11.1-7.2-19.6c-6.9-13-22.9-60.8-29.8-75.2c-5.5-11.5-10.5-27-24.3-23.7
	c-2.7,7.8-2.4,6.8,1.3,15c4.6-3.1-2.5,2.4,2.1-4.1c4-5.9-2.2-0.4,3-2.5l29.5,64c17.7,32.2,19.5,61.1,27.1,66.8
	c0.9-1.2,3.4-0.6,1.6-10.8C854.4,544.4,852.9,541.9,851.9,538.5z"/>
<path class="st0" d="M315.1,449.6c0.6,0.4,1.3,0.7,1.9,1c0.4,0.1,1.3,0.6,1.8,0.7l6.9,1.5c1.2,11.2,0.7,12.4,8,16.5
	c19.2-10.6,3.2-59.6,2.2-61.2c-10.3,0.7-11.5,6.5-13.9,16.1C318.3,440.2,323.2,435,315.1,449.6z"/>
<path class="st0" d="M789,526c4.3-4.4-0.3-31.6-3.7-36.7c-3.2-4.6-8.1-10.2-14.3-8.9C767.8,486.8,771.5,543.4,789,526z"/>
</svg>
