<?xml version="1.0" encoding="utf-8"?>
<!-- Generator: Adobe Illustrator 23.0.1, SVG Export Plug-In . SVG Version: 6.00 Build 0)  -->
<svg version="1.1" id="Layer_1" xmlns="http://www.w3.org/2000/svg" xmlns:xlink="http://www.w3.org/1999/xlink" x="0px" y="0px"
	 viewBox="0 0 245.1 245.1" style="enable-background:new 0 0 245.1 245.1;" xml:space="preserve">
<style type="text/css">
	.st0{fill:#222222;}
</style>
<g>
	<path class="st0" d="M107,173.2h1.8c0,0.2,0,0.3,0,0.6v25.4c0,5.1,4.2,9.3,9.3,9.3h8.7c5.1,0,9.3-4.2,9.3-9.3v-25.4
		c0-0.2,0-0.3,0-0.6h1.8c5.1,0,9.4-4.2,9.4-9.4V162c0-3.9-2.4-7.3-5.9-8.7v-100l-18.8-22.6l-18.8,22.6v100c-3.5,1.4-5.9,4.8-5.9,8.7
		v1.9C97.7,169.1,101.9,173.2,107,173.2z M117.5,188.1h9.8v2.6h-9.8V188.1z M127.3,183.7h-9.8v-2.6h9.8V183.7z M126.8,199.8h-8.7
		c-0.3,0-0.6-0.3-0.6-0.6V195h9.8v4.2C127.3,199.5,127.1,199.8,126.8,199.8z M127.3,173.8v3h-9.8v-3c0-0.3,0.3-0.6,0.6-0.6h8.7
		C127.1,173.2,127.3,173.5,127.3,173.8z M138.5,163.9c0,0.3-0.3,0.7-0.7,0.7h-11.1H118h-11.1c-0.3,0-0.7-0.3-0.7-0.7V162
		c0-0.3,0.3-0.7,0.7-0.7h30.8c0.3,0,0.7,0.3,0.7,0.7L138.5,163.9L138.5,163.9z M132.5,152.7h-6.7V48.5l6.7,8V152.7z M119,48.5v104.2
		h-6.7V56.5L119,48.5z"/>
</g>
</svg>
