<?xml version='1.0' encoding='utf-8'?>
<svg xmlns="http://www.w3.org/2000/svg" width="13in" height="18in" version="1.1" style="shape-rendering:geometricPrecision; text-rendering:geometricPrecision; image-rendering:optimizeQuality; fill-rule:evenodd; clip-rule:evenodd" viewBox="0 0 13000 18000"> <defs> <style type="text/css">  .fil0 {fill:#030303}  </style> </defs> <g id="Layer_x0020_1"> <metadata id="CorelCorpID_0Corel-Layer"/> <g id="_5162268864"> <g> <path class="fil0" d="M4223 8527c16,-40 30,-52 69,-73 -17,34 -25,66 -69,73zm188 -51c5,-61 -13,-39 42,-39 -13,49 34,16 -42,39zm452 -131c1,-45 -12,-17 39,-45 42,-23 17,-32 67,-7 -16,47 40,15 -50,42 -22,7 -39,9 -55,11zm468 -145c24,-19 -9,1 20,-9 58,-20 14,-17 60,-48 29,64 -29,112 -80,57zm649 -327c-19,-38 -4,-33 25,-45 -6,56 14,21 -25,45zm471 -234c0,0 -17,16 -10,5 4,-6 19,-31 10,-5zm123 -37c-71,33 -31,3 -44,-5l44 5zm366 -38c-13,12 -26,18 -1,-3 14,-12 17,-11 1,3zm18 -323c3,-2 24,-22 34,5l-34 -5zm59 191c45,-34 50,0 59,-66 -30,-28 -42,-19 -66,-46 36,-73 40,-83 15,-165 -82,-1 -102,32 -133,87 12,74 34,18 29,82 -5,55 -14,-6 -28,79l95 -15c-34,56 -99,27 -150,4l9 -85c-37,0 -163,100 -164,102 27,30 34,19 60,41 -114,127 -30,-39 -198,107 -44,-19 -4,-18 -65,-24 -69,61 -141,124 -158,219l-79 8c-11,14 -19,30 -20,32 -17,19 0,1 -23,18 -33,25 -8,-24 -40,45 -33,73 -15,42 -94,74l-27 69c-34,8 -71,6 -105,20 -47,19 -26,32 -75,39 -56,-207 152,-59 186,-138 20,-46 25,-86 -6,-122 48,-61 30,10 40,-73 -153,-4 -139,0 -146,99l-189 103c-46,30 -11,37 -99,53 -48,9 -73,7 -111,24 19,47 40,55 95,29 45,-22 40,-23 93,-32 -3,30 -1,9 -11,32 -14,31 4,-27 -14,37l71 8c-19,45 -15,31 -66,36 -89,9 -145,64 -236,61 -8,-22 -5,-26 -10,-40 -21,-56 -98,-20 -142,-15 -1,2 -12,41 -12,42l-26 61c-7,49 -65,33 -105,47 -55,20 -21,28 -93,28l26 -68c-47,-31 -162,-24 -180,27 -71,-22 -65,-58 -131,-33 -19,54 3,93 42,125 -60,3 -37,-27 -55,-85 -117,22 -235,-21 -311,10 70,40 163,26 240,45 67,17 29,-4 44,35 -46,28 -24,-18 -101,-10 10,34 8,7 11,31 2,14 -1,15 -4,22 -78,-47 -82,-65 -200,-70l4 55 -68 -48c-6,13 -6,6 -11,31l-7 56c-9,33 -18,56 -38,80 -26,-43 29,-53 23,-115 -71,-19 -105,40 -149,92 -31,37 -93,91 -140,98 33,-95 175,-140 241,-230 -53,-1 -82,31 -116,63 -32,29 -54,46 -92,74 -38,28 -82,36 -81,77 1,35 44,39 -76,44 -32,-34 -29,-46 -84,-36 25,-71 11,-32 -1,-54l-57 21c10,59 17,27 44,83 -107,111 -303,103 -435,146 37,11 40,-5 56,36 -117,62 -183,34 -243,36 -83,2 -412,15 -455,32 42,16 400,-23 495,-20l-35 30c-3,2 -7,3 -10,4l-139 26c-38,2 -66,3 -101,9 -64,11 -37,11 -85,30 -59,23 -320,45 -400,52l54 19c-66,43 -178,63 -273,72 -328,28 -66,14 -285,63 -95,21 -165,58 -256,91 -96,35 -223,3 -324,11 16,12 3,11 32,18 24,6 2,1 27,2 44,2 126,-9 165,10l-52 31c-32,4 -53,-3 -85,-3 -136,1 -152,25 -198,52 -170,102 -599,17 -771,62l-19 11c80,33 375,-5 488,3 17,36 21,5 -17,40 100,-14 163,-55 252,-72 100,-19 121,-80 244,-62 -45,36 -73,33 -124,57 66,-5 113,-33 173,-49 56,-15 178,-17 203,-32l-76 -16c132,-61 242,3 324,-37 -41,-27 -42,-11 -90,-8l-98 -19c83,-55 220,-31 278,-58 46,-22 -23,-14 51,-21l190 -41c163,-21 124,-4 272,-63l529 -123c171,-23 137,-44 250,-70 40,-9 91,-15 123,-44 43,-38 45,-41 114,-52 142,-22 226,-107 374,-109 102,-2 67,-1 138,-30 149,-60 371,-64 513,-140 174,-93 397,-103 511,-141 80,-27 171,-45 252,-68l120 -45c45,-10 48,15 126,-13 82,-30 138,-77 206,-116 32,44 72,30 124,26 26,-44 17,-42 80,-50 93,-12 254,-41 286,-129 -75,-96 -129,-12 -167,-30l141 -58c91,-37 55,-27 115,-90 74,6 57,14 78,67 89,1 145,-62 184,-115 -88,-48 -81,-15 -152,-37 49,-144 161,-22 249,-33 61,-8 191,-48 236,-96 -23,-32 1,-4 -26,-27 -2,-2 -20,-12 -24,-15 25,-39 11,-58 48,-87z"/> <path class="fil0" d="M8904 6922c200,-3 391,-18 589,-27 191,-8 382,-56 570,-57 20,197 -39,166 -195,179 -211,18 -480,15 -713,37 -95,9 -80,-13 -134,-49l-116 -83zm1236 -150c-8,41 6,27 -33,28l33 -28zm36 -42c591,-121 1372,-95 1977,-177 279,-38 1834,-147 1950,-201 -65,1 -117,12 -180,18 -52,5 -106,9 -163,15 -107,13 -222,14 -330,29 -204,29 -460,45 -660,61 -441,33 -897,92 -1347,111 -234,10 -456,45 -681,56 -441,22 -861,128 -1305,140 -136,4 -611,-19 -699,28 27,36 2,24 63,18 35,-3 59,-3 95,-3 63,0 108,-7 167,-12 113,-9 243,8 361,1 202,-11 476,-76 651,-72 -4,102 -97,72 -318,97l-971 66c-130,-14 -33,-59 -121,-61 -27,108 80,82 169,112 48,17 49,18 94,45 38,22 63,34 79,64 -121,38 -49,-16 -138,75 -41,-11 -124,-95 -137,18 21,8 48,14 75,20 108,25 75,31 201,20 201,-18 826,-30 947,-82 -30,-25 52,-17 -57,-19 -145,-2 -302,37 -445,44l-402 22c-47,4 -79,20 -116,-5 20,-13 7,-7 32,-17 73,-29 104,-63 194,-63 171,0 780,-60 864,-37l6 54c-11,54 -31,61 -86,70 -23,4 -39,4 -61,6 -45,3 -84,8 -128,13 -144,14 -732,55 -794,85 15,11 -1,10 32,16 91,16 820,-95 990,-88l-29 19c-24,21 -3,-7 -20,29 57,17 44,4 79,-36 13,-16 9,-6 22,-22 33,-38 58,-209 63,-267 3,-39 7,-120 54,-77 53,50 -35,89 51,256 66,127 53,90 149,180 -30,56 -13,2 -43,59 26,57 31,20 52,74 44,111 28,141 108,241 22,28 29,59 47,79 25,27 36,20 67,44 41,32 69,107 146,63 -14,-47 -20,-18 -67,-46 -20,-12 -33,-35 -57,-53 -147,-114 -77,-42 -133,-185 -9,-23 -28,-39 -39,-62 -27,-56 -34,-89 -61,-140 19,-35 17,-19 42,-56 -39,-76 -128,-109 -158,-183l445 -38c-28,137 -154,97 -256,163l265 -9 32 -73c69,5 109,43 180,32 114,-17 213,-84 332,-71 139,15 355,-46 507,-65l355 -34c113,-31 239,-27 346,-30 99,-4 256,-32 353,-49 125,-22 241,-24 367,-38 99,-11 67,-3 154,21 20,6 62,16 86,17 62,3 51,4 72,-33 -45,-25 -21,-9 -87,-14 -34,-3 -43,-7 -79,-18 -129,-40 -347,0 -492,12 -105,8 -223,38 -332,48 -80,7 -99,-22 -173,-8 -61,12 -110,6 -164,18l-499 70c-71,4 -96,-4 -168,12 -274,62 -196,-1 -318,30 -99,25 -172,60 -288,73 -49,-30 2,-11 -48,-34l-52 -21c36,-20 35,-16 86,-18l226 -21c281,-71 1856,-205 2163,-235l624 -72c422,-23 835,-68 1251,-107 113,-11 208,-24 318,-30 63,-4 268,7 320,-18l-40 -15c-213,-24 -433,16 -646,38 -669,71 -1434,115 -2080,210 -234,35 -469,39 -706,62 -216,21 -470,44 -691,72 -166,21 -1304,181 -1378,136 -45,-58 -45,-91 -33,-177 9,-68 -19,-105 -33,-170z"/> <path class="fil0" d="M2950 8621l198 -10c0,0 2,29 -99,32 -51,2 -63,-5 -100,-23zm787 -268c0,-7 21,-29 15,1 -7,31 29,1 -4,3 -13,1 -10,11 -10,-3zm-312 -125c0,-10 12,-21 18,2 3,13 -19,33 -18,-2zm-1486 -15c-58,-9 -58,-31 -64,-100 -2,-26 0,-40 7,-64l13 -55c0,-6 -1,-8 -2,-11 -116,-14 -54,150 -50,238 -41,11 -75,34 -126,25 -19,-3 -36,-12 -46,-26l-23 -52c-56,18 -55,14 -48,75 -21,0 -68,-3 -86,4 -53,20 -21,19 -29,37 245,83 351,-47 510,-37 2,2 3,6 4,8 1,1 3,6 4,8 40,49 96,25 157,22 71,-3 125,10 193,16 130,12 245,-2 363,6 96,7 67,36 181,34 126,-1 256,40 387,21 91,-13 92,18 167,1l-24 -47c67,-22 20,-12 66,-40 107,65 99,-37 212,86 -7,153 -110,84 -164,186 -98,3 -144,27 -226,25 -76,-2 -150,8 -226,13l-718 -7c-143,-20 -512,-86 -619,-40 282,21 536,22 805,86 -211,68 -558,-51 -785,-33 -178,14 -180,-50 -385,-9 -92,18 -189,-104 -182,-233 -56,-46 -92,-70 -163,-43 -6,45 8,64 31,94 43,-19 45,-34 62,-37 2,3 4,8 4,10 1,3 3,7 4,11l39 115c-49,-8 -27,-7 -67,-32 -111,-68 -65,4 -71,10 57,12 127,71 146,126 -52,-12 -157,-98 -208,-136 6,-85 0,-122 -71,-167 -12,24 -43,-36 12,95 15,36 7,38 -1,82 20,17 56,62 77,79 42,32 58,5 97,66 -107,-15 -39,-26 -121,-69 -57,-30 -54,-46 -121,-51 19,35 40,42 69,73 -38,29 -127,42 -177,42l-23 -75 -105 -35 -4 96 -60 14c40,25 126,26 173,20 47,-6 114,-30 172,-25 144,13 19,41 375,29 104,-3 83,-20 162,-43 52,-15 107,4 156,20 138,47 200,-5 356,20 289,46 669,25 739,37 299,54 452,-1 573,10 49,5 102,22 162,24 -29,-55 -39,-27 -92,-66 -71,-52 -26,-14 -105,-35 125,-30 247,37 355,-34 32,-21 22,-31 52,-58 60,-56 110,-92 191,-115 18,-62 29,-44 35,-105 -74,-3 -117,24 -176,-2 10,-56 93,-95 145,-126 39,-24 115,-89 128,-133l-95 36c25,-36 15,-10 29,-50 -125,40 -58,91 -128,129 -20,-33 -14,37 -16,-48 -1,-46 14,-57 43,-83l-27 -37c-3,-3 -12,-16 -14,-18l-26 111c-8,28 -8,18 -21,29l-15 -148c-86,-17 -22,90 -19,175l66 13c-6,95 -117,113 -211,111 27,-55 23,-16 21,-41l-94 -20c-6,-87 33,-34 16,-112 -72,-14 -196,-1 -271,22 -40,12 -18,7 -27,13 53,18 133,-22 195,0 -14,36 -60,112 -29,161 44,-28 31,-83 50,-138 14,-41 10,-24 19,-39 21,26 37,-45 6,62 -16,55 -47,97 -9,144l-127 18c9,-59 21,-55 17,-108 -85,37 -20,99 -105,105 28,-58 34,-38 49,-128 -42,14 -41,4 -68,47 -11,18 -18,43 -29,72l-107 -2c93,-61 33,36 144,-152l-38 -25c-38,-27 -25,-108 -28,-151 -44,1 -200,34 -274,41 -94,9 -203,8 -298,23 -170,26 -426,-4 -586,29 94,47 921,-78 1125,-43l-3 68c-83,-25 -81,24 -308,24 -84,0 -255,-2 -317,22 35,17 261,-9 332,-10 80,-1 251,-44 291,34 -11,0 -48,-1 -56,-1 -82,9 57,-14 -23,5l-18 11c53,22 85,12 109,60l-95 5c-31,42 -32,55 -100,57 8,-51 -22,-14 26,-47l-220 -4c-82,-10 -184,43 -308,3 -4,-1 -7,-3 -11,-4 -4,-1 -8,-2 -12,-3 -59,-14 -100,-46 -180,-29 -76,16 0,34 -82,24l-20 -76 163 -21c-61,-8 -79,3 -132,4 -55,2 -73,-23 -138,-15 -2,3 -4,8 -5,10l-23 60z"/> <path class="fil0" d="M509 7725l31 -21 -31 21zm-630 -25c44,-34 71,-16 129,-15l256 5c56,-8 46,-27 86,11 -51,74 -218,35 -370,41 -71,3 -86,22 -101,-41zm-61 -56c-6,-17 9,5 9,5 2,25 0,21 -9,-5zm79 17c-21,-22 -13,-18 -32,-40 -39,-44 -13,5 -45,-49l575 -46c-18,55 -127,111 -185,126 -23,6 -276,10 -314,9zm612 64l-5 78c35,10 49,12 101,6 -39,-45 -22,-2 -19,-45 77,-3 4,47 106,63 3,-117 10,7 -45,-114 -62,13 -47,13 -65,1 41,-45 68,-30 60,-108 -73,-11 -107,53 -252,128 -15,-29 -3,-31 -6,-79l-38 -26c31,-43 45,-37 82,-66l125 -155c16,-31 19,-67 28,-112 45,-8 59,-3 94,-29l-83 -4c-23,-30 -4,-13 -28,-39l-45 42c-16,10 -19,9 -39,11 -34,5 -75,6 -110,8 -69,5 -140,15 -208,21l-376 28c-70,12 -18,1 -45,22 265,-5 536,-62 788,-53 16,89 4,57 -37,102 -32,36 -21,58 -60,92l-798 56c-158,1 -775,-11 -870,26 103,25 939,-11 1005,13l6 65c-119,75 -1410,45 -1654,45l805 24c279,24 557,-19 833,-10 20,117 -99,97 -208,100 -342,9 -1166,61 -1444,20 -64,-9 -522,-7 -578,7 33,21 974,28 1092,29 181,1 365,-19 542,-16 183,4 373,-27 550,-26 -17,60 14,51 -130,70 -208,27 -554,31 -808,54 -105,9 -213,5 -321,13 -215,15 -1307,3 -1329,10 13,13 -4,9 26,19l624 -5c217,-2 439,20 651,7 84,-5 1186,-82 1236,-69l-47 58c61,12 113,-61 141,-113 73,-135 4,-150 85,-156 13,63 -15,56 15,126 16,38 33,50 55,78 5,16 -52,105 87,240 25,-34 -27,-120 -47,-162 62,-3 44,9 71,-22 -26,-43 -82,-42 -82,-81 69,-58 372,-12 440,-44 -93,-42 -356,8 -469,4l-23 -82c114,-29 391,-14 518,5 74,11 70,-3 107,-55z"/> <path class="fil0" d="M8671 8312c-56,-13 -65,-6 -58,-48 49,-4 23,6 58,48zm-116 -174c0,-51 10,-38 37,-49 10,44 13,52 -37,49zm-224 -224c-2,-4 -7,3 -11,4 1,2 1,5 1,6 0,1 2,5 2,6 1,2 8,10 10,12l22 22 -68 43c7,46 10,50 13,109 45,17 44,-1 78,31 43,40 -4,25 69,47 19,-57 -9,-69 58,-76 -24,41 -23,21 -28,73 133,-20 14,31 199,-31 -4,89 -60,65 -154,84 -38,8 -36,20 -38,17 -1,-3 -5,5 -7,7 30,35 11,15 77,22 -20,17 -18,18 -8,48 124,74 40,-10 102,108 29,55 96,28 135,4 15,-82 -17,-70 17,-157l12 20c2,3 7,16 9,20 6,13 9,21 17,32 84,-30 6,-50 103,-72 14,56 8,62 52,92 21,-28 13,-9 7,-55 77,-6 22,7 110,-48l-24 -51 -66 6c56,-40 34,-36 103,-16 233,67 131,-14 254,-2 70,7 97,39 104,-49 -54,-30 -92,-7 -156,-3 -30,-54 -55,-55 -121,-70 -98,-23 -63,16 -142,16 -37,-40 -39,-40 -52,-97 -121,-4 -42,-25 -129,-43 -60,40 -61,116 -30,185 12,12 39,4 78,26 -36,59 -113,47 -179,54l-11 -109c-72,-35 -38,-18 -61,-84 -137,1 -87,9 -130,-55 -34,-3 -67,-8 -92,19 -46,49 26,37 -47,62 -29,-49 18,-54 48,-153 -36,-2 -51,-8 -79,-10l-48 4z"/> <path class="fil0" d="M-1264 8489l45 3c-14,11 10,8 -22,10 -47,4 -13,-3 -22,-14zm531 -19c-55,30 -157,44 -215,-4l215 4zm784 -33c0,-29 12,-14 16,1 3,12 -16,31 -16,-1zm-560 13c31,-63 134,-73 156,-192 -132,43 71,75 -305,139 -83,14 -48,42 -175,50 -278,18 -401,8 -646,18 -145,5 -298,-3 -444,-3 -287,1 -574,23 -861,35 -160,6 -490,7 -639,26 -42,5 -56,3 -98,6 -92,5 -81,28 -89,34 21,11 -28,9 50,16 47,4 84,-24 136,-30 216,-23 422,-22 639,-30l966 -33c-42,30 -337,78 -420,97 -180,42 -91,-12 -132,49 79,19 144,-21 209,-49 57,-25 139,-26 204,-41 231,-53 370,9 441,-24l-157 -16c141,-38 289,19 404,19 54,0 134,-4 188,-6 60,-3 78,20 151,30 114,15 202,-56 341,-13 51,-32 42,-30 111,-48 30,54 23,50 111,53 77,2 221,29 304,11 183,-39 61,41 194,-66 5,-60 6,-54 -21,-86 26,-35 35,-24 47,-65 -76,16 -116,69 -166,77 -48,8 -69,-8 -110,-10 -99,-5 -80,39 -81,40 72,43 122,-17 196,28 -18,31 4,28 -60,39 -30,5 -232,10 -269,-11 27,-43 28,-10 84,-42 -55,-66 -83,-10 -140,9 22,-24 21,-15 22,-60 -67,4 -93,28 -141,51z"/> <path class="fil0" d="M4208 7135c74,-27 165,-14 245,-17 112,-4 123,-18 214,-37 140,-29 323,-36 466,-53 85,-10 139,-34 222,-37 240,-8 455,-50 683,-72 -6,80 -9,33 -24,69 -7,17 -8,27 -9,56l-234 39c77,0 147,-29 209,4 -13,26 2,6 -23,32 -46,49 -19,15 -32,63 -127,19 -250,39 -372,62 -105,20 -262,-1 -386,20 -84,-88 31,-74 -268,-46 -67,6 -241,25 -290,50l416 -39 25 37c2,-2 5,-5 6,-6 1,-1 5,-5 6,-7l45 -31c-12,61 3,95 31,137l16 -64c4,-2 8,-4 11,-5l343 -26c106,-11 224,-40 336,-44 -15,22 -3,9 -22,28l-78 53c-101,9 -471,0 -521,50 18,6 411,-25 478,-27 0,59 -49,121 -100,148 -89,47 -74,-16 -164,74 11,34 11,42 44,67l51 -14c5,-71 4,3 -21,-67 48,-23 93,-28 141,-64 125,-94 -6,-84 212,-207 195,-110 90,-86 144,-172 17,-26 96,-118 79,-205 -75,3 -145,28 -218,37l-487 46c-69,4 -150,23 -224,32 -80,10 -146,27 -235,36 -76,8 -160,8 -237,19 -79,11 -152,29 -234,34 -47,3 -92,1 -139,4 -115,7 -89,-2 -102,-34 31,-28 -9,-9 33,-20 1,0 758,-49 966,-113l-1047 95c0,24 7,85 -8,101 -39,43 -28,30 -41,84 -2,8 -7,26 -9,34 -113,15 -210,7 -328,36l-659 70c-105,3 -228,-13 -317,14 506,10 813,-72 1271,-95 -9,83 -15,66 -99,77 -490,66 -548,47 -1031,70 219,34 983,-54 1077,-42l21 96c46,-31 28,-23 56,-66 -50,-59 -13,16 -41,-61 11,-13 30,-37 40,-50 41,-55 -3,-21 47,-42 97,-41 40,-9 64,-114z"/> <path class="fil0" d="M7512 6809c41,-33 271,-41 344,-40 130,3 217,-29 343,-28l7 71c-92,-5 -267,13 -374,19 -150,9 -276,39 -320,-23zm-70 -81c65,-44 283,-32 384,-44l386 -36c33,78 -62,67 -140,75 -80,9 -136,14 -216,17 -71,3 -165,9 -238,17 -137,14 -153,31 -175,-30zm-81 -91c335,-46 447,-29 743,-48 7,0 53,-3 56,-3 70,6 17,-1 37,17 -13,32 45,11 -37,29l-633 48c-65,9 -148,21 -166,-42zm688 355l-175 117c-41,24 -92,34 -34,80 51,-24 3,13 43,-47 40,-61 62,-36 135,-84 24,-16 21,-20 47,-37 148,-97 31,-19 101,-107 34,-43 45,-25 61,-92 10,-43 10,-87 31,-122 32,-52 108,-106 110,-182 -59,10 -47,7 -79,55 -55,-7 -56,-23 -116,-21l-373 21c-154,5 -349,51 -496,24 -6,-18 -29,-113 -24,-138 156,-23 863,-30 929,-69 -69,-36 -669,36 -799,40 -97,2 -159,-19 -252,-10l34 27c70,51 33,69 59,147 20,60 25,34 61,66 53,47 -20,6 67,58 54,32 18,21 53,71 61,88 154,103 256,124l9 -22c9,-26 -7,7 5,-20 165,-18 319,-8 480,-34 -46,94 -53,18 -90,155l-41 0z"/> <path class="fil0" d="M-4090 8297c93,39 1113,-104 1321,-112l1875 -75c146,-5 296,-33 444,-43l76 62c-17,25 -33,40 -47,56 -89,103 -166,58 -418,71 -127,7 -235,25 -361,28 -127,3 -243,16 -361,21l-1306 65c-104,-1 -475,-11 -535,23 45,17 1285,-48 1452,-51 402,-8 742,-50 1110,-58 67,-1 129,-7 195,-10 118,-6 55,31 138,48 45,-31 19,-21 48,-64 25,-36 89,-53 114,-108 12,-25 12,-22 11,-50 -1,-38 -11,-39 -16,-49 -133,-22 -287,8 -446,25 -154,17 -323,17 -476,21l-958 47c-307,33 -673,-1 -971,42l-792 78c-57,1 -75,-10 -100,30z"/> <path class="fil0" d="M8661 6713c46,28 545,-26 639,-36 218,-22 446,-32 665,-48l967 -101c57,-7 114,-5 170,-12 21,-3 50,-7 71,-12 15,-3 20,-2 33,-8 73,-30 -57,43 35,-24 67,18 38,16 105,-1 61,-16 60,7 124,2l1970 -171c372,-29 757,-58 1106,-107 178,-25 363,-41 553,-57 95,-8 186,-14 281,-21 59,-5 223,-11 261,-43 -57,-36 -728,61 -837,80 -289,49 -580,50 -870,89 -284,38 -592,37 -883,72 -583,70 -1196,99 -1782,129 -130,7 7,32 -188,52l-1545 139c-129,9 -819,37 -875,79z"/> <path class="fil0" d="M10229 6435c306,-1 1703,-116 2101,-148 76,-6 623,-34 684,-82 -173,8 -348,38 -520,44 -155,6 -341,25 -503,37l-2013 139c-330,25 -650,72 -986,70l-430 31c-46,-41 -37,-52 -126,-35 4,144 155,41 446,40 443,-1 1001,-97 1347,-97z"/> <path class="fil0" d="M1473 6550c6,18 -25,15 26,30l1009 6c184,4 351,21 528,28 79,3 176,-10 264,-10 228,0 640,30 794,11 169,-20 363,-12 538,-21 208,-11 324,-34 516,-35 80,0 426,-44 482,-69 -9,-6 0,-7 -25,-9l-817 87c-224,24 -436,10 -600,23 -248,19 -327,21 -583,-6 -91,-10 -204,-9 -298,-18l87 -27 -108 -15c-43,33 -8,9 -42,45 -79,3 -139,15 -223,13 -75,-2 -141,-21 -207,-25 -148,-9 -307,-4 -459,-18 -156,-14 -293,4 -445,1l-347 -3c-61,-2 -43,-20 -91,12z"/> <path class="fil0" d="M12662 6765c341,6 1319,-142 1760,-181 19,-2 556,-46 561,-61 2,-4 6,-4 10,-5 -43,-18 -478,41 -570,51 -55,6 -77,18 -139,20 -51,1 -94,4 -142,8 -97,9 -191,27 -289,35 -368,30 -724,81 -1075,119l-53 -11c38,-23 29,-3 75,-27 -421,36 -853,89 -1284,135 -218,24 -431,32 -652,56 -104,11 -584,52 -635,73 40,40 185,6 262,-2 288,-32 554,-67 847,-82 196,-10 1077,-109 1154,-93 -48,-41 -66,-3 -113,-32 128,6 197,-33 340,-31 -16,12 -8,8 -32,20 -3,2 -22,6 -26,7z"/> <path class="fil0" d="M8550 6449c26,9 505,-27 596,-26 129,1 732,-60 889,-90 89,-17 208,-9 303,-25 186,-32 398,-34 592,-64 58,-9 79,9 144,-3 49,-9 95,-14 149,-20l908 -79c280,-9 752,-62 1059,-93 26,-3 54,-3 81,-4l73 -14c-55,-25 -480,35 -588,45 -188,17 -410,23 -610,38 -755,58 -1621,151 -2389,227 -198,19 -394,47 -597,50l-485 19c-20,2 -52,3 -71,7 -13,3 -22,3 -34,10 -25,14 -7,4 -19,21z"/> <path class="fil0" d="M9131 5809c24,42 39,32 95,25 35,-4 73,-12 110,-17 400,-49 793,-6 1260,-45 150,-13 330,4 493,-5 321,-17 639,-53 945,-96 177,-25 317,-1 485,1 88,1 157,-21 250,-18l193 -2c94,-23 15,6 51,-34 -97,8 -161,7 -258,3 -94,-4 -163,21 -249,18 -169,-7 -312,-13 -487,2 -141,12 -304,51 -458,57 -161,7 -316,22 -477,34 -173,13 -338,-6 -509,8 -158,13 -328,19 -486,24 -168,5 -320,-9 -486,-2 -64,3 -443,30 -474,45z"/> <path class="fil0" d="M7070 7880c4,-3 44,-27 49,-29l35 -3c1,-3 6,3 9,4 -25,21 -63,46 -93,28zm289 -163c-9,11 -24,17 -4,-2 11,-10 25,-22 4,2zm-133 -212c-45,-7 -113,-17 -139,13l72 14c-45,52 -107,62 -117,139 25,31 53,34 66,42 -32,51 2,6 -42,33 -2,1 -7,3 -9,4 -2,1 -6,4 -7,5 -63,42 29,-47 -10,13 38,25 44,7 76,31 -80,27 -73,-1 -126,66 12,92 63,124 157,99 127,-33 120,-95 131,-139l90 10c31,-42 83,-100 54,-174 -77,-15 -77,3 -138,6 -22,-31 -11,-38 -40,-66 -27,-26 -22,-4 -57,-42l38 -54z"/> <path class="fil0" d="M8427 7384c-22,24 0,2 1,1 26,-30 4,-6 -1,-1zm-65 3c8,-21 21,-29 23,-39 -4,37 5,28 -23,39zm78 -33c13,-62 17,-39 -26,-76 -34,-29 -30,-41 -92,-38l-39 108c-58,-2 -52,-14 -102,11 -10,62 -6,71 17,115 44,-19 23,-14 44,-55 73,50 55,3 137,-11l12 40c-74,64 -113,-10 -69,111 -33,34 -39,49 -104,60 -52,9 -78,1 -116,44l55 21c-42,55 -52,15 -51,83 60,19 1,0 100,-3 22,-1 21,-2 31,-6 15,-59 1,-36 -20,-90 124,-33 190,46 268,33 -14,-107 -31,-48 -84,-100 29,-30 63,-62 88,-99l82 36c-24,-171 -8,-23 11,-151 -70,-15 -60,-37 -140,-35z"/> <path class="fil0" d="M5932 7564c5,-40 15,-43 22,-91 -26,-20 -62,-49 -113,-40 -52,9 -40,40 -69,86 -102,38 -105,-3 -149,111 -174,-1 -174,54 -198,60 -20,-1 -54,-6 -70,-5 -2,0 -27,-3 -43,15 -24,55 22,46 53,86l64 96 -142 -1c-1,55 7,58 58,90l48 -44c44,19 16,9 56,8 80,-1 -26,-11 26,-1 212,39 96,-8 186,-97 17,-16 79,-52 100,-67 59,-41 137,-107 143,-187l-173 170c-198,160 -226,91 -283,29l60 -107c110,-5 13,28 112,47 30,-28 23,-46 60,-60 44,-16 54,9 85,-27 13,-15 7,-23 22,-47 24,-37 16,-16 68,-44 1,0 23,-15 29,-19l50 38z"/> <path class="fil0" d="M-1478 8825c62,3 117,-8 169,15 57,25 64,31 132,47 64,16 237,79 269,78 -16,-48 -52,-58 -110,-71 -193,-43 -239,-106 -432,-108l-484 -54c-72,-8 -126,9 -183,3 -61,-6 -68,-35 -152,-37 -62,-1 -114,13 -181,10 -108,-4 -258,-15 -361,-13l-509 28c-55,-9 -96,-30 -142,4l139 43c47,8 276,-27 331,-32l695 -1c75,-3 96,22 154,31 56,8 122,-4 179,-3 60,0 105,13 166,12 152,0 198,40 319,46z"/> <path class="fil0" d="M6541 7010l-55 31 55 -31zm74 -392c3,3 16,22 17,25 10,17 6,4 14,28 -36,33 -53,27 -85,69 -34,43 -10,49 -61,91 -117,96 -13,-5 -104,117 -32,43 -8,-6 -33,57 62,64 67,94 27,181 44,41 57,91 93,76 52,-42 17,-21 20,-80 95,-34 94,-63 153,-97 5,-3 119,-36 79,-140 -130,-29 -39,98 -152,95 28,-43 66,-107 21,-159 -71,-4 -110,59 -165,104 16,-76 133,-165 133,-165 33,-40 17,-51 65,-88 45,-34 49,-22 68,-89 -29,-13 -44,-24 -90,-25z"/> <path class="fil0" d="M-123 9945c42,-24 78,-43 115,-15l-115 15zm-125 67c130,5 414,-133 465,-132 202,6 176,-34 356,-74 20,-5 106,-11 113,-31 2,-5 6,-6 9,-8 -156,4 -342,88 -381,91 -122,9 -6,-50 -240,20 -39,12 -1200,170 -1329,170 -49,0 -86,-8 -107,28 60,45 467,-14 565,-29l542 -82c5,24 -6,2 7,47z"/> <path class="fil0" d="M7313 8393c46,-33 75,-91 152,-112 36,-10 69,-6 104,-20 39,-16 58,-46 71,-56 27,-21 -14,-1 26,-16 22,-8 31,1 71,-24 74,-45 162,-136 171,-197 -46,10 -43,22 -68,50 -277,299 -347,134 -527,318 -139,-30 -169,-4 -131,123l298 59c30,-35 36,-75 71,-96 54,-33 46,12 110,15 32,-27 59,-84 44,-128 -54,-20 -171,29 -238,123 -70,5 -74,-18 -124,-18 -62,1 -74,44 -114,-20 3,-2 7,-5 9,-6 42,-13 20,-2 76,4z"/> <path class="fil0" d="M1047 7787c217,9 408,-53 626,-27l-12 52c-103,42 -427,3 -511,41 70,58 395,-14 511,3 46,65 0,92 -11,169l-309 10c-19,0 -35,-2 -54,1 -24,4 -22,9 -27,12 91,40 248,-22 317,14 -39,108 -207,22 -324,90 110,-9 204,-41 264,-7 -50,64 -46,0 -78,73 58,15 68,10 99,-31 104,-140 30,-58 131,-146 63,-55 -27,-26 84,-51 -16,-105 4,-111 6,-191 -57,4 -32,-6 -54,23l15 -112 -517 52c-26,0 -65,-2 -90,0 -55,5 -50,13 -65,27z"/> <path class="fil0" d="M8939 7462c-66,-42 -11,-66 -102,-72 -4,144 118,96 190,165 88,84 173,50 248,92 -41,12 -84,33 -130,37 -77,6 -59,-11 -126,30 11,57 37,70 73,94 74,50 -13,76 299,202 -8,53 -21,24 4,65 53,-7 85,-47 41,-96 -16,-19 -88,-36 -116,-52 -244,-133 -148,-214 -88,-225 65,-11 30,13 93,28 91,-206 -130,-112 -268,-208 -41,-28 -82,-38 -119,-61z"/> <path class="fil0" d="M6690 4563c-16,70 -11,44 -59,79 11,83 25,73 53,123 -121,12 -22,-27 -122,-25l-19 82 116 17c12,-18 15,-24 25,-34l31 -31c54,5 96,9 142,28 35,15 28,-5 75,88l-15 21c-44,105 85,174 180,138l9 -62c-90,-13 -140,35 -139,-68 131,48 83,30 105,13 -45,-29 -46,0 -93,-40 -55,-46 -84,-100 -118,-160 -35,-62 -32,-33 -69,-78 29,-45 29,-46 29,-117 -67,5 -72,11 -130,24z"/> <path class="fil0" d="M9004 7431c25,24 -35,18 58,26 70,6 719,-103 836,-130l46 -16c-49,-64 -114,-35 -234,-19 -84,11 -169,14 -253,24l-509 50c33,30 -43,11 44,24l289 -40c-48,61 -211,49 -278,81z"/> <path class="fil0" d="M2537 6699c34,22 21,13 96,11 155,-3 132,12 264,28 162,20 607,11 767,-7 216,-24 1097,-51 1148,-61 166,-33 584,-14 710,-82 -498,23 -992,94 -1500,97 -257,2 -988,73 -1147,35 -77,-18 -269,-44 -338,-22z"/> <path class="fil0" d="M7079 5434l-48 29c-79,30 -69,-22 -82,-53 -20,-51 -3,-25 -39,-45 -24,39 -20,18 -5,65 -62,20 -64,16 -69,88 55,44 70,22 94,85 15,41 19,88 33,130 10,28 93,155 177,181 -18,-42 -23,-35 -70,-98 -35,-47 -48,-34 -70,-90 12,-8 -13,-23 89,-27l239 -1c11,1 49,8 56,8 78,-1 44,-10 60,-22 -50,-52 -277,-25 -354,-16 -85,10 -98,37 -121,-46 -45,-166 131,-138 132,-138 44,-7 49,-30 54,-37 -39,-71 -142,-86 -194,-191 -9,-17 -14,-30 -22,-44l-34 -48c2,146 99,195 174,269z"/> <path class="fil0" d="M8646 6210c-33,-35 -116,-79 -160,-74 3,68 52,43 115,133 130,-19 29,-34 295,-30 386,6 1107,-79 1511,-116 88,-8 556,-34 592,-50 -41,-14 -203,8 -260,13 -96,9 -205,6 -301,13 -324,24 -858,87 -1167,95 -182,4 -458,29 -625,15z"/> <path class="fil0" d="M282 9933c55,42 116,-17 244,-48 87,-21 169,-28 245,-60 49,-21 72,-18 125,-27 50,-9 75,-25 118,-37 85,-25 58,18 119,19 31,0 70,-28 104,-43 46,-20 184,-48 251,-68 82,-25 145,-51 230,-76l352 -106c71,-17 75,1 105,-52 -96,-1 -165,44 -248,62l-706 210c-149,77 -97,-15 -226,24 -79,24 -171,41 -238,68 -135,55 -352,74 -476,136z"/> <path class="fil0" d="M3571 6421l1190 -80c203,-18 1068,-46 1174,-114 -133,-13 -435,38 -587,50 -193,15 -408,16 -595,40 -187,24 -414,29 -606,38 -120,6 -504,4 -576,65z"/> <path class="fil0" d="M8284 6252c-15,55 0,30 -45,41l45 -41zm-1029 72c24,27 6,24 57,29l251 -15c108,-12 225,-14 334,-23 288,-23 169,28 319,21 148,-7 133,-3 198,-64 56,-53 34,10 39,-59 -55,-34 -74,-10 -132,4l29 -114c-123,19 -49,150 -189,158l-764 63c-58,2 -109,-14 -142,1z"/> <path class="fil0" d="M6664 5976c7,-11 1,-15 29,-23 51,-14 30,6 34,9 -30,27 -34,31 -63,14zm-102 -117c-12,15 -8,-1 -23,40 -27,76 -50,116 -46,161 89,46 208,-2 209,-2 16,1 66,58 161,10 45,-23 14,9 31,-38 -42,-37 -81,-12 -100,-72 -15,-46 13,-62 -50,-100 -83,24 -20,19 -83,55 -48,-28 -45,-60 -98,-52z"/> <path class="fil0" d="M8600 6129c73,33 555,13 620,4 207,-27 388,-40 602,-52 197,-11 391,-36 588,-49 112,-7 550,-15 597,-55 -137,-15 -449,24 -607,33l-1176 98c-115,13 -201,3 -314,5 -50,1 -102,1 -153,0 -65,-1 -110,-15 -157,15z"/> <path class="fil0" d="M-4415 8748c18,-2 50,-8 67,-10 11,-2 30,-2 38,-5 49,-16 2,7 36,-23l-675 -31 9 82c266,-17 150,-11 393,11 39,4 59,19 99,22 77,7 388,12 454,-38 -14,-10 2,-8 -27,-12l-71 9c-86,13 -238,5 -324,-4z"/> <path class="fil0" d="M3435 6546c9,5 9,9 32,12l583 -43c210,-10 423,-15 625,-23 192,-8 1056,-98 1157,-140 -21,-12 -1022,109 -1166,120 -108,8 -200,17 -310,22 -191,9 -804,-3 -920,52z"/> <path class="fil0" d="M8557 6344c159,24 1828,-85 1960,-128 -104,-11 -368,15 -478,31 -222,31 -745,40 -990,48 -144,5 -229,23 -375,18 -140,-5 -104,17 -117,31z"/> <path class="fil0" d="M8396 5954l-45 19 28 60c-85,64 -784,49 -957,36 -18,-1 -64,-5 -79,-10 -22,-7 -60,-51 -182,-81 27,78 71,50 130,76 37,17 36,29 39,32 44,48 133,97 185,72 -49,-40 -71,-8 -116,-56 49,-32 162,5 233,9 126,8 652,-22 798,-29 23,-84 41,-101 14,-180 -23,-66 13,-26 -36,-47 -28,38 -19,41 -13,99z"/> <path class="fil0" d="M5265 6806c191,-29 322,-188 457,-255l285 -241c35,-30 53,-59 53,-106 -29,27 -41,43 -69,78 -38,48 -46,41 -81,71 -27,23 -14,19 -40,42 -24,21 -19,11 -42,28 -42,31 -33,49 -64,75 -34,29 -63,37 -99,56 -39,20 -50,35 -89,63 -123,90 -115,34 -157,134 -93,4 -173,46 -287,63l-625 67c-91,4 -244,-18 -308,32 208,3 404,-32 599,-41 108,-5 193,-14 298,-28 175,-24 98,19 216,53 -34,-63 -33,-2 -48,-89z"/> <path class="fil0" d="M6103 5822c2,-4 13,-26 14,-29 4,-15 2,-20 1,-25 -17,5 -47,12 -63,19 -34,15 -25,8 -41,36 67,84 -36,-24 50,40 2,2 5,5 8,6l58 37c-17,81 -22,85 -96,110 -20,7 -67,24 -83,25 -52,2 -29,-29 -80,5 33,122 263,18 352,-90 53,-64 4,-47 35,-105 11,-20 52,-49 30,-89 -41,-74 -82,56 -185,60z"/> <path class="fil0" d="M853 7003c-30,-34 -48,-37 -53,-96l63 -48c-42,-3 -63,-7 -90,-22 -4,-57 9,-86 -14,-126 -11,13 -10,1 -18,29 -12,44 11,154 30,196 41,94 -16,96 62,199 144,3 1182,-56 1253,-99 -49,-14 -503,48 -605,51 -230,8 -423,7 -632,48 2,-92 27,-106 119,-114l210 -19c-23,-16 30,-8 -44,-19l-120 9c-56,6 -104,10 -161,9z"/> <path class="fil0" d="M672 6737c27,-68 23,-88 15,-160 -18,-150 -12,-105 -53,-125 -24,44 -19,-52 -16,54 1,41 36,37 37,123 1,42 -83,289 -92,303 -36,52 -25,-5 -75,78 0,1 -2,43 -13,19 -1,-2 -5,7 -8,10 -100,2 -223,-31 -275,36 37,14 242,-9 317,-11 0,0 62,-87 176,-18l-51 59c-14,23 -1,-5 -5,26 51,-10 75,-41 82,-86 7,-45 -21,-86 -49,-115 -58,27 -5,-1 -38,35 -28,31 22,18 -42,21l90 -250z"/> <path class="fil0" d="M6849 7706c-32,-3 -75,3 -98,17 -92,57 66,76 -110,125 -134,37 -16,124 33,125 6,0 166,-52 214,-114 27,-35 55,-55 40,-110l-52 -7c-22,45 -13,5 -12,65l-33 -37 19 -63z"/> <path class="fil0" d="M13180 6580c84,-8 359,-15 426,-66 -150,2 -318,23 -469,38 -99,10 -603,61 -681,54 -89,-8 -609,50 -657,77l1381 -104z"/> <path class="fil0" d="M-2755 8279c158,-12 2203,-85 2266,-106 -12,-8 9,-12 -43,-16l-1376 69c-107,9 -224,2 -331,11 -149,13 -855,45 -896,66l381 -24z"/> <path class="fil0" d="M6435 4991l-30 25 30 -25zm-67 -238l68 68c-36,267 -190,247 -207,364 55,-9 5,11 84,-56 64,-54 183,-125 260,-155 9,-120 -111,-107 -139,-227 54,-23 87,-44 102,-107l-169 113z"/> <path class="fil0" d="M710 8144c32,-17 29,2 63,-28 -104,-91 -96,-24 -166,-10l-195 12c-30,60 -84,111 -83,161 45,6 64,14 117,-118 9,67 -6,46 35,73 42,-27 15,13 32,-48 1,-3 5,-37 11,-47l27 57c26,-9 13,-5 27,-13 6,-3 15,0 19,-12 2,-5 6,-4 10,-6 55,103 -6,99 78,136l-10 -103c21,28 16,33 61,41 28,-28 16,-15 35,-54 -42,-37 -25,-4 -59,-42z"/> <path class="fil0" d="M10751 6158l2588 -202c33,-3 23,-3 35,-8 -37,-40 -166,7 -313,8 -118,1 -219,29 -319,36 -306,23 -1920,123 -1991,166z"/> <path class="fil0" d="M6649 6240c11,31 4,20 29,39l-136 -35c18,47 -10,32 56,59 44,18 35,6 72,36l-30 70c52,38 10,32 79,35 21,-27 6,-28 24,-54 21,-30 20,-1 42,-42 14,-26 2,-28 22,-59 9,-14 33,-35 44,-49l-19 -83c-21,-11 -58,-29 -85,-38 -33,40 -68,82 -97,120z"/> <path class="fil0" d="M10383 7931c35,-33 25,30 42,-50 -47,-57 -104,-48 -154,0 6,78 14,32 -6,120l71 6c-74,47 -39,-21 -86,56 16,10 -22,19 60,15 1,0 38,-8 52,-10 -3,73 7,54 20,69 126,-23 32,-44 175,-11l-7 -70 -139 -37c15,-39 11,-16 23,-55 -8,-5 -19,-8 -25,-12 -25,-15 -8,-4 -26,-20z"/> <path class="fil0" d="M3912 7725c34,-33 82,-77 54,-136 -68,30 -12,60 -99,126l-82 -31c17,55 25,32 50,79 -54,7 -28,-5 -63,-4l-22 6c-2,-4 -8,3 -11,5 5,3 61,33 78,34 35,2 14,-15 79,-17l-20 74 -158 -47c5,-102 -3,-72 -25,-95l2 156c46,-11 74,-26 118,3l56 57c2,2 7,6 9,8l46 -19 28 54c43,-23 19,9 42,-58 11,-31 13,-29 10,-62 -101,-9 -107,64 -118,48 -2,-3 -8,5 -13,7 24,-62 36,-72 111,-86 -6,-21 -12,-46 -27,-64l-46 -38z"/> <path class="fil0" d="M1866 7297c12,9 0,21 73,16l197 -29c93,-16 193,-11 289,-14 194,-7 371,-26 555,-47 99,-11 192,1 292,-7 98,-7 179,-32 278,-34l431 -24c17,-1 52,-3 68,-6l42 -22c-59,-31 -682,54 -818,65 -104,9 -185,-7 -272,12 -86,19 -185,25 -283,27 -103,2 -179,21 -277,20 -105,-1 -498,17 -573,43z"/> <path class="fil0" d="M4496 6018c61,29 282,-17 362,-26l761 -68c62,-3 314,-26 373,-56l-1329 110c-67,9 -144,-9 -166,40z"/> <path class="fil0" d="M7440 7534c51,-13 39,13 40,13 -27,25 -29,33 -66,14 2,-22 3,-21 26,-27zm134 27c10,-63 15,10 30,-73l-121 -16c-49,-46 -15,-62 -92,-57l-73 91c14,129 127,89 199,129 47,27 26,25 92,28 -4,-62 -12,-60 -35,-101z"/> <path class="fil0" d="M5960 6651c59,4 57,8 84,-35 -1,0 15,-41 -59,-12 -19,7 -17,17 -27,33 -73,-38 -89,-48 -184,-30 -32,53 -10,46 -58,93 -31,30 -47,52 -57,101 88,-1 126,-17 161,-76 148,17 149,100 140,-73z"/> <path class="fil0" d="M1074 7949c-37,-48 -3,-46 -65,-56 -25,33 16,100 38,116 60,44 67,-16 105,73l-120 17c-28,107 111,30 111,30 22,-6 75,-8 102,-11 -16,-100 -74,-47 -113,-139 84,-6 457,-9 498,-30 -37,-29 -466,-2 -556,-1z"/> <path class="fil0" d="M-4867 8464c67,28 1326,-23 1370,-56l-1215 30c-189,12 -123,-23 -155,25z"/> <path class="fil0" d="M8491 6046c57,35 218,-15 376,-12 371,7 467,-38 820,-51 77,-3 334,-21 386,-37l-1387 69c-36,4 -69,7 -106,9l-89 22z"/> <path class="fil0" d="M8011 7318c-16,-63 -18,-47 -1,-109 -76,16 -31,15 -87,53 -104,0 -129,-42 -181,-46 -59,-4 -14,23 -72,-13 -40,-25 -14,-31 -72,-10 -11,26 -14,-34 -9,34 2,23 -2,32 50,63 37,22 80,17 130,24 207,28 32,44 243,3z"/> <path class="fil0" d="M914 7393c95,-55 341,-19 407,-55 -19,-12 -397,6 -434,30 -16,15 -32,34 -5,94 36,82 129,143 157,226 -5,-1 -34,-4 -38,-4 -46,5 -11,-1 -37,15 15,17 6,15 33,28 4,2 30,8 32,8 133,20 13,-63 7,-147l464 -28c-45,-23 -326,20 -451,9 -70,-6 -78,-23 -90,-79l23 -11c18,-5 6,-3 26,-6 10,-2 32,-1 43,-2 29,-1 40,0 65,-6 -69,-23 -135,7 -194,-15l-8 -58z"/> <path class="fil0" d="M7313 5990c37,19 969,-28 1010,-56 -25,-37 -176,-15 -234,-13 -148,7 -693,36 -777,68z"/> <path class="fil0" d="M1795 7664c37,-1 30,-13 87,-19l363 -9c137,-2 306,-24 444,-26 168,-2 315,11 486,2 72,-3 391,-39 422,-24 -4,-8 54,-40 -97,-21 -350,43 -453,23 -797,30 -157,3 -296,14 -458,15 -86,1 -384,0 -450,14l0 37z"/> <path class="fil0" d="M4162 5170c27,43 150,10 207,8 84,-3 175,-12 259,-17 100,-6 419,-16 482,-47 -20,-16 32,-29 -116,-17 -43,4 -83,4 -126,5 -68,2 -172,13 -236,26 -42,8 -365,1 -471,42z"/> <path class="fil0" d="M10118 8145c69,1 78,14 126,-29 -14,-44 -33,-55 -64,-90 -82,-92 -160,-82 -143,75 -39,15 -36,18 -86,28 -53,11 -42,-11 -50,43 74,46 90,-66 180,12l38 -39z"/> <path class="fil0" d="M10296 6866c18,10 -23,12 39,12l559 -86c124,-16 530,-44 599,-91 -119,-9 -1128,129 -1197,166z"/> <path class="fil0" d="M6048 6702c28,14 59,13 89,-12 32,-28 20,-52 25,-101 12,-123 79,-35 81,-168 -47,-35 -54,-44 -116,-33l-75 247c-38,96 -13,48 -5,66z"/> <path class="fil0" d="M13042 5610c23,21 -46,38 124,13 330,-47 358,-38 687,-50 50,-2 92,-12 138,-12 68,-1 92,30 111,-15 -56,-40 -918,26 -1060,65z"/> <path class="fil0" d="M4758 6762c224,-4 301,-21 500,-36 54,-4 86,-22 132,-21 -182,-19 -962,86 -1284,81 -91,-1 -373,-5 -430,24l801 -21c199,-26 109,-32 240,27l16 -20c2,-3 5,-7 7,-9 5,-7 7,-12 19,-24z"/> <path class="fil0" d="M-373 9798c4,2 8,4 11,4 150,36 522,-76 689,-117 56,-14 106,-24 160,-48 114,-53 100,2 182,-26 48,-16 72,-50 139,-73l119 -34c24,-8 15,-6 26,-12 -164,5 -239,96 -318,97 -172,2 -130,25 -329,72 -113,27 -221,58 -324,80 -49,10 -121,30 -169,34 -75,7 -135,-11 -185,21z"/> <path class="fil0" d="M3932 5490c38,24 26,15 104,8l625 -35c85,-2 65,5 103,-15 -16,-13 23,-30 -103,-24 -41,2 -70,2 -111,2 -196,-1 -361,40 -528,33 -93,-4 -77,12 -89,31z"/> <path class="fil0" d="M3527 8015l48 -23 17 -97c-62,-36 -28,-24 -56,-90l-219 31c113,-2 148,-26 197,17 -15,54 26,20 -33,42 -44,16 -332,-7 -404,35l425 -13c20,53 13,70 -10,103 23,101 20,-16 20,69l-10 48c59,4 79,16 126,1 3,-18 24,26 2,-29 -11,-28 -10,-7 -47,-9 -36,-2 -17,-1 -35,-11 15,-18 32,-29 50,-42 -51,-37 -33,-3 -68,-32z"/> <path class="fil0" d="M8627 6629c17,12 -28,17 87,15l986 -80c190,-15 172,-22 310,-52l-1384 117z"/> <path class="fil0" d="M-414 7247c85,5 168,-15 256,-20 95,-6 162,6 250,5 149,-2 323,-27 458,-46 -37,-31 -68,-24 -122,-16 -357,51 -531,4 -741,42 -114,21 -73,10 -101,35z"/> <path class="fil0" d="M3490 8513c-56,-17 -544,-23 -621,-22 -133,2 -560,-41 -642,-1 118,-1 220,6 337,14 112,7 213,-3 326,11 240,30 66,35 277,9 113,-14 217,1 323,-11z"/> <path class="fil0" d="M8034 8339c16,-63 2,-79 -20,-128l-53 4c-16,31 -9,34 -23,69 -58,35 -70,9 -108,61 -32,43 22,7 -40,41 -58,31 -21,-18 -45,37 25,31 113,77 138,-45 84,6 88,-7 151,-38z"/> <path class="fil0" d="M6271 6792c58,-90 102,-65 73,-195 -98,8 -49,15 -109,65 -60,50 -44,4 -69,92 -63,13 -115,-1 -95,75 99,5 -24,-32 200,-37z"/> <path class="fil0" d="M6121 5324c-111,-9 -257,17 -378,19l-355 32c-3,2 -7,5 -11,8 116,-6 721,9 781,-45 53,-47 53,-79 -27,-88 -12,19 -18,6 -11,74z"/> <path class="fil0" d="M9843 7866c-6,-27 -4,-18 -13,-34 -87,-23 -92,10 -107,34 49,101 18,15 87,69 -30,36 -14,16 -53,40l8 80 138 -3 -9 -75c43,-33 24,-9 66,-29 -63,-49 14,27 -114,-50l-5 -32z"/> <path class="fil0" d="M1238 6894c44,30 86,24 146,19l397 -54c92,-17 508,-38 532,-48 -87,-57 -688,49 -796,62l-280 22z"/> <path class="fil0" d="M1901 7922c46,24 591,-38 691,-41 164,-5 388,-7 550,-27 39,-5 112,-2 156,-12 -177,-1 -1329,34 -1397,80z"/> <path class="fil0" d="M9045 6979c15,9 -30,30 115,14 202,-22 402,-12 624,-43l172 -19c99,-24 25,-3 60,-32l-972 80z"/> <path class="fil0" d="M8570 7677c65,1 46,6 77,-33 -7,85 -16,72 51,101 56,24 53,35 117,37 6,-109 -62,-140 -114,-185 -76,7 -147,-46 -131,80z"/> <path class="fil0" d="M9715 7603c112,12 113,-49 151,-63 14,-5 64,4 111,-88l103 0c-8,-76 -48,-81 -129,-70l-48 76c-47,85 -205,5 -188,145z"/> <path class="fil0" d="M6701 5007c50,-2 37,0 70,-28 17,15 46,29 74,48 61,43 -7,45 82,61 -14,-113 -61,-157 -77,-194 -155,-21 -32,-31 -140,-33 -18,62 -17,74 -10,145z"/> <path class="fil0" d="M-2023 7412c125,20 898,-40 980,-104 -61,5 -66,16 -121,27l-646 47c-238,3 -190,-40 -213,30z"/> <path class="fil0" d="M4385 7772c2,59 9,43 47,87 43,48 10,29 78,61 71,33 108,48 196,22 78,-23 123,-67 181,-97 63,-33 36,-14 65,-76 19,-41 21,-34 23,-91 -131,-7 33,124 -267,236 -193,71 -243,-129 -323,-142z"/> <path class="fil0" d="M6737 5198l-40 41 44 56 -15 63c82,10 5,10 143,-45 -7,-69 -13,-71 -42,-116 -44,-69 -9,-79 -90,-85l0 87z"/> <path class="fil0" d="M1881 7795c21,18 -22,13 43,22l156 -12c436,-29 626,-47 1081,-45l416 -20c-46,-35 -34,-15 -96,-9l-750 32c-148,-3 -731,7 -849,31z"/> <path class="fil0" d="M6183 7162c111,33 179,16 191,-116 -75,-52 -99,-50 -161,12 -34,34 -34,45 -31,104z"/> <path class="fil0" d="M3207 7102c63,30 823,-25 897,-56 -22,-18 28,-2 -27,-17l-869 73z"/> <path class="fil0" d="M1218 6991c12,12 -41,27 110,17 43,-3 77,-6 120,-13l450 -45c124,-12 167,9 216,-36 -139,1 -321,21 -466,32l-430 45z"/> <path class="fil0" d="M1892 7565c121,22 298,-19 422,-23l888 -24c87,-7 341,9 406,-40 -121,-1 -347,8 -469,23 -149,18 -288,19 -450,20 -249,1 -656,45 -797,44z"/> <path class="fil0" d="M4957 5249c65,19 495,-15 621,-25 63,-5 43,4 68,-29 -53,-21 -644,24 -689,53z"/> <path class="fil0" d="M6426 4461c5,87 90,86 162,67 61,-17 37,-19 48,-39 -3,-2 -9,-8 -11,-5l-56 -18c-2,-1 -7,-3 -10,-4 19,-35 25,-32 42,-59 49,-77 9,-88 9,-89 -65,-7 -37,26 -71,82 -31,51 -63,48 -114,66z"/> <path class="fil0" d="M8559 6991c8,-56 19,-39 -10,-85l-47 -2c0,0 -11,205 -11,211 42,19 95,16 144,15 4,-82 -8,-117 -77,-139z"/> <path class="fil0" d="M15564 6449c16,17 -34,17 51,20l488 -17c41,-5 20,0 35,-8 28,-16 6,-3 23,-26 -63,-15 -534,4 -597,31z"/> <path class="fil0" d="M7310 6516c65,49 367,2 464,-6 140,-12 347,24 456,-47 -46,-20 -144,10 -205,18l-715 35z"/> <path class="fil0" d="M431 8528c8,-33 24,-45 42,-85 -44,12 -131,72 -141,146 51,-13 115,20 159,46 2,-4 5,-8 7,-11l19 -29c48,-75 42,-63 23,-117 -80,-1 -36,17 -107,50z"/> <path class="fil0" d="M4874 8019c37,-46 40,-33 59,-78 -68,5 -150,101 -128,181l40 6c62,6 35,8 49,19 -74,-15 -59,-1 -76,11 4,2 8,5 11,7 3,1 7,5 11,6l127 30c17,-45 15,-17 13,-71 -47,-31 -46,-16 -95,-28 -40,-10 -21,-7 -32,-13l51 -26c31,-16 11,-1 29,-20 -97,-25 11,23 -57,-24z"/> <path class="fil0" d="M5351 5495c79,13 595,-19 710,-37 84,-13 155,4 248,-14 -59,-29 -393,3 -483,11l-417 22c-6,0 -22,2 -27,3 -25,6 -19,7 -32,15z"/> <path class="fil0" d="M6907 6188c49,17 35,-1 82,-13l-11 101c39,2 116,-13 141,-23 -15,-24 10,-16 -60,-39 7,-72 -1,-98 -66,-132 -48,19 -25,11 -60,43 -67,62 -29,56 -26,63z"/> <path class="fil0" d="M4303 8085c28,2 63,15 67,15 21,-3 64,-35 -5,-78 -11,-7 -21,-9 -33,-15 -5,-62 2,-87 -32,-122 -28,8 -13,0 -32,18l-24 32c-38,-22 -8,-25 -62,-43l-9 98c162,9 126,11 130,96z"/> <path class="fil0" d="M4086 8193c21,-10 14,-6 31,-30 -8,33 34,19 -31,30zm-11 -52c8,-38 15,-10 32,-65 -118,2 -147,184 -2,190 33,-30 69,-80 70,-135 -51,-27 -59,-17 -100,9z"/> <path class="fil0" d="M7905 7929c32,-29 58,-64 62,-116 -141,9 -90,22 -156,51 -82,36 -120,36 -142,72 45,72 54,10 108,-7 45,-14 83,1 128,0z"/> <path class="fil0" d="M6214 5504c12,57 5,53 66,52 71,-1 21,1 88,32 38,-37 105,-52 69,-141 -49,-17 -48,6 -100,27 -54,22 -81,7 -123,31z"/> <path class="fil0" d="M5008 7649c22,-55 30,-14 58,-66 -85,-15 -83,2 -151,25 -3,1 -383,10 -491,64 5,3 4,7 26,9 4,0 28,-3 33,-3 249,-38 255,-47 524,-29z"/> <path class="fil0" d="M7435 6268l20 13c21,7 13,4 37,7 21,3 49,4 71,6 66,-83 -15,-59 222,-72l207 -2c40,-3 39,-8 59,-22 -78,-32 -225,0 -317,8 -37,3 -145,-1 -170,5l-128 57z"/> <path class="fil0" d="M9375 7867c12,54 -14,39 59,49 95,13 48,-51 147,-86 78,-27 151,-31 191,-157 -72,24 -63,73 -132,103 -91,41 -100,-12 -155,75 -83,7 -57,-17 -109,15z"/> <path class="fil0" d="M7580 7894c52,-51 68,-14 111,-50 16,-13 12,-22 40,-46 52,-44 129,-54 206,-210 -57,14 -66,50 -99,95 -33,46 -62,44 -107,87 -85,81 -183,41 -216,173 44,30 24,34 91,45 -18,-90 -42,6 -26,-95z"/> <path class="fil0" d="M6908 6611c-1,2 -45,-5 5,72 11,17 26,34 34,43 59,-5 133,-53 142,-74 39,-89 -148,-54 -181,-41z"/> <path class="fil0" d="M6160 7721c46,-8 58,-23 77,-69 17,-41 33,-82 14,-124 -50,-5 -37,0 -68,27 -3,3 -140,71 -23,166z"/> <path class="fil0" d="M6688 3989c73,-58 89,-204 87,-322l-65 -3c-15,69 10,96 -2,165l-33 121c-2,76 -7,10 13,39z"/> <path class="fil0" d="M7044 4670c-29,46 -29,14 -53,70 83,1 84,4 102,-70 -26,-60 -87,-81 -129,-122 -34,-33 -31,-33 -55,-70 -52,-79 -12,-54 -53,-88 0,0 -44,5 9,90 51,82 170,178 180,190z"/> <path class="fil0" d="M1480 8367c-10,-30 -135,-155 -240,-131 12,23 -17,48 95,82l16 70c37,6 97,3 128,-21z"/> <path class="fil0" d="M7146 5865c58,45 144,29 246,22 71,-5 198,-2 238,-49 -48,-35 -98,3 -220,15 -68,7 -220,-14 -264,13z"/> <path class="fil0" d="M3611 6956c104,-7 383,-1 462,-35 -42,-33 -162,-1 -226,4 -117,10 -624,22 -701,51l466 -21z"/> <path class="fil0" d="M7889 7477c24,-80 73,-43 134,-95 31,-27 67,-106 71,-159 -106,27 -41,92 -115,143 -78,54 -103,8 -138,111 29,54 32,88 101,56 -3,-3 -7,-5 -9,-7 -2,-2 -6,-5 -9,-7l-36 -42z"/> <path class="fil0" d="M14571 5529c15,14 2,25 73,26l552 -15c52,-15 19,-8 36,-23 -49,-24 -240,5 -309,8 -115,5 -238,-9 -351,3z"/> <path class="fil0" d="M8049 6992c49,-36 38,-13 49,-70 -54,-29 -194,5 -214,14 32,18 91,4 144,3 -23,30 7,8 -27,30 -15,10 -13,6 -34,11 -155,41 -120,-22 -197,-33l22 64c130,41 133,0 257,-19z"/> <path class="fil0" d="M3443 6876c-222,-22 -839,57 -1172,68 -3,0 -42,2 -42,2 -32,6 -20,7 -35,17l1249 -87z"/> <path class="fil0" d="M1831 7408c32,20 787,-7 840,-28 -33,-15 -817,14 -840,28z"/> <path class="fil0" d="M-1823 10087c21,50 20,39 96,32 61,-5 299,-11 328,-29 -24,-36 -25,-35 -85,-22 -74,16 -286,-14 -339,19z"/> <path class="fil0" d="M24 8256c34,27 157,23 230,-60 45,-51 109,-125 130,-191 -71,13 -108,118 -147,160 -52,58 -108,48 -168,67l-38 17c-1,-3 -5,4 -8,6z"/> <path class="fil0" d="M10176 7352c-24,38 -28,25 -41,66 91,39 83,6 86,5 12,-63 -121,-350 -164,-121 70,13 66,11 119,49z"/> <path class="fil0" d="M2958 4819c40,23 203,6 287,4 96,-2 72,-4 86,-28 -50,-20 -135,-8 -197,-13 -189,-14 -155,5 -175,37z"/> <path class="fil0" d="M8410 6348l-99 12c15,54 88,103 138,57 59,-55 56,-51 47,-119 -56,-4 -97,-10 -86,50z"/> <path class="fil0" d="M3931 4475c23,34 2,21 48,26l398 -16c56,-19 22,-10 34,-39 -40,-5 -176,16 -237,20 -78,5 -180,-22 -243,9z"/> <path class="fil0" d="M-1943 8687c26,15 557,18 615,11 -50,-35 -577,-43 -615,-11z"/> <path class="fil0" d="M-3904 8676c18,23 11,35 57,46l203 27c105,5 80,-4 108,-34 -171,-14 -99,-31 -149,-35 -114,18 -133,-6 -219,-6z"/> <path class="fil0" d="M14151 5957c103,-3 795,-59 820,-78 -36,-12 -134,8 -178,15 -54,8 -430,16 -580,38 -97,14 -28,-3 -62,26z"/> <path class="fil0" d="M4369 7367c13,10 -9,10 41,18l137 -10c196,-30 443,5 513,-37 -32,-21 -606,16 -691,29z"/> <path class="fil0" d="M6264 5291c30,-4 62,-6 90,-12 109,-22 8,-32 92,-115 22,-22 3,4 23,-26 -84,1 -67,25 -129,48 -63,24 -66,10 -76,105z"/> <path class="fil0" d="M3490 5031c22,16 -27,11 45,20 16,2 54,-3 71,-5 41,-4 69,-7 110,-9 62,-2 187,-2 231,-34 -35,-27 -412,5 -457,28z"/> <path class="fil0" d="M8798 7351c41,-106 -91,-147 -129,-127 -82,42 45,131 129,127z"/> <path class="fil0" d="M9923 7615c64,-4 50,-24 102,-34 63,-12 59,22 124,-20 -5,-60 5,-50 -51,-50 -12,0 -166,-29 -175,104z"/> <path class="fil0" d="M4413 7477c12,9 -34,27 80,10 164,-25 455,-26 530,-66 -3,-2 -7,-4 -9,-5 -2,-1 -7,-3 -10,-4l-285 26c-59,6 -264,25 -306,39z"/> <path class="fil0" d="M5510 6862c103,-59 123,-45 141,-140 -129,10 3,51 -132,72 -32,5 -65,-1 -94,5 -73,14 -36,13 -45,40 78,28 -10,-21 129,24z"/> <path class="fil0" d="M-206 8305c33,-36 57,-90 -22,-100 -90,-12 -88,29 -98,51 26,48 29,28 61,42 -16,27 -19,26 -27,49 47,2 60,-15 85,-42z"/> <path class="fil0" d="M8630 7866c-30,-12 -33,-10 -63,-32 -33,-26 17,-38 -70,-18 -11,58 -2,68 16,115l111 26 6 -91z"/> <path class="fil0" d="M6191 7390c77,17 100,-15 127,-65 -22,-48 -51,-61 -102,-70 -30,43 -39,83 -24,136z"/> <path class="fil0" d="M15518 5490c21,48 -18,26 162,7 69,-7 142,-1 207,-12 -33,-68 -7,-38 -173,-24 -66,6 -135,3 -196,29z"/> <path class="fil0" d="M4378 7571c25,16 -35,29 68,11 161,-29 454,-24 503,-63 -67,-31 -469,47 -571,52z"/> <path class="fil0" d="M14608 6282c37,36 160,-10 314,-12 103,-1 235,-30 335,-36 -42,-44 -46,-17 -155,-4l-495 52z"/> <path class="fil0" d="M5232 7181c43,10 -22,1 25,4 1,0 36,-3 40,-3l224 -22c169,-15 93,-2 168,7 53,7 108,-16 129,-14 -60,-5 -98,10 -156,-6 -93,-25 -381,-11 -450,24l20 10z"/> <path class="fil0" d="M11920 8297c42,37 86,29 171,3l0 -47c-80,-34 -166,-53 -171,44z"/> <path class="fil0" d="M10084 7720c-30,-27 2,-19 -49,-25 -3,0 -32,4 -38,5 -28,5 -56,15 -76,24 -17,78 10,164 92,150 -9,-96 -63,20 -10,-152l81 -3z"/> <path class="fil0" d="M11995 8156c76,7 110,-16 109,-95 -36,-38 -37,-43 -98,-41 -13,43 -25,81 -11,136z"/> <path class="fil0" d="M7270 6255c-3,-88 -59,-87 -108,-100 -31,-8 -30,-12 -60,-25 -8,101 66,136 168,126z"/> <path class="fil0" d="M-1212 7185c58,40 213,7 318,7 136,0 80,-6 104,-27 -81,-5 -376,-5 -422,21z"/> <path class="fil0" d="M8394 5726c-41,31 -42,14 -44,73 101,22 42,-28 96,-76l39 -25c-11,-25 -6,-14 -17,-31 -45,-70 -32,-50 -76,-56l1 115z"/> <path class="fil0" d="M993 7243c29,2 43,-1 71,-4 53,-6 73,-4 125,-3l696 -63c-172,-2 -300,22 -464,36 -111,9 -408,-8 -481,19l54 16z"/> <path class="fil0" d="M530 7894c-14,-30 -39,-66 -50,-81 -52,36 -23,25 -4,81l-75 14 6 82 86 -2c-10,-82 2,-23 36,-94z"/> <path class="fil0" d="M8567 6708c-42,-45 -8,-59 -74,-85 -15,20 -20,-25 -13,45 2,21 95,172 177,115 -15,-81 -35,-15 -91,-75z"/> <path class="fil0" d="M10243 6796c13,11 -27,27 66,13l184 -28c84,-11 150,-28 230,-48 -55,-6 -432,38 -480,63z"/> <path class="fil0" d="M11517 8158c7,64 3,64 162,59l-1 -77c-61,-8 -116,-8 -160,18z"/> <path class="fil0" d="M2136 7160c58,39 467,-10 555,-29 -6,-3 11,-15 -63,-7l-492 36z"/> <path class="fil0" d="M1866 7714c57,31 496,13 615,7 73,-3 59,-16 59,-16l-674 9z"/> <path class="fil0" d="M-696 7182c65,8 113,-2 177,-6 101,-7 121,3 152,-32 -38,-24 -125,-5 -178,-2 -69,4 -127,-7 -150,40z"/> <path class="fil0" d="M8897 8584c-32,-13 -189,-49 -177,31 7,45 58,26 95,21 78,-10 63,4 82,-52z"/> <path class="fil0" d="M6339 6113c-5,89 -12,73 15,120 63,-21 24,-5 55,-64 26,-50 31,-9 42,-82 -64,-9 -59,6 -112,26z"/> <path class="fil0" d="M13890 6876c30,-3 57,-8 89,-10 56,-3 129,-2 164,-15 -32,-40 -5,-32 -83,-28l-167 14c-70,8 -38,-3 -67,28l64 10z"/> <path class="fil0" d="M8813 8032c-9,-59 -76,-172 -126,-96 -30,45 -5,63 -5,63l132 33z"/> <path class="fil0" d="M15054 6518c11,4 398,-15 449,-56 -20,-9 -425,25 -449,56z"/> <path class="fil0" d="M6438 5379c24,36 55,71 107,66 14,-65 2,-70 -33,-98 22,-39 19,-9 19,-60 -37,16 -79,55 -94,92z"/> <path class="fil0" d="M5147 7947c15,-48 8,-43 -26,-83 -37,-43 11,-28 -30,-83 -61,3 -67,18 -76,71 40,25 0,16 49,-14l24 75c61,36 -35,-23 16,11 31,20 4,11 43,23z"/> <path class="fil0" d="M5241 8009c-49,44 -34,68 -46,48 -1,-2 -4,5 -7,7 -20,-26 -10,-10 -14,-58 -59,36 -72,23 -86,89 54,21 81,36 144,-5l9 -80z"/> <path class="fil0" d="M6489 6338c-14,47 42,113 136,41 -12,-34 -9,-44 -51,-56 -13,-4 -26,-6 -40,-4 -71,7 -29,8 -46,19z"/> <path class="fil0" d="M8202 8325c52,76 88,50 100,-1 5,-21 4,-20 2,-40 -8,-62 -88,-53 -102,41z"/> <path class="fil0" d="M3787 4767c50,25 245,-22 333,0 -23,-36 54,-32 -70,-36 -17,0 -261,9 -263,36z"/> <path class="fil0" d="M1166 7658c23,11 397,6 433,-14 -53,-23 -385,-7 -433,14z"/> <path class="fil0" d="M6680 5466c-2,-71 6,-114 -62,-136 -13,18 -13,3 -19,35 -20,110 52,100 81,101z"/> <path class="fil0" d="M9081 7970c-18,-64 -59,-113 -123,-94 -31,92 77,101 123,94z"/> <path class="fil0" d="M4920 5390c52,38 73,13 173,6 65,-5 117,19 178,-4 -15,-15 16,-20 -69,-20 -56,0 -253,2 -283,18z"/> <path class="fil0" d="M1036 8358c-9,-41 -41,-97 -83,-104 -21,36 -3,51 12,86 25,59 11,52 58,73 4,-6 31,27 13,-55z"/> <path class="fil0" d="M4722 4642c44,56 11,7 89,25 44,10 32,26 102,29 -21,-50 -39,-16 -11,-81 -52,7 -52,21 -98,13 -26,-4 -73,-29 -81,14z"/> <path class="fil0" d="M3987 8443c1,1 -10,24 46,11 43,-10 48,-62 52,-106 -76,5 -117,19 -98,96z"/> <path class="fil0" d="M794 7567c-25,3 -77,17 -102,25l-9 87c50,-18 20,1 57,-39 44,27 -6,6 53,26l1 -99z"/> <path class="fil0" d="M14680 6796c17,28 -28,19 46,29 48,6 127,2 160,-29 -37,-41 -182,-12 -184,-11 -3,1 -9,9 -11,5 -2,-3 -7,4 -11,6z"/> <path class="fil0" d="M6688 5809c0,-33 5,-32 -32,-81 -18,-24 -2,-7 -24,-25 -67,18 -66,33 -37,73 24,33 49,49 92,32z"/> <path class="fil0" d="M6697 3589l68 -3c3,-22 5,-5 -2,-30l-7 -17c-10,-39 13,-11 -12,-61 -99,-16 -66,55 -47,112z"/> <path class="fil0" d="M8349 6771c62,-3 55,-5 99,-32 -12,-47 -7,-50 -40,-80l-53 18 -6 94z"/> <path class="fil0" d="M1721 9104c49,31 197,9 274,10 56,1 41,4 86,-7 -38,-21 -318,-24 -361,-3z"/> <path class="fil0" d="M8187 8061c-30,70 -14,113 71,97l1 -103 -71 7z"/> <path class="fil0" d="M4509 8200c6,-67 -1,-67 -73,-69l-58 101 131 -32z"/> <path class="fil0" d="M276 8557c92,-14 30,-6 72,-74 27,-43 36,-11 63,-61 -42,-26 -56,2 -89,35 -77,78 -53,47 -46,100z"/> <path class="fil0" d="M5235 7436c52,19 119,-3 175,-4 54,-1 148,17 181,-24 -32,-14 -211,6 -281,11l-75 17z"/> <path class="fil0" d="M7794 7398c-24,-20 -44,-19 -78,-4 -6,62 72,94 99,88 0,0 46,-29 -21,-83z"/> <path class="fil0" d="M8277 6888c82,-12 22,13 77,-46 42,22 29,36 79,46 -5,-43 -20,-62 -42,-84 -97,30 -95,-26 -114,84z"/> <path class="fil0" d="M5073 4614l45 16c4,1 8,3 11,4l20 11c-59,19 -49,-3 -86,39 36,3 104,-2 142,-28 -1,-3 2,-64 -86,-61 -47,2 -23,-1 -45,19z"/> <path class="fil0" d="M4970 4858l68 -32 5 -105c-34,37 -17,34 -36,72 -64,-27 -6,-52 -79,-66l42 131z"/> <path class="fil0" d="M6766 4327c-1,-73 8,-93 -37,-125 -85,29 -49,107 37,125z"/> <path class="fil0" d="M3653 7861c9,-54 2,-212 -13,-252 -62,42 26,73 -30,255l43 -3z"/> <path class="fil0" d="M5383 5799c70,6 178,-22 217,-59 -34,-10 -75,6 -121,9 -70,4 -73,-6 -96,50z"/> <path class="fil0" d="M6271 6409c51,16 94,-16 92,-79 -42,-15 -42,-21 -77,8l-14 16c-40,58 -1,54 0,56z"/> <path class="fil0" d="M3997 4989l16 10c52,11 210,-4 250,-17 -30,-36 44,-27 -58,-26l-208 33z"/> <path class="fil0" d="M4218 6032c32,14 162,8 184,4 64,-13 30,-6 48,-29 -46,-15 -60,-12 -111,-3 -56,10 -75,-2 -102,9 -22,9 -8,6 -19,19z"/> <path class="fil0" d="M6308 6827c11,5 -24,30 39,5 0,0 61,-39 53,-97 -65,-14 -107,45 -93,92z"/> <path class="fil0" d="M2210 9006c79,16 220,14 286,-12 -56,-1 -264,-35 -286,12z"/> <path class="fil0" d="M6875 4342c-8,-50 -23,-56 -44,-96 -21,-41 -12,-66 -33,-104 -32,15 -27,-20 -25,36 1,40 37,132 102,164z"/> <path class="fil0" d="M10912 8145c3,50 32,45 70,43 19,-61 27,-61 -17,-101 -33,5 -56,6 -53,58z"/> <path class="fil0" d="M3485 4795c32,17 214,-7 220,-10 22,-9 13,-8 24,-18 -21,-9 -212,-17 -245,28z"/> <path class="fil0" d="M13376 6024c42,12 160,-3 213,-9 48,-5 26,5 58,-26 -77,-8 -206,1 -271,34z"/> <path class="fil0" d="M973 9340c56,30 261,5 304,-5 -61,-10 -266,-26 -304,5z"/> <path class="fil0" d="M8492 5907c22,15 -29,8 41,16 55,6 131,3 165,-28 -38,-15 -55,-13 -107,-11 -50,2 -69,0 -100,24z"/> <path class="fil0" d="M13658 6517c87,7 337,-8 387,-40 -51,-1 -360,24 -387,40z"/> <path class="fil0" d="M4819 7730c60,-19 -4,9 20,-17 -84,-33 -57,-15 -137,0 -85,16 -125,-1 -172,30l289 -13z"/> <path class="fil0" d="M4239 7617c36,-14 56,-42 68,-89 16,-59 5,-1 -4,-33l-46 -3c-25,37 -29,88 -19,125z"/> <path class="fil0" d="M6949 4709c26,-67 -41,-98 -110,-97 17,65 -1,29 41,60 27,20 30,29 69,37z"/> <path class="fil0" d="M6762 4093c19,-10 45,20 50,-107 3,-62 0,-24 -13,-45 -37,21 -30,0 -37,71 -3,30 -1,52 0,81z"/> <path class="fil0" d="M5163 7462c-17,-30 0,-15 -31,-28 -32,72 41,140 98,151l-67 -123z"/> <path class="fil0" d="M7230 7308c-69,-16 -100,-1 -76,64 43,18 21,14 77,8l-1 -72z"/> <path class="fil0" d="M8312 7034c65,2 90,5 98,-63l-103 -3c-13,22 -4,37 5,65z"/> <path class="fil0" d="M13013 6217c85,-3 252,0 322,-33 -32,-14 -275,12 -300,21l-22 12z"/> <path class="fil0" d="M8354 7089c-149,-52 -109,90 2,57l-2 -57z"/> <path class="fil0" d="M7109 7152c43,27 48,30 102,18 0,-31 -3,-64 -53,-67 -41,-2 -45,16 -49,49z"/> <path class="fil0" d="M7903 8178c78,23 82,-10 82,-82 -68,9 -88,11 -82,82z"/> <path class="fil0" d="M4010 7635c-11,45 18,63 73,42 10,-65 7,-69 -47,-82 -17,18 -13,-15 -26,39z"/> <path class="fil0" d="M724 8415c109,38 114,-97 1,-67l-1 67z"/> <path class="fil0" d="M4082 4832l254 -1c-12,-45 30,-36 -122,-22 -77,7 -57,-7 -132,23z"/> <path class="fil0" d="M3664 8544c-69,15 -19,7 -35,31 18,28 8,27 74,45 64,-81 -24,-79 -38,-76z"/> <path class="fil0" d="M4717 6185c44,19 194,18 210,-17l-170 -5c-63,7 -22,16 -40,22z"/> <path class="fil0" d="M5332 5629c25,46 61,11 105,6 54,-6 82,10 137,-9 -36,-24 -62,-24 -112,-14 -48,10 -99,6 -131,16z"/> <path class="fil0" d="M3162 8011c20,32 3,17 56,10 146,-21 199,18 251,-15 -81,-31 -222,5 -308,6z"/> <path class="fil0" d="M4727 8186c-1,-1 10,-58 -105,-47l7 49c37,18 59,17 99,-2z"/> <path class="fil0" d="M8345 7860c30,-3 42,-7 59,-28 23,-29 25,-71 -61,-59l2 86z"/> <path class="fil0" d="M11468 8257c58,4 8,2 29,-13 9,-32 -9,-76 -64,-64 -27,45 -14,74 35,77z"/> <path class="fil0" d="M2776 7116c9,2 352,-29 375,-32 -83,-12 -323,2 -375,32z"/> <path class="fil0" d="M13447 5922c17,19 -17,27 51,19 119,-13 175,-4 218,-34l-268 15z"/> <path class="fil0" d="M6522 5495c-61,101 84,130 48,14l-48 -14z"/> <path class="fil0" d="M9548 7992c53,29 93,-9 109,-55 -28,0 -48,2 -69,11 -74,30 -30,6 -40,44z"/> <path class="fil0" d="M3528 8478c-9,-28 -12,-53 -49,-56 -36,-3 -43,17 -54,42 40,25 50,15 103,14z"/> <path class="fil0" d="M3295 5045c44,25 110,16 156,0 -25,-25 -70,-29 -110,-21 -56,10 -27,7 -46,21z"/> <path class="fil0" d="M5253 7889c-18,-26 -23,-16 -47,-18 -16,69 -11,69 38,83 9,-12 44,-17 10,-65z"/> <path class="fil0" d="M4206 7405c41,8 52,-2 83,-19 -12,-46 -1,-41 -52,-62l-31 81z"/> <path class="fil0" d="M538 8367c15,-37 10,-17 30,-55 -109,14 -109,47 -122,75l92 -20z"/> <path class="fil0" d="M8290 6540c9,-64 37,-85 -19,-125 -3,4 -44,12 -4,93 13,27 9,16 24,33z"/> <path class="fil0" d="M6944 6414l-22 -85 -45 2c-14,68 2,76 66,83z"/> <path class="fil0" d="M1734 7340c42,-4 16,4 40,-15 -13,-43 30,-27 -33,-25l-157 25 150 15z"/> <path class="fil0" d="M12286 8079c-37,7 -28,38 -22,71l62 -4c1,-37 6,-75 -40,-67z"/> <path class="fil0" d="M5451 6151c57,-1 153,3 192,-22 -29,-13 -114,-8 -150,-2 -70,13 -27,-1 -41,24z"/> <path class="fil0" d="M9015 8669c-2,-58 -22,-82 -74,-38 13,36 -21,67 74,38z"/> <path class="fil0" d="M7156 6296l-6 76c93,6 78,-103 6,-76z"/> <path class="fil0" d="M4303 7227c34,11 176,-10 213,-23 -50,-6 -187,-16 -213,23z"/> <path class="fil0" d="M11339 8076c29,-59 3,-70 -58,-73 -1,58 6,70 58,73z"/> <path class="fil0" d="M204 8475c-28,5 -15,5 -31,17 1,2 -16,50 43,41 41,-6 27,-15 33,-58 -23,-1 -23,-4 -45,1z"/> <path class="fil0" d="M8158 8242c-5,-21 9,-39 -39,-40 -67,-1 -41,24 -47,40 40,20 45,24 86,0z"/> <path class="fil0" d="M1710 8056c-20,106 19,100 34,110 31,-50 5,-79 -34,-110z"/> <path class="fil0" d="M6141 5762c59,-18 51,-10 67,-85 -75,13 -68,9 -67,85z"/> <path class="fil0" d="M6512 7417c65,7 61,-2 62,-70l-69 16 7 54z"/> <path class="fil0" d="M3690 7486c61,0 160,19 203,-9 -52,-28 -158,-8 -203,9z"/> <path class="fil0" d="M4257 4324c16,6 17,13 43,12 67,-4 20,7 47,-27 -36,-41 -83,-48 -90,15z"/> <path class="fil0" d="M5156 5520l146 -12c-15,-21 -30,-32 -71,-29 -41,3 -55,11 -75,41z"/> <path class="fil0" d="M13832 6138l431 -26c-122,-14 -322,7 -431,26z"/> <path class="fil0" d="M606 7882c40,13 62,18 107,-2 -33,-39 -78,-56 -107,2z"/> <path class="fil0" d="M795 7389c10,-55 -2,-75 -55,-70 -6,32 -5,6 1,30 9,35 -15,-18 7,18 1,2 4,6 5,8 18,21 7,13 43,14z"/> <path class="fil0" d="M94 7963c70,4 226,-30 284,-47 -56,-3 -242,30 -284,47z"/> <path class="fil0" d="M7732 7561c4,10 -7,22 29,38 36,17 16,6 52,4 -21,-64 -21,-45 -42,-63l-39 21z"/> <path class="fil0" d="M786 8591c21,-51 4,-63 -38,-80 -8,23 -18,36 -3,62 16,27 12,13 42,18z"/> <path class="fil0" d="M6674 6591c24,-44 24,-35 0,-74 -23,4 -52,-9 -41,39 6,27 18,25 41,35z"/> <path class="fil0" d="M10567 6195c14,11 -21,51 92,20 30,-8 16,-6 32,-16 -35,-23 -77,-6 -125,-4z"/> <path class="fil0" d="M9639 8137c-8,-59 0,-69 -58,-69 -18,56 9,61 58,69z"/> <path class="fil0" d="M5101 5809c4,2 31,52 116,0 -41,-28 -80,-22 -116,0z"/> <path class="fil0" d="M15273 5518c46,23 85,11 116,-9 -27,-17 -113,-33 -116,9z"/> <path class="fil0" d="M719 8007c13,24 1,34 33,47 50,22 47,-6 49,-8 -41,-65 -49,-44 -82,-40z"/> <path class="fil0" d="M3131 5059c25,12 113,22 132,-17 -23,-2 -52,-5 -75,-5 -82,2 -37,13 -57,21z"/> <path class="fil0" d="M4425 8089c13,11 1,8 27,18 46,17 65,4 80,-4 -28,-42 -64,-40 -107,-14z"/> <path class="fil0" d="M12181 8300c68,31 93,-70 4,-49 -9,15 -14,18 -4,49z"/> <path class="fil0" d="M13625 6157c44,20 123,4 155,-14 -36,-15 -126,-9 -155,14z"/> <path class="fil0" d="M7540 7816c36,-18 18,-11 15,-37 -7,-3 22,-26 -43,-7 -37,11 -7,2 -23,25 9,12 4,43 52,19z"/> <path class="fil0" d="M6228 6296c-15,-54 -2,-42 -70,-47 11,55 17,78 70,47z"/> <path class="fil0" d="M3852 7547c-31,-27 -102,-25 -135,-17 -27,7 -16,7 -30,22l165 -5z"/> <path class="fil0" d="M13685 5990c36,14 109,6 143,-14 -44,-16 -114,-16 -143,14z"/> <path class="fil0" d="M3982 5184c41,23 75,18 109,0 -15,-11 -14,-21 -55,-22 -64,-1 -46,15 -54,22z"/> <path class="fil0" d="M6595 5156c11,52 12,40 72,48 -10,-47 -22,-77 -72,-48z"/> <path class="fil0" d="M12147 8174c2,-27 -1,-6 -6,-25 -74,3 -74,72 -2,59 4,-11 5,9 9,-34z"/> <path class="fil0" d="M5385 6910c36,16 88,3 136,-5 20,-4 120,-20 130,-25 -15,-4 -236,22 -265,30z"/> <path class="fil0" d="M8066 7872c-13,-31 -19,-13 -45,-16 -12,69 -8,39 28,60 2,-3 44,22 18,-44z"/> <path class="fil0" d="M703 6384c13,-19 18,21 17,-33 -1,-31 -4,-18 -14,-33 -2,0 -29,-16 -35,24 -9,60 12,33 32,43z"/> <path class="fil0" d="M13910 5975c64,4 149,-5 192,-26 -66,0 -140,-4 -192,26z"/> <path class="fil0" d="M10398 7175c26,7 208,-32 230,-41 -88,8 -168,5 -230,41z"/> <path class="fil0" d="M5242 7479c24,15 5,10 43,16l140 -4c-42,-23 -125,-19 -183,-12z"/> <path class="fil0" d="M13398 6182c35,3 59,1 95,-2 51,-4 40,1 71,-21 -34,0 -161,-2 -165,23z"/> <path class="fil0" d="M5214 6143c25,24 -50,18 44,20 26,1 34,-8 60,-9 51,-3 53,30 71,-10l-174 0z"/> <path class="fil0" d="M7922 7187c54,-3 98,-18 128,-61 -32,6 -52,12 -78,25l-50 37z"/> <path class="fil0" d="M5418 4656c33,22 -39,23 36,16 73,-6 -1,10 29,-16 -8,-20 26,-34 -30,-30 -38,3 -18,-1 -35,30z"/> <path class="fil0" d="M609 7508c12,-71 -1,-12 -17,-37 -30,24 -19,-3 -26,35 -12,60 -2,10 12,33 34,-16 22,20 31,-30z"/> <path class="fil0" d="M5031 4580c6,-14 14,-17 9,-40 -11,-56 -4,-31 -53,-43 13,36 19,55 44,83z"/> <path class="fil0" d="M15686 6074c50,1 95,13 129,-14 -42,-26 -103,-3 -129,14z"/> <path class="fil0" d="M3656 8685c54,-18 24,29 42,-60 -63,13 -70,4 -42,60z"/> <path class="fil0" d="M6489 6670c43,-18 54,-19 18,-63 -53,16 -41,28 -18,63z"/> <path class="fil0" d="M2553 8934c43,19 126,9 185,-8l-119 -2 -66 10z"/> <path class="fil0" d="M4368 7752c11,-51 17,-37 -13,-78 -54,24 -12,55 13,78z"/> <path class="fil0" d="M1741 7502c16,33 -14,12 31,55l44 -52 -75 -4z"/> <path class="fil0" d="M7368 6291c25,-43 22,-61 -33,-57 -3,43 3,44 33,57z"/> <path class="fil0" d="M8447 7166c13,35 -23,20 21,44 43,24 27,-8 33,-11 -26,-50 35,-25 -54,-33z"/> <path class="fil0" d="M7996 7450c59,45 62,7 70,0 -4,-3 -6,-54 -70,0z"/> <path class="fil0" d="M1758 7442c77,0 28,-9 45,-30l-90 10c2,1 -10,20 45,20z"/> <path class="fil0" d="M8187 7903c38,-48 16,-44 -31,-51 -3,58 -6,38 31,51z"/> <path class="fil0" d="M2205 9423c44,21 56,8 57,-32 -44,-7 -41,-3 -57,32z"/> <path class="fil0" d="M4530 4656c7,4 -10,36 32,12 34,-20 3,13 23,-35 -90,-12 -38,9 -55,23z"/> <path class="fil0" d="M10144 7922c-4,-3 18,-27 -37,-11 -35,10 -7,-1 -19,25 48,31 36,18 56,-14z"/> <path class="fil0" d="M6605 6184c63,-18 28,6 48,-49 -91,13 -43,-20 -48,49z"/> <path class="fil0" d="M538 8367l12 44c46,-11 28,13 41,-45l-53 1z"/> <path class="fil0" d="M6427 6506c-49,3 -8,0 -22,26 22,16 -4,10 32,14l22 -14c-19,-34 21,-29 -32,-26z"/> <path class="fil0" d="M4812 5431c9,15 -7,26 28,26 36,-1 22,-15 28,-23 -27,-16 -22,-29 -55,-3z"/> <path class="fil0" d="M10231 7839c-38,-67 -49,-14 -50,-14 3,3 4,9 6,10 49,42 44,4 44,4z"/> <path class="fil0" d="M6235 6582c63,-29 33,26 39,-51 -59,19 -30,-14 -39,51z"/> <path class="fil0" d="M5074 8144c14,20 -7,13 23,24 59,23 6,4 30,-10 -28,-35 -5,-34 -53,-14z"/> <path class="fil0" d="M590 7199c19,15 -6,12 30,15 59,5 23,-13 25,-15 -37,-31 -15,-28 -54,0z"/> <path class="fil0" d="M4209 8325c-24,-32 -7,-32 -50,-14 28,27 -33,3 19,25 58,24 10,2 31,-11z"/> <path class="fil0" d="M15035 5893c6,2 -11,14 23,7 61,-14 12,-2 30,-20 -65,-33 -49,12 -53,14z"/> <path class="fil0" d="M4958 4128c27,31 12,30 49,14 -10,-29 23,-21 -18,-26 -38,-5 -12,0 -32,12z"/> <path class="fil0" d="M4994 6172l128 -2c-24,-23 5,-19 -49,-15l-79 17z"/> <path class="fil0" d="M4990 4330c3,-21 12,-23 -24,-47 -22,39 -25,40 24,47z"/> <path class="fil0" d="M5227 7658c42,27 38,6 44,-28 -67,8 -25,-11 -44,28z"/> <path class="fil0" d="M5979 6422c54,-5 40,21 37,-37 -38,7 -30,-8 -37,37z"/> <path class="fil0" d="M5280 4656c5,3 -15,54 40,0 -54,-48 -37,-2 -40,0z"/> <path class="fil0" d="M3467 8659c10,8 -2,38 52,0 -16,-13 7,-10 -25,-12 -35,-3 -21,8 -28,12z"/> <path class="fil0" d="M15940 6553l-60 5c29,25 -9,13 30,18 65,9 9,1 31,-22z"/> <path class="fil0" d="M4181 4336c7,3 -19,48 44,0 -11,-14 23,-15 -12,-12 -31,3 -15,2 -32,12z"/> <path class="fil0" d="M5944 5700l100 -11c-39,-18 -85,-5 -100,11z"/> <path class="fil0" d="M6668 4364c23,29 2,28 42,11 -18,-24 0,-36 -42,-11z"/> <path class="fil0" d="M10907 7822c23,28 -20,53 50,16 -35,-17 -8,-5 -50,-16z"/> <path class="fil0" d="M3627 8200c19,8 15,16 39,0 -79,-62 -26,-9 -39,0z"/> <path class="fil0" d="M-1221 8714c11,6 3,10 38,10 36,0 28,-6 35,-17l-73 6z"/> <path class="fil0" d="M6743 4520l11 -19c-2,-30 1,-11 -11,-29 -31,38 -20,-51 -13,19 3,31 -6,9 13,29z"/> <path class="fil0" d="M735 7700c25,15 16,23 46,0 -26,-18 -22,-18 -46,0z"/> <path class="fil0" d="M3377 4795c28,19 26,17 49,0l-19 -10c-25,2 -17,3 -30,10z"/> <path class="fil0" d="M13985 5874c22,22 -20,16 23,16 47,1 29,-8 34,-12l-57 -5z"/> <path class="fil0" d="M5156 7700c-12,-31 -3,-29 -35,-14 15,7 -12,28 35,14z"/> <path class="fil0" d="M5712 5198c28,19 26,14 48,0 -24,-14 -25,-12 -48,0z"/> <path class="fil0" d="M5008 5003c0,22 26,19 20,0 -5,-19 -20,-38 -20,0z"/> <path class="fil0" d="M829 7212l38 25c-5,-50 11,-30 -38,-25z"/> <path class="fil0" d="M4199 6961l-11 -29c-29,46 -9,26 0,42 25,-23 -1,40 11,-13z"/> <path class="fil0" d="M5381 8047c27,13 15,10 35,0 -37,-33 -16,-14 -35,0z"/> <path class="fil0" d="M5127 7819c32,30 -10,10 31,27 -5,-49 12,-19 -31,-27z"/> <path class="fil0" d="M9966 7644c0,0 26,34 38,-6l-38 6z"/> <path class="fil0" d="M227 8339l17 12c55,16 -8,10 17,-12 -23,-9 -12,-10 -34,0z"/> <path class="fil0" d="M4903 5837l29 -13c-3,-4 38,-38 -11,-8 -37,23 17,-35 -19,21z"/> <path class="fil0" d="M1445 7436c3,2 -4,28 42,-3l-42 3z"/> <path class="fil0" d="M1543 7436c23,15 7,22 42,-4l-42 4z"/> <path class="fil0" d="M5244 5623c27,26 22,18 38,5l-38 -5z"/> <path class="fil0" d="M5156 7773l37 -3c-19,-14 -5,-24 -37,3z"/> <path class="fil0" d="M4962 5323l30 -9c-42,-22 -17,-13 -30,9z"/> <path class="fil0" d="M3836 7652c34,11 4,-6 31,29 -13,-58 12,-28 -31,-29z"/> <path class="fil0" d="M7128 4975l31 0c-2,-2 -5,-11 -6,-7l-25 7z"/> <polygon class="fil0" points="4669,7825 4561,7844 "/> <line class="fil0" x1="5726" y1="5616" x2="5726" y2="5616"/> <polygon class="fil0" points="14551,6442 14622,6453 "/> <polygon class="fil0" points="14096,6479 14156,6483 "/> </g> </g> <path class="fil0" d="M5115 4665c-65,-6 -103,42 -94,112 -12,55 -16,61 -48,24 -8,-93 -53,-145 -154,-140 -22,-2 -49,4 -35,-18 84,13 140,-9 159,-47 14,-38 34,-69 37,-104 39,-21 47,-7 48,52 -7,63 25,100 92,92 20,-5 32,-5 49,12 15,24 -6,15 -54,18zm-369 8c133,-6 205,52 215,175 43,50 72,38 88,-34 -12,-94 25,-136 111,-128 63,-4 84,-22 65,-54 -23,-23 -44,-28 -62,-15 -88,11 -127,-25 -118,-108 -1,-78 -27,-102 -79,-74 -3,45 -14,93 -32,143 -25,50 -93,67 -203,49 -18,29 -13,44 16,46z"/> </g> </svg>