<?xml version="1.0" encoding="utf-8"?>
<!-- Generator: Adobe Illustrator 23.0.1, SVG Export Plug-In . SVG Version: 6.00 Build 0)  -->
<svg version="1.1" id="Layer_1" xmlns="http://www.w3.org/2000/svg" xmlns:xlink="http://www.w3.org/1999/xlink" x="0px" y="0px"
	 viewBox="0 0 936 1064" style="enable-background:new 0 0 936 1064;" xml:space="preserve">
<style type="text/css">
	.st0{fill-rule:evenodd;clip-rule:evenodd;}
	.st1{fill:none;}
</style>
<g id="Layer_x0020_1">
	<g id="_1201394304">
		<path class="st0" d="M220.2,616.3l4.9,8.2c1.5,3.7,1.8,6.2,2.7,10.1c-8.6-5.1-7.7-4.9-7.7-18.1V616.3z M308,767l0.9-0.5
			c2-1.3,3.1-3.5,3.3-5.9c3.7,7,3.1,4-2.9,8.4L308,767L308,767z M308.9,754.3c-2.2-1.5-4.9-1.6-7.3-0.5c0-2.2,0.2-4.2-0.7-6.2
			c-0.2-0.5-0.2-0.9-0.4-1.5c-0.2-0.9-0.7-1.8-1.3-2.7c-0.5-1.1-0.9-1.6-1.8-2.6l-0.4-1.6c2-3.1,1.5-7.5-1.3-9.9
			c-0.2-2.7-1.8-5.1-4.4-6.2l-0.4-0.2c-0.5-1.3-1.3-2.6-2-3.8l-0.2-0.2c0.4-1.6,0.2-3.3-0.5-4.8c2.4,2.4,5.3,4.4,9.3,5.9
			c5.7,1.8,9.2,1.1,14.1,3.7c7,3.7,2.7,4.6,10.3,7.5c-4.4,5.5,0.4,3.3-8.8,4.2c0.5,0.5,1.3,1.3,1.6,1.6l-7.7,6.2
			c2.2,0.2,7.3,0.4,9.2,1.1c0.2,0,21.4,15,38.8,17.2c4.8,7.5,10.1,8.2,9,19.2c-9.5-17.6-22.9-24-47.3-19.2c5.5-7.3,12.1-5.3,4.4-9.2
			c-4.2-2.2-8.2-0.5-14.7-3.7c0.9,2,1.6,3.8,2.4,5.5V754.3z M285.3,710.9l-0.2-0.2c-0.4-0.4-0.7-0.7-1.1-1.1
			c-0.2-0.2-0.4-0.4-0.5-0.5c-0.2-0.4-0.4-0.7-0.5-1.1v-0.5c0.7,1.3,1.6,2.6,2.4,3.7V710.9z M279,700.7c-0.5-0.4-1.1-0.5-1.8-0.7
			c-2.7-4.4-5.9-8.4-9.3-12.3c-4.6-8.4-10.4-15.9-17.4-22.7l-0.5-0.5l0.7,0.5c0-5.9-0.5-11.4,0.7-16.8c3.1-12.5,0.7-5.7,6-9.2
			l3.1,11.2l4.2,7c0-0.4,0.5,0.2,0.7,0.4l-1.8,14.1l7-8.8c0.2,0.4,0.4,0.9,0.4,1.1l2.7,5.1c1.3,2,1.8-1.1-0.5,8.8
			c7-3.5-0.4-2.6,10.3,2.6l-3.8,10.4l-3.8-7.7c-0.2,9.9-1.6,10.3,7.1,13c5.1,1.6,9.7,0.9,15.6-0.2l2-3.7c0.2-0.5,0.5-1.3,0.7-1.8
			l2.9-7.1c8.6-15,7.5-3.7,6.8-23.4c-6-5.1-5.9-4.2-9.9-10.3c21.2,5.1,15.6,14.7,15.2,33.1c2.2-2.6,9-10.4,9.9-15.8
			c1.5-8.4-2.2-10.1-5.3-14.3l-2.2-3.1c6.6-1.3,7.7-3.7,11,1.6c2.9,4.9,1.6,9.5,1.6,16.1c3.7-2,3.1-1.3,7.9-2.4l-11.9,11
			c-7.1,6.8-4,2.9-8.6,11.7l5.3,2.2l-4.4,25.6c-11.9-1.6-17.8-4.2-18.9-17.6c-6.6,0.9-13,2.6-22.5,2.6L279,700.7z M244.4,659.3
			c-2-1.6-4-3.3-6-4.8c-1.8-2.6-3.8-5.1-6-7.5c-2.7-4.9-6-9.7-9.5-14.1c-2-3.7-4.2-7.3-6.8-10.8c-0.4-1.5-0.7-2.7-1.1-4.2
			c0.9,0.4,1.8,0.7,2.7,1.3c2-7.9,3.3-7.5,5.1-15.4c-5.3,1.5-9,2.2-9.9,7.5c-0.5-1.6-1.3-3.3-2-4.9c4.6-3.7,9-6.2,12.1-12.6
			c-10.4-0.5-4.2,1.5-9.5-3.1c-10.8-9.2-11-16.3-10.8-23.8c0.2-0.7,0.4-1.5,0.5-2.2l2.4,5.9c1.5,3.8,0.2,2,2,5.7
			c1.6,3.3,3.8,5.7,7.1,8.2c7.1,5.7,12.5,3.8,17,10.4l6.4-3.7c-10.3-6.4-15.9-1.1-25.5-15.2c2-8.4,0.4-2.6,4.4-10.8l5.9-9.5
			c-1.3,10.8-3.7,8.8-1.8,22.2c2.9-6.6-0.2-5.5,4.8-11.7l2,12.5c60.3,0.9,3.5,19.6,31,48c11.9,12.3,12.3,2.9,12.3,2.9
			c-21.6-5.9-5.3-35-2.6-43.4c-9-3.3-3.8,1.8-2.6-12.6l-7.7-10.3c-0.9,10.1-0.2,4.6-2.6,7.7l-5.1-10.3l-7.7,10.3
			c4.4-24.9-2.4-13.4,5.1-25.3c10.1,3.3,0,0.2,7,3.1c2.4,1.1,3.5,1.5,7.1,2.4c6.2,1.3,3.3,3.1,7.7-0.5c-6.6-10.8-7.3-2-11.7-12.6
			c-2.9-14.7,6.6-21.2,6.6-21.6c0.2-0.9,0.9-0.9,1.3-1.3c-2.9,12.3-6,14.3-0.4,25.6l1.8-3.5c0.2-0.5,0.4-1.5,0.5-2l1.8-5.7
			c0-0.9,0.5-1.1,0.7-1.6c0.4,7.7,1.3,9.2,2.7,15c4.8-7.3,1.6-11.2,3.8-13.6l3.5,10.6c2.2-4.6-3.1-2.4,5.1-4.6
			c0.5-15.4-0.2-21.4,0.5-36.4l2.2-7.1l5.1,2.6c-3.3,6.8-2.6,4.6-1.8,15l4.2-7.3c1.1,15.6,1.8,14.1,12.8,20.1
			c0-22.9,2.7-14.1,6-24.5c2.9-9.2-4.4-7,1.5-21.2c5.7-13.6,11-27.8,20-38.5c-5.1-4.6-2.7-4.8-4.9-7.9l-9.9,8.2
			c2.2-7,1.6-4.4,5.1-10.3l-7.5-5.3c3.1-2.6,5.1-4.2,7.5-7.5l-10.8-7.5c9.5-0.4,6.4,0.5,13-2.6c2.4,9.5,5.7,10.6,12.8,15
			c11-7.3,10.1-9.7,17.2-19.6c-13.9-0.4-10.8,6.2-24.7,9.5c16.5-22.3,31.7-3.1,28.6-22.2c7.1,2.6,9-3.5,12.1-10.8l-10.3-8.1
			c-0.2,0.4-0.4,1.1-0.5,1.3l-1.1,5.9c-7.1-8.8-13.7-30.2-19.6-41.6l-32.1-84.8c-2.4-7.9-5.1-14.7-8.1-22.5c-1.5-3.7-2.7-7-4.6-10.6
			c-1.1-2.2-1.3-2.6-2.9-5.1l-2.4-3.1c0,2.9-0.2,5.5-0.2,8.1c-0.2-0.9-0.5-1.6-1.1-2.4c-0.2-1.1-0.5-2-1.1-2.7
			c-0.4-0.9-0.9-1.8-1.6-2.6l0.2,0.2c-0.4-0.5-0.5-1.1-0.9-1.5c0-4.6,0-9,0.2-12.6l-5.7-18.7c-1.5,7-2.2,8.2-2.4,13.9
			c-0.2-0.4-0.4-0.7-0.5-0.9c-0.4-0.9-0.9-1.6-1.5-2.4c-0.5-1.3-1.6-2.4-2.7-3.1c0.4-2.9,0.9-4.9,2-7.5l4-6.2
			c0.2-0.7,0.7-0.9,1.3-1.3c9,7.7,6.4,17.6,14.1,30.2l3.5-9.7c6.8,12.3,4.4,13.4,11.4,21.8c1.1,1.3,6.4-0.7,6.6,24
			c0.4-0.5,0.7-1.3,0.9-1.6s0.7-1.3,0.9-1.6l3.1-6.6c4.4,14.1,4.4,24.4,9.5,37.2c2.9-19.6-11-37.9-3.7-49.4
			c6.4,11.4,12.5,45.4,16.1,59l6.2,16.8c-1.1-19.4-6-38.6-11.2-57.7c-5.3-19.4,0-14.7,0.9-16.3c1.1,14.1,7.9,27.1,9.9,40.8l9.5,39
			c0.2-0.4,0.7,0.9,1.1,1.5c-0.2-11-2.6-10.8-2.9-22.9c-0.4-9.7,0.7-12.1-1.1-21.6c-1.5-7.9-2.4-11.9-3.7-19.2
			c-4.8-26.9-2.6-13.7,0-17.8l8.6,39.6c5.7,31.5,23.4,89.2,16.8,117.9l25.6-10.3c-2-7.7-3.3-7.7-5.3-15.2c7.1-3.7,11-4.2,18.3-7.1
			c9.2-3.7,5.9-5.7,17.6-7.9l-2.9,7.3c7.3,1.6,7.1,5.1,9.2-0.7c2.7-8.1,0-2-1.3-4.2c-4-7-18.1-11-40.7-46.3
			c-7.1-11.4-14.8-23.8-18.3-37.7c-6.6-27.3-10.1-30-12.6-40.7c8.8-12.3,23.8-25.1,43.4-27.8c34.8-4.8,37.7-17.6,45.6-23.1
			L445.7,265c0,13.6,0,27.1,0,40.8c0.4,0,0.9,0,1.3,0c0.2,0.5,0.4,0.9,0.7,1.5c0,0.7,0,1.6,0,2.4c0,0.2,0,0.4,0,0.5l-1.8,0.2
			l-3.1,13.2c4.4-2.7,8.2-4.4,11.5-5.5c2,0.7,4.4,0.5,6.4-0.7c1.3-0.5,2.4-1.3,3.1-2.4c0.4-0.4,0.7-0.7,1.1-1.1
			c0.4-0.2,0.5-0.4,0.7-0.4c1.5-0.5,2.6-1.5,3.5-2.7c0.5-0.4,0.9-0.7,1.3-1.3c0.7-0.7,1.3-1.5,1.8-2.4l0.4-0.4
			c1.5-1.5,2.2-3.3,2.2-5.1v0.5l0.2-0.4c0.5-1.1,0.9-1.8,1.1-2.7c6-4.4,9.9-11.4,15.9-20.7c26.2-41.2,35.7-49.8,60.4-84.4
			c4.9-7,9.2-13,14.1-21.4c4.2-7,7.7-16.3,13.7-21.8c2.9,7.1-0.7,9.5-5.5,17.2c-3.1,4.8-6.4,11-9.2,16.3c-4.8,9,1.6,4.6-5.5,14.8
			c-4.9,7-6.4,5.7-10.3,15.4c7.3-4.8,9.7-9,15.4-15.2c10.1,0,2.4-0.7,5.7,3.1c-7.1,4.6-9.3,6.6-12.6,13.9c10.3,0.4,3.7,1.3,12.1-4.2
			l0.9,2.4c0.2,0.2,0.4,0.9,0.5,0.9c0.2,0.2,0.7,0.7,0.9,0.7c2.7,1.8,1.8,0.7,5.3,1.1c-4.8,9.5-2.2,16.8,7.7,20.3l-7.7,7.7
			c7-0.5,5.5-0.2,10.3-2.6c0.2,6.6-1.6,3.3,1.6,8.6c2.6,4,1.5,0.9,5.9,4c1.1,10.1,2.7,8.2-2.4,15l-0.2-12.5c-9.2,3.8-8.4,2-2.7,7.5
			c-7.5,5.5-6.4,11.2-15.4,17.8c-9.2,6.8-20.3,11.2-30.6,18.3l-5.1,0.4c-4,0-7.3,3.3-7.3,7.3c0,1.3,0.2,2.2,0.4,3.1
			c-2,2.2-3.7,4.8-5.5,7.5c-1.5,0-2.6,0.5-3.8,0.9c-1.5,0.5-2.9,1.5-3.8,2.7c-0.2,0-0.4,0.2-0.5,0.2l0.9-2c-5.1,2.2-5.1,2.4-13,2.4
			c3.8-6.4,7.3-27.5,7.5-35.3c-9.7-3.8-1.3,1.3-7.3-7.9c-3.8-5.9-2.7-4-7.9-7.3c-2,4-3.3,7.5-6.2,11.7c-2.4,3.5-3.8,4.9-6.4,8.6
			c0.9,7.5-4-5.3,7.3,7.1c0.2,0.2,0.9,0.7,1.1,0.9l9.2,19.8c-18.1,9.3-20.1,2.4-28,11l18.3,0.9c-0.4,0.2-0.9,0.5-1.3,0.9
			c-0.4,0.2-0.9,0.4-1.3,0.7h-0.2l0.7-0.7c-1.3,0-2,0.2-3.3,0.5c-2,0-3.8-0.2-5.7,0.5c-2,0-3.3,0-5.1,1.1c-0.5-0.2-1.3-0.4-2-0.4
			h-2.2l0,0c0.2-0.2,0.2-0.5,0.4-0.9c0.2-0.7,1.1-0.5,1.6-0.9c-2.9,0-5.7,0.2-8.2,0.4c-0.7-0.2-1.5-0.4-2.4-0.4h-4.4
			c-1.5,0-2.7,0.4-3.8,1.1c-0.4,0.2-0.9,0.4-1.3,0.5c-0.2,0-0.4,0.2-0.5,0.4c-0.9,0.2-1.8,0.5-2.6,1.1c-16.7,5.9-8.1,19.8-14.8,40.3
			c9.3,4.8,13,9,20.5,11.7c0.4,1.5,0.9,2.7,2,3.8c0.7,0.7,1.3,1.3,1.8,1.8l-1.5,0.2c5.5,9.3,6.8,7,10.3,20.5
			c-13.7-7.3-21.4-13.9-30.4-12.6c0,0-17,3.7-0.4,5.3c-7,6.2-26.4,22.7-35.5,25.3c2.9-12.3,2.2-6.8-2.9-10.6l10.4-12.6
			c-28.2,8.8-19.4,49.3-41.6,61.4l13.9-32.8c5.5-14.7,10.4-17.8,17.6-28.6c-16.1,0.5-8.1,1.8-17,8.8c-7.7,6-7.1-0.4-12.8,12.8
			c-6.2,14.5-4.4,28.9-10.6,39.4c-0.2-7.3,1.5-15,2.2-24.9c0.5-8.2,3.3-13,5.3-20c-7,4-9.3,10.8-15.8,22.5h5.1
			c-0.4,12.5-5.9,22.7-12.5,28.2l-0.2-5.9l-5.1,2.9l-0.4,4.8c-2.4,1.5-3.7-0.4-5.9,5.9c-3.7,10.1,4.9-5.9-1.1,7l10.3-3.5l1.6-6.8
			c8.1-3.5,2.7,1.1,8.1-7.1c5.1,6.2,6.4,0.9,12.6,4.9c-8.8,5.5-15.9,6.2-24.9,13.4c-3.1,2.6-20.1,17.9-7.3,24l26.4-10.1
			c7.5-2.4,15.4-5.3,23.4-4.2c5.3,0.7,2.6,0.7,5.1,2.4c-4.8,2.9-15.2,3.1-32.6,10.4c-4.9,2.2-8.4,3.8-12.6,7.7l-6.2,9
			c-0.2,0.4-0.7,2-0.9,1.6c-0.2-0.4-0.5,1.1-0.9,1.6l-3.5-8.8c-3.7-7.5-6.4-11-6.6-21.6c-7.5,3.1-1.5,3.8-10.3-3.1
			c-1.8,8.2-3.7,9.5-5.1,18.5c10.1,4.9,8.6,0.4,15.2,10.1c-2.4,10.1-6.6,17.2-16.1,13.4c-0.7-6.4,1.6-3.7,3.3-13.4
			c-11.4-0.4-5.3,0.5-12.3-2.9c-4.4-2.2-5.7-2.9-11.5-4.8l0.9,15.6c5.5,2,2.4,2.2,7.7-0.7l2.4,8.4c-3.3,2.6-5.1,3.8-7.7,8.2
			l12.8,1.8c-2.2,10.6-1.1,3.3,0,15.2c-10.6,5.5-4.8-1.1-8.1,7.5c-2.6,6.4-0.7,10.1,2.6,13.9c6.4,7.7,15.2,4.4,15.8,26.7l4,2.2
			c0-0.4,0.7,0.2,0.9,0.4l-5.5,3.7c-5.5,6.2,4-4.9-2,4.6c-2.7,4.4-4.4,4.4-7.7,9.7H297c-2,4.4-2,4.4-5.3,7.5
			c0.2,32.1-2.4,26.7,7.9,35.5c-21.6,0.5-1.3,0.7-15.2,7.7c6-21.6,1.1-5.5-7.3-33.1c-2.4-7.9-4.2-13.4-7.3-20.3
			c-0.7-0.5-13.7-3.3-14.7-6.2c-0.2-0.7-0.7-0.9-1.3-1.3c-13.4,2.7-9.2,3.7-22.9-0.2c9.9,13.7,10.8-4.2,15.4,12.8h-15.4
			c2.7,9.2,2.6,5.7,8.2,12.5c2,2.4,2.9,3.7,3.7,4.8L244.4,659.3z M275.9,138.1c0.9-2.2,1.8-4.4,2.7-6.6c3.7,6.4,6.2,12.6,13.2,17.6
			l-2.9-23.1c9.3-3.1,4.6,4.4,14.7-5.7c19.8-19.8,7.1-34.2,25.3-42.3c7.5,19.8,7.3,52.9,28.9,62.6l-0.5-7.1
			c5.7,3.8,11.4,11.5,16.8,13.7c9.2,3.7,3.3-2,22.3,6.6c-11.5,11.5-28,36.6-36.6,43c-2.9-3.3,0.4,1.8-3.5-4l-4.2-11.2
			c-1.5-7.5,0.2-8.1-5.1-14.8c-5.1,8.8,3.1,25.6,7,34.4c-4.9,9.2-3.1,9.9-9.3,15.9c-0.4-18.1,2-4.8-3.8-9.9
			c-0.2-0.2-7.9-8.2-8.1-8.6c-6.4-8.4,0.4-7.5-7.1-10.4c-6.4-2.6-0.2,0-8.6,3.3l-8.8-15.8c-2.4-2-1.6,5.9-3.5-1.3
			c-0.2-0.5-0.9-0.2-1.3-0.2c-1.6-3.8-2.6-8.6-4.9-12.6c-8.8-15.2-4.9,6.6-22.3-24L275.9,138.1z M533.6,317.4
			c-0.4,0-0.5,0.2-0.7,0.2c0-0.2,0.2-0.5,0.2-0.9c0.2,0.2,0.4,0.4,0.5,0.5V317.4z M282.5,707.1h-0.2c-0.2-0.2-0.2-0.4-0.4-0.5
			L282.5,707.1L282.5,707.1z M245.5,620.8l5.5,6.2C237.6,623,250.7,627.2,245.5,620.8z M237.8,591.3c5.3,2,2.4,2,7.7,0
			c-6.2-8.6-1.8-1.8-9.9-7.7c6.4-3.5,2.9-2.2,12.5-2.4c11.4,18.7-3.1,19.2-8.1,32.6c-1.6,4.6-1.6,8.1-4.4,12.8l-7.9-2.6
			c-0.2-9.5-0.5-7.3-2.6-15l7.1-8.1c5.1-5.9,3.5-2.2,5.7-9.7H237.8z M298.8,639.7c-26.2-6.2-9.2-4.6-27.8-15.4l7-58.6
			c0.5-12.3-9.9-14.1,8.1-17.6c-0.5,26.6-20.3,35.9-3.8,54.6c0.4,0.4,0.9,0.9,1.3,1.3c0.4,0.4,0.9,0.9,1.3,1.3l6.6,6.2
			c1.5-3.1,0.9,0.7,0.7-3.5c0-0.2-0.7-5.9-0.7-6.8l20.5,7.9c0.5,7.7,1.3,12.1-1.6,18.9L298.8,639.7z M286,535.5
			c0.4,0.4,1.1,0.4,1.3,1.3c0.2,0.9,1.1,1.1,1.3,1.3c6.4,7.7,5.1,4.8,2.6,9.5c-7.3-4.4-4.8,1.1-5.3-11.9L286,535.5z M342.2,474.3
			l-7.5,5.7c2-8.1,4.6-11.9,10.1-15.9L342.2,474.3z M370.6,426.3c2-9.2,10.4-16.7,16.3-24.4c6.4-8.4,15.4-12.3,27.1-13.6l0.9,6.4
			l-23.8,13.9C381.2,415.5,378.5,420.5,370.6,426.3z M414,388.4l1.6-8.2c12.3,0.9,4.8-2.7,10.6,5.1l-12.1,3.1H414z M423.2,372.7
			l0.4-12.8l10.3-7.7C432,360.2,428.8,366.8,423.2,372.7z M433.8,339.5c-3.5,13.4-3.3,3.5-13.6,16.8c-4,5.1,0,3.5-6.8,6
			c-0.4-0.5-0.9-2-1.1-1.5l-6.8-13.7C423.7,347.2,420.8,342.5,433.8,339.5z M445.1,332.2c3.5-6.4,2.2-6.2,11.5-8.1L445.1,332.2z
			 M525.4,250.3l10.1,2c0.2,0.2,0.5,0.9,0.7,1.1l0.9,2.4c0,0,0.5,4.8,0.9,7.1c4-2.7,4.4-3.5,10.1-5.9c-3.1,6.2-2.9,4-5.1,11l5.1,2.6
			c-4,16.3-1.5,5.3,0.9,11.7c2.9,7.7,1.5,8.2-1.1,13.7c-5.1-0.7-6.2,0.4-8.4-4c-2.7-5.9,0.5-0.9,3.3-8.8c-8.6-2.9-0.2-2.2-11.2-19.4
			c-12.3-19.4-5.9-4-14.3-16.3l7.3-8.2c4,7.9,4.2,2.9,0.5,10.6L525.4,250.3z M385.3,240.3c0.4-0.2,0.7-0.7,0.9-0.4
			c0,0.4,0.9,0,0.9,0c0.5,0.4,3.1,2.6,3.3,2.7l2.6-10.3c1.1,22.2,21.6,22,23.6,21.2c0.4-0.2,1.1-0.7,1.5-0.9l14.5,1.6
			c8.2,3.1-0.7,6.8,11.4,1.1c-0.2,11.9-3.1,13.7-2.6,25.5c0.5,10.6,2.9,14.1,2.2,27.7c-4.2-7.7-6.4-35.7-7.1-45.6
			c-9.3,2.6-3.3,2.6-12.6,5.1v-7.7l-10.3,10.3c-5.5-4.8-3.7-1.1-5.7-9.7c-0.5,0.4-4.6,2.6-4.9,2.6c-4.6,0,1.5,0.2-7.1-3.3
			c4,9,1.5,5.1,0,7.7c-4.4-8.2-9-15.6-10.3-28L385.3,240.3z M309.1,224.9c1.5,1.8,1.6,1.1,3.5,4.4l16.1,45.2
			c1.3,11.2,0.5,2.7-1.6,6.6c-2.9-18.5-15.4-36.3-17.8-56L309.1,224.9z M362.7,145.9c4.8,2.4,2.2-1.6,4,3.3c2.9,7.5-1.1,3.1-2.4,4.6
			L362.7,145.9z M357.8,140.6l4.9,5.3l-5.3,0.2L357.8,140.6z M314.2,115.5c2.2,20,1.6,22.5,15.2,15.2c3.3,11,9,11.7,10.3,25.6
			l-2.4-2.6c-0.4-0.5-1.8-2.2-2.2-2.9c-3.5-5.1-0.9-0.2-3.3-7c-4.9,2.4-0.4,2.4-7.9,1.3c-10.8-1.3,4.6,0.4-5.3-1.8l-14.3-4.8
			c-1.6,7.3-2.6,7.9-2.6,17.8c-1.3-1.8-1.6-1.1-3.1-4.6c-0.5-1.5-1.6-5.3-1.6-5.9c-0.7-4-0.5-10.6-0.7-15
			c6.2-4.9,13.2-11.7,18.3-15.2L314.2,115.5z M332.2,113.2c4.8,5.3,6.4,8.8,8.8,17.8C334.3,125.6,332.9,123,332.2,113.2z
			 M329.6,103.1c-5.1-0.9-13.4,0.5-2.6-19C327.8,92.8,329.4,93.7,329.6,103.1z"/>
		<path class="st0" d="M512.2,555.6c-6-2.9-4.9,0-22.3,0c4.8-7.1,8.4-9.5,17.8-12.8c1.3,11.7-3.7,6.8,8.2,7.9L512.2,555.6z
			 M487.6,538c-2.6,8.6-4.2,13-10.6,17.6c1.1-4.8,1.5-7.3,4-11.5c3.7-6.2,1.8-3.5,6.6-6.2V538z M487.6,538c1.6-4.2,2.6-6.8,4.8-11.2
			c-9.5,3.5-9.3,5.9-17.8,8.4c2.4-5.1,3.5-6.4,4.8-12.5c-15.4,11.7-2,16.1-12.5,32.8c3.7,10.1,5.1,12.6,15.2,15.2
			c-1.6-2.4-10.8-12.6,5.9-8.6c4,0.9,2.2,4.2,4-1.5c10.6,0,8.2-1.1,15.4,2.6v-5.1c0.4,0.5,0.9,1.3,1.1,1.6l2,3.1
			c0.2,0.4,0.9,2,0.9,1.5c0.2-0.4,0.7,1.1,1.1,1.5l-0.5-10.1h6c0.9-10.8-1.3-5.9,7.1-10.3c0.2,0.4,0.4,0.9,0.4,1.1l1.5,3.7
			c0-0.4,0.4,0.9,0.5,1.3c9-4,13-9.2,20.1-13.4c5.3,6.8,10.1,12.8,15.6,19.8c9,11.2,4.9,14.1,11,22c7.5,9.5,5.9,3.3,10.6,22.5
			c9,36.8,13.4,21.6,11.4,88.1c-0.4,12.3-3.7,14.7-9.9,23.1c-4.6,6.4-12.3,10.1-19.6,12.5c1.6-5.1-2.7-0.4,6.4-7.7
			c5.3-4.2,2.6-1.5,6.6-6.6c-11,1.5-2,3.3-14.3,6.6c-5.9,8.1-9.2,6.2-14.3,11.2l-11.9,14.1c14.5-2.4,26.2-12.6,37.2-17.8
			c-9.5,63.7,3.7,54.9-0.5,84.2c-2.4,16.1,1.1,31,1.8,43c0.7,16.5,2.7,26.6,18.1,28c-3.1-11.2-4-5.3-9.3-13.6
			c-3.8-5.9-3.1-10.6-6.4-18.1l7-2.7c-3.3-1.3-2.4-0.7-5.1-2.6l-3.8-3.8c3.5-4.8,0,0.2,3.7-3.8c8.1-9,3.1-7.5,8.4-14.7
			c5.3-7,11.2-5.7,4.9-16.5c-5.9,4.6-3.7,4.8-9.5,9.5c-7.5-10.6-2.9-9.2-3.7-22.9c-0.4-6.2-3.7-19-3.3-27.5
			c14.8-2,13.6-1.5,22.2,4.4c-2.9,8.4,2,1.3-4.9,7.5c18.3-1.6,5.5-14.1-1.1-19.2c-2.9,1.3-4,1.5-8.6,2.2l-8.2-0.7
			c3.7-7.7-3.5-2.7,7.5-5.3c8.6-2,7.9,0.9,14.1-6.2c0.5-0.5,1.6-2,2.2-2.7c2-2.7,2.6-4.2,4-6.8c-8.1-5.5-2.4-3.1-10.3-4.4l-7.3,2.6
			c0.5,0.4,1.3,0.7,1.6,0.9l3.7,1.3c0.5,0.2,1.5,0.4,2,0.5c3.1,0.9,3.5,1.1,4.9,1.8c-10.8,0.7-11.9,1.1-20.1,2.9
			c1.3-11.9,3.1-8.8,8.2-16.3l2-4.2c7.1,1.1,13.6,2.6,22.9,2.7l-23.1-4.9c3.3-11,5.1-6.4,6.8-13.6l1.8-8.4c1.3-5.3,1.1-2,1.6-9
			c7.9,8.6,11.7,10.3,22.9,5.3c-2.7-1.6,0-0.9-4.4-1.5c-0.4,0-1.3,0.2-1.6,0c-20.9-1.8-10.3-25.3-19.4-67.4c7.1,4.6,8.2,6,19.8,0.5
			c-6.2-3.5-1.6-0.2-14.3-0.9c3.7-20.5,14.7-20.3,20.7-32.8c-11.2,2.4-10.8,3.5-17.8,10.8c-2.6,2.7-3.8,3.7-5.9,6.8l-4.8,7.9
			c-2.7-12.3-3.1-4.6,2.4-15.6c4-8.1,0-2.4,2.7-15h-7.7c-0.2-4.9-0.9-11.9-1.5-14.5c-1.3-6.2-1.1-2.6-6.4-8.4
			c0.9-10.4,3.1-13.6,7.5-20.1c-9,2.4-7.5,2.6-10.1,12.6l-18.3-6.2l8.1-4c-8.1-2.7-2.4-0.9-5.3-2.6c-0.5-0.2-1.1-0.7-1.5-0.9l-8.8-4
			c7.3-9,0.2-0.4,4.9-9.7l-9.5-5.7l12.6-2.7c-12.5,0-11.4,1.6-17.8-2.6c1.3-3.5-3.1-7.1,25.5-7.7c-13.4-9.3-15.8,10.6-33-7.5
			c-0.4,0.4-1.1,1.1-1.3,1.3l-6.2,6.2c3.5,8.1,2.4,2.4,7.3,10.4c2.9,4.8,2.9,7.5,5.3,12.5l-10.1,5.1v-15.2c-18.1-0.5-7-5.9-20.3,2.4
			c1.5-6.2,2.6-5.1,0.5-9.7c-4.9,5.5-11.2,17.9-28.2,20.1L487.6,538z"/>
		<path class="st0" d="M540.2,482l10.6,12.5c-12.1-0.5-15.4-0.9-17.9-10.3c-6,1.5-14.7,2.9-20.5,5.1c1.5-15,9.3-15.8,17.9-22.9
			c-6.4,0.5-5.9,0.4-10.1,2.4c-0.4-0.4-0.9-1.6-1.1-1.3l-2.4-1.6c-0.2-0.2-0.9-0.4-1.3-0.4l-5.5-1.6c2.4-4.2,5.1-10.4,7.5-15.2
			c-0.4-0.2-0.9-0.9-0.9-0.5l-4-2c0-4.6,0.5-5.3-0.9-9.7c-1.6-5.1-4-0.4-2.7-5.7c2-7.5,11.9,1.5,13.7,2.7
			c-4.4-17.9-7.1-8.1-2.4-30.8c-6.4,4.9-9.9,12.1-6.4,22c-10.4,3.1-21.4,5.3-29.3,1.3l-0.2,10.1c3.8-1.8,5.3-3.5,11.9-2l11,7.1
			c-2.4,9.5-4.2,7.1-5.1,17.9c-13.6-1.8-9.2-6-12.6,2.4l9.3,1.1c-4.9,2-2.9,1.8-5.3,3.1l-16.7,6c-8.6-3.8-12.5-5.5-17.6-0.2
			c33.5,0.5,3.7,14.5,50.7,5.1c-10.1,10.4-21.2,13.2-35.5,13l10.3,4.9l-11.5,0.9c7.7,8.4,6.2-0.9,3.8,3.7c-7.3,0.4,2.4-2-7,0.5
			c-4.8,1.3-3.7,1.3-5.7,2.6c7.7,4.8,15.6,2,24.4-3.5c7.9-4.9,10.3-9.9,20.5-10.8c-2.6,4.6-5.1,8.6-6.6,14.1c5.9-3.3,22-13.6,24-0.5
			c0,0.4,0,1.3,0,1.6c0,0.4,0,1.3,0.2,1.5l0.9,2.7c6.8-2.7,4.6,5.5,5.1-10.1c6.2,2.7,21.1,0.7,28-2.6c-0.5-0.4-1.3-1.5-1.6-1.1
			l-13-17.6c-0.2-0.5-0.5-1.3-0.7-1.8c-3.1-6.4-0.4-1.6-2.9-4.9l-2.6,12.8L540.2,482z"/>
		<path class="st0" d="M367.5,608.9c2-7.1,1.5-4.6,5.1-10.3c5.1,1.1,4.4,0.7,8.2,2.2c3.7,1.5,2.7,1.6,4.8,2.9l-17.9,5.1H367.5z
			 M380.3,575.8c1.3,2.4,4.4-1.5,0.4,7.9C379,582,376.5,581.6,380.3,575.8z M388,581.1c0.7-4.9,2.9-4.2,7.7-5.3
			C391.9,581.5,395.9,579.1,388,581.1z M396.4,573.8l-6-8.1l-27.8,12.8c2.6,1.5,0.5,4,10.3-0.2c-0.4,9.2,0.9,6.4-2.7,12.6l-9.9-7.7
			c0.4,8.1,1.6,8.2,4.8,13c-9.7-1.1-9.5-3.1-17.8-5.1l5.5,7.3c-7.1-0.4-7.3-0.9-13-2.2c7.7,10.3,6.8-0.4,10.3,12.6l-12.5,0.2
			l10.1,4.9c-1.8,3.3-1.3,2.7-2.6,7.5c4.4-1.6,3.3-3.7,6.4-0.7l6.2,0.5c0.4-0.2,1.1-0.5,1.5-0.7c0.4-0.2,1.1-0.4,1.5-0.4l6.6-2.2
			c1.8-1.3,0.2-1.3,5.9-4.4l1.5,5.7c3.1-8.1-1.5-2.9,4.4-6.6c0.2-0.2,1.1-0.2,1.3-0.4c0.2-0.2,1.1,0,1.3-0.2l10.8-5.7
			c0.2,0,0.9-0.4,1.1-0.4l14.8-13.4c0.4-0.4,0.7-1.3,1.1-1.6l2-3.3c10.6,0.5,13-0.7,17.6-7c-14.3,0.7-18.9,7-14.5-5.9
			c0.2-0.4,0.4-0.9,0.4-1.3c0.9-2.6,0.2-2.6,2.7-8.2c-8.8,4.6-4.4,5.1-13.9,7.5V563l-6.8,10.4L396.4,573.8z"/>
		<path class="st0" d="M482.1,649.9c8.4-18.9,12.6-7.9,12.8-7.7C487.6,645,490.9,647.6,482.1,649.9z M503.2,639.7
			c-8.2-2.2-3.1,1.6-5.9-5.1C504.1,637.5,499.7,632.7,503.2,639.7z M527.9,634.7c-7.9-2-5.7-0.2-7.7-7.7
			C528.3,629.1,525.9,626.9,527.9,634.7z M479.6,665.3c14.8-22.9,22.7-19.4,31-22.5c8.4-3.1,3.1-3.3,11.9-5.3l5.5,7.3l-7,5.7
			c-2.9,2-5.3,3.1-8.2,4.6c-11.2,5.5-9.9,2.9-12.6,10.1l28-12.6c-6.4,17.9-14.1,3.7-20.9,25.5c24.2-10.8,22.7-0.7,31.5-30
			c2-6.4,3.7-4.8,7.1-13.2c-24.4,5.7-3.1-6.8-25.5-12.6c-11.4,2.9-3.8,3.1-11.4,6.2c-13.9,5.9-8.6-5.5-30,15.9
			c-8.4,8.4-6.2,10.3-12.5,18.1c-7.7,9.7-11,5.3-17.4,13.2c8.6,0,21.1-3.7,32.4-0.7c7.5,2-1.6,0.5,8.2,3.3c-0.9-2-8.6-3.7,6.2-13
			l-16.3,0.5L479.6,665.3z"/>
		<path class="st0" d="M395.9,466.8c-4.6,6.2-1.5,4.9-10.4,7.5l-27.1,21.2c-4.8,2-8.8,1.8-13.6,3.1c13.4,11.2-10.6-0.4,2.6,1.6
			c11.9,1.8,26.2-1.5,37.2-6.8c6.6-3.1,12.1-8.1,20.9-6.6c15.8,2.6,4.4,8.8,18.3,12.6c-4.9-9.9-5.5-12.5-17.8-14.8l12.5-15.6
			c7.5,3.3,14.8,2.2,25.6,2.4l-10.1,5.1c13.2,1.3,4.4-3.8,9,8.8c2.9,8.2,0,6.4,8.6,9.2c-2.4-4.9-3.5-7-5.3-13l7.5,4.8
			c-2-8.8-2.2-2.9-4.6-12.5c-0.4-0.4-0.9-1.8-1.1-1.3l-7.5-3.8c11.7-9,6.4-5.7,0.9-7.7l3.3-2c3.3-0.7,3.5-0.7,6.8-0.9l-2.2-7.3
			l8.2-5.1c-22.3,0.7-13.2,8.6-28.9,12.8l10.8-12.3c-25.6,5.7-22.9,29.9-43.8,36.1c5.9-10.3,5.7-4,10.4-14.7l-10.3-1.3V466.8z"/>
		<path class="st0" d="M555.2,298.7c-0.5,0-1.1,0-1.8,0.2c0.4,0.4,0.7,0.7,1.1,0.9c0.2-0.4,0.4-0.7,0.5-1.1H555.2z M612.4,387.1
			c-0.2,0.2-0.4,0.4-0.5,0.4h0.2c0.2,0,0.4,0.2,0.4,0.2V387V387.1z"/>
		<path class="st0" d="M352.3,833.1c7.3,7.3,5.3,9.3,12.8,17.9c-0.7-14.5-9.5-20.3-12.5-33.5l27.8,15.4
			c-1.6,12.8-12.1,28.4,12.8,35.5c-7.5-9.7-9-1.8-12.6-17.9c4.6,3.1,4.9,4.4,12.6,5.1c-6.6-6-7.7-9.5-2.6-20.3l-4-2
			c-0.2-0.4-0.7-0.4-1.3-0.5c10.3-19.6,2.6-4.2,2.7-27.8l-4.9,2.4c-0.2-0.2-0.5-0.9-0.7-1.1l-2-2.9c-0.4-0.4-1.8-2.7-2.4-3.5
			l-17.8,0.2c11.9,10.1,11.2,3.3,13,17.8c-6.4-4-15-8.8-24-9.5c-7.7-0.5-7.5-0.2-7.5,2.7l0.5,4c1.6,4.2,0.4,0.9,4,6.4
			c3.3,5.1,3.8,5.1,6,11.9L352.3,833.1z"/>
		<path class="st0" d="M650.1,733.5c7.9-10.3,6.8-22,0.4-32.8c0.9-1.5,1.8-2.7,2.9-4c-1.1-1.6-2.2-3.3-3.3-4.9
			c-1.8,1.5-3.5,2.6-5.3,3.7c-7.9-1.8-7.3-2.6-17.8-2.6c0.5,0.4,1.3,0.7,1.6,0.9l5.5,2c2.6,0.7,4.4,1.1,8.2,2V708
			c5.5-2.7,0.9-0.7,7.7-2.6c2.6,16.8,2.7,11,0.2,27.8L650.1,733.5z"/>
		<path class="st0" d="M643.1,364.2l-0.5,1.3l0.5-2C643.1,363.7,643.1,364.1,643.1,364.2z"/>
		<path class="st0" d="M377.4,473.6l8.2,0.5c4.4-4.9,3.3-4.9,10.4-7.5c4.8-8.2,9.5-10.1,15.6-17.6c5.1-6.2,10.8-12.6,14.7-18.3
			l2.6,7.7c10.6-4.8,8.8-7.9,23.4-10.8c7-3.5,20.9-3.3,26.6-0.5c2.2-2.6,1.8-2.4,3.5-6.6c-6.4,3.1-19.2,3.8-28,2.7
			c-13-1.6-2.7,0.4-7.5-2.7l10.1-2.6c-0.2-0.2,1.5-7.9-17.6,0c-22.2,9.2-30.2,26.6-45.6,42.9c2.2-10.6,3.8-3.3,3.8-13.9
			c-6.4,8.8-14.1,20.1-20,26.4L377.4,473.6z"/>
		<path class="st0" d="M457.1,374.3l-0.2,0.4h0.4C457.2,374.5,457.2,374.3,457.1,374.3z M448.4,345.4c-0.2,0-0.5,0-0.7,0.2
			c0.2,0.2,0.5,0.2,0.7,0.4V345.4z"/>
		<path class="st0" d="M614.4,726c3.5,9.7,8.4,5.5,9.5,13c1.6,9.5,0.2,1.1-2.2,4.8c0-8.8,0.7-2.6-2.7-4.6l-9,3.7
			c5.3,2,3.3,0.9,8.8,6c-5.1,10.8-0.4,6.6-11.2,6.2c0.2,0.7,8.4-2.9-3.5,6.4c6.8,7.3,7.7,13.7-0.7,22.5l-5.9,5.7
			c21.1-1.6,1.6-7,21.6-7.7c-6.4-9.5-4-1.6-3.3-10.6c0.7-9.2,0.4-8.8,3.3-14.8l7.7,7.9c-0.2-36.8,1.3-11.5,8.1-30.8
			c-0.4-0.2-0.9-0.4-1.1-0.4c-0.2,0-0.9-0.4-1.1-0.4c-0.2,0-1.1-0.4-1.3-0.5l-2.6-1.3c0.4-0.5,1.1-1.1,1.3-1.5l1.8-11.4l-5.1,7.7
			c-4-2.6-4.6-3.5-10.4-4.8l5.3,7.3c-7.1-1.3-2.9,0.5-7.7-2.6H614.4z"/>
		<path class="st0" d="M349.9,682.9c-3.8,5.1-0.5,3.1-7.7,6C345.7,683.3,342.6,684.7,349.9,682.9z M329.4,685.5l-4.8,4.6
			c-0.9,14.7-7.3,20,4,25.8l-1.6-15.6c9.9,2.9,7,1.5,5.3,10.1l4.9,0.2c3.3-9.9,9.9-13.6,17.9-17.8c-0.4-0.4-1.3-0.9-1.5-1.1l-3.7-9
			c3.3-9.2-2.2-2.7,4.9-12.8c-11.5,3.5-14.7,9.5-20.7,17.4l-4.8-2L329.4,685.5z"/>
		<path class="st0" d="M510.2,598.9c-10.6-1.1-8.1,3.8-6.8-9.9L510.2,598.9z M490,591.2l3.3,4c5.9,13.2-5.9,23.6,6.6,31.1
			c4.8-7.7,3.8-0.2-2.6-9.7l15.2-15.2c1.3-4.6-3.1-10.6-6-14.3c-5.1-6.4-4.8-4.4-11.2-8.1l-5.3,12.3V591.2z"/>
		<path class="st0" d="M282.7,118.3c0.4,0,0.7-0.2,1.1-0.2c-0.2-0.9-0.4-1.6-0.5-2.4C283.1,116.6,282.9,117.4,282.7,118.3z"/>
		<path class="st0" d="M423.7,850.7c0.2-44.9,4.6-24,9.5-42.5c-7.1,4.8-7.1,2.7-9.5,12.1l-9-6.4c-0.2-0.7-0.9-0.7-1.3-1.1
			c-2,8.1-4.2,6.6-4.9,13c-0.9,7.5,1.8,8.8,4.9,12.3l-5.1,7.7c5.7-2.7,5.5-4.6,12.6,2.6l2.6,2.7L423.7,850.7z"/>
		<path class="st0" d="M332.5,783.1c0,0.2,0.4,0.9,0.4,1.1c0,0.2,0.2,0.9,0.4,1.1c3.3,6,3.1,2.7,8.6,7.5c8.1,7.1,2.6,8.1,9.7,11.4
			l3.5-11.9c-6.4-28.6-28.4-12.8-40.5-10.3c5.9,4.4-8.1,4.2,9.3,2c0.4,0,5.1-1.5,8.6-1.8c0.2,0.4,0.4,0.9,0.4,0.9H332.5z"/>
		<path class="st0" d="M355,761.7c6.2-1.3,1.6,2,4.4-1.8c-8.6-10.1-11.9-19.4,0.4-31.5c6.4-6.4,10.4-7.3,15.4-15.2
			c-14.1,4.2-19.2,12.3-25.5,20.7c-3.5-2.4-4.8-2.9-8.2-5.1c3.7,9.2,3.3,3.1,5.7,12.8c-3.7-2.6-4.9-4.8-9.5-6.2
			c-11-4-7.5,0.5-8.4,1.1c9.5,2.6,19.6,16.7,25.5,25.5L355,761.7z"/>
		<path class="st0" d="M452.1,428c-0.5,0.5-1.3,0.5-1.6,1.3l-4.9,3.3c-4.4,3.8-2,0-4.2,5.9c5.7-3.1,6.4-4.6,14.8-4.8
			c-3.1,2.7-2.7,2-4,6.6c3.3-1.5-1.1-4.9,4.9-0.7c0.2,0.2,0.5,0.7,0.7,0.9l0.9,2.4c0,0.2,0.2,0.9,0.4,1.3c7.1-4,0.2-3.3,10.3-0.5
			c0.2,0.4,0.5,0.5,0.5,1.1c0,0.5,0.5,0.9,0.5,1.1s0.4,0.9,0.5,0.9l0.9,2c5.9-2.7,3.8-2.4,12.6-2.6l-7.3-10.1
			c-0.2-0.2-0.7-0.9-0.9-1.1c-0.2-0.2-0.5-0.9-0.7-1.1l-0.9-2c0-0.2-0.2-0.7-0.4-0.9l-22.3-2.9H452.1z"/>
		<path class="st0" d="M571.7,202.5c3.5,6,0.4,5.1,6,10.6c5.5,5.5,20.3,1.8,21.4,37c10.1-8.2,0.2,4-0.2-30.2
			c-44.9-18.3-5.3-25.5-17.6-51.1l-1.8,3.3c-0.2,0.5-0.4,1.5-0.5,2l-1.6,11.2c-1.5,5.9-3.8,12.6-5.7,17V202.5z"/>
		<path class="st0" d="M597.2,458.6l-13.4,4.2c10.3,0.9,6.4,1.6,13-1.5c-1.1,26.9-21.2,19.2-28,30.6c33.5-7.9,26.7-16.1,35.5-30.2
			c4.6,0.2,9,0.2,12.1,2.9c4,3.5,2.4,6.4,5.7,12.1l0.4-12.6c-8.6-4.4-5.9-2.6-15.4-5.1c-12.5-3.3-2.9-4.2-15.6-7.5l5.9,7.3
			L597.2,458.6z"/>
		<path class="st0" d="M495,942.2c-9.9,0-6.4-19-3.5-26.4c3.8-9.2,9.2-13.9,11-24.4c-7.1,6.2-23.3,31-14.8,50.9
			c-12.1-3.3-9.5-7-5.5-23.1c-3.8,2.6-5.3,2.9-7,8.6c-5.5,19.8,15.6,17.4,29.9,16.8c-4.2-10.8,0.9-2.6-10.3-2.6H495z"/>
		<path class="st0" d="M286.4,448.7c0,16.3,2.7,13.7,0,25.3c12.6-5.1,5.3,7.3,11.7-6.6l4.9,12.3l0.4-17c-12.6-5.7-2.6-6.4-10.1-7.1
			c-7.5-0.7,5.9-4.9-3.3,2c-0.2,0.2-0.7,0.9-1.3,1.5c0.9-16.1,9-21.2,15.2-30.6c-10.6,3.1-4.4,0.9-9.9,7.9
			c-4.2,5.1-7.9,6.6-7.9,12.5H286.4z"/>
		<path class="st0" d="M377.9,665c12.6,14.1,16.1,6,15.2,28c-13.6,0-14.7-2.9-20.3,4.9c16.5-4,14.5-4.9,15.8,14.7
			c2.7-3.7,24-46.7-10.8-47.8L377.9,665z"/>
		<path class="st0" d="M268.4,454.5l5.1-0.7c1.5-10.4,2.2-10.6,7.9-17.6l4.9-6.4c0-0.4-8.1-5.3,2-5.3c12.5,0-6.8,3.7,5.1,2
			c4.4-0.5,4-3.7,5.5-5.9c-17.6-4-18.9,1.3-25.8,14.8c-5.7,11-4.8,6.2-4.8,18.9V454.5z"/>
		<path class="st0" d="M459.4,626.7c7.1,2.4,3.7,2,12.5,2.6c1.6-3.1,1.5-2.7,2.9-6.8c2.2-6,16.5-13.2,6.6-17.6
			c-8.2-3.5-15.2,16.1-15.2,16.1c-0.4,0.5-0.7,1.1-1.1,1.6l-5.9,4H459.4z"/>
		<path class="st0" d="M423.2,868.8c4.6,3.5,5.7,3.5,9.9,7.9c5.9,6.2,1.1,5.1,10.8,7c-4.2-12.8-25.1-29.3-40.7-30.4l19.8,15.6H423.2
			z"/>
		<path class="st0" d="M238,484.4c8.6-2.4,7.5-0.2,17.8-2.6c-0.4-0.2-3.1-2.9-3.7-3.8l-4-18.9c-9,9.3-9.9,12.5-10.3,25.5L238,484.4z
			"/>
		<path class="st0" d="M471.5,916.4c-8.1,6-12.3,16.5-7.7,28.8c2.4,6.2,4.4,8.4,9.7,11c16.1,7.7,13.7,1.5,13.9,1.5
			c-13.7-7.1-11.4-0.2-20.5-15.2c-0.2-17.8,2.7-13.6,4.6-25.8V916.4z"/>
		<path class="st0" d="M413.1,782c1.6-1.3,1.5-1.6,4.8-3.1c8.1-3.5,7.1,0.5,14.1-7.1c-11.4,0.9-20.5,5.9-33.9,7.7
			c7,4.4,6.6,1.8,12.3,4.2c-9.3,1.3-9.2-0.2-14.8,3.5c7.1-0.2,12.3,0.4,19.4-1.1c13-2.4,8.8,0,9.9-4.8l-11.9,0.7H413.1z"/>
		<path class="st0" d="M336.9,573.6c0.2,0.7,0.2,3.5,0.2,4.9l-5.5-0.2l2.7-10.1C336.2,571,335.4,568.8,336.9,573.6z M323.9,581.6
			l13.9,3.7c0.4,0.2,1.1,0.5,1.8,0.7c0.2-16.8-0.5-25.5-9.9-32.8l2.7,15l-8.4,13.4H323.9z"/>
		<path class="st0" d="M253.2,451.2c4.8,14.1,7.3,17.9,17.8,25.5c-3.1-11.5-5.1-8.6-12.6-22.9c2.2-4.9,3.7-9.3,5.1-15.2
			c-7.9,5.3-5.7,4.4-10.1,12.6H253.2z"/>
		<path class="st0" d="M629.8,855.6c-9.7-5.9-9.7-5.9-25.5-4.9c-0.2,0.4,0,0.7,0,0.9c0.5,12.8-4.4-2.2-15.2,4.2l10.1,2.7
			c5.3,0.2,8.1-0.9,11.7-1.5c10.8-2,18.9,2.7,19-1.3L629.8,855.6z"/>
		<path class="st0" d="M419,752.3c30.6,7.3,31.7,2,27.5,31.9c7.3-5.3,3.3-1.6,7.9-9.9C449.9,754,443.7,751.2,419,752.3z"/>
		<path class="st0" d="M369,532.7c-9.9-5.1-7-6-15.4-6.6c8.6,6.8,8.8,3.7,9,16.7c2-1.8,4.2-4.4,6-5.7l6.8-4.6
			c-2.9-5.5-4.4-7.7-7.7-12.6H355C368.8,527.2,364.9,517.4,369,532.7z"/>
		<path class="st0" d="M281.8,497.8c2.4-4-0.5-0.7,3.5-4.2c0.2-0.2,1.5,0,1.6-0.9s1.3-0.5,1.8-0.7c1.8-2.2,0.7-3.1,2.6-6
			c-8.2-0.4-11.9-2.6-22.9,13.7L281.8,497.8z"/>
		<path class="st0" d="M248.1,542.8c9.5,0.2,5.3-6.4,4.4-17c-1.3,0.9-1.6,1.3-3.3,2.9l-2.4,2.6c-0.2,0.4-0.9,0.9-1.3,1.5
			c1.5-9.5,3.7-6.6-0.5-12.8C240.8,531.1,241.7,535.9,248.1,542.8z"/>
		<path class="st0" d="M452.1,756.5c-6.4-16.8-33.3-25.5-46.3-17.9C439.5,738.2,437.5,747.6,452.1,756.5z"/>
		<path class="st0" d="M471.5,916.4c8.2-4.2,23.6-23.6,26-32.6C493.3,886.6,475,906,471.5,916.4z"/>
		<path class="st0" d="M606.9,547.9l5.1,7.5l3.8-7.9l2.2,7.1c0.7-0.5,1.1-1.6,1.3-1.3l3.5-5.1c5.1-4.8,0.7,2.9,6.8-7.9
			C619,542.3,614.2,544.1,606.9,547.9z"/>
		<path class="st0" d="M561.6,606.5c4,9.5-0.7,7.5,10.4,10.3c-9.3-15.2,7.5-5.9-0.9-21.1C565.5,600.3,565.8,600,561.6,606.5z"/>
		<path class="st0" d="M301.6,830.3c0-4.9,3.7-9.9,6.2-15.2c-13,10.3-18.1,30.8,1.8,35.5C301.9,841,301.6,846.6,301.6,830.3z"/>
		<path class="st0" d="M413.5,680.2c1.1,9.5,0,4,2.9,7.5c2.2-3.3,4.6-8.2,7.1-11.7c-4.4-9.7-3.8-9.5-12.1-15.6
			c1.6,9.7,2.9,3.8,4.2,10.3C417.3,678.3,416.2,677.8,413.5,680.2z"/>
		<path class="st0" d="M377.9,532.6c12.3,0.2,12.5,1.1,20.1,5.3l-0.7,11.4c0,0.2,0.4,0.7,0.5,1.3c3.7-7.1,2.7-5.5,2.7-16.3
			c-9.7-4.2-10.3-1.6-12.6-11.9c-0.4,0.5-0.7,0.9-0.9,1.8c-0.2,0.9-0.7,1.3-0.9,1.6s-0.7,1.3-1.1,1.6c-0.4,0.4-0.9,1.1-1.1,1.5
			l-5.9,4L377.9,532.6z"/>
		<path class="st0" d="M543.1,947.4c-4.2,2.7-1.6,2.6,0,11.5c-10.8,0-3.8-2.9-9.3,7.1c-2.7,4.9-3.8,5.9-6.6,9.3
			c11.5-4,22-14.8,15.8-28H543.1z"/>
		<path class="st0" d="M530.5,466.6c17.4-5.3,18.3-25.5-7.5-25.5v2.6c7.9,0,10.4,2,15.2,4.9c-0.4,14.5-1.3,9-7.7,18.1V466.6z"/>
		<path class="st0" d="M413.5,680.2v-10.3L406,675c-1.8,7.9-3.7,11.5-7.7,17.8C412,689.1,399.5,688.4,413.5,680.2z"/>
		<path class="st0" d="M648.1,913.3c1.5,8.1,6.2,14.7,12.1,18.7l-10.3-28c-1.3,1.8-4-3.1-2,9.3H648.1z"/>
		<path class="st0" d="M531.6,755.4c11.5,0.5,27.5-9.9,31.9-16.7C556.7,740.6,539.1,751,531.6,755.4z"/>
		<path class="st0" d="M431.4,825.4c-0.4,20.3-2.9,26,14.8,30.2C423.7,834.9,439.7,839.5,431.4,825.4z"/>
		<path class="st0" d="M463.8,856c-6.2-0.9-11.5,1.6-16.5,4.4h20l9.7,8.1c-2-7.1-5.5-11.2-13.2-12.3V856z"/>
		<path class="st0" d="M323.9,581.6l-7.1-18.3c5.7,23.6,2.6,18.1-7.5,33c10.3-2.7,8.1-4.8,14.5-14.5L323.9,581.6z"/>
		<path class="st0" d="M231.2,537.7c-4.6-11.7-3.8-7.9-3.5-22.9C219.9,525,220.6,531.6,231.2,537.7z"/>
		<path class="st0" d="M626.5,773.6c9,16.3,1.5,13.4,5.9,21.1c3.7-7.5,2.6-7.1,2.6-17.8L626.5,773.6z"/>
		<path class="st0" d="M487.3,863.3v17.8c7.3-8.8,8.4-19-7.5-22.5L487.3,863.3z"/>
		<path class="st0" d="M327,629.4c3.1-2.4,3.8-1.1,4.9-5.7c2.9-11.4-2.4-9.3-2.4-9.3C324.6,621.9,325.6,621.4,327,629.4z"/>
		<path class="st0" d="M469.7,871.2c8.2,15.8,3.8,9.9,2.4,22.5c0.9-1.3,2.2-0.5,4.2-6c0.7-2.2,1.3-4.4,1.3-6.8
			c-0.2-9.5,0-6.8-7.7-9.9L469.7,871.2z"/>
		<path class="st0" d="M325.6,564.8c3.8-10.8,0.2-10.4,6.4-21.6c-4.4,1.5-4.9-1.8-7.3,7.7C323,557.5,323.9,558.7,325.6,564.8z"/>
		<path class="st0" d="M466.2,511.9c-5.9-3.1-7.7-1.5-13.7-5.5c-4.6-3.1-5.7-5.7-11-9.3C445.7,507.8,451.7,512.6,466.2,511.9z"/>
		<path class="st0" d="M633.1,707.5c7.1,7,2,7.1,6.8,17.2c0.4-15,2-20.1-12.5-21.6L633.1,707.5z"/>
		<path class="st0" d="M683.6,950.3c0.5,0.7,1.1,2.7,1.5,3.3c3.7,7.9,3.3,3.5,3.3,14.1c2.2-2.6,3.5-4.2,4-5.1
			c0.2-1.8,0.2-3.7,0.5-5.5c-3.5-3.5-4.4-4-9.2-6.8H683.6z"/>
		<path class="st0" d="M385.4,563.1c8.8-7.7,3.7-15.9-7.5-17.6C385.1,551.6,385.4,550,385.4,563.1z"/>
		<path class="st0" d="M395.7,835.5l-4.8,7.5c4.2,8.6,1.8,7.1,9.9,12.6c-4-11.7-4.9-3.8-5.1-20.3V835.5z"/>
		<path class="st0" d="M629.8,748.8l7.5,20.1C637.6,751.8,638,752,629.8,748.8z"/>
		<path class="st0" d="M220.1,540.2c-2.2-8.2-3.5-5.1-4-10.1c-0.4-3.3,2.2-4.9-0.7-9.9c-5.3,11.2-3.5,14.5,4.9,20.1L220.1,540.2z"/>
		<path class="st0" d="M634.9,558l13-1.8c0.4-1.1,0.9-2.2,1.5-3.3C643.1,552.9,638.5,553.4,634.9,558z"/>
		<path class="st0" d="M453.8,477.1c6.4,11.4-0.4,2.2,15.8,9.9C466.9,479.8,461.4,478.7,453.8,477.1z"/>
		<path class="st0" d="M395.7,835.5h5.9c-0.9-11,0.9-8.1,1.8-17.9c-3.8,4-2.7,1.8-4.8,8.1C396.8,831.8,398.8,829.1,395.7,835.5z"/>
		<path class="st0" d="M286.4,703.2c9.3,18.1,5.7,7.7,19.4,14.3L286.4,703.2z"/>
		<path class="st0" d="M418.6,708.2c7.3-6,7.7-7.9,7.7-20.3c-1.6,2.4-0.5,0.2-2.7,4.8l-4.8,15.4L418.6,708.2z"/>
		<path class="st0" d="M309.3,481.6c5.7-8.1,5.5-10.8,2.6-17.8c-0.4,0.5-0.9,0.7-0.9,1.6c-0.2,0.9-0.7,1.3-0.9,1.8
			c-0.4,0.9-1.5,5.7-1.5,6.4L309.3,481.6z"/>
		<path class="st0" d="M398.1,161.1c3.1-1.8,0.7,1.8,4.6-2.9c4.2-5.1,1.1-0.2,3.1-7c-10.4,1.6-7.7-2.4-7.7,10.1V161.1z"/>
		<path class="st0" d="M627.2,868.4c6.2,1.3,4.8,0.5,10.1,7.7c-1.1-13.2-2-3.3-4.9-15.4L627.2,868.4z"/>
		<path class="st0" d="M449.2,474.1l4.8,2.9l3.1-7.9c-7.5-2-2.2,0.2-7.9-2.6V474.1z"/>
		<path class="st0" d="M375.4,746.3l5.1-15.2c-4,2.9-3.8,0.5-6.2,7C370.8,747,374.1,745.2,375.4,746.3z"/>
		<path class="st0" d="M337.1,710.8l4.6,2c1.8-2.2,1.5-1.8,3.5-4c4-4.2,3.8-3.3,7.1-8.1C342.4,704.3,344.6,706.2,337.1,710.8z"/>
		<path class="st0" d="M286.5,499l-4.8-1.3c-6.2,7.5-4.9,4.6-5.9,12.1c4-2.9,2-1.3,5.5-4.9c0.5-0.5,1.8-2.4,2.4-2.9
			c0.4-0.4,1.1-1.1,1.5-1.5c0.4-0.4,0.9-0.9,1.5-1.3L286.5,499z"/>
		<path class="st0" d="M421.7,517c4-3.5,3.1,0,5.3-6.6c4.4-12.5-0.4-6.8-1.5-8.2l-4,14.8H421.7z"/>
		<path class="st0" d="M398.1,161.1c-2,1.3-1.6-0.2-5.7,4.2c-4.4,4.8-2.6,2.7-5.1,8.6C394.2,170.1,396.1,169.6,398.1,161.1z"/>
		<path class="st0" d="M355.8,547.8c-0.4-0.2,3.5-4,3.1-7.9c-0.5-4.6-1.5-3.1-6.4-5.5l3.3,13.6V547.8z"/>
		<path class="st0" d="M566.2,718.4l7.5-10.3c-9,2.6-5.5,2.7-13.2,8.8l5.5,1.5H566.2z"/>
		<path class="st0" d="M627.4,886.4c0.5,0.4,1.3,0.7,1.5,0.9l13.4,9c-1.8-5.9,0.9-3.8-4.9-7.5c-3.3-2-4.4-1.8-10.1-2.4H627.4z"/>
		<path class="st0" d="M599.9,493.7c12.5-1.6,9.7-2.9,11.9-4.4C611.3,489,611.8,480,599.9,493.7z"/>
		<path class="st0" d="M622.4,873.2c-7,0.9-7.3,1.6-13,2.9c2.2,1.5-4.6,4.8,7,2.4C620.8,877.6,619.9,876.5,622.4,873.2z"/>
		<path class="st0" d="M319.3,649.6c-2.4-5.3-2.2-1.5,0.2-7.5c-8.6,1.3-5.3,0-10.3,5.1L319.3,649.6z"/>
		<path class="st0" d="M419,533.1c-0.9,11.2-0.2,7.7-5.1,14.5C422.3,545.7,423.9,543,419,533.1z"/>
		<path class="st0" d="M540.2,924.7c-10.6-2-6.4,1.8-7,3.1l11.5,0.7C542.9,925.6,546.2,925.8,540.2,924.7z"/>
		<path class="st0" d="M588.9,519.9c-2.7-8.1-6.2-7.3-15.4-7.7L588.9,519.9z"/>
		<path class="st0" d="M329.4,685.5c6.4-4.4,6.8-4.4,10.3-12.8C333.4,677.1,331.8,677.4,329.4,685.5z"/>
		<path class="st0" d="M675.5,784.6c0.2-0.5,4.2-2.6,4.2-7.7c0-3.3-4.2-4.9-4.2-5.1v12.6V784.6z"/>
		<path class="st0" d="M339.8,665.2c7.7-1.5,6.2-0.2,11.9-5.3c-3.5-1.5-2.9-1.6-6.6,0.2C333.6,665.9,344.2,659.7,339.8,665.2z"/>
		<path class="st0" d="M232.9,507.3l10.1-13.4C234.7,497.4,233.8,497.4,232.9,507.3z"/>
		<path class="st0" d="M233.1,558c7-5.3,3.8-2.4,7.5-12.5C234.2,550.1,235.1,548.5,233.1,558z"/>
		<path class="st0" d="M500.1,1003.2h4.9l-2.6-10.3c-3.3,5.3-2.4,0.4-2.6,10.3H500.1z"/>
		<path class="st0" d="M393.1,802.3c-2.6-9.5-1.6-8.1-11.5-9.7L393.1,802.3z"/>
		<path class="st0" d="M308.9,430.5c4.9,5.1,11.7,7.9,6.4-2.6L308.9,430.5z"/>
		<path class="st0" d="M395.3,782.4c-3.5-2.4,3.3-1.6-6.8-2.6c-3.3-0.4-2.4,0.5-4.4,1.1C390.2,786.4,384.7,785.1,395.3,782.4z"/>
		<path class="st0" d="M548.3,963.3c6.8-5.1,7.3-7,5.1-14.7L548.3,963.3z"/>
		<path class="st0" d="M370.2,666.6c-9.9-2.9-4.4-2-9,2C374.8,672.8,368.8,667.9,370.2,666.6z"/>
		<polygon class="st0" points="447,820.6 441.5,817.5 441.5,827.8 		"/>
		<path class="st0" d="M460.5,755.3c2.9,6.8,0.2,1.3,1.1,6.2l2.6,7.7c0.2-18.3,0.5-13-3.8-13.9H460.5z"/>
		<path class="st0" d="M581.4,616.4c1.3-2.4,2.4,1.3,1.3-3.8c-2.4-9.7-2-4-3.8-6.6c0.2,9.3-1.1,5.3,2.6,10.3V616.4z"/>
		<path class="st0" d="M629.8,855.6l2.6,5.1c1.5-2.6,1.6,0,1.8-4.6c0.2-3.8-0.4-2-3.1-5.7l-1.3,5.3V855.6z"/>
		<path class="st0" d="M348.6,550.7c1.1-13.9,3.7-9.7-3.5-13.2L348.6,550.7z"/>
		<path class="st0" d="M377.4,473.6c-12.5,1.1-3.5,0.2-7.1,3.1c1.5,0.7-2.7,5.3,4,1.3C378.5,475.6,375.4,477.4,377.4,473.6z"/>
		<path class="st0" d="M685.6,937.1c0.4-0.9,3.5-2,4.8-5.5v-0.2c-0.4-2.2-0.5-4.4-0.5-6.6c-0.2-0.4-0.2-0.5-0.4-0.9l-3.8,13V937.1z"
			/>
		<path class="st0" d="M316.8,817.5c2.4-3.7,2.4,5.3,2.6-7.5c-3.3,2-1.3-1.8-3.8,3.5C311.8,821.2,315.5,815.3,316.8,817.5z"/>
		<path class="st0" d="M268.4,481.8c4.8,2.9-5.7,2.9,4.9,2.2c4.8-0.4,2.6-0.7,4.8-2c-4.8-1.1-7.5-2.7-9.9-0.2H268.4z"/>
		<path class="st0" d="M352.3,833.1l-4.8,2.2c1.6,2.4,0.2-0.7,2.6,4.9c0.2,0.5,0.9,3.3,1.6,4.2L352.3,833.1z"/>
		<path class="st0" d="M612,891.5c2.4,1.5-2.7,1.1,6.8,3.3c8.8,2,2.7,0.5,5.7-0.9L612,891.5z"/>
		<path class="st0" d="M622.2,924.5c3.3,2-1.3,3.3,9,1.5c-0.9-0.5-4.2-2.6-4.8-2.6c-5.3-1.1-1.1-0.5-4.2,1.3V924.5z"/>
		<path class="st0" d="M650.1,733.5c-3.3,2.6-1.3-2-3.8,3.7c-3.7,7.7-0.2,1.6,1.3,4C649.4,737.7,648.8,738.2,650.1,733.5z"/>
		<path class="st0" d="M342,478.9c2.4,4-3.3,4,4.9,2.4l0.7-4.4L342,478.9z"/>
		<path class="st0" d="M334.7,512.4c5.5-3.8,3.1-0.4,4.9-7.5C335.8,507.8,335.1,505.8,334.7,512.4z"/>
		<path class="st0" d="M375.4,746.3l2.6,7.7c1.6-2.9,2.4,1.1,1.3-4.2C377.9,743.7,377,747.6,375.4,746.3z"/>
		<polygon class="st0" points="327,629.4 322.1,626.5 323.5,634.4 		"/>
		<path class="st0" d="M588.9,519.9l1.8,7.1c1.8-2,5.5,4.2,1.8-3.5C589.3,516.6,593.1,523.4,588.9,519.9z"/>
		<path class="st0" d="M238,535.1l-2.7-17.8C235.3,528.2,234,527.6,238,535.1z"/>
		<path class="st0" d="M520.6,402.7l7.3-2.7c-2-0.7,3.7-4.4-4.2-0.9c-4.2,1.8-0.7-0.4-3.1,3.8V402.7z"/>
		<path class="st0" d="M456.5,789.7c-6.4,4.6-4.2,0.9-6.6,10.6L456.5,789.7z"/>
		<path class="st0" d="M316.6,600.1c3.5,2.7-6.2,9,3.1,2.4c5.5-3.8,0,4.2,2.2-3.7l-5.5,1.5L316.6,600.1z"/>
		<path class="st0" d="M482.1,420.8c7.3-1.8,3.8,0.4,7.5-5.1C483.2,417.5,485.6,416.4,482.1,420.8z"/>
		<path class="st0" d="M619.5,817.5c8.2-3.8,0.9,3.8,7.5-4.9C619.9,814.4,623.3,812,619.5,817.5z"/>
		<path class="st0" d="M466.9,901.4c8.2-3.8,0.7,4,7.3-4.9C467.1,898.3,470.8,895.7,466.9,901.4z"/>
		<path class="st0" d="M502.5,420.8c6.4-1.6,2.9,0.5,5.7-5.1C505.4,417,503,416.6,502.5,420.8z"/>
		<path class="st0" d="M446.6,988.4l-4.9-8.4C443.3,991,439.8,984.4,446.6,988.4z"/>
		<path class="st0" d="M330.1,832.5l-4.9-6.6C325.9,833.5,323,830.3,330.1,832.5z"/>
		<path class="st0" d="M632.3,718.4c-2-8.1,0.9-4-6.2-7.3L632.3,718.4z"/>
		<path class="st0" d="M650.5,893.5c4.4-7.1,1.3,4.6,4.6-7.1C650.6,889.9,651.6,887.3,650.5,893.5z"/>
		<polygon class="st0" points="454.3,1003.2 459.3,1003.2 458.9,998.5 		"/>
		<path class="st0" d="M458.9,998.5c2.2-4.2,2,1.5,0.7-4c-0.7-3.1,0.2-0.2-3.1-2.4L458.9,998.5z"/>
		<path class="st0" d="M619.1,739.3c-2.6-3.7,2.4-1.1-3.8-4.8C616,741.3,612.7,736.4,619.1,739.3z"/>
		<path class="st0" d="M626.5,773.6c-1.6-6,2.4-0.5-2.7-4.2C622.4,776.1,621,771.9,626.5,773.6z"/>
		<path class="st0" d="M667.7,939.5c-1.5-6,1.3-3.3-5.5-4.4L667.7,939.5z"/>
		<path class="st0" d="M392.8,316.1c7-1.3,3.1,1.8,4.9-4.4L392.8,316.1z"/>
		<path class="st0" d="M419,533.1c-2-6,0.9-3.7-4.9-4.9L419,533.1z"/>
		<path class="st0" d="M596.8,886.4c3.7,4.4-7.1,1.5,5.7,4.4L596.8,886.4z"/>
		<path class="st0" d="M540.2,482c-1.3-7.3,3.5-3.7-3.8-4.4L540.2,482z"/>
		<path class="st0" d="M622.4,873.2l4.8-4.8C620.6,870.5,624.1,866.6,622.4,873.2z"/>
		<path class="st0" d="M446.6,970.3c4.6,5.1-5.7,2.6,6,4.4L446.6,970.3z"/>
		<line class="st1" x1="380.5" y1="182.8" x2="380.5" y2="182.8"/>
	</g>
</g>
</svg>
