<?xml version='1.0' encoding='utf-8'?>
<svg xmlns="http://www.w3.org/2000/svg" width="13in" height="18in" version="1.1" style="shape-rendering:geometricPrecision; text-rendering:geometricPrecision; image-rendering:optimizeQuality; fill-rule:evenodd; clip-rule:evenodd" viewBox="0 0 13000 18000"> <defs> <style type="text/css">  .fil0 {fill:black}  </style> </defs> <g id="Layer_x0020_1"> <metadata id="CorelCorpID_0Corel-Layer"/> <g id="_1201394304"> <path class="fil0" d="M5051 4983l27 45c8,20 10,34 15,55 -47,-28 -42,-27 -42,-99zm479 823l5 -3c11,-7 17,-19 18,-32 20,38 17,22 -16,46l-7 -11 0 0zm5 -69c-12,-8 -27,-9 -40,-3 0,-12 1,-23 -4,-34 -1,-3 -1,-5 -2,-8 -1,-5 -4,-10 -7,-15 -3,-6 -5,-9 -10,-14l-2 -9c11,-17 8,-41 -7,-54 -1,-15 -10,-28 -24,-34l-2 -1c-3,-7 -7,-14 -11,-21l-1 -1c2,-9 1,-18 -3,-26 13,13 29,24 51,32 31,10 50,6 77,20 38,20 15,25 56,41 -24,30 2,18 -48,23 3,3 7,7 9,9l-42 34c12,1 40,2 50,6 1,0 117,82 212,94 26,41 55,45 49,105 -52,-96 -125,-131 -258,-105 30,-40 66,-29 24,-50 -23,-12 -45,-3 -80,-20 5,11 9,21 13,30zm-129 -237l-1 -1c-2,-2 -4,-4 -6,-6 -1,-1 -2,-2 -3,-3 -1,-2 -2,-4 -3,-6l0 -3c4,7 9,14 13,20zm-34 -56c-3,-2 -6,-3 -10,-4 -15,-24 -32,-46 -51,-67 -25,-46 -57,-87 -95,-124l-3 -3 4 3c0,-32 -3,-62 4,-92 17,-68 4,-31 33,-50l17 61 23 38c0,-2 3,1 4,2l-10 77 38 -48c1,2 2,5 2,6l15 28c7,11 10,-6 -3,48 38,-19 -2,-14 56,14l-21 57 -21 -42c-1,54 -9,56 39,71 28,9 53,5 85,-1l11 -20c1,-3 3,-7 4,-10l16 -39c47,-82 41,-20 37,-128 -33,-28 -32,-23 -54,-56 116,28 85,80 83,181 12,-14 49,-57 54,-86 8,-46 -12,-55 -29,-78l-12 -17c36,-7 42,-20 60,9 16,27 9,52 9,88 20,-11 17,-7 43,-13l-65 60c-39,37 -22,16 -47,64l29 12 -24 140c-65,-9 -97,-23 -103,-96 -36,5 -71,14 -123,14zm-189 -226c-11,-9 -22,-18 -33,-26 -10,-14 -21,-28 -33,-41 -15,-27 -33,-53 -52,-77 -11,-20 -23,-40 -37,-59 -2,-8 -4,-15 -6,-23 5,2 10,4 15,7 11,-43 18,-41 28,-84 -29,8 -49,12 -54,41 -3,-9 -7,-18 -11,-27 25,-20 49,-34 66,-69 -57,-3 -23,8 -52,-17 -59,-50 -60,-89 -59,-130 1,-4 2,-8 3,-12l13 32c8,21 1,11 11,31 9,18 21,31 39,45 39,31 68,21 93,57l35 -20c-56,-35 -87,-6 -139,-83 11,-46 2,-14 24,-59l32 -52c-7,59 -20,48 -10,121 16,-36 -1,-30 26,-64l11 68c329,5 19,107 169,262 65,67 67,16 67,16 -118,-32 -29,-191 -14,-237 -49,-18 -21,10 -14,-69l-42 -56c-5,55 -1,25 -14,42l-28 -56 -42 56c24,-136 -13,-73 28,-138 55,18 0,1 38,17 13,6 19,8 39,13 34,7 18,17 42,-3 -36,-59 -40,-11 -64,-69 -16,-80 36,-116 36,-118 1,-5 5,-5 7,-7 -16,67 -33,78 -2,140l10 -19c1,-3 2,-8 3,-11l10 -31c0,-5 3,-6 4,-9 2,42 7,50 15,82 26,-40 9,-61 21,-74l19 58c12,-25 -17,-13 28,-25 3,-84 -1,-117 3,-199l12 -39 28 14c-18,37 -14,25 -10,82l23 -40c6,85 10,77 70,110 0,-125 15,-77 33,-134 16,-50 -24,-38 8,-116 31,-74 60,-152 109,-210 -28,-25 -15,-26 -27,-43l-54 45c12,-38 9,-24 28,-56l-41 -29c17,-14 28,-23 41,-41l-59 -41c52,-2 35,3 71,-14 13,52 31,58 70,82 60,-40 55,-53 94,-107 -76,-2 -59,34 -135,52 90,-122 173,-17 156,-121 39,14 49,-19 66,-59l-56 -44c-1,2 -2,6 -3,7l-6 32c-39,-48 -75,-165 -107,-227l-175 -463c-13,-43 -28,-80 -44,-123 -8,-20 -15,-38 -25,-58 -6,-12 -7,-14 -16,-28l-13 -17c0,16 -1,30 -1,44 -1,-5 -3,-9 -6,-13 -1,-6 -3,-11 -6,-15 -2,-5 -5,-10 -9,-14l1 1c-2,-3 -3,-6 -5,-8 0,-25 0,-49 1,-69l-31 -102c-8,38 -12,45 -13,76 -1,-2 -2,-4 -3,-5 -2,-5 -5,-9 -8,-13 -3,-7 -9,-13 -15,-17 2,-16 5,-27 11,-41l22 -34c1,-4 4,-5 7,-7 49,42 35,96 77,165l19 -53c37,67 24,73 62,119 6,7 35,-4 36,131 2,-3 4,-7 5,-9 1,-2 4,-7 5,-9l17 -36c24,77 24,133 52,203 16,-107 -60,-207 -20,-270 35,62 68,248 88,322l34 92c-6,-106 -33,-211 -61,-315 -29,-106 0,-80 5,-89 6,77 43,148 54,223l52 213c1,-2 4,5 6,8 -1,-60 -14,-59 -16,-125 -2,-53 4,-66 -6,-118 -8,-43 -13,-65 -20,-105 -26,-147 -14,-75 0,-97l47 216c31,172 128,487 92,644l140 -56c-11,-42 -18,-42 -29,-83 39,-20 60,-23 100,-39 50,-20 32,-31 96,-43l-16 40c40,9 39,28 50,-4 15,-44 0,-11 -7,-23 -22,-38 -99,-60 -222,-253 -39,-62 -81,-130 -100,-206 -36,-149 -55,-164 -69,-222 48,-67 130,-137 237,-152 190,-26 206,-96 249,-126l-70 583c0,74 0,148 0,223 2,0 5,0 7,0 1,3 2,5 4,8 0,4 0,9 0,13 0,1 0,2 0,3l-10 1 -17 72c24,-15 45,-24 63,-30 11,4 24,3 35,-4 7,-3 13,-7 17,-13 2,-2 4,-4 6,-6 2,-1 3,-2 4,-2 8,-3 14,-8 19,-15 3,-2 5,-4 7,-7 4,-4 7,-8 10,-13l2 -2c8,-8 12,-18 12,-28l0 3 1 -2c3,-6 5,-10 6,-15 33,-24 54,-62 87,-113 143,-225 195,-272 330,-461 27,-38 50,-71 77,-117 23,-38 42,-89 75,-119 16,39 -4,52 -30,94 -17,26 -35,60 -50,89 -26,49 9,25 -30,81 -27,38 -35,31 -56,84 40,-26 53,-49 84,-83 55,0 13,-4 31,17 -39,25 -51,36 -69,76 56,2 20,7 66,-23l5 13c1,1 2,5 3,5 1,1 4,4 5,4 15,10 10,4 29,6 -26,52 -12,92 42,111l-42 42c38,-3 30,-1 56,-14 1,36 -9,18 9,47 14,22 8,5 32,22 6,55 15,45 -13,82l-1 -68c-50,21 -46,11 -15,41 -41,30 -35,61 -84,97 -50,37 -111,61 -167,100l-28 2c-22,0 -40,18 -40,40 0,7 1,12 2,17 -11,12 -20,26 -30,41 -8,0 -14,3 -21,5 -8,3 -16,8 -21,15 -1,0 -2,1 -3,1l5 -11c-28,12 -28,13 -71,13 21,-35 40,-150 41,-193 -53,-21 -7,7 -40,-43 -21,-32 -15,-22 -43,-40 -11,22 -18,41 -34,64 -13,19 -21,27 -35,47 5,41 -22,-29 40,39 1,1 5,4 6,5l50 108c-99,51 -110,13 -153,60l100 5c-2,1 -5,3 -7,5 -2,1 -5,2 -7,4l-1 0 4 -4c-7,0 -11,1 -18,3 -11,0 -21,-1 -31,3 -11,0 -18,0 -28,6 -3,-1 -7,-2 -11,-2l-12 0 0 0c1,-1 1,-3 2,-5 1,-4 6,-3 9,-5 -16,0 -31,1 -45,2 -4,-1 -8,-2 -13,-2l-24 0c-8,0 -15,2 -21,6 -2,1 -5,2 -7,3 -1,0 -2,1 -3,2 -5,1 -10,3 -14,6 -91,32 -44,108 -81,220 51,26 71,49 112,64 2,8 5,15 11,21 4,4 7,7 10,10l-8 1c30,51 37,38 56,112 -75,-40 -117,-76 -166,-69 0,0 -93,20 -2,29 -38,34 -144,124 -194,138 16,-67 12,-37 -16,-58l57 -69c-154,48 -106,269 -227,335l76 -179c30,-80 57,-97 96,-156 -88,3 -44,10 -93,48 -42,33 -39,-2 -70,70 -34,79 -24,158 -58,215 -1,-40 8,-82 12,-136 3,-45 18,-71 29,-109 -38,22 -51,59 -86,123l28 0c-2,68 -32,124 -68,154l-1 -32 -28 16 -2 26c-13,8 -20,-2 -32,32 -20,55 27,-32 -6,38l56 -19 9 -37c44,-19 15,6 44,-39 28,34 35,5 69,27 -48,30 -87,34 -136,73 -17,14 -110,98 -40,131l144 -55c41,-13 84,-29 128,-23 29,4 14,4 28,13 -26,16 -83,17 -178,57 -27,12 -46,21 -69,42l-34 49c-1,2 -4,11 -5,9 -1,-2 -3,6 -5,9l-19 -48c-20,-41 -35,-60 -36,-118 -41,17 -8,21 -56,-17 -10,45 -20,52 -28,101 55,27 47,2 83,55 -13,55 -36,94 -88,73 -4,-35 9,-20 18,-73 -62,-2 -29,3 -67,-16 -24,-12 -31,-16 -63,-26l5 85c30,11 13,12 42,-4l13 46c-18,14 -28,21 -42,45l70 10c-12,58 -6,18 0,83 -58,30 -26,-6 -44,41 -14,35 -4,55 14,76 35,42 83,24 86,146l22 12c0,-2 4,1 5,2l-30 20c-30,34 22,-27 -11,25 -15,24 -24,24 -42,53l-42 0c-11,24 -11,24 -29,41 1,175 -13,146 43,194 -118,3 -7,4 -83,42 33,-118 6,-30 -40,-181 -13,-43 -23,-73 -40,-111 -4,-3 -75,-18 -80,-34 -1,-4 -4,-5 -7,-7 -73,15 -50,20 -125,-1 54,75 59,-23 84,70l-84 0c15,50 14,31 45,68 11,13 16,20 20,26zm172 -2846c5,-12 10,-24 15,-36 20,35 34,69 72,96l-16 -126c51,-17 25,24 80,-31 108,-108 39,-187 138,-231 41,108 40,289 158,342l-3 -39c31,21 62,63 92,75 50,20 18,-11 122,36 -63,63 -153,200 -200,235 -16,-18 2,10 -19,-22l-23 -61c-8,-41 1,-44 -28,-81 -28,48 17,140 38,188 -27,50 -17,54 -51,87 -2,-99 11,-26 -21,-54 -1,-1 -43,-45 -44,-47 -35,-46 2,-41 -39,-57 -35,-14 -1,0 -47,18l-48 -86c-13,-11 -9,32 -19,-7 -1,-3 -5,-1 -7,-1 -9,-21 -14,-47 -27,-69 -48,-83 -27,36 -122,-131zm1407 979c-2,0 -3,1 -4,1 0,-1 1,-3 1,-5 1,1 2,2 3,3zm-1371 2128l-1 0c-1,-1 -1,-2 -2,-3l3 3 0 0zm-202 -471l30 34c-73,-22 -2,1 -30,-34zm-42 -161c29,11 13,11 42,0 -34,-47 -10,-10 -54,-42 35,-19 16,-12 68,-13 62,102 -17,105 -44,178 -9,25 -9,44 -24,70l-43 -14c-1,-52 -3,-40 -14,-82l39 -44c28,-32 19,-12 31,-53zm333 264c-143,-34 -50,-25 -152,-84l38 -320c3,-67 -54,-77 44,-96 -3,145 -111,196 -21,298 2,2 5,5 7,7 2,2 5,5 7,7l36 34c8,-17 5,4 4,-19 0,-1 -4,-32 -4,-37l112 43c3,42 7,66 -9,103l-62 64zm-70 -569c2,2 6,2 7,7 1,5 6,6 7,7 35,42 28,26 14,52 -40,-24 -26,6 -29,-65zm307 -334l-41 31c11,-44 25,-65 55,-87l-14 56zm155 -262c11,-50 57,-91 89,-133 35,-46 84,-67 148,-74l5 35 -130 76c-54,37 -69,64 -112,96zm237 -207l9 -45c67,5 26,-15 58,28l-66 17zm50 -86l2 -70 56 -42c-10,44 -27,80 -58,112zm58 -181c-19,73 -18,19 -74,92 -22,28 0,19 -37,33 -2,-3 -5,-11 -6,-8l-37 -75c99,0 83,-26 154,-42zm62 -40c19,-35 12,-34 63,-44l-63 44zm438 -447l55 11c1,1 3,5 4,6l5 13c0,0 3,26 5,39 22,-15 24,-19 55,-32 -17,34 -16,22 -28,60l28 14c-22,89 -8,29 5,64 16,42 8,45 -6,75 -28,-4 -34,2 -46,-22 -15,-32 3,-5 18,-48 -47,-16 -1,-12 -61,-106 -67,-106 -32,-22 -78,-89l40 -45c22,43 23,16 3,58zm-765 -55c2,-1 4,-4 5,-2 0,2 5,0 5,0 3,2 17,14 18,15l14 -56c6,121 118,120 129,116 2,-1 6,-4 8,-5l79 9c45,17 -4,37 62,6 -1,65 -17,75 -14,139 3,58 16,77 12,151 -23,-42 -35,-195 -39,-249 -51,14 -18,14 -69,28l0 -42 -56 56c-30,-26 -20,-6 -31,-53 -3,2 -25,14 -27,14 -25,0 8,1 -39,-18 22,49 8,28 0,42 -24,-45 -49,-85 -56,-153zm-416 -84c8,10 9,6 19,24l88 247c7,61 3,15 -9,36 -16,-101 -84,-198 -97,-306zm293 -431c26,13 12,-9 22,18 16,41 -6,17 -13,25l-9 -43zm-27 -29l27 29 -29 1 2 -30zm-238 -137c12,109 9,123 83,83 18,60 49,64 56,140l-13 -14c-2,-3 -10,-12 -12,-16 -19,-28 -5,-1 -18,-38 -27,13 -2,13 -43,7 -59,-7 25,2 -29,-10l-78 -26c-9,40 -14,43 -14,97 -7,-10 -9,-6 -17,-25 -3,-8 -9,-29 -9,-32 -4,-22 -3,-58 -4,-82 34,-27 72,-64 100,-83zm98 -13c26,29 35,48 48,97 -36,-29 -44,-43 -48,-97zm-14 -55c-28,-5 -73,3 -14,-104 4,48 13,53 14,104z"/> <path class="fil0" d="M6645 4652c-33,-16 -27,0 -122,0 26,-39 46,-52 97,-70 7,64 -20,37 45,43l-20 27zm-134 -96c-14,47 -23,71 -58,96 6,-26 8,-40 22,-63 20,-34 10,-19 36,-34zm0 0c9,-23 14,-37 26,-61 -52,19 -51,32 -97,46 13,-28 19,-35 26,-68 -84,64 -11,88 -68,179 20,55 28,69 83,83 -9,-13 -59,-69 32,-47 22,5 12,23 22,-8 58,0 45,-6 84,14l0 -28c2,3 5,7 6,9l11 17c1,2 5,11 5,8 1,-2 4,6 6,8l-3 -55 33 0c5,-59 -7,-32 39,-56 1,2 2,5 2,6l8 20c0,-2 2,5 3,7 49,-22 71,-50 110,-73 29,37 55,70 85,108 49,61 27,77 60,120 41,52 32,18 58,123 49,201 73,118 62,481 -2,67 -20,80 -54,126 -25,35 -67,55 -107,68 9,-28 -15,-2 35,-42 29,-23 14,-8 36,-36 -60,8 -11,18 -78,36 -32,44 -50,34 -78,61l-65 77c79,-13 143,-69 203,-97 -52,348 20,300 -3,460 -13,88 6,169 10,235 4,90 15,145 99,153 -17,-61 -22,-29 -51,-74 -21,-32 -17,-58 -35,-99l38 -15c-18,-7 -13,-4 -28,-14l-21 -21c19,-26 0,1 20,-21 44,-49 17,-41 46,-80 29,-38 61,-31 27,-90 -32,25 -20,26 -52,52 -41,-58 -16,-50 -20,-125 -2,-34 -20,-104 -18,-150 81,-11 74,-8 121,24 -16,46 11,7 -27,41 100,-9 30,-77 -6,-105 -16,7 -22,8 -47,12l-45 -4c20,-42 -19,-15 41,-29 47,-11 43,5 77,-34 3,-3 9,-11 12,-15 11,-15 14,-23 22,-37 -44,-30 -13,-17 -56,-24l-40 14c3,2 7,4 9,5l20 7c3,1 8,2 11,3 17,5 19,6 27,10 -59,4 -65,6 -110,16 7,-65 17,-48 45,-89l11 -23c39,6 74,14 125,15l-126 -27c18,-60 28,-35 37,-74l10 -46c7,-29 6,-11 9,-49 43,47 64,56 125,29 -15,-9 0,-5 -24,-8 -2,0 -7,1 -9,0 -114,-10 -56,-138 -106,-368 39,25 45,33 108,3 -34,-19 -9,-1 -78,-5 20,-112 80,-111 113,-179 -61,13 -59,19 -97,59 -14,15 -21,20 -32,37l-26 43c-15,-67 -17,-25 13,-85 22,-44 0,-13 15,-82l-42 0c-1,-27 -5,-65 -8,-79 -7,-34 -6,-14 -35,-46 5,-57 17,-74 41,-110 -49,13 -41,14 -55,69l-100 -34 44 -22c-44,-15 -13,-5 -29,-14 -3,-1 -6,-4 -8,-5l-48 -22c40,-49 1,-2 27,-53l-52 -31 69 -15c-68,0 -62,9 -97,-14 7,-19 -17,-39 139,-42 -73,-51 -86,58 -180,-41 -2,2 -6,6 -7,7l-34 34c19,44 13,13 40,57 16,26 16,41 29,68l-55 28 0 -83c-99,-3 -38,-32 -111,13 8,-34 14,-28 3,-53 -27,30 -61,98 -154,110z"/> <path class="fil0" d="M6798 4250l58 68c-66,-3 -84,-5 -98,-56 -33,8 -80,16 -112,28 8,-82 51,-86 98,-125 -35,3 -32,2 -55,13 -2,-2 -5,-9 -6,-7l-13 -9c-1,-1 -5,-2 -7,-2l-30 -9c13,-23 28,-57 41,-83 -2,-1 -5,-5 -5,-3l-22 -11c0,-25 3,-29 -5,-53 -9,-28 -22,-2 -15,-31 11,-41 65,8 75,15 -24,-98 -39,-44 -13,-168 -35,27 -54,66 -35,120 -57,17 -117,29 -160,7l-1 55c21,-10 29,-19 65,-11l60 39c-13,52 -23,39 -28,98 -74,-10 -50,-33 -69,13l51 6c-27,11 -16,10 -29,17l-91 33c-47,-21 -68,-30 -96,-1 183,3 20,79 277,28 -55,57 -116,72 -194,71l56 27 -63 5c42,46 34,-5 21,20 -40,2 13,-11 -38,3 -26,7 -20,7 -31,14 42,26 85,11 133,-19 43,-27 56,-54 112,-59 -14,25 -28,47 -36,77 32,-18 120,-74 131,-3 0,2 0,7 0,9 0,2 0,7 1,8l5 15c37,-15 25,30 28,-55 34,15 115,4 153,-14 -3,-2 -7,-8 -9,-6l-71 -96c-1,-3 -3,-7 -4,-10 -17,-35 -2,-9 -16,-27l-14 70z"/> <path class="fil0" d="M5855 4943c11,-39 8,-25 28,-56 28,6 24,4 45,12 20,8 15,9 26,16l-98 28zm70 -181c7,13 24,-8 2,43 -9,-9 -23,-11 -2,-43zm42 29c4,-27 16,-23 42,-29 -21,31 1,18 -42,29zm46 -40l-33 -44 -152 70c14,8 3,22 56,-1 -2,50 5,35 -15,69l-54 -42c2,44 9,45 26,71 -53,-6 -52,-17 -97,-28l30 40c-39,-2 -40,-5 -71,-12 42,56 37,-2 56,69l-68 1 55 27c-10,18 -7,15 -14,41 24,-9 18,-20 35,-4l34 3c2,-1 6,-3 8,-4 2,-1 6,-2 8,-2l36 -12c10,-7 1,-7 32,-24l8 31c17,-44 -8,-16 24,-36 1,-1 6,-1 7,-2 1,-1 6,0 7,-1l59 -31c1,0 5,-2 6,-2l81 -73c2,-2 4,-7 6,-9l11 -18c58,3 71,-4 96,-38 -78,4 -103,38 -79,-32 1,-2 2,-5 2,-7 5,-14 1,-14 15,-45 -48,25 -24,28 -76,41l0 -55 -37 57z"/> <path class="fil0" d="M6481 5167c46,-103 69,-43 70,-42 -40,15 -22,29 -70,42zm115 -56c-45,-12 -17,9 -32,-28 37,16 13,-10 32,28zm135 -27c-43,-11 -31,-1 -42,-42 44,11 31,-1 42,42zm-264 167c81,-125 124,-106 169,-123 46,-17 17,-18 65,-29l30 40 -38 31c-16,11 -29,17 -45,25 -61,30 -54,16 -69,55l153 -69c-35,98 -77,20 -114,139 132,-59 124,-4 172,-164 11,-35 20,-26 39,-72 -133,31 -17,-37 -139,-69 -62,16 -21,17 -62,34 -76,32 -47,-30 -164,87 -46,46 -34,56 -68,99 -42,53 -60,29 -95,72 47,0 115,-20 177,-4 41,11 -9,3 45,18 -5,-11 -47,-20 34,-71l-89 3z"/> <path class="fil0" d="M6010 4167c-25,34 -8,27 -57,41l-148 116c-26,11 -48,10 -74,17 73,61 -58,-2 14,9 65,10 143,-8 203,-37 36,-17 66,-44 114,-36 86,14 24,48 100,69 -27,-54 -30,-68 -97,-81l68 -85c41,18 81,12 140,13l-55 28c72,7 24,-21 49,48 16,45 0,35 47,50 -13,-27 -19,-38 -29,-71l41 26c-11,-48 -12,-16 -25,-68 -2,-2 -5,-10 -6,-7l-41 -21c64,-49 35,-31 5,-42l18 -11c18,-4 19,-4 37,-5l-12 -40 45 -28c-122,4 -72,47 -158,70l59 -67c-140,31 -125,163 -239,197 32,-56 31,-22 57,-80l-56 -7z"/> <path class="fil0" d="M6880 3249c-3,0 -6,0 -10,1 2,2 4,4 6,5 1,-2 2,-4 3,-6zm312 483c-1,1 -2,2 -3,2l1 0c1,0 2,1 2,1l0 -4z"/> <path class="fil0" d="M5772 6167c40,40 29,51 70,98 -4,-79 -52,-111 -68,-183l152 84c-9,70 -66,155 70,194 -41,-53 -49,-10 -69,-98 25,17 27,24 69,28 -36,-33 -42,-52 -14,-111l-22 -11c-1,-2 -4,-2 -7,-3 56,-107 14,-23 15,-152l-27 13c-1,-1 -3,-5 -4,-6l-11 -16c-2,-2 -10,-15 -13,-19l-97 1c65,55 61,18 71,97 -35,-22 -82,-48 -131,-52 -42,-3 -41,-1 -41,15l3 22c9,23 2,5 22,35 18,28 21,28 33,65z"/> <path class="fil0" d="M7398 5623c43,-56 37,-120 2,-179 5,-8 10,-15 16,-22 -6,-9 -12,-18 -18,-27 -10,8 -19,14 -29,20 -43,-10 -40,-14 -97,-14 3,2 7,4 9,5l30 11c14,4 24,6 45,11l0 56c30,-15 5,-4 42,-14 14,92 15,60 1,152z"/> <path class="fil0" d="M7360 3607l-3 7 3 -11c0,1 0,3 0,4z"/> <path class="fil0" d="M5909 4204l45 3c24,-27 18,-27 57,-41 26,-45 52,-55 85,-96 28,-34 59,-69 80,-100l14 42c58,-26 48,-43 128,-59 38,-19 114,-18 145,-3 12,-14 10,-13 19,-36 -35,17 -105,21 -153,15 -71,-9 -15,2 -41,-15l55 -14c-1,-1 8,-43 -96,0 -121,50 -165,145 -249,234 12,-58 21,-18 21,-76 -35,48 -77,110 -109,144z"/> <path class="fil0" d="M6344 3662l-1 2 2 0c0,-1 0,-2 -1,-2zm-47 -158c-1,0 -3,0 -4,1 1,1 3,1 4,2l0 -3z"/> <path class="fil0" d="M7203 5582c19,53 46,30 52,71 9,52 1,6 -12,26 0,-48 4,-14 -15,-25l-49 20c29,11 18,5 48,33 -28,59 -2,36 -61,34 1,4 46,-16 -19,35 37,40 42,75 -4,123l-32 31c115,-9 9,-38 118,-42 -35,-52 -22,-9 -18,-58 4,-50 2,-48 18,-81l42 43c-1,-201 7,-63 44,-168 -2,-1 -5,-2 -6,-2 -1,0 -5,-2 -6,-2 -1,0 -6,-2 -7,-3l-14 -7c2,-3 6,-6 7,-8l10 -62 -28 42c-22,-14 -25,-19 -57,-26l29 40c-39,-7 -16,3 -42,-14z"/> <path class="fil0" d="M5759 5347c-21,28 -3,17 -42,33 19,-31 2,-23 42,-33zm-112 14l-26 25c-5,80 -40,109 22,141l-9 -85c54,16 38,8 29,55l27 1c18,-54 54,-74 98,-97 -2,-2 -7,-5 -8,-6l-20 -49c18,-50 -12,-15 27,-70 -63,19 -80,52 -113,95l-26 -11z"/> <path class="fil0" d="M6634 4888c-58,-6 -44,21 -37,-54l37 54zm-110 -42l18 22c32,72 -32,129 36,170 26,-42 21,-1 -14,-53l83 -83c7,-25 -17,-58 -33,-78 -28,-35 -26,-24 -61,-44l-29 67z"/> <path class="fil0" d="M5392 2264c2,0 4,-1 6,-1 -1,-5 -2,-9 -3,-13 -1,5 -2,9 -3,14z"/> <path class="fil0" d="M6162 6263c1,-245 25,-131 52,-232 -39,26 -39,15 -52,66l-49 -35c-1,-4 -5,-4 -7,-6 -11,44 -23,36 -27,71 -5,41 10,48 27,67l-28 42c31,-15 30,-25 69,14l14 15z"/> <path class="fil0" d="M5664 5894c0,1 2,5 2,6 0,1 1,5 2,6 18,33 17,15 47,41 44,39 14,44 53,62l19 -65c-35,-156 -155,-70 -221,-56 32,24 -44,23 51,11 2,0 28,-8 47,-10 1,2 2,5 2,5z"/> <path class="fil0" d="M5787 5777c34,-7 9,11 24,-10 -47,-55 -65,-106 2,-172 35,-35 57,-40 84,-83 -77,23 -105,67 -139,113 -19,-13 -26,-16 -45,-28 20,50 18,17 31,70 -20,-14 -27,-26 -52,-34 -60,-22 -41,3 -46,6 52,14 107,91 139,139z"/> <path class="fil0" d="M6317 3955c-3,3 -7,3 -9,7l-27 18c-24,21 -11,0 -23,32 31,-17 35,-25 81,-26 -17,15 -15,11 -22,36 18,-8 -6,-27 27,-4 1,1 3,4 4,5l5 13c0,1 1,5 2,7 39,-22 1,-18 56,-3 1,2 3,3 3,6 0,3 3,5 3,6 0,1 2,5 3,5l5 11c32,-15 21,-13 69,-14l-40 -55c-1,-1 -4,-5 -5,-6 -1,-1 -3,-5 -4,-6l-5 -11c0,-1 -1,-4 -2,-5l-122 -16z"/> <path class="fil0" d="M6970 2724c19,33 2,28 33,58 30,30 111,10 117,202 55,-45 1,22 -1,-165 -245,-100 -29,-139 -96,-279l-10 18c-1,3 -2,8 -3,11l-9 61c-8,32 -21,69 -31,93z"/> <path class="fil0" d="M7109 4122l-73 23c56,5 35,9 71,-8 -6,147 -116,105 -153,167 183,-43 146,-88 194,-165 25,1 49,1 66,16 22,19 13,35 31,66l2 -69c-47,-24 -32,-14 -84,-28 -68,-18 -16,-23 -85,-41l32 40z"/> <path class="fil0" d="M6551 6763c-54,0 -35,-104 -19,-144 21,-50 50,-76 60,-133 -39,34 -127,169 -81,278 -66,-18 -52,-38 -30,-126 -21,14 -29,16 -38,47 -30,108 85,95 163,92 -23,-59 5,-14 -56,-14z"/> <path class="fil0" d="M5412 4068c0,89 15,75 0,138 69,-28 29,40 64,-36l27 67 2 -93c-69,-31 -14,-35 -55,-39 -41,-4 32,-27 -18,11 -1,1 -4,5 -7,8 5,-88 49,-116 83,-167 -58,17 -24,5 -54,43 -23,28 -43,36 -43,68z"/> <path class="fil0" d="M5912 5249c69,77 88,33 83,153 -74,0 -80,-16 -111,27 90,-22 79,-27 86,80 15,-20 131,-255 -59,-261z"/> <path class="fil0" d="M5314 4100l28 -4c8,-57 12,-58 43,-96l27 -35c0,-2 -44,-29 11,-29 68,0 -37,20 28,11 24,-3 22,-20 30,-32 -96,-22 -103,7 -141,81 -31,60 -26,34 -26,103z"/> <path class="fil0" d="M6357 5040c39,13 20,11 68,14 9,-17 8,-15 16,-37 12,-33 90,-72 36,-96 -45,-19 -83,88 -83,88 -2,3 -4,6 -6,9l-32 22z"/> <path class="fil0" d="M6159 6362c25,19 31,19 54,43 32,34 6,28 59,38 -23,-70 -137,-160 -222,-166l108 85z"/> <path class="fil0" d="M5148 4263c47,-13 41,-1 97,-14 -2,-1 -17,-16 -20,-21l-22 -103c-49,51 -54,68 -56,139z"/> <path class="fil0" d="M6423 6622c-44,33 -67,90 -42,157 13,34 24,46 53,60 88,42 75,8 76,8 -75,-39 -62,-1 -112,-83 -1,-97 15,-74 25,-141z"/> <path class="fil0" d="M6104 5888c9,-7 8,-9 26,-17 44,-19 39,3 77,-39 -62,5 -112,32 -185,42 38,24 36,10 67,23 -51,7 -50,-1 -81,19 39,-1 67,2 106,-6 71,-13 48,0 54,-26l-65 4z"/> <path class="fil0" d="M5688 4750c1,4 1,19 1,27l-30 -1 15 -55c10,15 6,3 14,29zm-71 44l76 20c2,1 6,3 10,4 1,-92 -3,-139 -54,-179l15 82 -46 73z"/> <path class="fil0" d="M5231 4082c26,77 40,98 97,139 -17,-63 -28,-47 -69,-125 12,-27 20,-51 28,-83 -43,29 -31,24 -55,69z"/> <path class="fil0" d="M7287 6290c-53,-32 -53,-32 -139,-27 -1,2 0,4 0,5 3,70 -24,-12 -83,23l55 15c29,1 44,-5 64,-8 59,-11 103,15 104,-7z"/> <path class="fil0" d="M6136 5726c167,40 173,11 150,174 40,-29 18,-9 43,-54 -24,-111 -58,-126 -193,-120z"/> <path class="fil0" d="M5863 4527c-54,-28 -38,-33 -84,-36 47,37 48,20 49,91 11,-10 23,-24 33,-31l37 -25c-16,-30 -24,-42 -42,-69l-69 0c75,40 54,-14 76,70z"/> <path class="fil0" d="M5387 4336c13,-22 -3,-4 19,-23 1,-1 8,0 9,-5 1,-5 7,-3 10,-4 10,-12 4,-17 14,-33 -45,-2 -65,-14 -125,75l73 -10z"/> <path class="fil0" d="M5203 4582c52,1 29,-35 24,-93 -7,5 -9,7 -18,16l-13 14c-1,2 -5,5 -7,8 8,-52 20,-36 -3,-70 -23,61 -18,87 17,125z"/> <path class="fil0" d="M6317 5749c-35,-92 -182,-139 -253,-98 184,-2 173,49 253,98z"/> <path class="fil0" d="M6423 6622c45,-23 129,-129 142,-178 -23,15 -123,121 -142,178z"/> <path class="fil0" d="M7162 4610l28 41 21 -43 12 39c4,-3 6,-9 7,-7l19 -28c28,-26 4,16 37,-43 -58,10 -84,20 -124,41z"/> <path class="fil0" d="M6915 4930c22,52 -4,41 57,56 -51,-83 41,-32 -5,-115 -31,25 -29,23 -52,59z"/> <path class="fil0" d="M5495 6152c0,-27 20,-54 34,-83 -71,56 -99,168 10,194 -42,-53 -44,-22 -44,-111z"/> <path class="fil0" d="M6106 5332c6,52 0,22 16,41 12,-18 25,-45 39,-64 -24,-53 -21,-52 -66,-85 9,53 16,21 23,56 9,42 3,39 -12,52z"/> <path class="fil0" d="M5912 4526c67,1 68,6 110,29l-4 62c0,1 2,4 3,7 20,-39 15,-30 15,-89 -53,-23 -56,-9 -69,-65 -2,3 -4,5 -5,10 -1,5 -4,7 -5,9 -1,2 -4,7 -6,9 -2,2 -5,6 -6,8l-32 22z"/> <path class="fil0" d="M6814 6791c-23,15 -9,14 0,63 -59,0 -21,-16 -51,39 -15,27 -21,32 -36,51 63,-22 120,-81 86,-153z"/> <path class="fil0" d="M6745 4166c95,-29 100,-139 -41,-139l0 14c43,0 57,11 83,27 -2,79 -7,49 -42,99z"/> <path class="fil0" d="M6106 5332l0 -56 -41 28c-10,43 -20,63 -42,97 75,-20 7,-24 83,-69z"/> <path class="fil0" d="M7387 6605c8,44 34,80 66,102l-56 -153c-7,10 -22,-17 -11,51z"/> <path class="fil0" d="M6751 5743c63,3 150,-54 174,-91 -37,10 -133,67 -174,91z"/> <path class="fil0" d="M6204 6125c-2,111 -16,142 81,165 -123,-113 -36,-88 -81,-165z"/> <path class="fil0" d="M6381 6292c-34,-5 -63,9 -90,24l109 0 53 44c-11,-39 -30,-61 -72,-67z"/> <path class="fil0" d="M5617 4794l-39 -100c31,129 14,99 -41,180 56,-15 44,-26 79,-79z"/> <path class="fil0" d="M5111 4554c-25,-64 -21,-43 -19,-125 -43,56 -39,92 19,125z"/> <path class="fil0" d="M7269 5842c49,89 8,73 32,115 20,-41 14,-39 14,-97l-46 -18z"/> <path class="fil0" d="M6509 6332l0 97c40,-48 46,-104 -41,-123l41 26z"/> <path class="fil0" d="M5634 5055c17,-13 21,-6 27,-31 16,-62 -13,-51 -13,-51 -27,41 -22,38 -14,82z"/> <path class="fil0" d="M6413 6375c45,86 21,54 13,123 5,-7 12,-3 23,-33 4,-12 7,-24 7,-37 -1,-52 0,-37 -42,-54z"/> <path class="fil0" d="M5626 4702c21,-59 1,-57 35,-118 -24,8 -27,-10 -40,42 -9,36 -4,43 5,76z"/> <path class="fil0" d="M6394 4413c-32,-17 -42,-8 -75,-30 -25,-17 -31,-31 -60,-51 23,59 56,85 135,81z"/> <path class="fil0" d="M7305 5481c39,38 11,39 37,94 2,-82 11,-110 -68,-118l31 24z"/> <path class="fil0" d="M7581 6807c3,4 6,15 8,18 20,43 18,19 18,77 12,-14 19,-23 22,-28 1,-10 1,-20 3,-30 -19,-19 -24,-22 -50,-37z"/> <path class="fil0" d="M5953 4693c48,-42 20,-87 -41,-96 39,33 41,24 41,96z"/> <path class="fil0" d="M6009 6180l-26 41c23,47 10,39 54,69 -22,-64 -27,-21 -28,-111z"/> <path class="fil0" d="M7287 5707l41 110c2,-94 4,-93 -41,-110z"/> <path class="fil0" d="M5050 4568c-12,-45 -19,-28 -22,-55 -2,-18 12,-27 -4,-54 -29,61 -19,79 27,110z"/> <path class="fil0" d="M7315 4665l71 -10c2,-6 5,-12 8,-18 -34,0 -59,3 -79,28z"/> <path class="fil0" d="M6326 4223c35,62 -2,12 86,54 -14,-39 -44,-45 -86,-54z"/> <path class="fil0" d="M6009 6180l32 0c-5,-60 5,-44 10,-98 -21,22 -15,10 -26,44 -10,34 1,19 -16,54z"/> <path class="fil0" d="M5412 5458c51,99 31,42 106,78l-106 -78z"/> <path class="fil0" d="M6134 5485c40,-33 42,-43 42,-111 -9,13 -3,1 -15,26l-26 84z"/> <path class="fil0" d="M5537 4248c31,-44 30,-59 14,-97 -2,3 -5,4 -5,9 -1,5 -4,7 -5,10 -2,5 -8,31 -8,35l4 43z"/> <path class="fil0" d="M6022 2498c17,-10 4,10 25,-16 23,-28 6,-1 17,-38 -57,9 -42,-13 -42,55z"/> <path class="fil0" d="M7273 6360c34,7 26,3 55,42 -6,-72 -11,-18 -27,-84l-28 42z"/> <path class="fil0" d="M6301 4207l26 16 17 -43c-41,-11 -12,1 -43,-14l0 41z"/> <path class="fil0" d="M5898 5693l28 -83c-22,16 -21,3 -34,38 -19,49 -1,39 6,45z"/> <path class="fil0" d="M5689 5499l25 11c10,-12 8,-10 19,-22 22,-23 21,-18 39,-44 -54,20 -42,30 -83,55z"/> <path class="fil0" d="M5413 4343l-26 -7c-34,41 -27,25 -32,66 22,-16 11,-7 30,-27 3,-3 10,-13 13,-16 2,-2 6,-6 8,-8 2,-2 5,-5 8,-7z"/> <path class="fil0" d="M6151 4441c22,-19 17,0 29,-36 24,-68 -2,-37 -8,-45l-22 81z"/> <path class="fil0" d="M6022 2498c-11,7 -9,-1 -31,23 -24,26 -14,15 -28,47 38,-21 48,-24 59,-70z"/> <path class="fil0" d="M5791 4609c-2,-1 19,-22 17,-43 -3,-25 -8,-17 -35,-30l18 74z"/> <path class="fil0" d="M6940 5541l41 -56c-49,14 -30,15 -72,48l30 8z"/> <path class="fil0" d="M7274 6458c3,2 7,4 8,5l73 49c-10,-32 5,-21 -27,-41 -18,-11 -24,-10 -55,-13z"/> <path class="fil0" d="M7124 4314c68,-9 53,-16 65,-24 -3,-2 0,-51 -65,24z"/> <path class="fil0" d="M7247 6386c-38,5 -40,9 -71,16 12,8 -25,26 38,13 24,-5 19,-11 33,-29z"/> <path class="fil0" d="M5592 5165c-13,-29 -12,-8 1,-41 -47,7 -29,0 -56,28l55 13z"/> <path class="fil0" d="M6136 4529c-5,61 -1,42 -28,79 46,-10 55,-25 28,-79z"/> <path class="fil0" d="M6798 6667c-58,-11 -35,10 -38,17l63 4c-10,-16 8,-15 -25,-21z"/> <path class="fil0" d="M7064 4457c-15,-44 -34,-40 -84,-42l84 42z"/> <path class="fil0" d="M5647 5361c35,-24 37,-24 56,-70 -34,24 -43,26 -56,70z"/> <path class="fil0" d="M7537 5902c1,-3 23,-14 23,-42 0,-18 -23,-27 -23,-28l0 69z"/> <path class="fil0" d="M5704 5250c42,-8 34,-1 65,-29 -19,-8 -16,-9 -36,1 -63,32 -5,-2 -29,28z"/> <path class="fil0" d="M5120 4388l55 -73c-45,19 -50,19 -55,73z"/> <path class="fil0" d="M5121 4665c38,-29 21,-13 41,-68 -35,25 -30,16 -41,68z"/> <path class="fil0" d="M6579 7096l27 0 -14 -56c-18,29 -13,2 -14,56z"/> <path class="fil0" d="M5995 5999c-14,-52 -9,-44 -63,-53l63 53z"/> <path class="fil0" d="M5535 3969c27,28 64,43 35,-14l-35 14z"/> <path class="fil0" d="M6007 5890c-19,-13 18,-9 -37,-14 -18,-2 -13,3 -24,6 33,30 3,23 61,8z"/> <path class="fil0" d="M6842 6878c37,-28 40,-38 28,-80l-28 80z"/> <path class="fil0" d="M5870 5258c-54,-16 -24,-11 -49,11 74,23 41,-4 49,-11z"/> <polygon class="fil0" points="6289,6099 6259,6082 6259,6138 "/> <path class="fil0" d="M6363 5742c16,37 1,7 6,34l14 42c1,-100 3,-71 -21,-76z"/> <path class="fil0" d="M7023 4984c7,-13 13,7 7,-21 -13,-53 -11,-22 -21,-36 1,51 -6,29 14,56z"/> <path class="fil0" d="M7287 6290l14 28c8,-14 9,0 10,-25 1,-21 -2,-11 -17,-31l-7 29z"/> <path class="fil0" d="M5752 4625c6,-76 20,-53 -19,-72l19 72z"/> <path class="fil0" d="M5909 4204c-68,6 -19,1 -39,17 8,4 -15,29 22,7 23,-13 6,-3 17,-24z"/> <path class="fil0" d="M7592 6735c2,-5 19,-11 26,-30l0 -1c-2,-12 -3,-24 -3,-36 -1,-2 -1,-3 -2,-5l-21 71z"/> <path class="fil0" d="M5578 6082c13,-20 13,29 14,-41 -18,11 -7,-10 -21,19 -20,42 0,10 7,22z"/> <path class="fil0" d="M5314 4249c26,16 -31,16 27,12 26,-2 14,-4 26,-11 -26,-6 -41,-15 -54,-1z"/> <path class="fil0" d="M5772 6167l-26 12c9,13 1,-4 14,27 1,3 5,18 9,23l3 -62z"/> <path class="fil0" d="M7190 6486c13,8 -15,6 37,18 48,11 15,3 31,-5l-68 -13z"/> <path class="fil0" d="M7246 6666c18,11 -7,18 49,8 -5,-3 -23,-14 -26,-14 -29,-6 -6,-3 -23,7z"/> <path class="fil0" d="M7398 5623c-18,14 -7,-11 -21,20 -20,42 -1,9 7,22 10,-19 7,-16 14,-42z"/> <path class="fil0" d="M5716 4233c13,22 -18,22 27,13l4 -24 -31 11z"/> <path class="fil0" d="M5676 4416c30,-21 17,-2 27,-41 -21,16 -25,5 -27,41z"/> <path class="fil0" d="M5898 5693l14 42c9,-16 13,6 7,-23 -7,-33 -12,-12 -21,-19z"/> <polygon class="fil0" points="5634,5055 5607,5039 5615,5082 "/> <path class="fil0" d="M7064 4457l10 39c10,-11 30,23 10,-19 -18,-38 3,-1 -20,-20z"/> <path class="fil0" d="M5148 4540l-15 -97c0,59 -7,56 15,97z"/> <path class="fil0" d="M6691 3817l40 -15c-11,-4 20,-24 -23,-5 -23,10 -4,-2 -17,21z"/> <path class="fil0" d="M6341 5930c-35,25 -23,5 -36,58l36 -58z"/> <path class="fil0" d="M5577 4895c19,15 -34,49 17,13 30,-21 0,23 12,-20l-30 8z"/> <path class="fil0" d="M6481 3916c40,-10 21,2 41,-28 -35,10 -22,4 -41,28z"/> <path class="fil0" d="M7231 6082c45,-21 5,21 41,-27 -39,10 -20,-3 -41,27z"/> <path class="fil0" d="M6398 6540c45,-21 4,22 40,-27 -39,10 -19,-4 -40,27z"/> <path class="fil0" d="M6592 3916c35,-9 16,3 31,-28 -15,7 -28,5 -31,28z"/> <path class="fil0" d="M6287 7015l-27 -46c9,60 -10,24 27,46z"/> <path class="fil0" d="M5651 6164l-27 -36c4,41 -12,24 27,36z"/> <path class="fil0" d="M7301 5541c-11,-44 5,-22 -34,-40l34 40z"/> <path class="fil0" d="M7400 6497c24,-39 7,25 25,-39 -24,19 -19,5 -25,39z"/> <polygon class="fil0" points="6329,7096 6356,7096 6354,7070 "/> <path class="fil0" d="M6354 7070c12,-23 11,8 4,-22 -4,-17 1,-1 -17,-13l13 35z"/> <path class="fil0" d="M7229 5655c-14,-20 13,-6 -21,-26 4,37 -14,10 21,26z"/> <path class="fil0" d="M7269 5842c-9,-33 13,-3 -15,-23 -7,37 -15,14 15,23z"/> <path class="fil0" d="M7494 6748c-8,-33 7,-18 -30,-24l30 24z"/> <path class="fil0" d="M5993 3344c38,-7 17,10 27,-24l-27 24z"/> <path class="fil0" d="M6136 4529c-11,-33 5,-20 -27,-27l27 27z"/> <path class="fil0" d="M7107 6458c20,24 -39,8 31,24l-31 -24z"/> <path class="fil0" d="M6798 4250c-7,-40 19,-20 -21,-24l21 24z"/> <path class="fil0" d="M7247 6386l26 -26c-36,11 -17,-10 -26,26z"/> <path class="fil0" d="M6287 6916c25,28 -31,14 33,24l-33 -24z"/> <line class="fil0" x1="5926" y1="2616" x2="5926" y2="2616"/> </g> </g> </svg>